<svg width="434" height="272" fill="none" xmlns="http://www.w3.org/2000/svg"><path d="M425.625 68.569a3.789 3.789 0 013.765-3.792c2.133 0 3.765 1.77 3.765 3.792s-1.757 3.792-3.765 3.792c-2.134.126-3.765-1.643-3.765-3.792z" fill="#fff"/><path d="M429.392 73.117c-2.384 0-4.392-2.023-4.392-4.424 0-2.401 2.008-4.424 4.392-4.424 2.385 0 4.393 2.023 4.393 4.424 0 2.401-2.008 4.424-4.393 4.424zm0-7.71c-1.757 0-3.137 1.39-3.137 3.16 0 1.77 1.38 3.16 3.137 3.16 1.757 0 3.138-1.39 3.138-3.16 0-1.77-1.381-3.16-3.138-3.16z" fill="#282828"/><path d="M339.32 159.131c0-2.149-1.757-3.918-3.891-3.918-2.133 0-3.89 1.769-3.89 3.918s1.757 3.918 3.89 3.918c2.134 0 3.891-1.769 3.891-3.918z" fill="#fff"/><path d="M335.432 163.682c-2.51 0-4.518-2.022-4.518-4.55s2.008-4.55 4.518-4.55 4.518 2.022 4.518 4.55-2.008 4.55-4.518 4.55zm0-7.836c-1.757 0-3.263 1.517-3.263 3.286 0 1.769 1.506 3.286 3.263 3.286s3.263-1.517 3.263-3.286c0-1.896-1.381-3.286-3.263-3.286z" fill="#282828"/><path d="M243.833 100.107c-.251 10.49 6.15 21.36 16.064 24.772 5.396 1.896 11.295 1.643 16.817 3.033 5.522 1.391 11.169 5.688 11.169 11.375 0 3.792-2.133 12.513 9.162 17.568 9.412 4.171 7.153 26.795-21.837 36.274-8.911 2.907-3.138-4.424-12.424-5.814-9.162-1.39-17.319-6.572-23.72-13.397-6.275-6.825-10.793-15.167-14.181-23.761-4.016-9.858-6.777-20.854-4.267-31.218s11.671-19.717 23.217-18.832z" fill="#F9B974"/><path d="M271.936 194.521c-1.882 0-2.635-1.011-3.388-2.528-.753-1.517-1.632-3.286-5.773-3.918-8.66-1.39-17.194-6.193-23.971-13.524-5.647-6.066-10.29-13.902-14.306-23.887-5.146-12.639-6.526-22.624-4.393-31.597 2.385-10.111 11.546-20.349 23.845-19.338.376 0 .627.253.627.632-.251 10.743 6.275 20.854 15.688 24.141 2.886 1.011 6.149 1.39 9.161 1.769 2.51.253 5.02.632 7.53 1.264 5.522 1.517 11.546 5.814 11.671 12.007 0 .505 0 1.011-.125 1.643-.251 4.171-.628 10.996 8.91 15.293 3.514 1.517 5.522 5.561 5.271 10.49-.376 8.468-7.781 20.602-27.233 26.921-1.506.379-2.635.632-3.514.632zm-29.618-93.78c-10.792 0-18.824 9.226-20.958 18.452-2.008 8.721-.753 18.453 4.267 30.839 4.016 9.858 8.66 17.568 14.056 23.508 6.651 7.205 14.934 11.881 23.343 13.145 4.643.758 5.773 3.033 6.651 4.676.879 1.643 1.255 2.528 5.397 1.264 18.824-6.193 25.978-17.821 26.354-25.91.251-4.423-1.506-7.962-4.518-9.226-10.291-4.55-9.914-12.007-9.663-16.557 0-.632.125-1.137 0-1.643 0-5.435-5.522-9.479-10.667-10.743-2.385-.632-4.895-.885-7.405-1.264-3.137-.379-6.4-.758-9.412-1.896-9.664-3.412-16.441-13.776-16.441-24.772-.376.126-.753.127-1.004.127z" fill="#282828"/><path d="M187.222 76.096c3.012 15.04 6.024 31.091-.125 45.12-2.008 4.55-4.895 8.721-6.526 13.398-1.883 5.561-2.008 11.627-1.506 17.568 1.004 11.122 4.267 22.497 12.048 30.459 7.781 7.963 20.707 11.502 30.37 5.814 8.409-4.929 12.299-15.546 11.672-25.277-.502-9.732-4.644-18.959-9.036-27.68-10.417-21.233-22.59-41.329-36.897-59.402z" fill="#F9B974"/><path d="M210.937 191.741c-7.153 0-14.683-3.034-20.205-8.721-6.902-7.078-11.044-17.568-12.299-30.839-.627-7.331-.125-12.892 1.506-17.821 1.004-2.78 2.385-5.435 3.765-7.836 1.004-1.769 2.008-3.665 2.761-5.561 5.773-13.271 3.389-28.058 0-44.742 0-.252.126-.505.377-.632.251-.126.627 0 .753.127 13.428 17.062 25.978 37.032 37.147 59.403 4.267 8.594 8.534 17.947 9.162 27.931.627 11.123-4.142 21.234-12.048 25.91-3.263 1.896-7.028 2.781-10.919 2.781zM188.348 78.496c3.137 15.799 5.02 29.955-.628 42.973-.878 1.895-1.882 3.791-2.886 5.687-1.381 2.528-2.761 5.056-3.64 7.71-1.631 4.676-2.133 10.111-1.38 17.315 1.129 13.144 5.145 23.256 11.922 30.081 8.158 8.341 20.833 10.869 29.618 5.687 7.53-4.424 12.048-14.156 11.42-24.772-.502-9.858-4.769-18.958-9.036-27.427-10.793-21.486-22.589-40.697-35.39-57.254z" fill="#282828"/><path d="M208.299 151.045c.251-7.962.251-11.248-.627-20.348a31.958 31.958 0 0110.165-3.286c1.632-.253 3.389-.38 4.644.631.753.632 1.129 1.517 1.506 2.402 2.635 6.067 6.275 13.271 8.785 19.464.251.505-.753-.127-.753.379 0 .758 3.137 8.089 2.635 8.721-5.271 5.561-21.711 38.927-26.355-7.963z" fill="#fff"/><path d="M218.091 176.322c-.377 0-.879 0-1.255-.126-4.518-1.264-7.53-9.353-9.162-25.025v-.126c.251-8.089.251-11.249-.627-20.349 0-.253.125-.506.376-.632 3.263-1.643 6.777-2.781 10.417-3.412 1.631-.253 3.639-.38 5.02.758.878.758 1.38 1.769 1.757 2.654 1.255 3.033 2.886 6.446 4.392 9.732 1.506 3.286 3.138 6.699 4.393 9.732.125.379 0 .632-.126.758-.125.127-.376.253-.502.253.251.632.628 1.643.879 2.528 1.757 4.676 2.008 5.687 1.506 6.193-.879.885-2.008 2.528-3.263 4.423-3.765 5.435-8.911 12.639-13.805 12.639zm-9.162-25.277c1.506 14.787 4.267 22.876 8.158 23.887 4.392 1.138 10.04-6.699 13.805-12.007 1.255-1.896 2.384-3.412 3.263-4.424 0-.758-1.004-3.412-1.632-4.929-.878-2.275-1.129-3.033-1.129-3.412 0-.253.125-.506.251-.632l.125-.126c-1.255-2.907-2.761-5.941-4.141-8.974-1.506-3.286-3.138-6.699-4.393-9.732-.376-.758-.753-1.643-1.38-2.149-1.13-.884-2.761-.758-4.142-.505-3.388.505-6.526 1.516-9.663 3.033 1.129 8.721 1.129 12.007.878 19.97z" fill="#282828"/><path d="M183.713 79.758c1.004 7.457 2.51 15.167.502 22.497-1.004 4.045-.878 24.393 15.311 30.207 8.534 3.033 18.323 2.401 27.234-2.907 6.023-3.665 13.302-15.04 11.796-26.289 4.895 1.391 9.789-2.022 9.915-6.446 0-2.527-2.761-5.813-5.773-5.687-2.259.126-2.636.126-4.393 1.517-1.255-5.309-1.882-10.617-1.882-16.81-5.647-6.193-14.683-9.48-23.719-10.743-3.012-.506-6.024-.758-9.036-.38-8.534 1.138-20.959 7.458-19.955 15.041z" fill="#fff"/><path d="M210.192 134.991c-3.639 0-7.153-.632-10.792-1.895-16.315-5.814-16.943-26.037-15.688-30.966 1.632-6.32.753-13.018-.251-19.59l-.376-2.654c-.251-2.149.376-4.297 2.008-6.32 3.89-5.055 12.55-8.594 18.573-9.352 3.389-.38 6.652 0 9.287.379 7.405 1.137 17.696 3.918 24.096 10.996.126.126.126.252.126.379-.126 5.182.376 10.237 1.631 15.672 1.255-.885 1.883-.885 3.891-1.011 1.506-.126 3.011.632 4.266 1.77 1.255 1.263 2.134 3.033 2.134 4.423 0 2.149-1.13 4.297-3.012 5.687-1.883 1.391-4.392 2.023-6.777 1.644 1.004 11.501-6.275 22.37-12.173 26.036-5.271 3.159-11.044 4.802-16.943 4.802zm-3.388-69.893c-1.004 0-1.883 0-2.887.127-5.898.758-14.181 4.17-17.82 8.847-1.381 1.77-2.008 3.665-1.757 5.435l.376 2.654c.879 6.572 1.883 13.523.126 20.096-.753 2.78-1.632 23.634 14.934 29.448 8.91 3.16 18.323 2.149 26.606-2.907 5.647-3.412 12.926-14.534 11.546-25.657 0-.252 0-.379.251-.505.125-.127.376-.127.627-.127 2.259.632 4.769.253 6.651-1.263 1.506-1.138 2.51-2.907 2.51-4.677 0-1.137-.627-2.528-1.756-3.539-1.004-1.01-2.259-1.516-3.389-1.516-2.259.126-2.384.126-4.016 1.39-.125.126-.376.126-.627.126-.251-.126-.377-.252-.377-.505-1.38-5.814-1.882-11.122-1.882-16.684-6.15-6.698-15.939-9.352-23.092-10.363-1.757-.127-3.765-.38-6.024-.38z" fill="#282828"/><path d="M219.593 107.82c-5.271 0-9.914-4.424-10.793-10.364-.376-3.034.251-6.193 2.008-8.595 1.757-2.527 4.142-4.044 7.028-4.423 2.761-.38 5.648.505 7.907 2.401 2.259 1.896 3.639 4.677 4.141 7.836.377 3.034-.251 6.193-2.008 8.595-1.757 2.527-4.141 4.044-7.028 4.423-.502.127-.878.127-1.255.127zm-.502-22.118c-.376 0-.753 0-1.129.126-2.51.38-4.644 1.643-6.15 3.918-1.506 2.149-2.133 4.93-1.757 7.71.753 5.687 5.522 9.858 10.542 9.226 2.51-.379 4.644-1.643 6.15-3.918 1.506-2.148 2.133-4.929 1.757-7.71-.377-2.78-1.632-5.308-3.64-7.077-1.757-1.517-3.765-2.275-5.773-2.275zm-28.993 23.51c-5.271 0-9.914-4.423-10.793-10.363-.878-6.446 3.263-12.26 9.036-13.018 5.773-.759 11.169 3.791 11.922 10.237.879 6.446-3.263 12.26-9.035 13.018-.251.126-.628.126-1.13.126zm-.502-22.244c-.376 0-.753 0-1.129.126-5.146.632-8.66 5.814-7.907 11.628.753 5.688 5.522 9.859 10.542 9.227 5.145-.632 8.659-5.814 7.906-11.628-.502-5.308-4.768-9.353-9.412-9.353z" fill="#282828"/><path d="M245.065 34.514c-3.012-9.985-13.428-15.546-23.342-12.513-9.915 3.034-15.437 13.524-12.425 23.509 3.012 9.984 13.429 15.545 23.343 12.512 9.914-3.033 15.436-13.523 12.424-23.508z" fill="#F9B974"/><path d="M227.24 59.413c-8.283 0-15.938-5.435-18.448-13.776-3.138-10.238 2.635-21.107 12.926-24.267 10.165-3.16 20.958 2.654 24.096 13.018 3.137 10.238-2.636 21.107-12.927 24.267a21.687 21.687 0 01-5.647.758zm0-37.664a18.98 18.98 0 00-5.271.759c-9.538 2.907-14.934 13.144-12.048 22.75 2.887 9.605 13.052 15.04 22.59 12.133s14.934-13.145 12.048-22.75c-2.385-7.836-9.538-12.892-17.319-12.892z" fill="#282828"/><path d="M237.802 93.414c-4.769-7.457-7.655-12.765-9.286-21.739-17.57 10.49-34.262 8.595-51.078 7.963-.377-2.907.251-5.814 1.38-8.594 2.887-6.699 6.526-12.513 16.691-17.063 7.154-3.16 16.692-5.308 24.347-4.17 7.656 1.137 14.181 5.308 19.578 10.237 4.267 3.918 7.906 10.49 9.161 16.936 1.13 5.56-.251 9.605-2.761 15.166-1.38-.758-2.635-1.516-4.267-1.137-1.506.38-2.51 1.137-3.765 2.401z" fill="#F9B974"/><path d="M237.8 94.044c-.125 0-.125 0 0 0-.251 0-.376-.126-.502-.253-4.267-6.698-7.53-12.133-9.161-21.107-15.938 9.227-31.375 8.469-46.309 7.837-1.381-.127-2.887-.127-4.267-.127-.251 0-.502-.253-.627-.505-.377-2.78.125-5.814 1.506-8.848 2.635-6.066 6.149-12.512 16.942-17.315 6.4-2.907 16.189-5.435 24.723-4.297 6.902 1.011 13.554 4.55 19.954 10.49 4.518 4.171 8.032 10.743 9.287 17.315 1.13 5.94-.502 10.364-2.761 15.546l-.376.38h-.502l-.126-.127c-1.255-.758-2.384-1.264-3.639-1.011-1.506.253-2.51 1.137-3.64 2.148-.251-.252-.376-.126-.502-.126zm-9.287-23.129h.251c.126.126.377.253.377.506 1.506 8.973 4.643 14.408 8.785 20.98 1.129-1.011 2.133-1.77 3.765-2.022 1.631-.253 2.886.253 4.141.885 2.385-5.561 3.389-9.227 2.385-14.282-1.255-6.193-4.769-12.64-8.911-16.557-6.149-5.814-12.675-9.1-19.201-10.111-8.283-1.264-17.821 1.39-24.096 4.17-10.416 4.677-13.805 10.87-16.315 16.684-1.129 2.654-1.631 5.308-1.38 7.71 1.255 0 2.51.126 3.765.126 14.934.632 30.496 1.39 46.434-8.089-.125 0-.251 0 0 0zm-16.198 50.807a5.476 5.476 0 01-3.388-1.138c-.251-.252-.251-.632-.126-.884.251-.253.628-.253.879-.127 1.255 1.011 3.012 1.138 4.769.379 2.008-.884 3.639-2.527 4.643-4.55.126-.252.502-.505.879-.252.251.126.502.505.251.884-1.13 2.402-3.012 4.298-5.271 5.182-.879.253-1.757.506-2.636.506zm5.262-25.907c-.126-.885-1.004-1.517-2.008-1.39-1.004.126-1.632 1.01-1.506 1.895.125.885 1.004 1.517 2.008 1.39 1.004-.126 1.631-1.01 1.506-1.895zm-25.852 1.638c-.125-.885-1.004-1.516-2.008-1.39-1.004.126-1.631 1.011-1.506 1.896.126.885 1.004 1.516 2.008 1.39 1.004-.126 1.632-1.011 1.506-1.896zm10.427 13.144h-.251l-2.385-.885c-.251-.126-.878-.379-1.004-.885-.251-.632.126-1.263.377-1.516 1.757-2.402 2.384-5.561 1.631-8.468-.125-.38.126-.632.377-.759.376-.126.627.127.753.38.878 3.159.251 6.825-1.757 9.479 0 .126-.251.253-.251.379 0 0 .125.126.376.126l2.385.885c.376.126.502.506.376.758-.125.379-.376.506-.627.506zm-2.634-15.667c-.376 0-.627-.254-.627-.633 0-1.643 1.506-2.78 3.137-3.16 2.636-.632 5.522 0 7.53 1.77a.614.614 0 010 .885.603.603 0 01-.878 0c-1.632-1.517-4.142-2.023-6.401-1.517-1.129.253-2.259 1.011-2.259 2.022.126.253-.125.632-.502.632z" fill="#282828"/><path d="M236.926 93.407l-8.158-.252c-.376 0-.627-.253-.627-.632 0-.38.251-.632.627-.632l8.158.252c.376 0 .627.253.627.632 0 .38-.251.632-.627.632z" fill="#282828"/><path d="M238.547 99.476c-.377 0-.628-.252-.628-.632 0-2.148-.376-4.297-1.255-6.193-.125-.379 0-.632.377-.758.251-.126.627 0 .753.38.878 2.148 1.38 4.423 1.38 6.698 0 .253-.251.505-.627.505z" fill="#282828"/><path d="M212.07 44.12c.502-.378 1.129-.378 1.757-.378 1.004 0 1.882-.127 2.886 0 5.522.126 10.919 2.022 15.813 4.803 1.255.758 2.385 1.642 3.64 2.527.627.506 1.631 1.011 1.882 1.896 1.004 2.022-1.631 4.044-3.388 2.401-2.51-2.275-7.656-5.181-11.044-6.066-3.263-1.011-4.142-1.011-7.154-1.264-.878-.127-1.757-.126-2.635-.126-.753.126-1.506 0-2.134-.506-.878-1.011-.627-2.654.377-3.286zm-26.865 36.654c.251-.506.878-.885 1.506-.885.251 0 1.38.127 1.631.127 1.757.126 3.389.252 5.146.252 3.263-.126 6.651 0 9.914-.379 4.016-.38 7.53-1.137 12.048-2.275 4.016-1.264 6.902-2.78 10.793-5.435.627-.379 1.38-1.137 2.133-.884 1.004.252 1.255 1.77.377 2.275-4.267 2.78-8.66 5.687-13.554 7.077-2.887.885-5.773 1.517-8.785 2.023-2.384.252-4.769.379-7.153.632-3.64.126-7.279.379-10.919.126-.627 0-1.129-.126-1.757-.126-.376 0-.753-.127-1.004-.38-.502-.505-.753-1.516-.376-2.148zm23.22 63.826v-1.896c0-1.264 0-2.401-.126-3.665 0-1.138-.125-2.275-.125-3.413 0-.126 0-.253-.126-.253v-.252c0-.253-.125-.38-.376-.506.627-.758 1.757-.379 2.635-.253.628.127 1.381.127 2.761.127 1.13 0 4.267-.885 5.271-.885.377 0 .628.126.879.379.502-.379 1.004-.758 1.38-1.264.251-.253.628-.505.879-.758.878-.253 1.757-.506 2.51-.885 0 .127 0 .253.125.253 0 .126.126.253.126.379 0 .127.125.127.125.253.251.253.502.632.628.885 0 .126-.126.126-.126.252-2.635 2.655-5.522 5.056-8.157 7.71-1.255 1.39-2.636 2.654-3.891 4.045-.627.505-1.129 1.137-1.882 1.516h-.126s-.125 0-.125.127c-.126 0-.126.126-.251.126-.126 0-.251.126-.502.126-.628 0-1.13-.252-1.381-.758-.125-.126-.251-.126-.376-.253.251-.632.251-.884.251-1.137z" fill="#282828" opacity=".129"/><path d="M245.445 76.728c-3.263-.884-6.777.885-8.785 3.54-2.008 2.653-2.761 6.066-3.137 9.478-.251 3.16-.126 6.446 1.004 9.48 1.129 3.033 3.388 5.56 6.526 6.572 4.141 1.263 8.784-.885 11.294-4.424 2.51-3.539 3.138-8.215 2.761-12.512-.251-2.907-1.004-5.814-2.761-8.216-1.757-2.401-4.517-4.17-6.902-3.918z" fill="#fff"/><path d="M243.435 106.809a9.48 9.48 0 01-2.635-.38c-3.012-.884-5.522-3.538-6.903-6.95-1.004-2.655-1.38-5.815-1.004-9.733.377-4.297 1.381-7.457 3.263-9.732 2.259-3.033 6.15-4.55 9.287-3.791 2.887-.253 5.773 1.895 7.279 4.17 1.506 2.149 2.51 5.056 2.886 8.595.377 3.539.126 8.72-2.76 12.891-2.259 3.034-5.899 4.93-9.413 4.93zm.251-29.702c-2.384 0-4.894 1.264-6.526 3.54-1.631 2.148-2.635 5.055-3.012 9.1-.376 3.664 0 6.698.879 9.1 1.129 3.032 3.388 5.434 6.024 6.192 3.639 1.138 8.157-.632 10.667-4.171 2.761-3.918 2.887-8.72 2.636-12.133-.377-3.286-1.256-5.94-2.636-7.963-1.757-2.4-4.267-3.791-6.275-3.538h-.251c-.502 0-1.004-.127-1.506-.127z" fill="#282828"/><path d="M209.039 49.938c3.514-.127 14.056 3.665 16.942 6.066 4.769 4.171 9.538 8.721 12.299 14.661 2.385 5.309 3.012 11.249 3.891 17.063.251 1.643.502 3.412 1.38 4.929.879 1.517 2.385 2.654 3.891 2.275 1.38-.253 2.384-1.517 2.886-3.033.502-1.517.377-3.034.251-4.677-.753-9.858-3.514-19.97-9.412-27.426-5.899-7.583-22.716-13.397-32.128-9.858z" fill="#fff"/><path d="M246.949 95.563c-1.631 0-3.137-1.264-3.89-2.654-.878-1.517-1.13-3.16-1.381-5.182-.125-.505-.125-1.01-.25-1.643-.753-5.182-1.506-10.49-3.64-15.293-2.51-5.561-6.651-9.732-12.173-14.408-2.636-2.275-13.178-6.067-16.441-5.94-.251 0-.627-.253-.627-.506s.125-.632.376-.758c9.915-3.792 26.857 2.401 32.755 9.984 6.777 8.721 8.911 19.97 9.538 27.806.126 1.643.126 3.286-.251 4.803-.502 1.895-1.882 3.16-3.388 3.412-.251.38-.502.38-.628.38zm-34.637-45.879c4.769 1.011 11.671 3.792 14.056 5.814 4.894 4.17 9.663 8.847 12.424 14.914 2.259 4.803 3.012 10.364 3.765 15.546.125.505.125 1.01.251 1.643.251 1.77.502 3.412 1.255 4.676.627 1.138 1.882 2.275 3.263 2.022 1.004-.126 2.008-1.264 2.384-2.654.377-1.39.377-2.907.251-4.423-.502-7.71-2.635-18.706-9.287-27.174-5.019-6.32-18.824-11.88-28.362-10.364z" fill="#282828"/><path d="M115.679 222.579c14.558-1.516 49.823 12.26 53.713 10.112 2.887-1.644 4.142-30.081 5.648-49.924.753-10.49 8.283-25.783 16.064-23.508 15.31 4.423 10.541 87.713-1.255 103.386-5.773 7.583-38.905-10.364-67.393-20.475-6.526-2.275-13.178 3.159-18.7 7.33-11.796 8.847-14.934 10.111-16.565 8.468-1.506-1.516 9.788-9.605 12.299-13.271-8.66 3.666-19.83 11.375-22.088 7.457-1.38-2.527 9.914-5.434 17.82-11.88-12.55 2.022-21.209 10.49-23.593 6.319-1.883-3.159 13.554-7.33 18.825-11.88-6.024.253-17.445 7.33-19.076 3.665-1.255-2.528 9.161-6.446 12.173-7.836 4.644-2.022 8.158-2.401 12.3-5.435-4.017-2.907-15.06-5.561-13.304-7.836 1.757-2.401 4.77-1.39 12.048-.126 6.651 1.264 16.315 5.94 21.084 5.434z" fill="#fff"/><path d="M184.83 265.173c-7.781 0-21.711-5.814-37.273-12.26-8.409-3.539-17.068-7.078-25.351-10.111-5.898-2.149-11.922 2.528-17.319 6.572l-.878.632c-11.546 8.594-15.186 10.49-17.319 8.468-.25-.253-.376-.505-.376-.885 0-1.39 2.51-3.665 6.526-7.204a65.328 65.328 0 004.14-3.791c-1.63.758-3.262 1.643-4.894 2.527-7.153 3.666-13.428 6.825-15.31 3.539-.251-.379-.251-.758-.126-1.137.377-1.391 2.887-2.654 6.526-4.55 2.886-1.391 6.275-3.16 9.287-5.309-4.518 1.138-8.408 2.907-11.671 4.424-4.77 2.275-8.283 3.792-9.915 1.137-.25-.379-.376-.884-.125-1.39.627-1.769 3.89-3.412 9.287-5.94 2.76-1.264 5.647-2.528 7.78-3.918-2.007.505-4.14 1.264-6.4 2.148-5.145 1.896-9.538 3.539-10.918.885-.251-.379-.251-.884 0-1.39.878-2.275 6.4-4.676 11.546-6.825.376-.126.753-.379 1.13-.506 1.505-.632 3.011-1.137 4.266-1.643 2.51-.884 4.769-1.643 7.154-3.286-1.506-.884-3.765-1.769-5.899-2.654-4.141-1.769-6.777-2.907-7.153-4.297-.126-.379 0-.885.25-1.264 1.758-2.275 4.393-1.896 9.538-.885.879.127 1.883.379 3.013.506 2.76.505 6.149 1.516 9.412 2.654 4.392 1.39 8.785 2.907 11.546 2.654 8.283-.885 23.343 3.16 35.39 6.446 8.158 2.275 16.692 4.55 18.072 3.665.377-.253 1.381-1.896 2.51-12.386.753-7.078 1.381-16.304 2.008-25.151.251-4.171.502-8.089.879-11.881.627-7.709 4.769-18.579 10.667-22.75 2.133-1.516 4.141-1.896 6.275-1.264 2.635.759 4.894 3.666 6.526 8.721 7.404 22.245 2.635 82.153-7.53 95.55-.753 1.517-2.636 2.149-5.271 2.149zm-65.636-24.141c1.13 0 2.259.127 3.389.632 8.408 3.034 17.067 6.573 25.476 10.111 19.327 8.089 37.524 15.673 41.289 10.617 4.518-5.94 8.408-22.75 10.04-43.73 1.631-21.107.627-40.571-2.761-50.809-1.506-4.55-3.389-7.33-5.648-7.962-1.631-.506-3.388-.126-5.145 1.137-5.396 3.792-9.538 14.282-10.165 21.739-.251 3.666-.502 7.71-.879 11.754-1.506 23.003-2.635 37.159-5.145 38.549-1.757 1.011-8.032-.632-18.951-3.539-11.922-3.286-26.856-7.33-34.888-6.446-3.012.253-7.405-1.137-12.048-2.654-3.138-1.011-6.526-2.148-9.161-2.654-1.13-.126-2.134-.379-3.012-.506-5.271-.884-7.154-1.137-8.409.506v.126c.251.885 3.765 2.402 6.4 3.413 2.51 1.011 5.272 2.148 6.903 3.286.125.126.251.253.251.505 0 .253-.126.38-.251.506-2.886 2.149-5.397 3.033-8.157 3.918-1.381.506-2.761.885-4.267 1.517-.251.126-.628.253-1.13.505-3.012 1.264-10.04 4.171-10.793 6.067-.125.126 0 .253 0 .379.753 1.643 5.271 0 9.287-1.517 3.263-1.263 6.651-2.401 9.287-2.527.251 0 .502.126.627.379.126.253 0 .505-.125.758-2.259 2.022-6.275 3.792-10.165 5.561-3.89 1.77-8.158 3.792-8.66 5.182v.379c1.004 1.643 3.514.632 8.283-1.643 3.89-1.769 8.91-4.044 14.684-5.055.25 0 .502.126.627.379.126.253 0 .505-.126.758-3.764 3.034-8.157 5.309-11.796 7.078-2.887 1.517-5.648 2.907-5.899 3.792v.252c1.255 2.275 7.781-1.137 13.68-4.044 2.51-1.264 5.145-2.654 7.655-3.665.25-.127.502 0 .753.126.251.127.125.506 0 .759-1.13 1.643-3.765 3.918-6.275 6.193-2.384 2.148-6.024 5.308-6.15 6.319 1.255 1.137 4.267.126 15.688-8.594l.878-.632c4.142-3.287 9.413-7.205 14.809-7.205z" fill="#282828"/><path d="M179.56 237.492c-.126 0-.126 0-.251-.126-3.64-1.769-10.166-3.539-13.931-4.171-.376 0-.627-.379-.502-.758 0-.379.377-.632.753-.506 3.765.506 10.542 2.402 14.307 4.171.251.127.377.506.251.885-.125.379-.376.505-.627.505z" fill="#282828"/><path d="M208.414 270.735c2.886 0 72.664.379 77.558.126-1.255-13.65-.753-36.779-1.757-50.429-1.757-23.003-7.906-49.165-18.072-69.766-10.667-3.919-22.589-3.287-34.637-4.045-.753 11.754-5.146 19.843-12.425 20.728-4.016.505-10.918-.632-10.918-18.074-5.899 2.402-17.068 6.446-21.335 10.364 6.275 41.961-3.639 48.66 1.883 62.689 2.886 7.204 15.938 16.178 18.448 32.355.251 1.896 1.255 14.156 1.255 16.052z" fill="#fff"/><path d="M273.933 271.494c-16.063 0-43.548-.126-57.603-.126h-7.907c-.376 0-.627-.253-.627-.632 0-1.39-.628-8.342-.879-12.513-.125-1.643-.251-2.907-.251-3.412-1.631-10.364-7.655-17.821-12.424-23.635-2.636-3.16-4.895-5.94-5.899-8.594-2.51-6.32-1.882-11.375-1.004-18.327 1.13-8.973 2.636-21.233-.878-44.488 0-.253 0-.38.251-.506 3.89-3.539 13.303-7.204 19.452-9.606.753-.252 1.506-.631 2.134-.884.251-.127.376 0 .627 0 .126.126.251.253.251.505 0 7.963 1.506 13.271 4.267 15.799 1.632 1.39 3.514 1.896 5.899 1.643 6.651-.758 11.043-8.342 11.796-20.222 0-.127.126-.379.251-.379.126-.127.251-.127.502-.127 2.761.127 5.648.253 8.283.379 9.413.38 18.198.759 26.481 3.792.125 0 .251.126.376.253 9.663 19.59 16.315 45.121 18.072 70.019.502 6.446.627 14.914.753 23.761.125 9.606.376 19.591 1.004 26.668 0 .127 0 .379-.126.506-.125.126-.251.253-.376.253-1.506-.127-6.024-.127-12.425-.127zm-64.882-1.39h7.279c18.95.126 62.121.253 69.024.126-.628-7.204-.753-16.809-.879-26.162-.125-8.847-.251-17.189-.753-23.635-1.757-24.266-8.534-50.176-17.82-69.261-8.032-2.907-16.692-3.16-25.853-3.539-2.51-.126-5.146-.252-7.781-.379-.879 12.133-5.647 19.843-12.801 20.728-2.761.379-5.145-.379-6.902-2.022-3.012-2.654-4.644-7.963-4.769-15.799-.377.126-.879.379-1.255.506-5.899 2.401-14.809 5.813-18.825 9.1 3.514 23.255 2.008 35.515.878 44.488-.878 7.078-1.38 11.628 1.004 17.695 1.004 2.401 3.138 5.182 5.648 8.215 4.894 6.067 11.044 13.524 12.675 24.267 0 .505.126 1.769.251 3.412.251 4.297.753 10.111.879 12.26z" fill="#282828"/><path d="M254.358 209.056c6.526 3.16 19.327 11.123 25.853 14.661 4.016 2.275 3.137 1.643 1.255-1.769-6.652-11.249-34.136-68.25-15.06-71.283 23.97-3.918 56.976 87.84 47.564 107.683-3.765 7.836-23.97 8.342-62.122-27.174-5.02-4.676-11.922-5.308-18.323-5.308-4.643 0-9.412.758-14.055-.632-.377-.126-.879-.253-1.13-.632-1.004-1.137-.878-2.528 3.389-2.907 3.263-.253 7.278-.632 10.667-1.896-4.267-.379-9.412-1.643-13.554-1.895-2.008-.127-4.518-.632-5.647-2.528-.251-.379-.377-.759-.251-1.138.125-.758 1.004-.884 1.757-1.011 5.145-.253 11.294.885 16.44.632-10.918-5.687-21.711-4.171-21.711-8.721 0-3.539 14.181 2.275 20.581 1.77-4.894-3.286-17.193-4.424-16.942-8.216.251-2.654 10.291.253 13.303 1.138 4.643 1.137 7.655 2.907 12.299 2.907-1.757-4.55-11.923-12.007-9.789-13.271 3.388-2.022 9.036 4.55 13.303 8.215 5.145 4.298 9.914 10.364 12.173 11.375z" fill="#fff"/><path d="M304.93 263.278c-7.656 0-24.347-4.424-53.588-31.597-4.769-4.424-11.421-5.056-17.821-5.056h-.125c-1.13 0-2.385 0-3.514.127-3.514.126-7.154.252-10.668-.759-.502-.126-1.004-.379-1.506-.758-.627-.632-.878-1.39-.627-2.149.376-1.011 1.882-1.643 4.392-1.895 2.259-.127 5.02-.38 7.781-1.012-1.255-.126-2.635-.379-3.89-.631-2.259-.38-4.644-.759-6.777-1.012-2.259-.252-4.895-.632-6.15-2.78-.376-.506-.502-1.011-.376-1.517.125-.632.627-1.39 2.384-1.516 2.636-.127 5.522.126 8.283.379 1.757.126 3.64.252 5.397.379-4.016-1.77-8.032-2.654-11.295-3.286-4.769-1.011-8.283-1.896-8.283-4.803 0-.506.251-1.011.627-1.264 1.381-1.137 4.769-.379 10.166.885 2.635.632 5.396 1.264 7.655 1.516-1.757-.758-3.765-1.39-5.898-2.022-5.02-1.516-9.287-2.78-9.036-5.561 0-.505.251-.885.627-1.137 1.757-1.264 7.279 0 12.425 1.39.376.126.753.253 1.129.253 1.506.379 2.887.884 4.142 1.264 2.384.758 4.392 1.516 7.028 1.643-1.13-1.896-3.263-4.171-5.271-6.193-2.887-3.034-4.518-4.803-4.393-6.067 0-.379.251-.632.628-.885 3.137-1.769 7.153 2.022 11.169 5.688 1.004.884 2.008 1.769 2.887 2.527 2.384 2.023 4.643 4.298 6.651 6.446 2.259 2.275 4.141 4.298 5.271 4.803 4.141 2.022 10.918 5.94 16.817 9.479 3.388 2.022 6.651 3.918 9.036 5.182.376.253.878.506 1.38.759l-.125-.127c-.251-.379-.502-.885-.879-1.39-3.137-5.308-9.789-18.832-14.809-32.103-4.518-12.007-9.161-28.058-5.647-35.642 1.129-2.527 3.137-4.044 5.898-4.423 5.899-1.011 12.55 3.412 19.704 12.892 8.91 11.88 17.946 31.218 24.095 51.566 6.15 20.475 7.907 37.032 4.518 44.11-1.129 2.275-3.263 3.791-6.4 4.423-.753-.252-1.757-.126-3.012-.126zm-71.409-37.917c6.651 0 13.554.632 18.699 5.435 13.052 12.133 24.849 20.854 35.265 26.163 10.542 5.308 16.817 5.561 20.331 4.929 2.636-.506 4.644-1.77 5.522-3.792 6.903-14.535-9.663-69.261-28.363-94.412-6.776-8.974-13.177-13.271-18.448-12.386-2.384.379-3.89 1.643-4.894 3.791-6.275 13.524 14.307 56.37 20.456 66.607.251.506.628 1.011.879 1.39.878 1.391 1.129 1.896.753 2.402-.502.505-1.13.126-3.64-1.138-2.384-1.264-5.647-3.159-9.036-5.182-5.898-3.539-12.675-7.457-16.817-9.352-1.255-.632-3.263-2.528-5.647-5.056-2.008-2.022-4.267-4.424-6.526-6.319-.878-.759-1.883-1.643-2.887-2.655-3.513-3.286-7.404-6.951-9.663-5.561 0 .759 2.385 3.286 4.016 5.056 2.385 2.528 5.02 5.308 5.899 7.457.125.253 0 .379 0 .632-.126.126-.251.253-.502.253-3.263 0-5.773-.885-8.409-1.644-1.255-.379-2.635-.884-4.141-1.263-.251-.127-.628-.127-1.13-.253-2.761-.759-9.914-2.654-11.42-1.517-.126.127-.126.127-.126.253-.125 1.769 4.267 3.033 8.158 4.297 3.137 1.011 6.4 2.022 8.534 3.413.251.126.376.379.251.632a.986.986 0 01-.502.505c-2.761.253-6.777-.758-10.668-1.643-3.89-.885-8.157-1.896-9.161-1.011-.126 0-.126.126-.126.253 0 1.896 2.51 2.528 7.405 3.665 4.016.885 8.91 2.022 14.056 4.55a.695.695 0 01.376.632c0 .253-.251.506-.627.506-2.636.126-5.522-.127-8.283-.38a92.594 92.594 0 00-8.158-.379c-.376 0-1.129.127-1.255.506 0 .126 0 .379.251.632 1.004 1.643 3.012 2.022 5.146 2.148 2.133.127 4.518.632 6.777 1.011 2.259.38 4.643.759 6.777 1.012.251 0 .502.252.502.505a.696.696 0 01-.377.632c-3.639 1.39-7.781 1.643-10.918 1.896-2.887.253-3.263.885-3.263 1.137-.126.253.251.632.376.759.251.252.502.379.879.505 3.388 1.011 6.902.885 10.291.759.878-.38 2.133-.38 3.388-.38z" fill="#282828"/><path d="M301.419 236.106c-.126 0-.251 0-.251-.127-6.777-4.044-11.797-6.951-19.704-10.869-.251-.126-.376-.506-.251-.885.126-.253.502-.379.879-.253 7.906 4.045 13.177 7.078 19.703 10.996.251.127.377.506.251.885-.251.126-.502.253-.627.253zm-55.726-133.593c-1.004 0-2.133-.253-3.263-.506-.753-.126-1.506-.379-2.133-.758-.879-.506-1.381-1.517-1.757-2.149-2.51-4.803-2.51-11.122.251-15.925 0-.126.125-.126.251-.126.125 0 .125.126.125.253-2.635 4.676-2.635 10.743-.251 15.419.377.632.879 1.517 1.632 2.022.627.379 1.38.632 2.008.759 2.008.505 4.016.884 5.522-.127h.251v.253c-.753.758-1.632.885-2.636.885zm-36.517 65.213h-.126c-3.514-3.539-5.396-8.468-5.271-13.397 0-.126.126-.253.251-.253.126 0 .251.127.251.253-.125 4.803 1.757 9.732 5.146 13.144.125.127.125.253 0 .253h-.251zm-7.654-6.571c-.126 0-.126 0-.126-.127-.878-1.895-1.38-4.044-1.38-6.066 0-.127.125-.253.251-.253.125 0 .251.126.251.253 0 2.022.502 4.044 1.255 5.94l-.251.253zm3.137-86.702c-.753 0-1.506 0-2.385-.126-.125 0-.251-.127-.251-.253s.126-.253.251-.253c8.534.506 17.319-1.643 24.724-5.94.125 0 .251 0 .251.126 0 .127 0 .253-.126.253-6.651 4.044-14.558 6.193-22.464 6.193zm34.14-22.756h-.126c-1.757-1.643-3.89-2.907-6.149-3.539-.126 0-.126-.126-.126-.252 0-.127.126-.127.251-.127 2.385.632 4.518 1.896 6.275 3.666.126.126.126.252 0 .252h-.125zm1.245-2.773a39.288 39.288 0 00-3.137-1.77c-.126 0-.126-.126-.126-.252 0-.127.126-.127.251-.127 1.13.506 2.134 1.011 3.138 1.77.125.126.125.253 0 .253 0 .126 0 .126-.126.126z" fill="#282828"/><path d="M300.922 232.815a29.052 29.052 0 00-2.385-1.769c-2.635-1.643-5.02-3.539-7.781-4.929-1.631-1.011-3.263-1.896-4.894-2.907-.251-.253-.502-.506-.879-.632-1.506-.506-2.886 1.39-1.757 2.654.753.885 1.883 1.138 2.761 1.77 2.134 1.263 4.393 2.527 6.526 3.791 2.008 1.264 4.016 2.654 6.024 3.918.879.506 1.506 1.896 3.138.759.627-.885.125-2.023-.753-2.655zM251.855 97.582c-1.004 1.896-1.255 2.401-2.636 3.918-2.133 1.264-2.635 1.39-4.894 2.148-1.13.379-3.514-.252-4.895-1.011-.502-.253-.878-.758-1.38-.758-1.255-.253-2.134 1.517-1.13 2.401 1.004.885 2.259 1.517 3.514 1.896 1.13.379 2.259.632 3.514.632 4.393-.506 8.283-3.286 10.291-7.204 1.13-1.896-1.129-3.792-2.384-2.022z" fill="#282828" opacity=".129"/><path d="M146.174 270.349h45.556l.126-10.49-48.192-.38 2.51 10.87z" fill="#fff"/><path d="M191.614 270.981h-45.43c-.251 0-.502-.253-.628-.506l-2.384-10.869c0-.126 0-.379.125-.506.126-.126.251-.252.502-.252l48.192.379c.125 0 .376.126.376.126.126.127.126.253.126.506l-.126 10.49c-.125.379-.376.632-.753.632zm-45.054-1.264h44.427l.125-9.226-46.685-.379 2.133 9.605z" fill="#282828"/><path d="M.594 187.188l114.58.631 39.156 82.532-114.957-.505-38.78-82.658z" fill="#fff"/><path d="M154.332 270.984l-114.957-.505c-.25 0-.502-.127-.502-.379L.094 187.441c-.125-.252-.125-.379 0-.632.126-.126.251-.252.502-.252l114.706.632c.251 0 .502.126.502.379l39.155 82.532c.126.252.126.379 0 .632-.251.126-.376.252-.627.252zm-114.58-1.769l113.576.505-38.528-81.268-113.325-.631 38.277 81.394z" fill="#282828"/><path d="M73.139 220.549c-3.263-.379-6.777.506-8.157 3.539-1.381 3.034-.251 6.825 2.133 8.974 2.385 2.275 6.024 2.907 9.161 2.275 1.757-.379 3.389-1.264 4.393-2.654a6.83 6.83 0 001.004-3.539c0-4.171-1.883-7.963-8.534-8.595z" fill="#fff"/><path d="M73.766 236.225c-2.636 0-5.271-.885-7.154-2.654-2.635-2.528-3.639-6.573-2.259-9.732 1.255-2.907 4.518-4.298 8.785-3.918 7.53.758 9.162 5.434 9.162 9.226 0 1.517-.377 2.781-1.13 3.918-1.255 1.769-3.263 2.654-4.769 2.907-.878.126-1.757.253-2.635.253zm-1.883-15.167c-1.882 0-5.145.506-6.4 3.286-1.13 2.654-.377 6.193 2.008 8.342 2.133 2.022 5.522 2.78 8.66 2.022 1.882-.379 3.262-1.264 4.015-2.401.753-1.011.879-2.275.879-3.16 0-4.803-2.636-7.457-8.032-7.962-.251-.127-.628-.127-1.13-.127zM8.005 194.773c-.126 0-.126 0 0 0-.251-.126-.251-.253-.126-.379.879-1.264 1.883-2.401 2.887-3.412.125-.127.25-.127.25 0 .126.126.126.252 0 .252-1.003 1.138-2.007 2.275-2.886 3.413 0 .126-.125.126-.125.126zm2.504 4.428h-.126c-.125-.127-.125-.253 0-.253 2.636-2.907 5.522-5.814 8.409-8.594.125-.127.25-.127.25 0 .126.126.126.252 0 .252-2.886 2.781-5.647 5.688-8.408 8.595h-.125zm2.515 5.05H12.9c-.126-.126-.126-.253 0-.253 4.016-4.297 8.157-8.721 12.299-12.891.125-.127.25-.127.25 0 .126.126.126.252 0 .252-4.14 4.297-8.282 8.595-12.298 12.892h-.126zm2.508 5.942h-.125c-.126-.126-.126-.253 0-.253 5.396-6.193 11.044-12.386 16.817-18.2.125-.126.25-.126.25 0 .126.127.126.253 0 .253-5.772 5.814-11.545 11.881-16.816 18.2h-.126zm2.75 5.055h-.125c-.126-.127-.126-.253 0-.253l20.33-23.003c.126-.126.251-.126.251 0 .126.127.126.253 0 .253l-20.33 23.003h-.126zm2.773 5.686h-.125c-.125-.127-.125-.253 0-.253 8.283-9.985 17.068-19.717 26.104-29.07.125-.126.25-.126.25 0 .126.127.126.253 0 .253a564.431 564.431 0 00-26.103 28.943c0 .127 0 .127-.126.127zM23.688 227h-.125c-.126-.126-.126-.253 0-.253l31.25-35.136c.125-.126.25-.126.25 0 .125.127.125.253 0 .253L23.813 227h-.125zm2.133 5.943h-.125c-.126-.126-.126-.253 0-.253l36.52-40.95c.125-.126.25-.126.25 0 .126.127.126.253 0 .253l-36.52 40.95h-.125zm3.149 5.432h-.126c-.125-.126-.125-.253 0-.253 6.275-7.204 12.675-14.787 19.452-21.865 2.761-2.907 6.15-7.078 9.79-11.375 3.513-4.171 7.404-8.973 11.294-13.271.126-.126.251-.126.251 0 .126.127.126.253 0 .253-3.89 4.297-7.78 9.1-11.295 13.271-3.64 4.424-7.028 8.468-9.789 11.375-6.651 7.078-13.177 14.535-19.326 21.865h-.251zm2.75 6.069h-.126c-.125-.126-.125-.252 0-.252l46.058-52.452c.126-.126.251-.126.251 0 .126.127.126.253 0 .253l-46.058 52.451h-.125zm2.75 5.558h-.126c-.125-.126-.125-.252 0-.252l53.086-58.266c.126-.126.251-.126.251 0 .126.127.126.253 0 .253l-53.086 58.265h-.125zm2.906 6.702h-.126c-.125-.127-.125-.253 0-.253 7.405-8.847 15.311-17.442 23.469-25.657.125-.126.25-.126.25 0 .126.126.126.253 0 .253-8.157 8.215-15.938 16.809-23.342 25.53-.126.127-.251.127-.251.127zm35.633-39.686h-.126c-.125-.126-.125-.253 0-.253 3.765-4.171 7.907-8.468 11.797-12.512 4.016-4.171 8.032-8.342 11.797-12.513.125-.126.25-.126.25 0 .126.127.126.253 0 .253-3.764 4.171-7.906 8.468-11.796 12.513-4.016 4.17-8.032 8.341-11.797 12.512h-.125zm-32.883 45.496H40c-.125-.126-.125-.252 0-.252l23.469-26.289c.125-.127.25-.127.25 0 .126.126.126.252 0 .252l-23.468 26.289h-.125zm39.922-43.475h-.126c-.125-.126-.125-.253 0-.253 8.158-9.605 16.943-18.958 25.978-27.553.126-.126.251-.126.251 0 .126.127.126.253 0 .253-9.16 8.721-17.82 17.947-25.978 27.553h-.125zm-36.039 47.772h-.126c-.125-.127-.125-.253 0-.253a652.689 652.689 0 0025.727-27.047c.126-.127.251-.127.251 0 .126.126.126.253 0 .253a652.689 652.689 0 01-25.727 27.047h-.125zm40.421-42.97h-.125c-.125-.127-.125-.253 0-.253 9.412-10.238 19.201-20.349 29.116-30.207.125-.126.251-.126.251 0 .125.126.125.253 0 .253-9.915 9.858-19.578 19.969-29.116 30.207h-.126zm-32.124 42.848h-.126c-.125-.127-.125-.253 0-.253 5.02-5.308 10.04-10.743 14.934-15.925 16.064-17.062 32.63-34.757 49.447-51.314.125-.126.251-.126.251 0 .125.127.125.253 0 .253-16.817 16.557-33.383 34.251-49.447 51.314-4.894 5.182-10.04 10.617-14.934 15.925h-.125zm9.539-.129h-.126c-.125-.126-.125-.252 0-.252 18.197-21.107 38.528-40.95 57.98-60.161.126-.127.251-.127.251 0 .126.126.126.252 0 .252-19.577 19.211-39.783 39.054-57.98 60.161h-.125zm9.405-.125h-.125c-.125-.127-.125-.253 0-.253 16.566-18.453 33.885-36.653 51.329-54.221.126-.126.251-.126.251 0 .126.126.126.253 0 .253-17.57 17.568-34.763 35.768-51.329 54.221h-.125zm9.782-.633h-.125c-.126-.126-.126-.252 0-.252l43.799-46.638c.125-.126.251-.126.251 0 .125.127.125.253 0 .253l-43.8 46.637h-.125zm10.93-.38h-.126c-.125-.127-.125-.253 0-.253 11.672-13.397 23.971-26.542 36.52-39.181.126-.126.251-.126.251 0 .126.127.126.253 0 .253-12.549 12.513-24.848 25.783-36.52 39.181h-.125zm8.656.003h-.125c-.126-.127-.126-.253 0-.253a769.845 769.845 0 0119.452-21.107c3.514-3.665 7.028-7.583 10.542-11.249.125-.126.251-.126.251 0 .125.127.125.253 0 .253-3.514 3.792-7.028 7.584-10.542 11.249-6.526 6.951-13.178 14.029-19.452 21.107h-.126zm8.289-.002h-.125c-.126-.126-.126-.253 0-.253 6.651-6.698 17.82-18.705 24.095-25.53.126-.127.251-.127.251 0 .126.126.126.253 0 .253-6.275 6.951-17.318 18.831-24.095 25.656 0-.126 0-.126-.126-.126zm9.406-.375h-.125c-.126-.127-.126-.253 0-.253 6.024-6.319 12.048-12.892 17.695-19.464.126-.126.251-.126.251 0 .126.127.126.253 0 .253-5.773 6.699-11.671 13.271-17.821 19.59.126-.126.126-.126 0-.126zm8.157.251h-.126c-.125-.126-.125-.253 0-.253l12.926-13.902c.126-.127.251-.127.251 0 .126.126.126.252 0 .252l-12.926 13.903h-.125zm8.539-.001h-.126c-.125-.126-.125-.253 0-.253 2.636-2.907 5.397-5.687 8.032-8.468.126-.126.251-.126.251 0 .126.127.126.253 0 .253a255.985 255.985 0 00-8.032 8.468h-.125zm8.289.507h-.126c-.125-.127-.125-.253 0-.253l2.761-3.033c.126-.127.251-.127.251 0 .126.126.126.252 0 .252l-2.761 3.034h-.125z" fill="#282828"/><path d="M275.172 85.759c7.279-3.539 14.432-8.215 18.825-15.293 10.542-17.315 2.008-43.73 15.562-58.518 7.278-7.963 18.699-9.48 29.115-9.985a317.913 317.913 0 0146.56 1.138c7.405.758 15.186 1.895 21.209 6.698 8.66 6.952 11.17 20.854 7.154 31.597-4.016 10.87-13.303 18.706-23.594 22.624-10.291 3.918-21.46 4.424-32.253 3.792-10.918-.632-21.711-2.275-32.63-2.402-2.761 0-5.647.127-8.283 1.138-3.89 1.516-6.776 4.676-9.914 7.583-8.534 7.33-18.825 12.26-31.751 11.628z" fill="#fff"/><path d="M277.684 86.39c-.878 0-1.757 0-2.51-.127-.251 0-.502-.253-.627-.506 0-.252.125-.505.376-.632 9.036-4.297 14.935-9.1 18.574-15.166 4.769-7.836 5.648-17.821 6.401-27.553.878-11.248 1.882-23.003 9.287-30.965 7.404-8.089 18.573-9.606 29.492-10.238a319.62 319.62 0 0146.685 1.138c7.53.758 15.311 1.896 21.46 6.825 8.409 6.825 11.546 20.728 7.279 32.355-3.765 10.238-12.549 18.58-23.97 23.003-8.91 3.413-18.95 4.55-32.504 3.792-4.267-.253-8.534-.632-12.801-1.011-6.526-.632-13.177-1.264-19.829-1.264-2.51 0-5.522 0-8.157 1.01-3.012 1.138-5.522 3.54-8.032 5.815-.627.505-1.129 1.01-1.757 1.516-8.659 7.963-18.574 12.007-29.367 12.007zm0-1.264c10.542 0 20.206-3.919 28.74-11.628.627-.506 1.129-1.011 1.631-1.517 2.51-2.401 5.145-4.803 8.408-6.067 2.761-1.137 5.899-1.137 8.534-1.137 6.652 0 13.429.632 19.955 1.264 4.141.379 8.534.758 12.675 1.01 13.428.76 23.343-.378 32.002-3.664 11.17-4.298 19.578-12.386 23.217-22.371 4.142-11.122 1.13-24.393-6.902-30.965-5.898-4.677-13.554-5.814-20.833-6.573a316.625 316.625 0 00-46.434-1.137c-10.668.505-21.586 2.148-28.739 9.858-7.154 7.71-8.032 18.706-8.911 30.334-.753 9.858-1.631 19.969-6.526 28.058-3.388 5.814-8.785 10.364-16.817 14.535z" fill="#282828"/><path d="M402.931 54.158c-.502 0-.753.253-1.13.506-.502.379-1.129.758-1.631 1.137-1.506.885-3.012 1.77-4.644 2.528-3.765 1.643-9.412 3.792-14.432 4.676-6.4 1.264-15.185 1.39-23.845 1.011-5.396-.379-10.667-1.01-16.064-1.516-5.145-.38-10.29-.885-15.31-.253-2.134.253-4.142.758-6.15 1.39-.878.38-1.882.38-2.384 1.264-.628 1.138.376 2.528 1.631 2.149 5.397-2.022 9.413-2.149 15.311-1.643 6.651.505 13.052 1.264 17.068 1.643 4.141.379 8.283.505 12.55.379 3.639.126 7.279.126 10.918-.505 4.393-.633 8.785-1.264 12.926-2.781 4.518-1.643 9.162-3.286 13.303-5.814.879-.505 1.632-1.138 2.51-1.643.377-.253.753-.506.879-1.011-.126-.758-.753-1.517-1.506-1.517z" fill="#282828" opacity=".129"/><path d="M377.582 25.719c-16.441 0-33.006-.253-49.447-.885-.376 0-.627-.253-.627-.632s.251-.632.627-.632c21.712.759 43.799 1.011 65.511.759.376 0 .627.252.627.632 0 .379-.251.632-.627.632-5.397 0-10.793.126-16.064.126zM325.87 38.863c-.377 0-.628-.253-.628-.632 0-.38.251-.632.628-.632l20.456-.126c.376 0 .627.252.627.632 0 .379-.251.632-.627.632l-20.456.126zm31.507-.25c-.376 0-.627-.253-.627-.632 0-.38.251-.632.627-.632l35.768-.632c.376 0 .627.253.627.632s-.251.632-.627.632l-35.768.632zm-141.303 88.793h-.251c-.377 0-.628-.253-.628-.632s.251-.632.628-.632h.251c7.153 0 13.177-1.517 17.695-4.297 5.648-3.539 8.911-9.606 8.409-15.293 0-.379.251-.632.502-.632.376 0 .627.253.627.505.502 6.194-3.012 12.639-9.036 16.557-4.518 2.907-10.667 4.424-18.197 4.424z" fill="#282828"/><path d="M214.071 124.756c-1.883-.38-3.765-.253-5.648.252-1.004.38-2.133 1.012-2.259 2.149-.125.885.502 1.769 1.381 2.149.753.379 1.757.505 2.635.505 1.13 0 2.134.127 3.263-.253 1.004-.252 2.008-1.011 2.385-2.022.251-1.011-.126-2.401-1.757-2.78z" fill="#fff"/><path d="M211.183 130.569h-1.129c-1.004 0-2.009-.127-2.887-.632-1.004-.506-1.882-1.517-1.631-2.907.125-1.138 1.129-2.022 2.76-2.654 1.883-.632 4.016-.759 5.899-.38 1.129.253 1.757.885 2.008 1.391.376.632.376 1.516.125 2.275-.376 1.137-1.506 2.022-2.761 2.401-.753.379-1.506.506-2.384.506zm.502-5.435c-1.13 0-2.134.126-3.137.506-.502.126-1.757.631-1.883 1.643-.125.632.502 1.263 1.004 1.516.627.379 1.506.379 2.385.506 1.003 0 2.133.126 3.011-.253 1.004-.253 1.757-.885 2.008-1.643.126-.379.126-.885-.125-1.264s-.628-.632-1.13-.758c-.627-.253-1.38-.253-2.133-.253zm196.617 90.991c-.251 0-.628-.253-.628-.506-.125-1.011-.251-2.148-.878-3.033-.502-.758-1.506-1.517-2.761-1.643-.753 0-1.632.253-2.51.758-1.883 1.011-3.263 2.402-3.89 4.045a.692.692 0 01-.628.379c-.251 0-.502-.253-.502-.506-.376-1.264-.753-2.654-1.631-3.791-.753-.885-2.134-1.896-3.891-2.023-1.506 0-3.012.632-4.016 1.77-1.004 1.137-1.38 2.528-1.506 3.665 0 .253-.251.506-.627.506-.251 0-.502-.127-.628-.506-.376-1.264-.753-2.528-1.631-3.539-.753-.885-2.259-1.769-3.891-1.517-2.133.253-3.263 2.275-3.89 4.045-.126.379-.502.505-.753.379-.377-.126-.502-.505-.377-.758.753-1.896 2.008-4.424 4.895-4.803 1.757-.253 3.765.506 4.894 1.896.502.632.879 1.39 1.255 2.022a6.878 6.878 0 011.255-2.275c1.255-1.39 3.138-2.275 5.02-2.275 1.883 0 3.64 1.011 4.769 2.528.628.885 1.13 1.769 1.381 2.78.878-1.39 2.133-2.527 3.764-3.286 1.13-.632 2.134-.884 3.138-.884 1.506.126 3.012.884 3.765 2.148.753 1.138.878 2.402 1.004 3.539.125.632-.126.885-.502.885z" fill="#282828"/></svg>