<svg width="434" height="272" viewBox="0 0 434 272" fill="none" xmlns="http://www.w3.org/2000/svg">
<path d="M425.625 68.569C425.625 66.4204 427.382 64.7773 429.39 64.7773C431.523 64.7773 433.155 66.5468 433.155 68.569C433.155 70.5912 431.398 72.3607 429.39 72.3607C427.256 72.4871 425.625 70.7176 425.625 68.569Z" fill="white"/>
<path d="M429.392 73.1167C427.008 73.1167 425 71.0945 425 68.6931C425 66.2918 427.008 64.2695 429.392 64.2695C431.777 64.2695 433.785 66.2918 433.785 68.6931C433.785 71.0945 431.777 73.1167 429.392 73.1167ZM429.392 65.407C427.635 65.407 426.255 66.7973 426.255 68.5667C426.255 70.3362 427.635 71.7265 429.392 71.7265C431.149 71.7265 432.53 70.3362 432.53 68.5667C432.53 66.7973 431.149 65.407 429.392 65.407Z" fill="#282828"/>
<path d="M339.32 159.131C339.32 156.982 337.563 155.213 335.429 155.213C333.296 155.213 331.539 156.982 331.539 159.131C331.539 161.28 333.296 163.049 335.429 163.049C337.563 163.049 339.32 161.28 339.32 159.131Z" fill="white"/>
<path d="M335.432 163.682C332.922 163.682 330.914 161.66 330.914 159.132C330.914 156.604 332.922 154.582 335.432 154.582C337.942 154.582 339.95 156.604 339.95 159.132C339.95 161.66 337.942 163.682 335.432 163.682ZM335.432 155.846C333.675 155.846 332.169 157.363 332.169 159.132C332.169 160.901 333.675 162.418 335.432 162.418C337.189 162.418 338.695 160.901 338.695 159.132C338.695 157.236 337.314 155.846 335.432 155.846Z" fill="#282828"/>
<path d="M243.833 100.107C243.582 110.597 249.983 121.467 259.897 124.879C265.293 126.775 271.192 126.522 276.714 127.912C282.236 129.303 287.883 133.6 287.883 139.287C287.883 143.079 285.75 151.8 297.045 156.855C306.457 161.026 304.198 183.65 275.208 193.129C266.297 196.036 272.07 188.705 262.784 187.315C253.622 185.925 245.465 180.743 239.064 173.918C232.789 167.093 228.271 158.751 224.883 150.157C220.867 140.299 218.106 129.303 220.616 118.939C223.126 108.575 232.287 99.2222 243.833 100.107Z" fill="#F9B974"/>
<path d="M271.936 194.521C270.054 194.521 269.301 193.51 268.548 191.993C267.795 190.476 266.916 188.707 262.775 188.075C254.115 186.685 245.581 181.882 238.804 174.551C233.157 168.485 228.514 160.649 224.498 150.664C219.352 138.025 217.972 128.04 220.105 119.067C222.49 108.956 231.651 98.7183 243.95 99.7294C244.326 99.7294 244.577 99.9822 244.577 100.361C244.326 111.104 250.852 121.215 260.265 124.502C263.151 125.513 266.414 125.892 269.426 126.271C271.936 126.524 274.446 126.903 276.956 127.535C282.478 129.052 288.502 133.349 288.627 139.542C288.627 140.047 288.627 140.553 288.502 141.185C288.251 145.356 287.874 152.181 297.412 156.478C300.926 157.995 302.934 162.039 302.683 166.968C302.307 175.436 294.902 187.57 275.45 193.889C273.944 194.268 272.815 194.521 271.936 194.521ZM242.318 100.741C231.526 100.741 223.494 109.967 221.36 119.193C219.352 127.914 220.607 137.646 225.627 150.032C229.643 159.89 234.287 167.6 239.683 173.54C246.334 180.745 254.617 185.421 263.026 186.685C267.669 187.443 268.799 189.718 269.677 191.361C270.556 193.004 270.932 193.889 275.074 192.625C293.898 186.432 301.052 174.804 301.428 166.715C301.679 162.292 299.922 158.753 296.91 157.489C286.619 152.939 286.996 145.482 287.247 140.932C287.247 140.3 287.372 139.795 287.247 139.289C287.247 133.854 281.725 129.81 276.58 128.546C274.195 127.914 271.685 127.661 269.175 127.282C266.038 126.903 262.775 126.524 259.763 125.386C250.099 121.974 243.322 111.61 243.322 100.614C242.946 100.74 242.569 100.741 242.318 100.741Z" fill="#282828"/>
<path d="M187.222 76.0957C190.234 91.136 193.246 107.187 187.097 121.216C185.089 125.766 182.202 129.937 180.571 134.614C178.688 140.175 178.563 146.241 179.065 152.182C180.069 163.304 183.332 174.679 191.113 182.641C198.894 190.604 211.82 194.143 221.483 188.455C229.892 183.526 233.782 172.909 233.155 163.178C232.653 153.446 228.511 144.219 224.119 135.498C213.702 114.265 201.529 94.1693 187.222 76.0957Z" fill="#F9B974"/>
<path d="M210.937 191.741C203.784 191.741 196.254 188.707 190.732 183.02C183.83 175.942 179.688 165.452 178.433 152.181C177.806 144.85 178.308 139.289 179.939 134.36C180.943 131.58 182.324 128.925 183.704 126.524C184.708 124.755 185.712 122.859 186.465 120.963C192.238 107.692 189.854 92.9047 186.465 76.2214C186.465 75.9686 186.591 75.7158 186.842 75.5895C187.093 75.4631 187.469 75.5895 187.595 75.7159C201.023 92.7783 213.573 112.748 224.742 135.119C229.009 143.713 233.276 153.066 233.904 163.05C234.531 174.173 229.762 184.284 221.856 188.96C218.593 190.856 214.828 191.741 210.937 191.741ZM188.348 78.4964C191.485 94.295 193.368 108.451 187.72 121.469C186.842 123.364 185.838 125.26 184.834 127.156C183.453 129.684 182.073 132.212 181.194 134.866C179.563 139.542 179.061 144.977 179.814 152.181C180.943 165.325 184.959 175.437 191.736 182.262C199.894 190.603 212.569 193.131 221.354 187.949C228.884 183.525 233.402 173.793 232.774 163.177C232.272 153.319 228.005 144.219 223.738 135.75C212.945 114.264 201.149 95.0533 188.348 78.4964Z" fill="#282828"/>
<path d="M208.299 151.045C208.55 143.083 208.55 139.797 207.672 130.697C210.809 129.054 214.323 127.916 217.837 127.411C219.469 127.158 221.226 127.031 222.481 128.042C223.234 128.674 223.61 129.559 223.987 130.444C226.622 136.511 230.262 143.715 232.772 149.908C233.023 150.413 232.019 149.781 232.019 150.287C232.019 151.045 235.156 158.376 234.654 159.008C229.383 164.569 212.943 197.935 208.299 151.045Z" fill="white"/>
<path d="M218.091 176.322C217.714 176.322 217.212 176.322 216.836 176.196C212.318 174.932 209.306 166.843 207.674 151.171C207.674 151.171 207.674 151.171 207.674 151.045C207.925 142.956 207.925 139.796 207.047 130.696C207.047 130.443 207.172 130.19 207.423 130.064C210.686 128.421 214.2 127.283 217.84 126.652C219.471 126.399 221.479 126.272 222.86 127.41C223.738 128.168 224.24 129.179 224.617 130.064C225.872 133.097 227.503 136.51 229.009 139.796C230.515 143.082 232.147 146.495 233.402 149.528C233.527 149.907 233.402 150.16 233.276 150.286C233.151 150.413 232.9 150.539 232.774 150.539C233.025 151.171 233.402 152.182 233.653 153.067C235.41 157.743 235.661 158.754 235.159 159.26C234.28 160.145 233.151 161.788 231.896 163.683C228.131 169.118 222.985 176.322 218.091 176.322ZM208.929 151.045C210.435 165.832 213.196 173.921 217.087 174.932C221.479 176.07 227.127 168.233 230.892 162.925C232.147 161.029 233.276 159.513 234.155 158.501C234.155 157.743 233.151 155.089 232.523 153.572C231.645 151.297 231.394 150.539 231.394 150.16C231.394 149.907 231.519 149.654 231.645 149.528L231.77 149.402C230.515 146.495 229.009 143.461 227.629 140.428C226.123 137.142 224.491 133.729 223.236 130.696C222.86 129.938 222.483 129.053 221.856 128.547C220.726 127.663 219.095 127.789 217.714 128.042C214.326 128.547 211.188 129.558 208.051 131.075C209.18 139.796 209.18 143.082 208.929 151.045Z" fill="#282828"/>
<path d="M183.713 79.758C184.717 87.2149 186.223 94.9246 184.215 102.255C183.211 106.3 183.337 126.648 199.526 132.462C208.06 135.495 217.849 134.863 226.76 129.555C232.783 125.89 240.062 114.515 238.556 103.266C243.451 104.657 248.345 101.244 248.471 96.8204C248.471 94.2927 245.71 91.0066 242.698 91.133C240.439 91.2593 240.062 91.2593 238.305 92.6496C237.05 87.3413 236.423 82.033 236.423 75.8399C230.776 69.6469 221.74 66.3608 212.704 65.0969C209.692 64.5913 206.68 64.3386 203.668 64.7177C195.134 65.8552 182.709 72.1746 183.713 79.758Z" fill="white"/>
<path d="M210.192 134.991C206.553 134.991 203.039 134.359 199.4 133.096C183.085 127.282 182.457 107.059 183.712 102.13C185.344 95.8109 184.465 89.1123 183.461 82.5401C183.336 81.6553 183.21 80.7706 183.085 79.8859C182.834 77.7373 183.461 75.5887 185.093 73.5665C188.983 68.5109 197.643 64.972 203.666 64.2137C207.055 63.8345 210.318 64.2137 212.953 64.5929C220.358 65.7304 230.649 68.5109 237.049 75.5887C237.175 75.7151 237.175 75.8415 237.175 75.9678C237.049 81.1498 237.551 86.2053 238.806 91.64C240.061 90.7553 240.689 90.7553 242.697 90.6289C244.203 90.5026 245.708 91.2609 246.963 92.3984C248.218 93.6623 249.097 95.4317 249.097 96.822C249.097 98.9706 247.967 101.119 246.085 102.509C244.202 103.9 241.693 104.532 239.308 104.153C240.312 115.654 233.033 126.523 227.135 130.189C221.864 133.348 216.091 134.991 210.192 134.991ZM206.804 65.0984C205.8 65.0984 204.921 65.0984 203.917 65.2248C198.019 65.9831 189.736 69.3956 186.097 74.072C184.716 75.8415 184.089 77.7373 184.34 79.5067C184.465 80.3915 184.591 81.2762 184.716 82.1609C185.595 88.7331 186.599 95.6845 184.842 102.257C184.089 105.037 183.21 125.891 199.776 131.705C208.686 134.865 218.099 133.854 226.382 128.798C232.029 125.386 239.308 114.264 237.928 103.141C237.928 102.889 237.928 102.762 238.179 102.636C238.304 102.509 238.555 102.509 238.806 102.509C241.065 103.141 243.575 102.762 245.457 101.246C246.963 100.108 247.967 98.3387 247.967 96.5692C247.967 95.4317 247.34 94.0414 246.211 93.0303C245.207 92.0192 243.952 91.5137 242.822 91.5137C240.563 91.6401 240.438 91.64 238.806 92.9039C238.681 93.0303 238.43 93.0303 238.179 93.0303C237.928 92.9039 237.802 92.7776 237.802 92.5248C236.422 86.7109 235.92 81.4026 235.92 75.8415C229.77 69.1429 219.981 66.4887 212.828 65.4776C211.071 65.3512 209.063 65.0984 206.804 65.0984Z" fill="#282828"/>
<path d="M219.593 107.82C214.322 107.82 209.679 103.396 208.8 97.4558C208.424 94.4225 209.051 91.2627 210.808 88.8614C212.565 86.3336 214.95 84.8169 217.836 84.4377C220.597 84.0586 223.484 84.9433 225.743 86.8391C228.002 88.735 229.382 91.5155 229.884 94.6752C230.261 97.7086 229.633 100.868 227.876 103.27C226.119 105.797 223.735 107.314 220.848 107.693C220.346 107.82 219.97 107.82 219.593 107.82ZM219.091 85.7016C218.715 85.7016 218.338 85.7016 217.962 85.828C215.452 86.2072 213.318 87.4711 211.812 89.7461C210.306 91.8947 209.679 94.6752 210.055 97.4558C210.808 103.143 215.577 107.314 220.597 106.682C223.107 106.303 225.241 105.039 226.747 102.764C228.253 100.616 228.88 97.835 228.504 95.0544C228.127 92.2739 226.872 89.7461 224.864 87.9766C223.107 86.46 221.099 85.7016 219.091 85.7016Z" fill="#282828"/>
<path d="M190.098 109.212C184.827 109.212 180.184 104.789 179.305 98.8486C178.427 92.4028 182.568 86.5889 188.341 85.8306C194.114 85.0723 199.51 89.6222 200.263 96.0681C201.142 102.514 197 108.328 191.228 109.086C190.977 109.212 190.6 109.212 190.098 109.212ZM189.596 86.9681C189.22 86.9681 188.843 86.9681 188.467 87.0945C183.321 87.7264 179.807 92.9083 180.56 98.7222C181.313 104.41 186.082 108.581 191.102 107.949C196.247 107.317 199.761 102.135 199.008 96.3209C198.506 91.0125 194.24 86.9681 189.596 86.9681Z" fill="#282828"/>
<path d="M245.065 34.5138C242.053 24.5291 231.637 18.968 221.723 22.0013C211.808 25.0346 206.286 35.5249 209.298 45.5096C212.31 55.4943 222.727 61.0554 232.641 58.0221C242.555 54.9888 248.077 44.4985 245.065 34.5138Z" fill="#F9B974"/>
<path d="M227.24 59.413C218.957 59.413 211.302 53.9783 208.792 45.6367C205.654 35.3992 211.427 24.5298 221.718 21.3701C231.883 18.2103 242.676 24.0242 245.814 34.3881C248.951 44.6256 243.178 55.495 232.887 58.6547C231.005 59.1603 229.122 59.413 227.24 59.413ZM227.24 21.7492C225.483 21.7492 223.726 22.002 221.969 22.5076C212.431 25.4145 207.035 35.652 209.921 45.2575C212.808 54.8631 222.973 60.2978 232.511 57.3908C242.049 54.4839 247.445 44.2464 244.559 34.6409C242.174 26.8048 235.021 21.7492 227.24 21.7492Z" fill="#282828"/>
<path d="M237.802 93.4144C233.033 85.9574 230.147 80.6491 228.516 71.6755C210.946 82.1658 194.254 80.2699 177.438 79.638C177.061 76.731 177.689 73.8241 178.818 71.0436C181.705 64.345 185.344 58.5311 195.509 53.9811C202.663 50.8214 212.201 48.6728 219.856 49.8103C227.512 50.9478 234.037 55.1186 239.434 60.0477C243.701 63.9658 247.34 70.538 248.595 76.9838C249.725 82.5449 248.344 86.5894 245.834 92.1505C244.454 91.3921 243.199 90.6338 241.567 91.013C240.061 91.3921 239.057 92.1505 237.802 93.4144Z" fill="#F9B974"/>
<path d="M237.8 94.0441C237.675 94.0441 237.675 94.0441 237.8 94.0441C237.549 94.0441 237.424 93.9178 237.298 93.7914C233.031 87.0928 229.768 81.658 228.137 72.6844C212.199 81.9108 196.762 81.1525 181.828 80.5206C180.447 80.3942 178.941 80.3942 177.561 80.3942C177.31 80.3942 177.059 80.1414 176.934 79.8886C176.557 77.1081 177.059 74.0747 178.44 71.0414C181.075 64.9747 184.589 58.5289 195.382 53.7261C201.782 50.8192 211.571 48.2914 220.105 49.4289C227.007 50.44 233.659 53.9789 240.059 59.9192C244.577 64.09 248.091 70.6622 249.346 77.2344C250.476 83.1747 248.844 87.5983 246.585 92.7803C246.46 92.9066 246.334 93.033 246.209 93.1594C246.083 93.1594 245.832 93.1594 245.707 93.1594L245.581 93.033C244.326 92.2747 243.197 91.7691 241.942 92.0219C240.436 92.2747 239.432 93.1594 238.302 94.1705C238.051 93.9177 237.926 94.0441 237.8 94.0441ZM228.513 70.915C228.639 70.915 228.639 70.915 228.764 70.915C228.89 71.0414 229.141 71.1678 229.141 71.4206C230.647 80.3942 233.784 85.8289 237.926 92.4011C239.055 91.39 240.059 90.6316 241.691 90.3789C243.322 90.1261 244.577 90.6317 245.832 91.2636C248.217 85.7025 249.221 82.0372 248.217 76.9817C246.962 70.7886 243.448 64.3428 239.306 60.4247C233.157 54.6109 226.631 51.3248 220.105 50.3136C211.822 49.0498 202.284 51.7039 196.009 54.4845C185.593 59.1609 182.204 65.3539 179.694 71.1678C178.565 73.8219 178.063 76.4761 178.314 78.8775C179.569 78.8775 180.824 79.0039 182.079 79.0039C197.013 79.6358 212.575 80.3942 228.513 70.915C228.388 70.915 228.262 70.915 228.513 70.915Z" fill="#282828"/>
<path d="M212.315 121.722C211.06 121.722 209.931 121.343 208.927 120.584C208.676 120.332 208.676 119.952 208.801 119.7C209.052 119.447 209.429 119.447 209.68 119.573C210.935 120.584 212.692 120.711 214.449 119.952C216.457 119.068 218.088 117.425 219.092 115.402C219.218 115.15 219.594 114.897 219.971 115.15C220.222 115.276 220.473 115.655 220.222 116.034C219.092 118.436 217.21 120.332 214.951 121.216C214.072 121.469 213.194 121.722 212.315 121.722Z" fill="#282828"/>
<path d="M217.577 95.8146C217.451 94.9299 216.573 94.2979 215.569 94.4243C214.565 94.5507 213.937 95.4354 214.063 96.3201C214.188 97.2049 215.067 97.8368 216.071 97.7104C217.075 97.584 217.702 96.6993 217.577 95.8146Z" fill="#282828"/>
<path d="M191.725 97.4533C191.6 96.5685 190.721 95.9366 189.717 96.063C188.713 96.1894 188.086 97.0741 188.211 97.9588C188.337 98.8435 189.215 99.4755 190.219 99.3491C191.223 99.2227 191.851 98.338 191.725 97.4533Z" fill="#282828"/>
<path d="M202.152 110.597C202.026 110.597 202.026 110.597 201.901 110.597L199.516 109.712C199.265 109.586 198.638 109.333 198.512 108.827C198.261 108.195 198.638 107.564 198.889 107.311C200.646 104.909 201.273 101.75 200.52 98.8427C200.395 98.4636 200.646 98.2108 200.897 98.0844C201.273 97.958 201.524 98.2108 201.65 98.4636C202.528 101.623 201.901 105.289 199.893 107.943C199.893 108.069 199.642 108.196 199.642 108.322C199.642 108.322 199.767 108.448 200.018 108.448L202.403 109.333C202.779 109.459 202.905 109.839 202.779 110.091C202.654 110.47 202.403 110.597 202.152 110.597Z" fill="#282828"/>
<path d="M199.518 94.9291C199.142 94.9291 198.891 94.6763 198.891 94.2971C198.891 92.6541 200.397 91.5166 202.028 91.1374C204.664 90.5055 207.55 91.1374 209.558 92.9069C209.809 93.1596 209.809 93.5388 209.558 93.7916C209.307 94.0444 208.931 94.0444 208.68 93.7916C207.048 92.2749 204.538 91.7694 202.279 92.2749C201.15 92.5277 200.02 93.286 200.02 94.2971C200.146 94.5499 199.895 94.9291 199.518 94.9291Z" fill="#282828"/>
<path d="M236.926 93.4073L228.768 93.1545C228.392 93.1545 228.141 92.9017 228.141 92.5226C228.141 92.1434 228.392 91.8906 228.768 91.8906L236.926 92.1434C237.302 92.1434 237.553 92.3962 237.553 92.7753C237.553 93.1545 237.302 93.4073 236.926 93.4073Z" fill="#282828"/>
<path d="M238.547 99.4764C238.17 99.4764 237.919 99.2236 237.919 98.8445C237.919 96.6959 237.543 94.5473 236.664 92.6514C236.539 92.2723 236.664 92.0195 237.041 91.8931C237.292 91.7667 237.668 91.8931 237.794 92.2723C238.672 94.4209 239.174 96.6959 239.174 98.9709C239.174 99.2236 238.923 99.4764 238.547 99.4764Z" fill="#282828"/>
<g opacity="0.1294">
<path d="M212.07 44.1209C212.572 43.7417 213.199 43.7417 213.827 43.7417C214.831 43.7417 215.709 43.6153 216.713 43.7417C222.235 43.8681 227.632 45.7639 232.526 48.5445C233.781 49.3028 234.911 50.1875 236.166 51.0723C236.793 51.5778 237.797 52.0834 238.048 52.9681C239.052 54.9903 236.417 57.0125 234.66 55.3695C232.15 53.0945 227.004 50.1875 223.616 49.3028C220.353 48.2917 219.474 48.2917 216.462 48.0389C215.584 47.9125 214.705 47.9126 213.827 47.9126C213.074 48.0389 212.321 47.9125 211.693 47.407C210.815 46.3959 211.066 44.7528 212.07 44.1209Z" fill="#282828"/>
</g>
<g opacity="0.1294">
<path d="M185.205 80.7738C185.456 80.2683 186.083 79.8891 186.711 79.8891C186.962 79.8891 188.091 80.0155 188.342 80.0155C190.099 80.1419 191.731 80.2683 193.488 80.2683C196.751 80.1419 200.139 80.2683 203.402 79.8891C207.418 79.5099 210.932 78.7516 215.45 77.6141C219.466 76.3502 222.352 74.8336 226.243 72.1794C226.87 71.8002 227.623 71.0419 228.376 71.2947C229.38 71.5475 229.631 73.0641 228.753 73.5697C224.486 76.3502 220.093 79.2572 215.199 80.6474C212.312 81.5322 209.426 82.1641 206.414 82.6697C204.03 82.9224 201.645 83.0488 199.261 83.3016C195.621 83.428 191.982 83.6808 188.342 83.428C187.715 83.428 187.213 83.3016 186.585 83.3016C186.209 83.3016 185.832 83.1752 185.581 82.9224C185.079 82.4169 184.828 81.4058 185.205 80.7738Z" fill="#282828"/>
</g>
<g opacity="0.1294">
<path d="M208.425 144.6C208.425 143.968 208.425 143.336 208.425 142.704C208.425 141.44 208.425 140.303 208.299 139.039C208.299 137.901 208.174 136.764 208.174 135.626C208.174 135.5 208.174 135.373 208.048 135.373C208.048 135.247 208.048 135.247 208.048 135.121C208.048 134.868 207.923 134.741 207.672 134.615C208.299 133.857 209.429 134.236 210.307 134.362C210.935 134.489 211.688 134.489 213.068 134.489C214.198 134.489 217.335 133.604 218.339 133.604C218.716 133.604 218.967 133.73 219.218 133.983C219.72 133.604 220.222 133.225 220.598 132.719C220.849 132.466 221.226 132.214 221.477 131.961C222.355 131.708 223.234 131.455 223.987 131.076C223.987 131.203 223.987 131.329 224.112 131.329C224.112 131.455 224.238 131.582 224.238 131.708C224.238 131.835 224.363 131.835 224.363 131.961C224.614 132.214 224.865 132.593 224.991 132.846C224.991 132.972 224.865 132.972 224.865 133.098C222.23 135.753 219.343 138.154 216.708 140.808C215.453 142.198 214.072 143.462 212.817 144.853C212.19 145.358 211.688 145.99 210.935 146.369C210.935 146.369 210.935 146.369 210.809 146.369C210.809 146.369 210.684 146.369 210.684 146.496C210.558 146.496 210.558 146.622 210.433 146.622C210.307 146.622 210.182 146.748 209.931 146.748C209.303 146.748 208.801 146.496 208.55 145.99C208.425 145.864 208.299 145.864 208.174 145.737C208.425 145.105 208.425 144.853 208.425 144.6Z" fill="#282828"/>
</g>
<path d="M245.445 76.7282C242.182 75.8435 238.668 77.6129 236.66 80.2671C234.652 82.9212 233.899 86.3337 233.523 89.7462C233.272 92.9059 233.397 96.192 234.527 99.2254C235.656 102.259 237.915 104.786 241.053 105.798C245.194 107.061 249.837 104.913 252.347 101.374C254.857 97.8351 255.485 93.1587 255.108 88.8615C254.857 85.9546 254.104 83.0476 252.347 80.6462C250.59 78.2448 247.83 76.4754 245.445 76.7282Z" fill="white"/>
<path d="M243.435 106.809C242.557 106.809 241.678 106.682 240.8 106.429C237.788 105.545 235.278 102.891 233.897 99.4781C232.893 96.8239 232.517 93.6642 232.893 89.7461C233.27 85.4489 234.274 82.2892 236.156 80.0142C238.415 76.9809 242.306 75.4642 245.443 76.2225C248.33 75.9698 251.216 78.1184 252.722 80.3934C254.228 82.542 255.232 85.4489 255.608 88.9878C255.985 92.5267 255.734 97.7086 252.848 101.879C250.589 104.913 246.949 106.809 243.435 106.809ZM243.686 77.1073C241.302 77.1073 238.792 78.3712 237.16 80.6462C235.529 82.7948 234.525 85.7017 234.148 89.7461C233.772 93.4114 234.148 96.4447 235.027 98.8461C236.156 101.879 238.415 104.281 241.051 105.039C244.69 106.177 249.208 104.407 251.718 100.868C254.479 96.9503 254.605 92.1475 254.354 88.735C253.977 85.4489 253.098 82.7948 251.718 80.7725C249.961 78.3712 247.451 76.9809 245.443 77.2337C245.318 77.2337 245.318 77.2337 245.192 77.2337C244.69 77.2337 244.188 77.1073 243.686 77.1073Z" fill="#282828"/>
<path d="M209.039 49.9376C212.553 49.8113 223.095 53.6029 225.981 56.0043C230.75 60.1751 235.519 64.7251 238.28 70.6654C240.665 75.9737 241.292 81.914 242.171 87.7279C242.422 89.3709 242.673 91.1404 243.551 92.657C244.43 94.1737 245.936 95.3112 247.442 94.932C248.822 94.6793 249.826 93.4154 250.328 91.8987C250.83 90.382 250.705 88.8654 250.579 87.2223C249.826 77.364 247.065 67.2529 241.167 59.796C235.268 52.2126 218.451 46.3988 209.039 49.9376Z" fill="white"/>
<path d="M246.949 95.5633C245.318 95.5633 243.812 94.2994 243.059 92.9091C242.181 91.3925 241.929 89.7494 241.678 87.7272C241.553 87.2217 241.553 86.7161 241.428 86.0842C240.675 80.9022 239.922 75.5939 237.788 70.7911C235.278 65.23 231.137 61.0592 225.615 56.3828C222.979 54.1078 212.437 50.3162 209.174 50.4425C208.923 50.4425 208.547 50.1898 208.547 49.937C208.547 49.6842 208.672 49.3051 208.923 49.1787C218.838 45.387 235.78 51.58 241.678 59.1634C248.455 67.8842 250.589 79.1328 251.216 86.9689C251.342 88.6119 251.342 90.255 250.965 91.7716C250.463 93.6675 249.083 94.9314 247.577 95.1841C247.326 95.5633 247.075 95.5633 246.949 95.5633ZM212.312 49.6842C217.081 50.6953 223.983 53.4759 226.368 55.4981C231.262 59.6689 236.031 64.3453 238.792 70.412C241.051 75.2147 241.804 80.7758 242.557 85.9578C242.682 86.4633 242.682 86.9689 242.808 87.6008C243.059 89.3703 243.31 91.0133 244.063 92.2772C244.69 93.4147 245.945 94.5522 247.326 94.2994C248.33 94.173 249.334 93.0355 249.71 91.6453C250.087 90.255 250.087 88.7383 249.961 87.2216C249.459 79.5119 247.326 68.5161 240.674 60.0481C235.655 53.7286 221.85 48.1675 212.312 49.6842Z" fill="#282828"/>
<path d="M115.679 222.579C130.237 221.063 165.502 234.839 169.392 232.691C172.279 231.047 173.534 202.61 175.04 182.767C175.793 172.277 183.323 156.984 191.104 159.259C206.414 163.682 201.645 246.972 189.849 262.645C184.076 270.228 150.944 252.281 122.456 242.17C115.93 239.895 109.278 245.329 103.756 249.5C91.9596 258.347 88.8221 259.611 87.1907 257.968C85.6847 256.452 96.9795 248.363 99.4895 244.697C90.8301 248.363 79.6608 256.072 77.4018 252.154C76.0213 249.627 87.3161 246.72 95.2226 240.274C82.6727 242.296 74.0133 250.764 71.6288 246.593C69.7464 243.434 85.1827 239.263 90.4536 234.713C84.4297 234.966 73.0093 242.043 71.3778 238.378C70.1228 235.85 80.5392 231.932 83.5512 230.542C88.1947 228.52 91.7086 228.141 95.8501 225.107C91.8341 222.2 80.7902 219.546 82.5472 217.271C84.3042 214.87 87.3161 215.881 94.5951 217.145C101.246 218.409 110.91 223.085 115.679 222.579Z" fill="white"/>
<path d="M184.83 265.173C177.049 265.173 163.119 259.359 147.557 252.913C139.148 249.374 130.489 245.835 122.206 242.802C116.308 240.653 110.284 245.33 104.887 249.374L104.009 250.006C92.463 258.6 88.8235 260.496 86.6901 258.474C86.4391 258.221 86.3135 257.969 86.3135 257.589C86.3135 256.199 88.8235 253.924 92.8395 250.385C94.3455 249.121 95.8514 247.731 96.9809 246.594C95.3494 247.352 93.718 248.237 92.0865 249.121C84.9331 252.787 78.6582 255.946 76.7757 252.66C76.5247 252.281 76.5247 251.902 76.6502 251.523C77.0267 250.132 79.5366 248.869 83.1761 246.973C86.0625 245.582 89.451 243.813 92.463 241.664C87.9451 242.802 84.0546 244.571 80.7916 246.088C76.0227 248.363 72.5087 249.88 70.8772 247.225C70.6262 246.846 70.5007 246.341 70.7517 245.835C71.3792 244.066 74.6422 242.423 80.0386 239.895C82.7996 238.631 85.6861 237.367 87.8195 235.977C85.8116 236.482 83.6781 237.241 81.4191 238.125C76.2737 240.021 71.8812 241.664 70.5007 239.01C70.2498 238.631 70.2498 238.126 70.5007 237.62C71.3792 235.345 76.9012 232.944 82.0466 230.795C82.4231 230.669 82.7996 230.416 83.1761 230.289C84.6821 229.657 86.1881 229.152 87.4431 228.646C89.953 227.762 92.212 227.003 94.5965 225.36C93.0905 224.476 90.8315 223.591 88.6981 222.706C84.5566 220.937 81.9211 219.799 81.5446 218.409C81.4191 218.03 81.5446 217.524 81.7956 217.145C83.5526 214.87 86.188 215.249 91.3335 216.26C92.212 216.387 93.216 216.639 94.3455 216.766C97.1065 217.271 100.495 218.282 103.758 219.42C108.15 220.81 112.543 222.327 115.304 222.074C123.587 221.189 138.647 225.234 150.694 228.52C158.852 230.795 167.386 233.07 168.766 232.185C169.143 231.932 170.147 230.289 171.276 219.799C172.029 212.721 172.657 203.495 173.284 194.648C173.535 190.477 173.786 186.559 174.163 182.767C174.79 175.058 178.932 164.188 184.83 160.017C186.963 158.501 188.971 158.121 191.105 158.753C193.74 159.512 195.999 162.419 197.631 167.474C205.035 189.719 200.266 249.627 190.101 263.024C189.348 264.541 187.465 265.173 184.83 265.173ZM119.194 241.032C120.324 241.032 121.453 241.159 122.583 241.664C130.991 244.698 139.65 248.237 148.059 251.775C167.386 259.864 185.583 267.448 189.348 262.392C193.866 256.452 197.756 239.642 199.388 218.662C201.019 197.555 200.015 178.091 196.627 167.853C195.121 163.303 193.238 160.523 190.979 159.891C189.348 159.385 187.591 159.765 185.834 161.028C180.438 164.82 176.296 175.31 175.669 182.767C175.418 186.433 175.167 190.477 174.79 194.521C173.284 217.524 172.155 231.68 169.645 233.07C167.888 234.081 161.613 232.438 150.694 229.531C138.772 226.245 123.838 222.201 115.806 223.085C112.794 223.338 108.401 221.948 103.758 220.431C100.62 219.42 97.2319 218.283 94.5965 217.777C93.467 217.651 92.463 217.398 91.5845 217.271C86.3136 216.387 84.4311 216.134 83.1761 217.777C83.1761 217.903 83.1761 217.903 83.1761 217.903C83.4271 218.788 86.941 220.305 89.5765 221.316C92.0865 222.327 94.8475 223.464 96.4789 224.602C96.6044 224.728 96.73 224.855 96.73 225.107C96.73 225.36 96.6044 225.487 96.4789 225.613C93.5925 227.762 91.0825 228.646 88.3215 229.531C86.941 230.037 85.5606 230.416 84.0546 231.048C83.8036 231.174 83.4271 231.301 82.9251 231.553C79.9131 232.817 72.8852 235.724 72.1322 237.62C72.0067 237.746 72.1322 237.873 72.1322 237.999C72.8852 239.642 77.4031 237.999 81.4191 236.482C84.6821 235.219 88.0705 234.081 90.706 233.955C90.957 233.955 91.208 234.081 91.3335 234.334C91.459 234.587 91.3335 234.839 91.208 235.092C88.949 237.114 84.9331 238.884 81.0426 240.653C77.1522 242.423 72.8852 244.445 72.3832 245.835C72.3832 245.962 72.3832 246.088 72.3832 246.214C73.3872 247.857 75.8972 246.846 80.6661 244.571C84.5566 242.802 89.5765 240.527 95.3495 239.516C95.6005 239.516 95.8515 239.642 95.977 239.895C96.1025 240.148 95.9769 240.4 95.8514 240.653C92.0865 243.687 87.694 245.962 84.0546 247.731C81.1681 249.248 78.4071 250.638 78.1561 251.523C78.1561 251.649 78.1561 251.649 78.1561 251.775C79.4111 254.05 85.9371 250.638 91.8355 247.731C94.3455 246.467 96.9809 245.077 99.4909 244.066C99.7419 243.939 99.9929 244.066 100.244 244.192C100.495 244.319 100.369 244.698 100.244 244.951C99.1144 246.594 96.4789 248.869 93.969 251.144C91.5845 253.292 87.945 256.452 87.8195 257.463C89.0745 258.6 92.0865 257.589 103.507 248.869L104.385 248.237C108.527 244.95 113.798 241.032 119.194 241.032Z" fill="#282828"/>
<path d="M179.56 237.492C179.434 237.492 179.434 237.492 179.309 237.366C175.669 235.597 169.143 233.827 165.378 233.195C165.002 233.195 164.751 232.816 164.876 232.437C164.876 232.058 165.253 231.805 165.629 231.931C169.394 232.437 176.171 234.333 179.936 236.102C180.187 236.229 180.313 236.608 180.187 236.987C180.062 237.366 179.811 237.492 179.56 237.492Z" fill="#282828"/>
<path d="M208.414 270.735C211.3 270.735 281.078 271.114 285.972 270.861C284.717 257.211 285.219 234.082 284.215 220.432C282.458 197.429 276.309 171.267 266.143 150.666C255.476 146.747 243.554 147.379 231.506 146.621C230.753 158.375 226.36 166.464 219.081 167.349C215.065 167.854 208.163 166.717 208.163 149.275C202.264 151.677 191.095 155.721 186.828 159.639C193.103 201.6 183.189 208.299 188.711 222.328C191.597 229.532 204.649 238.506 207.159 254.683C207.41 256.579 208.414 268.839 208.414 270.735Z" fill="white"/>
<path d="M273.933 271.494C257.87 271.494 230.385 271.368 216.33 271.368C211.937 271.368 209.051 271.368 208.423 271.368C208.047 271.368 207.796 271.115 207.796 270.736C207.796 269.346 207.168 262.394 206.917 258.223C206.792 256.58 206.666 255.316 206.666 254.811C205.035 244.447 199.011 236.99 194.242 231.176C191.606 228.016 189.347 225.236 188.343 222.582C185.833 216.262 186.461 211.207 187.339 204.255C188.469 195.282 189.975 183.022 186.461 159.767C186.461 159.514 186.461 159.387 186.712 159.261C190.602 155.722 200.015 152.057 206.164 149.655C206.917 149.403 207.67 149.024 208.298 148.771C208.549 148.644 208.674 148.771 208.925 148.771C209.051 148.897 209.176 149.024 209.176 149.276C209.176 157.239 210.682 162.547 213.443 165.075C215.075 166.465 216.957 166.971 219.342 166.718C225.993 165.96 230.385 158.376 231.138 146.496C231.138 146.369 231.264 146.117 231.389 146.117C231.515 145.99 231.64 145.99 231.891 145.99C234.652 146.117 237.539 146.243 240.174 146.369C249.587 146.749 258.372 147.128 266.655 150.161C266.78 150.161 266.906 150.287 267.031 150.414C276.694 170.004 283.346 195.535 285.103 220.433C285.605 226.879 285.73 235.347 285.856 244.194C285.981 253.8 286.232 263.785 286.86 270.862C286.86 270.989 286.86 271.241 286.734 271.368C286.609 271.494 286.483 271.621 286.358 271.621C284.852 271.494 280.334 271.494 273.933 271.494ZM209.051 270.104C210.18 270.104 212.816 270.104 216.33 270.104C235.28 270.23 278.451 270.357 285.354 270.23C284.726 263.026 284.601 253.421 284.475 244.068C284.35 235.221 284.224 226.879 283.722 220.433C281.965 196.167 275.188 170.257 265.902 151.172C257.87 148.265 249.21 148.012 240.049 147.633C237.539 147.507 234.903 147.381 232.268 147.254C231.389 159.387 226.621 167.097 219.467 167.982C216.706 168.361 214.322 167.603 212.565 165.96C209.553 163.306 207.921 157.997 207.796 150.161C207.419 150.287 206.917 150.54 206.541 150.667C200.642 153.068 191.732 156.48 187.716 159.767C191.23 183.022 189.724 195.282 188.594 204.255C187.716 211.333 187.214 215.883 189.598 221.95C190.602 224.351 192.736 227.132 195.246 230.165C200.14 236.232 206.29 243.689 207.921 254.432C207.921 254.937 208.047 256.201 208.172 257.844C208.423 262.141 208.925 267.955 209.051 270.104Z" fill="#282828"/>
<path d="M254.358 209.056C260.884 212.216 273.685 220.179 280.211 223.717C284.227 225.992 283.348 225.36 281.466 221.948C274.814 210.699 247.33 153.698 266.406 150.665C290.376 146.747 323.382 238.505 313.97 258.348C310.205 266.184 290 266.69 251.848 231.174C246.828 226.498 239.926 225.866 233.525 225.866C228.882 225.866 224.113 226.624 219.47 225.234C219.093 225.108 218.591 224.981 218.34 224.602C217.336 223.465 217.462 222.074 221.729 221.695C224.992 221.442 229.007 221.063 232.396 219.799C228.129 219.42 222.984 218.156 218.842 217.904C216.834 217.777 214.324 217.272 213.195 215.376C212.944 214.997 212.818 214.617 212.944 214.238C213.069 213.48 213.948 213.354 214.701 213.227C219.846 212.974 225.995 214.112 231.141 213.859C220.223 208.172 209.43 209.688 209.43 205.138C209.43 201.599 223.611 207.413 230.011 206.908C225.117 203.622 212.818 202.484 213.069 198.692C213.32 196.038 223.36 198.945 226.372 199.83C231.015 200.967 234.027 202.737 238.671 202.737C236.914 198.187 226.748 190.73 228.882 189.466C232.27 187.444 237.918 194.016 242.185 197.681C247.33 201.979 252.099 208.045 254.358 209.056Z" fill="white"/>
<path d="M304.93 263.278C297.274 263.278 280.583 258.854 251.342 231.681C246.573 227.257 239.921 226.625 233.521 226.625C233.521 226.625 233.521 226.625 233.396 226.625C232.266 226.625 231.011 226.625 229.882 226.752C226.368 226.878 222.728 227.004 219.214 225.993C218.712 225.867 218.21 225.614 217.708 225.235C217.081 224.603 216.83 223.845 217.081 223.086C217.457 222.075 218.963 221.443 221.473 221.191C223.732 221.064 226.493 220.811 229.254 220.179C227.999 220.053 226.619 219.8 225.364 219.548C223.105 219.168 220.72 218.789 218.587 218.536C216.328 218.284 213.692 217.904 212.437 215.756C212.061 215.25 211.935 214.745 212.061 214.239C212.186 213.607 212.688 212.849 214.445 212.723C217.081 212.596 219.967 212.849 222.728 213.102C224.485 213.228 226.368 213.354 228.125 213.481C224.109 211.711 220.093 210.827 216.83 210.195C212.061 209.184 208.547 208.299 208.547 205.392C208.547 204.886 208.798 204.381 209.174 204.128C210.555 202.991 213.943 203.749 219.34 205.013C221.975 205.645 224.736 206.277 226.995 206.529C225.238 205.771 223.23 205.139 221.097 204.507C216.077 202.991 211.81 201.727 212.061 198.946C212.061 198.441 212.312 198.061 212.688 197.809C214.445 196.545 219.967 197.809 225.113 199.199C225.489 199.325 225.866 199.452 226.242 199.452C227.748 199.831 229.129 200.336 230.384 200.716C232.768 201.474 234.776 202.232 237.412 202.359C236.282 200.463 234.149 198.188 232.141 196.166C229.254 193.132 227.623 191.363 227.748 190.099C227.748 189.72 227.999 189.467 228.376 189.214C231.513 187.445 235.529 191.236 239.545 194.902C240.549 195.786 241.553 196.671 242.432 197.429C244.816 199.452 247.075 201.727 249.083 203.875C251.342 206.15 253.224 208.173 254.354 208.678C258.495 210.7 265.272 214.618 271.171 218.157C274.559 220.179 277.822 222.075 280.207 223.339C280.583 223.592 281.085 223.845 281.587 224.098L281.462 223.971C281.211 223.592 280.96 223.086 280.583 222.581C277.446 217.273 270.794 203.749 265.774 190.478C261.256 178.471 256.613 162.42 260.127 154.836C261.256 152.309 263.264 150.792 266.025 150.413C271.924 149.402 278.575 153.825 285.729 163.305C294.639 175.185 303.675 194.523 309.824 214.871C315.974 235.346 317.731 251.903 314.342 258.981C313.213 261.256 311.079 262.772 307.942 263.404C307.189 263.152 306.185 263.278 304.93 263.278ZM233.521 225.361C240.172 225.361 247.075 225.993 252.22 230.796C265.272 242.929 277.069 251.65 287.485 256.959C298.027 262.267 304.302 262.52 307.816 261.888C310.452 261.382 312.46 260.118 313.338 258.096C320.241 243.561 303.675 188.835 284.975 163.684C278.199 154.71 271.798 150.413 266.527 151.298C264.143 151.677 262.637 152.941 261.633 155.089C255.358 168.613 275.94 211.459 282.089 221.696C282.34 222.202 282.717 222.707 282.968 223.086C283.846 224.477 284.097 224.982 283.721 225.488C283.219 225.993 282.591 225.614 280.081 224.35C277.697 223.086 274.434 221.191 271.045 219.168C265.147 215.629 258.37 211.711 254.228 209.816C252.973 209.184 250.965 207.288 248.581 204.76C246.573 202.738 244.314 200.336 242.055 198.441C241.177 197.682 240.172 196.798 239.168 195.786C235.655 192.5 231.764 188.835 229.505 190.225C229.505 190.984 231.89 193.511 233.521 195.281C235.906 197.809 238.541 200.589 239.42 202.738C239.545 202.991 239.42 203.117 239.42 203.37C239.294 203.496 239.169 203.623 238.918 203.623C235.655 203.623 233.145 202.738 230.509 201.979C229.254 201.6 227.874 201.095 226.368 200.716C226.117 200.589 225.74 200.589 225.238 200.463C222.477 199.704 215.324 197.809 213.818 198.946C213.692 199.073 213.692 199.073 213.692 199.199C213.567 200.968 217.959 202.232 221.85 203.496C224.987 204.507 228.25 205.518 230.384 206.909C230.635 207.035 230.76 207.288 230.635 207.541C230.509 207.793 230.384 207.92 230.133 208.046C227.372 208.299 223.356 207.288 219.465 206.403C215.575 205.518 211.308 204.507 210.304 205.392C210.178 205.392 210.178 205.518 210.178 205.645C210.178 207.541 212.688 208.173 217.583 209.31C221.599 210.195 226.493 211.332 231.639 213.86C231.89 213.986 232.015 214.239 232.015 214.492C232.015 214.745 231.764 214.998 231.388 214.998C228.752 215.124 225.866 214.871 223.105 214.618C220.344 214.366 217.457 214.239 214.947 214.239C214.571 214.239 213.818 214.366 213.692 214.745C213.692 214.871 213.692 215.124 213.943 215.377C214.947 217.02 216.955 217.399 219.089 217.525C221.222 217.652 223.607 218.157 225.866 218.536C228.125 218.916 230.509 219.295 232.643 219.548C232.894 219.548 233.145 219.8 233.145 220.053C233.145 220.306 233.019 220.559 232.768 220.685C229.129 222.075 224.987 222.328 221.85 222.581C218.963 222.834 218.587 223.466 218.587 223.718C218.461 223.971 218.838 224.35 218.963 224.477C219.214 224.729 219.465 224.856 219.842 224.982C223.23 225.993 226.744 225.867 230.133 225.741C231.011 225.361 232.266 225.361 233.521 225.361Z" fill="#282828"/>
<path d="M301.419 236.106C301.293 236.106 301.168 236.106 301.168 235.979C294.391 231.935 289.371 229.028 281.464 225.11C281.213 224.984 281.088 224.604 281.213 224.225C281.339 223.972 281.715 223.846 282.092 223.972C289.998 228.017 295.269 231.05 301.795 234.968C302.046 235.095 302.172 235.474 302.046 235.853C301.795 235.979 301.544 236.106 301.419 236.106Z" fill="#282828"/>
<path d="M245.693 102.513C244.689 102.513 243.56 102.26 242.43 102.007C241.677 101.881 240.924 101.628 240.297 101.249C239.418 100.743 238.916 99.7321 238.54 99.1002C236.03 94.2974 236.03 87.978 238.791 83.1752C238.791 83.0488 238.916 83.0488 239.042 83.0488C239.167 83.0488 239.167 83.1752 239.167 83.3016C236.532 87.978 236.532 94.0446 238.916 98.721C239.293 99.353 239.795 100.238 240.548 100.743C241.175 101.122 241.928 101.375 242.556 101.502C244.564 102.007 246.572 102.386 248.078 101.375C248.203 101.375 248.329 101.375 248.329 101.375C248.329 101.502 248.329 101.628 248.329 101.628C247.576 102.386 246.697 102.513 245.693 102.513Z" fill="#282828"/>
<path d="M209.176 167.726H209.05C205.536 164.187 203.654 159.258 203.779 154.329C203.779 154.203 203.905 154.076 204.03 154.076C204.156 154.076 204.281 154.203 204.281 154.329C204.156 159.132 206.038 164.061 209.427 167.473C209.552 167.6 209.552 167.726 209.427 167.726C209.301 167.726 209.176 167.726 209.176 167.726Z" fill="#282828"/>
<path d="M201.522 161.155C201.396 161.155 201.396 161.155 201.396 161.028C200.518 159.133 200.016 156.984 200.016 154.962C200.016 154.835 200.141 154.709 200.267 154.709C200.392 154.709 200.518 154.835 200.518 154.962C200.518 156.984 201.02 159.006 201.773 160.902C201.773 160.902 201.647 161.028 201.522 161.155Z" fill="#282828"/>
<path d="M204.659 74.4531C203.906 74.4531 203.153 74.4531 202.274 74.3267C202.149 74.3267 202.023 74.2003 202.023 74.0739C202.023 73.9475 202.149 73.8211 202.274 73.8211C210.808 74.3267 219.593 72.1781 226.998 67.8809C227.123 67.8809 227.249 67.8808 227.249 68.0072C227.249 68.1336 227.249 68.26 227.123 68.26C220.472 72.3044 212.565 74.4531 204.659 74.4531Z" fill="#282828"/>
<path d="M238.799 51.6974H238.673C236.916 50.0543 234.783 48.7904 232.524 48.1585C232.398 48.1585 232.398 48.0321 232.398 47.9057C232.398 47.7793 232.524 47.7793 232.649 47.7793C235.034 48.4112 237.167 49.6751 238.924 51.4446C239.05 51.571 239.05 51.6974 238.924 51.6974C238.924 51.6974 238.924 51.6974 238.799 51.6974Z" fill="#282828"/>
<path d="M240.044 48.924C239.04 48.2921 237.911 47.6601 236.907 47.1546C236.781 47.1546 236.781 47.0282 236.781 46.9018C236.781 46.7754 236.907 46.7754 237.032 46.7754C238.162 47.2809 239.166 47.7865 240.17 48.5448C240.295 48.6712 240.295 48.7976 240.17 48.7976C240.17 48.924 240.17 48.924 240.044 48.924Z" fill="#282828"/>
<g opacity="0.1294">
<path d="M300.922 232.815C300.169 232.183 299.29 231.552 298.537 231.046C295.902 229.403 293.517 227.507 290.756 226.117C289.125 225.106 287.493 224.221 285.862 223.21C285.611 222.957 285.36 222.704 284.983 222.578C283.477 222.072 282.097 223.968 283.226 225.232C283.979 226.117 285.109 226.37 285.987 227.002C288.121 228.265 290.38 229.529 292.513 230.793C294.521 232.057 296.529 233.447 298.537 234.711C299.416 235.217 300.043 236.607 301.675 235.47C302.302 234.585 301.8 233.447 300.922 232.815Z" fill="#282828"/>
</g>
<g opacity="0.1294">
<path d="M251.855 97.5817C250.851 99.4775 250.6 99.9831 249.219 101.5C247.086 102.764 246.584 102.89 244.325 103.648C243.195 104.027 240.811 103.396 239.43 102.637C238.928 102.384 238.552 101.879 238.05 101.879C236.795 101.626 235.916 103.396 236.92 104.28C237.924 105.165 239.179 105.797 240.434 106.176C241.564 106.555 242.693 106.808 243.948 106.808C248.341 106.302 252.231 103.522 254.239 99.6039C255.369 97.7081 253.11 95.8122 251.855 97.5817Z" fill="#282828"/>
</g>
<path d="M146.174 270.349C154.833 270.349 189.22 270.349 191.73 270.349L191.856 259.859L143.664 259.479L146.174 270.349Z" fill="white"/>
<path d="M191.614 270.981H146.184C145.933 270.981 145.682 270.728 145.556 270.475L143.172 259.606C143.172 259.48 143.172 259.227 143.297 259.1C143.423 258.974 143.548 258.848 143.799 258.848L191.991 259.227C192.116 259.227 192.367 259.353 192.367 259.353C192.493 259.48 192.493 259.606 192.493 259.859L192.367 270.349C192.242 270.728 191.991 270.981 191.614 270.981ZM146.56 269.717H190.987L191.112 260.491L144.427 260.112L146.56 269.717Z" fill="#282828"/>
<path d="M0.59375 187.188L115.174 187.819L154.33 270.351L39.3728 269.846L0.59375 187.188Z" fill="white"/>
<path d="M154.332 270.984L39.3752 270.479C39.1242 270.479 38.8732 270.352 38.8732 270.1L0.094124 187.441C-0.0313747 187.189 -0.0313747 187.062 0.094124 186.809C0.219623 186.683 0.345114 186.557 0.596111 186.557L115.302 187.189C115.553 187.189 115.804 187.315 115.804 187.568L154.959 270.1C155.085 270.352 155.085 270.479 154.959 270.732C154.708 270.858 154.583 270.984 154.332 270.984ZM39.7517 269.215L153.328 269.72L114.8 188.452L1.47462 187.821L39.7517 269.215Z" fill="#282828"/>
<path d="M73.1389 220.549C69.8759 220.17 66.362 221.055 64.9815 224.088C63.601 227.122 64.7305 230.913 67.115 233.062C69.4995 235.337 73.1389 235.969 76.2764 235.337C78.0334 234.958 79.6648 234.073 80.6688 232.683C81.2963 231.672 81.6728 230.408 81.6728 229.144C81.6728 224.973 79.7903 221.181 73.1389 220.549Z" fill="white"/>
<path d="M73.7658 236.225C71.1304 236.225 68.4949 235.34 66.6124 233.571C63.977 231.043 62.973 226.998 64.3534 223.839C65.6084 220.932 68.8714 219.541 73.1383 219.921C80.6683 220.679 82.2998 225.355 82.2998 229.147C82.2998 230.664 81.9233 231.928 81.1703 233.065C79.9153 234.834 77.9073 235.719 76.4013 235.972C75.5228 236.098 74.6443 236.225 73.7658 236.225ZM71.8834 221.058C70.0009 221.058 66.7379 221.564 65.483 224.344C64.3535 226.998 65.1064 230.537 67.4909 232.686C69.6244 234.708 73.0129 235.466 76.1503 234.708C78.0328 234.329 79.4133 233.444 80.1663 232.307C80.9193 231.296 81.0448 230.032 81.0448 229.147C81.0448 224.344 78.4093 221.69 73.0129 221.185C72.7619 221.058 72.3853 221.058 71.8834 221.058Z" fill="#282828"/>
<path d="M8.00481 194.773C7.87931 194.773 7.87931 194.773 8.00481 194.773C7.75382 194.647 7.75381 194.52 7.87931 194.394C8.7578 193.13 9.76181 191.993 10.7658 190.982C10.8913 190.855 11.0168 190.855 11.0168 190.982C11.1423 191.108 11.1423 191.234 11.0168 191.234C10.0128 192.372 9.00881 193.509 8.13032 194.647C8.13032 194.773 8.00481 194.773 8.00481 194.773Z" fill="#282828"/>
<path d="M10.5087 199.201H10.3832C10.2577 199.074 10.2577 198.948 10.3832 198.948C13.0187 196.041 15.9051 193.134 18.7916 190.354C18.9171 190.227 19.0426 190.227 19.0426 190.354C19.1681 190.48 19.1681 190.606 19.0426 190.606C16.1562 193.387 13.3952 196.294 10.6342 199.201C10.6342 199.201 10.6342 199.201 10.5087 199.201Z" fill="#282828"/>
<path d="M13.0243 204.251H12.8988C12.7733 204.125 12.7733 203.998 12.8988 203.998C16.9148 199.701 21.0562 195.277 25.1977 191.107C25.3232 190.98 25.4487 190.98 25.4487 191.107C25.5742 191.233 25.5742 191.359 25.4487 191.359C21.3072 195.656 17.1658 199.954 13.1498 204.251C13.1498 204.251 13.1498 204.251 13.0243 204.251Z" fill="#282828"/>
<path d="M15.5321 210.193H15.4066C15.2811 210.067 15.2811 209.94 15.4066 209.94C20.8031 203.747 26.4505 197.554 32.2235 191.74C32.349 191.614 32.4744 191.614 32.4744 191.74C32.5999 191.867 32.5999 191.993 32.4744 191.993C26.7015 197.807 20.9286 203.874 15.6576 210.193H15.5321Z" fill="#282828"/>
<path d="M18.2821 215.248H18.1566C18.0311 215.121 18.0311 214.995 18.1566 214.995L38.4874 191.992C38.6129 191.866 38.7384 191.866 38.7384 191.992C38.8639 192.119 38.8639 192.245 38.7384 192.245L18.4076 215.248H18.2821Z" fill="#282828"/>
<path d="M21.0555 220.934H20.9301C20.8046 220.807 20.8046 220.681 20.9301 220.681C29.213 210.696 37.9979 200.964 47.0338 191.611C47.1593 191.485 47.2848 191.485 47.2848 191.611C47.4103 191.738 47.4103 191.864 47.2848 191.864C38.2489 201.217 29.4639 210.949 21.181 220.807C21.181 220.934 21.181 220.934 21.0555 220.934Z" fill="#282828"/>
<path d="M23.6884 227H23.5629C23.4374 226.874 23.4374 226.747 23.5629 226.747L54.8121 191.611C54.9376 191.485 55.063 191.485 55.063 191.611C55.1885 191.738 55.1885 191.864 55.063 191.864L23.8139 227C23.8139 227 23.8139 227 23.6884 227Z" fill="#282828"/>
<path d="M25.8212 232.943H25.6957C25.5702 232.817 25.5702 232.69 25.6957 232.69L62.2158 191.74C62.3413 191.614 62.4668 191.614 62.4668 191.74C62.5923 191.867 62.5923 191.993 62.4668 191.993L25.9467 232.943C25.9467 232.943 25.9467 232.943 25.8212 232.943Z" fill="#282828"/>
<path d="M28.9696 238.375H28.8441C28.7186 238.249 28.7186 238.122 28.8441 238.122C35.1191 230.918 41.5195 223.335 48.2964 216.257C51.0574 213.35 54.4458 209.179 58.0853 204.882C61.5993 200.711 65.4897 195.909 69.3802 191.611C69.5057 191.485 69.6312 191.485 69.6312 191.611C69.7567 191.738 69.7567 191.864 69.6312 191.864C65.7407 196.161 61.8503 200.964 58.3363 205.135C54.6968 209.559 51.3084 213.603 48.5474 216.51C41.896 223.588 35.37 231.045 29.2206 238.375C29.0951 238.375 28.9696 238.375 28.9696 238.375Z" fill="#282828"/>
<path d="M31.7196 244.444H31.5941C31.4686 244.318 31.4686 244.192 31.5941 244.192L77.6521 191.74C77.7776 191.614 77.9031 191.614 77.9031 191.74C78.0286 191.867 78.0286 191.993 77.9031 191.993L31.8451 244.444C31.8451 244.444 31.8451 244.444 31.7196 244.444Z" fill="#282828"/>
<path d="M34.4696 250.002H34.3441C34.2186 249.876 34.2186 249.75 34.3441 249.75L87.4301 191.484C87.5556 191.358 87.681 191.358 87.681 191.484C87.8065 191.611 87.8065 191.737 87.681 191.737L34.5951 250.002H34.4696Z" fill="#282828"/>
<path d="M37.3758 256.704H37.2504C37.1249 256.577 37.1249 256.451 37.2504 256.451C44.6548 247.604 52.5612 239.009 60.7186 230.794C60.8441 230.668 60.9696 230.668 60.9696 230.794C61.0951 230.92 61.0951 231.047 60.9696 231.047C52.8122 239.262 45.0313 247.856 37.6269 256.577C37.5014 256.704 37.3758 256.704 37.3758 256.704Z" fill="#282828"/>
<path d="M73.0087 217.018H72.8832C72.7577 216.892 72.7577 216.765 72.8832 216.765C76.6481 212.594 80.7896 208.297 84.6801 204.253C88.696 200.082 92.712 195.911 96.4769 191.74C96.6024 191.614 96.7279 191.614 96.7279 191.74C96.8534 191.867 96.8534 191.993 96.7279 191.993C92.963 196.164 88.8215 200.461 84.9311 204.506C80.9151 208.676 76.8991 212.847 73.1342 217.018H73.0087Z" fill="#282828"/>
<path d="M40.1259 262.514H40.0004C39.8749 262.388 39.8749 262.262 40.0004 262.262L63.4686 235.973C63.5941 235.846 63.7196 235.846 63.7196 235.973C63.8451 236.099 63.8451 236.225 63.7196 236.225L40.2514 262.514C40.2514 262.514 40.2514 262.514 40.1259 262.514Z" fill="#282828"/>
<path d="M80.0477 219.039H79.9222C79.7968 218.913 79.7968 218.786 79.9222 218.786C88.0797 209.181 96.8645 199.828 105.9 191.233C106.026 191.107 106.151 191.107 106.151 191.233C106.277 191.36 106.277 191.486 106.151 191.486C96.9901 200.207 88.3306 209.433 80.1732 219.039C80.1732 219.039 80.1732 219.039 80.0477 219.039Z" fill="#282828"/>
<path d="M44.0087 266.811H43.8832C43.7577 266.684 43.7577 266.558 43.8832 266.558C52.6681 257.837 61.3275 248.737 69.6104 239.511C69.7359 239.384 69.8614 239.384 69.8614 239.511C69.9869 239.637 69.9869 239.764 69.8614 239.764C61.5785 248.99 52.9191 258.09 44.1342 266.811C44.0087 266.811 44.0087 266.811 44.0087 266.811Z" fill="#282828"/>
<path d="M84.4305 223.841H84.3051C84.1796 223.714 84.1796 223.588 84.3051 223.588C93.7175 213.35 103.506 203.239 113.421 193.381C113.546 193.255 113.672 193.255 113.672 193.381C113.797 193.507 113.797 193.634 113.672 193.634C103.757 203.492 94.0939 213.603 84.556 223.841C84.4305 223.841 84.4305 223.841 84.4305 223.841Z" fill="#282828"/>
<path d="M52.3056 266.689H52.1801C52.0546 266.562 52.0546 266.436 52.1801 266.436C57.2 261.128 62.2199 255.693 67.1144 250.511C83.1782 233.449 99.744 215.754 116.561 199.197C116.686 199.071 116.812 199.071 116.812 199.197C116.937 199.324 116.937 199.45 116.812 199.45C99.995 216.007 83.4292 233.701 67.3654 250.764C62.471 255.946 57.3255 261.381 52.431 266.689C52.431 266.689 52.4311 266.689 52.3056 266.689Z" fill="#282828"/>
<path d="M61.8446 266.56H61.7191C61.5936 266.434 61.5936 266.308 61.7191 266.308C79.9164 245.201 100.247 225.358 119.699 206.147C119.825 206.02 119.95 206.02 119.95 206.147C120.076 206.273 120.076 206.399 119.95 206.399C100.373 225.61 80.1674 245.453 61.9701 266.56H61.8446Z" fill="#282828"/>
<path d="M71.2508 266.435H71.1254C70.9999 266.308 70.9999 266.182 71.1254 266.182C87.6912 247.729 105.01 229.529 122.454 211.961C122.58 211.835 122.705 211.835 122.705 211.961C122.831 212.087 122.831 212.214 122.705 212.214C105.135 229.782 87.9422 247.982 71.3763 266.435H71.2508Z" fill="#282828"/>
<path d="M81.0321 265.802H80.9066C80.7811 265.676 80.7811 265.55 80.9066 265.55L124.706 218.912C124.831 218.786 124.957 218.786 124.957 218.912C125.082 219.039 125.082 219.165 124.957 219.165L81.1576 265.802C81.1576 265.802 81.1576 265.802 81.0321 265.802Z" fill="#282828"/>
<path d="M91.9618 265.422H91.8363C91.7108 265.295 91.7108 265.169 91.8363 265.169C103.508 251.772 115.807 238.627 128.356 225.988C128.482 225.862 128.607 225.862 128.607 225.988C128.733 226.115 128.733 226.241 128.607 226.241C116.058 238.754 103.759 252.024 92.0873 265.422C91.9618 265.422 91.9618 265.422 91.9618 265.422Z" fill="#282828"/>
<path d="M100.618 265.425H100.493C100.367 265.298 100.367 265.172 100.493 265.172C106.767 258.094 113.419 250.89 119.945 244.065C123.459 240.4 126.973 236.482 130.487 232.816C130.612 232.69 130.738 232.69 130.738 232.816C130.863 232.943 130.863 233.069 130.738 233.069C127.224 236.861 123.71 240.653 120.196 244.318C113.67 251.269 107.018 258.347 100.744 265.425H100.618Z" fill="#282828"/>
<path d="M108.907 265.423H108.782C108.656 265.297 108.656 265.17 108.782 265.17C115.433 258.472 126.602 246.465 132.877 239.64C133.003 239.513 133.128 239.513 133.128 239.64C133.254 239.766 133.254 239.893 133.128 239.893C126.853 246.844 115.81 258.724 109.033 265.549C109.033 265.423 109.033 265.423 108.907 265.423Z" fill="#282828"/>
<path d="M118.313 265.048H118.188C118.062 264.921 118.062 264.795 118.188 264.795C124.212 258.476 130.236 251.903 135.883 245.331C136.009 245.205 136.134 245.205 136.134 245.331C136.26 245.458 136.26 245.584 136.134 245.584C130.361 252.283 124.463 258.855 118.313 265.174C118.439 265.048 118.439 265.048 118.313 265.048Z" fill="#282828"/>
<path d="M126.47 265.299H126.344C126.219 265.173 126.219 265.046 126.344 265.046L139.27 251.144C139.396 251.017 139.521 251.017 139.521 251.144C139.647 251.27 139.647 251.396 139.521 251.396L126.595 265.299C126.595 265.299 126.595 265.299 126.47 265.299Z" fill="#282828"/>
<path d="M135.009 265.298H134.883C134.758 265.172 134.758 265.045 134.883 265.045C137.519 262.138 140.28 259.358 142.915 256.577C143.041 256.451 143.166 256.451 143.166 256.577C143.292 256.704 143.292 256.83 143.166 256.83C140.405 259.611 137.77 262.391 135.134 265.298C135.009 265.298 135.009 265.298 135.009 265.298Z" fill="#282828"/>
<path d="M143.298 265.805H143.172C143.047 265.678 143.047 265.552 143.172 265.552L145.933 262.519C146.059 262.392 146.184 262.392 146.184 262.519C146.31 262.645 146.31 262.771 146.184 262.771L143.423 265.805C143.423 265.805 143.423 265.805 143.298 265.805Z" fill="#282828"/>
<path d="M275.172 85.7589C282.451 82.22 289.604 77.5436 293.997 70.4658C304.539 53.1506 296.005 26.7353 309.559 11.9479C316.837 3.98538 328.258 2.4687 338.674 1.96315C354.236 1.20482 369.798 1.58399 385.234 3.10066C392.639 3.85899 400.42 4.99649 406.443 9.79926C415.103 16.7506 417.613 30.6534 413.597 41.3964C409.581 52.2659 400.294 60.102 390.003 64.02C379.712 67.9381 368.543 68.4436 357.75 67.8117C346.832 67.1797 336.039 65.5367 325.12 65.4103C322.359 65.4103 319.473 65.5367 316.837 66.5478C312.947 68.0644 310.061 71.2242 306.923 74.1311C298.389 81.4616 288.098 86.3908 275.172 85.7589Z" fill="white"/>
<path d="M277.684 86.3894C276.806 86.3894 275.927 86.3894 275.174 86.263C274.923 86.263 274.672 86.0102 274.547 85.7574C274.547 85.5046 274.672 85.2519 274.923 85.1255C283.959 80.8283 289.858 76.0255 293.497 69.9588C298.266 62.1227 299.145 52.138 299.898 42.4061C300.776 31.1575 301.78 19.4033 309.185 11.4409C316.589 3.35198 327.758 1.83533 338.677 1.20339C354.239 0.445055 369.926 0.824213 385.362 2.34088C392.892 3.09921 400.673 4.23672 406.822 9.16588C415.231 15.9909 418.368 29.8936 414.101 41.5214C410.336 51.7589 401.552 60.1005 390.131 64.5241C381.221 67.9366 371.181 69.0741 357.627 68.3158C353.36 68.063 349.093 67.6839 344.826 67.3047C338.3 66.6727 331.649 66.0408 324.997 66.0408C322.487 66.0408 319.475 66.0408 316.84 67.0519C313.828 68.1894 311.318 70.5908 308.808 72.8658C308.181 73.3713 307.679 73.8769 307.051 74.3824C298.392 82.3449 288.477 86.3894 277.684 86.3894ZM277.684 85.1255C288.226 85.1255 297.89 81.2074 306.424 73.4977C307.051 72.9922 307.553 72.4866 308.055 71.9811C310.565 69.5797 313.2 67.1783 316.463 65.9144C319.224 64.7769 322.362 64.7769 324.997 64.7769C331.649 64.7769 338.426 65.4089 344.952 66.0408C349.093 66.42 353.486 66.7991 357.627 67.0519C371.055 67.8102 380.97 66.6727 389.629 63.3866C400.799 59.0894 409.207 51.0005 412.846 41.0158C416.988 29.8936 413.976 16.6228 405.944 10.0506C400.046 5.37421 392.39 4.23672 385.111 3.47839C369.675 1.96172 354.113 1.58255 338.677 2.34088C328.009 2.84643 317.091 4.48949 309.938 12.1992C302.784 19.9089 301.906 30.9047 301.027 42.5325C300.274 52.3908 299.396 62.5019 294.501 70.5908C291.113 76.4047 285.716 80.9547 277.684 85.1255Z" fill="#282828"/>
<g opacity="0.1294">
<path d="M402.931 54.1582C402.429 54.1582 402.178 54.411 401.801 54.6638C401.299 55.0429 400.672 55.4221 400.17 55.8013C398.664 56.686 397.158 57.5707 395.526 58.329C391.761 59.9721 386.114 62.1207 381.094 63.0054C374.694 64.2693 365.909 64.3957 357.249 64.0165C351.853 63.6374 346.582 63.0054 341.185 62.4999C336.04 62.1207 330.895 61.6151 325.875 62.2471C323.741 62.4999 321.733 63.0054 319.725 63.6374C318.847 64.0165 317.843 64.0165 317.341 64.9012C316.713 66.0387 317.717 67.429 318.972 67.0498C324.369 65.0276 328.385 64.9013 334.283 65.4068C340.934 65.9124 347.335 66.6707 351.351 67.0498C355.492 67.429 359.634 67.5554 363.901 67.429C367.54 67.5554 371.18 67.5554 374.819 66.9235C379.212 66.2915 383.604 65.6596 387.745 64.1429C392.263 62.4999 396.907 60.8568 401.048 58.329C401.927 57.8235 402.68 57.1915 403.558 56.686C403.935 56.4332 404.311 56.1804 404.437 55.6749C404.311 54.9165 403.684 54.1582 402.931 54.1582Z" fill="#282828"/>
</g>
<path d="M377.582 25.7189C361.141 25.7189 344.576 25.4661 328.135 24.8342C327.759 24.8342 327.508 24.5814 327.508 24.2023C327.508 23.8231 327.759 23.5703 328.135 23.5703C349.847 24.3286 371.934 24.5814 393.646 24.3287C394.022 24.3287 394.273 24.5814 394.273 24.9606C394.273 25.3398 394.022 25.5925 393.646 25.5925C388.249 25.5925 382.853 25.7189 377.582 25.7189Z" fill="#282828"/>
<path d="M325.87 38.8629C325.493 38.8629 325.242 38.6102 325.242 38.231C325.242 37.8518 325.493 37.5991 325.87 37.5991L346.326 37.4727C346.702 37.4727 346.953 37.7254 346.953 38.1046C346.953 38.4838 346.702 38.7365 346.326 38.7365L325.87 38.8629Z" fill="#282828"/>
<path d="M357.377 38.6126C357.001 38.6126 356.75 38.3599 356.75 37.9807C356.75 37.6015 357.001 37.3487 357.377 37.3487L393.145 36.7168C393.521 36.7168 393.772 36.9696 393.772 37.3487C393.772 37.7279 393.521 37.9807 393.145 37.9807L357.377 38.6126Z" fill="#282828"/>
<path d="M216.074 127.406C215.948 127.406 215.948 127.406 215.823 127.406C215.446 127.406 215.195 127.153 215.195 126.774C215.195 126.395 215.446 126.142 215.823 126.142C215.948 126.142 215.948 126.142 216.074 126.142C223.227 126.142 229.251 124.625 233.769 121.845C239.417 118.306 242.68 112.239 242.178 106.552C242.178 106.173 242.429 105.92 242.68 105.92C243.056 105.92 243.307 106.173 243.307 106.425C243.809 112.619 240.295 119.064 234.271 122.982C229.753 125.889 223.604 127.406 216.074 127.406Z" fill="#282828"/>
<path d="M214.071 124.756C212.188 124.376 210.306 124.503 208.423 125.008C207.419 125.388 206.29 126.02 206.164 127.157C206.039 128.042 206.666 128.926 207.545 129.306C208.298 129.685 209.302 129.811 210.18 129.811C211.31 129.811 212.314 129.938 213.443 129.558C214.447 129.306 215.451 128.547 215.828 127.536C216.079 126.525 215.702 125.135 214.071 124.756Z" fill="white"/>
<path d="M211.183 130.569C210.806 130.569 210.43 130.569 210.054 130.569C209.05 130.569 208.045 130.442 207.167 129.937C206.163 129.431 205.285 128.42 205.536 127.03C205.661 125.892 206.665 125.008 208.296 124.376C210.179 123.744 212.312 123.617 214.195 123.996C215.324 124.249 215.952 124.881 216.203 125.387C216.579 126.019 216.579 126.903 216.328 127.662C215.952 128.799 214.822 129.684 213.567 130.063C212.814 130.442 212.061 130.569 211.183 130.569ZM211.685 125.134C210.555 125.134 209.551 125.26 208.548 125.64C208.046 125.766 206.791 126.271 206.665 127.283C206.54 127.915 207.167 128.546 207.669 128.799C208.296 129.178 209.175 129.178 210.054 129.305C211.057 129.305 212.187 129.431 213.065 129.052C214.069 128.799 214.822 128.167 215.073 127.409C215.199 127.03 215.199 126.524 214.948 126.145C214.697 125.766 214.32 125.513 213.818 125.387C213.191 125.134 212.438 125.134 211.685 125.134Z" fill="#282828"/>
<path d="M408.302 216.125C408.051 216.125 407.674 215.872 407.674 215.619C407.549 214.608 407.423 213.471 406.796 212.586C406.294 211.828 405.29 211.069 404.035 210.943C403.282 210.943 402.403 211.196 401.525 211.701C399.642 212.712 398.262 214.103 397.635 215.746C397.509 215.998 397.258 216.125 397.007 216.125C396.756 216.125 396.505 215.872 396.505 215.619C396.129 214.355 395.752 212.965 394.874 211.828C394.121 210.943 392.74 209.932 390.983 209.805C389.477 209.805 387.971 210.437 386.967 211.575C385.963 212.712 385.587 214.103 385.461 215.24C385.461 215.493 385.21 215.746 384.834 215.746C384.583 215.746 384.332 215.619 384.206 215.24C383.83 213.976 383.453 212.712 382.575 211.701C381.822 210.816 380.316 209.932 378.684 210.184C376.551 210.437 375.421 212.459 374.794 214.229C374.668 214.608 374.292 214.734 374.041 214.608C373.664 214.482 373.539 214.103 373.664 213.85C374.417 211.954 375.672 209.426 378.559 209.047C380.316 208.794 382.324 209.553 383.453 210.943C383.955 211.575 384.332 212.333 384.708 212.965C384.959 212.207 385.336 211.448 385.963 210.69C387.218 209.3 389.101 208.415 390.983 208.415C392.866 208.415 394.623 209.426 395.752 210.943C396.38 211.828 396.882 212.712 397.133 213.723C398.011 212.333 399.266 211.196 400.897 210.437C402.027 209.805 403.031 209.553 404.035 209.553C405.541 209.679 407.047 210.437 407.8 211.701C408.553 212.839 408.678 214.103 408.804 215.24C408.929 215.872 408.678 216.125 408.302 216.125Z" fill="#282828"/>
</svg>
