<svg width="71" height="72" fill="none" xmlns="http://www.w3.org/2000/svg"><path d="M37.668 69.472a6.156 6.156 0 01-1.647-.225L13.469 62.99a.682.682 0 11.365-1.314l22.552 6.257c1.143.317 2.356.2 3.417-.33l26.41-13.19a2.463 2.463 0 001.371-2.215c0-.71-.29-1.364-.819-1.84a2.453 2.453 0 00-1.916-.624l-23.82 2.467a.682.682 0 11-.14-1.357l23.82-2.466a3.844 3.844 0 014.242 3.82 3.82 3.82 0 01-2.127 3.435l-26.41 13.19a6.147 6.147 0 01-2.746.649z" fill="#C47A2D"/><path d="M35.744 56.193c-.48 0-.966-.059-1.447-.179l-9.888-2.469a.682.682 0 11.331-1.323l9.889 2.47a4.522 4.522 0 003.9-.827 4.51 4.51 0 001.748-3.579 4.565 4.565 0 00-3.593-4.44l-13.525-2.894a4.79 4.79 0 00-2.513.139l-6.778 2.257a.683.683 0 01-.432-1.294l6.778-2.257a6.159 6.159 0 013.23-.179l13.526 2.895c2.707.58 4.672 3.008 4.672 5.773a5.865 5.865 0 01-2.273 4.654 5.877 5.877 0 01-3.625 1.253z" fill="#C47A2D"/><path d="M13.653 69.83H2.73a.682.682 0 01-.683-.681V39.144c0-.377.306-.682.683-.682h10.923c.377 0 .682.305.682.682v30.003a.682.682 0 01-.682.682zm-10.24-1.363h9.557v-28.64H3.412v28.64zm60.759-24.551a.683.683 0 01-.483-.2l-6.627-6.62H42.326a4.782 4.782 0 01-4.78-4.773V24.14a4.781 4.781 0 014.78-4.773h21.846a4.781 4.781 0 014.779 4.773v8.183c0 2.4-1.784 4.393-4.096 4.725v6.186a.682.682 0 01-.683.682zM42.326 20.73a3.415 3.415 0 00-3.414 3.41v8.182c0 1.88 1.532 3.41 3.414 3.41h15.019c.181 0 .355.072.483.2l5.661 5.654v-5.172c0-.377.306-.682.683-.682a3.415 3.415 0 003.413-3.41V24.14c0-1.88-1.53-3.409-3.413-3.409H42.326zm-35.5 6.822a.682.682 0 01-.683-.682v-6.185a4.783 4.783 0 01-4.096-4.725V7.777a4.782 4.782 0 014.779-4.773h21.846a4.781 4.781 0 014.779 4.773v8.183a4.781 4.781 0 01-4.78 4.773H13.936l-6.627 6.62c-.13.13-.305.2-.482.2zm0-23.184a3.415 3.415 0 00-3.414 3.41v8.182c0 1.88 1.532 3.41 3.414 3.41.377 0 .682.305.682.681v5.173l5.662-5.655a.683.683 0 01.483-.2h15.019a3.415 3.415 0 003.413-3.409V7.777c0-1.88-1.53-3.41-3.413-3.41H6.826z" fill="#C47A2D"/><path d="M27.306 9.823H8.19a.682.682 0 110-1.364h19.116a.682.682 0 110 1.364zm0 5.455H8.19a.682.682 0 110-1.364h19.116a.682.682 0 110 1.364zm35.5 10.908H43.69a.682.682 0 110-1.364h19.115a.682.682 0 110 1.364zm0 5.455H43.69a.682.682 0 110-1.364h19.115a.682.682 0 110 1.364z" fill="#C47A2D"/></svg>