<svg width="74" height="56" fill="none" xmlns="http://www.w3.org/2000/svg"><g clip-path="url(#clip0_6983_79262)" fill="#C47A2D"><path d="M42.776 44.708H.696c-.277 0-.555-.167-.555-.5V.592A.582.582 0 01.697.008h64.51c.37 0 .555.25.555.584v32.941a.582.582 0 01-.556.584c-.37 0-.556-.25-.556-.584V1.092H1.346v42.532h41.43c.37 0 .556.25.556.584 0 .333-.278.5-.556.5z"/><path d="M65.206 10.933H.696c-.37 0-.555-.25-.555-.584 0-.333.278-.583.556-.583h64.51c.37 0 .555.25.555.583.093.334-.185.584-.556.584zM7.276 7.516c-1.39 0-2.503-.917-2.503-2.168 0-1.168 1.113-2.168 2.503-2.168 1.39 0 2.41 1 2.41 2.168 0 1.25-1.112 2.168-2.41 2.168zm0-3.252c-.649 0-1.205.5-1.205 1.084 0 .584.556 1.084 1.205 1.084s1.205-.5 1.205-1.084c0-.584-.556-1.084-1.205-1.084zm7.97 3.252c-1.39 0-2.41-1-2.41-2.168 0-1.168 1.112-2.168 2.41-2.168 1.297 0 2.41 1 2.41 2.168 0 1.25-1.113 2.168-2.41 2.168zm0-3.252c-.649 0-1.205.5-1.205 1.084 0 .584.556 1.084 1.205 1.084s1.205-.5 1.205-1.084c0-.584-.556-1.084-1.205-1.084zm49.962 1.661H29.43c-.37 0-.556-.25-.556-.583 0-.334.278-.584.556-.584h35.777c.37 0 .556.25.556.584.093.333-.185.583-.556.583zm6.206 49.545h-27.25c-1.112 0-2.039-.834-2.039-1.835V34.788c0-1 .927-1.835 2.04-1.835h27.249c1.112 0 2.039.834 2.039 1.835v18.847c0 1.001-.927 1.835-2.04 1.835zm-27.25-21.433c-.463 0-.834.334-.834.75v18.848c0 .417.37.751.834.751h27.25c.463 0 .834-.334.834-.75V34.787c0-.417-.37-.75-.834-.75h-27.25z"/><path d="M53.064 49.464c-.093 0-.185 0-.278-.084-.186-.083-.278-.25-.278-.5v-9.34c0-.167.092-.334.278-.5a.65.65 0 01.556 0l10.474 4.67c.185.083.37.25.37.5a.52.52 0 01-.37.5l-10.474 4.67c-.093.084-.185.084-.278.084zm.556-9.09v7.672l8.527-3.836-8.527-3.837zM30.262 17.52H7.37c-.371 0-.556-.251-.556-.585 0-.333.278-.583.556-.583h22.893c.37 0 .556.25.556.583a.582.582 0 01-.556.584zm.001 4.085H15.619c-.371 0-.556-.25-.556-.584 0-.333.278-.584.556-.584h14.644c.37 0 .556.25.556.584a.582.582 0 01-.556.584zm-7.138 4.086H7.37c-.371 0-.556-.25-.556-.584 0-.333.278-.584.556-.584h15.756c.371 0 .556.25.556.584.093.334-.185.584-.556.584zm7.137 4.008H7.37c-.371 0-.556-.25-.556-.584 0-.334.278-.584.556-.584h22.893c.37 0 .556.25.556.584a.582.582 0 01-.556.584zm-1.385-4.008h-4.079c-.37 0-.556-.25-.556-.584 0-.333.278-.584.556-.584h4.079c.37 0 .556.25.556.584a.582.582 0 01-.556.584zm-15.852-4.086H8.947c-.371 0-.556-.25-.556-.584 0-.333.278-.584.556-.584h4.078c.37 0 .556.25.556.584.093.334-.185.584-.556.584z"/></g><defs><clipPath id="clip0_6983_79262"><path fill="#fff" d="M.141.008h73.315v55.459H.141z"/></clipPath></defs></svg>