<svg width="68" height="67" fill="none" xmlns="http://www.w3.org/2000/svg"><g clip-path="url(#clip0_6983_79327)" fill="#C47A2D"><path d="M16.162 65.167h-.172L.43 61.395c-.172 0-.258-.085-.344-.257C0 60.967 0 60.795 0 60.71L14.614 1.387c.086-.257.344-.515.688-.429l15.646 3.858c.172 0 .258.086.344.257.086.086.086.257.086.429L16.764 64.824c-.086.172-.344.343-.602.343zM1.204 60.452l14.528 3.6L30.089 5.76 15.56 2.16 1.204 60.451z"/><path d="M10.235 59.338c-.344 0-.688 0-1.032-.086a4.125 4.125 0 01-2.665-1.971c-.602-.943-.774-2.143-.516-3.258.43-1.972 2.235-3.257 4.213-3.257.344 0 .687 0 1.031.085 2.321.6 3.697 2.915 3.181 5.23-.43 1.971-2.15 3.257-4.212 3.257zm0-7.458c-1.462 0-2.751 1.029-3.095 2.4-.172.858-.086 1.715.344 2.4.43.687 1.117 1.2 1.977 1.458.258.086.516.086.774.086 1.461 0 2.75-1.029 3.095-2.4a3.167 3.167 0 00-2.322-3.858c-.257-.086-.515-.086-.773-.086zm3.007-4.542c-.344 0-.687 0-1.031-.086-2.321-.6-3.697-2.914-3.181-5.229a4.312 4.312 0 014.212-3.257c.344 0 .688 0 1.032.085 2.321.6 3.697 2.915 3.18 5.23a4.312 4.312 0 01-4.212 3.257zm0-7.458c-1.461 0-2.75 1.029-3.095 2.4a3.167 3.167 0 002.322 3.858c.258.086.515.086.773.086 1.462 0 2.751-1.029 3.095-2.4a3.167 3.167 0 00-2.321-3.858c-.258-.086-.516-.086-.774-.086zm13.325-29.749h-.172l-9.542-2.4c-.258-.086-.516-.343-.43-.686.086-.257.344-.514.688-.429l9.542 2.4c.258.086.516.344.43.687-.086.257-.258.428-.516.428zm-1.89 7.631h-.172l-9.543-2.314c-.258-.086-.515-.343-.43-.686.086-.257.344-.514.688-.429l9.543 2.315c.257.086.515.343.43.686-.087.257-.259.428-.516.428zm-1.891 7.711h-.172l-9.542-2.314c-.258-.086-.516-.343-.43-.686.086-.257.344-.515.688-.429l9.542 2.315c.258.085.516.343.43.686-.086.257-.258.428-.516.428zm26.47 41.413H33.18a.587.587 0 01-.602-.6V5.334c0-.342.258-.6.602-.6h16.076c.344 0 .602.258.602.6v61.038c0 .257-.258.514-.602.514zm-15.474-1.114H48.74V5.849H33.782v59.923z"/><path d="M41.267 62.764c-2.407 0-4.298-1.972-4.298-4.286 0-2.4 1.977-4.287 4.298-4.287 2.407 0 4.298 1.972 4.298 4.287 0 2.314-1.977 4.286-4.298 4.286zm0-7.458a3.169 3.169 0 00-3.18 3.172 3.17 3.17 0 003.18 3.172 3.169 3.169 0 003.18-3.172c0-1.8-1.46-3.172-3.18-3.172zm0-4.886c-2.407 0-4.298-1.971-4.298-4.286 0-2.4 1.977-4.286 4.298-4.286 2.407 0 4.298 1.971 4.298 4.286 0 2.315-1.977 4.286-4.298 4.286zm0-7.544a3.169 3.169 0 00-3.18 3.172c0 1.8 1.46 3.172 3.18 3.172a3.169 3.169 0 003.18-3.172c0-1.714-1.46-3.172-3.18-3.172zm4.893-31.885h-9.886a.587.587 0 01-.602-.6c0-.343.258-.6.602-.6h9.886c.344 0 .602.257.602.6 0 .343-.258.6-.602.6zm0 7.881h-9.886a.587.587 0 01-.602-.6c0-.343.258-.6.602-.6h9.886c.344 0 .602.257.602.6 0 .343-.258.6-.602.6zm0 7.888h-9.886a.587.587 0 01-.602-.6c0-.342.258-.6.602-.6h9.886c.344 0 .602.258.602.6 0 .343-.258.6-.602.6zm21.322 40.126H51.321a.587.587 0 01-.602-.6V5.334c0-.342.258-.6.602-.6h16.075c.344 0 .602.258.602.6v61.038c0 .257-.258.514-.516.514zm-15.56-1.114h14.959V5.849H51.922v59.923z"/><path d="M59.408 62.764c-2.407 0-4.299-1.972-4.299-4.286 0-2.4 1.978-4.287 4.299-4.287 2.407 0 4.298 1.972 4.298 4.287 0 2.314-1.891 4.286-4.298 4.286zm0-7.458a3.169 3.169 0 00-3.181 3.172c0 1.8 1.461 3.172 3.18 3.172a3.169 3.169 0 003.182-3.172c0-1.8-1.376-3.172-3.181-3.172zm0-4.886c-2.407 0-4.299-1.971-4.299-4.286 0-2.4 1.978-4.286 4.299-4.286 2.407 0 4.298 1.971 4.298 4.286 0 2.315-1.891 4.286-4.298 4.286zm0-7.544a3.169 3.169 0 00-3.181 3.172c0 1.8 1.461 3.172 3.18 3.172a3.169 3.169 0 003.182-3.172 3.169 3.169 0 00-3.181-3.172zm4.9-31.885h-9.8a.587.587 0 01-.602-.6c0-.343.258-.6.602-.6h9.886c.344 0 .602.257.602.6 0 .343-.344.6-.688.6zm0 7.881h-9.8a.587.587 0 01-.602-.6c0-.343.258-.6.602-.6h9.886c.344 0 .602.257.602.6 0 .343-.344.6-.688.6zm0 7.888h-9.8a.587.587 0 01-.602-.6c0-.342.258-.6.602-.6h9.886c.344 0 .602.258.602.6 0 .343-.344.6-.688.6z"/></g><defs><clipPath id="clip0_6983_79327"><path fill="#fff" transform="translate(0 .957)" d="M0 0h68v65.924H0z"/></clipPath></defs></svg>