<svg width="190" height="148" fill="none" xmlns="http://www.w3.org/2000/svg"><path d="M20.403 125.796A4172.23 4172.23 0 0019.258 1.372c39.16-.47 78.78-.56 118.513-.378-.344 28.94-.309 57.892.103 86.855.24 17.181.195 35.793-9.965 49.675a22.589 22.589 0 01-4.581 4.857c-5.338 4.02-12.6 4.306-19.804 2.829-14.89-2.646-30.181-1.146-45.117-3.356a167.127 167.127 0 01-20.01-4.582c-6.7-1.867-13.721-4.02-17.994-11.476z" fill="#fff"/><path d="M110.965 147.019a38.434 38.434 0 01-7.651-.836 163.107 163.107 0 00-23.64-1.81 185.88 185.88 0 01-21.454-1.489 167.96 167.96 0 01-20.136-4.582c-6.208-1.718-13.927-3.86-18.555-11.923a.976.976 0 01-.126-.504c.24-41.234-.149-83.12-1.145-124.378a1.043 1.043 0 01.286-.721c.183-.19.434-.302.699-.31C56.503.02 95.273-.105 137.767.09a.994.994 0 01.71.297c.185.191.287.446.287.71a3323.67 3323.67 0 00.103 86.82c.218 15.922.504 35.725-10.16 50.283a23.423 23.423 0 01-4.81 5.074 21.146 21.146 0 01-12.932 3.746zM21.396 125.52c4.238 7.17 11.454 9.163 17.181 10.778a167.1 167.1 0 0019.895 4.581 186.2 186.2 0 0021.224 1.467c8.011.05 16.008.682 23.927 1.889 5.556 1.146 13.356 1.627 19.025-2.634a21.983 21.983 0 004.399-4.65c10.308-14.031 9.987-33.468 9.77-49.08a3355.84 3355.84 0 01-.115-85.904c-41.715-.183-79.833-.069-116.474.367a4052.98 4052.98 0 011.168 123.186z" fill="#282828"/><path d="M122.425 143.009a7.237 7.237 0 01-7.433-.642 14.682 14.682 0 01-4.788-6.093 41.144 41.144 0 01-3.585-15.829c-34.969-1.249-71.014-1.627-105.65-1.627 0 22.404 11.614 26.837 15.36 26.848 17.776 0 56.765.516 84.872.768 7.205.057 14.65.068 21.224-3.425z" fill="#fff"/><path d="M103.978 147.442h-2.76l-31.166-.321c-20.617-.217-41.967-.435-53.696-.446C11.775 146.675 0 141.658 0 118.83a.998.998 0 01.996-.996c40.616 0 75.184.538 105.685 1.638a.972.972 0 01.962.939 40.024 40.024 0 003.494 15.44 13.525 13.525 0 004.444 5.727 6.417 6.417 0 006.093.756l.31-.172a.997.997 0 011.44 1.156.998.998 0 01-.478.596 3.377 3.377 0 01-.401.207c-5.933 2.978-12.496 3.321-18.567 3.321zM2.038 119.815c.333 20.251 10.687 24.844 14.352 24.855 11.74 0 33.08.229 53.72.447l31.165.321c4.856 0 10.194.091 15.245-1.214a9.522 9.522 0 01-2.016-1.02 15.487 15.487 0 01-5.131-6.506 41.233 41.233 0 01-3.665-15.233c-30.01-1.146-63.959-1.638-103.704-1.65h.035z" fill="#282828"/><path d="M5.966 128.979a.327.327 0 01-.24-.103.345.345 0 010-.47l5.978-5.978a.332.332 0 01.47.469l-5.979 5.979a.32.32 0 01-.229.103zm2.32 6.975a.327.327 0 01-.24-.103.345.345 0 010-.47l12.6-12.954a.342.342 0 01.469 0 .33.33 0 010 .469l-12.6 12.955a.3.3 0 01-.103.075.303.303 0 01-.126.028zm4.724 4.26a.366.366 0 01-.23-.091.345.345 0 010-.47l17.444-17.444a.332.332 0 01.47.469L13.25 140.123a.367.367 0 01-.24.091zm10.347 1.491a.39.39 0 01-.217-.08.345.345 0 010-.47 323.197 323.197 0 0117.753-19.208.332.332 0 01.47.47c-6.14 6.128-12.096 12.599-17.72 19.162a.332.332 0 01-.286.126zm9.594.148a.328.328 0 01-.218-.091.345.345 0 010-.47l16.677-19.185a.333.333 0 01.47 0 .345.345 0 010 .47l-16.677 19.162a.361.361 0 01-.252.114zm9.379.137a.302.302 0 01-.206-.08.345.345 0 010-.47 564.307 564.307 0 0116.161-18.91.333.333 0 11.492.435 577.058 577.058 0 00-16.138 18.899.348.348 0 01-.309.126zm8.239.092a.297.297 0 01-.206-.08.332.332 0 010-.469 1146.199 1146.199 0 0116.127-19.117.33.33 0 01.228-.114.33.33 0 01.242.08.33.33 0 01.034.469 1160.325 1160.325 0 00-16.127 19.105.317.317 0 01-.298.126zm8.597.217a.363.363 0 01-.206-.068.345.345 0 010-.47l15.314-19.025a.33.33 0 01.229-.091.33.33 0 01.229.091.34.34 0 01.127.223.329.329 0 01-.07.247l-15.36 18.979a.327.327 0 01-.263.114zm8.493.332a.36.36 0 01-.218-.08.332.332 0 010-.47l16.253-18.887a.331.331 0 01.107-.076.33.33 0 01.256 0 .345.345 0 01.107.546L67.91 142.551a.365.365 0 01-.252.08zm9.036-.113a.334.334 0 01-.323-.422.33.33 0 01.06-.116 304.41 304.41 0 0116.802-18.853.325.325 0 01.237-.104.337.337 0 01.311.207.334.334 0 01-.078.366 303.69 303.69 0 00-16.757 18.807.306.306 0 01-.252.115zm8.956-.115a.307.307 0 01-.194-.069.33.33 0 010-.469 341.022 341.022 0 0116.161-19.082.333.333 0 01.47 0 .343.343 0 010 .469c-5.59 6.128-11.019 12.6-16.139 19.048a.298.298 0 01-.298.103zm7.547.136a.34.34 0 01-.218-.08.332.332 0 010-.469l9.839-10.824a.332.332 0 11.481.446l-9.828 10.824a.357.357 0 01-.274.103zm8.417.687a.346.346 0 01-.206-.068.31.31 0 01-.071-.105.317.317 0 01.071-.353 63.114 63.114 0 013.883-4.674.343.343 0 01.469 0 .335.335 0 010 .47 75.315 75.315 0 00-3.848 4.581.354.354 0 01-.298.149zM74.691 31.163H36.825a.996.996 0 010-1.993H74.69a.997.997 0 010 1.993zM64.726 54.46H36.825a.996.996 0 010-1.993h27.901a.996.996 0 110 1.993zm0 23.308H36.825a.996.996 0 010-1.993h27.901a.996.996 0 110 1.993zm9.965 23.297H36.825a.996.996 0 110-1.993H74.69a.997.997 0 010 1.993z" fill="#282828"/><path d="M143.141 98.56l20.88 20.536a136.282 136.282 0 0011.362 10.366c2.154 1.695 4.582 3.299 7.193 3.299a5.442 5.442 0 005.395-5.189c0-2.291-1.615-4.181-3.115-5.727a493.434 493.434 0 00-34.683-33.216c-2.199 3.218-4.409 6.494-7.032 9.93z" fill="#fff"/><path d="M182.569 133.745c-2.921 0-5.475-1.684-7.8-3.505a137.778 137.778 0 01-11.454-10.446l-20.88-20.537a1.005 1.005 0 01-.092-1.317c2.611-3.436 4.845-6.723 6.998-9.885a1.01 1.01 0 011.115-.389.979.979 0 01.363.206c12.003 10.4 23.698 21.591 34.751 33.216 1.626 1.718 3.367 3.769 3.436 6.437a5.899 5.899 0 01-1.775 4.204 6.714 6.714 0 01-4.662 2.016zm-38.107-35.301l20.25 19.93a139 139 0 0011.271 10.308c2.05 1.592 4.261 3.081 6.586 3.081a4.687 4.687 0 003.207-1.397 3.985 3.985 0 001.145-2.783c0-1.936-1.408-3.574-2.84-5.086a491.186 491.186 0 00-33.766-32.38 169.32 169.32 0 01-5.853 8.327z" fill="#282828"/><path d="M115.988 22.848a43.398 43.398 0 1043.387 43.398 43.373 43.373 0 00-12.703-30.686 43.387 43.387 0 00-30.684-12.712zm0 76.351a32.966 32.966 0 01-32.343-39.392 32.964 32.964 0 0165.296 6.44 32.952 32.952 0 01-32.953 32.952zm0 0a32.966 32.966 0 01-32.343-39.392 32.964 32.964 0 0165.296 6.44 32.952 32.952 0 01-32.953 32.952z" fill="#fff"/><path d="M115.985 110.63a44.4 44.4 0 01-41.025-27.4 44.395 44.395 0 1185.408-16.984 44.44 44.44 0 01-44.383 44.384zm0-86.786a42.38 42.38 0 1042.379 42.38 42.446 42.446 0 00-42.379-42.38zm0 76.352a33.967 33.967 0 01-31.401-20.944 33.96 33.96 0 1165.327-13.005 33.986 33.986 0 01-33.926 33.949zm-31.957-33.95a31.956 31.956 0 1031.957-31.967 31.99 31.99 0 00-31.957 31.967z" fill="#282828"/><path d="M148.771 99.784h-.091a.33.33 0 01-.229-.412l.767-2.669a.338.338 0 01.159-.2.327.327 0 01.253-.029.332.332 0 01.218.412l-.756 2.67a.342.342 0 01-.321.228zm3.62 4.683a.326.326 0 01-.222-.129.323.323 0 01-.064-.249 173.88 173.88 0 011.466-9.369.332.332 0 01.378-.275.344.344 0 01.275.39 198.04 198.04 0 00-1.466 9.346.33.33 0 01-.367.286zm4.73 4.537a.332.332 0 01-.332-.332c0-1.558.241-4.181.458-6.483.126-1.421.241-2.635.275-3.436a.342.342 0 01.355-.32.337.337 0 01.229.112c.028.033.05.072.064.113.014.041.02.085.016.129 0 .779-.148 2.004-.274 3.436-.218 2.291-.459 4.902-.459 6.426a.337.337 0 01-.088.25.34.34 0 01-.244.105zm4.854 4.443a.332.332 0 01-.332-.321l-.252-11.087a.353.353 0 01.332-.344.332.332 0 01.332.332l.252 11.076a.348.348 0 01-.089.239.338.338 0 01-.232.105h-.011zm4.621 4.937a.332.332 0 01-.332-.32l-.436-11.603a.348.348 0 01.089-.239.346.346 0 01.232-.105.313.313 0 01.321.19.31.31 0 01.023.131l.435 11.603a.351.351 0 01-.021.128.322.322 0 01-.174.186.318.318 0 01-.126.029h-.011zm4.699 4.136a.322.322 0 01-.332-.321l-.596-10.835a.355.355 0 01.321-.355.304.304 0 01.13.017.32.32 0 01.214.303l.595 10.836a.351.351 0 01-.091.239.36.36 0 01-.23.116h-.011zm4.648 3.814a.332.332 0 01-.332-.309l-.813-10.549a.33.33 0 01.309-.355.317.317 0 01.245.068.312.312 0 01.11.229l.813 10.561a.332.332 0 01-.309.355h-.023zm4.401 3.436a.32.32 0 01-.321-.298l-.951-9.266a.329.329 0 01.069-.237.328.328 0 01.218-.118.317.317 0 01.248.06.3.3 0 01.083.101.294.294 0 01.035.125l.951 9.267a.327.327 0 01-.174.321.337.337 0 01-.124.034l-.034.011zm4.32-.493a.349.349 0 01-.215-.085.362.362 0 01-.117-.201l-.664-4.135a.33.33 0 01.06-.245.329.329 0 01.215-.133.325.325 0 01.378.275l.676 4.135a.336.336 0 01-.06.246.336.336 0 01-.215.132l-.058.011z" fill="#282828"/><path d="M146.679 76.795c-1.145.916-1.592 2.405-2.52 3.436a44.563 44.563 0 01-3.654 4.02 52.377 52.377 0 01-3.195 2.634c-.2.036-.39.11-.561.218-5.418 3.929-9.496 5.36-16.357 6.62a26.49 26.49 0 01-12.141-.148c-3.585-.837-5.326-1.822-9.083-4.341a47.872 47.872 0 01-7.548-7.17 28.45 28.45 0 01-4.02-8.018c-.538-1.444-.95-2.944-1.374-4.422a12.427 12.427 0 01-.825-4.5c-.39-1.146-.756-2.292-1.145-3.357a2.084 2.084 0 00-1.02-.195 52.307 52.307 0 00.069 13.447c.973 3.86 2.176 8.018 5.876 12.199a38.049 38.049 0 006.31 5.475 35.427 35.427 0 009.691 5.28c1.941.506 3.922.847 5.921 1.02a22.91 22.91 0 006.552.16 28.787 28.787 0 004.994-1.146 43.202 43.202 0 009.965-3.54 24.812 24.812 0 002.29-1.534 48.635 48.635 0 009.828-8.018c.527-1.145 1.042-2.187 1.512-3.298a303.184 303.184 0 001.787-4.983 1.617 1.617 0 00-1.352.16zm7.074 14.1c-1.661-.47-2.76.675-3.573 1.935l-.115.138c-1.443 1.672-1.844 1.535-4.226 3.688a3.799 3.799 0 00-1.329 1.077 2.925 2.925 0 00.145 3.673 2.92 2.92 0 003.623.622 15.419 15.419 0 004.822-4.238 18.935 18.935 0 002.291-2.944 2.722 2.722 0 00-.569-3.365 2.722 2.722 0 00-1.069-.586z" fill="#282828" opacity=".13"/><path d="M143.141 98.56l20.88 20.536a136.282 136.282 0 0011.362 10.366c2.154 1.695 4.582 3.299 7.193 3.299a5.442 5.442 0 005.395-5.189c0-2.291-1.615-4.181-3.115-5.727a493.434 493.434 0 00-34.683-33.216c-2.199 3.218-4.409 6.494-7.032 9.93z" fill="#fff"/><path d="M182.569 133.745c-2.921 0-5.475-1.684-7.8-3.505a137.778 137.778 0 01-11.454-10.446l-20.88-20.537a1.005 1.005 0 01-.092-1.317c2.611-3.436 4.845-6.723 6.998-9.885a1.01 1.01 0 011.115-.389.979.979 0 01.363.206c12.003 10.4 23.698 21.591 34.751 33.216 1.626 1.718 3.367 3.769 3.436 6.437a5.899 5.899 0 01-1.775 4.204 6.714 6.714 0 01-4.662 2.016zm-38.107-35.301l20.25 19.93a139 139 0 0011.271 10.308c2.05 1.592 4.261 3.081 6.586 3.081a4.687 4.687 0 003.207-1.397 3.985 3.985 0 001.145-2.783c0-1.936-1.408-3.574-2.84-5.086a491.186 491.186 0 00-33.766-32.38 169.32 169.32 0 01-5.853 8.327z" fill="#282828"/><path d="M115.988 22.848a43.398 43.398 0 1043.387 43.398 43.373 43.373 0 00-12.703-30.686 43.387 43.387 0 00-30.684-12.712zm0 76.351a32.966 32.966 0 01-32.343-39.392 32.964 32.964 0 0165.296 6.44 32.952 32.952 0 01-32.953 32.952zm0 0a32.966 32.966 0 01-32.343-39.392 32.964 32.964 0 0165.296 6.44 32.952 32.952 0 01-32.953 32.952z" fill="#fff"/><path d="M115.985 110.63a44.4 44.4 0 01-41.025-27.4 44.395 44.395 0 1185.408-16.984 44.44 44.44 0 01-44.383 44.384zm0-86.786a42.38 42.38 0 1042.379 42.38 42.446 42.446 0 00-42.379-42.38zm0 76.352a33.967 33.967 0 01-31.401-20.944 33.96 33.96 0 1165.327-13.005 33.986 33.986 0 01-33.926 33.949zm-31.957-33.95a31.956 31.956 0 1031.957-31.967 31.99 31.99 0 00-31.957 31.967z" fill="#282828"/><path d="M148.771 99.784h-.091a.33.33 0 01-.229-.412l.767-2.669a.338.338 0 01.159-.2.327.327 0 01.253-.029.332.332 0 01.218.412l-.756 2.67a.342.342 0 01-.321.228zm3.62 4.683a.326.326 0 01-.222-.129.323.323 0 01-.064-.249 173.88 173.88 0 011.466-9.369.332.332 0 01.378-.275.344.344 0 01.275.39 198.04 198.04 0 00-1.466 9.346.33.33 0 01-.367.286zm4.73 4.537a.332.332 0 01-.332-.332c0-1.558.241-4.181.458-6.483.126-1.421.241-2.635.275-3.436a.342.342 0 01.355-.32.337.337 0 01.229.112c.028.033.05.072.064.113.014.041.02.085.016.129 0 .779-.148 2.004-.274 3.436-.218 2.291-.459 4.902-.459 6.426a.337.337 0 01-.088.25.34.34 0 01-.244.105zm4.854 4.443a.332.332 0 01-.332-.321l-.252-11.087a.353.353 0 01.332-.344.332.332 0 01.332.332l.252 11.076a.348.348 0 01-.089.239.338.338 0 01-.232.105h-.011zm4.621 4.937a.332.332 0 01-.332-.32l-.436-11.603a.348.348 0 01.089-.239.346.346 0 01.232-.105.313.313 0 01.321.19.31.31 0 01.023.131l.435 11.603a.351.351 0 01-.021.128.322.322 0 01-.174.186.318.318 0 01-.126.029h-.011zm4.699 4.136a.322.322 0 01-.332-.321l-.596-10.835a.355.355 0 01.321-.355.304.304 0 01.13.017.32.32 0 01.214.303l.595 10.836a.351.351 0 01-.091.239.36.36 0 01-.23.116h-.011zm4.648 3.814a.332.332 0 01-.332-.309l-.813-10.549a.33.33 0 01.309-.355.317.317 0 01.245.068.312.312 0 01.11.229l.813 10.561a.332.332 0 01-.309.355h-.023zm4.401 3.436a.32.32 0 01-.321-.298l-.951-9.266a.329.329 0 01.069-.237.328.328 0 01.218-.118.317.317 0 01.248.06.3.3 0 01.083.101.294.294 0 01.035.125l.951 9.267a.327.327 0 01-.174.321.337.337 0 01-.124.034l-.034.011zm4.32-.493a.349.349 0 01-.215-.085.362.362 0 01-.117-.201l-.664-4.135a.33.33 0 01.06-.245.329.329 0 01.215-.133.325.325 0 01.378.275l.676 4.135a.336.336 0 01-.06.246.336.336 0 01-.215.132l-.058.011z" fill="#282828"/><path d="M146.679 76.795c-1.145.916-1.592 2.405-2.52 3.436a44.563 44.563 0 01-3.654 4.02 52.377 52.377 0 01-3.195 2.634c-.2.036-.39.11-.561.218-5.418 3.929-9.496 5.36-16.357 6.62a26.49 26.49 0 01-12.141-.148c-3.585-.837-5.326-1.822-9.083-4.341a47.872 47.872 0 01-7.548-7.17 28.45 28.45 0 01-4.02-8.018c-.538-1.444-.95-2.944-1.374-4.422a12.427 12.427 0 01-.825-4.5c-.39-1.146-.756-2.292-1.145-3.357a2.084 2.084 0 00-1.02-.195 52.307 52.307 0 00.069 13.447c.973 3.86 2.176 8.018 5.876 12.199a38.049 38.049 0 006.31 5.475 35.427 35.427 0 009.691 5.28c1.941.506 3.922.847 5.921 1.02a22.91 22.91 0 006.552.16 28.787 28.787 0 004.994-1.146 43.202 43.202 0 009.965-3.54 24.812 24.812 0 002.29-1.534 48.635 48.635 0 009.828-8.018c.527-1.145 1.042-2.187 1.512-3.298a303.184 303.184 0 001.787-4.983 1.617 1.617 0 00-1.352.16zm7.074 14.1c-1.661-.47-2.76.675-3.573 1.935l-.115.138c-1.443 1.672-1.844 1.535-4.226 3.688a3.799 3.799 0 00-1.329 1.077 2.925 2.925 0 00.145 3.673 2.92 2.92 0 003.623.622 15.419 15.419 0 004.822-4.238 18.935 18.935 0 002.291-2.944 2.722 2.722 0 00-.569-3.365 2.722 2.722 0 00-1.069-.586z" fill="#282828" opacity=".13"/><path d="M109.508 43.647l12.393.114-2.852 25.485-6.781-.092-2.76-25.507z" fill="#034A66"/><path d="M119.041 70.243l-6.792-.092a.984.984 0 01-.974-.882l-2.76-25.507a.983.983 0 01.252-.78 1.002 1.002 0 01.744-.32l12.393.103a1.018 1.018 0 01.745.332 1.02 1.02 0 01.241.78l-2.852 25.484a1 1 0 01-.997.882zm-5.887-2.073l4.994.069 2.623-23.515-10.16-.092 2.543 23.538z" fill="#282828"/><path d="M117.359 75.708a4.583 4.583 0 00-4.181.618 4.292 4.292 0 001.897 7.752 4.295 4.295 0 004.723-3.067 4.39 4.39 0 00-2.439-5.303z" fill="#034A66"/><path d="M115.639 85.122a3.718 3.718 0 01-.504 0 5.395 5.395 0 01-4.719-4.868 5.493 5.493 0 012.165-4.696 5.608 5.608 0 015.096-.756 5.383 5.383 0 01-2.038 10.309v.011zm.24-8.67a3.605 3.605 0 00-2.107.675 3.435 3.435 0 00-1.375 2.956 3.332 3.332 0 001.984 2.678 3.324 3.324 0 004.374-1.751 3.327 3.327 0 00-1.776-4.364 3.539 3.539 0 00-1.1-.194z" fill="#282828"/><path d="M116.208 142.471a4.265 4.265 0 00-1.959-.814 15.864 15.864 0 00-6.586-1.248c-5.623 0-11.259.126-16.883 0-6.38-.195-12.77-.401-19.15-.55-5.246.092-10.492.069-15.727 0-5.978.103-11.946.183-17.913-.091-8.946.229-17.891-.058-26.837.103a2.498 2.498 0 000 4.994c10.996 0 22.003.389 33.01.538 7.651-.092 15.291-.275 22.908-.309 8.018-.184 15.92.217 23.893.297 1.649 0 3.31 0 4.97-.091a1.694 1.694 0 00.528 1.374c.698.71 1.729.516 2.634.55a85.402 85.402 0 0010.95-.504c1.042-.137 2.291.138 3.081-.699.13-.121.241-.26.332-.412a4.368 4.368 0 001.581.126c.257-.022.506-.1.729-.229.224-.128.417-.304.565-.515a1.984 1.984 0 00-.126-2.52zm18.385-36.87c-.824 1.054-3.539 1.913-3.848 2.085a41.309 41.309 0 01-15.199 2.829 40.473 40.473 0 01-11.317-1.959 51.134 51.134 0 01-14.122-7.491c-4.868-4.111-6.873-6.505-8.705-9.46a31.7 31.7 0 01-1.718-2.967 2.383 2.383 0 00-1.455-1.489 1.878 1.878 0 00-2.13 2.68v.126a23.558 23.558 0 002.554 4.65 48.205 48.205 0 002.99 4.422c1.97 2.749 7.559 6.792 8.693 7.513a39.82 39.82 0 009.987 5.727l-.572-.24a30.824 30.824 0 006.929 2.29c2.95.602 5.94.985 8.946 1.146a46.949 46.949 0 0017.994-3.62 11.908 11.908 0 004.581-2.6 2.564 2.564 0 00-3.608-3.642z" fill="#282828" opacity=".13"/></svg>