<svg width="190" height="148" viewBox="0 0 190 148" fill="none" xmlns="http://www.w3.org/2000/svg">
<path d="M20.4032 125.796C20.6399 84.3174 20.2581 42.8429 19.2578 1.37236C58.4185 0.902752 98.0374 0.81112 137.771 0.994381C137.427 29.9345 137.462 58.886 137.874 87.849C138.114 105.03 138.069 123.642 127.909 137.524C126.631 139.361 125.087 140.998 123.328 142.381C117.99 146.401 110.728 146.687 103.524 145.21C88.6338 142.564 73.3429 144.064 58.4071 141.854C51.6495 140.738 44.9669 139.208 38.3972 137.272C31.6967 135.405 24.6755 133.252 20.4032 125.796Z" fill="white"/>
<path d="M110.965 147.019C108.393 146.997 105.83 146.717 103.314 146.183C95.4882 145.007 87.5871 144.402 79.6734 144.373C72.4996 144.291 65.3366 143.794 58.2203 142.884C51.4207 141.771 44.6961 140.241 38.0845 138.302C31.8765 136.584 24.1566 134.442 19.5292 126.379C19.4423 126.225 19.3988 126.051 19.4032 125.875C19.6437 84.641 19.2543 42.7543 18.2578 1.49749C18.2568 1.22906 18.3594 0.970583 18.5442 0.775899C18.7275 0.585115 18.9784 0.47404 19.2429 0.466644C56.5022 0.0199436 95.2735 -0.106051 137.767 0.0886647C137.9 0.0887137 138.03 0.115071 138.152 0.166198C138.274 0.217325 138.385 0.292203 138.477 0.386467C138.662 0.576978 138.764 0.831676 138.764 1.09661C138.42 29.9031 138.455 59.1104 138.867 87.9168C139.085 103.838 139.371 123.641 128.707 138.199C127.366 140.122 125.745 141.832 123.897 143.273C120.109 145.897 115.569 147.213 110.965 147.019ZM21.3962 125.52C25.6341 132.69 32.85 134.683 38.577 136.298C45.1092 138.229 51.7533 139.759 58.4723 140.879C65.5133 141.772 72.5995 142.262 79.6963 142.346C87.7072 142.396 95.7039 143.028 103.623 144.235C109.179 145.381 116.979 145.862 122.648 141.601C124.334 140.274 125.815 138.707 127.047 136.951C137.355 122.92 137.034 103.483 136.817 87.871C136.416 59.3738 136.37 30.4872 136.702 1.9671C94.9872 1.78383 56.8688 1.89838 20.2279 2.33362C21.2473 43.2239 21.6253 84.6525 21.3962 125.52Z" fill="#282828"/>
<path d="M122.425 143.009C121.245 143.587 119.929 143.833 118.62 143.72C117.31 143.607 116.056 143.139 114.992 142.367C112.879 140.802 111.226 138.697 110.204 136.274C107.97 131.288 106.751 125.907 106.619 120.445C71.6505 119.196 35.6052 118.818 0.96875 118.818C0.96875 141.222 12.583 145.655 16.3284 145.666C34.1048 145.666 73.0937 146.182 101.201 146.434C108.406 146.491 115.851 146.502 122.425 143.009Z" fill="white"/>
<path d="M103.978 147.442H101.218L70.0518 147.121C49.4348 146.904 28.0849 146.686 16.3561 146.675C11.7746 146.675 0 141.658 0 118.83C0 118.7 0.0257773 118.57 0.0758554 118.449C0.125933 118.328 0.199333 118.218 0.291865 118.126C0.384397 118.033 0.49425 117.96 0.615149 117.91C0.736048 117.86 0.865628 117.834 0.996489 117.834C41.6119 117.834 76.1796 118.372 106.681 119.472C106.932 119.475 107.171 119.574 107.35 119.749C107.53 119.924 107.635 120.161 107.643 120.411C107.768 125.739 108.956 130.988 111.137 135.851C112.07 138.129 113.606 140.109 115.581 141.578C116.452 142.203 117.467 142.6 118.531 142.732C119.596 142.864 120.676 142.727 121.674 142.334L121.984 142.162C122.216 142.034 122.49 142.004 122.744 142.078C122.999 142.153 123.213 142.325 123.341 142.557C123.468 142.79 123.498 143.063 123.424 143.318C123.35 143.572 123.178 143.787 122.946 143.914C122.817 143.992 122.683 144.061 122.545 144.121C116.612 147.099 110.049 147.442 103.978 147.442ZM2.03879 119.815C2.37095 140.066 12.7252 144.659 16.3905 144.67C28.1307 144.67 49.4692 144.899 70.1091 145.117L101.275 145.438C106.131 145.438 111.469 145.529 116.52 144.224C115.81 143.965 115.133 143.623 114.504 143.204C112.235 141.542 110.461 139.293 109.373 136.698C107.189 131.902 105.945 126.73 105.708 121.465C75.6985 120.319 41.7493 119.827 2.00442 119.815H2.03879Z" fill="#282828"/>
<path d="M5.96609 128.979C5.9211 128.979 5.87658 128.97 5.83524 128.952C5.79389 128.935 5.75657 128.909 5.72555 128.876C5.66596 128.812 5.63281 128.728 5.63281 128.641C5.63281 128.554 5.66596 128.47 5.72555 128.406L11.7045 122.428C11.7672 122.368 11.8509 122.335 11.9376 122.336C12.0243 122.337 12.1071 122.372 12.1684 122.433C12.2297 122.495 12.2646 122.577 12.2657 122.664C12.2667 122.751 12.2339 122.834 12.1741 122.897L6.19516 128.876C6.16588 128.908 6.1305 128.933 6.09113 128.951C6.05177 128.969 6.00924 128.978 5.96609 128.979Z" fill="#282828"/>
<path d="M8.2864 135.954C8.24141 135.954 8.1969 135.945 8.15555 135.927C8.11421 135.909 8.07689 135.883 8.04587 135.851C7.98628 135.787 7.95312 135.703 7.95312 135.616C7.95312 135.529 7.98628 135.445 8.04587 135.381L20.6451 122.427C20.7088 122.367 20.7927 122.334 20.8799 122.334C20.9671 122.334 21.051 122.367 21.1147 122.427C21.177 122.489 21.2119 122.573 21.2119 122.662C21.2119 122.75 21.177 122.834 21.1147 122.896L8.51547 135.851C8.48662 135.883 8.45133 135.909 8.41188 135.926C8.37242 135.944 8.32967 135.954 8.2864 135.954Z" fill="#282828"/>
<path d="M13.0093 140.214C12.9247 140.211 12.8437 140.179 12.7802 140.123C12.7206 140.059 12.6875 139.975 12.6875 139.888C12.6875 139.801 12.7206 139.717 12.7802 139.653L30.2245 122.209C30.2872 122.149 30.3709 122.116 30.4576 122.117C30.5443 122.118 30.6271 122.153 30.6884 122.214C30.7497 122.276 30.7846 122.359 30.7857 122.445C30.7867 122.532 30.7539 122.616 30.6941 122.678L13.2498 140.123C13.1834 140.181 13.0979 140.214 13.0093 140.214Z" fill="#282828"/>
<path d="M23.3572 141.705C23.2782 141.701 23.2023 141.673 23.1396 141.625C23.08 141.561 23.0469 141.477 23.0469 141.39C23.0469 141.303 23.08 141.219 23.1396 141.155C28.7635 134.546 34.7424 128.086 40.8931 121.947C40.9559 121.887 41.0395 121.854 41.1262 121.855C41.2129 121.857 41.2957 121.891 41.357 121.953C41.4183 122.014 41.4532 122.097 41.4543 122.184C41.4554 122.27 41.4225 122.354 41.3627 122.417C35.2234 128.545 29.2674 135.016 23.6436 141.579C23.6099 141.622 23.5661 141.656 23.5162 141.678C23.4662 141.7 23.4116 141.709 23.3572 141.705Z" fill="#282828"/>
<path d="M32.951 141.853C32.8697 141.851 32.7922 141.818 32.7334 141.762C32.6738 141.698 32.6406 141.614 32.6406 141.527C32.6406 141.44 32.6738 141.356 32.7334 141.292L49.4102 122.107C49.4725 122.045 49.5569 122.01 49.645 122.01C49.733 122.01 49.8175 122.045 49.8798 122.107C49.9394 122.171 49.9725 122.255 49.9725 122.342C49.9725 122.429 49.9394 122.513 49.8798 122.577L33.203 141.739C33.1372 141.809 33.0467 141.85 32.951 141.853Z" fill="#282828"/>
<path d="M42.3302 141.99C42.2537 141.99 42.1799 141.962 42.124 141.91C42.0644 141.846 42.0312 141.762 42.0312 141.675C42.0312 141.588 42.0644 141.504 42.124 141.44C47.347 135.049 52.7875 128.68 58.2854 122.53C58.3114 122.49 58.3458 122.456 58.3861 122.43C58.4264 122.405 58.4718 122.388 58.519 122.382C58.5663 122.376 58.6144 122.379 58.66 122.393C58.7057 122.407 58.7478 122.431 58.7836 122.462C58.8193 122.494 58.8478 122.533 58.8672 122.576C58.8865 122.62 58.8963 122.667 58.8957 122.715C58.8952 122.762 58.8844 122.81 58.8641 122.853C58.8437 122.896 58.8143 122.934 58.7779 122.965C53.2915 129.116 47.8624 135.472 42.6394 141.864C42.6028 141.909 42.5552 141.945 42.5011 141.967C42.447 141.989 42.3882 141.997 42.3302 141.99Z" fill="#282828"/>
<path d="M50.569 142.082C50.4925 142.083 50.4187 142.054 50.3628 142.002C50.3006 141.94 50.2656 141.855 50.2656 141.767C50.2656 141.679 50.3006 141.595 50.3628 141.533C55.6316 135.141 61.0607 128.716 66.4899 122.416C66.5476 122.349 66.6295 122.308 66.7176 122.302C66.8056 122.295 66.8927 122.324 66.9595 122.382C67.0263 122.439 67.0675 122.521 67.0739 122.609C67.0804 122.697 67.0516 122.785 66.9938 122.851C61.5647 129.14 56.147 135.565 50.8668 141.956C50.8328 142.002 50.7873 142.038 50.735 142.06C50.6826 142.082 50.6254 142.09 50.569 142.082Z" fill="#282828"/>
<path d="M59.1661 142.299C59.092 142.298 59.0201 142.274 58.9599 142.231C58.9003 142.167 58.8672 142.083 58.8672 141.996C58.8672 141.909 58.9003 141.825 58.9599 141.761L74.2737 122.736C74.3355 122.677 74.4175 122.645 74.5028 122.645C74.5881 122.645 74.6701 122.677 74.7319 122.736C74.7667 122.763 74.7959 122.797 74.8177 122.835C74.8395 122.873 74.8534 122.915 74.8588 122.959C74.8641 123.003 74.8607 123.047 74.8487 123.089C74.8368 123.132 74.8165 123.171 74.7892 123.206L59.4295 142.185C59.397 142.222 59.3564 142.252 59.3108 142.272C59.2652 142.292 59.2158 142.301 59.1661 142.299Z" fill="#282828"/>
<path d="M67.6586 142.631C67.5793 142.629 67.5029 142.601 67.441 142.551C67.3787 142.489 67.3438 142.404 67.3438 142.316C67.3438 142.228 67.3787 142.144 67.441 142.081L83.694 123.194C83.724 123.162 83.7603 123.136 83.8007 123.118C83.8411 123.101 83.8847 123.092 83.9288 123.092C83.9729 123.092 84.0165 123.101 84.0569 123.118C84.0973 123.136 84.1336 123.162 84.1636 123.194C84.2232 123.258 84.2563 123.342 84.2563 123.429C84.2563 123.516 84.2232 123.6 84.1636 123.664L67.9106 142.551C67.8395 142.608 67.7496 142.637 67.6586 142.631Z" fill="#282828"/>
<path d="M76.6949 142.518C76.6202 142.52 76.5473 142.495 76.4887 142.449C76.4538 142.422 76.4247 142.389 76.4029 142.351C76.3811 142.312 76.3671 142.27 76.3618 142.226C76.3565 142.183 76.3599 142.138 76.3718 142.096C76.3838 142.054 76.404 142.014 76.4314 141.98C81.746 135.497 87.3928 129.151 93.2342 123.127C93.2648 123.094 93.3014 123.069 93.342 123.051C93.3827 123.033 93.4264 123.024 93.4707 123.023C93.515 123.023 93.559 123.031 93.6 123.048C93.641 123.065 93.6783 123.089 93.7096 123.121C93.741 123.152 93.7657 123.189 93.7824 123.23C93.7991 123.271 93.8074 123.315 93.8069 123.36C93.8064 123.404 93.797 123.448 93.7793 123.488C93.7616 123.529 93.7359 123.566 93.7038 123.596C87.8853 129.598 82.25 135.932 76.9468 142.403C76.9166 142.441 76.8781 142.471 76.8344 142.49C76.7906 142.51 76.7429 142.52 76.6949 142.518Z" fill="#282828"/>
<path d="M85.6513 142.403C85.5804 142.403 85.5117 142.379 85.4566 142.334C85.3943 142.272 85.3594 142.188 85.3594 142.1C85.3594 142.012 85.3943 141.927 85.4566 141.865C90.5765 135.348 96.017 128.922 101.618 122.783C101.68 122.721 101.765 122.686 101.853 122.686C101.941 122.686 102.025 122.721 102.088 122.783C102.147 122.846 102.18 122.93 102.18 123.018C102.18 123.105 102.147 123.189 102.088 123.252C96.4981 129.38 91.069 135.852 85.9491 142.3C85.9141 142.343 85.8676 142.376 85.815 142.394C85.7623 142.413 85.7056 142.416 85.6513 142.403Z" fill="#282828"/>
<path d="M93.1977 142.539C93.118 142.539 93.0411 142.51 92.98 142.459C92.9178 142.397 92.8828 142.312 92.8828 142.224C92.8828 142.136 92.9178 142.052 92.98 141.99L102.819 131.166C102.846 131.126 102.881 131.093 102.922 131.068C102.963 131.043 103.009 131.027 103.056 131.022C103.104 131.016 103.152 131.021 103.198 131.036C103.243 131.051 103.285 131.076 103.32 131.108C103.355 131.141 103.383 131.181 103.401 131.225C103.419 131.269 103.428 131.317 103.426 131.365C103.424 131.413 103.412 131.46 103.39 131.502C103.368 131.545 103.338 131.583 103.3 131.612L93.4725 142.436C93.4367 142.472 93.3937 142.5 93.3463 142.518C93.2988 142.535 93.2482 142.543 93.1977 142.539Z" fill="#282828"/>
<path d="M101.615 143.226C101.541 143.226 101.468 143.202 101.409 143.158C101.378 143.128 101.354 143.092 101.338 143.053C101.321 143.013 101.312 142.971 101.312 142.929C101.312 142.886 101.321 142.844 101.338 142.804C101.354 142.765 101.378 142.729 101.409 142.7C102.623 141.085 103.929 139.515 105.292 138.026C105.355 137.967 105.439 137.934 105.526 137.934C105.614 137.934 105.698 137.967 105.761 138.026C105.823 138.089 105.858 138.173 105.858 138.261C105.858 138.349 105.823 138.434 105.761 138.496C104.41 139.973 103.115 141.531 101.913 143.077C101.879 143.125 101.834 143.163 101.782 143.189C101.73 143.215 101.673 143.228 101.615 143.226Z" fill="#282828"/>
<path d="M74.6911 31.1629H36.8246C36.5603 31.1629 36.3069 31.0579 36.12 30.871C35.9331 30.6842 35.8281 30.4307 35.8281 30.1664C35.8281 29.9021 35.9331 29.6487 36.12 29.4618C36.3069 29.2749 36.5603 29.1699 36.8246 29.1699H74.6911C74.9553 29.1699 75.2088 29.2749 75.3957 29.4618C75.5826 29.6487 75.6875 29.9021 75.6875 30.1664C75.6875 30.4307 75.5826 30.6842 75.3957 30.871C75.2088 31.0579 74.9553 31.1629 74.6911 31.1629Z" fill="#282828"/>
<path d="M64.7262 54.4598H36.8246C36.5603 54.4598 36.3069 54.3548 36.12 54.1679C35.9331 53.981 35.8281 53.7276 35.8281 53.4633C35.8281 53.199 35.9331 52.9455 36.12 52.7587C36.3069 52.5718 36.5603 52.4668 36.8246 52.4668H64.7262C64.9905 52.4668 65.244 52.5718 65.4308 52.7587C65.6177 52.9455 65.7227 53.199 65.7227 53.4633C65.7227 53.7276 65.6177 53.981 65.4308 54.1679C65.244 54.3548 64.9905 54.4598 64.7262 54.4598Z" fill="#282828"/>
<path d="M64.7262 77.7684H36.8246C36.5603 77.7684 36.3069 77.6634 36.12 77.4765C35.9331 77.2896 35.8281 77.0362 35.8281 76.7719C35.8281 76.5076 35.9331 76.2541 36.12 76.0673C36.3069 75.8804 36.5603 75.7754 36.8246 75.7754H64.7262C64.9905 75.7754 65.244 75.8804 65.4308 76.0673C65.6177 76.2541 65.7227 76.5076 65.7227 76.7719C65.7227 77.0362 65.6177 77.2896 65.4308 77.4765C65.244 77.6634 64.9905 77.7684 64.7262 77.7684Z" fill="#282828"/>
<path d="M74.6911 101.065H36.8246C36.5603 101.065 36.3069 100.96 36.12 100.773C35.9331 100.586 35.8281 100.333 35.8281 100.069C35.8281 99.8045 35.9331 99.551 36.12 99.3641C36.3069 99.1773 36.5603 99.0723 36.8246 99.0723H74.6911C74.9553 99.0723 75.2088 99.1773 75.3957 99.3641C75.5826 99.551 75.6875 99.8045 75.6875 100.069C75.6875 100.333 75.5826 100.586 75.3957 100.773C75.2088 100.96 74.9553 101.065 74.6911 101.065Z" fill="#282828"/>
<path d="M143.141 98.5594L164.021 119.096C167.61 122.763 171.404 126.223 175.383 129.462C177.537 131.157 179.965 132.761 182.576 132.761C183.969 132.75 185.304 132.207 186.308 131.241C187.311 130.276 187.907 128.963 187.971 127.572C187.971 125.281 186.356 123.391 184.856 121.845C173.784 110.162 162.223 99.0901 150.173 88.6289C147.974 91.8474 145.764 95.1232 143.141 98.5594Z" fill="white"/>
<path d="M182.569 133.745C179.648 133.745 177.094 132.061 174.769 130.24C170.758 126.976 166.934 123.488 163.315 119.794L142.435 99.2572C142.263 99.0854 142.16 98.8577 142.143 98.6157C142.126 98.3738 142.197 98.1339 142.343 97.94C144.954 94.5039 147.188 91.2166 149.341 88.0554C149.422 87.9399 149.525 87.8425 149.646 87.7695C149.766 87.6965 149.9 87.6495 150.04 87.6316C150.179 87.613 150.321 87.6249 150.456 87.6664C150.59 87.7079 150.714 87.7781 150.819 87.8721C162.822 98.2722 174.517 109.463 185.57 121.088C187.196 122.806 188.937 124.857 189.006 127.525C189.004 128.309 188.846 129.084 188.541 129.806C188.236 130.527 187.791 131.181 187.231 131.729C186.001 132.986 184.327 133.709 182.569 133.745ZM144.462 98.444L164.712 118.374C168.277 122.014 172.04 125.455 175.983 128.682C178.033 130.274 180.244 131.763 182.569 131.763C183.778 131.729 184.927 131.228 185.776 130.366C186.507 129.623 186.918 128.624 186.921 127.583C186.921 125.647 185.513 124.009 184.081 122.497C173.326 111.158 161.975 100.265 150.315 90.1171C148.528 92.8316 146.627 95.5462 144.462 98.444Z" fill="#282828"/>
<path d="M115.988 22.8477C107.404 22.8454 99.0125 25.3888 91.8741 30.1561C84.7358 34.9234 79.1715 41.7006 75.885 49.6304C72.5985 57.5603 71.7374 66.2867 73.4106 74.7059C75.0839 83.1252 79.2163 90.8592 85.2853 96.9297C91.3542 103 99.0871 107.135 107.506 108.81C115.925 110.486 124.651 109.627 132.582 106.343C140.513 103.058 147.291 97.4956 152.061 90.3585C156.83 83.2214 159.375 74.8302 159.375 66.2463C159.377 60.5477 158.256 54.9045 156.076 49.6392C153.896 44.3739 150.701 39.5896 146.672 35.5595C142.643 31.5294 137.859 28.3325 132.594 26.1514C127.33 23.9703 121.687 22.8477 115.988 22.8477ZM115.988 99.199C109.468 99.2013 103.093 97.2696 97.67 93.6484C92.2473 90.0271 88.0205 84.8789 85.5241 78.855C83.0277 72.8311 82.3739 66.2022 83.6455 59.8067C84.917 53.4112 88.0568 47.5365 92.6676 42.9257C97.2784 38.3148 103.153 35.1751 109.549 33.9035C115.944 32.6319 122.573 33.2857 128.597 35.7821C134.621 38.2785 139.769 42.5054 143.39 47.9281C147.012 53.3508 148.943 59.7256 148.941 66.2463C148.941 74.9859 145.469 83.3676 139.289 89.5474C133.11 95.7273 124.728 99.199 115.988 99.199ZM115.988 99.199C109.468 99.2013 103.093 97.2696 97.67 93.6484C92.2473 90.0271 88.0205 84.8789 85.5241 78.855C83.0277 72.8311 82.3739 66.2022 83.6455 59.8067C84.917 53.4112 88.0568 47.5365 92.6676 42.9257C97.2784 38.3148 103.153 35.1751 109.549 33.9035C115.944 32.6319 122.573 33.2857 128.597 35.7821C134.621 38.2785 139.769 42.5054 143.39 47.9281C147.012 53.3508 148.943 59.7256 148.941 66.2463C148.941 74.9859 145.469 83.3676 139.289 89.5474C133.11 95.7273 124.728 99.199 115.988 99.199Z" fill="white"/>
<path d="M115.985 110.63C107.203 110.632 98.6183 108.03 91.3158 103.153C84.0133 98.2757 78.3213 91.3422 74.9597 83.2296C71.5981 75.117 70.718 66.1896 72.4306 57.5768C74.1433 48.9639 78.3717 41.0524 84.5812 34.8429C90.7906 28.6334 98.7021 24.405 107.315 22.6923C115.928 20.9797 124.855 21.8599 132.968 25.2214C141.08 28.583 148.014 34.275 152.891 41.5775C157.769 48.88 160.371 57.465 160.368 66.2465C160.353 78.0131 155.672 89.2935 147.352 97.6137C139.032 105.934 127.751 110.615 115.985 110.63ZM115.985 23.8443C107.603 23.8443 99.4093 26.3298 92.4401 30.9865C85.4708 35.6432 80.039 42.2619 76.8314 50.0057C73.6238 57.7495 72.7846 66.2706 74.4198 74.4913C76.055 82.7121 80.0912 90.2634 86.0181 96.1902C91.9449 102.117 99.4962 106.153 107.717 107.789C115.938 109.424 124.459 108.584 132.203 105.377C139.946 102.169 146.565 96.7374 151.222 89.7682C155.879 82.799 158.364 74.6054 158.364 66.2236C158.346 54.9895 153.875 44.2207 145.931 36.277C137.988 28.3332 127.219 23.8625 115.985 23.8443ZM115.985 100.196C109.266 100.202 102.696 98.2162 97.1066 94.4882C91.5171 90.7602 87.1589 85.458 84.5836 79.2524C82.0082 73.0468 81.3315 66.2168 82.6389 59.6265C83.9463 53.0362 87.1792 46.9818 91.9284 42.2293C96.6777 37.4768 102.73 34.2399 109.319 32.928C115.909 31.6161 122.739 32.2883 128.947 34.8594C135.154 37.4306 140.459 41.7852 144.191 47.3722C147.923 52.9593 149.913 59.5277 149.911 66.2465C149.902 75.2436 146.325 83.87 139.966 90.2341C133.606 96.5982 124.982 100.181 115.985 100.196ZM84.0285 66.2465C84.0307 72.5663 85.9069 78.7436 89.4197 83.9973C92.9324 89.251 97.9241 93.3451 103.764 95.762C109.603 98.179 116.028 98.8102 122.226 97.5758C128.424 96.3415 134.117 93.2971 138.585 88.8275C143.053 84.3578 146.096 78.6638 147.328 72.4652C148.56 66.2666 147.926 59.8418 145.507 54.0032C143.088 48.1647 138.992 43.1745 133.737 39.6636C128.483 36.1527 122.305 34.2787 115.985 34.2787C107.51 34.2878 99.3856 37.6592 93.3943 43.6526C87.4029 49.6461 84.0345 57.7719 84.0285 66.2465Z" fill="#282828"/>
<path d="M148.771 99.7843H148.68C148.638 99.7724 148.598 99.7523 148.564 99.7251C148.529 99.6979 148.501 99.6642 148.479 99.6258C148.458 99.5875 148.445 99.5453 148.44 99.5017C148.435 99.4582 148.438 99.414 148.451 99.3719L149.218 96.7032C149.23 96.661 149.25 96.6215 149.277 96.5871C149.304 96.5527 149.338 96.524 149.377 96.5027C149.415 96.4814 149.457 96.4679 149.501 96.463C149.544 96.4581 149.588 96.4619 149.63 96.4741C149.714 96.5005 149.783 96.5585 149.824 96.6357C149.864 96.7128 149.873 96.8029 149.848 96.8864L149.092 99.5552C149.069 99.6217 149.025 99.6793 148.968 99.7203C148.91 99.7613 148.842 99.7836 148.771 99.7843Z" fill="#282828"/>
<path d="M152.391 104.467C152.348 104.462 152.305 104.447 152.267 104.425C152.229 104.403 152.196 104.374 152.169 104.338C152.142 104.303 152.123 104.263 152.112 104.22C152.101 104.178 152.099 104.133 152.105 104.089C152.506 100.974 152.999 97.8126 153.571 94.7201C153.585 94.6337 153.633 94.5564 153.704 94.5049C153.774 94.4535 153.863 94.432 153.949 94.4452C154.036 94.462 154.114 94.5119 154.165 94.5845C154.216 94.6571 154.238 94.7468 154.224 94.8346C153.663 97.9272 153.17 101.066 152.758 104.181C152.747 104.267 152.702 104.345 152.633 104.399C152.565 104.453 152.478 104.477 152.391 104.467Z" fill="#282828"/>
<path d="M157.121 109.004C157.033 109.004 156.949 108.969 156.886 108.906C156.824 108.844 156.789 108.76 156.789 108.672C156.789 107.114 157.03 104.491 157.247 102.189C157.373 100.768 157.488 99.5543 157.522 98.7526C157.528 98.6634 157.568 98.5801 157.635 98.5203C157.701 98.4604 157.788 98.4287 157.877 98.4319C157.921 98.4348 157.963 98.4463 158.003 98.4657C158.042 98.4851 158.077 98.5121 158.106 98.5451C158.134 98.5781 158.156 98.6165 158.17 98.658C158.184 98.6995 158.19 98.7433 158.186 98.7869C158.186 99.5658 158.038 100.791 157.912 102.223C157.694 104.514 157.453 107.125 157.453 108.649C157.457 108.694 157.45 108.74 157.435 108.783C157.42 108.826 157.396 108.865 157.365 108.899C157.333 108.932 157.296 108.958 157.254 108.976C157.212 108.995 157.167 109.004 157.121 109.004Z" fill="#282828"/>
<path d="M161.975 113.447C161.889 113.447 161.806 113.414 161.744 113.354C161.682 113.294 161.646 113.212 161.643 113.126L161.391 102.039C161.393 101.951 161.429 101.866 161.49 101.803C161.552 101.739 161.635 101.701 161.723 101.695C161.811 101.695 161.895 101.73 161.958 101.793C162.02 101.855 162.055 101.939 162.055 102.027L162.307 113.103C162.308 113.147 162.301 113.19 162.286 113.231C162.271 113.272 162.248 113.31 162.218 113.342C162.188 113.374 162.152 113.399 162.112 113.417C162.073 113.435 162.03 113.445 161.986 113.447H161.975Z" fill="#282828"/>
<path d="M166.596 118.384C166.51 118.384 166.427 118.351 166.365 118.291C166.303 118.231 166.267 118.15 166.264 118.064L165.828 106.461C165.827 106.417 165.834 106.374 165.849 106.333C165.864 106.292 165.888 106.254 165.917 106.222C165.947 106.191 165.983 106.165 166.023 106.147C166.062 106.129 166.105 106.119 166.149 106.117C166.193 106.112 166.238 106.117 166.281 106.131C166.323 106.145 166.362 106.168 166.395 106.198C166.427 106.229 166.453 106.266 166.47 106.307C166.487 106.349 166.495 106.393 166.493 106.438L166.928 118.041C166.929 118.084 166.922 118.128 166.907 118.169C166.892 118.21 166.869 118.247 166.839 118.279C166.809 118.311 166.773 118.337 166.733 118.355C166.694 118.373 166.651 118.383 166.607 118.384H166.596Z" fill="#282828"/>
<path d="M171.295 122.52C171.252 122.521 171.209 122.514 171.169 122.499C171.128 122.483 171.092 122.46 171.061 122.43C171.03 122.4 171.005 122.364 170.988 122.324C170.971 122.285 170.963 122.242 170.963 122.199L170.367 111.364C170.367 111.275 170.399 111.19 170.459 111.124C170.518 111.058 170.6 111.017 170.688 111.009C170.732 111.005 170.776 111.011 170.818 111.026C170.859 111.041 170.897 111.064 170.93 111.094C170.962 111.124 170.988 111.161 171.005 111.201C171.023 111.242 171.032 111.285 171.032 111.329L171.627 122.165C171.628 122.253 171.595 122.339 171.536 122.404C171.476 122.47 171.394 122.511 171.306 122.52H171.295Z" fill="#282828"/>
<path d="M175.943 126.334C175.859 126.334 175.778 126.302 175.716 126.245C175.654 126.187 175.617 126.109 175.611 126.025L174.798 115.476C174.795 115.432 174.8 115.388 174.814 115.347C174.828 115.305 174.85 115.267 174.879 115.234C174.907 115.201 174.942 115.174 174.981 115.154C175.021 115.135 175.063 115.124 175.107 115.121C175.15 115.114 175.195 115.117 175.237 115.129C175.279 115.141 175.318 115.161 175.352 115.189C175.385 115.218 175.412 115.253 175.431 115.292C175.45 115.332 175.461 115.375 175.462 115.418L176.275 125.979C176.278 126.023 176.273 126.066 176.259 126.108C176.245 126.149 176.223 126.188 176.194 126.221C176.166 126.254 176.131 126.281 176.092 126.3C176.052 126.32 176.01 126.331 175.966 126.334H175.943Z" fill="#282828"/>
<path d="M180.344 129.77C180.262 129.77 180.184 129.74 180.125 129.684C180.065 129.629 180.029 129.553 180.023 129.472L179.072 120.206C179.068 120.164 179.071 120.121 179.083 120.081C179.095 120.04 179.115 120.002 179.141 119.969C179.168 119.936 179.201 119.908 179.238 119.888C179.276 119.868 179.316 119.855 179.359 119.851C179.402 119.843 179.446 119.844 179.489 119.854C179.532 119.865 179.572 119.884 179.607 119.911C179.642 119.938 179.67 119.973 179.69 120.012C179.711 120.051 179.723 120.094 179.725 120.137L180.676 129.404C180.681 129.447 180.677 129.49 180.664 129.532C180.651 129.573 180.631 129.612 180.603 129.645C180.575 129.678 180.541 129.705 180.502 129.725C180.463 129.744 180.421 129.756 180.378 129.759L180.344 129.77Z" fill="#282828"/>
<path d="M184.664 129.277C184.585 129.274 184.509 129.244 184.449 129.192C184.389 129.14 184.348 129.069 184.332 128.991L183.668 124.856C183.655 124.77 183.676 124.682 183.728 124.611C183.779 124.54 183.856 124.492 183.943 124.478C183.986 124.47 184.03 124.471 184.073 124.48C184.115 124.49 184.156 124.508 184.191 124.534C184.227 124.56 184.256 124.592 184.279 124.63C184.301 124.668 184.315 124.71 184.321 124.753L184.997 128.888C185.01 128.975 184.988 129.063 184.937 129.134C184.885 129.204 184.808 129.252 184.722 129.266L184.664 129.277Z" fill="#282828"/>
<g opacity="0.13">
<path d="M146.679 76.7946C145.534 77.711 145.087 79.2 144.159 80.2308C143.024 81.6437 141.804 82.9863 140.505 84.2511C139.417 85.2247 138.375 86.0723 137.31 86.8855C137.11 86.9206 136.92 86.9945 136.749 87.1031C131.331 91.0318 127.253 92.4635 120.392 93.7234C116.389 94.6148 112.232 94.5638 108.251 93.5746C104.666 92.7384 102.925 91.7534 99.1685 89.2335C96.3993 87.125 93.8683 84.7207 91.6204 82.0634C89.8648 79.6202 88.5078 76.914 87.6001 74.0457C87.0617 72.6025 86.6494 71.1021 86.2256 69.6245C85.6744 68.1881 85.3948 66.6617 85.4009 65.1232C85.0115 63.9778 84.645 62.8324 84.2555 61.7672C83.9376 61.6174 83.5869 61.5504 83.2361 61.5725C82.6804 66.039 82.7035 70.5586 83.3049 75.0193C84.2785 78.8792 85.4811 83.037 89.1807 87.2177C91.077 89.2688 93.1935 91.1048 95.4918 92.6926C98.4261 94.948 101.696 96.7297 105.182 97.9728C107.123 98.4791 109.104 98.8201 111.103 98.9922C113.268 99.3604 115.475 99.4144 117.655 99.1526C119.35 98.92 121.022 98.5367 122.649 98.0072C126.103 97.2399 129.45 96.0513 132.614 94.4679C133.405 93.9991 134.17 93.4867 134.904 92.9331C138.516 90.701 141.82 88.0055 144.732 84.9154C145.259 83.77 145.774 82.7277 146.244 81.6167C146.855 79.9597 147.45 78.2989 148.031 76.6343C147.807 76.561 147.571 76.5374 147.337 76.5651C147.104 76.5928 146.879 76.6712 146.679 76.7946Z" fill="#282828"/>
</g>
<g opacity="0.13">
<path d="M153.753 90.8947C152.092 90.4251 150.993 91.5705 150.18 92.8304L150.065 92.9678C148.622 94.6401 148.221 94.5026 145.839 96.656C145.32 96.9093 144.865 97.2775 144.51 97.7326C144.11 98.2689 143.906 98.9264 143.932 99.595C143.958 100.264 144.214 100.903 144.655 101.406C145.096 101.909 145.697 102.245 146.357 102.359C147.016 102.472 147.695 102.355 148.278 102.028C150.165 100.969 151.808 99.5253 153.1 97.7899C153.959 96.8863 154.726 95.9004 155.391 94.8463C155.592 94.4869 155.708 94.0868 155.732 93.6759C155.756 93.265 155.687 92.854 155.529 92.4738C155.371 92.0936 155.13 91.7541 154.822 91.4806C154.515 91.2071 154.149 91.0068 153.753 90.8947Z" fill="#282828"/>
</g>
<path d="M143.141 98.5594L164.021 119.096C167.61 122.763 171.404 126.223 175.383 129.462C177.537 131.157 179.965 132.761 182.576 132.761C183.969 132.75 185.304 132.207 186.308 131.241C187.311 130.276 187.907 128.963 187.971 127.572C187.971 125.281 186.356 123.391 184.856 121.845C173.784 110.162 162.223 99.0901 150.173 88.6289C147.974 91.8474 145.764 95.1232 143.141 98.5594Z" fill="white"/>
<path d="M182.569 133.745C179.648 133.745 177.094 132.061 174.769 130.24C170.758 126.976 166.934 123.488 163.315 119.794L142.435 99.2572C142.263 99.0854 142.16 98.8577 142.143 98.6157C142.126 98.3738 142.197 98.1339 142.343 97.94C144.954 94.5039 147.188 91.2166 149.341 88.0554C149.422 87.9399 149.525 87.8425 149.646 87.7695C149.766 87.6965 149.9 87.6495 150.04 87.6316C150.179 87.613 150.321 87.6249 150.456 87.6664C150.59 87.7079 150.714 87.7781 150.819 87.8721C162.822 98.2722 174.517 109.463 185.57 121.088C187.196 122.806 188.937 124.857 189.006 127.525C189.004 128.309 188.846 129.084 188.541 129.806C188.236 130.527 187.791 131.181 187.231 131.729C186.001 132.986 184.327 133.709 182.569 133.745ZM144.462 98.444L164.712 118.374C168.277 122.014 172.04 125.455 175.983 128.682C178.033 130.274 180.244 131.763 182.569 131.763C183.778 131.729 184.927 131.228 185.776 130.366C186.507 129.623 186.918 128.624 186.921 127.583C186.921 125.647 185.513 124.009 184.081 122.497C173.326 111.158 161.975 100.265 150.315 90.1171C148.528 92.8316 146.627 95.5462 144.462 98.444Z" fill="#282828"/>
<path d="M115.988 22.8477C107.404 22.8454 99.0125 25.3888 91.8741 30.1561C84.7358 34.9234 79.1715 41.7006 75.885 49.6304C72.5985 57.5603 71.7374 66.2867 73.4106 74.7059C75.0839 83.1252 79.2163 90.8592 85.2853 96.9297C91.3542 103 99.0871 107.135 107.506 108.81C115.925 110.486 124.651 109.627 132.582 106.343C140.513 103.058 147.291 97.4956 152.061 90.3585C156.83 83.2214 159.375 74.8302 159.375 66.2463C159.377 60.5477 158.256 54.9045 156.076 49.6392C153.896 44.3739 150.701 39.5896 146.672 35.5595C142.643 31.5294 137.859 28.3325 132.594 26.1514C127.33 23.9703 121.687 22.8477 115.988 22.8477ZM115.988 99.199C109.468 99.2013 103.093 97.2696 97.67 93.6484C92.2473 90.0271 88.0205 84.8789 85.5241 78.855C83.0277 72.8311 82.3739 66.2022 83.6455 59.8067C84.917 53.4112 88.0568 47.5365 92.6676 42.9257C97.2784 38.3148 103.153 35.1751 109.549 33.9035C115.944 32.6319 122.573 33.2857 128.597 35.7821C134.621 38.2785 139.769 42.5054 143.39 47.9281C147.012 53.3508 148.943 59.7256 148.941 66.2463C148.941 74.9859 145.469 83.3676 139.289 89.5474C133.11 95.7273 124.728 99.199 115.988 99.199ZM115.988 99.199C109.468 99.2013 103.093 97.2696 97.67 93.6484C92.2473 90.0271 88.0205 84.8789 85.5241 78.855C83.0277 72.8311 82.3739 66.2022 83.6455 59.8067C84.917 53.4112 88.0568 47.5365 92.6676 42.9257C97.2784 38.3148 103.153 35.1751 109.549 33.9035C115.944 32.6319 122.573 33.2857 128.597 35.7821C134.621 38.2785 139.769 42.5054 143.39 47.9281C147.012 53.3508 148.943 59.7256 148.941 66.2463C148.941 74.9859 145.469 83.3676 139.289 89.5474C133.11 95.7273 124.728 99.199 115.988 99.199Z" fill="white"/>
<path d="M115.985 110.63C107.203 110.632 98.6183 108.03 91.3158 103.153C84.0133 98.2757 78.3213 91.3422 74.9597 83.2296C71.5981 75.117 70.718 66.1896 72.4306 57.5768C74.1433 48.9639 78.3717 41.0524 84.5812 34.8429C90.7906 28.6334 98.7021 24.405 107.315 22.6923C115.928 20.9797 124.855 21.8599 132.968 25.2214C141.08 28.583 148.014 34.275 152.891 41.5775C157.769 48.88 160.371 57.465 160.368 66.2465C160.353 78.0131 155.672 89.2935 147.352 97.6137C139.032 105.934 127.751 110.615 115.985 110.63ZM115.985 23.8443C107.603 23.8443 99.4093 26.3298 92.4401 30.9865C85.4708 35.6432 80.039 42.2619 76.8314 50.0057C73.6238 57.7495 72.7846 66.2706 74.4198 74.4913C76.055 82.7121 80.0912 90.2634 86.0181 96.1902C91.9449 102.117 99.4962 106.153 107.717 107.789C115.938 109.424 124.459 108.584 132.203 105.377C139.946 102.169 146.565 96.7374 151.222 89.7682C155.879 82.799 158.364 74.6054 158.364 66.2236C158.346 54.9895 153.875 44.2207 145.931 36.277C137.988 28.3332 127.219 23.8625 115.985 23.8443ZM115.985 100.196C109.266 100.202 102.696 98.2162 97.1066 94.4882C91.5171 90.7602 87.1589 85.458 84.5836 79.2524C82.0082 73.0468 81.3315 66.2168 82.6389 59.6265C83.9463 53.0362 87.1792 46.9818 91.9284 42.2293C96.6777 37.4768 102.73 34.2399 109.319 32.928C115.909 31.6161 122.739 32.2883 128.947 34.8594C135.154 37.4306 140.459 41.7852 144.191 47.3722C147.923 52.9593 149.913 59.5277 149.911 66.2465C149.902 75.2436 146.325 83.87 139.966 90.2341C133.606 96.5982 124.982 100.181 115.985 100.196ZM84.0285 66.2465C84.0307 72.5663 85.9069 78.7436 89.4197 83.9973C92.9324 89.251 97.9241 93.3451 103.764 95.762C109.603 98.179 116.028 98.8102 122.226 97.5758C128.424 96.3415 134.117 93.2971 138.585 88.8275C143.053 84.3578 146.096 78.6638 147.328 72.4652C148.56 66.2666 147.926 59.8418 145.507 54.0032C143.088 48.1647 138.992 43.1745 133.737 39.6636C128.483 36.1527 122.305 34.2787 115.985 34.2787C107.51 34.2878 99.3856 37.6592 93.3943 43.6526C87.4029 49.6461 84.0345 57.7719 84.0285 66.2465Z" fill="#282828"/>
<path d="M148.771 99.7843H148.68C148.638 99.7724 148.598 99.7523 148.564 99.7251C148.529 99.6979 148.501 99.6642 148.479 99.6258C148.458 99.5875 148.445 99.5453 148.44 99.5017C148.435 99.4582 148.438 99.414 148.451 99.3719L149.218 96.7032C149.23 96.661 149.25 96.6215 149.277 96.5871C149.304 96.5527 149.338 96.524 149.377 96.5027C149.415 96.4814 149.457 96.4679 149.501 96.463C149.544 96.4581 149.588 96.4619 149.63 96.4741C149.714 96.5005 149.783 96.5585 149.824 96.6357C149.864 96.7128 149.873 96.8029 149.848 96.8864L149.092 99.5552C149.069 99.6217 149.025 99.6793 148.968 99.7203C148.91 99.7613 148.842 99.7836 148.771 99.7843Z" fill="#282828"/>
<path d="M152.391 104.467C152.348 104.462 152.305 104.447 152.267 104.425C152.229 104.403 152.196 104.374 152.169 104.338C152.142 104.303 152.123 104.263 152.112 104.22C152.101 104.178 152.099 104.133 152.105 104.089C152.506 100.974 152.999 97.8126 153.571 94.7201C153.585 94.6337 153.633 94.5564 153.704 94.5049C153.774 94.4535 153.863 94.432 153.949 94.4452C154.036 94.462 154.114 94.5119 154.165 94.5845C154.216 94.6571 154.238 94.7468 154.224 94.8346C153.663 97.9272 153.17 101.066 152.758 104.181C152.747 104.267 152.702 104.345 152.633 104.399C152.565 104.453 152.478 104.477 152.391 104.467Z" fill="#282828"/>
<path d="M157.121 109.004C157.033 109.004 156.949 108.969 156.886 108.906C156.824 108.844 156.789 108.76 156.789 108.672C156.789 107.114 157.03 104.491 157.247 102.189C157.373 100.768 157.488 99.5543 157.522 98.7526C157.528 98.6634 157.568 98.5801 157.635 98.5203C157.701 98.4604 157.788 98.4287 157.877 98.4319C157.921 98.4348 157.963 98.4463 158.003 98.4657C158.042 98.4851 158.077 98.5121 158.106 98.5451C158.134 98.5781 158.156 98.6165 158.17 98.658C158.184 98.6995 158.19 98.7433 158.186 98.7869C158.186 99.5658 158.038 100.791 157.912 102.223C157.694 104.514 157.453 107.125 157.453 108.649C157.457 108.694 157.45 108.74 157.435 108.783C157.42 108.826 157.396 108.865 157.365 108.899C157.333 108.932 157.296 108.958 157.254 108.976C157.212 108.995 157.167 109.004 157.121 109.004Z" fill="#282828"/>
<path d="M161.975 113.447C161.889 113.447 161.806 113.414 161.744 113.354C161.682 113.294 161.646 113.212 161.643 113.126L161.391 102.039C161.393 101.951 161.429 101.866 161.49 101.803C161.552 101.739 161.635 101.701 161.723 101.695C161.811 101.695 161.895 101.73 161.958 101.793C162.02 101.855 162.055 101.939 162.055 102.027L162.307 113.103C162.308 113.147 162.301 113.19 162.286 113.231C162.271 113.272 162.248 113.31 162.218 113.342C162.188 113.374 162.152 113.399 162.112 113.417C162.073 113.435 162.03 113.445 161.986 113.447H161.975Z" fill="#282828"/>
<path d="M166.596 118.384C166.51 118.384 166.427 118.351 166.365 118.291C166.303 118.231 166.267 118.15 166.264 118.064L165.828 106.461C165.827 106.417 165.834 106.374 165.849 106.333C165.864 106.292 165.888 106.254 165.917 106.222C165.947 106.191 165.983 106.165 166.023 106.147C166.062 106.129 166.105 106.119 166.149 106.117C166.193 106.112 166.238 106.117 166.281 106.131C166.323 106.145 166.362 106.168 166.395 106.198C166.427 106.229 166.453 106.266 166.47 106.307C166.487 106.349 166.495 106.393 166.493 106.438L166.928 118.041C166.929 118.084 166.922 118.128 166.907 118.169C166.892 118.21 166.869 118.247 166.839 118.279C166.809 118.311 166.773 118.337 166.733 118.355C166.694 118.373 166.651 118.383 166.607 118.384H166.596Z" fill="#282828"/>
<path d="M171.295 122.52C171.252 122.521 171.209 122.514 171.169 122.499C171.128 122.483 171.092 122.46 171.061 122.43C171.03 122.4 171.005 122.364 170.988 122.324C170.971 122.285 170.963 122.242 170.963 122.199L170.367 111.364C170.367 111.275 170.399 111.19 170.459 111.124C170.518 111.058 170.6 111.017 170.688 111.009C170.732 111.005 170.776 111.011 170.818 111.026C170.859 111.041 170.897 111.064 170.93 111.094C170.962 111.124 170.988 111.161 171.005 111.201C171.023 111.242 171.032 111.285 171.032 111.329L171.627 122.165C171.628 122.253 171.595 122.339 171.536 122.404C171.476 122.47 171.394 122.511 171.306 122.52H171.295Z" fill="#282828"/>
<path d="M175.943 126.334C175.859 126.334 175.778 126.302 175.716 126.245C175.654 126.187 175.617 126.109 175.611 126.025L174.798 115.476C174.795 115.432 174.8 115.388 174.814 115.347C174.828 115.305 174.85 115.267 174.879 115.234C174.907 115.201 174.942 115.174 174.981 115.154C175.021 115.135 175.063 115.124 175.107 115.121C175.15 115.114 175.195 115.117 175.237 115.129C175.279 115.141 175.318 115.161 175.352 115.189C175.385 115.218 175.412 115.253 175.431 115.292C175.45 115.332 175.461 115.375 175.462 115.418L176.275 125.979C176.278 126.023 176.273 126.066 176.259 126.108C176.245 126.149 176.223 126.188 176.194 126.221C176.166 126.254 176.131 126.281 176.092 126.3C176.052 126.32 176.01 126.331 175.966 126.334H175.943Z" fill="#282828"/>
<path d="M180.344 129.77C180.262 129.77 180.184 129.74 180.125 129.684C180.065 129.629 180.029 129.553 180.023 129.472L179.072 120.206C179.068 120.164 179.071 120.121 179.083 120.081C179.095 120.04 179.115 120.002 179.141 119.969C179.168 119.936 179.201 119.908 179.238 119.888C179.276 119.868 179.316 119.855 179.359 119.851C179.402 119.843 179.446 119.844 179.489 119.854C179.532 119.865 179.572 119.884 179.607 119.911C179.642 119.938 179.67 119.973 179.69 120.012C179.711 120.051 179.723 120.094 179.725 120.137L180.676 129.404C180.681 129.447 180.677 129.49 180.664 129.532C180.651 129.573 180.631 129.612 180.603 129.645C180.575 129.678 180.541 129.705 180.502 129.725C180.463 129.744 180.421 129.756 180.378 129.759L180.344 129.77Z" fill="#282828"/>
<path d="M184.664 129.277C184.585 129.274 184.509 129.244 184.449 129.192C184.389 129.14 184.348 129.069 184.332 128.991L183.668 124.856C183.655 124.77 183.676 124.682 183.728 124.611C183.779 124.54 183.856 124.492 183.943 124.478C183.986 124.47 184.03 124.471 184.073 124.48C184.115 124.49 184.156 124.508 184.191 124.534C184.227 124.56 184.256 124.592 184.279 124.63C184.301 124.668 184.315 124.71 184.321 124.753L184.997 128.888C185.01 128.975 184.988 129.063 184.937 129.134C184.885 129.204 184.808 129.252 184.722 129.266L184.664 129.277Z" fill="#282828"/>
<g opacity="0.13">
<path d="M146.679 76.7946C145.534 77.711 145.087 79.2 144.159 80.2308C143.024 81.6437 141.804 82.9863 140.505 84.2511C139.417 85.2247 138.375 86.0723 137.31 86.8855C137.11 86.9206 136.92 86.9945 136.749 87.1031C131.331 91.0318 127.253 92.4635 120.392 93.7234C116.389 94.6148 112.232 94.5638 108.251 93.5746C104.666 92.7384 102.925 91.7534 99.1685 89.2335C96.3993 87.125 93.8683 84.7207 91.6204 82.0634C89.8648 79.6202 88.5078 76.914 87.6001 74.0457C87.0617 72.6025 86.6494 71.1021 86.2256 69.6245C85.6744 68.1881 85.3948 66.6617 85.4009 65.1232C85.0115 63.9778 84.645 62.8324 84.2555 61.7672C83.9376 61.6174 83.5869 61.5504 83.2361 61.5725C82.6804 66.039 82.7035 70.5586 83.3049 75.0193C84.2785 78.8792 85.4811 83.037 89.1807 87.2177C91.077 89.2688 93.1935 91.1048 95.4918 92.6926C98.4261 94.948 101.696 96.7297 105.182 97.9728C107.123 98.4791 109.104 98.8201 111.103 98.9922C113.268 99.3604 115.475 99.4144 117.655 99.1526C119.35 98.92 121.022 98.5367 122.649 98.0072C126.103 97.2399 129.45 96.0513 132.614 94.4679C133.405 93.9991 134.17 93.4867 134.904 92.9331C138.516 90.701 141.82 88.0055 144.732 84.9154C145.259 83.77 145.774 82.7277 146.244 81.6167C146.855 79.9597 147.45 78.2989 148.031 76.6343C147.807 76.561 147.571 76.5374 147.337 76.5651C147.104 76.5928 146.879 76.6712 146.679 76.7946Z" fill="#282828"/>
</g>
<g opacity="0.13">
<path d="M153.753 90.8947C152.092 90.4251 150.993 91.5705 150.18 92.8304L150.065 92.9678C148.622 94.6401 148.221 94.5026 145.839 96.656C145.32 96.9093 144.865 97.2775 144.51 97.7326C144.11 98.2689 143.906 98.9264 143.932 99.595C143.958 100.264 144.214 100.903 144.655 101.406C145.096 101.909 145.697 102.245 146.357 102.359C147.016 102.472 147.695 102.355 148.278 102.028C150.165 100.969 151.808 99.5253 153.1 97.7899C153.959 96.8863 154.726 95.9004 155.391 94.8463C155.592 94.4869 155.708 94.0868 155.732 93.6759C155.756 93.265 155.687 92.854 155.529 92.4738C155.371 92.0936 155.13 91.7541 154.822 91.4806C154.515 91.2071 154.149 91.0068 153.753 90.8947Z" fill="#282828"/>
</g>
<path d="M109.508 43.6465L121.901 43.761L119.049 69.2459L112.268 69.1542L109.508 43.6465Z" fill="#034A66"/>
<path d="M119.041 70.243L112.249 70.1514C112.007 70.1499 111.773 70.0591 111.594 69.8964C111.414 69.7337 111.301 69.5105 111.275 69.2694L108.515 43.7617C108.498 43.6214 108.512 43.479 108.555 43.3445C108.599 43.21 108.671 43.0866 108.767 42.9828C108.862 42.8808 108.977 42.7996 109.106 42.7443C109.234 42.6891 109.372 42.6611 109.511 42.6621L121.904 42.7652C122.045 42.7664 122.183 42.7965 122.311 42.8536C122.44 42.9108 122.554 42.9938 122.649 43.0974C122.741 43.2033 122.81 43.3273 122.852 43.4614C122.893 43.5955 122.906 43.7368 122.89 43.8762L120.038 69.3611C120.009 69.605 119.892 69.83 119.708 69.9928C119.524 70.1555 119.287 70.2446 119.041 70.243ZM113.154 68.1699L118.148 68.2386L120.771 44.7238L110.611 44.6322L113.154 68.1699Z" fill="#282828"/>
<path d="M117.359 75.7079C116.663 75.4678 115.92 75.3987 115.193 75.5064C114.465 75.614 113.774 75.8953 113.178 76.3264C112.619 76.7243 112.164 77.2502 111.851 77.86C111.537 78.4698 111.374 79.1458 111.375 79.8315C111.376 80.5173 111.541 81.1928 111.857 81.8016C112.173 82.4104 112.629 82.9347 113.189 83.3308C113.749 83.7269 114.395 83.9833 115.075 84.0784C115.754 84.1735 116.446 84.1046 117.093 83.8775C117.74 83.6503 118.323 83.2716 118.794 82.7729C119.264 82.2743 119.609 81.6701 119.798 81.0111C120.113 79.9818 120.038 78.8727 119.589 77.8948C119.139 76.917 118.345 76.1387 117.359 75.7079Z" fill="#034A66"/>
<path d="M115.639 85.1222C115.471 85.1336 115.303 85.1336 115.135 85.1222C113.91 84.9727 112.774 84.408 111.915 83.5221C111.056 82.6363 110.527 81.483 110.416 80.2543C110.363 79.3539 110.533 78.4543 110.91 77.6352C111.288 76.8161 111.861 76.1027 112.581 75.5582C113.308 75.0343 114.15 74.6923 115.037 74.5607C115.924 74.4292 116.829 74.512 117.677 74.8023C118.798 75.2956 119.716 76.1559 120.282 77.2414C120.848 78.3269 121.026 79.5727 120.789 80.7735C120.551 81.9742 119.912 83.0582 118.976 83.8467C118.039 84.6351 116.862 85.081 115.639 85.1107V85.1222ZM115.879 76.4516C115.123 76.4505 114.386 76.6869 113.772 77.1274C113.316 77.4677 112.952 77.9158 112.712 78.4316C112.472 78.9474 112.364 79.5146 112.397 80.0825C112.463 80.6641 112.681 81.2181 113.029 81.6884C113.377 82.1587 113.844 82.5285 114.381 82.7606C114.919 82.9926 115.508 83.0785 116.089 83.0096C116.67 82.9408 117.223 82.7196 117.691 82.3684C118.159 82.0172 118.526 81.5486 118.755 81.0099C118.984 80.4712 119.067 79.8816 118.994 79.3008C118.922 78.72 118.697 78.1686 118.344 77.7025C117.99 77.2363 117.519 76.872 116.979 76.6463C116.625 76.5236 116.254 76.4579 115.879 76.4516Z" fill="#282828"/>
<g opacity="0.13">
<path d="M116.208 142.471C115.634 142.039 114.96 141.759 114.249 141.657C112.168 140.777 109.923 140.351 107.663 140.409C102.04 140.409 96.4042 140.535 90.7804 140.409C84.4006 140.214 78.0094 140.008 71.6296 139.859C66.3837 139.951 61.1378 139.928 55.9034 139.859C49.9245 139.962 43.957 140.042 37.9896 139.768C29.0441 139.997 20.0987 139.71 11.1532 139.871C10.491 139.871 9.85585 140.134 9.38758 140.602C8.91932 141.07 8.65625 141.705 8.65625 142.368C8.65625 143.03 8.91932 143.665 9.38758 144.133C9.85585 144.601 10.491 144.865 11.1532 144.865C22.1489 144.865 33.156 145.254 44.1632 145.403C51.8144 145.311 59.4541 145.128 67.0709 145.094C75.0886 144.91 82.9918 145.311 90.9637 145.391C92.613 145.391 94.2738 145.391 95.9346 145.3C95.9135 145.554 95.9499 145.809 96.0411 146.047C96.1323 146.285 96.276 146.499 96.4615 146.674C97.1602 147.384 98.191 147.19 99.0959 147.224C102.753 147.291 106.41 147.122 110.046 146.72C111.088 146.583 112.337 146.858 113.127 146.021C113.257 145.9 113.368 145.761 113.459 145.609C113.974 145.747 114.51 145.79 115.04 145.735C115.297 145.713 115.546 145.635 115.769 145.506C115.993 145.378 116.186 145.202 116.334 144.991C116.609 144.621 116.747 144.168 116.724 143.708C116.701 143.248 116.518 142.811 116.208 142.471Z" fill="#282828"/>
</g>
<g opacity="0.13">
<path d="M134.593 105.601C133.769 106.655 131.054 107.514 130.745 107.686C125.902 109.577 120.745 110.537 115.546 110.515C111.7 110.403 107.889 109.744 104.229 108.556C99.1581 106.815 94.3924 104.287 90.1066 101.065C85.2387 96.9535 83.2343 94.5596 81.4016 91.6045C80.7759 90.6474 80.2023 89.6571 79.6836 88.638C79.5696 88.2959 79.3794 87.9841 79.1275 87.7262C78.8755 87.4682 78.5683 87.2709 78.2289 87.149C77.8785 87.0605 77.51 87.075 77.1676 87.1907C76.8252 87.3064 76.5235 87.5185 76.2986 87.8014C76.0737 88.0843 75.9352 88.4261 75.8997 88.7858C75.8642 89.1455 75.9332 89.5077 76.0985 89.8292V89.9551C76.7721 91.5965 77.6289 93.1564 78.6527 94.6054C79.5668 96.1332 80.5648 97.6092 81.6422 99.0266C83.6122 101.776 89.2017 105.819 90.3357 106.54C93.3701 108.923 96.7345 110.852 100.323 112.267L99.7507 112.027C101.962 113.062 104.288 113.831 106.68 114.317C109.63 114.919 112.62 115.302 115.626 115.463C121.803 115.452 127.918 114.222 133.62 111.843C135.322 111.329 136.887 110.441 138.201 109.243C138.684 108.765 138.957 108.114 138.961 107.434C138.964 106.755 138.697 106.101 138.218 105.618C137.74 105.135 137.089 104.862 136.409 104.859C135.73 104.856 135.076 105.123 134.593 105.601Z" fill="#282828"/>
</g>
</svg>
