<svg width="206" height="169" fill="none" xmlns="http://www.w3.org/2000/svg"><path d="M.623 168.439h204.111V12.321H.624v156.118z" fill="#fff"/><path d="M204.732 169.001H.585a.588.588 0 01-.585-.585V12.333a.585.585 0 01.585-.597h204.147a.578.578 0 01.418.176.598.598 0 01.167.421v156.119a.585.585 0 01-.585.549zM1.206 167.807h202.953V12.918H1.206v154.889z" fill="#282828"/><path d="M204.736 26.54H.625v4.69h204.111v-4.69z" fill="#282828" opacity=".13"/><path d="M.623 26.266h204.111V12.322H.624v13.944z" fill="#F9B974"/><path d="M204.732 26.862H.585A.585.585 0 010 26.277V12.333a.585.585 0 01.585-.597h204.147a.578.578 0 01.418.176.598.598 0 01.167.421v13.944a.585.585 0 01-.585.585zM1.206 25.74h202.953V12.918H1.206V25.74z" fill="#282828"/><path d="M154.866 19.89a.583.583 0 01-.585-.586V.597a.597.597 0 011.194 0v18.707a.584.584 0 01-.609.585zm-99.851 0a.585.585 0 01-.585-.586V.597a.597.597 0 111.194 0v18.707a.584.584 0 01-.61.585z" fill="#282828"/><path d="M42.607 52.66h-20.45v16.475h20.45V52.66z" fill="#fff"/><path d="M42.618 69.72H22.155a.585.585 0 01-.585-.586V52.66a.585.585 0 01.585-.585h20.463a.584.584 0 01.585.585v16.475a.585.585 0 01-.585.585zM22.74 68.524h19.28V53.196H22.74v15.33z" fill="#282828"/><path d="M77.458 52.66h-20.45v16.475h20.45V52.66z" fill="#fff"/><path d="M77.457 69.72h-20.45a.585.585 0 01-.585-.586V52.66a.585.585 0 01.585-.585h20.45a.585.585 0 01.585.585v16.475a.585.585 0 01-.585.585zm-19.865-1.195h19.304V53.196H57.592v15.33z" fill="#282828"/><path d="M112.318 52.66h-20.45v16.475h20.45V52.66z" fill="#fff"/><path d="M112.317 69.72h-20.45a.585.585 0 01-.586-.586V52.66a.585.585 0 01.585-.585h20.451a.582.582 0 01.585.585v16.475a.584.584 0 01-.585.585zm-19.866-1.195h19.281V53.196H92.415l.036 15.33z" fill="#282828"/><path d="M148.333 52.66h-20.45v16.475h20.45V52.66z" fill="#fff"/><path d="M148.332 69.72h-20.45a.587.587 0 01-.585-.586V52.66a.588.588 0 01.585-.585h20.45a.572.572 0 01.585.585v16.475a.563.563 0 01-.167.418.576.576 0 01-.418.167zm-19.865-1.195h19.28V53.197h-19.28v15.328z" fill="#282828"/><path d="M183.193 52.66h-20.451v16.475h20.451V52.66z" fill="#fff"/><path d="M183.144 69.721h-20.403a.583.583 0 01-.585-.585V52.661a.584.584 0 01.585-.585h20.403a.587.587 0 01.585.585v16.475a.588.588 0 01-.585.585zm-19.866-1.194h19.281V53.198h-19.233l-.048 15.33z" fill="#282828"/><path d="M42.607 87.89h-20.45v16.476h20.45V87.891z" fill="#fff"/><path d="M42.618 104.95H22.155a.582.582 0 01-.417-.168.576.576 0 01-.168-.417V87.89a.585.585 0 01.585-.585h20.463a.585.585 0 01.585.585v16.475a.569.569 0 01-.36.543.582.582 0 01-.225.042zm-19.878-1.194h19.28V88.475H22.74v15.281z" fill="#282828"/><path d="M77.458 87.89h-20.45v16.476h20.45V87.891z" fill="#fff"/><path d="M77.457 104.95h-20.45a.582.582 0 01-.417-.168.578.578 0 01-.168-.417V87.89a.585.585 0 01.585-.585h20.45a.585.585 0 01.586.585v16.475a.569.569 0 01-.36.543.582.582 0 01-.226.042zm-19.865-1.194h19.304V88.475H57.592v15.281z" fill="#282828"/><path d="M112.318 87.89h-20.45v16.476h20.45V87.891z" fill="#fff"/><path d="M112.317 104.95h-20.45a.582.582 0 01-.544-.36.567.567 0 01-.042-.225V87.89a.585.585 0 01.585-.585h20.451a.583.583 0 01.585.585v16.475a.574.574 0 01-.585.585zm-19.866-1.194h19.281V88.475H92.415l.036 15.281z" fill="#282828"/><path d="M148.333 87.89h-20.45v16.476h20.45V87.891z" fill="#fff"/><path d="M148.333 104.95h-20.451a.57.57 0 01-.544-.359.566.566 0 01-.041-.226V87.89a.588.588 0 01.585-.585h20.451a.569.569 0 01.543.359.582.582 0 01.042.226v16.475a.585.585 0 01-.168.417.574.574 0 01-.417.168zm-19.866-1.194h19.28V88.475h-19.28v15.281z" fill="#282828"/><path d="M183.193 87.89h-20.451v16.476h20.451V87.891z" fill="#fff"/><path d="M183.144 104.95h-20.403a.577.577 0 01-.585-.585V87.89a.584.584 0 01.585-.585h20.403a.587.587 0 01.585.585v16.475a.558.558 0 01-.168.417.585.585 0 01-.417.168zm-19.865-1.194h19.28V88.475h-19.233l-.047 15.281z" fill="#282828"/><path d="M42.607 123.133h-20.45v16.475h20.45v-16.475z" fill="#fff"/><path d="M42.618 140.192H22.155a.588.588 0 01-.585-.585v-16.475a.587.587 0 01.585-.585h20.463a.587.587 0 01.585.585v16.475a.587.587 0 01-.585.585zm-19.878-1.194h19.28v-15.281H22.74v15.281z" fill="#282828"/><path d="M77.458 123.133h-20.45v16.475h20.45v-16.475z" fill="#fff"/><path d="M77.457 140.192h-20.45a.588.588 0 01-.585-.585v-16.475a.587.587 0 01.585-.585h20.45a.588.588 0 01.585.585v16.475a.587.587 0 01-.585.585zm-19.865-1.194h19.304v-15.281H57.592v15.281z" fill="#282828"/><path d="M112.318 123.133h-20.45v16.475h20.45v-16.475z" fill="#fff"/><path d="M112.317 140.192h-20.45a.588.588 0 01-.586-.585v-16.475a.587.587 0 01.585-.585h20.451a.585.585 0 01.585.585v16.475a.586.586 0 01-.585.585zm-19.866-1.194h19.281v-15.281H92.415l.036 15.281z" fill="#282828"/><path d="M148.333 123.133h-20.45v16.475h20.45v-16.475z" fill="#fff"/><path d="M148.332 140.192h-20.45a.59.59 0 01-.414-.171.59.59 0 01-.171-.414v-16.475a.59.59 0 01.171-.414.59.59 0 01.414-.171h20.45a.563.563 0 01.418.168.583.583 0 01.167.417v16.475a.566.566 0 01-.167.417.574.574 0 01-.418.168zm-19.865-1.194h19.28v-15.281h-19.28v15.281z" fill="#282828"/><path d="M183.193 123.133h-20.451v16.475h20.451v-16.475z" fill="#fff"/><path d="M183.144 140.192h-20.403a.585.585 0 01-.585-.585v-16.475a.586.586 0 01.585-.585h20.403a.59.59 0 01.414.171.59.59 0 01.171.414v16.475a.59.59 0 01-.171.414.59.59 0 01-.414.171zm-19.866-1.194h19.281v-15.281h-19.233l-.048 15.281zM66.569 66.21a.561.561 0 01-.454-.226 81.208 81.208 0 01-5.659-8.357.585.585 0 111.003-.597 82.372 82.372 0 005.122 7.664l6.685-8.357a.583.583 0 011.013.049.586.586 0 01-.105.68l-7.164 8.906a.61.61 0 01-.441.238zm71.597 34.084a.585.585 0 01-.501-.287 91.09 91.09 0 00-4.776-7.163.575.575 0 01.12-.824.583.583 0 01.811.12 89.483 89.483 0 014.358 6.435 40.206 40.206 0 015.515-7.689.585.585 0 01.86.788 38.958 38.958 0 00-5.814 8.357.61.61 0 01-.501.311l-.072-.048zm-37.212 36.473a.578.578 0 01-.525-.322l-4-8.119a.587.587 0 011.05-.525l3.439 6.996a35.718 35.718 0 015.265-8.249.557.557 0 01.412-.175.566.566 0 01.412.175.587.587 0 01.071.823 34.266 34.266 0 00-5.587 9.097.574.574 0 01-.513.359l-.024-.06z" fill="#282828"/></svg>