<svg width="157" height="140" fill="none" xmlns="http://www.w3.org/2000/svg"><path d="M146.932 52.71c-2.667 45.63-5.811 39.565-8.478 85.194-39.755 0-81.193-.349-122.6.699-2.032-47.44-2.889-35.5-5.048-85.734l136.126-.159z" fill="#fff"/><path d="M15.855 139.81a1.178 1.178 0 01-1.175-1.144c-1.016-23.37-1.715-32.102-2.445-41.279-.73-9.177-1.524-19.052-2.604-44.454a1.08 1.08 0 01.318-.858 1.144 1.144 0 01.857-.38h136.126a1.145 1.145 0 01.858.38 1.125 1.125 0 01.317.89 420.709 420.709 0 01-4.223 42.676 405.539 405.539 0 00-4.223 42.486 1.176 1.176 0 01-1.207 1.111h-21.56c-32.96 0-67.032 0-101.008.762l-.031-.19zm-3.81-85.988c1.079 24.608 1.841 34.04 2.571 43.184.73 9.145 1.398 17.782 2.382 40.295 33.595-.857 67.317-.794 99.896-.73h20.449a413.525 413.525 0 014.159-41.47 408.61 408.61 0 004.16-41.28H12.044z" fill="#282828"/><path d="M155.188 42.55a182.559 182.559 0 01-1.366 23.37c-49.503.952-101.039 0-150.986 0A122.314 122.314 0 011.12 42.613l154.067-.064z" fill="#F9B974"/><path d="M104.573 67.507c-16.702 0-33.372 0-49.789-.19-17.115 0-34.928-.222-51.948-.222a1.143 1.143 0 01-1.143-.921A100.817 100.817 0 01.01 46.36v-3.715a1.08 1.08 0 01.318-.858c.23-.223.537-.348.857-.349h154.067a1.175 1.175 0 011.174 1.206 178.794 178.794 0 01-1.365 23.53 1.14 1.14 0 01-1.143 1.016c-16.131.222-32.801.317-49.345.317zm-99.26-2.794c16.416 0 33.214 0 49.471.222 32.357.19 65.825.413 97.991-.19a179.85 179.85 0 001.206-21.02H2.36v2.508c-.077 6.157.39 12.31 1.397 18.385l1.556.095z" fill="#282828"/><path d="M82.124 138.19a1.207 1.207 0 01-1.175-1.206c.317-44.042 0-49.536-1.493-85.449-.19-4.413-.413-9.271-.635-14.733a1.141 1.141 0 011.112-1.238 1.207 1.207 0 011.27 1.111c.222 5.462.444 10.352.635 14.765 1.588 35.945 1.81 41.47 1.492 85.575a1.205 1.205 0 01-1.206 1.175z" fill="#282828"/><path d="M79.87 43.026a1.24 1.24 0 01-.89-.413 1.207 1.207 0 010-1.524 87.991 87.991 0 009.526-16.448 74.929 74.929 0 0112.003-19.306A14.09 14.09 0 01111.114 0c5.906.318 11.146 7.24 11.463 15.114a24.091 24.091 0 01-8.002 18.576 27.78 27.78 0 01-16.384 6.35c-1.651.16-3.176.223-4.954.318a28.576 28.576 0 00-12.701 2.382.922.922 0 01-.667.286zM110.605 2.38a12.703 12.703 0 00-8.415 4.605 72.818 72.818 0 00-11.558 18.702 113.399 113.399 0 01-7.398 13.527 44.614 44.614 0 019.875-1.111c1.588 0 3.175-.159 4.827-.286a25.72 25.72 0 0015.051-5.906 21.692 21.692 0 007.176-16.702c-.254-6.573-4.573-12.702-9.209-12.702l-.349-.127z" fill="#282828"/><path d="M70.82 43.788a49.063 49.063 0 01-10.923-1.239 28.132 28.132 0 01-18.322-11.748c-4.223-6.542-5.525-17.75-.222-24.45a10.733 10.733 0 0114.352-2.89 24.259 24.259 0 016.605 7.526c2.699 4.19 5.24 8.7 7.748 13.018 3.175 5.78 6.7 11.749 10.447 17.115a1.08 1.08 0 010 1.112 1.112 1.112 0 01-.858.73 50.24 50.24 0 01-8.827.826zM50.212 4.223a9.017 9.017 0 00-6.986 3.588c-4.509 5.716-3.43 15.877.35 21.688A25.878 25.878 0 0060.404 40.23a47.629 47.629 0 0017.083.699c-3.398-5.049-6.35-10.479-9.526-15.877-2.445-4.287-4.985-8.764-7.684-12.923a22.229 22.229 0 00-5.875-6.796 7.843 7.843 0 00-4.191-1.11z" fill="#282828"/><path d="M63.326 59.537a1.175 1.175 0 01-.317-2.318 18.607 18.607 0 008.986-6.35c1.238-1.525 2.286-3.176 3.524-4.954 1.239-1.778 2.7-4.033 4.51-6.35a1.366 1.366 0 011.016-.445 1.239 1.239 0 01.952.571c3.398 5.557 7.653 12.48 13.876 15.686a5.271 5.271 0 003.62.763 1.143 1.143 0 011.461.825 1.184 1.184 0 01-.106.904 1.173 1.173 0 01-.72.557 7.335 7.335 0 01-5.334-.953c-6.35-3.175-10.51-9.526-13.908-15.05a101.986 101.986 0 00-3.398 4.857c-.984 1.493-2.35 3.525-3.651 5.113A20.607 20.607 0 0163.644 59.6l-.318-.064z" fill="#282828"/><path d="M142.582 66.3a36.423 36.423 0 01-6.573.445c-4.827.254-9.526.254-14.48 0-3.588 0-7.176.223-10.732 0-2.477-.19-4.986-.222-7.462-.349h.73a21.082 21.082 0 00-4.7-.159h-.444c-2.89-.349-5.78-.19-8.669-.254-6.954 0-13.876-.571-20.798-.667-6.922-.095-14.702 0-22.227 0-6.351 0-12.702.254-19.052 0-3.747 0-7.494-.317-11.273-.222-1.65.19-3.62-.286-4.89.921a2.7 2.7 0 002.033 4.604c13.304-.317 26.64-.285 39.945.222 5.843.16 11.654-.412 17.528 0 8.002 0 15.876 1.017 24.005.89 4.541-.445 3.176 0 7.812-.35 2.603.16 5.175.16 7.779.19 3.525.223 7.049.414 10.606.382 2.508 0 8.065-.381 12.701-.54h9.05a2.923 2.923 0 002.762-1.715c1.08-1.905-1.333-4.096-3.651-3.397z" fill="#282828" opacity=".13"/></svg>