<svg width="583" height="159" viewBox="0 0 583 159" fill="none" xmlns="http://www.w3.org/2000/svg">
<path d="M88.9198 120.069C64.4883 123.21 39.8206 106.945 37.4601 83.6115C35.4536 62.5219 36.6339 17.5384 36.6339 16.9775C36.6339 12.7147 40.2928 9.125 44.8958 9.125C49.4988 9.125 53.1577 12.6025 53.1577 16.9775C53.1577 17.8749 52.9216 65.4386 53.2757 74.8616C53.8658 92.1371 66.8488 104.813 83.3725 104.477C98.9521 104.14 112.171 91.2396 112.171 76.3199C112.171 60.3906 99.0701 48.724 80.6579 48.6118C80.5399 48.6118 78.7695 48.8362 78.0613 48.8362C73.3403 48.8362 69.4454 45.1343 69.4454 40.6471C69.4454 36.16 73.3403 32.5703 78.0613 32.3459C78.6515 32.3459 80.894 32.1216 81.6021 32.1216C105.916 31.2242 126.688 48.9484 128.813 72.1693C130.819 96.2877 113.823 116.816 88.9198 120.069Z" fill="#C47A2C"/>
<path d="M11.6107 50.1761C16.5647 50.1761 20.5807 46.3591 20.5807 41.6506C20.5807 36.942 16.5647 33.125 11.6107 33.125C6.65665 33.125 2.64062 36.942 2.64062 41.6506C2.64062 46.3591 6.65665 50.1761 11.6107 50.1761Z" fill="#C47A2C"/>
<path d="M52.6786 47.9408C28.2471 44.7998 3.46143 61.0657 1.21892 84.3988C-0.905561 105.488 0.392734 150.472 0.392734 151.145C0.392734 155.408 4.05157 158.998 8.65462 158.998C13.1396 158.998 16.9165 155.52 16.9165 151.145C16.9165 150.248 16.6804 102.684 17.0345 93.2609C17.7427 75.8733 30.7256 63.3093 47.1314 63.6458C62.7109 63.9823 76.048 76.8829 75.9299 91.8026C75.9299 107.732 62.8289 119.399 44.4168 119.511C44.2987 119.511 42.5283 119.286 41.8202 119.286C37.0991 119.286 33.2042 122.988 33.2042 127.475C33.2042 131.962 37.0991 135.552 41.8202 135.777C42.4103 135.777 44.6528 135.889 45.361 136.001C69.6745 136.898 90.4472 119.174 92.5717 95.9532C94.5782 71.7227 77.4643 51.194 52.6786 47.9408Z" fill="#034A66"/>
<path d="M53.1526 74.7442C53.8608 92.1319 66.8437 104.696 83.3675 104.471C98.947 104.135 112.166 91.2344 112.166 76.3147C112.166 69.3596 127.51 59.0392 128.69 72.1641C130.814 96.3946 113.7 116.923 88.9147 120.176C64.4832 123.317 39.8156 107.052 37.455 83.7185C36.3928 73.0615 53.0346 70.1449 53.1526 74.7442Z" fill="#C47A2C"/>
<path d="M145.328 115.029H147.716V131.184H145.328V115.029ZM146.836 129.03H158.086V131.184H146.836V129.03ZM154.944 115.029H157.332V131.184H154.944V115.029ZM157.269 129.03H159.657V134.535H157.269V129.03Z" fill="#034A66"/>
<path d="M172.478 131.184V118.5L172.73 118.799L164.245 131.184H162.297V115.029H164.622V127.894L164.371 127.594L172.918 115.029H174.866V131.184H172.478Z" fill="#034A66"/>
<path d="M181.467 128.731C180.21 128.252 179.267 127.534 178.576 126.577C177.947 125.619 177.57 124.482 177.57 123.106V122.687C177.57 121.311 177.885 120.174 178.576 119.217C179.204 118.26 180.21 117.542 181.467 117.063C182.724 116.584 184.232 116.345 185.992 116.345C187.752 116.345 189.26 116.584 190.517 117.063C191.774 117.542 192.717 118.26 193.408 119.217C194.037 120.174 194.414 121.311 194.414 122.687V123.106C194.414 124.482 194.099 125.619 193.408 126.577C192.78 127.534 191.774 128.252 190.517 128.731C189.26 129.209 187.752 129.449 185.992 129.449C184.232 129.449 182.724 129.209 181.467 128.731ZM190.58 126.337C191.648 125.559 192.214 124.482 192.214 123.046V122.628C192.214 121.192 191.648 120.115 190.58 119.337C189.511 118.559 188.003 118.2 186.055 118.2C184.107 118.2 182.598 118.559 181.53 119.337C180.461 120.115 179.896 121.192 179.896 122.628V123.046C179.896 124.482 180.461 125.559 181.53 126.337C182.598 127.115 184.107 127.474 186.055 127.474C188.003 127.474 189.511 127.055 190.58 126.337ZM184.861 114.49H187.249V131.184H184.861V114.49Z" fill="#034A66"/>
<path d="M197 115.029H199.388V131.184H197V115.029ZM198.257 122.748H203.662C204.165 122.748 204.605 122.628 205.045 122.389C205.422 122.149 205.736 121.85 205.924 121.431C206.113 121.013 206.239 120.534 206.239 119.995C206.239 119.457 206.113 118.978 205.924 118.559C205.736 118.141 205.422 117.782 205.045 117.602C204.667 117.363 204.228 117.243 203.662 117.243H198.257V115.089H203.599C204.605 115.089 205.484 115.269 206.239 115.687C206.993 116.106 207.621 116.705 207.998 117.423C208.438 118.2 208.627 119.038 208.627 119.995C208.627 120.953 208.438 121.85 207.998 122.568C207.558 123.286 206.993 123.885 206.239 124.303C205.484 124.722 204.605 124.902 203.599 124.902H198.257V122.748Z" fill="#034A66"/>
<path d="M213.766 130.641C212.886 130.163 212.194 129.445 211.692 128.547C211.189 127.65 210.938 126.632 210.938 125.436V120.888C210.938 119.692 211.189 118.674 211.692 117.777C212.194 116.879 212.886 116.161 213.766 115.683C214.646 115.204 215.714 114.965 216.908 114.965C218.102 114.965 219.108 115.204 220.05 115.683C220.93 116.161 221.622 116.879 222.124 117.777C222.627 118.674 222.879 119.692 222.879 120.888V125.436C222.879 126.632 222.627 127.65 222.124 128.547C221.622 129.445 220.93 130.163 220.05 130.641C219.171 131.12 218.102 131.359 216.908 131.359C215.714 131.359 214.646 131.12 213.766 130.641ZM218.731 128.667C219.233 128.367 219.673 127.949 219.988 127.41C220.302 126.872 220.428 126.214 220.428 125.496V120.769C220.428 120.051 220.302 119.393 219.988 118.854C219.673 118.316 219.296 117.897 218.731 117.597C218.228 117.298 217.599 117.119 216.908 117.119C216.217 117.119 215.588 117.298 215.085 117.597C214.583 117.897 214.143 118.316 213.829 118.854C213.514 119.393 213.389 120.051 213.389 120.769V125.496C213.389 126.214 213.514 126.872 213.829 127.41C214.143 127.949 214.52 128.367 215.085 128.667C215.588 128.966 216.217 129.145 216.908 129.145C217.599 129.145 218.165 128.966 218.731 128.667Z" fill="#034A66"/>
<path d="M226.094 115.029H228.482V131.184H226.094V115.029ZM227.476 129.09H232.064C233.258 129.09 234.138 128.851 234.704 128.432C235.27 128.013 235.521 127.355 235.521 126.577V126.517C235.521 125.979 235.395 125.5 235.207 125.081C235.018 124.662 234.704 124.363 234.264 124.184C233.824 123.944 233.258 123.885 232.63 123.885H227.476V121.85H232.63C233.51 121.85 234.201 121.671 234.641 121.252C235.081 120.833 235.332 120.295 235.332 119.517C235.332 118.739 235.081 118.081 234.578 117.722C234.075 117.303 233.321 117.123 232.316 117.123H227.476V115.029H232.756C233.824 115.029 234.767 115.209 235.521 115.568C236.275 115.927 236.841 116.405 237.155 117.064C237.532 117.722 237.721 118.5 237.721 119.397C237.721 119.936 237.595 120.474 237.406 120.953C237.155 121.432 236.841 121.85 236.401 122.209C235.961 122.568 235.395 122.808 234.704 122.927C235.395 123.047 235.961 123.227 236.464 123.645C236.966 124.004 237.344 124.483 237.595 125.021C237.846 125.56 237.972 126.158 237.972 126.816V126.876C237.972 127.774 237.783 128.492 237.344 129.21C236.966 129.868 236.338 130.406 235.584 130.765C234.83 131.124 233.95 131.304 232.944 131.304H227.476V129.09Z" fill="#034A66"/>
<path d="M245.449 115.029H247.46L253.682 131.184H251.106L246.392 118.141L241.678 131.184H239.102L245.449 115.029ZM242.055 125.5H250.98V127.654H242.055V125.5Z" fill="#034A66"/>
<path d="M259.455 123.705L261.843 124.244L257.758 131.244H254.93L259.455 123.705ZM257.381 124.124C256.627 123.705 256.061 123.167 255.621 122.449C255.181 121.731 254.993 120.893 254.993 119.936C254.993 118.978 255.181 118.141 255.621 117.423C255.998 116.705 256.627 116.106 257.318 115.747C258.072 115.328 258.952 115.149 259.895 115.149H265.488V117.303H259.832C259.392 117.303 258.952 117.423 258.638 117.662C258.261 117.901 258.009 118.2 257.821 118.619C257.632 119.038 257.506 119.517 257.506 119.995C257.506 120.474 257.632 121.013 257.821 121.372C258.009 121.79 258.261 122.09 258.638 122.329C259.015 122.568 259.392 122.688 259.832 122.688H265.488V124.842H259.895C259.015 124.722 258.135 124.483 257.381 124.124ZM264.168 115.029H266.557V131.184H264.168V115.029Z" fill="#034A66"/>
<path d="M276.492 115.029H278.88V131.184H276.492V115.029ZM277.938 115.029H287.365V117.183H277.938V115.029ZM286.108 115.029H288.496V131.184H286.108V115.029Z" fill="#034A66"/>
<path d="M291.391 129.03C292.082 129.03 292.648 128.851 293.025 128.552C293.465 128.252 293.779 127.774 293.967 127.175C294.156 126.517 294.282 125.739 294.282 124.722V115.029H296.67V124.543C296.67 126.099 296.481 127.355 296.167 128.312C295.79 129.27 295.287 129.988 294.533 130.466C293.779 130.945 292.836 131.184 291.642 131.184H291.391V129.03ZM295.79 115.029H303.897V117.183H295.79V115.029ZM302.64 115.029H305.029V131.184H302.64V115.029Z" fill="#034A66"/>
<path d="M313.262 115.029H315.273L321.495 131.184H318.918L314.204 118.141L309.491 131.184H306.914L313.262 115.029ZM309.868 125.5H318.792V127.654H309.868V125.5Z" fill="#034A66"/>
<path d="M320.93 115.029H332.871V117.183H320.93V115.029ZM325.706 116.346H328.094V131.184H325.706V116.346Z" fill="#034A66"/>
<path d="M337.209 128.731C335.952 128.252 335.009 127.534 334.318 126.577C333.69 125.619 333.312 124.482 333.312 123.106V122.687C333.312 121.311 333.627 120.174 334.318 119.217C334.947 118.26 335.952 117.542 337.209 117.063C338.466 116.584 339.974 116.345 341.734 116.345C343.494 116.345 345.002 116.584 346.259 117.063C347.516 117.542 348.459 118.26 349.15 119.217C349.779 120.174 350.156 121.311 350.156 122.687V123.106C350.156 124.482 349.842 125.619 349.15 126.577C348.522 127.534 347.516 128.252 346.259 128.731C345.002 129.209 343.494 129.449 341.734 129.449C339.974 129.449 338.466 129.209 337.209 128.731ZM346.322 126.337C347.39 125.559 347.956 124.482 347.956 123.046V122.628C347.956 121.192 347.39 120.115 346.322 119.337C345.254 118.559 343.745 118.2 341.797 118.2C339.849 118.2 338.34 118.559 337.272 119.337C336.204 120.115 335.638 121.192 335.638 122.628V123.046C335.638 124.482 336.204 125.559 337.272 126.337C338.34 127.115 339.849 127.474 341.797 127.474C343.745 127.474 345.254 127.055 346.322 126.337ZM340.603 114.49H342.991V131.184H340.603V114.49Z" fill="#034A66"/>
<path d="M354.992 130.641C354.112 130.163 353.421 129.445 352.918 128.547C352.415 127.65 352.164 126.632 352.164 125.436V120.888C352.164 119.692 352.415 118.674 352.918 117.777C353.421 116.879 354.112 116.161 354.992 115.683C355.872 115.204 356.941 114.965 358.135 114.965C359.329 114.965 360.334 115.204 361.277 115.683C362.157 116.161 362.848 116.879 363.351 117.777C363.854 118.674 364.105 119.692 364.105 120.888V125.436C364.105 126.632 363.854 127.65 363.351 128.547C362.848 129.445 362.157 130.163 361.277 130.641C360.397 131.12 359.329 131.359 358.135 131.359C356.941 131.359 355.872 131.12 354.992 130.641ZM359.957 128.667C360.46 128.367 360.9 127.949 361.214 127.41C361.528 126.872 361.654 126.214 361.654 125.496V120.769C361.654 120.051 361.528 119.393 361.214 118.854C360.9 118.316 360.523 117.897 359.957 117.597C359.454 117.298 358.826 117.119 358.135 117.119C357.443 117.119 356.815 117.298 356.312 117.597C355.809 117.897 355.369 118.316 355.055 118.854C354.741 119.393 354.615 120.051 354.615 120.769V125.496C354.615 126.214 354.741 126.872 355.055 127.41C355.369 127.949 355.746 128.367 356.312 128.667C356.815 128.966 357.443 129.145 358.135 129.145C358.826 129.145 359.454 128.966 359.957 128.667Z" fill="#034A66"/>
<path d="M367.305 115.029H369.693V131.184H367.305V115.029ZM368.562 122.748H373.967C374.469 122.748 374.909 122.628 375.349 122.389C375.726 122.149 376.041 121.85 376.229 121.431C376.418 121.013 376.543 120.534 376.543 119.995C376.543 119.457 376.418 118.978 376.229 118.559C376.041 118.141 375.726 117.782 375.349 117.602C374.972 117.363 374.532 117.243 373.967 117.243H368.562V115.089H373.904C374.909 115.089 375.789 115.269 376.543 115.687C377.298 116.106 377.926 116.705 378.303 117.423C378.743 118.2 378.932 119.038 378.932 119.995C378.932 120.953 378.743 121.85 378.303 122.568C377.863 123.286 377.298 123.885 376.543 124.303C375.789 124.722 374.909 124.902 373.904 124.902H368.562V122.748Z" fill="#034A66"/>
<path d="M394.146 115.029H396.345V131.184H394.02V119.098L394.146 119.816L389.998 128.97H388.364L384.216 120.055L384.341 119.098V131.184H381.953V115.029H384.153L389.118 125.68L394.146 115.029Z" fill="#034A66"/>
<path d="M404.582 115.029H406.593L412.815 131.184H410.238L405.525 118.141L400.811 131.184H398.234L404.582 115.029ZM401.188 125.5H410.113V127.654H401.188V125.5Z" fill="#034A66"/>
<path d="M147.844 157.919C146.964 157.44 146.273 156.722 145.77 155.824C145.267 154.927 145.016 153.91 145.016 152.713V148.166C145.016 146.969 145.267 145.952 145.77 145.054C146.273 144.157 146.964 143.439 147.844 142.96C148.724 142.481 149.792 142.242 150.986 142.242C152.18 142.242 153.186 142.481 154.129 142.96C155.008 143.439 155.7 144.157 156.203 145.054C156.705 145.952 156.957 146.969 156.957 148.166V152.713C156.957 153.91 156.705 154.927 156.203 155.824C155.7 156.722 155.008 157.44 154.129 157.919C153.249 158.397 152.18 158.637 150.986 158.637C149.792 158.637 148.724 158.397 147.844 157.919ZM152.809 155.944C153.312 155.645 153.752 155.226 154.066 154.688C154.38 154.149 154.506 153.491 154.506 152.773V148.046C154.506 147.328 154.38 146.67 154.066 146.131C153.752 145.593 153.374 145.174 152.809 144.875C152.306 144.576 151.678 144.396 150.986 144.396C150.295 144.396 149.666 144.576 149.164 144.875C148.661 145.174 148.221 145.593 147.907 146.131C147.592 146.67 147.467 147.328 147.467 148.046V152.773C147.467 153.491 147.592 154.149 147.907 154.688C148.221 155.226 148.598 155.645 149.164 155.944C149.666 156.243 150.295 156.423 150.986 156.423C151.678 156.423 152.243 156.243 152.809 155.944Z" fill="#034A66"/>
<path d="M166.571 142.314H168.896V158.47H166.508V142.314H166.571ZM168.016 149.435H177.443V151.589H168.016V149.435ZM176.186 142.314H178.575V158.47H176.186V142.314Z" fill="#034A66"/>
<path d="M186.809 142.314H188.82L195.042 158.47H192.465L187.751 145.426L183.038 158.47H180.461L186.809 142.314ZM183.478 152.785H192.402V154.939H183.478V152.785Z" fill="#034A66"/>
<path d="M196.867 156.316C197.559 156.316 198.124 156.136 198.501 155.837C198.941 155.538 199.255 155.059 199.444 154.461C199.633 153.803 199.758 153.025 199.758 152.007V142.314H202.209V151.828C202.209 153.384 202.021 154.64 201.706 155.597C201.329 156.555 200.827 157.273 200.072 157.752C199.318 158.23 198.376 158.47 197.181 158.47H196.93V156.316H196.867ZM201.267 142.314H209.374V144.468H201.267V142.314ZM208.18 142.314H210.568V158.47H208.18V142.314Z" fill="#034A66"/>
<path d="M216.914 157.919C216.034 157.44 215.343 156.722 214.84 155.824C214.337 154.927 214.086 153.91 214.086 152.713V148.166C214.086 146.969 214.337 145.952 214.84 145.054C215.343 144.157 216.034 143.439 216.914 142.96C217.794 142.481 218.862 142.242 220.057 142.242C221.251 142.242 222.256 142.481 223.199 142.96C224.079 143.439 224.77 144.157 225.273 145.054C225.776 145.952 226.027 146.969 226.027 148.166V152.713C226.027 153.91 225.776 154.927 225.273 155.824C224.77 156.722 224.079 157.44 223.199 157.919C222.319 158.397 221.251 158.637 220.057 158.637C218.862 158.637 217.794 158.397 216.914 157.919ZM221.879 155.944C222.382 155.645 222.822 155.226 223.136 154.688C223.45 154.149 223.576 153.491 223.576 152.773V148.046C223.576 147.328 223.45 146.67 223.136 146.131C222.822 145.593 222.445 145.174 221.879 144.875C221.376 144.576 220.748 144.396 220.057 144.396C219.365 144.396 218.737 144.576 218.234 144.875C217.731 145.174 217.291 145.593 216.977 146.131C216.663 146.67 216.537 147.328 216.537 148.046V152.773C216.537 153.491 216.663 154.149 216.977 154.688C217.291 155.226 217.668 155.645 218.234 155.944C218.737 156.243 219.365 156.423 220.057 156.423C220.748 156.423 221.313 156.243 221.879 155.944Z" fill="#034A66"/>
<path d="M229.297 142.314H231.685V158.47H229.297V142.314ZM230.428 142.314H238.787V144.468H230.428V142.314Z" fill="#034A66"/>
<path d="M244.816 142.314H246.827L253.049 158.47H250.472L245.758 145.426L241.171 158.47H238.594L244.816 142.314ZM241.485 152.785H250.409V154.939H241.485V152.785Z" fill="#034A66"/>
<path d="M259.4 149.255L263.673 142.314H266.313L260.719 151.05L256.194 158.47H253.555L259.4 149.255ZM259.525 151.409L259.148 150.871L253.618 142.374H256.257L260.342 148.956L260.719 149.554L266.501 158.529H263.862L259.525 151.409Z" fill="#034A66"/>
<path d="M284.916 158.47V145.785L285.167 146.084L276.683 158.47H274.734V142.314H277.06V155.179L276.808 154.879L285.356 142.314H287.304V158.47H284.916Z" fill="#034A66"/>
<path d="M297.234 142.314H299.623V158.47H297.234V142.314ZM298.366 142.314H307.667V144.468H298.366V142.314ZM298.491 156.316H303.896C304.462 156.316 304.902 156.196 305.279 156.016C305.656 155.837 305.97 155.478 306.159 155.119C306.347 154.7 306.473 154.221 306.473 153.683C306.473 153.084 306.347 152.606 306.159 152.247C305.97 151.828 305.656 151.529 305.279 151.349C304.902 151.11 304.399 151.05 303.896 151.05H298.491V148.896H303.833C304.902 148.896 305.845 149.076 306.599 149.435C307.353 149.794 307.919 150.392 308.358 151.11C308.736 151.828 308.987 152.725 308.987 153.743C308.987 154.76 308.798 155.597 308.358 156.375C307.981 157.093 307.353 157.632 306.599 158.051C305.845 158.41 304.902 158.589 303.833 158.589H298.491V156.316Z" fill="#034A66"/>
<path d="M309.797 142.314H312.499L317.464 153.862L315.956 155.657L309.797 142.314ZM318.407 155.119C318.093 155.897 317.779 156.555 317.401 157.093C317.024 157.632 316.584 157.991 316.019 158.23C315.516 158.469 314.888 158.649 314.196 158.649H312.185V156.435H314.133C314.51 156.435 314.825 156.375 315.076 156.196C315.328 156.016 315.579 155.777 315.83 155.478C316.019 155.179 316.27 154.76 316.396 154.281L320.732 142.374H323.309L318.407 155.119Z" fill="#034A66"/>
<path d="M329.54 149.255L333.814 142.314H336.453L330.86 151.05L326.335 158.47H323.695L329.54 149.255ZM329.603 151.409L329.226 150.871L323.695 142.374H326.335L330.42 148.956L330.797 149.554L336.579 158.529H333.94L329.603 151.409Z" fill="#034A66"/>
<path d="M338.961 142.314H341.349V158.47H338.961V142.314ZM340.092 142.314H348.451V144.468H340.092V142.314Z" fill="#034A66"/>
<path d="M354.488 142.314H356.499L362.721 158.47H360.145L355.431 145.426L350.717 158.47H348.141L354.488 142.314ZM351.157 152.785H360.082V154.939H351.157V152.785Z" fill="#034A66"/>
<path d="M364.609 156.316C365.301 156.316 365.866 156.136 366.243 155.837C366.683 155.538 366.998 155.059 367.186 154.461C367.375 153.803 367.5 153.025 367.5 152.007V142.314H369.889V151.828C369.889 153.384 369.7 154.64 369.386 155.597C369.009 156.555 368.506 157.273 367.752 157.752C366.998 158.23 366.055 158.47 364.861 158.47H364.609V156.316ZM368.946 142.314H377.053V144.468H368.946V142.314ZM375.859 142.314H378.247V158.47H375.859V142.314Z" fill="#034A66"/>
<path d="M380.695 142.314H392.636V144.468H380.695V142.314ZM385.472 143.631H387.86V158.47H385.472V143.631Z" fill="#034A66"/>
<path d="M394.711 142.314H397.099V158.47H394.711V142.314ZM395.842 142.314H405.584V144.468H395.842V142.314ZM395.842 149.375H404.327V151.529H395.842V149.375ZM395.842 156.316H405.584V158.47H395.842V156.316Z" fill="#034A66"/>
<path d="M408.664 142.314H411.052V158.47H408.664V142.314ZM409.858 150.033H415.263C415.766 150.033 416.206 149.913 416.646 149.674C417.023 149.435 417.337 149.135 417.526 148.717C417.714 148.298 417.84 147.819 417.84 147.281C417.84 146.742 417.714 146.263 417.526 145.845C417.337 145.426 417.023 145.067 416.646 144.887C416.269 144.648 415.829 144.528 415.263 144.528H409.858V142.374H415.2C416.206 142.374 417.086 142.554 417.84 142.973C418.594 143.391 419.223 143.99 419.6 144.708C420.04 145.486 420.228 146.323 420.228 147.281C420.228 148.238 420.04 149.135 419.6 149.853C419.16 150.571 418.594 151.17 417.84 151.589C417.086 152.007 416.206 152.187 415.2 152.187H409.858V150.033Z" fill="#034A66"/>
<path d="M425.445 157.873C424.565 157.394 423.874 156.676 423.371 155.779C422.869 154.881 422.617 153.804 422.617 152.608V148.18C422.617 146.983 422.869 145.906 423.371 145.009C423.874 144.111 424.565 143.393 425.445 142.915C426.325 142.436 427.394 142.137 428.525 142.137C429.468 142.137 430.41 142.316 431.227 142.735C432.044 143.154 432.736 143.692 433.301 144.41C433.867 145.128 434.244 145.966 434.433 146.923H431.982C431.856 146.445 431.604 145.966 431.227 145.547C430.85 145.128 430.473 144.829 430.033 144.65C429.593 144.41 429.091 144.351 428.588 144.351C427.896 144.351 427.268 144.53 426.765 144.829C426.262 145.128 425.822 145.607 425.571 146.146C425.257 146.744 425.131 147.402 425.131 148.12V152.548C425.131 153.326 425.257 153.984 425.571 154.522C425.885 155.121 426.262 155.539 426.765 155.839C427.268 156.138 427.896 156.317 428.588 156.317C429.091 156.317 429.593 156.198 430.033 156.018C430.473 155.839 430.913 155.539 431.227 155.121C431.542 154.702 431.793 154.283 431.982 153.744H434.433C434.244 154.702 433.867 155.539 433.301 156.257C432.736 156.975 432.044 157.514 431.227 157.933C430.41 158.352 429.53 158.531 428.588 158.531C427.331 158.651 426.325 158.411 425.445 157.873Z" fill="#034A66"/>
<path d="M437.195 142.314H439.584V158.47H437.195V142.314ZM438.389 149.375H443.669V151.529H438.389V149.375ZM441.595 151.349L443.669 150.212L450.205 158.47H446.874L441.595 151.349ZM441.595 149.614L446.497 142.314H449.514L442.789 151.589L441.595 149.614Z" fill="#034A66"/>
<path d="M453.977 157.919C453.097 157.44 452.405 156.722 451.903 155.824C451.4 154.927 451.148 153.91 451.148 152.713V148.166C451.148 146.969 451.4 145.952 451.903 145.054C452.405 144.157 453.097 143.439 453.977 142.96C454.856 142.481 455.925 142.242 457.119 142.242C458.313 142.242 459.319 142.481 460.261 142.96C461.141 143.439 461.833 144.157 462.335 145.054C462.838 145.952 463.09 146.969 463.09 148.166V152.713C463.09 153.91 462.838 154.927 462.335 155.824C461.833 156.722 461.141 157.44 460.261 157.919C459.382 158.397 458.313 158.637 457.119 158.637C455.925 158.637 454.919 158.397 453.977 157.919ZM459.004 155.944C459.507 155.645 459.947 155.226 460.261 154.688C460.576 154.149 460.701 153.491 460.701 152.773V148.046C460.701 147.328 460.576 146.67 460.261 146.131C459.947 145.593 459.57 145.174 459.004 144.875C458.502 144.576 457.873 144.396 457.182 144.396C456.491 144.396 455.862 144.576 455.359 144.875C454.856 145.174 454.417 145.593 454.102 146.131C453.788 146.67 453.662 147.328 453.662 148.046V152.773C453.662 153.491 453.788 154.149 454.102 154.688C454.417 155.226 454.794 155.645 455.359 155.944C455.862 156.243 456.491 156.423 457.182 156.423C457.873 156.423 458.439 156.243 459.004 155.944Z" fill="#034A66"/>
<path d="M478.552 142.314H480.751V158.47H478.426V146.383L478.552 147.101L474.404 156.256H472.77L468.622 147.34L468.747 146.383V158.47H466.422V142.314H468.622L473.587 152.965L478.552 142.314Z" fill="#034A66"/>
<path d="M489.422 142.314H492.124L497.089 153.862L495.581 155.657L489.422 142.314ZM497.969 155.119C497.655 155.897 497.341 156.555 496.964 157.093C496.587 157.632 496.147 157.991 495.581 158.23C495.078 158.469 494.45 158.649 493.758 158.649H491.81V156.435H493.758C494.135 156.435 494.45 156.375 494.701 156.196C494.953 156.016 495.204 155.777 495.455 155.478C495.644 155.179 495.895 154.76 496.021 154.281L500.357 142.374H502.934L497.969 155.119Z" fill="#034A66"/>
<path d="M506.959 152.845C506.204 152.426 505.576 151.888 505.199 151.11C504.822 150.332 504.57 149.435 504.57 148.358V142.374H506.959V148.417C506.959 149.315 507.21 150.033 507.713 150.512C508.216 150.99 508.97 151.23 509.912 151.23C511.044 151.23 511.861 150.99 512.489 150.452C513.118 149.913 513.369 149.195 513.369 148.238V146.981H514.123V148.178C514.123 149.315 513.935 150.272 513.62 151.05C513.306 151.828 512.741 152.486 512.112 152.905C511.421 153.324 510.667 153.503 509.724 153.503C508.655 153.443 507.713 153.204 506.959 152.845ZM513.432 142.314H515.82V158.47H513.432V142.314Z" fill="#034A66"/>
<path d="M519.719 142.314H522.107V158.47H519.719V142.314ZM520.85 142.314H530.591V144.468H520.85V142.314ZM520.85 149.375H529.334V151.529H520.85V149.375ZM520.85 156.316H530.591V158.47H520.85V156.316Z" fill="#034A66"/>
<path d="M532.281 142.314H544.222V144.468H532.281V142.314ZM537.058 143.631H539.446V158.47H537.058V143.631Z" fill="#034A66"/>
<path d="M546.234 142.314H548.623V158.47H546.234V142.314ZM547.428 142.314H557.17V144.468H547.428V142.314ZM547.428 149.375H555.913V151.529H547.428V149.375ZM547.428 156.316H557.17V158.47H547.428V156.316Z" fill="#034A66"/>
<path d="M447.159 79.2667C446.433 79.8888 445.489 80.2344 444.473 80.2344C443.384 80.2344 442.295 79.8196 441.496 78.9211L425.305 63.7145V76.571C425.305 78.5755 423.563 80.2344 421.457 80.2344C419.352 80.2344 417.609 78.5755 417.609 76.571V31.7806C417.609 29.7761 419.352 28.1172 421.457 28.1172C423.563 28.1172 425.305 29.7761 425.305 31.7806V56.4568L438.156 44.2915C439.608 42.7708 442.149 42.6326 443.819 44.015C445.416 45.3974 445.562 47.8167 444.11 49.4064L432.638 59.9128L447.522 73.9444C448.974 75.465 448.829 77.8151 447.159 79.2667Z" fill="#C47A2C"/>
<path d="M407.221 37.9375C405.115 37.9375 403.373 39.5964 403.373 41.6009V43.8819C402.139 42.776 400.759 41.8083 399.162 40.9788C395.749 39.1126 391.974 38.1449 387.908 38.1449C384.06 38.1449 380.358 39.1126 377.018 41.0479C373.678 42.9833 370.992 45.5408 369.031 48.7895C367.071 52.0382 366.055 55.5633 366.055 59.2268C366.055 62.9593 367.071 66.4153 369.031 69.5949C371.064 72.7745 373.751 75.3319 377.163 77.1291C380.575 78.9953 384.278 79.963 388.199 79.963C392.119 79.963 395.822 78.9953 399.234 77.1291C400.687 76.2996 401.993 75.4011 403.228 74.2951V76.507C403.228 78.5115 404.97 80.1704 407.076 80.1704C409.181 80.1704 410.924 78.5115 410.924 76.507V41.5318C411.069 39.5964 409.326 37.9375 407.221 37.9375ZM401.413 66.2771C400.106 68.5581 398.291 70.3552 396.04 71.6685C393.717 72.9818 391.175 73.6039 388.417 73.6039C385.658 73.6039 383.116 72.9818 380.721 71.6685C378.325 70.3552 376.51 68.6272 375.13 66.4153C373.823 64.2726 373.097 61.8533 373.097 59.2268C373.097 56.6002 373.751 54.1118 375.058 51.8999C376.364 49.6881 378.179 47.96 380.503 46.6467C382.826 45.3334 385.44 44.6422 388.271 44.504H388.562C391.103 44.504 393.571 45.1261 395.822 46.4394C398.073 47.7527 399.888 49.4807 401.267 51.6926C402.574 53.8353 403.3 56.2545 403.3 58.6738C403.373 61.5077 402.719 63.9961 401.413 66.2771Z" fill="#C47A2C"/>
<path d="M233.041 38.0762C230.936 38.0762 229.193 39.7351 229.193 41.7396V44.0206C227.959 42.9146 226.579 41.9469 224.982 41.1175C221.57 39.2512 217.794 38.2835 213.729 38.2835C209.881 38.2835 206.178 39.2512 202.838 41.1866C199.498 43.122 196.812 45.6795 194.852 48.9282C192.891 52.1768 191.875 55.702 191.875 59.3654C191.875 63.0979 192.891 66.554 194.852 69.7336C196.885 72.9131 199.571 75.4706 202.983 77.2677C206.396 79.134 210.098 80.1017 214.019 80.1017C217.94 80.1017 221.642 79.134 225.055 77.2677C226.507 76.4383 227.814 75.5397 229.048 74.4338V76.6457C229.048 78.6502 230.79 80.3091 232.896 80.3091C235.001 80.3091 236.744 78.6502 236.744 76.6457V41.6705C236.889 39.7351 235.147 38.0762 233.041 38.0762ZM227.233 66.4158C225.926 68.6967 224.111 70.4939 221.86 71.8072C219.609 73.1205 216.996 73.7426 214.237 73.7426C211.478 73.7426 208.864 73.1205 206.541 71.8072C204.218 70.4939 202.33 68.7659 200.95 66.554C199.644 64.4113 198.918 61.992 198.918 59.3654C198.918 56.7388 199.571 54.2505 200.878 52.0386C202.185 49.8267 204 48.0987 206.323 46.7854C208.574 45.4721 211.26 44.7809 214.092 44.6427H214.382C216.923 44.6427 219.392 45.2647 221.642 46.578C223.893 47.8913 225.708 49.6194 227.088 51.8312C228.395 53.974 229.121 56.3932 229.121 58.8125C229.193 61.5773 228.54 64.1348 227.233 66.4158Z" fill="#C47A2C"/>
<path d="M329.393 38.0762C327.287 38.0762 325.545 39.7351 325.545 41.7396V44.0206C324.31 42.9146 322.931 41.9469 321.334 41.1175C317.921 39.2512 314.146 38.2835 310.08 38.2835C306.232 38.2835 302.529 39.2512 299.19 41.1866C295.85 43.122 293.164 45.6795 291.203 48.9282C289.243 52.1768 288.227 55.702 288.227 59.3654C288.227 63.0979 289.243 66.554 291.203 69.7336C293.236 72.9131 295.923 75.4706 299.335 77.2677C302.747 79.134 306.45 80.1017 310.371 80.1017C314.291 80.1017 317.994 79.134 321.406 77.2677C322.858 76.4383 324.165 75.5397 325.4 74.4338V76.6457C325.4 78.6502 327.142 80.3091 329.247 80.3091C331.353 80.3091 333.095 78.6502 333.095 76.6457V41.6705C333.241 39.7351 331.498 38.0762 329.393 38.0762ZM323.584 66.4158C322.278 68.6967 320.462 70.4939 318.212 71.8072C315.961 73.1205 313.347 73.7426 310.588 73.7426C307.829 73.7426 305.216 73.1205 302.892 71.8072C300.569 70.4939 298.681 68.7659 297.302 66.554C295.995 64.4113 295.269 61.992 295.269 59.3654C295.269 56.7388 295.923 54.2505 297.229 52.0386C298.536 49.8267 300.351 48.0987 302.675 46.7854C304.925 45.4721 307.612 44.7809 310.443 44.6427H310.734C313.275 44.6427 315.743 45.2647 317.994 46.578C320.245 47.8913 322.06 49.6194 323.439 51.8312C324.746 53.974 325.472 56.3932 325.472 58.8125C325.545 61.5773 324.891 64.1348 323.584 66.4158Z" fill="#C47A2C"/>
<path d="M461.817 80.2453C464.623 80.2453 466.899 78.079 466.899 75.4068C466.899 72.7346 464.623 70.5684 461.817 70.5684C459.01 70.5684 456.734 72.7346 456.734 75.4068C456.734 78.079 459.01 80.2453 461.817 80.2453Z" fill="#C47A2C"/>
<path d="M169.308 38.7713C157.837 37.3198 146.293 44.9231 145.204 55.8442C144.26 65.7285 144.841 86.8795 144.841 87.156C144.841 89.1605 146.583 90.8194 148.689 90.8194C150.794 90.8194 152.537 89.1605 152.537 87.156C152.537 86.7413 152.392 64.4152 152.609 59.9915C152.9 51.8352 158.999 45.8908 166.694 46.0982C174.027 46.2364 180.199 52.319 180.199 59.3003C180.199 66.7653 174.027 72.2259 165.388 72.3641C165.315 72.3641 164.516 72.295 164.226 72.295C161.975 72.295 160.16 74.023 160.16 76.1658C160.16 78.3085 161.975 79.9674 164.226 80.0365C164.516 80.0365 165.605 80.1057 165.823 80.1057C177.222 80.5204 186.951 72.2259 187.967 61.3048C188.911 49.8998 180.925 40.2229 169.308 38.7713Z" fill="#C47A2C"/>
<path d="M495.738 79.9579C484.267 81.4094 472.723 73.8061 471.634 62.885C470.69 53.0007 471.271 32.0571 471.271 31.7806C471.271 29.7761 473.013 28.1172 475.119 28.1172C477.224 28.1172 478.966 29.7761 478.966 31.7806C478.966 32.1953 478.821 54.314 479.039 58.7378C479.402 66.894 485.428 72.8384 493.124 72.6311C500.457 72.4928 506.628 66.4102 506.628 59.429C506.628 51.9639 500.457 46.5034 491.817 46.3651C491.745 46.3651 490.946 46.4342 490.583 46.4342C488.332 46.4342 486.517 44.7062 486.517 42.5635C486.517 40.4207 488.332 38.7618 490.51 38.6927C490.801 38.6927 491.89 38.6236 492.108 38.6236C503.506 38.2088 513.235 46.5034 514.252 57.4245C515.341 68.8294 507.354 78.5064 495.738 79.9579Z" fill="#034A66"/>
<path d="M561.801 83.8172C560.712 94.7383 549.168 102.411 537.696 100.89C536.172 100.683 534.647 100.337 533.195 99.8532C531.815 99.3694 530.436 98.7473 529.129 97.987C527.895 97.2266 526.733 96.3972 525.644 95.4295C525.281 95.0839 524.845 94.6692 524.482 94.3236C524.337 94.1162 524.119 93.978 523.974 93.7706C523.103 92.5955 522.813 91.0749 523.393 89.7616C523.902 88.6556 524.991 87.8262 526.298 87.5497C526.515 87.4806 526.806 87.4806 527.024 87.4806C528.04 87.4806 528.984 87.8262 529.637 88.4483C529.637 88.4483 529.637 88.4483 529.71 88.5174C529.855 88.5865 529.928 88.7248 530.073 88.7939C532.614 91.6278 536.244 93.4941 540.31 93.5632C546.263 93.7015 551.201 90.1763 553.306 84.854C553.959 83.2642 554.25 81.6053 554.25 79.8773L554.395 75.3153C551.346 77.7345 547.57 79.3934 543.287 79.9464C531.815 81.3979 520.271 73.7946 519.182 62.8735C518.674 57.8277 518.602 49.8788 518.602 43.2432C518.602 42.9667 518.602 42.7593 518.602 42.4829V42.1373C518.602 41.9299 518.602 41.7225 518.674 41.5152C518.674 41.5152 518.674 41.5152 518.674 41.4461C519.11 39.7871 520.634 38.543 522.45 38.543C524.482 38.543 526.08 39.9945 526.298 41.8608C526.298 41.999 526.37 42.1373 526.37 42.2755C526.37 42.552 526.37 42.8976 526.37 43.1741C526.37 49.4641 526.37 56.5144 526.443 58.7263C526.806 66.8826 532.832 72.8269 540.528 72.6196C547.861 72.4813 554.25 66.3296 554.25 59.3484C554.25 58.588 554.25 42.6902 554.25 42.6902C554.25 42.6211 554.25 42.552 554.25 42.4829C554.25 42.4137 554.25 42.3446 554.25 42.2755C554.25 41.3078 554.613 40.4092 555.266 39.718C556.065 38.8886 557.227 38.4738 558.316 38.6121C558.751 38.6812 559.259 38.7503 559.622 38.9577C560.058 39.1651 560.494 39.4415 560.857 39.7871C561.51 40.4784 561.873 41.3769 561.873 42.2755C561.873 42.3446 561.873 42.4137 561.873 42.4829C561.873 42.552 561.873 42.6211 561.873 42.6902V52.851C562.309 55.5467 562.744 74.555 561.801 83.8172Z" fill="#034A66"/>
<path d="M520.479 40.7734C520.406 40.9808 520.406 41.1882 520.406 41.3955V41.2573C520.406 41.119 520.406 40.9117 520.479 40.7734Z" fill="#034A66"/>
<path d="M259.67 80.0961C271.141 81.5477 282.685 73.9444 283.774 63.0233C284.718 53.139 284.137 32.0571 284.137 31.7806C284.137 29.7761 282.395 28.1172 280.289 28.1172C278.184 28.1172 276.441 29.7761 276.441 31.7806C276.441 32.1953 276.587 54.4523 276.369 58.876C276.006 67.0323 269.98 72.9767 262.284 72.7693C254.951 72.6311 248.78 66.5484 248.78 59.5672C248.78 52.1022 254.951 46.6416 263.591 46.5034C263.663 46.5034 264.462 46.5725 264.752 46.5725C267.003 46.5725 268.818 44.8445 268.818 42.7017C268.818 40.559 267.003 38.9001 264.825 38.8309C264.534 38.8309 263.445 38.7618 263.228 38.7618C251.829 38.3471 242.1 46.6416 241.084 57.5627C239.995 68.9677 247.981 78.6446 259.67 80.0961Z" fill="#C47A2C"/>
<path d="M353.284 68.6987C353.284 69.9429 353.574 70.9797 354.591 71.8092C355.172 72.293 355.898 72.5695 356.696 72.7078C357.422 72.846 358.076 72.7769 358.729 73.0534C359.964 73.5372 360.835 74.6432 360.98 75.8873C360.98 76.0947 361.053 76.3021 361.053 76.4403C361.053 78.1683 359.818 79.6199 358.221 80.0346C357.785 80.1037 357.35 80.1728 356.914 80.1728C356.769 80.1728 356.624 80.1728 356.406 80.1728C349.146 80.1728 345.443 75.68 345.443 69.2517C345.443 64.4824 345.443 48.7228 345.515 46.0271H342.031C339.925 46.0271 338.11 44.5755 337.892 42.571C337.674 40.29 339.562 38.4238 341.885 38.4238H345.515C345.515 33.8618 345.515 32.0647 345.515 32.0647C345.515 30.1293 346.968 28.4012 349 28.263C351.251 28.0556 353.211 29.7837 353.211 31.9264V38.4238H359.891C361.996 38.4238 363.812 39.8753 364.029 41.8107C364.247 44.0917 362.432 46.0271 360.036 46.0271H353.284C353.284 45.958 353.284 68.6296 353.284 68.6987Z" fill="#C47A2C"/>
</svg>
