<svg width="283" height="202" fill="none" xmlns="http://www.w3.org/2000/svg"><path d="M186.294 51.85c-1.375 7.86 2.162 16.603 9.137 20.337 3.831 2.063 8.252 2.554 12.28 4.224 3.93 1.768 7.663 5.501 7.073 9.824-.393 2.849-3.045 9.038 4.912 14.147 6.582 4.224 2.26 20.827-20.63 24.56-6.975 1.179-1.867-3.635-8.645-5.796-6.681-2.162-12.281-6.975-16.21-12.772-3.93-5.796-6.288-12.575-7.859-19.353-1.867-7.86-2.653-16.308.393-23.774 3.045-7.467 11.003-13.46 19.549-11.396z" fill="#282828"/><path d="M197.296 125.629c-2.162 0-2.653-.983-3.144-2.358-.393-1.277-.884-2.653-3.831-3.635-6.288-1.965-12.182-6.582-16.505-12.968-3.536-5.206-6.091-11.494-7.957-19.55-2.358-10.02-2.26-17.683.393-24.069 2.947-7.27 11.101-13.852 20.139-11.69.295.098.393.294.393.59-1.474 7.957 2.358 16.307 8.94 19.844 2.063 1.08 4.421 1.768 6.68 2.456 1.867.491 3.733 1.08 5.502 1.866 4.028 1.769 8.056 5.698 7.368 10.316-.098.393-.098.786-.197 1.277-.687 3.242-1.768 8.154 4.912 12.378 2.456 1.572 3.537 4.814 2.751 8.449-1.277 6.287-8.252 14.441-23.578 16.995-.786.099-1.375.099-1.866.099zm-14.442-73.68c-7.171 0-13.262 5.5-15.718 11.493-2.554 6.19-2.653 13.656-.393 23.48 1.866 7.86 4.421 14.147 7.859 19.157 4.126 6.189 9.824 10.61 15.915 12.575 3.439 1.08 4.028 2.947 4.519 4.224.393 1.375.688 2.063 3.93 1.572 14.834-2.358 21.515-10.217 22.792-16.21.687-3.242-.197-6.091-2.358-7.466-7.27-4.618-5.993-10.414-5.305-13.46.098-.49.196-.883.196-1.178.59-4.028-3.045-7.663-6.778-9.235-1.769-.786-3.635-1.277-5.403-1.768-2.358-.688-4.716-1.375-6.877-2.456-6.877-3.635-10.807-12.182-9.53-20.434a13.337 13.337 0 00-2.849-.295z" fill="#282828"/><path d="M158.785 32.89c2.357 11.298-10.414 27.312-15.031 37.921-1.474 3.439-3.733 6.583-4.912 10.12-1.474 4.224-1.474 8.743-1.081 13.262.786 8.35 3.242 16.995 9.137 22.988 5.894 5.993 15.816 8.645 23.086 4.421 6.386-3.733 9.333-11.691 8.94-19.157-.393-7.368-3.537-14.343-6.877-20.925-7.957-15.817-2.358-34.876-13.262-48.63z" fill="#282828"/><path d="M162.027 124.155c-5.403 0-11.199-2.358-15.325-6.582-5.305-5.403-8.449-13.263-9.333-23.283-.491-5.502-.099-9.824 1.179-13.46.687-2.062 1.768-4.027 2.849-5.992.687-1.375 1.473-2.75 2.161-4.224 1.375-3.046 3.34-6.582 5.403-10.217 5.207-9.137 11.101-19.452 9.529-27.41 0-.196.099-.49.295-.589.197-.098.491 0 .59.098 6.091 7.663 7.073 16.701 8.055 26.329.786 7.564 1.67 15.325 5.207 22.399 3.242 6.484 6.484 13.557 6.975 21.121.491 8.351-3.143 16.112-9.136 19.55-2.653 1.572-5.502 2.26-8.449 2.26zm-2.456-89.4c.491 7.958-5.01 17.586-9.922 26.133-2.063 3.635-4.126 7.172-5.403 10.119a56.878 56.878 0 01-2.162 4.224c-.982 1.867-2.063 3.831-2.75 5.796-1.278 3.537-1.572 7.663-1.081 13.066.884 9.824 3.93 17.487 9.038 22.694 6.189 6.287 15.817 8.154 22.497 4.322 5.698-3.34 9.137-10.61 8.645-18.665-.393-7.368-3.635-14.343-6.778-20.73-3.635-7.269-4.519-15.128-5.305-22.79-.983-8.744-1.867-17.095-6.779-24.168z" fill="#282828"/><path d="M174.311 91.246a225.085 225.085 0 01.098-16.505c-2.456-1.179-5.01-2.063-7.761-2.456-1.179-.196-2.554-.294-3.537.492-.589.49-3.34-1.965-3.634-1.278-1.965 4.618-3.93 15.719-5.895 20.336-.196.393-9.333 1.572-9.529 1.965-.688 1.474 4.028 7.565 4.519 7.859 25.149 16.701 38.707-8.35 38.707-8.35s-5.797-.786-12.968-2.063z" fill="#fff"/><path d="M165.362 107.749c-5.403 0-11.101-1.964-16.995-5.796-.295-.196-5.502-6.582-4.716-8.449.196-.392.196-.392 5.109-1.277 1.67-.294 3.831-.687 4.42-.884.983-2.26 1.965-6.189 2.849-9.922.983-3.832 1.965-7.86 2.948-10.217a.766.766 0 01.392-.393c.492-.197 1.081.196 2.064.786.393.294 1.178.688 1.375.688 1.081-.786 2.652-.688 3.831-.492 2.751.491 5.404 1.277 7.86 2.554a.54.54 0 01.294.492c-.294 4.912-.294 10.708-.196 16.013 6.778 1.277 12.575 1.867 12.673 1.867.196 0 .295.098.393.294.098.099.098.295 0 .491-.098.099-5.993 10.905-17.192 13.656-1.474.393-3.242.589-5.109.589zm-20.729-13.753c-.098 1.375 3.734 6.582 4.421 7.073 7.565 5.01 14.736 6.68 21.515 5.01 9.136-2.259 14.736-10.217 16.111-12.575a155.98 155.98 0 01-12.378-1.866c-.196 0-.393-.197-.393-.491-.196-5.305-.098-11.2.098-16.21a33.03 33.03 0 00-7.269-2.358c-.983-.196-2.26-.294-3.144.393-.59.393-1.376-.098-2.456-.688-.393-.196-.884-.49-1.081-.589-.982 2.26-1.866 6.091-2.849 9.824-.982 3.831-1.965 7.86-2.947 10.217-.196.393-.196.393-5.109 1.277-1.768.393-3.929.786-4.519.983z" fill="#282828"/><path d="M151.13 32.693c-1.376 5.501-2.456 11.297-5.895 15.915-1.866 2.554-7.466 16.897 2.456 25.542 5.207 4.52 12.28 6.877 20.041 5.501 5.207-.884 13.558-6.778 15.621-15.129 3.143 2.358 7.466 1.376 8.841-1.768.786-1.768-.393-4.912-2.554-5.6-1.67-.589-1.867-.589-3.537-.196.59-4.028 1.572-8.056 3.341-12.28-2.26-5.993-7.761-10.708-13.754-14.245-1.965-1.179-4.028-2.161-6.288-2.75-6.287-1.573-16.799-.59-18.272 5.01z" fill="#fff"/><path d="M163.405 80.535c-5.894 0-11.494-2.063-16.013-5.993-9.922-8.645-4.814-23.086-2.456-26.132 2.947-4.027 4.126-8.94 5.305-13.753.197-.688.295-1.376.491-1.965.393-1.572 1.474-2.947 3.144-3.93 4.126-2.456 11.199-2.554 15.817-1.375 2.456.688 4.715 1.866 6.484 2.849 5.01 2.849 11.395 7.76 13.95 14.441v.393c-1.474 3.635-2.555 7.27-3.242 11.396 1.08-.295 1.572-.098 3.045.393 1.081.393 1.965 1.277 2.555 2.554.589 1.278.687 2.751.196 3.734-.589 1.571-1.965 2.652-3.733 3.143-1.768.491-3.635.197-5.305-.786-2.456 8.35-10.708 13.95-15.817 14.835-1.474.098-2.947.196-4.421.196zM151.616 32.79c-.196.688-.294 1.376-.491 1.965-1.179 4.912-2.456 10.02-5.501 14.147-1.277 1.768-7.663 16.111 2.357 24.855 5.404 4.715 12.379 6.68 19.649 5.403 4.912-.786 13.164-6.582 15.227-14.736 0-.197.196-.295.295-.393.196-.099.294 0 .491.098 1.473 1.08 3.34 1.474 5.01.982 1.375-.393 2.554-1.277 3.046-2.554.294-.786.196-1.965-.197-2.947-.491-.983-1.179-1.67-1.965-1.965-1.572-.59-1.67-.59-3.242-.197-.196 0-.294 0-.491-.098a.751.751 0 01-.196-.49c.687-4.52 1.768-8.351 3.34-12.183-2.456-6.385-8.645-11.003-13.459-13.753-1.67-.983-3.832-2.162-6.189-2.751-4.323-1.08-11.101-1.08-15.031 1.277-1.375.884-2.26 2.063-2.653 3.34z" fill="#282828"/><path d="M170.666 64.13c-.589 0-1.179-.1-1.768-.197-4.323-1.081-6.877-5.797-5.6-10.61 1.179-4.716 5.698-7.761 10.021-6.583 2.063.492 3.831 1.965 4.912 3.93s1.277 4.323.688 6.68c-1.081 4.028-4.618 6.78-8.253 6.78zm.688-16.604c-3.242 0-6.287 2.456-7.172 6.091-1.08 4.225 1.179 8.449 4.913 9.333 3.733.983 7.761-1.67 8.743-5.894.491-2.063.295-4.126-.688-5.895-.884-1.768-2.456-2.947-4.224-3.438-.491-.197-.983-.197-1.572-.197zm-21.909 9.334c-.59 0-1.179-.099-1.769-.197-2.063-.491-3.831-1.965-4.912-3.93-1.08-1.964-1.277-4.322-.687-6.68.589-2.26 1.964-4.224 3.831-5.502 1.867-1.277 4.126-1.67 6.189-1.178 2.063.49 3.831 1.965 4.912 3.93 1.081 1.964 1.277 4.322.688 6.68-1.081 4.126-4.519 6.877-8.252 6.877zm.786-16.603a7.009 7.009 0 00-3.832 1.179c-1.67 1.08-2.849 2.849-3.438 4.912-.491 2.063-.295 4.126.687 5.894.885 1.769 2.456 2.947 4.225 3.439 3.733.982 7.761-1.67 8.743-5.895.491-2.063.295-4.126-.688-5.894-.884-1.769-2.456-2.948-4.224-3.439-.393-.196-.982-.196-1.473-.196zm45.697-9.372c7.684-1.69 12.544-9.288 10.855-16.972-1.689-7.684-9.288-12.543-16.972-10.854-7.684 1.689-12.543 9.287-10.854 16.971 1.689 7.684 9.287 12.544 16.971 10.855z" fill="#282828"/><path d="M192.956 31.71c-.393 0-.785 0-1.178-.098-8.056-.687-14.147-7.76-13.459-15.914.687-8.056 7.761-14.147 15.915-13.46 8.055.688 14.146 7.762 13.459 15.916-.786 7.662-7.172 13.557-14.737 13.557zm-.098-28.49c-7.073 0-13.066 5.404-13.655 12.576-.59 7.564 5.01 14.146 12.575 14.834 7.564.59 14.146-5.01 14.834-12.575.589-7.564-5.01-14.146-12.575-14.834h-1.179z" fill="#282828"/><path d="M185.502 57.352c-1.277-6.582-1.867-11.101-.491-17.88-15.326 2.456-27.508-1.08-39.199-6.19.59-2.16 2.751-6.385 4.323-7.956 3.93-3.832 8.056-6.877 16.505-7.27 5.894-.295 13.262.884 18.371 3.831 5.108 2.947 8.546 7.663 11.002 12.673 1.867 3.93 2.653 9.53 1.769 14.441-.786 4.127-2.849 6.68-6.189 9.923-.786-.884-1.474-1.769-2.653-2.063-1.179-.295-2.161 0-3.438.49z" fill="#282828"/><path d="M191.689 59.316c-.197 0-.295-.098-.393-.196l-.098-.098c-.688-.884-1.278-1.572-2.26-1.769-.982-.196-1.867 0-3.144.492-.098.098-.294 0-.393 0-.098 0-.196-.197-.196-.295-1.179-5.895-1.867-10.61-.59-17.389-16.013 2.358-28.588-1.866-38.805-6.385-.196-.099-.294-.295-.294-.59.589-2.26 2.849-6.582 4.42-8.252 4.323-4.323 8.744-7.073 16.8-7.466 5.305-.197 12.967.687 18.665 3.93 4.618 2.652 8.351 6.974 11.2 12.869 1.965 4.224 2.652 9.824 1.768 14.736-.786 4.519-3.242 7.172-6.287 10.217-.197.197-.295.197-.393.197zm-3.537-3.045c.295 0 .59 0 .884.098 1.179.197 1.965.983 2.653 1.769 3.242-3.242 4.912-5.502 5.599-9.235.885-4.617.197-10.217-1.67-14.147-2.75-5.698-6.385-9.922-10.806-12.476-5.502-3.144-12.968-4.028-18.076-3.832-8.646.393-12.772 3.733-16.21 7.172-1.375 1.375-3.439 5.207-4.126 7.368 10.119 4.42 22.595 8.547 38.51 5.993.197 0 .295 0 .393.196.098.098.197.295.098.491-1.375 6.779-.786 11.396.393 17.094.884-.294 1.572-.491 2.358-.491zm-26.531 14.244c-1.768 0-3.34-.786-4.028-2.161-.098-.197 0-.59.197-.688.196-.098.589 0 .687.197.59 1.08 1.769 1.67 3.242 1.571 1.67 0 3.242-.687 4.519-1.964a.475.475 0 01.688 0 .474.474 0 010 .687c-1.474 1.376-3.34 2.162-5.207 2.162 0 .196 0 .196-.098.196zm8.938-14.932c.196-.687-.295-1.375-.983-1.572-.687-.196-1.473.197-1.571.885-.197.687.294 1.375.982 1.572a1.262 1.262 0 001.572-.885zm-18.945-6.386c.196-.688-.295-1.376-.983-1.572-.688-.197-1.473.196-1.572.884-.196.688.295 1.375.983 1.572.687.196 1.473-.197 1.572-.884zm4.114 10.413c-.098 0-.196 0-.294-.098l-1.474-1.277c-.197-.196-.491-.491-.491-.884 0-.59.491-.884.786-.982 1.965-1.18 3.242-3.242 3.438-5.404 0-.294.295-.49.59-.393.294 0 .491.295.393.59-.295 2.554-1.769 4.814-3.93 6.189-.098 0-.197.098-.295.197l.197.196 1.473 1.277a.474.474 0 010 .688c-.098-.197-.196-.098-.393-.098zm8.95-8.939c-.196 0-.393-.098-.393-.294-.786-1.474-2.357-2.555-4.028-2.751-.884-.098-1.866.098-2.063.786-.098.294-.393.393-.589.294-.295-.098-.393-.393-.295-.589.491-1.179 1.867-1.572 3.144-1.375 2.063.294 3.93 1.572 4.814 3.34.098.196 0 .59-.197.688-.294-.197-.393-.099-.393-.099z" fill="#282828"/><path d="M185.088 57.252h-.197l-6.091-2.358c-.294-.098-.393-.393-.294-.687.098-.295.393-.393.687-.295l6.091 2.358c.295.098.393.393.295.687a.54.54 0 01-.491.295z" fill="#282828"/><path d="M184.512 61.969h-.196c-.295-.099-.393-.393-.295-.688.59-1.474.884-3.144.884-4.716 0-.294.197-.49.492-.49.294 0 .491.196.491.49 0 1.769-.295 3.537-.983 5.109 0 .098-.196.295-.393.295z" fill="#282828"/><path d="M197.276 143.998c5.993-3.438 15.817-15.718 13.164-25.739-1.473-5.305-4.027-24.364-31.83-26.132-.589 8.842-9.234 12.869-14.736 13.557-3.045.393-14.343 0-14.343-13.164-7.466.393-16.995 1.572-31.633 7.368-11.101 4.421-29.964 7.27-29.964 7.27S68.876 82.794 62 72.774c-3.733-5.502-10.512 17.29-14.736 7.662-.59-1.473 19.55 38.904 21.121 41.949 8.547 15.915 48.138 5.895 55.801 5.895-.786 11.101 4.028 17.683 7.859 21.023 1.179 25.641-5.108 43.422-5.108 43.422s35.17 13.066 71.421 2.26c2.849-.786-6.877-23.185-1.081-50.987z" fill="#F9B974"/><path d="M167.718 199.701c-7.073 0-13.459-.59-18.666-1.376-13.164-1.866-22.104-5.206-22.202-5.206-.295-.099-.393-.393-.295-.59.098-.196 6.189-17.88 5.109-43.029-3.341-2.947-8.449-9.431-7.86-20.729-1.571.098-4.224.491-7.466.884-14.441 2.063-41.261 5.993-48.236-7.073-.884-1.572-6.386-12.673-11.789-23.381a3663.277 3663.277 0 01-8.743-17.389c-.197-.295-.393-.688-.59-1.179-.196-.393.098-.59.197-.688.393-.196.59.197.884.59.098.196.196.393.393.688.393.687.884.982 1.375 1.08 1.572.197 3.635-2.849 5.502-5.501 2.063-2.948 3.733-5.404 5.501-5.404.688 0 1.277.393 1.768 1.081 6.386 9.333 23.775 31.634 25.74 34.09 2.456-.393 19.353-3.242 29.57-7.27 14.54-5.796 24.265-6.975 31.732-7.467.098 0 .294 0 .393.099.098.098.196.196.196.393 0 4.322 1.277 7.564 3.733 9.726 3.242 2.848 7.86 3.143 10.119 2.849 4.716-.59 13.754-4.028 14.343-13.067 0-.098.098-.294.197-.294.098-.099.196-.099.393-.099 26.23 1.67 30.356 18.764 31.928 25.248.098.492.196.885.295 1.278 2.75 10.217-7.172 22.497-13.165 26.132-3.733 18.076-.786 34.187.786 42.832.983 5.502 1.474 7.958.098 8.351-11.199 3.438-21.809 4.421-31.24 4.421zm-40.082-7.27c1.965.688 10.119 3.34 21.514 5.01 12.084 1.769 30.455 2.653 49.023-2.849.491-.294-.197-4.028-.786-7.27-1.572-8.743-4.618-25.051-.786-43.422 0-.098.098-.295.196-.295 5.993-3.536 15.424-15.718 12.87-25.149a15.46 15.46 0 01-.295-1.376c-1.67-6.778-5.502-22.595-30.553-24.462-.884 9.333-10.217 12.87-15.129 13.459-.688.099-6.582.688-10.905-3.143-2.554-2.26-3.929-5.6-4.028-10.02-7.368.392-16.799 1.67-30.945 7.367-11.003 4.421-29.865 7.27-30.062 7.368-.197 0-.393 0-.491-.196-.197-.197-19.157-24.56-25.936-34.385-.49-.687-.786-.687-.884-.687-1.277 0-3.045 2.652-4.715 5.01-2.162 3.144-4.225 6.091-6.386 5.895h-.197l1.278 2.554c1.768 3.438 4.028 8.055 6.484 12.87 5.108 10.216 11.002 21.809 11.788 23.381 6.68 12.378 33.009 8.547 47.156 6.582 3.635-.491 6.582-.983 8.154-.983.098 0 .295.099.393.197.098.098.098.196.098.393-.786 11.494 4.519 17.88 7.663 20.63.098.099.196.197.196.393 1.277 23.185-3.733 40.082-4.715 43.128z" fill="#282828"/><path d="M66.129 18.152L47.365 38.095 39.21 129.46l75.645 7.565 10.021-112.78-58.748-6.092z" fill="#fff"/><path d="M114.855 137.516l-75.645-7.565c-.295 0-.491-.295-.491-.491l8.056-91.364c0-.098.098-.196.098-.295L65.637 17.86c.098-.099.294-.197.393-.197l58.748 6.091c.294 0 .491.295.491.491l-9.923 112.781c0 .098-.098.294-.196.294-.098.197-.197.197-.295.197zm-75.056-8.547l74.663 7.466 9.923-111.798-58.06-5.992-18.47 19.648-8.056 90.676z" fill="#282828"/><path d="M47.375 38.095l16.996 1.277 1.768-21.22-18.764 19.943z" fill="#C47A2C"/><path d="M64.457 39.864c-.098 0-.098 0 0 0l-17.094-1.277c-.196 0-.393-.098-.393-.295-.098-.196 0-.393.099-.491l18.764-19.943c.098-.196.392-.196.589-.098a.54.54 0 01.295.491l-1.67 21.22c-.197.197-.393.393-.59.393zm-16.111-2.161l15.522 1.179 1.572-19.354-17.094 18.175zm60.723 1.768l-13.852-1.473c-.098 0-.196-.099-.098-.197 0-.098.098-.196.196-.098l13.754 1.473c.098 0 .196.099.098.197.098 0 0 .098-.098.098zm-.404 5.306l-19.55-2.063c-.098 0-.196-.098-.098-.196 0-.098.099-.197.197-.098l19.451 2.063c.099 0 .197.098.099.196 0 0 0 .098-.099.098zm-2.147 23.479l-47.942-5.01c-.098 0-.196-.099-.098-.197 0-.098.098-.196.197-.098l47.941 5.01c.098 0 .197.098.098.197 0 0-.098.098-.196.098zm-1.477 17.291L57.1 80.537c-.098 0-.197-.099-.098-.197 0-.098.098-.196.196-.098l47.942 5.01c.098 0 .196.098.098.197-.098.098-.098.098-.197.098zm-1.562 17.389l-47.942-5.01c-.098 0-.196-.099-.098-.197 0-.099.098-.197.197-.099l47.941 5.011c.098 0 .197.098.098.196 0 0-.098.099-.196.099z" fill="#282828"/><path d="M141.693 105.685c-2.554-2.554-5.403-4.912-8.154-11.1-1.67-3.93-7.466-12.674-9.529-13.754-3.537-1.769-5.698-3.439-8.94-3.832-2.751-.393-8.252.295-8.35 1.277-.492 3.046 6.778 1.08 7.368 1.277 2.161.786 4.224 1.572 6.189 4.028-2.948.099-8.154.786-9.431 1.572-1.376.884-5.011 5.305-5.404 6.091-.687 1.375 0 2.75 1.769 1.277.098-.098 3.536-2.554 4.814-4.126.491-.59 5.697-1.08 8.153-.688-2.456-.785-7.073-.294-8.153.688-.197.197-4.127 4.42-4.323 4.814-.982 1.768.688 2.456 2.063 1.375 1.572-1.179 3.144-3.045 3.537-3.242 2.161-1.08 4.42-.49 6.287-.294-1.867-.393-3.93-.688-6.189.098-.393.196-4.519 3.438-3.537 5.108.491.884 2.456.393 4.912-2.26 1.376.197 2.26.492 3.439.787.786.196 3.635 6.385 6.778 8.252.688.393 2.849 5.796 6.681 13.066.884 1.572 4.715 4.028 8.94-1.867 1.473-1.768 3.438-6.189 1.08-8.547z" fill="#fff"/><path d="M134.911 118.85h-.295c-1.67-.098-3.045-1.179-3.537-2.162a243.58 243.58 0 01-4.42-8.841c-.983-1.965-1.867-3.832-2.064-4.028-2.063-1.179-3.929-4.126-5.305-6.19-.491-.883-1.178-1.768-1.375-1.964a16.162 16.162 0 01-1.081-.295c-.589-.196-1.178-.294-1.964-.491-1.67 1.768-3.242 2.75-4.421 2.652-.491 0-.884-.294-1.081-.589a1.362 1.362 0 01-.196-1.08c-.688.294-1.474.196-1.867-.197-.196-.197-.786-.884-.098-2.161-1.081.786-1.768.393-2.063.196-.59-.491-.688-1.474-.197-2.358.492-.884 4.126-5.403 5.6-6.287 1.375-.884 5.894-1.474 8.743-1.572-1.571-1.67-3.34-2.456-5.305-3.144-.196 0-.687.099-1.178.099-2.555.294-5.011.59-6.091-.492-.295-.294-.59-.785-.393-1.473.294-1.572 6.582-2.063 8.94-1.67 2.554.393 4.519 1.375 6.778 2.652.786.393 1.474.786 2.358 1.277 2.26 1.18 8.056 9.923 9.726 13.95 2.358 5.404 4.814 7.762 7.171 10.119l.885.884c2.652 2.653.491 7.27-1.081 9.53-2.554 2.849-4.716 3.635-6.189 3.635zm-20.336-25.052c1.081.099 1.768.295 2.456.492.393.098.688.196 1.081.294.491.099.884.786 1.964 2.358 1.278 1.965 3.046 4.814 5.011 5.895.491.294.982 1.277 2.456 4.519a243.58 243.58 0 004.42 8.841c.295.59 1.278 1.474 2.751 1.572 1.277.098 3.242-.491 5.403-3.537 1.376-1.866 3.439-6.09 1.278-8.252l-.885-.884c-2.357-2.259-4.912-4.814-7.368-10.413-1.768-4.028-7.466-12.477-9.332-13.46a63.892 63.892 0 00-2.456-1.277c-2.26-1.178-4.028-2.16-6.386-2.554-2.751-.393-7.368.393-7.859.983 0 .393.098.49.196.589.786.786 3.831.393 5.305.197.982-.099 1.375-.197 1.67-.099 2.26.786 4.421 1.67 6.386 4.225.098.098.098.393.098.49-.098.197-.196.296-.393.296-3.242.098-8.154.786-9.235 1.571-1.277.786-4.813 5.109-5.206 5.895-.295.59-.197 1.08-.099 1.179.099.098.492 0 1.081-.492 0 0 .098-.098.197-.098 1.866-1.375 3.045-2.26 3.733-2.947.491-.491.786-.884.884-.982 1.277-1.18 6.189-1.572 8.645-.786.295.098.393.294.295.59-.098.294-.295.392-.59.392-2.357-.491-7.171.098-7.662.491-.197.197-.492.59-.885.983-1.178 1.277-3.143 3.536-3.34 3.831-.294.491-.294.884-.098.983.295.196.884.196 1.474-.295.196-.197.393-.295.687-.491 1.081-1.474 2.849-2.751 3.144-2.948.393-.098.688-.196 1.081-.294.589-.197 1.277-.197 1.866-.197 1.376 0 2.554.197 3.537.393.295.098.393.295.393.59 0 .294-.295.49-.59.393-.294 0-.687-.099-.982-.099-.786-.098-1.67-.294-2.554-.196-.491 0-.983.098-1.474.196a4.793 4.793 0 00-1.081.393c-.098.099-.589.492-.884.884-.491.492-1.179 1.18-1.866 1.769-.295.393-.491.688-.59.982-.098.295-.098.491 0 .688 0 0 .099.098.295.196.688.099 2.063-.59 3.733-2.456 0-.294.197-.393.295-.393z" fill="#282828"/><path d="M34.704 83.779c-.786-4.225 1.277-12.084 2.947-13.656 2.947-2.652 4.519-4.814 7.663-6.09 2.554-1.081 8.055-1.867 8.448-.983 1.277 2.75-6.189 2.849-6.778 3.242-1.867 1.277-3.635 2.652-4.912 5.501 2.849-.687 8.055-1.375 9.529-.982 1.572.491 6.19 3.831 6.877 4.519 1.08 1.179.688 2.653-1.376 1.67-.098-.098-4.126-1.474-5.796-2.652-.687-.492-5.796.49-7.957 1.572 2.161-1.474 6.778-2.162 8.056-1.474.294.196 5.108 3.144 5.501 3.537 1.474 1.473 0 2.554-1.67 1.964-1.768-.687-3.831-2.063-4.323-2.161-2.456-.491-4.42.688-6.189 1.474 1.67-.786 3.635-1.769 5.993-1.474.393 0 5.305 2.161 4.814 3.93-.295.982-2.26 1.08-5.305-.884-1.277.589-1.965 1.08-3.046 1.67-.786.393-1.768 7.171-4.42 9.725-.492.492-.983 5.305-1.474 9.726-.393 4.814-5.698-13.655-6.582-18.174z" fill="#fff"/><path d="M40.99 103.131c-.492 0-1.376-.393-3.832-8.252-1.376-4.42-2.554-9.038-2.947-11.003-.884-4.322 1.178-12.378 3.143-14.048.688-.688 1.376-1.277 1.965-1.867 1.867-1.768 3.439-3.34 5.796-4.322 2.26-.983 8.45-2.162 9.038-.688.295.688.197 1.277 0 1.572-.687 1.277-3.241 1.768-5.796 2.063-.49.098-1.08.098-1.179.196-1.67 1.18-3.143 2.358-4.224 4.421 2.75-.59 7.27-1.179 8.842-.786 1.67.492 6.385 3.93 7.073 4.618.688.785.884 1.768.491 2.357-.196.295-.786.786-1.965.295.983 1.08.59 1.867.393 2.063-.393.491-.982.786-1.768.688.197.393.197.786.098 1.179-.098.393-.393.687-.884.884-1.08.393-2.947-.098-5.01-1.375-.688.294-1.277.687-1.768.982-.295.196-.59.393-.983.59-.196.196-.491 1.277-.786 2.259-.786 2.456-1.768 5.698-3.536 7.466-.393.491-.786 4.617-1.081 7.663-.098.589-.098 1.179-.197 1.768 0 .295-.098 1.277-.884 1.277.099 0 .099 0 0 0zm11.297-39.983c-1.67 0-4.814.49-6.779 1.277-2.26.982-3.733 2.357-5.501 4.126-.59.59-1.277 1.179-1.965 1.866-1.572 1.376-3.635 9.038-2.849 13.165.786 4.224 4.323 16.111 5.698 18.174v-.196c.098-.59.098-1.179.197-1.769.589-5.403.884-7.76 1.375-8.252 1.572-1.572 2.554-4.814 3.242-6.975.59-1.867.786-2.554 1.277-2.849.393-.197.688-.393.982-.59a14.25 14.25 0 012.162-1.178c.196-.099.294-.099.49 0 2.162 1.375 3.734 1.67 4.323 1.375.197-.098.197-.196.197-.196 0-.197 0-.393-.197-.59-.196-.295-.49-.59-.785-.884-.786-.393-1.572-.786-2.162-1.179-.491-.295-.982-.59-1.08-.59-.393-.098-.786-.098-1.18-.098-.49 0-.883.099-1.375.197-.786.196-1.572.59-2.358.884-.294.098-.589.295-.884.393-.294.098-.49 0-.687-.295-.099-.196 0-.491.196-.687.884-.492 2.063-.983 3.34-1.376a5.72 5.72 0 011.867-.294h1.08c.393 0 2.358.884 3.832 1.964.295.099.491.197.786.295.688.295 1.277.098 1.473-.197.099-.196 0-.589-.393-.982-.294-.196-2.75-1.866-4.224-2.75-.59-.295-.884-.492-1.179-.688h-.098c-.884-.197-5.305.59-7.368 1.572-.197.098-.491 0-.688-.197a.518.518 0 01.197-.688c2.161-1.473 6.975-2.357 8.547-1.572.098 0 .49.295 1.08.688.885.491 2.26 1.08 4.421 1.867.098 0 .197.098.197.098.687.295 1.08.295 1.179.197.098-.197 0-.59-.393-1.081-.59-.688-5.207-3.93-6.583-4.323-1.277-.393-6.09.197-9.332.983-.197 0-.393 0-.492-.197-.098-.098-.196-.294-.098-.491 1.18-2.947 3.046-4.42 5.01-5.698.197-.196.59-.196 1.572-.295 1.474-.196 4.52-.59 5.01-1.571.099-.099.099-.295 0-.59-.196.295-.49.197-1.08.197zm116.618 66.705c-1.376-.196-21.81-18.174-27.508-23.774a.475.475 0 010-.687.474.474 0 01.688 0c6.877 6.68 25.248 22.693 26.918 23.577 1.965-.196 19.255-13.36 25.837-18.371.197-.196.491-.098.688.098.196.197.098.492-.098.688-17.684 13.361-24.953 18.469-26.525 18.469z" fill="#282828"/><path d="M165.753 160.307c-1.08 0-1.965-.098-2.75-.393-5.993-1.965-24.462-27.606-30.553-36.054l-.688-.983c-1.474-2.063-3.045-6.484-1.768-8.94.098-.294.393-.393.687-.196.295.098.393.393.197.688-.983 2.063.393 5.992 1.768 7.957l.688.982c16.21 22.399 26.328 34.483 30.061 35.662 5.895 1.965 18.371-4.028 37.234-17.88.196-.196.491-.098.687.098.197.197.099.491-.098.688-16.996 12.378-28.588 18.371-35.465 18.371z" fill="#282828"/><path d="M135.001 122.19c-.098 0-.196-.098-.196-.098 0-.099.098-.197.098-.197 3.438-.491 5.993-3.144 8.547-6.091.098-.098.196-.098.196 0 .099.098.099.197 0 .197-2.456 3.045-5.108 5.698-8.645 6.189zm1.985 2.652c-.099 0-.099-.099-.197-.099 0-.098 0-.196.098-.196 1.474-.295 2.751-.983 3.832-2.063.098-.098.196-.098.196 0 .098.098.098.196 0 .196-1.08 1.081-2.456 1.769-3.929 2.162zm31.514 69.161c-17.192 0-32.321-3.143-38.019-4.519-.098 0-.098-.098-.098-.196 0-.099.098-.099.196-.099 8.547 2.064 38.511 8.253 64.446 1.474.098 0 .197 0 .197.098 0 .099 0 .197-.099.197-8.743 2.259-17.978 3.045-26.623 3.045zm-44.488-64.74h-.196c-.295-.098-.393-.393-.295-.688l3.537-9.136c.098-.295.393-.393.688-.295.294.099.393.393.294.688l-3.536 9.136a.541.541 0 01-.492.295z" fill="#282828"/><path d="M245.641 165.059l20.6-38.6 8.2 4.4-20.5 38.6-7.4 3.5-.9-7.9z" fill="#fff"/><path d="M246.541 173.459c-.1 0-.2 0-.2-.1-.1-.1-.2-.2-.3-.4l-.9-7.9c0-.1 0-.2.1-.3l20.6-38.6c.1-.1.2-.2.3-.2h.4l8.3 4.4c.2.1.3.4.2.7l-20.6 38.6c-.1.1-.1.2-.2.2l-7.4 3.5c-.2.1-.2.1-.3.1zm-.4-8.3l.8 7.1 6.6-3.1 20.3-38-7.4-3.9-20.3 37.9z" fill="#282828"/><path d="M253.736 169.66c-.1 0-.2 0-.2-.1l-8-4.3c-.2-.1-.3-.4-.2-.7.1-.2.4-.3.7-.2l8 4.3c.2.1.3.4.2.7-.2.2-.3.3-.5.3zm-8.297 5.8c-.1 0-.2 0-.2-.1-.2-.1-.3-.4-.2-.7l1.1-2.1c.1-.2.4-.3.7-.2.2.1.3.4.2.7l-1.1 2.1c-.1.2-.3.3-.5.3zM271.217 120l-3.858 7.236 5.913 3.152 3.857-7.236-5.912-3.152zM87.5 151.8c0-.7.6-1.3 1.3-1.3.7 0 1.3.6 1.3 1.3 0 .7-.6 1.3-1.3 1.3-.7 0-1.3-.6-1.3-1.3z" fill="#282828"/><path d="M88.8 153.6c-1 0-1.8-.8-1.8-1.8s.8-1.8 1.8-1.8 1.8.8 1.8 1.8c.1 1-.7 1.8-1.8 1.8zm0-2.6c-.5 0-.8.4-.8.8 0 .5.4.8.8.8.5 0 .8-.4.8-.8.1-.5-.3-.8-.8-.8zm26.598.8c0-.7.6-1.3 1.3-1.3.7 0 1.3.6 1.3 1.3 0 .7-.6 1.3-1.3 1.3-.6 0-1.3-.6-1.3-1.3z" fill="#282828"/><path d="M116.8 153.6c-1 0-1.8-.8-1.8-1.8s.8-1.8 1.8-1.8 1.8.8 1.8 1.8-.8 1.8-1.8 1.8zm0-2.6c-.5 0-.8.4-.8.8 0 .5.4.8.8.8s.8-.4.8-.8c0-.5-.3-.8-.8-.8zm-15.3.8c0-.7.6-1.3 1.3-1.3.7 0 1.3.6 1.3 1.3 0 .7-.6 1.3-1.3 1.3-.7 0-1.3-.6-1.3-1.3z" fill="#282828"/><path d="M102.8 153.6c-1 0-1.8-.8-1.8-1.8s.8-1.8 1.8-1.8 1.8.8 1.8 1.8c.1 1-.8 1.8-1.8 1.8zm0-2.6c-.5 0-.8.4-.8.8 0 .5.4.8.8.8.5 0 .8-.4.8-.8.1-.5-.3-.8-.8-.8zm144.334-62.833c-.2.031-.354-.081-.385-.28-.031-.2.081-.354.28-.386l35.117-5.588-6.829-43.444c-.031-.2.081-.353.28-.385.2-.031.354.081.385.28l6.882 43.777c.031.2-.081.353-.28.385l-35.45 5.64z" fill="#282828"/><path d="M243.378 39.124l-6.456 9.673 5.616 35.726 34.851-5.547-6.934-44.109-27.077 4.257z" fill="#fff"/><path d="M242.593 84.857c-.067.01-.21-.035-.277-.025-.077-.056-.087-.123-.108-.256l-5.617-35.726c-.01-.066-.02-.133.036-.21l6.455-9.673c.056-.077.112-.154.245-.175l27.144-4.267c.2-.031.354.081.385.28l6.934 44.11c.032.2-.08.353-.28.384l-34.917 5.558zm-5.315-35.978l5.543 35.26 34.252-5.453-6.83-43.443-26.611 4.183-6.354 9.453z" fill="#282828"/><path d="M236.914 48.8l7.83-1.366-1.374-8.306-6.456 9.673z" fill="#F9B974"/><path d="M236.983 49.199a.37.37 0 01-.364-.148c-.087-.122-.042-.266.014-.343l6.446-9.74c.045-.143.245-.174.378-.195a.371.371 0 01.252.301l1.374 8.306c.031.2-.081.353-.281.385l-7.819 1.434zm6.196-9.155l-5.513 8.297 6.699-1.19-1.186-7.107zm21.719 2.447l-6.387 1.004c-.067.01-.144-.045-.154-.112a.143.143 0 01.112-.154l6.387-1.004c.066-.01.143.046.154.112.01.067-.046.144-.112.154zm.313 2.063l-8.981 1.412c-.067.01-.144-.046-.154-.112a.143.143 0 01.112-.154l8.981-1.412c.067-.01.144.046.154.112a.143.143 0 01-.112.154zm1.458 9.182l-22.088 3.472a.145.145 0 01-.154-.112c-.01-.067.046-.144.112-.154l22.088-3.472a.145.145 0 01.154.112c.01.066-.046.143-.112.154zm1.062 6.785l-22.087 3.472c-.067.01-.144-.045-.154-.112-.011-.066.045-.143.112-.154l22.087-3.472c.067-.01.144.045.154.112a.143.143 0 01-.112.154zm1.078 6.787l-22.087 3.472c-.067.01-.144-.045-.154-.112-.011-.066.045-.143.112-.154l22.088-3.472c.066-.01.143.046.154.112a.145.145 0 01-.113.154z" fill="#282828"/><g clip-path="url(#clip0_6783_74377)"><path d="M65.647 169.555l-9.108 31.883-39.236-1.619-4.764-30.405 53.108.141z" fill="#C47A2C"/><path d="M56.538 201.79l-39.236-1.549c-.14 0-.28-.14-.35-.281l-4.765-30.475c0-.071 0-.211.07-.282.07-.07.14-.141.28-.141l53.11.141c.14 0 .21.071.28.141.07.07.07.211.07.282l-9.179 31.882c0 .141-.14.282-.28.282zm-38.956-2.323l38.676 1.549 8.898-31.109-52.268-.141 4.694 29.701z" fill="#282828"/><path d="M56.754 154.352l-.63 47.296-41.968-.141-.21-47.155h42.808z" fill="#fff"/><path d="M56.123 202l-41.968-.141c-.21 0-.35-.141-.35-.352l-.14-47.155c0-.07.07-.211.07-.282.07 0 .14-.07.21-.07h42.808c.07 0 .21.07.28.141.07.07.07.141.07.281l-.63 47.296c0 .141-.14.282-.35.282zm-41.618-.845l41.267.071.63-46.522H14.366l.14 46.451z" fill="#282828"/><path d="M49.19 173.496H32.233a.15.15 0 01-.14-.14c0-.071.07-.141.14-.141h17.025c.07 0 .14.07.14.141-.07.07-.14.14-.21.14zm-.001 7.248H34.265a.15.15 0 01-.14-.14c0-.071.07-.141.14-.141H49.19c.07 0 .14.07.14.141 0 .07-.07.14-.14.14zm0 7.321H34.265c-.07 0-.14-.071-.14-.141 0-.07.07-.141.14-.141H49.19c.07 0 .14.071.14.141 0 .07-.07.141-.14.141z" fill="#282828"/><path d="M18.428 162.797l6.516 6.827 24.592-.352 6.586 32.375-47.853-.14-7.917-38.78 18.076.07z" fill="#fff"/><path d="M56.121 202l-47.853-.141c-.14 0-.28-.141-.35-.282L0 162.797c0-.07 0-.211.07-.281.07-.071.14-.141.28-.141l18.147.07c.07 0 .21.071.28.141l6.376 6.686 24.452-.352c.14 0 .28.141.35.282l6.586 32.375c0 .071 0 .211-.07.282-.14.07-.21.141-.35.141zm-47.573-.845l47.153.141-6.446-31.672-24.312.282a.534.534 0 01-.28-.141l-6.376-6.616-17.516-.07 7.777 38.076zm39.726-38.92H24.382c-.07 0-.14-.071-.14-.141 0-.07.07-.141.14-.141h23.892c.07 0 .14.071.14.141 0 .07-.07.141-.14.141zm0 3.66H35.382c-.07 0-.14-.071-.14-.141 0-.07.07-.141.14-.141h12.892c.07 0 .14.071.14.141 0 .07-.07.141-.14.141z" fill="#282828"/></g><defs><clipPath id="clip0_6783_74377"><path fill="#fff" transform="translate(0 154)" d="M0 0h66v48H0z"/></clipPath></defs></svg>