<svg width="257" height="234" fill="none" xmlns="http://www.w3.org/2000/svg"><path d="M210.023 229.083l-8.289-2.294-1.066 3.855 8.288 2.294 1.067-3.855z" fill="#282828"/><path d="M208.939 233.438h-.1l-8.3-2.3c-.1 0-.2-.1-.3-.2-.1-.1-.1-.2 0-.4l1.1-3.8c.1-.3.3-.4.6-.3l8.3 2.3c.1 0 .2.1.3.2.1.1.1.2 0 .4l-1.1 3.8c-.1.1-.3.3-.5.3zm-7.7-3.1l7.3 2 .8-2.9-7.3-2-.8 2.9z" fill="#282828"/><path d="M237.338 195.937c3.3-11.8-3.8-24-15.7-27-11.2-2.8-22.8 3.7-26.2 14.7-1.9 6-1 12.2 1.9 17.3 3.1 5.5 5.6 9.3 3.9 15.4l14.5 4c1.7-6.1 5.6-8 11.1-11.1 5-2.7 8.9-7.4 10.5-13.3z" fill="#fff"/><path d="M215.736 220.838h-.1l-14.5-4c-.3-.1-.4-.3-.3-.6 1.5-5.5-.5-9.1-3.3-14-.2-.3-.4-.7-.6-1-3.1-5.4-3.8-11.7-1.9-17.6 1.7-5.4 5.4-10 10.4-12.8 5-2.8 10.8-3.6 16.4-2.2 5.9 1.5 10.8 5.2 13.9 10.4 3.1 5.2 3.8 11.4 2.2 17.2-1.6 5.8-5.4 10.7-10.7 13.6l-.6.3c-5.3 2.9-8.7 4.8-10.3 10.5 0 .1-.1.2-.2.3-.2-.1-.3-.1-.4-.1zm-13.9-4.9l13.6 3.8c1.7-5.7 5.5-7.8 10.6-10.6l.6-.3c5.1-2.8 8.7-7.4 10.3-13 1.5-5.6.8-11.4-2.1-16.4-2.9-5-7.6-8.6-13.3-10-11-2.8-22.2 3.6-25.6 14.4-1.8 5.7-1.1 11.7 1.8 16.9.2.4.4.7.6 1 2.7 4.8 4.9 8.6 3.5 14.2z" fill="#282828"/><path d="M199.037 218.837l1.9-6.8 17.2 4.8-1.9 6.8c-1.3 4.7-6.2 7.5-11 6.2-4.7-1.3-7.5-6.2-6.2-11z" fill="#C47A2C"/><path d="M209.138 231.137c-.6 0-1.3-.1-2-.3l-3.899-1.1c-1.9-.5-3.501-1.8-4.401-3.5-1-1.7-1.2-3.7-.7-5.6l2.4-8.7c.1-.3.3-.4.6-.3l17.2 4.8c.3.1.4.3.3.6l-2.399 8.7c-.9 3.3-3.901 5.4-7.101 5.4zm-10.1-10.2c-.5 1.6-.2 3.4.6 4.9.8 1.5 2.2 2.6 3.9 3l3.9 1.1c3.4.9 6.9-1.1 7.9-4.5l2.3-8.3-16.2-4.5-2.4 8.3z" fill="#282828"/><path d="M215.338 219.537l-13.3-3.7c-.1 0-.1-.1-.1-.2s.1-.1.2-.1l13.3 3.7c.1 0 .1.1.1.2-.1.1-.1.1-.2.1zm5.601-20.299l-13.3-3.7c-.1 0-.1-.1-.1-.2s.1-.1.2-.1l13.3 3.7c.1 0 .1.1.1.2 0 0-.1.1-.2.1zm3.498-38.201h-.1c-.3-.1-.399-.3-.299-.6l2.299-8.099c.1-.3.3-.401.6-.301.3.1.401.3.301.6l-2.301 8.1c-.1.2-.3.3-.5.3zm20.702 14.301c-.2 0-.299-.1-.399-.2-.1-.2-.101-.5.199-.7l7.4-4.2c.2-.1.5-.1.7.2.1.2.1.5-.2.7l-7.4 4.2h-.3zm11.102 24.8h-.1l-8.1-2.3c-.3-.1-.4-.3-.3-.6.1-.3.3-.4.6-.3l8.1 2.3c.3.1.4.3.3.6-.1.1-.3.3-.5.3zm-55.605-37.1c-.2 0-.3-.1-.4-.2l-4.2-7.4c-.1-.2-.1-.5.2-.7.2-.1.5-.1.7.2l4.2 7.4c.1.2.1.5-.2.7h-.3zm-14.098 17.799h-.101l-8.1-2.3c-.3-.1-.399-.3-.299-.6.1-.3.299-.4.599-.3l8.101 2.3c.3.1.4.3.3.6-.1.1-.2.3-.5.3z" fill="#282828"/><path d="M206.635 213.739h-.1c-.3-.1-.4-.3-.4-.6 0-.2 3.5-15.3-1.7-23.5-.1-.2-.1-.5.2-.7.2-.1.5-.1.7.2 5.4 8.5 2 23.6 1.8 24.2-.1.2-.3.4-.5.4zm6.098 1.7h-.2c-.3-.1-.4-.4-.3-.6.2-.6 5-15.3 14-19.8.2-.1.5 0 .7.2.1.2 0 .5-.2.7-8.6 4.4-13.5 19.1-13.5 19.3-.1.1-.3.2-.5.2z" fill="#282828"/><path d="M226.534 195.737h-.1c-1.1-.3-1.5-1.1-1.8-1.7-.3-.6-.5-1-1.2-1.2-.7-.2-1.1.1-1.7.4-.6.4-1.3.8-2.4.5-1.1-.3-1.5-1.1-1.8-1.7-.3-.6-.5-1-1.2-1.2-.7-.2-1.1.1-1.7.4-.6.4-1.3.8-2.4.5-1.1-.3-1.5-1.1-1.8-1.7-.3-.6-.5-1-1.2-1.2-.7-.2-1.1.1-1.7.4-.6.4-1.3.8-2.4.5-.3-.1-.4-.3-.3-.6.1-.3.3-.4.6-.3.7.2 1.1-.1 1.7-.4.6-.4 1.3-.8 2.4-.5 1.1.3 1.5 1.1 1.8 1.7.3.6.5 1 1.2 1.2.7.2 1.1-.1 1.7-.4.6-.4 1.3-.8 2.4-.5 1.1.3 1.5 1.1 1.8 1.7.3.6.5 1 1.2 1.2.7.2 1.1-.1 1.7-.4.6-.4 1.3-.8 2.4-.5 1.1.3 1.5 1.1 1.8 1.7.3.6.5 1 1.2 1.2.3.1.4.3.3.6-.1.1-.3.3-.5.3zm-8.997-83.654c-.2 0-.4-.1-.5-.3-.1-.2.001-.5.301-.6l12.3-5.1 2.3-13.6c0-.2.2-.4.5-.4l13.7-.6 8.899-19.2c.1-.2.401-.4.601-.2.2.1.4.4.2.6l-9 19.5c-.1.2-.2.3-.4.3l-13.6.6-2.2 13.5c0 .2-.1.3-.3.4l-12.5 5.2c-.2-.2-.301-.1-.301-.1z" fill="#282828"/><path d="M30.436 202.54l-2.1-1.4c-2.7-1.8-6.3-.6-7.4 2.4l-.9 2.4c-3.5-.5-2.9-.4-6.3-.8l-.2-2.5c-.3-3.2-3.5-5.3-6.5-4.2l-2.4.8-3.3-5.5 1.8-1.7c2.3-2.2 1.9-6-.7-7.7l-2.1-1.4c1.2-3.3 1-2.7 2.2-6l2.5.3c3.2.4 5.9-2.2 5.6-5.4l-.2-2.5c3.3-1.1 2.7-.9 6.1-2l1.3 2.2c1.6 2.7 5.4 3.2 7.7 1l1.8-1.8c2.9 1.9 2.4 1.6 5.3 3.5l-.9 2.4c-1.1 3 .8 6.2 4 6.6l2.5.3c.3 3.5.3 2.9.6 6.4l-2.4.8c-3 1-4.3 4.5-2.7 7.3l1.3 2.1c-2.5 2.4-2.1 2-4.6 4.4z" fill="#fff"/><path d="M20.14 206.439l-6.4-.8c-.2 0-.4-.2-.4-.4l-.2-2.5c-.1-1.4-.9-2.6-2-3.3-1.1-.7-2.5-.9-3.8-.5l-2.4.8c-.2.1-.5 0-.6-.2l-3.3-5.5c-.1-.2-.1-.4.1-.6l1.8-1.7c1-.9 1.5-2.3 1.4-3.6-.1-1.4-.9-2.6-2-3.3l-2.1-1.4c-.2-.1-.3-.4-.2-.6l2.2-6c.1-.2.3-.3.5-.3l2.5.3c1.4.2 2.7-.3 3.7-1.2 1-1 1.5-2.3 1.3-3.6l-.2-2.5c0-.2.1-.4.3-.5l6.1-2c.2-.1.5 0 .6.2l1.3 2.2c.7 1.2 1.9 2 3.2 2.1 1.4.2 2.7-.3 3.7-1.2l1.8-1.8c.2-.2.4-.2.6-.1l5.3 3.5c.2.1.3.4.2.6l-.9 2.4c-.5 1.3-.3 2.7.4 3.9.7 1.2 1.9 1.9 3.3 2.1l2.5.3c.2 0 .4.2.4.4l.6 6.4c0 .2-.1.4-.3.5l-2.4.8c-1.3.4-2.3 1.4-2.8 2.7-.5 1.3-.3 2.7.4 3.9l1.3 2.1c.1.2.1.4-.1.6l-4.6 4.4c-.2.2-.4.2-.6.1l-2.1-1.4c-1.1-.8-2.5-.9-3.8-.5-1.3.4-2.3 1.4-2.8 2.7l-.9 2.4c-.2 0-.4.1-.6.1zm-5.9-1.8l5.6.7.7-2c.6-1.6 1.8-2.8 3.4-3.3 1.6-.5 3.3-.3 4.7.6l1.8 1.2 4-3.9-1.1-1.8c-.9-1.4-1-3.1-.5-4.7.6-1.6 1.8-2.8 3.4-3.3l2-.7-.5-5.6-2.1-.3c-1.7-.2-3.1-1.2-4-2.6-.9-1.4-1-3.1-.4-4.7l.7-2-4.7-3.1-1.5 1.5c-1.2 1.2-2.8 1.7-4.5 1.5-1.7-.2-3.1-1.2-4-2.6l-1.1-1.8-5.3 1.8.2 2.1c.2 1.7-.4 3.3-1.6 4.4-1.2 1.2-2.8 1.7-4.5 1.5l-2.1-.3-1.9 5.3 1.8 1.2c1.4.9 2.3 2.4 2.5 4 .2 1.7-.4 3.3-1.7 4.4l-1.5 1.5 2.9 4.8 2-.7c1.6-.5 3.3-.3 4.7.6 1.4.9 2.3 2.4 2.4 4.1l.2 2.2z" fill="#282828"/><path d="M19.536 193.839a7.2 7.2 0 100-14.4 7.2 7.2 0 000 14.4z" fill="#fff"/><path d="M19.536 194.339c-4.2 0-7.7-3.4-7.7-7.7 0-4.2 3.4-7.7 7.7-7.7 4.2 0 7.7 3.4 7.7 7.7 0 4.2-3.4 7.7-7.7 7.7zm0-14.4a6.7 6.7 0 100 13.4 6.7 6.7 0 000-13.4zm30.212-40.26l-5.162-5.161-5.162 5.161 5.162 5.162 5.162-5.162z" fill="#282828"/><path d="M44.65 145.35c-.1 0-.3-.1-.3-.1l-5.2-5.2c-.2-.2-.2-.5 0-.7l5.2-5.2c.2-.2.5-.2.7 0l5.2 5.2c.2.2.2.5 0 .7l-5.2 5.2c-.2 0-.3.1-.4.1zm-4.5-5.7l4.5 4.5 4.5-4.5-4.5-4.5-4.5 4.5zm19.386 85.381c-2.202 0-3.744-.582-4.772-1.673-3.744-4.293 2.717-15.063 8.737-23.285 8.296-11.352 21.438-25.541 36.93-39.876a.358.358 0 01.514 0 .35.35 0 010 .51c-32.01 29.615-51.173 55.811-45.667 62.214 3.084 3.566 13.95.51 29.808-8.441 16.226-9.168 36.049-23.43 55.726-40.166 19.676-16.736 36.93-33.909 48.603-48.462 11.38-14.189 16.079-24.304 12.995-27.869-3.157-3.638-14.169-.437-30.248 8.732a.388.388 0 01-.514-.146.38.38 0 01.147-.509c16.666-9.46 27.679-12.516 31.129-8.586 3.378 3.929-1.248 14.116-12.995 28.815-11.673 14.553-28.927 31.798-48.677 48.534s-39.573 31.071-55.872 40.24c-11.6 6.548-20.484 9.968-25.844 9.968z" fill="#282828"/><path d="M109.674 52.141c1.322 5.603 1.102 12.589 1.102 12.589l-5.14 1.964s-3.157 12.88 16.74 8.95c3.891-.8 15.051-9.168 15.051-9.168l-8.81-2.474s-.881-12.734-1.175-19.064c-4.699 2.037-12.188 5.457-17.768 7.203z" fill="#fff"/><path d="M115.544 76.736c-3.818 0-6.681-.946-8.443-2.765-2.863-2.983-1.909-7.203-1.836-7.349 0-.145.074-.218.221-.218l4.919-1.892c0-1.237.073-7.277-1.101-12.225-.074-.145.073-.364.22-.436 5.8-1.82 13.803-5.458 17.62-7.277.074-.073.221-.073.368 0 .073.073.146.146.146.291.294 5.749 1.028 17.027 1.175 18.846l8.59 2.474c.147.073.22.146.22.291 0 .146 0 .292-.146.364-.441.364-11.307 8.514-15.198 9.242-2.423.363-4.699.654-6.755.654zm-9.618-9.75c-.147.8-.587 4.147 1.689 6.549 2.57 2.62 7.489 3.201 14.61 1.819 3.231-.655 11.968-6.986 14.317-8.66l-8.149-2.328a.57.57 0 01-.294-.29c0-.146-.808-12.153-1.175-18.556-3.964 1.82-11.38 5.24-16.96 6.985 1.248 5.53 1.028 12.298 1.028 12.37 0 .146-.073.292-.22.292l-4.846 1.819z" fill="#282828"/><path d="M97.484 16.631c-1.836.437-3.598-1.382-3.671-3.347 0-1.892 1.321-3.638 3.01-4.511 1.688-.873 3.597-.946 5.506-1.237-.734-1.892.22-4.148 1.762-5.312 1.542-1.164 3.671-1.455 5.58-1.237 1.248.145 2.57.51 3.524 1.382a4.245 4.245 0 011.615 3.566c1.689-2.11 4.406-3.493 6.975-2.91 2.57.581 4.479 3.71 4.699 5.82 1.248-1.528 2.863-2.765 4.772-2.692 3.818.219 4.699 3.42 2.937 7.568 2.056-1.019 5.066-.146 6.021 2.765.734 2.183-.074 5.676-1.616 7.35-.293.29-.66.581-1.101.872-.587 3.202-1.322 6.622-2.423 10.915-.807 3.056-2.202 6.476-3.891 9.314-.808 1.31-1.395 1.965-2.937 2.693-.073-1.31-1.468-2.038-1.688-3.348-.294-1.6.807-3.056-.221-4.511-1.909-2.765-3.157-5.821-3.818-8.878-.513-2.546-.513-5.239.735-7.567.44-.873 1.028-1.601 1.835-2.329-.367-.654-.587-1.31-.807-2.037-1.102 1.892-1.909 3.202-4.699 4.148-2.056.654-4.479-.146-5.14-2.038-.44 1.965-3.524 4.73-5.433 4.875-1.909.219-2.643-.654-3.377-2.474-1.689 1.529-3.01 3.056-4.699 3.711-2.643 1.02-5.947-.654-6.828-3.42-.88-2.765.661-6.257 3.378-7.13z" fill="#F9B974"/><path d="M128.244 47.993c-.074 0-.147 0-.147-.073-.074-.073-.147-.145-.147-.291-.073-.582-.367-1.019-.808-1.528-.367-.51-.807-1.019-.954-1.746-.147-.728 0-1.383.073-1.965.147-.873.294-1.674-.22-2.401-1.909-2.838-3.23-5.822-3.818-9.023-.587-3.13-.367-5.676.735-7.859.44-.8.954-1.528 1.688-2.256l-.44-1.091c-.955 1.528-1.909 2.765-4.552 3.638-2.056.655-4.185 0-5.213-1.528-.955 1.965-3.598 4.148-5.433 4.366-1.909.218-2.79-.655-3.598-2.256-.293.291-.587.51-.807.8-1.175 1.092-2.276 2.11-3.671 2.62-1.322.51-2.864.437-4.259-.29-1.468-.729-2.57-1.966-3.01-3.348-.807-2.474.367-5.385 2.423-6.84-.367-.146-.734-.291-1.028-.582-.954-.728-1.542-1.892-1.542-3.056-.073-2.183 1.542-4.002 3.23-4.876 1.396-.727 3.011-.946 4.553-1.091.22 0 .44-.073.587-.073-.44-1.819.367-4.002 1.983-5.312 1.468-1.164 3.524-1.6 5.8-1.31 1.541.219 2.79.655 3.744 1.456.881.727 1.542 1.819 1.689 2.91 1.909-1.964 4.478-2.91 6.754-2.4 2.35.581 4.332 3.128 4.846 5.384 1.468-1.528 3.01-2.329 4.625-2.183 1.616.073 2.79.727 3.524 1.746.808 1.31.882 3.275.074 5.53a5.337 5.337 0 013.01.219c1.322.582 2.276 1.673 2.79 3.056.734 2.256-.073 5.821-1.689 7.713-.293.291-.587.582-1.101.8-.661 3.42-1.395 6.84-2.423 10.77-.807 3.129-2.276 6.621-3.891 9.386-.808 1.31-1.395 2.038-3.084 2.838-.22.146-.22.146-.293.146zm-4.038-29.398c.147 0 .293.146.367.219.22.727.514 1.382.807 1.965.074.145.074.29-.073.436-.734.655-1.322 1.383-1.689 2.183-1.028 1.965-1.248 4.366-.66 7.35a22.4 22.4 0 003.744 8.731c.661 1.019.514 1.965.367 2.91-.073.583-.22 1.165-.073 1.747.073.582.44 1.019.807 1.456.367.436.661.873.808 1.382 1.248-.655 1.688-1.237 2.349-2.328 1.615-2.766 3.01-6.113 3.818-9.242 1.028-3.929 1.836-7.349 2.423-10.842 0-.073.073-.218.147-.218.44-.218.807-.51 1.028-.8 1.468-1.674 2.202-4.948 1.541-6.986-.44-1.237-1.248-2.183-2.349-2.62-1.028-.436-2.203-.436-3.157.073-.147.073-.294.073-.441-.072-.073-.073-.146-.291-.073-.364.954-2.401 1.101-4.366.294-5.603-.588-.873-1.542-1.383-2.937-1.456-1.542-.072-3.084.8-4.479 2.547-.073.146-.22.146-.367.146-.147-.073-.22-.146-.22-.291-.147-1.892-1.909-4.948-4.405-5.53-2.203-.51-4.846.582-6.608 2.765-.073.145-.294.145-.44.145a.4.4 0 01-.221-.364c.074-1.237-.514-2.474-1.468-3.274-.808-.655-1.982-1.092-3.377-1.237-2.13-.218-3.965.145-5.287 1.164-1.541 1.164-2.276 3.275-1.615 4.875.074.073 0 .219 0 .291-.073.073-.147.146-.293.146-.368.073-.735.073-1.028.146-1.542.218-3.01.363-4.332 1.018-1.395.728-2.863 2.329-2.79 4.22 0 .947.514 1.893 1.322 2.475.587.436 1.321.655 1.909.509.22-.073.366.073.44.218.073.219-.074.364-.22.437-2.497.8-4.112 3.93-3.304 6.549.367 1.237 1.395 2.328 2.643 2.983 1.248.582 2.57.655 3.744.218 1.248-.436 2.203-1.382 3.378-2.474.367-.363.807-.727 1.248-1.091.073-.073.22-.073.293-.073.147 0 .221.073.221.219.734 1.746 1.321 2.474 3.01 2.328 1.762-.145 4.699-2.838 5.066-4.584 0-.146.147-.291.293-.291.147 0 .294.073.368.218.66 1.82 2.936 2.401 4.698 1.82 2.717-.874 3.451-2.184 4.552-3.93 0-.146.147-.218.221-.218z" fill="#282828"/><path d="M100.424 27.474v-.291c.147 0 .221-.073.368-.146 1.762-.655 3.01-2.183 4.698-3.711.808 1.819 1.469 2.692 3.378 2.474 1.909-.218 4.992-2.91 5.433-4.875.66 1.964 3.083 2.765 5.139 2.037 2.79-.873 3.598-2.183 4.699-4.148.587 1.892 1.615 3.93 3.671 5.385.734.51 1.615.946 2.423 1.164 0 .364.073.728.073 1.092.147 1.31.514 4.075.147 6.913 2.203-1.82 3.965-1.456 5.36-.146 1.321 1.383 1.248 3.493-.074 4.803-1.321 1.31-3.671 1.819-5.653 1.382-.514 3.42-1.322 10.26-3.745 13.243-2.569 3.202-7.048 5.24-11.673 5.312-4.626.073-9.324-1.819-12.188-4.948-3.23-3.565-3.965-8.222-3.67-12.661.513-4.148 1.614-8.44 1.614-12.88z" fill="#fff"/><path d="M114.588 58.544c-4.699 0-9.324-1.892-12.187-5.093-2.864-3.13-4.112-7.422-3.745-12.88.147-1.965.44-3.856.661-5.748.367-2.402.734-4.876.734-7.35v-.29c0-.146.074-.292.294-.365.073 0 .22-.072.294-.072 1.248-.437 2.202-1.383 3.377-2.474.367-.364.808-.728 1.248-1.092.073-.073.22-.073.294-.073.147 0 .22.073.22.219.734 1.746 1.322 2.474 3.01 2.328 1.762-.145 4.699-2.838 5.066-4.584 0-.146.147-.291.294-.291s.293.073.367.218c.661 1.82 2.937 2.401 4.699 1.82 2.716-.874 3.45-2.184 4.552-3.93.073-.146.22-.218.367-.146.147 0 .294.146.294.219.513 1.528 1.394 3.71 3.597 5.239.661.51 1.468.873 2.349 1.091a.57.57 0 01.294.291c0 .437.074.728.074 1.092v.073c.146 1.164.44 3.565.22 6.04 1.835-1.238 3.671-1.092 5.139.363 1.469 1.455 1.395 3.784-.073 5.312-1.322 1.31-3.524 1.892-5.654 1.6-.073.219-.073.51-.146.801-.588 3.784-1.395 9.46-3.598 12.297-2.643 3.275-7.195 5.385-11.967 5.458.073-.073 0-.073-.074-.073zm-13.803-31.07c0 2.546-.367 5.02-.734 7.494-.293 1.892-.587 3.784-.66 5.676-.294 5.239.881 9.387 3.597 12.37 2.717 2.983 7.122 4.802 11.6 4.802h.294c4.552-.072 8.957-2.037 11.38-5.166 2.056-2.62 2.937-8.44 3.451-11.933.073-.437.147-.8.147-1.165 0-.072.073-.218.146-.218.074-.073.147-.073.294-.073 1.982.437 4.185-.073 5.36-1.31 1.248-1.236 1.248-3.128.073-4.365-1.395-1.383-3.01-1.31-4.846.145-.146.073-.293.073-.367.073a.4.4 0 01-.22-.364c.294-2.692 0-5.385-.147-6.694v-.073c0-.218-.073-.51-.073-.873a8.852 8.852 0 01-2.35-1.165c-2.055-1.455-3.01-3.347-3.597-4.875-.955 1.528-1.909 2.765-4.552 3.638-2.056.655-4.185 0-5.213-1.528-.954 1.965-3.597 4.148-5.433 4.366-1.909.219-2.79-.655-3.598-2.256-.293.292-.587.51-.807.801-1.175 1.091-2.276 2.11-3.671 2.62l-.074.072z" fill="#282828"/><path d="M104.61 33.877c-.074-.51.367-1.02.954-1.092.587-.073 1.101.29 1.175.873.073.51-.367 1.02-.955 1.092-.66.073-1.174-.364-1.174-.873zm14.609.8c-.073-.51.367-1.019.954-1.092.588-.072 1.102.292 1.175.874.074.51-.367 1.02-.954 1.092-.588 0-1.102-.364-1.175-.874zm-4.337 17.027c-.441 0-.881-.072-1.322-.145-.22-.073-.293-.218-.22-.437.073-.218.22-.29.441-.218 1.688.437 3.671-.146 4.845-1.455a.456.456 0 01.514-.073.446.446 0 01.074.51c-1.175 1.09-2.79 1.818-4.332 1.818zm-2.494-5.457c-.66 0-1.468-.145-2.202-.436-.441-.146-.881-.364-1.175-.728-.44-.51-.587-1.237-.44-1.965.147-.582.367-1.018.587-1.528l.073-.218c1.249-2.547 1.909-5.457 1.909-8.295 0-.219.147-.364.367-.364.221 0 .368.145.368.364 0 2.983-.661 5.967-1.983 8.586l-.073.218c-.22.437-.441.873-.514 1.31-.147.51 0 1.092.294 1.383.22.29.587.436.881.509.954.364 1.835.437 2.569.291.881-.145 1.689-.582 2.129-1.237.147-.145.368-.218.514-.073.147.146.221.364.074.51a3.764 3.764 0 01-2.57 1.528c-.294.073-.587.145-.808.145zm18.073-10.115c-.22 0-.367-.218-.367-.436.147-1.164.22-1.82.293-2.984 0-.218.221-.364.368-.29.22 0 .367.218.293.363-.073 1.164-.147 1.82-.293 3.056 0 .146-.147.291-.294.291zM96.677 24.563h-.073c-1.028-1.02-1.395-2.62-.881-3.93 0-.072.073-.072.147-.072.073 0 .073.072.073.145-.44 1.237-.073 2.765.881 3.711.073.073.073.146 0 .146h-.147zm38.764-1.383s-.073 0-.073-.072c-.074-.073-.074-.146 0-.146 1.688-1.455 2.349-3.929 1.615-6.04 0-.072 0-.145.073-.145.074 0 .147 0 .147.073.734 2.183.073 4.73-1.689 6.258 0 .073 0 .073-.073.073z" fill="#282828"/><path d="M40.88 95.073c-4.404-10.042-9.544-28.451-14.757-38.275-3.377-2.11-7.195-5.894-9.177-9.605-.808-1.528-.954-2.183-.073-3.493.587-.946 2.055-1.018 3.083-.655-.587-.946-1.762-1.673-.734-2.91.44-.582 1.248-1.019 1.909-.728-.734-1.964 1.248-3.638 3.01-1.964a329.201 329.201 0 00-4.405-6.477c-.954-1.31-1.909-2.91-1.101-3.71 1.028-1.02 2.57.363 4.331 2.546 3.084 3.711 4.112 4.876 7.416 8.15 3.083 3.056 6.314 9.096 5.066 11.86 1.028 4.221 16.52 28.597 21.585 33.618 1.835 1.82.367 3.639-.073 6.185-.514 3.13-2.79 14.044-10.72 10.479-2.349-.946-5.066-4.44-5.36-5.021z" fill="#fff"/><path d="M49.105 101.185c-.954 0-1.982-.219-3.083-.728-2.35-1.091-5.14-4.584-5.433-5.24-1.836-4.147-3.745-9.75-5.8-15.644-2.864-8.295-5.874-16.808-8.884-22.484-3.084-1.965-7.122-5.676-9.178-9.678-.88-1.6-1.027-2.401-.073-3.857.514-.8 1.542-1.091 2.496-1.018-.514-.655-1.027-1.456-.146-2.62.513-.582 1.1-.946 1.762-.946-.147-.946.22-1.819.954-2.255a2.323 2.323 0 011.468-.292 342.484 342.484 0 00-3.597-5.311c-1.102-1.528-2.056-3.202-1.102-4.148.294-.291.661-.437 1.102-.437.954.073 2.056.873 3.818 2.984l.073.073c3.084 3.638 4.111 4.802 7.342 8.004 3.01 2.983 6.46 9.095 5.213 12.151 1.175 4.22 16.299 28.233 21.512 33.4 1.468 1.455 1.028 2.983.514 4.511-.22.582-.367 1.237-.514 1.965-.514 3.202-1.983 8.95-5.58 10.842-1.102.509-1.91.728-2.864.728zM18.783 43.263c-.66 0-1.248.219-1.542.655-.734 1.165-.66 1.674.074 3.13 2.056 3.856 6.02 7.567 9.03 9.459.074 0 .074.073.147.145 3.084 5.749 6.094 14.335 8.957 22.703 2.056 5.894 3.965 11.424 5.8 15.572.22.51 2.937 3.93 5.066 4.875 1.91.873 3.598.873 4.993.146 3.304-1.747 4.699-7.204 5.213-10.333.147-.728.367-1.455.514-2.037.514-1.529.807-2.62-.367-3.857-4.993-4.948-20.631-29.252-21.733-33.836v-.218c1.175-2.474-1.762-8.296-4.992-11.497-3.23-3.202-4.258-4.439-7.342-8.077l-.073-.073c-.955-1.164-2.35-2.692-3.304-2.692-.22 0-.367.073-.588.218-.66.655.735 2.62 1.175 3.202a127.769 127.769 0 014.405 6.549c.074.145.074.364-.073.436-.147.146-.367.073-.514 0-.588-.582-1.322-.727-1.909-.364-.514.291-.881 1.092-.514 1.965.073.146 0 .291-.073.364-.074.073-.22.145-.367.073-.514-.219-1.175.145-1.542.654-.588.728-.294 1.165.293 1.893.147.218.294.363.44.582a.46.46 0 010 .436c-.073.146-.293.146-.366.146-.074-.146-.44-.219-.808-.219z" fill="#282828"/><path d="M22.605 48.94c-.22 0-.44-.073-.661-.146-.44-.146-.808-.51-1.175-.8l-1.542-1.31a.35.35 0 010-.51.357.357 0 01.514 0l1.542 1.31c.294.291.587.51.954.655.294.145.661.073.882-.073.22-.218.293-.582.22-.873-.074-.364-.367-.728-.588-1.019-.954-1.164-1.174-1.382-1.908-1.892a8.346 8.346 0 01-1.028-.873.445.445 0 01-.074-.51.455.455 0 01.514-.072c.44.364.808.655 1.028.8.734.583 1.028.8 2.056 2.038.294.364.587.8.734 1.31.147.655 0 1.237-.44 1.6-.294.292-.661.364-1.028.364z" fill="#282828"/><path d="M25.393 47.629c-.367 0-.66-.145-1.027-.218-.368-.146-.735-.291-1.175-.51-.147-.072-.294-.29-.147-.509.073-.146.294-.218.514-.146.367.146.734.364 1.101.51.367.145.734.29 1.028.145.294-.145.367-.655.294-1.091-.147-.655-1.102-2.256-4.993-5.894l-.073-.073a.35.35 0 010-.51.357.357 0 01.514 0l.073.074c3.23 3.056 4.92 5.093 5.213 6.257.147.728 0 1.601-.66 1.892-.221 0-.441.073-.662.073z" fill="#282828"/><path d="M28.177 50.248c-.147 0-.22-.072-.294-.218-.954-1.746-.147-3.493.44-4.802.22-.51.514-1.237.441-1.383-.44-.437-2.276-.582-3.157-.655-.514-.073-.734-.073-.881-.073-.954-.29-1.395-.8-1.542-1.237-.147-.363-.147-.727-.073-.946.147-.363.807-1.164 1.248-1.31.88-.29 3.083-.218 5.066-.145h.66c.735 0 2.937.8 3.158 1.674.073.218-.074.364-.22.436-.22.073-.368-.072-.441-.218-.074-.364-1.762-1.164-2.496-1.164h-.661c-1.395-.073-3.965-.146-4.846.145-.22.073-.734.655-.88.946 0 .073-.074.146.072.364.074.218.368.582 1.102.8.073 0 .367.073.66.073 1.542.146 3.01.291 3.598.873.44.51.147 1.237-.294 2.11-.514 1.238-1.174 2.766-.44 4.148.073.146 0 .364-.147.51.073 0 0 .072-.073.072z" fill="#282828"/><path d="M26.128 40.133c-.147 0-.22-.072-.294-.145-.22-.364-.88-1.019-1.395-1.6-.293-.292-.514-.583-.734-.801-.147-.146-.073-.364.074-.51.146-.145.366-.072.513.073.147.218.44.437.661.728.588.582 1.248 1.31 1.469 1.746a.381.381 0 01-.147.51c0-.073-.074 0-.147 0zm.717 6.26h-.293c-.22-.073-.294-.219-.294-.437.073-.218.22-.291.44-.291.22.073.514-.073.735-.364.293-.436.22-1.091-.22-1.746a.381.381 0 01.146-.51.389.389 0 01.514.146c.881 1.383.44 2.256.147 2.547-.294.436-.734.655-1.175.655zm145.808 64.617c-2.79-14.408-2.79-29.834-14.464-39.512-5.653-4.657-18.942-6.622-26.724-7.13-.514 7.494-7.856 9.24-12.628 8.95-7.93-.51-9.325-2.038-11.307-8.005-1.762.728-12.408 1.237-19.383 7.35-12.848 11.35-29.735 9.605-30.616 10.55-1.248 1.237 1.836 12.298-9.47 17.537-4.773 2.183 23.787 6.694 43.537 1.528-.734 10.187 5.286 38.493 7.415 49.99 20.558 14.189 60.425-.364 60.425-.364s-3.231-9.387-3.231-16.518c0-3.492 12.408 3.784 14.097 4.075.513.073 1.762-.364 1.982-.873 1.395-3.275 2.863-14.335.367-27.578z" fill="#282828"/><path d="M123.47 158.816c-8.663 0-17.767-1.528-24.668-6.258-.074-.073-.147-.146-.147-.218a239.8 239.8 0 01-1.248-6.622c-2.644-13.607-6.608-34.054-6.168-42.932-10.425 2.62-22.026 2.402-28.046 2.038-7.489-.437-15.344-1.747-15.932-3.275-.073-.218-.147-.727.66-1.091 8.297-3.784 8.664-10.915 8.811-14.699.074-1.455.147-2.328.514-2.765.294-.29.955-.364 2.937-.51 5.286-.363 17.767-1.236 27.679-10.04 5.507-4.876 13.142-6.259 17.254-6.986 1.027-.218 1.908-.364 2.202-.51.074-.072.22 0 .294 0l.22.219c1.982 5.82 3.231 7.276 11.013 7.713 1.322.073 4.699.073 7.709-1.528 2.79-1.528 4.332-3.93 4.552-7.131 0-.073.073-.219.147-.219.073-.072.147-.072.294-.072 9.104.582 21.585 2.837 26.944 7.203 9.618 7.932 11.454 19.938 13.216 31.581.44 2.692.808 5.457 1.395 8.149 2.423 12.662 1.248 24.013-.367 27.724-.294.728-1.762 1.164-2.423 1.092-.514-.073-1.542-.583-3.377-1.456-3.084-1.455-8.737-4.22-10.059-3.42-.073.073-.22.146-.22.437 0 6.985 3.157 16.299 3.23 16.445.074.218 0 .364-.22.436-.073.073-10.132 3.639-22.613 5.531a80.062 80.062 0 01-13.583 1.164zm-24.154-6.767c10.498 7.203 26.21 6.694 37.517 5.02 11.086-1.673 20.337-4.729 22.099-5.384-.587-1.747-3.157-9.969-3.157-16.3 0-.582.294-.946.514-1.091 1.468-.946 5.727.946 10.719 3.347 1.469.728 2.79 1.383 3.231 1.383.44.072 1.468-.364 1.615-.655 1.175-2.765 2.937-13.535.293-27.287-.513-2.693-.954-5.53-1.394-8.223-1.836-12.006-3.598-23.358-12.996-31.143-5.139-4.22-17.253-6.404-26.21-7.059-.294 3.275-1.983 5.822-4.846 7.35-3.157 1.746-6.681 1.673-8.076 1.6-7.856-.509-9.471-2.037-11.527-7.858-.441.145-1.175.218-1.982.436-4.038.728-11.527 2.038-16.887 6.768-10.132 8.95-22.686 9.823-28.12 10.26-1.174.072-2.349.145-2.496.29-.22.219-.22 1.238-.293 2.256-.22 3.93-.514 11.279-9.251 15.281-.294.146-.294.218-.294.218.22.655 5.433 2.183 15.198 2.765 10.425.655 20.778-.145 28.413-2.183.147 0 .22 0 .294.073.073.073.147.219.147.291-.588 8.514 3.597 30.271 6.167 43.223.514 2.62.954 4.803 1.322 6.622z" fill="#282828"/><path d="M151.456 123.961a.403.403 0 01-.367-.219c-4.185-12.588-6.534-20.519-6.534-37.765 0-.218.147-.364.367-.364s.367.146.367.364c0 17.173 2.349 25.031 6.534 37.547.074.218-.073.364-.22.437h-.147zm-59.912-21.322c-.074 0-.147 0-.22-.072-.22-.219-.22-.364-.22-2.911 0-1.892-.074-5.02-.221-9.823 0-.219.147-.364.367-.364s.367.145.367.364c.147 4.802.22 8.004.22 9.896 0 1.382 0 2.255.074 2.474.073.145.073.291-.074.436-.073-.072-.22 0-.293 0z" fill="#282828"/><path d="M113.634 95.58c-7.855 0-15.05-.655-18.795-2.62-.073 0-.073-.072-.073-.145s.073-.073.146-.073c7.783 3.93 30.176 2.62 43.318.8.073 0 .147 0 .147.073s0 .146-.074.146c-6.828 1.019-16.152 1.819-24.669 1.819zm8.444 10.99c-10.499 0-20.044-1.674-27.239-3.42-.073 0-.073-.073-.073-.146 0-.072.073-.072.146-.072 11.013 2.692 27.68 5.093 44.566 1.746.073 0 .147 0 .147.073s0 .145-.074.145c-5.947 1.237-11.82 1.674-17.473 1.674zm51.476 20.882s-.073 0-.073-.073c-5.066-5.894-13.289-8.877-20.998-7.567-.074 0-.147 0-.147-.073s0-.145.073-.145c7.783-1.31 16.079 1.673 21.219 7.64.073.073 0 .145 0 .145 0 .073 0 .073-.074.073zm-.883-5.456c-.074 0-.074 0 0 0-.881-.364-1.542-.946-2.203-1.455-.22-.218-.44-.437-.661-.582a10.618 10.618 0 00-4.992-2.183c-.074 0-.147-.073-.074-.146 0-.073.074-.145.147-.073 1.909.292 3.671 1.019 5.14 2.256.22.219.44.437.734.582.661.582 1.248 1.165 2.055 1.456.074 0 .074.072.074.145h-.22zM59.303 94.272c-.073 0-.147-.073-.147-.146 1.322-3.129 1.91-6.622 1.836-9.969 0-.072.073-.145.147-.145.073 0 .146.073.146.145.074 3.42-.513 6.913-1.835 10.042-.074 0-.074.073-.147.073zm4.703-6.331c-.073 0-.147-.073-.147-.145.294-1.238.367-2.475.22-3.639 0-.072.074-.145.074-.145.073 0 .147.073.147.073a10.971 10.971 0 01-.22 3.783c.073 0 0 .073-.074.073zm88.478 36.747c-.146 0-.293-.073-.367-.291a178.242 178.242 0 01-5.726-31.58c0-.218.146-.364.293-.364.221 0 .367.146.367.291.955 10.551 2.937 21.175 5.727 31.435.074.218-.073.364-.22.436 0 .073 0 .073-.074.073zm-61.757-20.157c-.22 0-.368-.146-.368-.364l.147-11.715c0-.219.147-.364.367-.364s.367.145.367.364l-.146 11.715c-.074.218-.22.364-.367.364z" fill="#fff"/><path d="M115.52 82.793l-40.926 7.932 10.426 52.844 40.926-7.931-10.426-52.845z" fill="#fff"/><path d="M85.082 143.969c-.074 0-.147 0-.22-.073-.074-.072-.147-.145-.147-.218l-10.426-52.9c0-.073 0-.219.073-.291.074-.073.147-.146.22-.146l40.895-7.931c.221-.073.367.072.441.29l10.425 52.901c.074.218-.073.364-.293.437l-40.968 7.931zM75.023 90.996l10.279 52.173 40.234-7.786-10.279-52.173-40.234 7.786zm29.224 112.134c-.146 0-.293-.146-.367-.291-2.276-14.044-2.863-28.452-3.524-42.423-.073-2.474-.22-4.875-.294-7.349 0-.218.147-.364.368-.364.22 0 .367.146.367.364.147 2.474.22 4.875.293 7.349.588 13.971 1.249 28.379 3.451 42.35.147.145 0 .364-.294.364.074 0 .074 0 0 0zm31.055-23.431a.404.404 0 01-.367-.218c-1.028-2.474-1.615-4.148-2.203-5.676-.514-1.528-.954-2.692-1.615-4.148-1.542.219-4.772.146-6.388.073h-.44c-.22 0-.367-.145-.367-.364 0-.218.147-.364.367-.364h.44c1.689.073 5.213.146 6.535-.072.147 0 .293.072.367.218.808 1.601 1.248 2.838 1.762 4.439a69.358 69.358 0 002.129 5.603c.074.145 0 .363-.22.436.073.073 0 .073 0 .073zm24.368-21.758a.404.404 0 01-.367-.218c-.074-.364-.294-.801-.441-1.31-.514-1.31-1.101-2.984-1.174-4.002 0-.219.146-.364.367-.364.22 0 .367.145.367.364.073.946.66 2.546 1.101 3.783.22.51.367.946.441 1.31.073.219-.074.364-.221.437h-.073z" fill="#282828"/><path d="M165.999 125.489c-2.864-1.091-30.176-10.405-33.994-14.698-2.422-2.693-9.397-8.15-11.38-8.441-3.303-.509-5.506-1.237-8.296-.728-2.349.437-6.534 2.474-6.461 3.275.441 2.547 5.727-.873 6.314-.873 1.909.072 3.891.145 6.094 1.6-2.349.874-6.387 2.766-7.195 3.784-.881 1.092-2.643 5.603-2.717 6.331-.22 1.31.735 2.183 1.762.582.074-.073 2.203-2.983 2.79-4.584.221-.655 4.332-2.402 6.388-2.693-2.203 0-5.8 1.674-6.388 2.693-.146.218-2.129 4.657-2.202 5.021-.367 1.673 1.248 1.746 2.056.582.954-1.31 1.762-3.275 2.055-3.566 1.469-1.455 3.451-1.601 5.066-1.892-1.615.219-3.377.51-4.992 1.747-.294.218-2.717 3.929-1.542 5.02.661.583 2.129-.363 3.304-3.128 1.175-.219 1.909-.146 3.01-.219.734-.073 4.625 4.221 7.709 4.803.587.145 11.527 12.515 26.798 20.083 1.395.655 13.289 5.385 18.282-2.256 1.101-1.819 2.129-9.168-6.461-12.443z" fill="#fff"/><path d="M163.28 142.661c-4.038 0-7.856-1.383-9.324-2.11-12.188-6.04-21.732-15.208-25.33-18.701-.66-.655-1.321-1.237-1.468-1.383-1.982-.436-4.258-2.255-5.947-3.565-.661-.582-1.468-1.165-1.689-1.237-.367 0-.66.072-.954.072-.587 0-1.101.073-1.762.146-.808 1.819-1.909 3.056-2.864 3.274-.367.073-.734 0-.954-.218-.22-.218-.44-.509-.44-.946-.514.437-1.102.582-1.616.364-.22-.073-.881-.509-.66-1.746 0-.073.073-.146.073-.291v.072c-.734 1.165-1.395 1.092-1.689.946-.587-.218-.881-.946-.734-1.819.147-.8 1.909-5.384 2.79-6.549.881-1.018 4.405-2.765 6.681-3.638-1.835-1.019-3.451-1.164-5.213-1.164-.146 0-.587.218-.954.436-1.542.728-3.818 1.82-4.993 1.237-.293-.145-.587-.436-.734-1.018-.22-1.31 4.773-3.348 6.755-3.711 2.202-.437 3.964-.073 6.167.291.734.145 1.468.291 2.276.364 2.129.291 9.104 5.821 11.6 8.586 3.231 3.638 24.522 11.206 31.497 13.753 1.175.436 1.983.727 2.35.873 4.552 1.746 6.24 4.511 6.901 6.549.955 2.837.22 5.53-.44 6.476-2.203 3.565-5.801 4.657-9.325 4.657zm-43.758-27.651c.367 0 .955.436 2.13 1.382 1.541 1.237 3.817 3.057 5.653 3.42.22.073.44.219 1.762 1.528 3.524 3.42 12.995 12.589 25.109 18.556.147.072 12.775 5.675 17.768-2.111.587-.946 1.101-3.42.293-5.894-.881-2.692-3.157-4.802-6.534-6.112-.367-.145-1.175-.436-2.349-.873-7.783-2.765-28.414-10.187-31.791-13.898-2.496-2.765-9.398-8.077-11.16-8.368-.807-.146-1.541-.291-2.276-.364-2.129-.364-3.817-.728-5.873-.291-2.423.436-5.947 2.328-6.167 2.91.073.364.22.437.367.51.881.436 3.157-.655 4.331-1.237.735-.364 1.028-.51 1.249-.51 2.055.073 4.038.219 6.24 1.674.147.073.147.218.147.364 0 .145-.073.218-.22.291-2.643.946-6.388 2.838-7.048 3.711-.808.946-2.497 5.457-2.644 6.185-.073.509.074.946.294 1.019.147.073.514-.146.808-.655 0 0 .073-.073.073-.146 1.101-1.601 1.836-2.619 2.203-3.42.22-.509.44-.946.44-1.018.661-1.165 4.332-2.838 6.681-2.838.221 0 .368.145.368.364 0 .218-.147.363-.294.363-2.129.291-5.8 1.965-6.094 2.474-.073.219-.22.583-.514 1.019-.587 1.383-1.689 3.711-1.689 3.929-.073.51 0 .801.221.946.293.146.807-.072 1.174-.582.147-.218.294-.363.368-.582.44-1.455 1.541-2.983 1.762-3.129.22-.218.514-.364.807-.509a6.07 6.07 0 011.395-.655c1.101-.364 2.129-.509 3.01-.655.221 0 .367.073.367.291 0 .219-.073.364-.293.437-.294.073-.588.073-.808.145-.734.146-1.542.291-2.349.582-.294.146-.588.219-.808.364l-.881.655c-.073.073-.294.582-.514.946-.294.509-.587 1.237-1.028 1.892-.147.364-.22.728-.147 1.019 0 .291.074.436.221.582 0 0 .147.073.367.073.587-.146 1.542-1.019 2.423-3.057.073-.145.146-.218.293-.218.808-.145 1.469-.145 2.056-.218.441-.218.734-.218 1.101-.291zm-18.713 2.081c2.202-.348 3.76-2.045 3.48-3.792-.281-1.746-2.294-2.88-4.496-2.532-2.203.348-3.76 2.045-3.48 3.791.28 1.747 2.293 2.881 4.496 2.533z" fill="#282828"/><path d="M100.067 117.483c-2.056 0-3.744-1.164-4.038-2.911-.147-.946.147-1.892.88-2.692.735-.801 1.69-1.31 2.864-1.455 1.102-.146 2.276 0 3.157.509.955.509 1.542 1.382 1.689 2.328.147.946-.147 1.892-.881 2.693-.734.8-1.689 1.31-2.863 1.455-.294.073-.514.073-.808.073zm.514-6.476c-.22 0-.514 0-.734.072-.955.146-1.836.583-2.423 1.237-.588.655-.808 1.383-.734 2.111.22 1.528 2.055 2.546 4.038 2.255.954-.145 1.835-.582 2.423-1.237.587-.654.807-1.382.734-2.11-.147-.727-.588-1.382-1.322-1.819-.587-.291-1.248-.509-1.982-.509zm27.814 74.076c-.22 0-.367-.146-.367-.364-.073-3.93-.073-5.821-.147-7.641 0-1.819-.073-3.711-.147-7.64 0-.218.147-.364.367-.364.221 0 .368.146.368.364.073 3.929.073 5.821.146 7.64 0 1.82.074 3.711.147 7.641 0 .218-.147.364-.367.364zm-70.624 39.439s-5.433-2.328 21.512-32.962c20.778-23.576 21.732-23.504 21.732-23.504l-.367-7.64s-25.844 24.813-36.783 39.657c-16.373 22.412-6.094 24.449-6.094 24.449z" fill="#282828"/><path d="M57.777 224.885h-.073c-.074 0-2.056-.436-3.01-2.765-1.175-2.983-.588-9.241 8.957-22.193 10.792-14.699 36.562-39.439 36.783-39.73.073-.073.22-.146.367-.073s.22.145.22.291l.367 7.64c0 .073 0 .219-.073.291-.074 0-.074.073-.147.073-.294.146-2.79 2.038-21.585 23.431-20.558 23.357-22.1 30.052-21.88 31.871.074.364.22.509.22.509.148.073.295.219.221.437a.405.405 0 01-.367.218zm42.583-63.597c-3.89 3.711-26.284 25.614-36.122 39.075-9.25 12.661-9.912 18.701-8.81 21.466a4.417 4.417 0 001.615 2.037c-.367-2.401 2.129-9.823 22.026-32.453 10.719-12.225 16.078-17.973 18.648-20.593 1.836-1.819 2.57-2.546 3.01-2.837l-.367-6.695zm70.765-54.43s29.441-18.41 32.231-8.077c-3.01-4.439-31.13 15.354-31.13 15.354l-1.101-7.277z" fill="#282828"/><path d="M172.226 114.5h-.147c-.146-.073-.22-.146-.22-.291l-1.101-7.277c0-.145.073-.291.147-.364.881-.582 22.246-13.825 30.102-10.842 1.395.51 2.276 1.528 2.643 2.984.073.145-.074.363-.221.436-.146.073-.367 0-.44-.145-.147-.219-.441-.364-.808-.437-5.726-1.019-29.588 15.717-29.808 15.863 0 .073-.073.073-.147.073zm-.734-7.495l.954 6.476c3.525-2.474 24.302-16.663 29.882-15.717.074 0 .147 0 .22.072-.44-.727-1.027-1.164-1.835-1.528-7.048-2.692-27.018 9.387-29.221 10.697z" fill="#282828"/></svg>