<svg width="258" height="210" fill="none" xmlns="http://www.w3.org/2000/svg"><path d="M122.814 91.957c0-26.356.094-57.401.094-85.445-43.427 0-84.79-.375-122.494-.375.281 28.044.657 56.276.657 85.539 25.23 0 56.182.094 85.539.188 2.438 0 18.758 23.635 18.758 23.635s-5.815-23.635-3.095-23.635c7.128 0 13.975.093 20.541.093z" fill="#fff"/><path d="M105.462 115.968c-.187 0-.281-.093-.375-.187-7.878-11.443-16.883-23.26-18.383-23.448-8.723 0-17.633 0-26.45-.094-21.29-.094-41.363-.094-59.09-.094-.28 0-.468-.188-.468-.469C.696 62.694.32 34.275.039 6.887v-.75c0-.094.094-.281.094-.375.094-.094.187-.094.375-.094 18.196 0 36.955.094 56.932.188 21.198.093 43.145.187 65.562.187.281 0 .469.188.469.47 0 14.256 0 29.45-.094 44.082 0 14.632-.094 28.42-.094 41.362 0 .282-.188.47-.469.47h-20.541c-.093.093-1.031 1.031 1.126 11.817a364.822 364.822 0 002.439 11.162c.093.187-.094.469-.282.562h-.094zM1.54 91.208c17.633 0 37.517.093 58.62.093 8.817 0 17.727.094 26.45.094.563 0 1.782 0 10.692 12.005 2.814 3.752 5.44 7.597 7.035 9.755-1.407-6.097-4.315-19.415-2.814-21.385.281-.281.563-.375.75-.375h20.072c0-12.85 0-26.45.094-40.894 0-14.538.094-29.451.094-43.614-22.323 0-44.083-.094-65.186-.187-19.79-.094-38.456-.188-56.464-.188v.281c.375 27.388.657 55.526.657 84.414z" fill="#282828"/><path d="M100.78.887C83.147.793 65.42.7 47.787.512 32.874.418 15.523.7.61.512.422 4.545.422 7.734.61 10.36c38.456 0 83.57-.563 122.213 0 .187-2.532.093-6.19.093-9.285-6.565 0-15.663-.094-22.135-.188z" fill="#C47A2C"/><path d="M.61 10.828c-.282 0-.47-.188-.47-.47-.187-2.532-.187-5.627 0-9.847C.14.229.329.04.61.04c7.878.094 16.601.094 25.042 0 7.41 0 15.101-.093 22.136 0 16.32.188 34.89.282 52.993.376 2.626 0 5.721 0 8.91.094 4.596 0 9.379.093 13.225.093.281 0 .469.188.469.47V3.98c0 2.345.093 4.69-.094 6.472 0 .281-.188.469-.469.469-25.98-.376-54.963-.282-82.913-.094-13.788-.094-26.731 0-39.3 0zM.985.98c-.188 3.75-.188 6.565 0 8.91 12.38 0 25.324-.094 38.924-.094 27.763-.094 56.557-.281 82.444.094.094-1.688.094-3.846.094-6.003V1.45c-3.752 0-8.348 0-12.756-.094-3.189 0-6.284 0-8.91-.094-18.103-.094-36.674-.188-52.994-.375-7.034-.094-14.725 0-22.135 0C17.4 1.073 8.863 1.073.985.98z" fill="#282828"/><path d="M113.445 4.45c-.469-.094-.844.188-1.126.469-.187.281-.187.657-.093.938.187.281.469.563.844.563.563 0 1.032-.47 1.032-.938.093-.47-.282-.938-.657-1.032zm-9.664 0c-.469-.094-.844.188-1.126.469-.187.281-.187.657-.093.938.187.281.469.563.844.563.562 0 1.031-.47 1.031-.938.188-.47-.281-.938-.656-1.032zm-10.219 0c-.469-.094-.844.188-1.125.469-.188.281-.188.657-.094.938.187.281.469.563.844.563.563 0 1.032-.47 1.032-.938.094-.47-.282-.938-.657-1.032zm-33.3 34.327H17.586c-.281 0-.469-.187-.469-.468v-16.32c0-.282.188-.47.47-.47h42.581c.282 0 .47.188.47.47v16.32c.093.28-.095.468-.376.468zm-42.207-.938h41.738V22.364H18.055V37.84zM39.721 62.32H17.586c-.281 0-.469-.187-.469-.468V49.377c0-.281.188-.469.47-.469H39.72c.282 0 .47.188.47.47v12.567c0 .188-.188.376-.47.376zm-21.666-.937h21.103v-11.63H18.055v11.63zm56.838.937H52.758c-.281 0-.469-.187-.469-.468V49.377c0-.281.188-.469.469-.469h22.041c.282 0 .47.188.47.47v12.567c.093.188-.188.376-.376.376zm-21.666-.937h21.197v-11.63H53.227v11.63zm56.846.937H88.032c-.282 0-.47-.187-.47-.468V49.377c0-.281.188-.469.47-.469h22.041c.281 0 .469.188.469.47v12.567c0 .188-.282.376-.469.376zm-21.666-.937h21.103v-11.63H88.407v11.63zm10.589-36.111l-25.511-.188a.202.202 0 01-.188-.187c0-.094.094-.188.188-.188l25.511.188c.094 0 .188.093.188.187a.202.202 0 01-.188.188zm-4.971 5.064l-20.54-.094a.202.202 0 01-.188-.187c0-.094.094-.188.188-.188l20.54.188c.094 0 .188.094.188.187 0 .094-.094.094-.188.094zm4.971 5.067l-25.511-.094a.202.202 0 01-.188-.188c0-.094.094-.187.188-.187l25.511.187c.094 0 .188.094.188.188s-.094.094-.188.094zM37.563 70.387l-17.915-.188a.202.202 0 01-.187-.187c0-.094.094-.188.188-.188l17.914.188c.094 0 .188.094.188.187a.202.202 0 01-.188.188zm-1.689 5.064l-14.35-.187a.202.202 0 01-.188-.188c0-.093.094-.187.188-.187l14.35.187c.094 0 .187.094.187.188-.093.094-.093.187-.187.187zm36.869-5.064l-17.915-.188a.202.202 0 01-.187-.187c0-.094.093-.188.187-.188l17.915.188c.094 0 .187.094.187.187a.202.202 0 01-.187.188zm-1.689 5.064l-14.445-.187a.202.202 0 01-.187-.188c0-.093.094-.187.188-.187l14.35.187c.094 0 .187.094.187.188s0 .187-.093.187zm36.861-5.064L90 70.199a.202.202 0 01-.188-.187c0-.094.094-.188.188-.188l17.915.188c.093 0 .187.094.187.187 0 .094-.094.188-.187.188zm-1.69 5.064l-14.35-.187a.202.202 0 01-.188-.188c0-.093.094-.187.188-.187l14.35.187c.094 0 .188.094.188.188-.094.094-.094.187-.188.187z" fill="#282828"/><path d="M171.451 47.882c-5.924-1.243-20.832-4.587-24.08 2.484-8.887 19.78 70.712 48.257 81.224 38.605 9.747-8.982-22.839-28.094-25.896-29.623-10.034-4.873-20.545-9.269-31.248-11.466z" fill="#fff"/><path d="M220.565 91.456c-5.542 0-13.282-1.338-22.456-4.014C182.82 82.951 167.34 75.975 157.688 69c-9.46-6.785-13.187-13.283-10.798-18.73 3.249-7.167 17.105-4.3 23.794-2.962l.765.19c9.46 1.912 19.398 5.543 31.343 11.563.286.096 26.374 14.525 27.903 25.132.286 2.007-.383 3.823-1.912 5.256-1.337 1.338-4.204 2.007-8.218 2.007zm-62.877-44.913c-4.395 0-8.409.956-9.842 4.11-2.867 6.306 4.109 12.995 10.416 17.582 9.555 6.88 24.94 13.856 40.134 18.347 15.098 4.396 26.565 5.256 29.91 2.198 1.337-1.242 1.815-2.676 1.624-4.396-1.338-9.269-24.176-22.838-27.425-24.462-11.849-5.925-21.787-9.556-31.152-11.467l-.764-.192c-3.058-.669-8.218-1.72-12.901-1.72z" fill="#282828"/><path d="M211.096 85.914c-.191 7.835 4.587 15.862 12.041 18.442 4.013 1.434 8.504 1.243 12.613 2.294s8.314 4.204 8.409 8.504c0 2.867-1.624 9.269 6.881 13.092 6.975 3.153 5.351 19.971-16.341 27.043-6.689 2.198-2.389-3.249-9.269-4.396-6.785-1.051-12.996-4.873-17.774-9.938-4.682-5.065-8.027-11.276-10.607-17.678-2.962-7.358-5.064-15.481-3.249-23.221 1.72-7.836 8.601-14.811 17.296-14.142z" fill="#F9B974"/><path d="M232.12 156.149c-1.434 0-2.007-.765-2.581-1.911-.573-1.147-1.242-2.485-4.3-2.963-6.498-.955-12.9-4.586-17.965-10.129-4.204-4.491-7.74-10.32-10.702-17.774-3.822-9.364-4.873-16.913-3.249-23.507 1.816-7.549 8.696-15.098 17.869-14.43.287 0 .478.192.478.479-.191 8.027 4.778 15.576 11.754 17.965 2.198.764 4.587 1.051 6.88 1.337 1.911.192 3.822.478 5.638.956 4.204 1.051 8.696 4.396 8.696 8.887v1.242c-.192 3.249-.478 8.218 6.689 11.372 2.675 1.146 4.109 4.204 3.918 7.835-.287 6.307-5.829 15.385-20.354 20.067-1.243.478-2.103.574-2.771.574zm-22.265-69.758c-8.123 0-14.047 6.88-15.768 13.761-1.528 6.498-.477 13.76 3.249 22.934 2.963 7.358 6.403 13.091 10.512 17.487 4.969 5.351 11.18 8.887 17.487 9.842 3.536.574 4.396 2.198 4.969 3.44.573 1.243.956 1.912 4.013.86 14.047-4.586 19.399-13.187 19.685-19.207.191-3.249-1.146-5.924-3.44-6.88-7.74-3.44-7.453-8.982-7.262-12.327 0-.478.095-.86 0-1.147 0-4.109-4.205-6.975-8.027-8.026-1.816-.478-3.727-.669-5.542-.956-2.389-.287-4.778-.573-7.072-1.338-7.262-2.484-12.327-10.225-12.327-18.443h-.477z" fill="#282828"/><path d="M168.583 67.947c2.294 11.18 4.492 23.125-.095 33.541-1.529 3.345-3.631 6.498-4.874 9.938-1.433 4.109-1.529 8.696-1.051 13.092.765 8.313 3.249 16.818 9.078 22.742 5.829 5.925 15.576 8.505 22.743 4.3 6.307-3.631 9.173-11.562 8.791-18.824-.382-7.263-3.535-14.143-6.784-20.641-7.836-15.576-17.01-30.579-27.808-44.148z" fill="#F9B974"/><path d="M186.449 154.14c-5.351 0-10.989-2.293-15.194-6.498-5.16-5.255-8.313-12.996-9.173-23.029-.478-5.447-.096-9.651 1.147-13.283.764-2.102 1.815-4.013 2.771-5.924a55.565 55.565 0 002.102-4.109c4.3-9.843 2.58-20.927 0-33.254 0-.192.096-.478.287-.574.191-.095.478 0 .573.096 10.129 12.709 19.494 27.616 27.807 44.243 3.249 6.403 6.403 13.283 6.881 20.832.477 8.218-3.058 15.862-8.983 19.302-2.484 1.529-5.256 2.198-8.218 2.198zM169.44 69.858c2.389 11.754 3.727 22.265-.478 31.917-.669 1.433-1.433 2.866-2.102 4.204-.956 1.816-2.007 3.727-2.771 5.734-1.243 3.44-1.529 7.549-1.052 12.804.86 9.747 3.918 17.296 8.887 22.456 6.116 6.212 15.672 8.027 22.17 4.301 5.638-3.249 8.982-10.512 8.504-18.443-.382-7.358-3.535-14.143-6.689-20.45-7.931-15.862-16.818-30.196-26.469-42.523z" fill="#282828"/><path d="M184.724 122.417c.191-5.924-.574-9.269-.765-13.76 2.389-1.242 4.969-2.007 7.645-2.484 1.146-.192 2.58-.287 3.44.477.573.478 3.249-1.911 3.536-1.242 1.911 4.491 2.102 10.989 4.013 15.576.191.382 6.976-.287 7.071.096.669 1.433.096 13.76-.382 14.047-24.845 16.531-36.79-7.072-36.79-7.072s4.587-2.866 12.232-5.638z" fill="#fff"/><path d="M192.659 141.433c-1.816 0-3.536-.191-5.256-.669-10.129-2.675-15.003-12.136-15.194-12.518-.095-.191 0-.478.191-.573 0 0 4.492-2.771 11.945-5.543.096-3.726-.191-6.497-.382-9.078-.096-1.337-.287-2.771-.382-4.3 0-.191.095-.382.286-.477 2.485-1.243 5.065-2.103 7.741-2.485 1.146-.191 2.675-.287 3.726.478.287 0 .956-.478 1.434-.669.955-.573 1.529-.86 2.006-.764a.744.744 0 01.383.382c.955 2.293 1.529 5.16 2.006 7.835.478 2.581 1.052 5.256 1.912 7.454.477.096 2.006 0 3.153-.096 3.44-.095 3.822-.095 4.013.287.478 1.051.287 5.734.287 7.645-.191 6.593-.573 6.88-.764 6.975-6.021 4.109-11.754 6.116-17.105 6.116zm-19.398-13.282c1.051 1.815 5.829 9.364 14.429 11.658 6.498 1.72 13.665 0 21.405-5.065.382-1.338.764-11.467.382-13.378-.573 0-2.007 0-3.153.096-3.441.095-3.823.095-4.014-.287-.955-2.293-1.529-5.16-2.007-7.836-.477-2.58-1.051-5.256-1.911-7.453-.286.095-.764.382-1.146.573-1.052.573-1.912 1.051-2.389.669-.765-.669-2.103-.478-3.058-.382a24.716 24.716 0 00-7.263 2.293c.096 1.338.191 2.58.287 3.918.287 2.771.573 5.542.382 9.556 0 .191-.095.382-.286.382-6.212 2.293-10.416 4.587-11.658 5.256z" fill="#282828"/><path d="M166.091 70.719c.765 5.542 1.816 11.276.383 16.723-.765 2.962-.669 18.155 11.466 22.551 6.403 2.294 13.761 1.816 20.354-2.198 4.492-2.675 9.938-11.18 8.887-19.59 3.727 1.052 7.358-1.432 7.454-4.777 0-1.911-2.103-4.3-4.3-4.204-1.72.095-1.912.095-3.249 1.146-.86-3.918-1.434-7.931-1.338-12.422-4.205-4.683-10.989-6.976-17.774-8.027-2.198-.382-4.491-.574-6.785-.287-6.593.765-15.862 5.447-15.098 11.085z" fill="#fff"/><path d="M185.87 111.904c-2.676 0-5.447-.478-8.027-1.434-12.232-4.3-12.71-19.398-11.754-23.125 1.242-4.682.573-9.746-.191-14.524l-.287-2.007c-.191-1.625.287-3.153 1.434-4.682 2.866-3.727 9.364-6.403 13.951-6.976 2.485-.287 5.065 0 6.976.287 5.638.86 13.282 2.962 18.06 8.218.096.095.096.19.096.286-.096 3.822.286 7.55 1.242 11.658.956-.669 1.338-.669 2.962-.764 1.147-.096 2.294.478 3.249 1.338.956.955 1.625 2.197 1.625 3.344 0 1.625-.86 3.154-2.198 4.205a7.019 7.019 0 01-5.16 1.242c.764 8.505-4.682 16.723-9.174 19.398-4.109 2.294-8.409 3.536-12.804 3.536zm-2.581-51.984c-.764 0-1.433 0-2.197.096-4.396.573-10.607 3.058-13.378 6.593-1.052 1.338-1.434 2.676-1.243 4.014l.287 2.006c.669 4.97 1.433 10.034.096 14.908-.574 2.006-1.243 17.582 11.18 21.978 6.689 2.389 13.76 1.624 19.971-2.198 4.205-2.58 9.652-10.798 8.601-19.111 0-.192 0-.287.191-.383.095-.095.286-.095.478-.095 1.72.478 3.535.19 4.969-.86 1.146-.86 1.815-2.103 1.815-3.44 0-.86-.478-1.912-1.338-2.676-.764-.764-1.72-1.147-2.58-1.147-1.72.096-1.815.096-2.962 1.051-.096.096-.287.096-.478.096-.191-.096-.287-.191-.287-.382-.955-4.396-1.433-8.314-1.433-12.423-4.587-4.969-11.945-6.976-17.296-7.74-1.147-.096-2.675-.287-4.396-.287z" fill="#282828"/><path d="M192.654 92.983c-1.816 0-3.536-.669-4.969-1.91-1.72-1.434-2.771-3.536-3.058-5.83-.287-2.293.191-4.587 1.529-6.402a7.588 7.588 0 015.256-3.25c4.3-.573 8.409 2.868 8.982 7.645.573 4.778-2.389 9.078-6.785 9.652-.286.095-.669.095-.955.095zm-.382-16.436c-.287 0-.574 0-.765.096-1.816.191-3.44 1.242-4.587 2.867-1.146 1.624-1.624 3.63-1.338 5.733.287 2.102 1.243 3.918 2.772 5.256 1.529 1.242 3.344 1.815 5.16 1.624 3.822-.478 6.498-4.395 5.924-8.6-.573-4.109-3.631-6.976-7.166-6.976zm-21.595 17.488c-4.013 0-7.453-3.25-8.027-7.74-.286-2.294.191-4.587 1.529-6.403a7.592 7.592 0 015.256-3.249c2.102-.286 4.204.382 5.925 1.816 1.72 1.433 2.771 3.535 3.057 5.829.574 4.778-2.389 9.078-6.784 9.651-.382.096-.669.096-.956.096zm-.382-16.532c-.287 0-.573 0-.86.096-1.816.191-3.44 1.242-4.587 2.867-1.147 1.624-1.624 3.63-1.338 5.733.574 4.3 4.109 7.358 7.932 6.785 3.822-.478 6.498-4.396 5.924-8.6-.286-2.103-1.242-3.918-2.771-5.256-1.242-1.051-2.771-1.625-4.3-1.625z" fill="#282828"/><path d="M206.507 80.846c-3.536-5.542-5.733-9.46-6.88-16.245-13.187 7.74-25.61 6.403-38.223 5.925-.287-2.102.191-4.3 1.051-6.403 2.198-4.969 4.873-9.269 12.518-12.709 5.351-2.389 12.518-3.918 18.251-3.153 5.734.86 10.703 3.918 14.716 7.645 3.154 2.962 5.925 7.835 6.881 12.613.86 4.11-.192 7.167-2.007 11.276-1.051-.573-2.007-1.147-3.249-.86-1.242.478-2.102 1.051-3.058 1.911z" fill="#F9B974"/><path d="M206.511 81.325c-.191 0-.287-.095-.382-.19-3.249-4.97-5.638-9.079-6.88-15.768-11.945 6.785-23.508 6.307-34.688 5.83-1.051 0-2.102-.097-3.249-.097-.191 0-.382-.19-.478-.382-.286-2.102.096-4.395 1.147-6.593 2.007-4.587 4.587-9.27 12.709-12.9 4.778-2.103 12.136-4.11 18.538-3.154 5.161.765 10.13 3.345 14.908 7.74 3.344 3.154 6.02 8.027 6.975 12.9.86 4.396-.382 7.74-2.102 11.563l-.287.287h-.382l-.096-.096c-.955-.478-1.815-.955-2.771-.764-1.146.19-1.815.764-2.771 1.624h-.191zm-6.88-17.105h.191c.096.096.287.192.287.383 1.146 6.689 3.44 10.798 6.593 15.576.86-.67 1.625-1.243 2.771-1.53 1.147-.19 2.103.192 3.058.67 1.816-4.205 2.485-6.88 1.816-10.607-.956-4.587-3.536-9.46-6.689-12.327-4.587-4.3-9.461-6.785-14.43-7.55-6.211-.86-13.378 1.052-18.06 3.058-7.836 3.44-10.32 8.027-12.231 12.423-.86 1.911-1.243 3.918-1.052 5.733.956 0 1.912.096 2.772.096 11.275.478 22.838 1.051 34.783-6.02 0 .095.095.095.191.095zm-12.129 37.746c-.955 0-1.815-.287-2.484-.86-.191-.191-.191-.478-.096-.669.191-.191.478-.191.669-.095.86.764 2.198.86 3.631.286a6.887 6.887 0 003.536-3.44c.095-.19.382-.382.669-.19.191.095.382.381.191.668a8.002 8.002 0 01-4.014 3.918 5.768 5.768 0 01-2.102.382z" fill="#282828"/><path d="M216.925 67.47c4.205-11.85 2.58-24.463-11.275-29.528-14.143-5.16-22.743-2.293-32.681 10.225 14.907 3.727 32.489 10.99 43.956 19.303z" fill="#fff"/><path d="M216.927 67.948c-.095 0-.191 0-.287-.096-10.702-7.74-27.902-15.289-43.765-19.207-.191 0-.287-.19-.382-.286-.096-.192 0-.287.095-.478 5.16-6.498 9.938-10.32 15.003-11.945 5.064-1.624 10.893-1.147 18.251 1.529 6.689 2.389 10.894 6.593 12.71 12.518 1.529 5.065 1.146 11.18-1.147 17.583-.096.095-.191.286-.287.286-.095.096-.191.096-.191.096zm-43.096-19.972c15.575 3.918 32.203 11.18 42.905 18.825 4.587-13.569.382-24.08-11.276-28.38-13.665-4.97-21.978-2.485-31.629 9.555zm18.246 36.694c-.096-.668-.765-1.146-1.434-1.05-.764.095-1.242.764-1.147 1.433.096.669.765 1.147 1.434 1.051.764-.096 1.242-.764 1.147-1.433zm-19.579 1.052c-.095-.67-.764-1.147-1.433-1.052-.764.096-1.242.765-1.147 1.434.096.669.765 1.146 1.434 1.05.764-.095 1.242-.764 1.146-1.432zm7.36 8.028h-.191l-1.816-.67c-.191-.095-.669-.286-.765-.668-.191-.478.096-.956.287-1.147 1.338-1.816 1.816-4.109 1.242-6.307-.095-.287.096-.478.287-.573.287-.096.478.095.573.286.669 2.39.192 5.065-1.337 7.072 0 .095-.192.19-.192.286 0 0 .096 0 .192.096l1.815.669c.287.096.382.382.287.573 0 .287-.191.382-.382.382zm-2.294-10.703c-.287 0-.478-.19-.478-.477 0-1.243 1.147-2.103 2.389-2.39 1.911-.477 4.109 0 5.638 1.338a.462.462 0 010 .67.462.462 0 01-.669 0c-1.242-1.052-3.154-1.53-4.778-1.052-.86.191-1.624.765-1.624 1.434 0 .286-.192.477-.478.477zm21.875-2.103c-.287 0-.478-.191-.478-.478s.191-.478.478-.478h6.498c.286 0 .477.191.477.478s-.191.478-.477.478h-6.498z" fill="#282828"/><path d="M207.079 85.435c-.287 0-.478-.19-.478-.478 0-1.624-.287-3.153-.956-4.682-.095-.287 0-.478.287-.669.287-.095.478 0 .669.287.669 1.529 1.051 3.344.955 5.064 0 .287-.191.478-.477.478z" fill="#282828"/><path d="M254.662 173.157c-5.733-15.672-8.887-31.152-22.456-42.524-6.498-5.446-14.333-9.269-23.411-9.842-.574 8.791-10.703 14.525-16.15 15.194-2.962.382-13.951 1.815-13.951-11.181-3.631 1.434-15.576 2.867-20.354 17.679-2.007 6.02-5.447 29.049-17.009 42.427-2.772 3.154-5.256-17.869-9.174-16.436-3.822 1.338-8.313 3.632-8.6 7.741-.191 3.153 2.389 5.924 5.351 7.262 6.307 2.676 8.696 15.863 15.48 16.818 7.072.956 18.348 3.631 26.852-23.125 4.396 4.396 7.167 9.078 12.041 11.658 14.142 7.645 61.061 16.15 68.706 17.487.669.096 2.102-.382 2.293-.955 1.625-3.823 5.829-17.392.382-32.203z" fill="#fff"/><path d="M252.083 206.793h-.287c-9.078-1.625-54.755-9.938-68.802-17.583-3.44-1.815-5.829-4.587-8.313-7.549-1.051-1.242-2.103-2.484-3.249-3.631-3.632 11.085-8.027 17.965-13.474 21.214-4.778 2.771-9.269 2.102-12.996 1.624-.287 0-.478-.095-.669-.095-3.822-.574-6.307-4.683-8.696-8.792-2.006-3.344-4.109-6.88-6.88-8.026-2.962-1.243-5.829-4.109-5.638-7.645.287-3.44 3.154-6.116 8.887-8.218.382-.191.86-.096 1.242.095 1.816.956 3.249 5.352 4.587 9.652.86 2.867 2.103 6.784 2.963 6.976.095 0 .191-.096.191-.192 9.173-10.607 13.378-27.711 15.576-36.885.573-2.293 1.051-4.204 1.433-5.351 4.205-12.901 14.047-15.863 18.729-17.296.765-.191 1.434-.382 1.912-.574.191-.095.286 0 .477.096.096.096.191.191.191.382 0 3.918 1.052 6.785 3.058 8.6 3.249 2.867 8.314 2.294 10.225 2.103h.096c5.255-.669 15.193-6.212 15.767-14.716 0-.096.095-.287.191-.287.095-.095.191-.095.382-.095 8.409.573 16.34 3.917 23.698 9.938 11.276 9.46 15.385 21.596 19.781 34.496.86 2.676 1.815 5.447 2.867 8.218 4.873 13.378 2.006 26.756-.383 32.49-.573.478-2.006 1.051-2.866 1.051zm-80.938-30.196c.096 0 .287.095.382.095 1.434 1.433 2.676 2.867 3.918 4.3 2.485 2.867 4.874 5.638 8.123 7.358 13.951 7.549 59.532 15.863 68.515 17.487.477.096 1.624-.382 1.815-.764.287-.574 6.403-15.385.382-31.821-1.051-2.771-1.911-5.542-2.866-8.218-4.3-12.805-8.409-24.845-19.494-34.114-6.976-5.829-14.621-9.078-22.647-9.747-.478 4.873-3.727 8.409-6.403 10.511-3.058 2.485-7.071 4.3-10.129 4.683h-.095c-2.007.286-7.454.86-10.99-2.294-2.102-1.911-3.249-4.778-3.344-8.695-.382.095-.86.286-1.338.382-4.873 1.529-14.047 4.204-18.06 16.722-.383 1.147-.86 2.963-1.338 5.352-2.198 9.269-6.403 26.469-15.767 37.267-.383.478-.86.574-1.147.478-1.242-.287-2.198-2.962-3.631-7.645-1.147-3.726-2.58-8.409-4.109-9.078a.614.614 0 00-.574 0c-5.351 1.912-8.026 4.3-8.313 7.358-.191 3.058 2.484 5.638 5.065 6.785 3.057 1.338 5.255 4.969 7.262 8.409 2.389 4.013 4.587 7.836 8.027 8.314.191 0 .478.095.764.095 6.976 1.051 17.487 2.58 25.61-22.838.095-.191.191-.287.382-.287v-.095z" fill="#282828"/><path d="M152.514 204.884c10.702.191 21.405.478 32.107.669v-5.447l-35.738-.86 3.631 5.638z" fill="#fff"/><path d="M184.622 206.126l-32.107-.669c-.191 0-.287-.096-.382-.191l-3.632-5.638c-.095-.191-.095-.382 0-.478.096-.191.191-.287.383-.287l35.738.86c.287 0 .478.191.478.478v5.447c0 .095-.096.287-.191.382 0 0-.191.096-.287.096zm-31.821-1.72l31.343.669v-4.492l-34.305-.86 2.962 4.683z" fill="#282828"/><path d="M237.862 188.256c-12.9-.764-25.801-1.624-38.797-2.484a554.538 554.538 0 00-8.313-1.243c-1.242-.191-2.389-.669-3.44-1.146-3.823-1.816-12.136-5.256-13.952-4.205-4.3 1.242-8.122 4.3-11.084 8.218-1.721 2.198-3.058 5.829-2.389 6.402.477.383 1.146.574 1.624.192a20.321 20.321 0 019.938-9.843c-2.007 1.147-3.918 2.485-5.542 4.109-1.72 1.625-3.249 3.536-3.631 5.829 0 .191-.096.382 0 .573.191.383.86.192 1.146-.095.669-.573 9.556-7.74 11.18-7.549-2.197.86-10.033 7.167-10.129 7.836 0 .286 0 .669.287.955.287.382.764.478 1.242.382.478-.095.86-.286 1.243-.573 2.58-1.529 4.873-3.44 7.549-4.587 1.337-.573 3.057-.86 4.3-.095-2.485.955-4.683 2.293-6.689 4.013-.287.287-.574.574-.765.956-.286.573-.669 1.338-.191 1.72.669.764 1.242.382 1.816 0 2.389-1.529 4.778-2.867 7.262-3.823.765-.286 1.72-.573 2.389-.095.573.382 3.536 2.198 9.651 2.58 2.103.096 4.109.669 6.689 1.338 34.115 9.46 44.339 13.187 52.653 9.651 1.624-.669 2.198-1.529 1.624-4.3-1.624-7.453-2.962-11.658-15.671-14.716z" fill="#fff"/><path d="M244.833 209.087c-6.497 0-15.862-2.58-33.445-7.549a1222.545 1222.545 0 00-12.422-3.44c-2.389-.669-4.492-1.242-6.594-1.338-5.733-.286-8.791-1.911-9.842-2.58-.574-.382-1.338-.095-2.007.191-2.485.956-4.778 2.198-7.167 3.823h-.095c-.574.382-1.434.86-2.389-.096-.765-.764-.096-1.911.191-2.293.191-.382.478-.765.86-1.051 1.624-1.529 3.535-2.771 5.733-3.727-.955-.191-2.006.191-2.771.478-1.816.764-3.44 1.815-5.064 2.962a22.37 22.37 0 01-2.485 1.625c-.382.286-.86.477-1.338.573-.669.095-1.338-.096-1.624-.573-.287-.287-.383-.765-.383-1.243 0-.095.096-.191.192-.382l-.192.191c-.191.096-.286.191-.286.287-.287.287-.86.478-1.242.382-.287 0-.478-.191-.574-.382-.095-.191-.095-.287-.095-.478-.574.382-1.434.382-2.103-.287-1.146-1.051.86-5.16 2.294-7.071 3.249-4.204 7.167-7.167 11.276-8.313 2.197-1.147 10.798 2.58 14.333 4.204.86.382 2.103.956 3.345 1.051.382.096 1.051.191 1.911.287 2.198.287 5.542.764 6.498.955 12.709.86 25.801 1.816 38.796 2.485h.096c12.996 3.058 14.429 7.549 15.863 15.003.573 2.771.095 4.013-1.912 4.873-2.389.956-4.682 1.433-7.358 1.433zm-62.877-16.053c.383 0 .765.095 1.147.286 1.051.669 3.918 2.198 9.46 2.485 2.198.095 4.3.669 6.785 1.338 4.587 1.242 8.696 2.389 12.422 3.44 24.559 6.88 32.872 9.173 39.848 6.211 1.338-.573 1.911-1.147 1.338-3.822-1.433-7.358-2.771-11.372-15.098-14.334-12.996-.764-26.088-1.624-38.797-2.485-.86-.095-4.204-.668-6.498-.955-.86-.096-1.529-.191-1.911-.287-1.338-.191-2.675-.764-3.631-1.146-6.976-3.154-12.327-4.874-13.569-4.301h-.096c-3.918 1.147-7.74 4.014-10.893 8.027-1.721 2.198-2.676 5.352-2.389 5.829.191.191.573.383.86.191 2.006-4.3 5.733-7.931 10.033-9.938a.46.46 0 01.574.192c.095.191 0 .477-.192.668a28.661 28.661 0 00-5.446 4.014c-2.103 2.007-3.154 3.727-3.536 5.542v.191c.096 0 .287-.095.478-.191.095 0 .191-.095.286-.191 9.556-7.645 10.798-7.453 11.276-7.453.191 0 .383.191.383.382a.527.527 0 01-.287.478c-2.007.764-9.174 6.498-9.747 7.549 0 .191.095.382.191.573.191.191.478.287.765.191.382-.095.668-.286 1.051-.478.86-.477 1.624-1.051 2.484-1.624 1.625-1.147 3.345-2.294 5.16-3.058 1.338-.573 3.249-1.051 4.683 0 .191.096.191.287.191.478s-.096.287-.287.382c-2.484.956-4.682 2.293-6.498 3.918-.287.287-.478.573-.669.86-.478.86-.382 1.147-.286 1.242.382.382.573.287 1.242 0 2.389-1.624 4.778-2.867 7.358-3.822.573-.191 1.146-.382 1.815-.382z" fill="#282828"/><path d="M61.36 155.193l69.757.383 24.08 49.307-69.088-.191-24.75-49.499z" fill="#F9B974"/><path d="M155.196 205.36l-69.088-.191c-.191 0-.382-.095-.382-.286l-24.654-49.595c-.096-.191-.096-.287 0-.478.095-.095.286-.191.382-.191l69.757.382c.191 0 .382.096.382.287l24.081 49.403c.096.192.096.287 0 .478-.191.096-.382.191-.478.191zm-68.802-1.051l68.038.191-23.603-48.447-68.706-.383 24.271 48.639z" fill="#282828"/><path d="M105.496 175.26c-2.006-.192-4.109.382-4.969 2.197-.764 1.816-.191 4.109 1.242 5.447 1.434 1.338 3.632 1.816 5.543 1.338 1.051-.191 2.102-.764 2.675-1.624.383-.574.574-1.338.574-2.103.191-2.484-.956-4.873-5.065-5.255z" fill="#fff"/><path d="M105.971 184.816c-1.624 0-3.249-.573-4.395-1.624-1.625-1.529-2.294-4.014-1.434-6.02.765-1.816 2.867-2.676 5.447-2.389 4.682.477 5.638 3.344 5.638 5.638 0 .955-.287 1.72-.669 2.389-.764 1.146-2.007 1.624-2.962 1.815-.574.191-1.147.191-1.625.191zm-1.242-9.078c-1.147 0-3.058.287-3.727 1.911-.669 1.625-.191 3.632 1.147 4.874 1.338 1.147 3.249 1.624 5.16 1.242 1.051-.287 1.911-.764 2.389-1.433a3.68 3.68 0 00.478-1.816c0-2.867-1.529-4.396-4.778-4.682-.096-.096-.382-.096-.669-.096zm125.386 12.614a.525.525 0 01-.478-.287c-4.874-14.716-7.645-23.985-7.645-44.148 0-.286.191-.478.478-.478s.478.192.478.478c0 19.972 2.771 29.241 7.549 43.861.095.287-.096.478-.287.574 0-.096 0 0-.095 0zm-58.954-10.798c-.191 0-.287-.096-.382-.191-6.307-8.983-4.587-15.576-2.962-21.979.86-3.153 1.624-6.498 1.528-10.129 0-.287.192-.478.478-.478.287 0 .478.191.478.478.096 3.727-.764 7.071-1.529 10.32-1.624 6.498-3.249 12.518 2.771 21.214.191.191.096.478-.095.669-.096.096-.191.096-.287.096zm36.115-99.955c-.096 0-.096 0-.096-.096-1.337-2.102-2.484-4.3-3.344-6.593 0-.096 0-.191.095-.191.096 0 .192 0 .192.095.86 2.294 2.006 4.492 3.344 6.594l-.191.19zm2.485-.476c-.095 0-.095 0-.095-.096l-1.338-2.484c0-.096 0-.191.096-.191.095 0 .191 0 .191.095l1.338 2.485-.192.19zm-18.153 78.261c-6.307 0-12.709-.573-18.825-2.102-.095 0-.095-.096-.095-.191 0-.096.095-.096.191-.096 15.576 3.918 32.489 1.529 47.301-.573.095 0 .191.095.191.095 0 .096-.096.192-.096.192-9.173 1.337-18.92 2.675-28.667 2.675z" fill="#282828"/><path d="M197.235 167.616c-9.269 0-18.634-1.147-27.616-3.345-.096 0-.096-.096-.096-.191 0-.096.096-.096.192-.096 16.531 4.014 34.114 4.396 50.741.956.095 0 .191 0 .191.096 0 .095 0 .191-.096.191-7.644 1.624-15.48 2.389-23.316 2.389zm58.495 24.652s-.095 0-.095-.095c-5.829-6.881-15.385-10.321-24.272-8.792-.096 0-.191 0-.191-.095 0-.096 0-.191.095-.191 8.983-1.529 18.634 2.006 24.559 8.886.095.096.095.192 0 .192 0 .095 0 .095-.096.095zm-1.05-6.305c-1.051-.382-1.815-1.051-2.484-1.72-.287-.191-.574-.478-.765-.669-1.624-1.338-3.631-2.198-5.733-2.58-.096 0-.191-.095-.096-.191 0-.095.096-.191.191-.095 2.198.286 4.205 1.242 5.925 2.58.286.191.573.477.764.669.765.668 1.434 1.337 2.389 1.72.096 0 .096.095.096.191-.191.095-.191.095-.287.095z" fill="#282828"/><path d="M147.648 49.982c3.345-6.498 21.023-6.211 29.528-6.116 12.9.86 34.496 11.276 41.09 18.825 7.549 8.505 14.907 18.92 11.849 24.08-.287-7.644-17.105-21.786-33.636-28.953-19.399-8.218-43.862-13.76-48.831-7.836z" fill="#fff"/><path d="M230.116 87.25h-.095c-.191-.096-.382-.192-.382-.478-.287-7.263-16.819-21.406-33.35-28.477-19.494-8.313-43.575-13.569-48.352-7.931-.192.191-.383.191-.669.096-.191-.096-.287-.383-.191-.574 3.344-6.593 20.449-6.498 29.623-6.402h.382c13.282.86 34.974 11.658 41.472 19.016 10.511 11.945 14.525 20.258 11.945 24.654 0 0-.191.095-.383.095zm-73.77-40.23c3.344 0 7.071.477 10.415 1.05 9.078 1.625 19.972 5.065 29.91 9.27 15.958 6.784 31.248 19.59 33.637 27.52.764-4.3-3.441-11.849-12.423-21.978-6.402-7.262-27.712-17.774-40.803-18.634h-.287c-6.976-.095-20.354-.19-26.278 3.44 1.624-.477 3.631-.669 5.829-.669z" fill="#282828"/><path d="M216.734 58.106s-.095 0-.095-.096c-3.44-3.63-7.836-6.115-12.041-8.313-7.071-3.727-14.715-7.263-22.838-8.123-.095 0-.191-.095-.095-.19 0-.096.095-.192.191-.096 8.218.86 15.862 4.395 22.934 8.122 4.3 2.198 8.695 4.682 12.135 8.41.096.095.096.19 0 .19-.095.096-.191.096-.191.096zm.01-3.441c-.095 0-.095 0-.095-.095a11.566 11.566 0 00-2.007-2.294c-.096-.095-.096-.19 0-.19.096-.096.191-.096.191 0 .86.668 1.529 1.528 2.102 2.388 0 0 0 .096-.191.191.096 0 .096-.095 0 0zM164.472 67.28c-.095 0-.191-.096-.191-.192 1.338-3.727 3.631-7.167 6.689-9.747.096-.095.191-.095.191 0 .096.096.096.191 0 .191-3.057 2.58-5.255 5.83-6.593 9.556.095.191 0 .191-.096.191zm3.25.094c-.095 0-.191-.096-.191-.191.382-1.051.956-2.007 1.816-2.772.095-.095.191-.095.191 0 .096.096.096.192 0 .192-.765.764-1.338 1.72-1.72 2.675.095.096 0 .096-.096.096zm80.937 74.535h-.095c-.096-.095-.096-.191 0-.191 2.102-2.484 2.771-6.02 1.72-9.173 0-.096 0-.191.095-.191.096 0 .192 0 .192.095 1.051 3.153.382 6.88-1.816 9.46 0-.095 0 0-.096 0zm-.958-7.644c-.096 0-.192-.096-.192-.191 0-1.242-.382-2.58-1.146-3.536-.096-.095 0-.191 0-.191.095-.095.191 0 .191 0 .764 1.051 1.242 2.389 1.242 3.727.096.095 0 .191-.095.191z" fill="#282828"/><path d="M35.552 172.968c2.728-1.449 6.478-3.409 9.547-3.239 3.068.171 5.114 1.705 6.137 4.603 2.727 8.353-13.553 12.7-16.792 11.507-.852-.256-1.705-.767-1.875-1.619-.17-1.023.682-1.961 1.704-2.217 1.023-.255 2.046-.085 3.069 0 3.069.171 6.137-.937 8.353-3.068.938-.853 1.705-2.046 1.45-3.239-.342-1.875-2.643-2.557-4.518-2.216-1.876.341-3.495 1.363-5.37 1.534-1.023.085-2.302-.256-2.472-1.279-.17-1.108.511-.682.767-.767z" fill="#fff"/><path d="M35.89 186.522a7.21 7.21 0 01-1.62-.17c-1.194-.426-1.96-1.108-2.131-1.961-.256-1.278.852-2.386 2.045-2.727.853-.256 1.705-.171 2.472-.085.256 0 .426.085.682.085 2.898.17 5.882-.938 8.012-2.898.597-.597 1.535-1.705 1.364-2.898-.085-.512-.426-.938-.852-1.364-.767-.512-2.046-.767-3.069-.597-.767.171-1.534.426-2.386.682-.938.341-1.96.767-3.069.852-1.278.171-2.727-.426-2.983-1.704-.085-.341-.085-.768.17-1.023.256-.256.597-.256.853-.171h.085c3.069-1.619 6.648-3.409 9.717-3.239 3.324.171 5.455 1.79 6.478 4.944.767 2.472.085 4.859-1.96 6.904-3.666 3.495-10.314 5.37-13.809 5.37zm-.598-4.176c-.34 0-.681 0-1.022.085-.768.17-1.535.937-1.364 1.705.17.682.937 1.108 1.62 1.363 2.215.768 10.569-1.108 14.49-4.943 1.875-1.876 2.472-3.921 1.79-6.052-.938-2.728-2.813-4.177-5.711-4.347-2.898-.171-6.308 1.534-9.291 3.153-.17.086-.341.086-.512.086h-.085v.255c.085.768 1.279 1.023 2.046.938.938-.085 1.875-.426 2.813-.767.767-.256 1.62-.597 2.472-.767 1.364-.256 2.727 0 3.75.682.682.511 1.108 1.108 1.279 1.875.255 1.534-.767 2.813-1.62 3.665-2.301 2.216-5.54 3.324-8.694 3.154-.256 0-.511 0-.767-.085h-1.194z" fill="#282828"/><path d="M.44 166.831c-.17 15.599 8.78 25.827 19.945 25.827 18.923 0 20.543-21.309 20.628-25.912l-40.573.085z" fill="#fff"/><path d="M20.294 192.999c-4.943 0-9.461-1.96-13.041-5.54C2.48 182.6-.163 175.27.008 166.746c0-.256.17-.426.426-.426l40.573-.086c.085 0 .256.086.341.086.085.085.085.17.085.341-.17 4.432-1.704 26.338-21.139 26.338zM.86 167.172c0 8.098 2.472 15.087 7.075 19.69 3.41 3.495 7.756 5.285 12.445 5.285 18.07 0 20.03-19.946 20.201-25.06l-39.72.085z" fill="#282828"/><path d="M22.935 162.484c1.108-2.216 1.278-5.284.34-7.842-.766-2.045-2.13-3.75-3.068-5.71-1.108-2.558-1.364-5.626-1.108-8.354.256-2.727 1.193-5.37 2.046-7.842-.086 3.751.852 7.672 2.557 10.911 1.108 2.045 2.472 3.835 3.239 6.137 1.364 4.347-.426 9.035-4.006 12.7z" fill="#F9B974"/><path d="M22.935 162.91c-.086 0-.17 0-.256-.085-.17-.085-.256-.341-.17-.512 1.107-2.13 1.193-5.029.255-7.5-.426-1.109-1.023-2.046-1.62-3.069-.51-.852-1.022-1.705-1.448-2.642-1.109-2.387-1.45-5.456-1.109-8.609.341-2.898 1.194-5.541 2.131-7.928.086-.17.256-.34.512-.255.17 0 .34.255.34.426-.084 3.665.768 7.501 2.473 10.655.34.596.682 1.278 1.108 1.875.852 1.364 1.62 2.728 2.13 4.347 1.28 4.262-.255 9.206-4.09 13.212 0 0-.171.085-.256.085zm-2.131-27.958c-.597 1.79-1.108 3.665-1.279 5.626-.34 2.983 0 5.881 1.023 8.183.426.852.938 1.704 1.364 2.557.596 1.023 1.278 2.046 1.704 3.239.682 1.875.853 4.091.427 5.966 2.557-3.409 3.495-7.245 2.472-10.654-.427-1.535-1.279-2.813-2.046-4.177-.341-.597-.767-1.278-1.108-1.875-1.45-2.728-2.302-5.796-2.557-8.865z" fill="#282828"/><path d="M17.045 162.485c1.193-.767 2.13-1.961 2.557-3.325.426-1.363.34-2.898-.341-4.176-.426-.767-1.108-1.364-1.62-2.046-.511-.682-1.023-1.449-1.023-2.301-.937 1.704-1.704 3.75-.937 5.625.34.768.852 1.449 1.193 2.217.682 1.278.426 2.983.17 4.006z" fill="#F9B974"/><path d="M17.05 162.91c-.086 0-.17 0-.256-.085-.17-.085-.256-.256-.17-.426.34-1.534.255-2.813-.086-3.751l-.511-1.022c-.256-.341-.426-.768-.597-1.194-.682-1.619-.34-3.665.938-5.966.085-.171.255-.256.511-.171.17.085.341.256.341.426 0 .597.256 1.279.938 2.046.17.171.34.426.511.597.426.426.852.937 1.108 1.449.767 1.278.938 2.983.426 4.517-.426 1.364-1.449 2.643-2.727 3.495-.256 0-.341.085-.426.085zm-.512-10.995c-.682 1.619-.852 2.983-.34 4.176.17.341.34.682.596 1.023.256.341.426.682.597 1.108.34.853.511 1.961.34 3.154.768-.682 1.28-1.534 1.62-2.387.426-1.278.341-2.727-.34-3.75-.257-.511-.683-.852-1.024-1.279-.17-.17-.34-.426-.596-.682-.427-.511-.682-.937-.853-1.363zM2.483 170.498a.183.183 0 01-.17-.171c0-.085.085-.17.17-.17 12.018-.341 24.122-.426 36.14-.341.086 0 .171.085.171.17a.183.183 0 01-.17.171c-12.019-.171-24.123 0-36.141.341zm90.788-38.539a.469.469 0 01-.426-.255c-2.387-5.2-5.711-9.888-9.717-13.979a.412.412 0 010-.597.411.411 0 01.597 0 51.399 51.399 0 019.887 14.235c.085.17 0 .426-.17.596h-.17zm-5.029 1.023c-.17 0-.341-.085-.341-.256-.938-1.875-2.131-3.665-3.41-5.284-.17-.171-.085-.427.086-.597.17-.171.426-.085.596.085 1.364 1.705 2.557 3.495 3.495 5.37.085.171 0 .426-.17.597-.086.085-.17.085-.256.085zM2.733 131.63c-.511 0-1.108-.171-1.449-.512-.681-.596-1.022-1.534-.681-2.386.34-.853 1.278-1.449 2.216-1.279.852.17 1.534.597 1.79 1.193.255.597.085 1.194-.086 1.62-.085.341-.255.682-.596.937-.341.341-.767.427-1.194.427zm-.426-3.325c-.426 0-.937.341-1.023.767-.17.512 0 1.023.427 1.45.426.34 1.108.511 1.534.085.17-.171.256-.426.34-.597.171-.426.171-.682.086-.938-.17-.34-.597-.596-1.193-.767h-.17z" fill="#282828"/></svg>