<svg width="359" height="210" fill="none" xmlns="http://www.w3.org/2000/svg"><mask id="a" style="mask-type:luminance" maskUnits="userSpaceOnUse" x="0" y="170" width="359" height="34"><path d="M358.41 170.84H0v32.3h358.41v-32.3z" fill="#fff"/></mask><g mask="url(#a)" fill="#C47A2C"><path d="M237.641 200.89c31.95-4.72 63.38-12.22 95.25-17.35 34.41-5.53 69.27-6.66 103.98-3.47 39.81 3.66 78.62 13.49 117.29 23.2 16.62 4.18 33.35 9.19 50.47 10.8 14.21 1.34 28.65.48 42.57-2.69 28.83-6.58 54.39-23.39 71.66-47.42 2.31-3.22 4.46-6.55 6.47-9.96.57-.97-.94-1.85-1.51-.88-15.63 26.48-40.43 46.19-70.02 54.75-13.88 4.02-28.4 5.59-42.82 4.9-16.7-.8-32.79-5.3-48.93-9.33-37.87-9.46-75.73-19.42-114.57-24.01-34.92-4.12-70.31-3.95-105.14.92-30.82 4.31-61.12 11.69-91.82 16.75-4.44.73-8.89 1.43-13.34 2.08-1.11.16-.64 1.85.47 1.69l-.01.02zm-468.543-29.739c26.8-3.34 53.91-4.07 80.89-3.3 24.65.7 49.3 2.64 73.68 6.35 22.78 3.46 45.31 8.4 67.84 13.16 11.7 2.47 23.38 5.08 35.18 7.03 10.94 1.81 21.95 3.2 32.97 4.37 25.6 2.74 51.34 4.36 77.08 5.06 3.16.09 6.32.15 9.49.21 1.13.02 1.13-1.73 0-1.75-25.86-.44-51.72-1.88-77.47-4.35-11.71-1.12-23.4-2.46-35.04-4.2-11.64-1.74-22.32-3.98-33.43-6.31-23.02-4.82-45.98-9.99-69.19-13.81-23.85-3.92-47.92-6.18-72.05-7.19-26.57-1.12-53.29-.79-79.76 1.84-3.4.34-6.8.72-10.19 1.14-1.1.14-1.12 1.89 0 1.75z"/></g><path d="M132.546 95.041c-2.51-.98-.18-3.99.94-5.01a15.88 15.88 0 014.93-3.04c.99-.38 1.93-.81 2.61.3.4.64.59 1.54.72 2.29.28 1.58.15 3.23-.32 4.76-.47 1.53-1.3 2.96-2.46 4.08-.3.29-.62.58-.97.81-.36.24-1.32.76-1.76.35-1.06-.97 1.6-2.41 2.23-2.79 1.37-.83 3.27-1.86 4.94-1.37 1.91.56 1.9 3.05.2 3.86l.76.1c-.53-.57 2.35-2.09 2.73-2.3.55-.3 1.14-.65 1.74-.84.38-.15.79-.2 1.2-.14.55.32.61.64.18.96l.71.92c.48-.9 1.15-2.04 2.23-2.27.66-.14 1.22.15 1.57.71.11.34.21.68.28 1.02.27-.1.53-.2.81-.28 2.36-.75 4.84-.8 7.25-.25.78.18 1.12-1.02.33-1.21-2.75-.64-5.64-.56-8.32.38-.78.27-1.91.54-1.7 1.58.15.76.92 1.08 1.61.85 1.95-.67 1.02-3.13-.36-3.83-2.08-1.05-3.9 1.01-4.78 2.66-.27.51.17 1.01.71.92 1.03-.18 1.42-1.32 1.08-2.23-.45-1.22-1.83-1.38-2.94-1.06-1.49.42-7.3 3.03-5.22 5.29.2.22.51.21.76.1 1.5-.71 2.25-2.54 1.73-4.12-.59-1.78-2.53-2.35-4.22-2.1-2.14.31-4.34 1.59-5.94 3-1.32 1.16-1.61 3.43.58 3.8 1.91.32 3.69-1.68 4.68-3.06 1.2-1.67 1.88-3.69 2.04-5.74.16-2.05-.16-4.22-1.22-5.9-1.15-1.83-3.36-.71-4.9 0-2.28 1.04-4.88 2.74-6.16 4.97-1.03 1.81-.71 4.21 1.38 5.03.75.29 1.08-.92.33-1.21l.01.01z" fill="#C47A2C"/><path d="M166.999 88.05v20.16h-43.35l-.68-61.48 44.03.16V70" stroke="#3B4A58" stroke-width="1.2" stroke-miterlimit="10"/><path d="M155.731 58.361h-26.45v11.08h15.43m-15.43 9.949h22.53m23.167 3.1l-16.97-16.18-3.86 4.14 17.14 16.33 3.69-4.29z" stroke="#3B4A58" stroke-width="1.2" stroke-miterlimit="10"/><path d="M168.628 84.26l3.76-4.24.35-3.25-4.23-4.14m4.633 14.53l2.16 2.16c.26.26.68.25.92-.03l1.64-1.83c.22-.24.2-.62-.05-.83l-2.21-1.99m-17.952-17.95l-7.11-3.68 3.95 7.07m-5.63-8.75l2.24 2.28" stroke="#3B4A58" stroke-width="1.2" stroke-miterlimit="10"/><path d="M162.484 21.05l2.1 3.06 2.78-3.88m-4.88 13.41l2.1 3.06 2.78-3.88" stroke="#C47A2C" stroke-width="1.2" stroke-miterlimit="10"/><path d="M156.977 42.11V11.25h24.24l8.08 8.41v38.61h-15.24" stroke="#3B4A58" stroke-width="1.2" stroke-miterlimit="10"/><path d="M181.219 11.25l-.18 8.45 8.26-.04m-16.893.04h4.04m-4.04 5.63h10.28m-10.28 11.45h10.28m-10.28 10.72h10.28m-10.28-15.08h10.28m-10.28 10.79h10.28m6.126 116.811h-24.82m41.5-.871h24.511c2.57 0 4.65 2.08 4.65 4.65v15.33l-31.591 10.75m-11.921.28l-32.43-11.03v-12.4" stroke="#3B4A58" stroke-width="1.2" stroke-miterlimit="10"/><path d="M233.143 183.391v25.96h-72.26v-22.7" stroke="#3B4A58" stroke-width="1.2" stroke-miterlimit="10"/><path d="M227.519 198.531v5.85h-8.66m-46.742-49.48h7.79v-5.73c0-2.41 1.95-4.36 4.36-4.36h25.68c2.41 0 4.36 1.95 4.36 4.36v5.73h7.24" stroke="#3B4A58" stroke-width="1.2" stroke-miterlimit="10"/><path d="M184.672 154.9v-5.05h24.45v5.05" stroke="#3B4A58" stroke-width="1.2" stroke-miterlimit="10"/><path d="M156.141 170.51l32.67 11.9m48.549-11.9l-32.68 11.9" stroke="#3B4A58" stroke-width="1.2" stroke-linecap="round" stroke-linejoin="round"/><path d="M202.821 157.42h-11.68v45.22h11.68v-45.22zm-15.048 28.199h18.42m-9.209 5.63v-5.63m-5.843 9.022h11.68" stroke="#C47A2C" stroke-width="1.2" stroke-miterlimit="10"/><path d="M280.088 37.24c-.97 2.45-3.89 8.35-3.89 8.35h.61l-.89 2.64-4.85 5.05c.27-2.52.48-4.38.48-4.38s2.94-2.3 2.94-6.43c0-1.47-.55-3.01-2.08-2.39 0 0-2.27-1.41-3.86-2.94-1.24-1.2-2.01-2.24-2.46-3.36l.13.79s-8.81 1.41-11.57-4.96c-.29-.68-.54-1.37-.74-2.04-.41.2-9.76 4.68-11.32 7.74-1.59 3.12 0 5.08 0 5.08l2.14 3.37s-5.87 2-4.96-10.29c.31-4.1 3.07-13.16 12.68-18 7.95-4 16.59-1.71 18.73-.73 2.15.98 8.33 6.06 9.49 10.71 1.17 4.65.24 9.71-.58 11.79z" fill="#F9B974"/><path d="M278.444 45.59l-2.53 2.64.89-2.64 1.39-4.13.25 4.13z" fill="#F9B974"/><path d="M273.008 15.87s1.87-2.5 4.66-3.09c9.03-1.9 12.37 7.38 13.23 11.08 1.04 4.47.49 13.83.55 16.03.06 2.19 3.31 10.61 2.75 13.39-1.59 7.93-9.3 10.8-9.3 10.8s.06-4.04-1.53-8.02c-1.6-3.98-4.66-6.3-4.66-6.3l-.26-4.17" fill="#F9B974"/><path d="M241.628 78.97l-1.85 1.4-28.84 25.851 2.39 4.81m20.845-.599l-12.4 7.41-14.39 4.95m1.712-15.722l-37.22 10.77 5.17 13.88 12.89-3.98m-11.88-8.888l3.82 11.38" stroke="#3B4A58" stroke-width="1.2" stroke-miterlimit="10"/><path d="M176.213 129.5s-1.83 1.23-3.67 1.64c-1.84.41-1.01-2.16-3.26-2.53-2.25-.37-2.89 1.47-4.96 0s-2.36-4.41-4.7-4.41c-2.34 0-1.78 4.22-3.43 5.14-1.65.92-3.06.69-3.06.69l1.96-7.3s.51-2.02 3.1-2.94c2.59-.92 14.06-.95 14.06-.95m-12.709 18.311l-.6 4.42c-.1.75-.98 1.25-1.97 1.12-.99-.13-1.71-.86-1.61-1.61-.1.75-.99 1.25-1.98 1.12-.99-.13-1.9-.95-1.83-1.69-.14.73-1.05.95-2.02.85-.85-.09-1.82-1.1-1.58-1.82-.22.68-1.86.45-2.32 0-1.06-1.05-.4-4.33-.4-4.33.1-.75.99-1.25 1.98-1.12.99.13 1.71.86 1.61 1.61.1-.75.98-1.25 1.98-1.12 1 .13 1.67.82 1.6 1.56.12-.73 1-1.2 1.96-1.07.96.13 1.71.86 1.61 1.61.1-.75.98-1.25 1.98-1.12 1 .13 1.7.85 1.6 1.6l-.01-.01zM285.876 72.39l-15.54-10.09m18.849 12.93l13.59 38.37v47.53h-16.9v-39.54l6.61-2.74m-19.829-29.418l13.22 28.41m-13.22 14.63h6.61s-2.2-3.03 0-9.69 5.03-8.35 5.03-8.35m-5.033 22.468l2.939 17.8-28.659 4.28-6.981-5.04m-11.75-21.3l-3.07 20.8 9.68 3.4 1.84-4.59 3.3-72.95 7.9-10.07" stroke="#3B4A58" stroke-width="1.2" stroke-miterlimit="10"/><path d="M270.443 74.911l-6.951 9.22-14.719 19.51-2.211 6.86 19.51-15.86-1.509-9.19 9.919-1.47-1.479-15.36m-18.347 45.819s4.41 1.66 11.39.02 8.45-7.88 8.45-7.88m-35.458 23.261h-3.85l1.559-17.62" stroke="#3B4A58" stroke-width="1.2" stroke-miterlimit="10"/><path d="M240.072 113.68s-3.94-.76-5.91-4.16c-5.69-9.8 5.93-20.99 8.04-29.44" stroke="#3B4A58" stroke-width="1.2" stroke-miterlimit="10"/><path d="M245.191 109.52l-6.16-18.92 5.15-6.8-3.37-6.37 13.65-8.2m-5.113 60.811a2.09 2.09 0 100-4.18 2.09 2.09 0 000 4.18zm0 12.53a2.09 2.09 0 100-4.18 2.09 2.09 0 000 4.18zm33.957 14.269s1.47 6.31 2.57 14.2c1.1 7.9 1.47 36.18 1.47 36.18m-6.431-43.89s.92 4.22 1.29 9.55c.37 5.33 1.1 16.65 1.1 16.65m.001 4.601v1.91" stroke="#3B4A58" stroke-width="1.2" stroke-miterlimit="10"/><path d="M299.097 161.131v7.9s-4.59 3.47-7.35 4.49-5.88 0-5.88 0m4.594-17.9h12.31m-33.06-88.991c0-1.22 1.84-17.73 1.84-17.73s2.94-2.3 2.94-6.43c0-1.47-.55-3.01-2.08-2.39-1.89.76-2.69 2.02-2.69 2.02M252.992 23s.3 3.48 1.65 6.61c2.76 6.37 11.57 4.96 11.57 4.96" stroke="#3B4A58" stroke-width="1.2" stroke-miterlimit="10"/><path d="M265.547 30.541c0 2.63.66 4.36 3 6.61 1.59 1.53 3.86 2.94 3.86 2.94m-16.126-21.92l2.83-.8m1.233-.369s2.88-.61 5.88 0 6.98 2.88 9.24 6c2.27 3.12 3.24 9.24 3.24 9.24" stroke="#3B4A58" stroke-width="1.2" stroke-miterlimit="10"/><path d="M244.737 43.76s-5.88 2-4.96-10.29c.31-4.1 3.06-13.16 12.67-18 7.95-4 16.59-1.71 18.73-.73 2.14.98 8.33 6.06 9.49 10.71 1.16 4.65.24 9.71-.58 11.79-.97 2.45-3.89 8.36-3.89 8.36m-5.135 7.692l7.39-7.69" stroke="#3B4A58" stroke-width="1.2" stroke-miterlimit="10"/><path d="M278.196 41.46l.52 8.3s3.06 2.33 4.65 6.31c1.59 3.98 1.53 8.02 1.53 8.02s7.71-2.88 9.31-10.8c.56-2.78-2.69-11.2-2.76-13.39-.06-2.19.49-11.56-.55-16.03-.86-3.7-4.19-12.98-13.22-11.08-2.8.59-4.66 3.09-4.66 3.09m-19.1 11.7s-9.73 4.61-11.33 7.73c-1.6 3.12 0 5.08 0 5.08l2.14 3.37s-.92 3.67 0 7.07c.92 3.4 6.24 11.11 9.18 11.66 2.94.55 3.49 0 3.49 0l10.84-7.02m-13.775 7.27v7.1" stroke="#3B4A58" stroke-width="1.2" stroke-miterlimit="10"/><path d="M244.734 39.89s3.35-.75 4.78-.25c1.31.46 1.65 2.74 1.56 4.12-.14 2.21-1.73 5.88-1.73 5.88h3.66m-1.566 5.37s4.309.66 5.669-1.36m-.826-14.01s3.03-.91 5.79-.28c2.76.63 3.48 1.65 3.48 1.65m-9.379 1.33s1.79-.6 3.44-.42 2.46.6 2.46.6m-2.955 1.42v-1.55" stroke="#3B4A58" stroke-width="1.2" stroke-miterlimit="10"/><path d="M245.406 42.231s1.01-.46 2.3-.32c.95.11 1.56.64 1.56.64m-1.93 1.229v-1.56m35.875-25.49s4.04 1.44 4.96 7.76c.66 4.54-.73 12.18 0 14.65.73 2.47 1.56 4.81 1.56 4.81m.73 1.652l.64 2.02M249.344 81.63s1.24 1.29 5.72 1.29c4.48 0 10.49-1.52 10.49-1.52m-130.101 54.281l.37-3.04" stroke="#3B4A58" stroke-width="1.2" stroke-miterlimit="10"/><path d="M75.992 72.39v6.91l-3.92 1.07-5.83-5.39 4.87-5.85 4.88 3.26z" fill="#F9B974"/><path d="M72.07 80.371l4.15 15.64 11.16 9.5-.49-8.24s-.6-5.25-4.89-10.59c-4.3-5.34-6.01-7.39-6.01-7.39" fill="#F9B974"/><path d="M66.242 74.98l5.83 5.39 3.92-1.07v-6.91m.238 23.631l-4.16-15.65M86.9 97.28s-.6-5.25-4.89-10.59C77.71 81.35 76 79.3 76 79.3" stroke="#C47A2C" stroke-width="1.2" stroke-miterlimit="10"/><path d="M85.053 19.97s-1.28 2.66-4.9 3.09c-8.07.96-19.36-2.76-19.36-2.76s.63 1.76-1.33 6.07c-1.96 4.31-2.82 6.49-4.04 7.22-1.22.73-3.5-2.08-4.04 1.1-.37 2.17.86 6 2.33 6.24l-1.71 3.43s-12.34-15.77-2.69-29.88c3.1-4.53 10.96-7.69 20.54-9.01 1.97-.27 6.15-.54 6.15-.54l2.45 3.92s.64-.85 1.21-2.92c.51-1.85-.47-4.18-.47-4.18s5.11.9 7.59 5.54c2.76 5.15.62 9.16.62 9.16l-2.33 3.52h-.02z" fill="#F9B974"/><path d="M76.234 96.02l11.16 9.5s-.86-18.04-2.33-24.16c-1.47-6.12-6.61-17.27-6.61-17.27M41.463 202.581l-2.94-31.11m49.962 8.09l-3.43 8.57v11.39m20.86 2.019l1.1-27.1-1.14-8.35" stroke="#3B4A58" stroke-width="1.2" stroke-miterlimit="10"/><path d="M75.502 58.01l2.94 4.48v11.76l-7.1-5.39-7.35 8.82-17.39-20.57 4.66-5.64 19.85 15.98 4.39-9.44zm-27.712.5L36.32 68.62m-2.688 3.67l-.7 3.73a76.43 76.43 0 002.97 39.209l8.01 22.95h8.08M41.344 72.29s4.28-4.68 8.69-3.67c5.32 1.22 24.62 26.42 26.19 27.4l14.7 12.519-2.45 9.31" stroke="#3B4A58" stroke-width="1.2" stroke-miterlimit="10"/><path d="M94.365 109.27l49.71 10.53-2.45 18.37-60.49-8.82s-38.51-25.92-44.82-39.71c-1.42-3.1-.24-10.25 2.2-14.66m4.668 66.86l-4.66 26.85 44.82 2.78 1.54-11.02" stroke="#3B4A58" stroke-width="1.2" stroke-miterlimit="10"/><path d="M85.875 130.039l-3 5.56-4.43 8.2 10.04 25.96 17.39-7.59v-2.94M81.14 129.35l1.73 6.25m-4.425-73.11l5.33 3.92s3.61 1.87 5.94 2.2c5.1.74 25.09 44.98 25.09 44.98" stroke="#3B4A58" stroke-width="1.2" stroke-miterlimit="10"/><path d="M90.93 74.98l10.04 20.82 1.71 15.23m-10.515-5.801v-14.57l-3.68-4.9 1.84-8.08-5.27-5.39m1.288 73.71a2.57 2.57 0 10.001-5.14 2.57 2.57 0 000 5.14zm49.816-13.469a2.69 2.69 0 100-5.38 2.69 2.69 0 000 5.38zm.873-9.741l-.54 4.37m-35.523 5.38v7s1.88-.18 4.9 1.33c5.14 2.57 5.14 9.04 5.14 9.04s-.98-7.04 0-10.37c.98-3.33 2.47-5.47 2.47-5.47m-12.51 7.771V146s1.94 1.22 1.7 4.9c-.23 3.67-.84 5.76-.84 5.76l2.32 2.33 4.65-2.33 2.2-4.29v-2.47M51.995 44.37s-12.34-15.77-2.69-29.88c3.1-4.53 10.96-7.69 20.54-9.01 1.97-.27 6.15-.54 6.15-.54l2.45 3.92s.64-.85 1.21-2.92c.51-1.85-.47-4.18-.47-4.18s5.11.9 7.59 5.54c2.76 5.15.62 9.16.62 9.16" stroke="#3B4A58" stroke-width="1.2" stroke-miterlimit="10"/><path d="M49.3 29.92s-1.96-2.94 0-8.82c1.96-5.88 6.12-9.06 6.12-9.06m29.629 7.93s-1.28 2.66-4.9 3.09c-8.07.96-19.36-2.76-19.36-2.76s.63 1.76-1.33 6.07c-1.96 4.31-2.82 6.49-4.04 7.22-1.22.73-3.5-2.08-4.04 1.1-.37 2.17.86 6 2.33 6.24m1.713 4.42l-1.43 8m32.17-28.32s.24 9.8-.24 13.22c-.59 4.17-4.47 16.78-4.47 16.78s-.67.63-1.29.86c-1.82.67-11.18-.37-13.92-1.84" stroke="#3B4A58" stroke-width="1.2" stroke-miterlimit="10"/><path d="M82.85 29.07s-.98-.12-3.43.73-.98 8.45-.98 8.45l.98 4.29H75.5m-11.625-9.43s.17-1.35 3.15-1.71c2.98-.36 4.1.86 4.1.86M65.58 35.8s-.14-.98 2.2-1.22c2.34-.24 3.33.61 3.33.61" stroke="#3B4A58" stroke-width="1.2" stroke-miterlimit="10"/><path d="M79.18 33.47s.73-1.05 3.06-1.26c2.33-.21 2.82 1.26 2.82 1.26M72.07 47.43s.66.73 2.84 1.1c2.18.37 3.53 0 3.53 0M68.352 36.66v-2.12m14.5 0v-2.32m61.031 89.05s2.22.73 5.34 0c3.12-.73 4.41-3.37 7.81-3.43l12.26 1.04m-27.762 16.409l3.65.31m12.491 7.08c1.64 0 2.79-1.6 4.55-2.76.37-.24 1.32-.37 1.68-.64.38-.29.31-.65.49-1.1.27-.69.72.22 1.67-.73.3-.3-.28-1.1.37-1.76.36-.37 1.19.24 1.85-.39.88-.85-.19-.95.54-2.04.3-.44 2.23-.26 2.55-.62 1.52-1.72 1.17-1.49 1.17-1.49m-68.378 27.831l1.83-5.21.45-3.87m.79 7.689l1.5-4.81.2-2.49m-66.871 25.352l1 11.17m.276 5.078l-.37-3.35" stroke="#3B4A58" stroke-width="1.2" stroke-miterlimit="10"/></svg>