<svg width="348" height="202" fill="none" xmlns="http://www.w3.org/2000/svg"><mask id="a" style="mask-type:luminance" maskUnits="userSpaceOnUse" x="0" y="151" width="348" height="51"><path d="M347.53 151.715H0V202h347.53v-50.285z" fill="#fff"/></mask><g mask="url(#a)" fill="#C47A2C"><path d="M131.692 162.122c25.054-3.123 50.398-3.805 75.62-3.085 23.044.654 46.088 2.468 68.88 5.936 21.296 3.235 42.358 7.853 63.42 12.303 10.938 2.309 21.857 4.749 32.888 6.572 10.227 1.692 20.52 2.991 30.822 4.085 23.932 2.561 47.995 4.076 72.058 4.73 2.954.084 5.908.141 8.872.197 1.056.018 1.056-1.618 0-1.636a923.578 923.578 0 01-72.423-4.067c-10.947-1.047-21.875-2.3-32.757-3.926-10.881-1.627-20.866-3.721-31.252-5.899-21.52-4.506-42.984-9.339-64.682-12.91-22.296-3.665-44.798-5.778-67.356-6.722-24.839-1.047-49.818-.739-74.564 1.72-3.178.318-6.357.673-9.526 1.066-1.028.131-1.047 1.767 0 1.636zM.015 194.448c6.6-.776 13.125-2.346 19.538-4.048a272.693 272.693 0 0026.877-8.601 224.971 224.971 0 0015.574-6.543c.954-.449.122-1.851-.822-1.412-16.388 7.638-33.88 13.452-51.548 17.267-3.178.682-6.385 1.318-9.61 1.692-1.038.121-1.047 1.757 0 1.636l-.01.009z"/></g><path d="M141.797 194.679l3.15-20.669" stroke="#3B4A58" stroke-width="1.2" stroke-linecap="round" stroke-linejoin="round"/><path d="M87.698 175.993l-1.87 12.275 51.856 7.908 4.301-28.185-40.349-6.161m33.844 8.938l-3.113 20.454M126 189.817l3.057-20.024m-7.757 9.062l-1.589 10.443m-3.154-21.409l-3.057 20.024m-4.161-10.882l-1.589 10.443m-6.203-5.421l-.664 4.375m-6.976-5.543l-.673 4.375" stroke="#3B4A58" stroke-width="1.2" stroke-miterlimit="10"/><path d="M111.097 23.385l-3.889 8.395s-1.374 3.103-4.814 3.767c-3.431.655-9.9 0-15.65-7.142l-3.767-4.74c.28.72.505 1.534.645 2.431.692 4.384 1.43 6.04-1.43 7.843-2.861 1.805-6.694 4.759-6.18 8.722l-1.084 1.328s-2.749-2.973-3.44 0c-.683 2.973 1.813 6.581 1.813 6.581l-.205 3.263.196 4.123s-7.18-10.826-8.9-14.883c-1.85-4.375-1.514-11.994 2.524-18.314 2.515-3.954 10.76-5.32 10.76-5.32h1.945s5.609-5.178 9.732-4.468c5.945 1.029 8.04 6.105 12.499 9.012 3.692 2.403 9.245-.598 9.245-.598z" fill="#F9B974"/><path d="M66.687 69.172l-2.28 7.61 24.492 13.91v-10.76M50.2 135.743h8.012l25.41 21.501-8.246 13.471L36 145.185s.458-16.94 2.748-24.727c2.29-7.787 6.413-25.4 9.162-28.607 2.748-3.215 16.481-15.06 16.481-15.06" stroke="#3B4A58" stroke-width="1.2" stroke-miterlimit="10"/><path d="M59.823 90.693l8.47 12.826-11.91 28.841m8.023-45.553l5.03 7.441m1.595 1.709l.916 1.15m-9.393 81.286l-1.234-16.799m-.93-24.017l-.523-13.649m9.563-53.84l22.436 6.693 11.91 23.568 8.012 58.905m-11.671-55.967l2.291 23.025m-8.189-56.224c.682.682 3.15 2.515 3.15 2.515v15.05m3.881-12.307l10.536 10.302m2.128 4.877l13.443 25.924m-.004 19.295l-6.142 23.512m-3.342 0l-4.712-60.148-8.469-15.92m12.825 34.429l-2.122 9.882M90.61 74.148v-9.554m-19.118 3.441s1.14-2.29 1.599-6.18c.458-3.889 0-8.011 0-8.011" stroke="#3B4A58" stroke-width="1.2" stroke-miterlimit="10"/><path d="M77.675 19.45s-8.245 1.364-10.76 5.31c-4.029 6.319-4.366 13.938-2.515 18.313 1.711 4.057 8.9 14.883 8.9 14.883m6.886-38.506s2.749 2.262 3.431 6.655c.683 4.394 1.43 6.04-1.43 7.844-2.86 1.804-6.694 4.758-6.18 8.722" stroke="#3B4A58" stroke-width="1.2" stroke-miterlimit="10"/><path d="M74.932 43.987s-2.748-2.973-3.43 0c-.683 2.973 1.804 6.582 1.804 6.582m6.311-31.119s5.61-5.19 9.732-4.479c5.946 1.028 8.04 6.105 12.508 9.012 3.693 2.403 9.246-.598 9.246-.598l-3.889 8.404s-1.374 3.104-4.805 3.758c-3.431.664-9.9 0-15.65-7.133" stroke="#3B4A58" stroke-width="1.2" stroke-miterlimit="10"/><path d="M91.414 28.412s.458 2.618 5.039 3.375c4.581.757 5.955 0 5.955 0M82.71 42.67s1.347-2.15 4.04-1.599l2.598.542m-5.208 5.002s1.543-2.402 3.375-2.402h1.833m-1.374 2.468l-.458-2.458m14.884-8.676v4.31s-2.749-1.842-5.04 0c-2.29 1.841-2.261 4.02-1.579 6.02.682 2 2.552 6.263 2.552 6.263l-4.833.758m3.869 3.459l-5.955.627s1.88 1.888 4.375 1.888c1.122 0 1.804-.458 1.804-.458" stroke="#3B4A58" stroke-width="1.2" stroke-miterlimit="10"/><path d="M97.592 42.671s2.056-1.15 3.664-1.056c1.608.093 1.599.841 1.599.841v4.17s-.458 2.178-1.599 7.217c-1.14 5.038-1.14 7.151-1.14 7.151s1.421 1.085-1.805 2.459c-3.225 1.374-10.9.916-14.163-1.599m15.727-17.631l.262-2.45M76.336 169.164s2.945 3.263 5.179 3.609c2.234.345 3.945.514 3.945.514m2.571.001s1.29-.168 2.917.346c1.627.514 4.207 3.693 5.235 3.777 1.028.084 2.833.084 2.403-.944" stroke="#3B4A58" stroke-width="1.2" stroke-miterlimit="10"/><path d="M89.406 169.941s3.095.86 5.32 2.151c2.225 1.29 3.608 4.693 4.805 4.926 1.196.234 2.402.14 2.234-1.056-.168-1.206-.514-2.421-.514-2.421" stroke="#3B4A58" stroke-width="1.2" stroke-miterlimit="10"/><path d="M92.93 167.707s3.776 1.888 5.412 3.001c1.636 1.112 2.637 3.692 4.067 3.861 1.43.168 2.206-.683 2.29-1.29.085-.608-.682-2.067-.682-2.067s-2.917-2.916-5.188-4.038a241.456 241.456 0 00-5.47-2.58" stroke="#3B4A58" stroke-width="1.2" stroke-miterlimit="10"/><path d="M88.031 160.584l7.563 1.01s6.058 4.225 6.806 5.001c.748.776 1.084 1.374 1.346 2.15.262.776 0 1.627 0 1.627M84.945 158.61s8.414-1.617 10.134-1.365c1.72.253 2.057.505 1.973 1.365-.085.86-3.702 2.683-3.702 2.683" stroke="#3B4A58" stroke-width="1.2" stroke-miterlimit="10"/><path d="M175.93 74.15l1.738 3.843h5.834l1.898-3.843m-.275 50.164s.795-11.985.271-25.204c-.523-13.218-1.888-21.118-1.888-21.118m-8.07 43.788v-5.329" stroke="#C47A2C" stroke-width="1.2" stroke-miterlimit="10"/><path d="M175.434 111.189s-.168-7.9 0-15.229c.168-7.33 2.234-17.968 2.234-17.968" stroke="#C47A2C" stroke-width="1.2" stroke-miterlimit="10"/><path d="M200.156 61.86l20.399 8.235 6.871 11.303 8.105 58.39-5.31 15.22m-8.432-75.33l-1.234-9.582M157.92 61.86s-15.023 5.421-20.52 10.816c-5.497 5.394-10.041 13.91-10.041 18.715v63.187s22.212 1.019 27.363-.066c5.151-1.084 40.648-11.265 40.648-11.265" stroke="#3B4A58" stroke-width="1.2" stroke-miterlimit="10"/><path d="M143.828 135.749l6.189-3.384h25.409m-24.722-4.234l-3.431-33.879m12.019-28.045l-5.151 16.762 9.582 11.545 3.805 4.6" stroke="#3B4A58" stroke-width="1.2" stroke-miterlimit="10"/><path d="M168.134 123.969l-10.564-21.894 6.152-7.563m36.434-27.229l4.123 18.351-11.826 12.21m-1.898 27.658l9.601-21.754-4.806-8.367m-32.498-31.793s3.991 17.837 5.702 27.793c1.72 9.956 3.263 32.925 3.263 32.925m-4.005-74.552l.963 7.582 11.293 8.871 13.051-9.386v-3.206" stroke="#3B4A58" stroke-width="1.2" stroke-miterlimit="10"/><path d="M164.348 34.34l3.468 15.415 9.115 6.02c.589.393 1.3.543 2.001.421l4.01-.673 2.384.617a2.39 2.39 0 002.122-.486l4.301-3.637c2.225-1.879 5.384-14.845 5.384-14.845s-.458-13.125-1.393-14.845c-.934-1.72-2.935-1.954-3.917-3.132-.981-1.178-1.028-4.347-1.028-4.347s-10.956 3.646-15.705 3.711c-4.749.066-8.582-2.739-8.582-2.739s.252 6.292-.832 9.19c-1.085 2.898-5.198 5.637-5.198 5.637s0-3.88-.729-7.946c-.776-4.375-1.87-7.059.205-10.723 1.281-2.262 5.535-4.216 5.535-4.216" stroke="#3B4A58" stroke-width="1.2" stroke-miterlimit="10"/><path d="M163.262 31.244s-2.636.795-2.991 2.29c-.356 1.496.747 4.067 2.037 4.9 1.562 1 3.272 1.43 3.272 1.43m2.459-32.954s6.151-3.488 9.358-4.058c7.619-1.356 8.6 1.318 12.938 1 4.338-.318 9.022-2.131 9.022-2.131s-1.328 2.608-.655 5.45 2.721 11.527 2.674 15.07c-.047 3.543-1.833 6.431-1.833 6.431s1.608.02 1.739 1.907c.356 5.095-4.141 6.6-4.141 6.6m-27.063-11.077l8.133 2.318m-8.609 2.738l3.505-.476c3.132.589 4.058 1.86 4.058 1.86m-3.43.815l-.196-3.123" stroke="#3B4A58" stroke-width="1.2" stroke-miterlimit="10"/><path d="M178.305 40.395l6.039.16c-.206-1.983-1.617-8.704-.86-10.359.757-1.655 4.048-1.926 5.815-2.103 4.104-.421 4.403.542 4.403.542" stroke="#3B4A58" stroke-width="1.2" stroke-miterlimit="10"/><path d="M185.547 32.6s1.757-.767 3.758-.889c2.001-.121 3.094 1.16 3.094 1.16m-3.516 1.493l.43-2.655m-11.891 14.976s.514 1.113 3.702 1.15c3.188.038 4.347-1.028 4.347-1.028m2.756 77.508s1.084-15.995 1.72-25.203c.617-9.003 3.169-31.075 3.169-31.075m21.124 67.712c-4.011-.972-5.151-5.207-20.539-9.423-15.388-4.216-18.342-2.347-18.342-2.347l.075 10.088s22.661 12.966 31.598 16.397c8.928 3.431 17.856 7.329 20.604 5.721l2.749-1.599" stroke="#3B4A58" stroke-width="1.2" stroke-miterlimit="10"/><path d="M152.305 130.99s1.832-3.618 8.526-5.955c6.693-2.328 14.592 0 14.592 0m-16.656 4.649l-2.103 2.683m67.535-8.36s2.057.823 2.057-.449c0-1.271-4.347-5.347-6.871-5.945-2.524-.599-13.443.486-15.107 1.495-1.664 1.01-10.583 7.199-10.583 7.199m12.383 4.684s2.889-2.29 11.761-2.86" stroke="#3B4A58" stroke-width="1.2" stroke-miterlimit="10"/><path d="M199.914 128.27s12.761.169 17.313-.14c4.553-.308 7.18.907 8.096-.636.916-1.542-4.58-7.039-6.413-7.039-1.832 0-3.664-.57-3.664-.57M165.588 56.82l-5.955 2.973 14.425 16.996 6.179-8.75 7.385 8.75 10.134-16.482-3.094-3.085m20.947 65.421c4.805.925 7.732 5.665 7.732 5.665m-7.732-2.833c1.72.514 3.861 2.533 3.861 2.533" stroke="#3B4A58" stroke-width="1.2" stroke-miterlimit="10"/><path d="M250.931 160.281l-.579-15.622 1.299-15.097s1.384-14.126 2.141-16.295c.757-2.169 9.404-20.538 9.404-20.538s-.832 1.046.926 2.252c1.757 1.207 6.058 2.87 7.815 2.861 1.758-.01 10.312-.71 10.312-.71s-5.544 8.684-6.872 12.601c-1.327 3.908-4.861 27.326-4.861 27.326l1.421 1.748-.748 13.21-.635 10.582-19.632-2.309.009-.009z" fill="#F9B974"/><path d="M271.951 138.808s-5.385-6.881-7.619-7.769c-2.235-.888-4.89.309-8.068-1.346-3.31-1.72-3.525-.561-3.525-.561l.085.561c.514 1.888 1.206 2.917 3.094 3.608 1.542.561 3.665.515 5.132 1.571a3.544 3.544 0 01.879.888l-.869-.879s0-.009-.01-.009c-4.796-.355-10.367-.196-13.77-.972-4.338-.991-3.702-1.421-6.039-1.973-2.412-.57-1.412 2.132-1.412 2.132s-.149.018-.925.458c-.496.28-.589.374-.72.953-.131.58.851 1.664.851 1.664l-.028.103s-.029-.028-.085-.093c-.532.056-.43.121.758 1.673 1.393 1.832 11.61 8.919 17.967 9.601 6.348.692 13.565 0 13.565 0" fill="#FAF9FA"/><path d="M309.847 144.294l-6.694-5.833-31.074-1.543-.86 15.107 36.917 3.01 10.648-7.133s-6.581-46.807-9.592-53.286c-4.655-10.012-21.445-15.126-21.445-15.126" stroke="#3B4A58" stroke-width="1.2" stroke-miterlimit="10"/><path d="M293.531 109.266l6.18 24.811-3.095 4.047m-1.624 15.837v13.705m-23.79-19.258s-7.208.683-13.565 0c-6.357-.682-16.575-7.768-17.968-9.601-1.486-1.944-1.262-1.561-.233-1.729 1.028-.169 2.056.682 4.468 2.056 2.412 1.375 6.011 2.403 6.011 2.403m12.017-5.777c-1.374-2-4.123-1.776-6.011-2.459-1.889-.682-2.58-1.72-3.095-3.608l-.084-.561s.215-1.159 3.525.561c3.178 1.655 5.833.458 8.067 1.346 2.235.888 7.619 7.769 7.619 7.769" stroke="#3B4A58" stroke-width="1.2" stroke-miterlimit="10"/><path d="M238.999 137.226s-1.206-1.225-.692-2.337c0 0 1.094-1.113 2.982-.262 1.889.851 1.936 1.543 5.881 2.421l3.945.879" stroke="#3B4A58" stroke-width="1.2" stroke-miterlimit="10"/><path d="M239.912 134.31s-1.075-2.944 1.327-2.383c2.347.551 1.702.99 6.049 1.972 3.402.776 8.974.617 13.77.972M290.21 85.65s-12.593 16.744-15.341 25.559c-2.748 8.816-4.338 25.849-4.338 25.849" stroke="#3B4A58" stroke-width="1.2" stroke-miterlimit="10"/><path d="M268.688 127.578s4.346 2.178 8.245 2.122c3.898-.056 10.078-3.356 10.078-3.356m5.25-37.224s.317 8.413-2.057 12.975c-3.207 6.142-14.079 10.694-14.079 10.694m-4.172-32.83s-9.218.626-13.799 2.711c-4.58 2.094-7.787 7.871-7.787 7.871m-1.605 4.066l-6.179 13.621-.552 23.914m1.748 26.662l-1.748-17.921m4.895 15.029l-1.262-12.564m5.479 16.932l-.776-13.948" stroke="#3B4A58" stroke-width="1.2" stroke-miterlimit="10"/><path d="M269.068 79.959s-.075.234-1.524 3.655c-2.038 4.824-13.05 26.335-13.742 29.654-.683 3.318-2.693 21.043-2.693 21.043" stroke="#3B4A58" stroke-width="1.2" stroke-miterlimit="10"/><path d="M263.197 92.728s-.701 2.796 5.254 4.404c5.955 1.598 13.808 0 13.808 0M262.35 85.25s-1.963-.047-5.114 5.469c-4.066 7.123-2.094 19.005-2.094 19.005m-4.028-7.628s1.299 1.337-.748 4.141c-2.057 2.805-4.459 5.777-4.684 10.246-.224 4.469 3.207 6.179 3.207 6.179m-2.655-2.76v13.462m32.244-105.879s-2.44-2.066-7.947-.888c-5.506 1.178-11.143 6.628-12.424 12.135-2.234 9.6 2.954 25.512 2.954 25.512s-2.468 1.757-4.964 4.964c-4.543 5.833 0 14.415 0 14.415" stroke="#3B4A58" stroke-width="1.2" stroke-miterlimit="10"/><path d="M275.328 30.158s2.749-3.88 8.245-4.17c5.497-.289 11.443-.261 15.108 4.301 3.664 4.562 4.122 9.386 4.122 13.957 0 4.572.225 11.443 2.291 16.706 2.056 5.263 2.514 6.348 2.514 6.348m1.435 3.788s1.486 2.917-.056 6.927c-2.066 5.347-6.956 8.573-6.956 8.573" stroke="#3B4A58" stroke-width="1.2" stroke-miterlimit="10"/><path d="M305.86 89.896s2.44.355 6.105-6.283c3.664-6.637 4.347-11.807 1.598-16.322-2.748-4.515-9.04-8.012-9.04-8.012m-17.515-29.925s4.749-.448 7.983 4.01c3.235 4.46 3.001 10.883 3.001 10.883m-24.271-9.872s-.683 4.216 1.598 8.638c2.291 4.431 11.677 5.31 11.677 5.31" stroke="#3B4A58" stroke-width="1.2" stroke-miterlimit="10"/><path d="M293.001 55.053s-1.879-1.43-4.628-4.469c-2.748-3.038-2.795-7.572-2.795-7.572m1.43 39.647l4.702-20.38" stroke="#3B4A58" stroke-width="1.2" stroke-miterlimit="10"/><path d="M289.547 64.233s3.982-3.29 4.889-5.394c.86-2 .468-5.319-2.973-3.01-.86.57-1.542 1.702-1.542 1.702m-30.499.663s1.262-7.647 5.151-11.601c3.889-3.955 9.526-6.853 9.526-6.853" stroke="#3B4A58" stroke-width="1.2" stroke-miterlimit="10"/><path d="M286.994 70.03s-5.722 4.244-9.162 5.141c-3.44.898-6.871 1.552-8.245.197-1.375-1.356-5.263-5.937-6.413-11.892-1.141-5.955-.842-13.704-.842-13.704m14.137 3.158s2.066-.973 4.637-.272c2.57.701 3.15 1.664 3.15 1.664m-8.131 1.367s2.318-1.73 4.188-.346c1.309.972 1.879.346 1.879.346m-3.723 1.151l.28-2.03" stroke="#3B4A58" stroke-width="1.2" stroke-miterlimit="10"/><path d="M263.703 50.883s1.374-.514 3.207 0c2 .56 3.374 1.963 3.487 2.59.112.626-2.076 6.225-3.067 7.254-.991 1.028-.168 1.589.318 1.757.486.169 3.721.234 5.151-.159" stroke="#3B4A58" stroke-width="1.2" stroke-miterlimit="10"/><path d="M263.703 53.463c.954-.112 1.832-.449 3.151 0 1.318.449 1.402.85 1.402.85m-2.279 1.124V53.24m3.164 14.06s.813.71 3.664.356c1.589-.197 3.319-.627 3.319-.627s-.598 2.141-1.991 2.945c-1.393.804-3.216.72-3.216.72M229.24 181.363h-65.365v6.413h65.365v-6.413z" stroke="#3B4A58" stroke-width="1.2" stroke-miterlimit="10"/><path d="M229.242 163.508h13.967v6.179l-13.967 18.09m4.347-21.521l-4.347 5.497m0 7.713l13.967-15.958" stroke="#3B4A58" stroke-width="1.2" stroke-linecap="round" stroke-linejoin="round"/><path d="M167.54 132.367h57.96a3.74 3.74 0 013.74 3.74v45.256h-65.365v-45.331a3.67 3.67 0 013.665-3.665z" fill="#FAF9FA" stroke="#C47A2C" stroke-width="1.2" stroke-miterlimit="10"/><path d="M168.039 177.014h56.4" stroke="#C47A2C" stroke-width="1.2" stroke-linecap="round" stroke-linejoin="round"/><path d="M197.057 155.907a5.815 5.815 0 100-11.63 5.815 5.815 0 000 11.63z" fill="#FAF9FA" stroke="#C47A2C" stroke-width="1.2" stroke-miterlimit="10"/><path d="M277.787 177.049h-20.576v3.907h20.576v-3.907zm5.242 11.555h-20.576v4.038h20.576v-4.038z" stroke="#3B4A58" stroke-width="1.2" stroke-miterlimit="10"/><path d="M279.662 192.633h-20.576v3.777h20.576v-3.777zm0-7.75h-20.576v3.721h20.576v-3.721zm4.172-3.926h-20.576v3.917h20.576v-3.917z" stroke="#3B4A58" stroke-width="1.2" stroke-miterlimit="10"/><path d="M271.193 175.936a9.685 9.685 0 009.685-9.685c0-5.348-4.336-9.685-9.685-9.685s-9.685 4.337-9.685 9.685a9.685 9.685 0 009.685 9.685z" fill="#FAF9FA" stroke="#3B4A58" stroke-width="1.2" stroke-miterlimit="10"/><path d="M271.192 173.32a7.067 7.067 0 10.002-14.134 7.067 7.067 0 00-.002 14.134z" fill="#FAF9FA" stroke="#3B4A58" stroke-width="1.2" stroke-miterlimit="10"/></svg>