<svg width="370" height="208" fill="none" xmlns="http://www.w3.org/2000/svg"><path d="M170.969 121.869h34.02m11.425-21.449h32.34m-31.449 8.51h30.08m-29.596 19.41h30.09m-31.465-6.471h32.34m-32.34 12.942h32.34M163.868 94.03h-6.36v61.079h43.33s4.24 3.45 8.43 3.45c5.13 0 9.17-3.6 9.17-3.6h37.86" stroke="#3B4A58" stroke-width="1.2" stroke-miterlimit="10"/><path d="M163.869 87.24v58.73h30.56s3.54-.34 7.68 1.19 7.31 5.32 7.31 5.32 1.79-2.23 5.38-4.47c3.59-2.24 8.02-2.24 8.02-2.24h32.44V87.24h-31.65s-4.71-.22-8.36 1.5c-2.65 1.25-5.69 3.92-5.69 3.92s-2.43-2.68-5.72-4.21c-3.29-1.53-8.43-1.33-8.43-1.33l-31.55.12h.01zm45.701 64.81V92.66" stroke="#3B4A58" stroke-width="1.2" stroke-miterlimit="10"/><path d="M188.468 96.13h15.53v18.051h-31.06v-18.05h5.16m25.912 32.539h-31.58v6.95h31.58v-6.95z" stroke="#3B4A58" stroke-width="1.2" stroke-miterlimit="10"/><path d="M188.779 106.95l-4.88-4.41-6.18 4.41V87.77h11.06v19.18z" fill="#F9B974"/><path d="M178.102 87.77v18.67l5.51-3.53 4.78 3.53V87.77" stroke="#C47A2C" stroke-width="1.2" stroke-miterlimit="10"/><path d="M258.28 45.361h-10.46v12.79h10.46v-12.79zm0 17.821h-10.46v12.79h10.46v-12.79z" fill="#F9B974"/><path d="M249.773 51.141l2.82 4.11 3.74-5.21m-6.56 18.029l2.82 4.11 3.74-5.21" stroke="#C47A2C" stroke-width="1.2" stroke-miterlimit="10"/><path d="M242.367 79.45V37.97h32.59l10.86 11.3v51.911h-20.49" stroke="#3B4A58" stroke-width="1.2" stroke-miterlimit="10"/><path d="M274.961 37.97l-.25 11.36 11.11-.06m-22.712.06h5.43m-5.43 7.57h13.83m-13.83 15.391h13.83m-13.83 14.4h13.83m-13.83-20.271h13.83m-13.83 14.512h13.83" stroke="#3B4A58" stroke-width="1.2" stroke-miterlimit="10"/><path d="M257.776 182.78c5.49 0 9.94-4.45 9.94-9.94 0-5.489-4.45-9.94-9.94-9.94-5.49 0-9.94 4.451-9.94 9.94 0 5.49 4.45 9.94 9.94 9.94z" fill="#F9B974"/><path d="M257.778 185.731c7.114 0 12.88-5.767 12.88-12.88 0-7.114-5.766-12.88-12.88-12.88-7.113 0-12.88 5.766-12.88 12.88 0 7.113 5.767 12.88 12.88 12.88z" stroke="#C47A2C" stroke-width="1.2" stroke-miterlimit="10"/><path d="M257.776 182.79c5.49 0 9.94-4.45 9.94-9.94 0-5.49-4.45-9.94-9.94-9.94-5.49 0-9.94 4.45-9.94 9.94 0 5.49 4.45 9.94 9.94 9.94z" stroke="#C47A2C" stroke-width="1.2" stroke-miterlimit="10"/><path d="M278.348 139.08a3.84 3.84 0 100-7.68 3.84 3.84 0 000 7.68zm4.558-7.14c.58-.34 1.25-.54 1.97-.54a3.841 3.841 0 010 7.68c-.58 0-1.13-.13-1.62-.36m-21.545 8.26v-4.41h39.29v4.41m-30.337 27.37s1.56 1.27 3.85 1.86c15.73 4.1 20.92-6.98 20.92-6.98m-.004-3.06v-3.57" stroke="#3B4A58" stroke-width="1.2" stroke-miterlimit="10"/><path d="M269.211 178.77c3.74 2.33 7.91 3.16 12.6 3.16 9 0 16.6-5.91 18.96-13.97.76-2.6.78-5.35.21-8 0-.02 0-.03-.01-.05-1.1-5.12-3.47-12.92-3.47-12.92h-32.16l-2.2 8.3" stroke="#3B4A58" stroke-width="1.2" stroke-miterlimit="10"/><path d="M183.138 51.75c9.56 0 17.31-7.875 17.31-17.59 0-9.714-7.75-17.59-17.31-17.59-9.56 0-17.31 7.876-17.31 17.59 0 9.715 7.75 17.59 17.31 17.59z" fill="#F9B974"/><path d="M173.686 59.73s0-4.13-.55-7.9c-.55-3.77-3.63-7.19-3.63-7.19-2.3-2.93-3.67-6.62-3.67-10.63 0-9.52 7.72-17.23 17.23-17.23 9.51 0 17.23 7.72 17.23 17.23 0 4.31-1.58 8.25-4.2 11.28 0 0-2.67 2.78-3.32 6.54-.64 3.77-.46 7.9-.46 7.9" stroke="#C47A2C" stroke-width="1.2" stroke-miterlimit="10"/><path d="M171.297 33.72s.64-5.3 4.73-8.65c3.43-2.8 7.99-3.08 7.99-3.08m9.689 6.88a1.19 1.19 0 100-2.38 1.19 1.19 0 000 2.38zm.149 39.99c-.43.42-1.01.68-1.65.68a2.332 2.332 0 011.65 3.98c-.43.42-1.01.68-1.65.68h-5.31a3.906 3.906 0 01-3.9 3.6c-2.06 0-3.75-1.58-3.91-3.6h-5.31c-1.28 0-2.33-1.05-2.33-2.33 0-.65.26-1.23.69-1.65.42-.42 1-.68 1.64-.68a2.33 2.33 0 01-2.33-2.32c0-.64.26-1.23.69-1.65.42-.42 1-.68 1.64-.68-1.28 0-2.33-1.04-2.33-2.33 0-.64.26-1.22.69-1.64.42-.42 1-.68 1.64-.68h18.43a2.33 2.33 0 012.33 2.32c0 .64-.26 1.23-.68 1.65-.43.42-1.01.68-1.65.68 1.28 0 2.33 1.04 2.33 2.33 0 .64-.26 1.22-.68 1.64zm-12.407-3.94h-8.26m14.867 0h1.84m-14.153 4.621h-3.07m7.906 0h12.23M175.305 36.62h15.92m-13.569 4.61l2.92 19.46m6.946-19.46l-2.92 19.46m5.291-14.21c-2.05 1.11-4.4 1.74-6.9 1.74-2.28 0-4.44-.53-6.36-1.46m28.035-26.21l-4.48 2.6m-34.423 20.01l-4.57 2.65m44.69.67l-5.44-3.27m-34.099-20.5l-3.94-2.37m.809 13.07h-4.84m49.728 0h-5.08m-29.706-17.32l-2.7-4.57m24.278 0l-2.34 4.37m-9.461-2.38V8.58M75.992 60.96l5.54 25.081 16.88 28.12" stroke="#3B4A58" stroke-width="1.2" stroke-miterlimit="10"/><path d="M102.662 63.07l3.7 27.46-10.3 31.16v20.33s2.28 1.62 0 3.7c-5.94 5.41-30.89 0-30.89 0m49.367-16.9s4.3 12.56 5.28 16.11c.88 3.2 1.17 6.6 1.17 6.6m.152 1.511c1.58 10.37 1.58 35.97 1.58 35.97" stroke="#3B4A58" stroke-width="1.2" stroke-miterlimit="10"/><path d="M119.823 144.921s-13.73 1.94-16.37 1.5c-2.64-.44-7.39-4.4-7.39-4.4m-32.485-48.58s6.34 16.37 6.86 20.33c.53 3.96-1.8 7.96-1.8 7.96" stroke="#3B4A58" stroke-width="1.2" stroke-miterlimit="10"/><path d="M60.28 64.72l-20.4 36.441-.99 9.11 15.05 21.78 7.93-9.91.79-.98-8.52-16.41 12.92-15.47m-1.042 50.891l-2.44 11.35m.004 1.519s-1.91 13.47-2.11 20.59c-.2 7.12 0 15.38 0 15.38m38.606-63.49v3.301m0 8.378v-3.96m-45.148-2.42s.66.7 1.85 1.83c1.19 1.12.66 2.11 2.64 3.43 1.98 1.32 6.22 1.75 6.22 1.75m2.298.151l3.36.34s4.56 2.72 6.01 1.85c.48-.29.55-.63.55-.63s.08.01 1.07-.18c.99-.19 1.62-.57 1.62-1.36 0-.38-.17-.77-.34-1.08-.19-.34-.39-.57-.39-.57l-2.97-2.31-5.54-1.98" stroke="#3B4A58" stroke-width="1.2" stroke-miterlimit="10"/><path d="M69.883 135.021l4.43.73 3.03 2.44m-5.71-9.371l5.48 2s4.39 3.62 4.69 4.4c.46 1.22-1.65 1.22-1.65 1.22" stroke="#3B4A58" stroke-width="1.2" stroke-miterlimit="10"/><path d="M61.867 122.141l1.71 1.46 3.47-2.05h6.49s.92.33 0 1.58-4.49 1.78-4.49 1.78l-1.57.52 10.09 1.73 3.89 4.88c.55.85-.81 1.88-.81 1.88M77.602 68.24l16.67 8.17 9.05-8.44m8.709 8.44s.99 3.5 2.51 6.34c1.52 2.84 4.27 7.32 4.95 11.16.67 3.79-.07 7.79-3.17 10.23-3.1 2.44-2.31 1.78-2.31 1.78m16.367-7.339l-.4-6.2 8.12-18.02 11.16 4.62s-6.67 33.33-9.64 35.31c-2.97 1.98-5.74 1.65-9.64.46-3.89-1.19-12.15-10.43-12.15-10.43m-3.289 20.601c0-.24 3.3-22.41 3.3-22.41" stroke="#3B4A58" stroke-width="1.2" stroke-miterlimit="10"/><path d="M140.414 75.32c.66-3.46-.53-6.3 0-8.55.53-2.24 1.92-3.37 3.76-4.88 1.85-1.52 4.03-6.01 3.96-6.73-.07-.72 1.58.07 1.78 1.45.2 1.39.13 4.55-.66 5.54-.79.99-3.72 3.95-3.72 3.95m2.835 12.512l1.64-1.61s5.32.07 5.98-.59c.66-.66.26-2.57.4-2.84s.86-.99.99-1.98-1.01-2.55-1.05-2.88c-.05-.42.84-1.5.65-2-.14-.38-1.72-.9-1.58-1.61.14-.71.49-2.01.09-2.61-.4-.6-1.21-1.26-2.27-1s-3.75 1.25-4.85 2.77c-1.09 1.52-.77 2.05-.37 2.38.4.33 5.16-1.91 5.16-1.91" stroke="#3B4A58" stroke-width="1.2" stroke-miterlimit="10"/><path d="M150.253 68.291s-1.81.17-2.14 1.1c-.33.93-.28 1.89 1.44 2.62.79.34 4.66.9 4.66.9m-.463-2.88h-3.5M73.023 30.792s2.2 10.43 5.48 14.52c3.27 4.09 8.19 7.59 11.35 7.33 3.16-.26 6.6-2.43 9.64-7.06 2.77-4.22 4.63-11.69 4.49-14.46l-.1-1.94" stroke="#3B4A58" stroke-width="1.2" stroke-miterlimit="10"/><path d="M72.434 31.39s-1.07 1.8-.86 3.7c.38 3.37 3.99 4.02 3.99 4.02m28.954-8.829s2.24 1.83 2.14 3.55c-.18 3.34-4.01 4.47-4.01 4.47M98.5 22.541s1.12 3.1 3.63 5.48c2.51 2.38 6.2 3.76 6.2 3.76" stroke="#3B4A58" stroke-width="1.2" stroke-miterlimit="10"/><path d="M84.844 17.621s3.56 5.91 9.84 9.08c6.27 3.17 11.5 4.09 11.5 4.09" stroke="#3B4A58" stroke-width="1.2" stroke-miterlimit="10"/><path d="M91.63 7.56s-.46 3.43-2.18 5.68c-1.72 2.24-2.71 2.97-6.27 5.61-3.56 2.64-4.09 3.89-6.2 7.06-2.11 3.17-6.34 7.66-9.37 8.48M85.233 4.06s-5.81.49-9.51 2.9c-3.28 2.14-5.52 4.38-6.2 10.23m31.618-6.56s4.16 1.75 5.61 4.79c1.45 3.04 2.44 8.78 2.44 8.78m-31.808 4.58s1.65-1.23 4.16-1.03c2.51.2 4.62 1.03 4.62 1.03m-7.6 2.61s1.65-.59 3.2-.59c1.55 0 2.87.59 2.87.59m-2.86 1.521v-2.12m12.04.601s.99-.33 2.97-.3c1.98.03 3.3.3 3.3.3m-3.132 1.52l-.17-1.82" stroke="#3B4A58" stroke-width="1.2" stroke-miterlimit="10"/><path d="M88.07 40.302s1.87.37 2.9 0c1.21-.43.87-.68.66-1.58-.2-.85-1.2-6.15-.46-7.92.67-1.61 2.34-3.5 4.44-3.63m-2.326 17.159s-1.25.46-3.23.4-3.89-.79-3.89-.79.53 1.98 1.91 2.64c1.38.66 2.39.59 2.39.59m-9.221 1.079s.1 6.83-2.67 10.53c-2.77 3.7-5.41 4.75-7.92 5.28-2.51.53-5.41.66-8.05-.99-2.64-1.65-3.43-2.9-6.01-2.9h-2.57s1.52-1.32 2.11-4.42c.59-3.1-.59-5.08.66-7.79s4.29-5.81 4.88-9.24c.59-3.43-.79-8.29.4-10.98 1.19-2.69 2.97-3.81 3.63-7.44.66-3.63 2.43-7.54 3.83-11.22 3.56-9.34 15.71-9.99 22.69-5.51m2.05.03s9.02-2.72 14.92 5.74c2.4 3.44 3.56 8.12 4.09 12.28.53 4.16 1.39 7.26 1.78 10.17.4 2.9-.79 7.46 0 10.36.79 2.9 3.63 5.35 3.96 8.12.33 2.77.46 6.14 1.19 7.66l.73 1.52s-1.78 1.89-3.43 2c-1.65.11-3.76-1.08-5.48.44-1.72 1.52-2.84 2.32-2.84 2.32" stroke="#3B4A58" stroke-width="1.2" stroke-miterlimit="10"/><path d="M95.29 50.66s.449 5 1.699 6.91c1.25 1.91 11.31 5.56 13.16 7.15 1.85 1.58 9.46 13.46 10.84 15.31 1.39 1.85 6.76 10.04 6.76 10.04" stroke="#3B4A58" stroke-width="1.2" stroke-miterlimit="10"/><mask id="a" style="mask-type:luminance" maskUnits="userSpaceOnUse" x="0" y="133" width="370" height="75"><path d="M369.93 133.24H0v74.23h369.93v-74.23z" fill="#fff"/></mask><g mask="url(#a)"><path d="M-115.5 189.9c31.95-4.72 63.38-12.22 95.25-17.35 34.41-5.53 69.27-6.66 103.98-3.47 39.81 3.66 78.62 13.49 117.29 23.2 16.62 4.18 33.35 9.19 50.47 10.8 14.21 1.34 28.65.48 42.57-2.69 28.83-6.58 54.39-23.39 71.66-47.42 2.31-3.22 4.46-6.55 6.47-9.96.57-.97-.94-1.85-1.51-.88-15.63 26.48-40.43 46.19-70.02 54.75-13.88 4.02-28.4 5.59-42.82 4.9-16.7-.8-32.79-5.3-48.93-9.33-37.87-9.46-75.73-19.42-114.57-24.01-34.92-4.12-70.31-3.95-105.14.92-30.82 4.31-61.12 11.69-91.82 16.75-4.44.73-8.89 1.43-13.34 2.08-1.11.16-.64 1.85.47 1.69l-.01.02z" fill="#C47A2C"/></g></svg>