<svg width="120" height="120" fill="none" xmlns="http://www.w3.org/2000/svg"><path fill="#fff" d="M0 0h120v120H0z"/><g clip-path="url(#clip0_11820_27426)"><path d="M83 79.583V36.417C83 27.916 76.084 21 67.583 21H24.417C15.916 21 9 27.916 9 36.417v43.166C9 88.084 15.916 95 24.417 95h43.166C76.084 95 83 88.084 83 79.583zM67.583 27.167c5.1 0 9.25 4.15 9.25 9.25v43.166c0 5.1-4.15 9.25-9.25 9.25H24.417c-5.1 0-9.25-4.15-9.25-9.25V36.417c0-5.1 4.15-9.25 9.25-9.25h43.166z" fill="#282828" stroke="#fff" stroke-width="4.81"/><mask id="a" maskUnits="userSpaceOnUse" x="34.203" y="38.938" width="20" height="35" fill="#000"><path fill="#fff" d="M34.203 38.938h20v35h-20z"/><path d="M43.948 73.397c-1.74 0-3.28-.377-4.615-1.133a8.148 8.148 0 01-3.137-3.137c-.755-1.336-1.128-2.869-1.117-4.599h1.051c-.01 2.3.701 4.178 2.135 5.634 1.446 1.456 3.34 2.184 5.683 2.184 1.763 0 3.318-.432 4.665-1.297 1.346-.865 2.398-2.042 3.153-3.531.756-1.49 1.128-3.165 1.117-5.026-.011-1.993-.433-3.717-1.265-5.174-.821-1.456-1.916-2.578-3.285-3.367-1.357-.788-2.841-1.182-4.45-1.182-1.325 0-2.524.252-3.597.755a9.56 9.56 0 00-2.776 1.938l-1.577-.262 1.971-15.9h14.913v1.051H38.824L37.116 54.28h.131a9.793 9.793 0 012.94-1.856c1.117-.47 2.349-.706 3.696-.706 1.806 0 3.47.449 4.992 1.346 1.533.887 2.76 2.141 3.68 3.761.93 1.61 1.39 3.499 1.379 5.667-.011 2.08-.444 3.942-1.297 5.584-.855 1.642-2.032 2.94-3.532 3.893-1.5.952-3.219 1.428-5.157 1.428z"/></mask><path d="M43.948 73.397c-1.74 0-3.28-.377-4.615-1.133a8.148 8.148 0 01-3.137-3.137c-.755-1.336-1.128-2.869-1.117-4.599h1.051c-.01 2.3.701 4.178 2.135 5.634 1.446 1.456 3.34 2.184 5.683 2.184 1.763 0 3.318-.432 4.665-1.297 1.346-.865 2.398-2.042 3.153-3.531.756-1.49 1.128-3.165 1.117-5.026-.011-1.993-.433-3.717-1.265-5.174-.821-1.456-1.916-2.578-3.285-3.367-1.357-.788-2.841-1.182-4.45-1.182-1.325 0-2.524.252-3.597.755a9.56 9.56 0 00-2.776 1.938l-1.577-.262 1.971-15.9h14.913v1.051H38.824L37.116 54.28h.131a9.793 9.793 0 012.94-1.856c1.117-.47 2.349-.706 3.696-.706 1.806 0 3.47.449 4.992 1.346 1.533.887 2.76 2.141 3.68 3.761.93 1.61 1.39 3.499 1.379 5.667-.011 2.08-.444 3.942-1.297 5.584-.855 1.642-2.032 2.94-3.532 3.893-1.5.952-3.219 1.428-5.157 1.428z" fill="#000"/><path d="M39.333 72.264l-.045.08.045-.08zm-3.137-3.137l-.08.046.08-.046zm-1.117-4.599v-.092h-.092v.092h.092zm1.051 0h.093v-.092h-.093v.092zm2.135 5.634l-.066.065.066-.065zm10.348.887l-.05-.078.05.078zm4.27-8.557h-.093.093zm-1.265-5.174l-.08.046.08-.046zm-3.285-3.367l-.046.08.046-.08zm-8.047-.427l-.04-.083.04.083zm-2.776 1.938l-.015.092.047.008.034-.035-.066-.065zm-1.577-.262l-.092-.012-.01.088.087.015.015-.091zm1.971-15.9v-.092h-.082l-.01.08.092.012zm14.913 0h.093v-.092h-.093v.092zm0 1.051v.093h.093v-.093h-.093zm-13.993 0v-.092h-.082l-.01.081.092.011zM37.116 54.28l-.092-.011-.013.103h.105v-.092zm.131 0v.092h.036l.027-.024-.063-.068zm2.94-1.856l.035.086h.001l-.036-.086zm8.688.64l-.047.08h.001l.046-.08zm3.68 3.761l-.081.046.08-.046zm1.379 5.667h.092-.092zm-4.829 9.477l.05.078-.05-.078zm-5.157 1.336c-1.727 0-3.25-.375-4.57-1.121l-.09.16c1.351.765 2.905 1.146 4.66 1.146v-.185zm-4.57-1.121a8.055 8.055 0 01-3.102-3.102l-.16.09a8.24 8.24 0 003.172 3.173l.09-.161zm-3.102-3.102c-.746-1.32-1.115-2.837-1.104-4.553l-.185-.001c-.011 1.744.364 3.293 1.128 4.645l.161-.091zM35.08 64.62h1.051v-.185h-1.05v.185zm.959-.093c-.011 2.32.708 4.223 2.162 5.699l.131-.13c-1.415-1.437-2.119-3.29-2.108-5.568l-.185-.001zm2.162 5.699c1.465 1.476 3.384 2.212 5.748 2.212v-.185c-2.322 0-4.191-.721-5.617-2.157l-.131.13zm5.748 2.212c1.779 0 3.351-.437 4.715-1.312l-.1-.156c-1.33.854-2.868 1.283-4.615 1.283v.185zm4.715-1.312c1.36-.875 2.423-2.064 3.186-3.568l-.165-.083c-.749 1.475-1.79 2.64-3.121 3.495l.1.156zm3.186-3.568c.762-1.503 1.137-3.193 1.126-5.068l-.185.001c.011 1.849-.358 3.51-1.106 4.984l.165.083zm1.126-5.068c-.01-2.005-.435-3.746-1.276-5.219l-.161.092c.823 1.44 1.241 3.149 1.252 5.128h.185zM51.7 57.273c-.83-1.47-1.936-2.605-3.32-3.402l-.092.16c1.354.78 2.437 1.89 3.25 3.333l.162-.091zm-3.32-3.402c-1.371-.796-2.871-1.195-4.496-1.195v.185c1.593 0 3.06.39 4.404 1.17l.093-.16zm-4.496-1.195c-1.337 0-2.55.255-3.637.765l.079.167c1.06-.497 2.245-.747 3.557-.747v-.185zm-3.637.765a9.652 9.652 0 00-2.802 1.956l.132.13a9.467 9.467 0 012.749-1.919l-.079-.167zm-2.72 1.93l-1.578-.263-.03.183 1.577.263.03-.183zm-1.501-.16l1.97-15.898-.183-.023-1.97 15.898.183.023zm1.88-15.817h14.912v-.185H37.904v.185zm14.82-.093v1.051h.185v-1.05h-.185zm.092.959H38.824v.185h13.993v-.185zm-14.085.081l-1.708 13.928.184.022 1.708-13.927-.184-.023zm-1.616 14.031h.131v-.185h-.131v.185zm.194-.024a9.701 9.701 0 012.912-1.839l-.07-.17a9.885 9.885 0 00-2.968 1.873l.126.136zm2.913-1.839c1.104-.465 2.324-.699 3.66-.699v-.185c-1.358 0-2.602.238-3.732.714l.072.17zm3.66-.699c1.79 0 3.438.445 4.945 1.334l.094-.16c-1.536-.906-3.217-1.359-5.04-1.359v.185zm4.946 1.334c1.518.879 2.733 2.12 3.645 3.727l.16-.091c-.927-1.634-2.164-2.9-3.712-3.796l-.093.16zm3.645 3.728c.922 1.593 1.378 3.465 1.368 5.62h.184c.011-2.181-.451-4.087-1.392-5.713l-.16.093zm1.368 5.62c-.011 2.067-.441 3.914-1.288 5.541l.164.086c.862-1.657 1.297-3.534 1.308-5.627h-.184zm-1.288 5.541c-.846 1.629-2.013 2.914-3.498 3.857l.099.157c1.514-.962 2.702-2.272 3.563-3.928l-.164-.086zm-3.498 3.857c-1.484.943-3.186 1.415-5.108 1.415v.185c1.954 0 3.69-.48 5.207-1.443l-.1-.157z" fill="#000" mask="url(#a)"/></g><path fill="#fff" d="M61 61.5h55v55H61z"/><path d="M88.496 113.852c-6.639 0-12.88-2.585-17.575-7.28-4.695-4.695-7.28-10.936-7.28-17.576 0-6.639 2.585-12.88 7.28-17.575a24.693 24.693 0 0117.575-7.28c6.64 0 12.881 2.585 17.576 7.28 4.695 4.694 7.28 10.936 7.28 17.575 0 6.64-2.585 12.881-7.28 17.576s-10.936 7.28-17.576 7.28zm0-48.654c-13.122 0-23.798 10.676-23.798 23.798 0 13.123 10.676 23.798 23.798 23.798 13.123 0 23.798-10.675 23.798-23.798 0-13.122-10.675-23.798-23.798-23.798z" fill="#282828"/><path d="M88.494 107.504c-10.206 0-18.51-8.304-18.51-18.51 0-10.206 8.304-18.51 18.51-18.51 10.206 0 18.51 8.304 18.51 18.51 0 10.206-8.304 18.51-18.51 18.51zm0-35.962c-9.623 0-17.452 7.829-17.452 17.452 0 9.623 7.829 17.452 17.452 17.452 9.623 0 17.452-7.829 17.452-17.452 0-9.623-7.829-17.452-17.452-17.452z" fill="#282828"/><path d="M88.504 91.648a2.647 2.647 0 01-2.645-2.644 2.647 2.647 0 012.645-2.645 2.647 2.647 0 012.644 2.645 2.647 2.647 0 01-2.644 2.644zm0-4.23c-.875 0-1.587.71-1.587 1.586 0 .874.712 1.586 1.587 1.586.874 0 1.586-.712 1.586-1.586 0-.875-.712-1.587-1.586-1.587z" fill="#282828"/><path d="M88.494 87.407a.53.53 0 01-.529-.528v-7.404a.53.53 0 011.058 0v7.404a.529.529 0 01-.529.528zm-2.115 2.116h-4.231a.529.529 0 010-1.058h4.23a.53.53 0 010 1.058zm2.115-13.75a.529.529 0 01-.529-.529v-4.23a.529.529 0 011.058 0v4.23a.529.529 0 01-.529.529zm0 31.731a.53.53 0 01-.529-.529v-4.231a.53.53 0 011.058 0v4.231a.529.529 0 01-.529.529zM98.217 79.8a.528.528 0 01-.374-.903l2.991-2.991a.53.53 0 01.744.004.526.526 0 01.004.744l-2.991 2.991a.528.528 0 01-.374.155zM75.78 102.237a.53.53 0 01-.374-.903l2.991-2.991a.528.528 0 11.748.748l-2.991 2.991a.538.538 0 01-.374.155zm30.695-12.714h-4.231a.529.529 0 110-1.058h4.231a.53.53 0 010 1.058zm-31.731 0h-4.23a.529.529 0 110-1.058h4.23a.529.529 0 010 1.058zm26.464 12.714a.52.52 0 01-.374-.155l-2.991-2.991a.528.528 0 11.748-.748l2.991 2.991a.54.54 0 01.155.374.537.537 0 01-.529.529zM78.771 79.8a.527.527 0 01-.374-.155l-2.991-2.991a.527.527 0 01.373-.905.527.527 0 01.375.157l2.991 2.991a.529.529 0 01-.374.903z" fill="#282828"/><defs><clipPath id="clip0_11820_27426"><path fill="#fff" transform="translate(9 21)" d="M0 0h74v74H0z"/></clipPath></defs></svg>