<svg width="120" height="121" fill="none" xmlns="http://www.w3.org/2000/svg"><path fill="#fff" d="M0 .75h120v120H0z"/><g clip-path="url(#clip0_9649_26686)"><path d="M67.583 22.25H24.417C15.916 22.25 9 29.166 9 37.667v43.166c0 8.501 6.916 15.417 15.417 15.417h43.166C76.084 96.25 83 89.334 83 80.833V37.667c0-8.501-6.916-15.417-15.417-15.417zm9.25 58.583c0 5.1-4.15 9.25-9.25 9.25H24.417c-5.1 0-9.25-4.15-9.25-9.25V37.667c0-5.1 4.15-9.25 9.25-9.25h43.166c5.1 0 9.25 4.15 9.25 9.25v43.166z" fill="#282828" stroke="#fff" stroke-width="4.81"/><mask id="a" maskUnits="userSpaceOnUse" x="36.047" y="39.648" width="21" height="36" fill="#000"><path fill="#fff" d="M36.047 39.648h21v36h-21z"/><path d="M46.777 75.108a8.303 8.303 0 01-3.958-.969c-1.215-.646-2.277-1.615-3.186-2.907-.898-1.303-1.599-2.94-2.102-4.91-.493-1.971-.74-4.276-.74-6.915 0-2.267.16-4.511.477-6.734.328-2.233.876-4.265 1.642-6.093.767-1.829 1.818-3.29 3.154-4.385 1.336-1.095 3.016-1.643 5.042-1.643 1.664 0 3.115.378 4.352 1.133 1.238.745 2.217 1.785 2.94 3.121.723 1.325 1.139 2.863 1.248 4.615h-1.05c-.165-2.31-.904-4.188-2.218-5.633-1.303-1.456-3.06-2.185-5.272-2.185-3.066 0-5.376 1.572-6.931 4.714-1.555 3.132-2.332 7.648-2.332 13.55h.131a7.45 7.45 0 011.823-2.973 9.28 9.28 0 013.071-2.053 9.376 9.376 0 013.712-.755c1.763 0 3.373.46 4.829 1.38 1.467.919 2.639 2.173 3.515 3.76.876 1.588 1.314 3.378 1.314 5.37 0 1.862-.4 3.592-1.2 5.19-.788 1.6-1.894 2.886-3.317 3.86-1.412.975-3.06 1.462-4.944 1.462zm0-1.05c1.62 0 3.06-.428 4.32-1.282 1.27-.854 2.266-1.998 2.989-3.432.734-1.435 1.1-3.017 1.1-4.747 0-1.774-.388-3.372-1.166-4.796-.766-1.434-1.806-2.568-3.12-3.4-1.303-.843-2.765-1.264-4.385-1.264-1.282 0-2.47.268-3.564.804a8.294 8.294 0 00-2.809 2.185 8.349 8.349 0 00-1.642 3.17c-.329 1.193-.373 2.447-.132 3.76.372 1.972.953 3.625 1.741 4.96.8 1.337 1.763 2.344 2.89 3.023 1.14.679 2.399 1.018 3.778 1.018z"/></mask><path d="M46.777 75.108a8.303 8.303 0 01-3.958-.969c-1.215-.646-2.277-1.615-3.186-2.907-.898-1.303-1.599-2.94-2.102-4.91-.493-1.971-.74-4.276-.74-6.915 0-2.267.16-4.511.477-6.734.328-2.233.876-4.265 1.642-6.093.767-1.829 1.818-3.29 3.154-4.385 1.336-1.095 3.016-1.643 5.042-1.643 1.664 0 3.115.378 4.352 1.133 1.238.745 2.217 1.785 2.94 3.121.723 1.325 1.139 2.863 1.248 4.615h-1.05c-.165-2.31-.904-4.188-2.218-5.633-1.303-1.456-3.06-2.185-5.272-2.185-3.066 0-5.376 1.572-6.931 4.714-1.555 3.132-2.332 7.648-2.332 13.55h.131a7.45 7.45 0 011.823-2.973 9.28 9.28 0 013.071-2.053 9.376 9.376 0 013.712-.755c1.763 0 3.373.46 4.829 1.38 1.467.919 2.639 2.173 3.515 3.76.876 1.588 1.314 3.378 1.314 5.37 0 1.862-.4 3.592-1.2 5.19-.788 1.6-1.894 2.886-3.317 3.86-1.412.975-3.06 1.462-4.944 1.462zm0-1.05c1.62 0 3.06-.428 4.32-1.282 1.27-.854 2.266-1.998 2.989-3.432.734-1.435 1.1-3.017 1.1-4.747 0-1.774-.388-3.372-1.166-4.796-.766-1.434-1.806-2.568-3.12-3.4-1.303-.843-2.765-1.264-4.385-1.264-1.282 0-2.47.268-3.564.804a8.294 8.294 0 00-2.809 2.185 8.349 8.349 0 00-1.642 3.17c-.329 1.193-.373 2.447-.132 3.76.372 1.972.953 3.625 1.741 4.96.8 1.337 1.763 2.344 2.89 3.023 1.14.679 2.399 1.018 3.778 1.018z" fill="#000"/><path d="M42.82 74.14l.043-.082-.044.081zm-3.187-2.908l-.076.053.076-.053zm-2.102-4.91l-.09.022.09-.022zm-.263-13.649l-.092-.013.092.013zm1.642-6.093l-.085-.036.085.036zm12.548-4.895l-.048.08.048-.08zm2.94 3.121l-.081.044.081-.044zm1.248 4.615v.093h.099l-.006-.099-.093.006zm-1.05 0l-.093.007.006.086h.086v-.093zm-2.218-5.633l-.069.061v.001l.069-.062zm-12.203 2.529l.083.041-.083-.041zm-2.332 13.55h-.093v.092h.093v-.092zm.131 0v.092h.067l.021-.064-.088-.028zm1.823-2.973l-.066-.065.066.065zm3.071-2.053l.036.085-.036-.085zm8.54.624l-.049.078.05-.078zm3.516 3.761l-.081.045.08-.045zm.115 10.56l-.083-.04.083.04zm-3.318 3.86l-.052-.076.052.077zm-.624-.87l-.052-.077.052.077zm2.989-3.432l-.082-.043.082.043zM54.02 59.8l-.081.044.081-.044zm-3.12-3.4l-.05.078.05-.078zm-7.95-.46l.04.084h.001l-.04-.084zm-2.808 2.185l-.07-.06h-.001l.071.06zm-1.642 3.17l-.09-.025.09.025zm-.132 3.76l-.09.017v.001l.09-.017zm1.741 4.96l-.08.048.08-.047zM43 73.04l-.047.08.048-.08zm3.778 1.977a8.21 8.21 0 01-3.914-.958l-.087.163a8.397 8.397 0 004.001.98v-.185zm-3.914-.958c-1.201-.639-2.253-1.597-3.154-2.879l-.152.106c.916 1.303 1.989 2.282 3.219 2.936l.087-.163zm-3.154-2.878c-.89-1.292-1.587-2.918-2.089-4.881l-.179.045c.506 1.979 1.21 3.627 2.116 4.94l.152-.104zM37.621 66.3c-.49-1.962-.736-4.259-.736-6.892H36.7c0 2.644.247 4.957.742 6.937l.18-.045zm-.736-6.892c0-2.262.158-4.502.475-6.72l-.183-.027a47.642 47.642 0 00-.477 6.747h.185zm.475-6.72c.328-2.227.873-4.25 1.637-6.071l-.171-.072c-.77 1.837-1.32 3.875-1.649 6.116l.183.027zm1.637-6.071c.761-1.817 1.804-3.266 3.126-4.35l-.117-.143c-1.35 1.106-2.409 2.58-3.18 4.421l.17.072zm3.126-4.35c1.317-1.079 2.976-1.621 4.984-1.621v-.185c-2.043 0-3.746.552-5.101 1.663l.117.143zm4.984-1.621c1.65 0 3.083.374 4.304 1.12l.096-.159c-1.253-.765-2.721-1.146-4.4-1.146v.185zm4.304 1.12c1.223.735 2.192 1.763 2.907 3.085l.162-.088c-.73-1.35-1.72-2.402-2.973-3.156l-.096.159zm2.907 3.085c.715 1.311 1.128 2.836 1.237 4.577l.185-.012c-.11-1.763-.53-3.315-1.26-4.653l-.162.088zm1.33 4.479h-1.052v.185h1.051v-.185zm-.96.086c-.165-2.327-.91-4.226-2.24-5.69l-.138.125c1.298 1.427 2.03 3.284 2.194 5.578l.184-.013zm-2.24-5.689c-1.323-1.478-3.107-2.215-5.341-2.215v.185c2.19 0 3.92.72 5.203 2.153l.138-.123zm-5.341-2.215c-1.55 0-2.912.397-4.084 1.194-1.172.797-2.147 1.99-2.93 3.571l.166.082c.772-1.56 1.729-2.725 2.868-3.5 1.138-.774 2.464-1.162 3.98-1.162v-.185zm-7.014 4.765c-1.564 3.15-2.342 7.683-2.342 13.59h.185c0-5.895.777-10.395 2.323-13.508l-.166-.082zm-2.25 13.683h.132v-.185h-.131v.185zm.22-.064a7.357 7.357 0 011.801-2.936l-.132-.13a7.543 7.543 0 00-1.845 3.01l.176.056zm1.801-2.936a9.187 9.187 0 013.041-2.033l-.071-.17a9.374 9.374 0 00-3.102 2.073l.132.13zm3.042-2.033a9.283 9.283 0 013.675-.748v-.185a9.468 9.468 0 00-3.748.763l.073.17zm3.675-.748c1.746 0 3.338.455 4.78 1.365l.098-.156c-1.471-.93-3.098-1.394-4.878-1.394v.185zm4.78 1.366c1.453.91 2.614 2.152 3.483 3.727l.162-.09c-.884-1.6-2.066-2.866-3.547-3.794l-.098.157zm3.483 3.727c.867 1.573 1.302 3.347 1.302 5.326h.185c0-2.007-.441-3.813-1.325-5.415l-.162.089zm1.302 5.326c0 1.848-.397 3.563-1.19 5.149l.166.082c.806-1.612 1.21-3.356 1.21-5.231h-.186zm-1.19 5.149c-.78 1.585-1.876 2.859-3.286 3.824l.104.153c1.437-.984 2.553-2.283 3.349-3.895l-.166-.082zm-3.287 3.824c-1.395.963-3.024 1.446-4.89 1.446v.185c1.9 0 3.566-.492 4.995-1.478l-.105-.153zm-4.89.58c1.637 0 3.095-.432 4.37-1.297l-.103-.153c-1.243.843-2.664 1.265-4.268 1.265v.185zm4.37-1.297c1.284-.863 2.291-2.02 3.02-3.468l-.165-.083c-.715 1.42-1.702 2.553-2.958 3.397l.103.154zm3.02-3.467c.741-1.449 1.11-3.045 1.11-4.79h-.184c0 1.717-.364 3.285-1.09 4.705l.164.085zm1.11-4.79c0-1.787-.391-3.4-1.176-4.84l-.163.09c.77 1.408 1.155 2.991 1.155 4.75h.185zm-1.176-4.839c-.774-1.447-1.825-2.593-3.153-3.434l-.099.157c1.3.823 2.33 1.944 3.089 3.365l.163-.087zm-3.152-3.433c-1.319-.853-2.798-1.28-4.435-1.28v.185c1.603 0 3.047.417 4.334 1.25l.101-.155zm-4.435-1.28c-1.295 0-2.497.271-3.605.814l.081.167c1.082-.53 2.256-.796 3.524-.796v-.185zm-3.605.814a8.387 8.387 0 00-2.839 2.209l.142.118a8.202 8.202 0 012.778-2.16l-.08-.167zm-2.839 2.209a8.44 8.44 0 00-1.66 3.204l.178.05a8.257 8.257 0 011.624-3.136l-.142-.118zm-1.66 3.204c-.333 1.208-.377 2.476-.134 3.802l.182-.033c-.238-1.301-.195-2.54.13-3.72l-.178-.049zm-.134 3.803c.374 1.978.957 3.643 1.752 4.99l.16-.094c-.782-1.325-1.359-2.967-1.73-4.93l-.182.034zm1.753 4.99c.806 1.347 1.78 2.366 2.922 3.054l.096-.158c-1.113-.67-2.067-1.665-2.86-2.99l-.158.094zm2.922 3.054c1.154.688 2.43 1.032 3.825 1.032v-.185c-1.363 0-2.606-.336-3.73-1.006l-.094.16z" fill="#000" mask="url(#a)"/></g><path fill="#fff" d="M61 62.25h55v55H61z"/><path d="M88.496 114.602c-6.639 0-12.88-2.585-17.575-7.28-4.695-4.695-7.28-10.936-7.28-17.576 0-6.639 2.585-12.88 7.28-17.575a24.693 24.693 0 0117.575-7.28c6.64 0 12.881 2.585 17.576 7.28 4.695 4.694 7.28 10.936 7.28 17.575 0 6.64-2.585 12.881-7.28 17.576s-10.936 7.28-17.576 7.28zm0-48.654c-13.122 0-23.798 10.676-23.798 23.798 0 13.123 10.676 23.798 23.798 23.798 13.123 0 23.798-10.675 23.798-23.798 0-13.122-10.675-23.798-23.798-23.798z" fill="#282828"/><path d="M88.494 108.254c-10.206 0-18.51-8.304-18.51-18.51 0-10.206 8.304-18.51 18.51-18.51 10.206 0 18.51 8.304 18.51 18.51 0 10.206-8.304 18.51-18.51 18.51zm0-35.962c-9.623 0-17.452 7.829-17.452 17.452 0 9.623 7.829 17.452 17.452 17.452 9.623 0 17.452-7.829 17.452-17.452 0-9.623-7.829-17.452-17.452-17.452z" fill="#282828"/><path d="M88.504 92.398a2.647 2.647 0 01-2.645-2.644 2.647 2.647 0 012.645-2.645 2.647 2.647 0 012.644 2.645 2.647 2.647 0 01-2.644 2.644zm0-4.23c-.875 0-1.587.71-1.587 1.586 0 .874.712 1.586 1.587 1.586.874 0 1.586-.712 1.586-1.586 0-.875-.712-1.587-1.586-1.587z" fill="#282828"/><path d="M88.494 88.157a.53.53 0 01-.529-.528v-7.404a.53.53 0 011.058 0v7.404a.529.529 0 01-.529.528zm-2.115 2.116h-4.231a.529.529 0 010-1.058h4.23a.53.53 0 010 1.058zm2.115-13.75a.529.529 0 01-.529-.529v-4.23a.529.529 0 011.058 0v4.23a.529.529 0 01-.529.529zm0 31.731a.53.53 0 01-.529-.529v-4.231a.53.53 0 011.058 0v4.231a.529.529 0 01-.529.529zm9.723-27.704a.528.528 0 01-.374-.903l2.991-2.991a.53.53 0 01.744.004.526.526 0 01.004.744l-2.991 2.991a.528.528 0 01-.374.155zM75.78 102.987a.53.53 0 01-.374-.903l2.991-2.991a.528.528 0 11.748.748l-2.991 2.991a.538.538 0 01-.374.155zm30.695-12.714h-4.231a.529.529 0 110-1.058h4.231a.53.53 0 010 1.058zm-31.731 0h-4.23a.529.529 0 110-1.058h4.23a.529.529 0 010 1.058zm26.464 12.714a.52.52 0 01-.374-.155l-2.991-2.991a.528.528 0 11.748-.748l2.991 2.991a.54.54 0 01.155.374.537.537 0 01-.529.529zM78.771 80.55a.527.527 0 01-.374-.155l-2.991-2.991a.527.527 0 01.373-.905.527.527 0 01.375.157l2.991 2.991a.529.529 0 01-.374.903z" fill="#282828"/><defs><clipPath id="clip0_9649_26686"><path fill="#fff" transform="translate(9 22.25)" d="M0 0h74v74H0z"/></clipPath></defs></svg>