<svg width="120" height="120" viewBox="0 0 120 120" fill="none" xmlns="http://www.w3.org/2000/svg">
<rect width="120" height="120" fill="white"/>
<path d="M67.5833 21.5H24.4167C15.9159 21.5 9 28.4159 9 36.9167V80.0833C9 88.5841 15.9159 95.5 24.4167 95.5H67.5833C76.0841 95.5 83 88.5841 83 80.0833V36.9167C83 28.4159 76.0841 21.5 67.5833 21.5ZM76.8333 80.0833C76.8333 85.1832 72.6832 89.3333 67.5833 89.3333H24.4167C19.3168 89.3333 15.1667 85.1832 15.1667 80.0833V36.9167C15.1667 31.8168 19.3168 27.6667 24.4167 27.6667H67.5833C72.6832 27.6667 76.8333 31.8168 76.8333 36.9167V80.0833Z" fill="#282828" stroke="white" stroke-width="4.81"/>
<mask id="path-2-outside-1_11831_27415" maskUnits="userSpaceOnUse" x="36.0469" y="38.8984" width="21" height="36" fill="black">
<rect fill="white" x="36.0469" y="38.8984" width="21" height="36"/>
<path d="M46.7773 74.3583C45.3539 74.3583 44.0345 74.0353 42.8192 73.3893C41.6038 72.7433 40.5417 71.7743 39.6329 70.4822C38.7351 69.1793 38.0343 67.5423 37.5306 65.5715C37.0379 63.6006 36.7915 61.2957 36.7915 58.657C36.7915 56.3904 36.9503 54.1458 37.2678 51.9231C37.5963 49.6895 38.1438 47.6583 38.9102 45.8298C39.6767 44.0013 40.7278 42.5395 42.0637 41.4446C43.3995 40.3497 45.0802 39.8022 47.1058 39.8022C48.7701 39.8022 50.2209 40.18 51.4582 40.9355C52.6955 41.68 53.6754 42.7202 54.3981 44.056C55.1207 45.3809 55.5368 46.9193 55.6463 48.6712H54.5952C54.4309 46.3609 53.6919 44.483 52.3779 43.0377C51.075 41.5815 49.3176 40.8533 47.1058 40.8533C44.04 40.8533 41.7297 42.4246 40.1749 45.567C38.6201 48.6985 37.8427 53.2151 37.8427 59.1168H37.9741C38.3354 58 38.9431 57.0091 39.7971 56.1441C40.6621 55.2681 41.6859 54.5838 42.8684 54.0911C44.051 53.5874 45.2882 53.3356 46.5803 53.3356C48.3431 53.3356 49.9527 53.7955 51.4089 54.7152C52.8761 55.6349 54.0477 56.8886 54.9237 58.4763C55.7996 60.0639 56.2376 61.8542 56.2376 63.8469C56.2376 65.7083 55.8379 67.4383 55.0386 69.0369C54.2503 70.6355 53.1444 71.9221 51.721 72.8966C50.3085 73.8711 48.6606 74.3583 46.7773 74.3583ZM46.7773 73.3072C48.3978 73.3072 49.8377 72.8801 51.0969 72.0261C52.367 71.1721 53.3634 70.0278 54.086 68.5935C54.8196 67.1591 55.1864 65.5769 55.1864 63.8469C55.1864 62.0732 54.7977 60.4745 54.0203 59.0511C53.2539 57.6168 52.2137 56.4835 50.8998 55.6514C49.5968 54.8083 48.1351 54.3867 46.5146 54.3867C45.2335 54.3867 44.0455 54.655 42.9506 55.1915C41.8556 55.7171 40.9194 56.4452 40.142 57.3759C39.3756 58.2956 38.8281 59.3522 38.4996 60.5457C38.1712 61.7392 38.1274 62.9929 38.3683 64.3068C38.7405 66.2777 39.3208 67.931 40.1092 69.2669C40.9085 70.6027 41.872 71.61 42.9998 72.2889C44.1386 72.9677 45.3977 73.3072 46.7773 73.3072Z"/>
</mask>
<path d="M46.7773 74.3583C45.3539 74.3583 44.0345 74.0353 42.8192 73.3893C41.6038 72.7433 40.5417 71.7743 39.6329 70.4822C38.7351 69.1793 38.0343 67.5423 37.5306 65.5715C37.0379 63.6006 36.7915 61.2957 36.7915 58.657C36.7915 56.3904 36.9503 54.1458 37.2678 51.9231C37.5963 49.6895 38.1438 47.6583 38.9102 45.8298C39.6767 44.0013 40.7278 42.5395 42.0637 41.4446C43.3995 40.3497 45.0802 39.8022 47.1058 39.8022C48.7701 39.8022 50.2209 40.18 51.4582 40.9355C52.6955 41.68 53.6754 42.7202 54.3981 44.056C55.1207 45.3809 55.5368 46.9193 55.6463 48.6712H54.5952C54.4309 46.3609 53.6919 44.483 52.3779 43.0377C51.075 41.5815 49.3176 40.8533 47.1058 40.8533C44.04 40.8533 41.7297 42.4246 40.1749 45.567C38.6201 48.6985 37.8427 53.2151 37.8427 59.1168H37.9741C38.3354 58 38.9431 57.0091 39.7971 56.1441C40.6621 55.2681 41.6859 54.5838 42.8684 54.0911C44.051 53.5874 45.2882 53.3356 46.5803 53.3356C48.3431 53.3356 49.9527 53.7955 51.4089 54.7152C52.8761 55.6349 54.0477 56.8886 54.9237 58.4763C55.7996 60.0639 56.2376 61.8542 56.2376 63.8469C56.2376 65.7083 55.8379 67.4383 55.0386 69.0369C54.2503 70.6355 53.1444 71.9221 51.721 72.8966C50.3085 73.8711 48.6606 74.3583 46.7773 74.3583ZM46.7773 73.3072C48.3978 73.3072 49.8377 72.8801 51.0969 72.0261C52.367 71.1721 53.3634 70.0278 54.086 68.5935C54.8196 67.1591 55.1864 65.5769 55.1864 63.8469C55.1864 62.0732 54.7977 60.4745 54.0203 59.0511C53.2539 57.6168 52.2137 56.4835 50.8998 55.6514C49.5968 54.8083 48.1351 54.3867 46.5146 54.3867C45.2335 54.3867 44.0455 54.655 42.9506 55.1915C41.8556 55.7171 40.9194 56.4452 40.142 57.3759C39.3756 58.2956 38.8281 59.3522 38.4996 60.5457C38.1712 61.7392 38.1274 62.9929 38.3683 64.3068C38.7405 66.2777 39.3208 67.931 40.1092 69.2669C40.9085 70.6027 41.872 71.61 42.9998 72.2889C44.1386 72.9677 45.3977 73.3072 46.7773 73.3072Z" fill="black"/>
<path d="M42.8192 73.3893L42.8626 73.3076L42.8626 73.3076L42.8192 73.3893ZM39.6329 70.4822L39.5567 70.5347L39.5572 70.5355L39.6329 70.4822ZM37.5306 65.5715L37.4409 65.5939L37.441 65.5944L37.5306 65.5715ZM37.2678 51.9231L37.1763 51.9097L37.1763 51.91L37.2678 51.9231ZM38.9102 45.8298L38.8249 45.7941L38.8249 45.7941L38.9102 45.8298ZM51.4582 40.9355L51.41 41.0144L51.4105 41.0147L51.4582 40.9355ZM54.3981 44.056L54.3167 44.1L54.3169 44.1003L54.3981 44.056ZM55.6463 48.6712V48.7637H55.7448L55.7386 48.6654L55.6463 48.6712ZM54.5952 48.6712L54.5029 48.6777L54.509 48.7637H54.5952V48.6712ZM52.3779 43.0377L52.309 43.0994L52.3095 43.1L52.3779 43.0377ZM40.1749 45.567L40.2577 45.6082L40.2578 45.608L40.1749 45.567ZM37.8427 59.1168H37.7502V59.2093H37.8427V59.1168ZM37.9741 59.1168V59.2093H38.0414L38.0621 59.1453L37.9741 59.1168ZM39.7971 56.1441L39.7313 56.0791L39.7313 56.0791L39.7971 56.1441ZM42.8684 54.0911L42.904 54.1765L42.9047 54.1762L42.8684 54.0911ZM51.4089 54.7152L51.3595 54.7934L51.3598 54.7936L51.4089 54.7152ZM54.9237 58.4763L54.8427 58.521L54.8427 58.521L54.9237 58.4763ZM55.0386 69.0369L54.9559 68.9956L54.9557 68.996L55.0386 69.0369ZM51.721 72.8966L51.6687 72.8202L51.6684 72.8204L51.721 72.8966ZM51.0969 72.0261L51.0452 71.9493L51.0449 71.9495L51.0969 72.0261ZM54.086 68.5935L54.0037 68.5514L54.0034 68.5519L54.086 68.5935ZM54.0203 59.0511L53.9387 59.0947L53.9391 59.0955L54.0203 59.0511ZM50.8998 55.6514L50.8495 55.729L50.8503 55.7295L50.8998 55.6514ZM42.9506 55.1915L42.9906 55.2749L42.9913 55.2746L42.9506 55.1915ZM40.142 57.3759L40.0711 57.3166L40.071 57.3167L40.142 57.3759ZM38.4996 60.5457L38.4105 60.5212L38.4105 60.5212L38.4996 60.5457ZM38.3683 64.3068L38.2773 64.3235L38.2774 64.324L38.3683 64.3068ZM40.1092 69.2669L40.0295 69.3139L40.0298 69.3144L40.1092 69.2669ZM42.9998 72.2889L42.9521 72.3681L42.9525 72.3683L42.9998 72.2889ZM46.7773 74.2658C45.3685 74.2658 44.0641 73.9463 42.8626 73.3076L42.7757 73.471C44.005 74.1243 45.3393 74.4508 46.7773 74.4508V74.2658ZM42.8626 73.3076C41.6618 72.6694 40.6102 71.7109 39.7086 70.429L39.5572 70.5355C40.4732 71.8376 41.5458 72.8172 42.7757 73.471L42.8626 73.3076ZM39.7091 70.4298C38.8189 69.1379 38.1219 67.5117 37.6202 65.5486L37.441 65.5944C37.9466 67.573 38.6512 69.2206 39.5567 70.5347L39.7091 70.4298ZM37.6204 65.549C37.1299 63.5873 36.884 61.2903 36.884 58.657H36.699C36.699 61.3012 36.9459 63.6139 37.4409 65.5939L37.6204 65.549ZM36.884 58.657C36.884 56.3948 37.0425 54.1545 37.3594 51.9362L37.1763 51.91C36.8581 54.1371 36.699 56.3861 36.699 58.657H36.884ZM37.3594 51.9366C37.6869 49.7095 38.2325 47.6861 38.9956 45.8656L38.8249 45.7941C38.0551 47.6306 37.5058 49.6694 37.1763 51.9097L37.3594 51.9366ZM38.9956 45.8656C39.757 44.0489 40.7998 42.6002 42.1223 41.5161L42.005 41.3731C40.6559 42.4789 39.5964 43.9537 38.8249 45.7941L38.9956 45.8656ZM42.1223 41.5161C43.4388 40.437 45.0977 39.8947 47.1058 39.8947V39.7097C45.0627 39.7097 43.3601 40.2623 42.005 41.3731L42.1223 41.5161ZM47.1058 39.8947C48.7557 39.8947 50.1893 40.269 51.41 41.0144L51.5064 40.8565C50.2526 40.0909 48.7846 39.7097 47.1058 39.7097V39.8947ZM51.4105 41.0147C52.6329 41.7503 53.6015 42.778 54.3167 44.1L54.4794 44.012C53.7493 42.6624 52.7581 41.6097 51.5059 40.8562L51.4105 41.0147ZM54.3169 44.1003C55.0321 45.4115 55.4452 46.9363 55.554 48.6769L55.7386 48.6654C55.6284 46.9022 55.2094 45.3503 54.4793 44.0117L54.3169 44.1003ZM55.6463 48.5787H54.5952V48.7637H55.6463V48.5787ZM54.6874 48.6646C54.522 46.3376 53.7767 44.4389 52.4464 42.9755L52.3095 43.1C53.607 44.5272 54.3399 46.3841 54.5029 48.6777L54.6874 48.6646ZM52.4469 42.9761C51.1239 41.4975 49.3401 40.7608 47.1058 40.7608V40.9458C49.2951 40.9458 51.026 41.6655 52.309 43.0994L52.4469 42.9761ZM47.1058 40.7608C45.5562 40.7608 44.1937 41.1582 43.0217 41.9553C41.8504 42.7519 40.8747 43.9441 40.092 45.526L40.2578 45.608C41.0299 44.0475 41.9867 42.8829 43.1257 42.1082C44.2641 41.3341 45.5896 40.9458 47.1058 40.9458V40.7608ZM40.092 45.5259C38.5279 48.6761 37.7502 53.2094 37.7502 59.1168H37.9352C37.9352 53.2208 38.7122 48.721 40.2577 45.6082L40.092 45.5259ZM37.8427 59.2093H37.9741V59.0243H37.8427V59.2093ZM38.0621 59.1453C38.4188 58.0427 39.0187 57.0642 39.863 56.2091L39.7313 56.0791C38.8675 56.954 38.252 57.9573 37.8861 59.0884L38.0621 59.1453ZM39.863 56.2091C40.719 55.3422 41.7323 54.6647 42.904 54.1765L42.8329 54.0057C41.6395 54.5029 40.6053 55.1941 39.7313 56.0791L39.863 56.2091ZM42.9047 54.1762C44.0757 53.6774 45.3006 53.4281 46.5803 53.4281V53.2431C45.2758 53.2431 44.0262 53.4974 42.8322 54.006L42.9047 54.1762ZM46.5803 53.4281C48.326 53.4281 49.9184 53.8832 51.3595 54.7934L51.4583 54.637C49.9869 53.7077 48.3602 53.2431 46.5803 53.2431V53.4281ZM51.3598 54.7936C52.8131 55.7046 53.9739 56.9464 54.8427 58.521L55.0046 58.4316C54.1215 56.8309 52.9392 55.5653 51.458 54.6368L51.3598 54.7936ZM54.8427 58.521C55.7103 60.0936 56.1451 61.8682 56.1451 63.8469H56.3301C56.3301 61.8401 55.8889 60.0343 55.0046 58.4316L54.8427 58.521ZM56.1451 63.8469C56.1451 65.6946 55.7485 67.4103 54.9559 68.9956L55.1214 69.0783C55.9273 67.4663 56.3301 65.7221 56.3301 63.8469H56.1451ZM54.9557 68.996C54.1741 70.5809 53.0786 71.855 51.6687 72.8202L51.7732 72.9729C53.2102 71.9891 54.3264 70.6902 55.1216 69.0778L54.9557 68.996ZM51.6684 72.8204C50.2729 73.7832 48.6438 74.2658 46.7773 74.2658V74.4508C48.6775 74.4508 50.3441 73.9589 51.7735 72.9727L51.6684 72.8204ZM46.7773 73.3997C48.4151 73.3997 49.8733 72.9678 51.1488 72.1027L51.0449 71.9495C49.8021 72.7925 48.3806 73.2147 46.7773 73.2147V73.3997ZM51.1485 72.1029C52.4324 71.2395 53.4392 70.0829 54.1686 68.6351L54.0034 68.5519C53.2875 69.9728 52.3015 71.1046 51.0452 71.9493L51.1485 72.1029ZM54.1684 68.6356C54.9091 67.1873 55.2789 65.5905 55.2789 63.8469H55.0939C55.0939 65.5634 54.7301 67.131 54.0037 68.5514L54.1684 68.6356ZM55.2789 63.8469C55.2789 62.0591 54.887 60.4451 54.1015 59.0068L53.9391 59.0955C54.7084 60.504 55.0939 62.0872 55.0939 63.8469H55.2789ZM54.1019 59.0075C53.3283 57.5598 52.2773 56.4143 50.9493 55.5732L50.8503 55.7295C52.1501 56.5527 53.1795 57.6738 53.9387 59.0947L54.1019 59.0075ZM50.95 55.5737C49.6314 54.7205 48.1521 54.2942 46.5146 54.2942V54.4792C48.1181 54.4792 49.5622 54.8961 50.8495 55.729L50.95 55.5737ZM46.5146 54.2942C45.2201 54.2942 44.0181 54.5654 42.9098 55.1084L42.9913 55.2746C44.0729 54.7446 45.2469 54.4792 46.5146 54.4792V54.2942ZM42.9105 55.1081C41.8037 55.6394 40.857 56.3757 40.0711 57.3166L40.213 57.4352C40.9819 56.5147 41.9076 55.7947 42.9906 55.2749L42.9105 55.1081ZM40.071 57.3167C39.2958 58.2469 38.7423 59.3154 38.4105 60.5212L38.5888 60.5703C38.9139 59.3891 39.4554 58.3444 40.2131 57.4351L40.071 57.3167ZM38.4105 60.5212C38.078 61.7291 38.0341 62.997 38.2773 64.3235L38.4592 64.2901C38.2207 62.9888 38.2643 61.7493 38.5888 60.5703L38.4105 60.5212ZM38.2774 64.324C38.6511 66.3025 39.2344 67.9666 40.0295 69.3139L40.1889 69.2199C39.4073 67.8955 38.83 66.2529 38.4591 64.2896L38.2774 64.324ZM40.0298 69.3144C40.8355 70.6608 41.8092 71.6801 42.9521 72.3681L43.0475 72.2096C41.9349 71.5399 40.9815 70.5445 40.1886 69.2194L40.0298 69.3144ZM42.9525 72.3683C44.1061 73.0561 45.3818 73.3997 46.7773 73.3997V73.2147C45.4137 73.2147 44.171 72.8794 43.0472 72.2094L42.9525 72.3683Z" fill="black" mask="url(#path-2-outside-1_11831_27415)"/>
<rect width="55" height="55" transform="translate(61 61.5)" fill="white"/>
<path d="M88.4964 113.852C81.8572 113.852 75.6154 111.267 70.9207 106.572C66.226 101.877 63.6406 95.6356 63.6406 88.9964C63.6406 82.3572 66.226 76.1154 70.9207 71.4207C75.6154 66.726 81.8572 64.1406 88.4964 64.1406C95.1356 64.1406 101.377 66.726 106.072 71.4207C110.767 76.1154 113.352 82.3572 113.352 88.9964C113.352 95.6356 110.767 101.877 106.072 106.572C101.377 111.267 95.1356 113.852 88.4964 113.852ZM88.4964 65.1983C75.3741 65.1983 64.6983 75.8741 64.6983 88.9964C64.6983 102.119 75.3741 112.794 88.4964 112.794C101.619 112.794 112.294 102.119 112.294 88.9964C112.294 75.8741 101.619 65.1983 88.4964 65.1983Z" fill="#282828"/>
<path d="M88.494 107.504C78.2878 107.504 69.9844 99.2002 69.9844 88.994C69.9844 78.7878 78.2878 70.4844 88.494 70.4844C98.7002 70.4844 107.004 78.7878 107.004 88.994C107.004 99.2002 98.7002 107.504 88.494 107.504ZM88.494 71.5421C78.871 71.5421 71.0421 79.371 71.0421 88.994C71.0421 98.617 78.871 106.446 88.494 106.446C98.117 106.446 105.946 98.617 105.946 88.994C105.946 79.371 98.117 71.5421 88.494 71.5421Z" fill="#282828"/>
<path d="M88.5036 91.6478C87.0456 91.6478 85.8594 90.4616 85.8594 89.0036C85.8594 87.5456 87.0456 86.3594 88.5036 86.3594C89.9616 86.3594 91.1478 87.5456 91.1478 89.0036C91.1478 90.4616 89.9616 91.6478 88.5036 91.6478ZM88.5036 87.4171C87.6288 87.4171 86.9171 88.1288 86.9171 89.0036C86.9171 89.8784 87.6288 90.5901 88.5036 90.5901C89.3784 90.5901 90.0901 89.8784 90.0901 89.0036C90.0901 88.1288 89.3784 87.4171 88.5036 87.4171Z" fill="#282828"/>
<path d="M88.494 87.4075C88.3537 87.4075 88.2192 87.3517 88.12 87.2526C88.0209 87.1534 87.9651 87.0189 87.9651 86.8786V79.4748C87.9651 79.3345 88.0209 79.2 88.12 79.1008C88.2192 79.0016 88.3537 78.9459 88.494 78.9459C88.6342 78.9459 88.7688 79.0016 88.8679 79.1008C88.9671 79.2 89.0228 79.3345 89.0228 79.4748V86.8786C89.0228 87.0189 88.9671 87.1534 88.8679 87.2526C88.7688 87.3517 88.6342 87.4075 88.494 87.4075ZM86.3786 89.5228H82.1478C82.0076 89.5228 81.8731 89.4671 81.7739 89.3679C81.6747 89.2688 81.619 89.1342 81.619 88.994C81.619 88.8537 81.6747 88.7192 81.7739 88.62C81.8731 88.5209 82.0076 88.4651 82.1478 88.4651H86.3786C86.5189 88.4651 86.6534 88.5209 86.7526 88.62C86.8517 88.7192 86.9075 88.8537 86.9075 88.994C86.9075 89.1342 86.8517 89.2688 86.7526 89.3679C86.6534 89.4671 86.5189 89.5228 86.3786 89.5228ZM88.494 75.7728C88.3537 75.7728 88.2192 75.7171 88.12 75.6179C88.0209 75.5188 87.9651 75.3842 87.9651 75.244V71.0132C87.9651 70.873 88.0209 70.7384 88.12 70.6393C88.2192 70.5401 88.3537 70.4844 88.494 70.4844C88.6342 70.4844 88.7688 70.5401 88.8679 70.6393C88.9671 70.7384 89.0228 70.873 89.0228 71.0132V75.244C89.0228 75.3842 88.9671 75.5188 88.8679 75.6179C88.7688 75.7171 88.6342 75.7728 88.494 75.7728ZM88.494 107.504C88.3537 107.504 88.2192 107.448 88.12 107.349C88.0209 107.25 87.9651 107.115 87.9651 106.975V102.744C87.9651 102.452 88.2019 102.215 88.494 102.215C88.7861 102.215 89.0228 102.452 89.0228 102.744V106.975C89.0228 107.115 88.9671 107.25 88.8679 107.349C88.7688 107.448 88.6342 107.504 88.494 107.504ZM98.2167 79.8001C98.1121 79.8001 98.0099 79.7691 97.923 79.7109C97.836 79.6528 97.7683 79.5702 97.7282 79.4736C97.6882 79.377 97.6777 79.2707 97.6981 79.1681C97.7185 79.0655 97.7689 78.9713 97.8428 78.8974L100.834 75.9058C100.934 75.8087 101.068 75.7547 101.207 75.7556C101.346 75.7565 101.479 75.8122 101.578 75.9105C101.676 76.0089 101.732 76.1421 101.732 76.2812C101.733 76.4203 101.679 76.5541 101.582 76.6537L98.5906 79.6453C98.5416 79.6944 98.4833 79.7334 98.4191 79.76C98.355 79.7866 98.2862 79.8002 98.2167 79.8001ZM75.7797 102.237C75.675 102.237 75.5727 102.206 75.4857 102.148C75.3987 102.09 75.3308 102.008 75.2908 101.911C75.2507 101.814 75.2403 101.708 75.2607 101.605C75.2812 101.503 75.3316 101.408 75.4057 101.334L78.3973 98.3428C78.4461 98.2927 78.5045 98.2528 78.5689 98.2254C78.6333 98.1979 78.7025 98.1836 78.7726 98.1831C78.8426 98.1827 78.912 98.1962 78.9767 98.2227C79.0415 98.2493 79.1004 98.2885 79.1499 98.338C79.1994 98.3875 79.2386 98.4464 79.2652 98.5111C79.2918 98.5759 79.3052 98.6453 79.3048 98.7153C79.3043 98.7853 79.29 98.8545 79.2626 98.919C79.2352 98.9834 79.1953 99.0417 79.1452 99.0906L76.1536 102.082C76.1045 102.131 76.0463 102.17 75.9821 102.197C75.9179 102.224 75.8491 102.237 75.7797 102.237ZM106.475 89.5228H102.244C101.952 89.5228 101.715 89.2861 101.715 88.994C101.715 88.7019 101.952 88.4651 102.244 88.4651H106.475C106.767 88.4651 107.004 88.7019 107.004 88.994C107.004 89.2861 106.767 89.5228 106.475 89.5228ZM74.744 89.5228H70.5132C70.373 89.5228 70.2384 89.4671 70.1393 89.3679C70.0401 89.2688 69.9844 89.1342 69.9844 88.994C69.9844 88.8537 70.0401 88.7192 70.1393 88.62C70.2384 88.5209 70.373 88.4651 70.5132 88.4651H74.744C74.8842 88.4651 75.0188 88.5209 75.1179 88.62C75.2171 88.7192 75.2728 88.8537 75.2728 88.994C75.2728 89.1342 75.2171 89.2688 75.1179 89.3679C75.0188 89.4671 74.8842 89.5228 74.744 89.5228ZM101.208 102.237C101.139 102.237 101.07 102.224 101.006 102.197C100.942 102.17 100.883 102.131 100.834 102.082L97.8428 99.0906C97.7937 99.0415 97.7547 98.9832 97.7282 98.9191C97.7016 98.8549 97.6879 98.7862 97.6879 98.7167C97.6879 98.6473 97.7016 98.5785 97.7282 98.5144C97.7547 98.4502 97.7937 98.3919 97.8428 98.3428C97.8919 98.2937 97.9502 98.2548 98.0144 98.2282C98.0785 98.2016 98.1473 98.1879 98.2167 98.1879C98.2862 98.1879 98.3549 98.2016 98.4191 98.2282C98.4832 98.2548 98.5415 98.2937 98.5906 98.3428L101.582 101.334C101.631 101.383 101.67 101.442 101.697 101.506C101.723 101.57 101.737 101.639 101.737 101.708C101.737 101.778 101.723 101.847 101.697 101.911C101.67 101.975 101.631 102.033 101.582 102.082C101.533 102.131 101.475 102.17 101.411 102.197C101.347 102.224 101.278 102.237 101.208 102.237ZM78.7713 79.8001C78.7018 79.8002 78.633 79.7866 78.5688 79.76C78.5046 79.7334 78.4463 79.6944 78.3973 79.6453L75.4057 76.6537C75.3562 76.6047 75.3169 76.5463 75.2901 76.4821C75.2632 76.4178 75.2493 76.3489 75.2491 76.2793C75.249 76.2096 75.2626 76.1406 75.2892 76.0763C75.3158 76.0119 75.3548 75.9534 75.404 75.9041C75.4533 75.8549 75.5118 75.8159 75.5761 75.7893C75.6405 75.7627 75.7095 75.7491 75.7792 75.7493C75.8488 75.7494 75.9177 75.7633 75.982 75.7902C76.0462 75.817 76.1045 75.8563 76.1536 75.9058L79.1452 78.8974C79.2191 78.9713 79.2694 79.0655 79.2898 79.1681C79.3102 79.2707 79.2998 79.377 79.2597 79.4736C79.2197 79.5702 79.152 79.6528 79.065 79.7109C78.9781 79.7691 78.8758 79.8001 78.7713 79.8001Z" fill="#282828"/>
</svg>
