<svg width="20" height="21" viewBox="0 0 20 21" fill="none" xmlns="http://www.w3.org/2000/svg">
<g clip-path="url(#clip0_14103_5510)">
<path d="M10.6248 8.625C10.6248 8.45924 10.559 8.30027 10.4418 8.18306C10.3245 8.06585 10.1656 8 9.99981 8C9.83405 8 9.67508 8.06585 9.55787 8.18306C9.44066 8.30027 9.37481 8.45924 9.37481 8.625V13.3663L7.94231 11.9325C7.8842 11.8744 7.81522 11.8283 7.73929 11.7968C7.66337 11.7654 7.58199 11.7492 7.49981 11.7492C7.41763 11.7492 7.33626 11.7654 7.26033 11.7968C7.18441 11.8283 7.11542 11.8744 7.05731 11.9325C6.9992 11.9906 6.95311 12.0596 6.92166 12.1355C6.89021 12.2114 6.87402 12.2928 6.87402 12.375C6.87402 12.4572 6.89021 12.5386 6.92166 12.6145C6.95311 12.6904 6.9992 12.7594 7.05731 12.8175L9.55731 15.3175C9.61537 15.3757 9.68434 15.4219 9.76027 15.4534C9.8362 15.4849 9.9176 15.5011 9.99981 15.5011C10.082 15.5011 10.1634 15.4849 10.2394 15.4534C10.3153 15.4219 10.3843 15.3757 10.4423 15.3175L12.9423 12.8175C13.0004 12.7594 13.0465 12.6904 13.078 12.6145C13.1094 12.5386 13.1256 12.4572 13.1256 12.375C13.1256 12.2928 13.1094 12.2114 13.078 12.1355C13.0465 12.0596 13.0004 11.9906 12.9423 11.9325C12.8842 11.8744 12.8152 11.8283 12.7393 11.7968C12.6634 11.7654 12.582 11.7492 12.4998 11.7492C12.4176 11.7492 12.3363 11.7654 12.2603 11.7968C12.1844 11.8283 12.1154 11.8744 12.0573 11.9325L10.6248 13.3663V8.625Z" fill="#808181"/>
<path d="M17.5 18V6.125L11.875 0.5H5C4.33696 0.5 3.70107 0.763392 3.23223 1.23223C2.76339 1.70107 2.5 2.33696 2.5 3V18C2.5 18.663 2.76339 19.2989 3.23223 19.7678C3.70107 20.2366 4.33696 20.5 5 20.5H15C15.663 20.5 16.2989 20.2366 16.7678 19.7678C17.2366 19.2989 17.5 18.663 17.5 18ZM11.875 4.25C11.875 4.74728 12.0725 5.22419 12.4242 5.57583C12.7758 5.92746 13.2527 6.125 13.75 6.125H16.25V18C16.25 18.3315 16.1183 18.6495 15.8839 18.8839C15.6495 19.1183 15.3315 19.25 15 19.25H5C4.66848 19.25 4.35054 19.1183 4.11612 18.8839C3.8817 18.6495 3.75 18.3315 3.75 18V3C3.75 2.66848 3.8817 2.35054 4.11612 2.11612C4.35054 1.8817 4.66848 1.75 5 1.75H11.875V4.25Z" fill="#808181"/>
</g>
<defs>
<clipPath id="clip0_14103_5510">
<rect width="20" height="20" fill="white" transform="translate(0 0.5)"/>
</clipPath>
</defs>
</svg>
