<svg width="359" height="210" viewBox="0 0 359 210" fill="none" xmlns="http://www.w3.org/2000/svg">
<mask id="mask0_7085_75648" style="mask-type:luminance" maskUnits="userSpaceOnUse" x="0" y="170" width="359" height="34">
<path d="M358.41 170.84H0V203.14H358.41V170.84Z" fill="white"/>
</mask>
<g mask="url(#mask0_7085_75648)">
<path d="M237.641 200.89C269.591 196.17 301.021 188.67 332.891 183.54C367.301 178.01 402.161 176.88 436.871 180.07C476.681 183.73 515.491 193.56 554.161 203.27C570.781 207.45 587.511 212.46 604.631 214.07C618.841 215.41 633.281 214.55 647.201 211.38C676.031 204.8 701.591 187.99 718.861 163.96C721.171 160.74 723.321 157.41 725.331 154C725.901 153.03 724.391 152.15 723.821 153.12C708.191 179.6 683.391 199.31 653.801 207.87C639.921 211.89 625.401 213.46 610.981 212.77C594.281 211.97 578.191 207.47 562.051 203.44C524.181 193.98 486.321 184.02 447.481 179.43C412.561 175.31 377.171 175.48 342.341 180.35C311.521 184.66 281.221 192.04 250.521 197.1C246.081 197.83 241.631 198.53 237.181 199.18C236.071 199.34 236.541 201.03 237.651 200.87L237.641 200.89Z" fill="#C47A2C"/>
<path d="M-230.902 171.151C-204.102 167.811 -176.992 167.081 -150.012 167.851C-125.362 168.551 -100.712 170.491 -76.3318 174.201C-53.5518 177.661 -31.0218 182.601 -8.49182 187.361C3.20818 189.831 14.8882 192.441 26.6882 194.391C37.6282 196.201 48.6382 197.591 59.6582 198.761C85.2582 201.501 110.998 203.121 136.738 203.821C139.898 203.911 143.058 203.971 146.228 204.031C147.358 204.051 147.358 202.301 146.228 202.281C120.368 201.841 94.5082 200.401 68.7582 197.931C57.0482 196.811 45.3582 195.471 33.7182 193.731C22.0782 191.991 11.3981 189.751 0.288147 187.421C-22.7319 182.601 -45.6919 177.431 -68.9019 173.611C-92.7519 169.691 -116.822 167.431 -140.952 166.421C-167.522 165.301 -194.242 165.631 -220.712 168.261C-224.112 168.601 -227.512 168.981 -230.902 169.401C-232.002 169.541 -232.022 171.291 -230.902 171.151Z" fill="#C47A2C"/>
</g>
<path d="M132.546 95.0411C130.036 94.0611 132.366 91.0512 133.486 90.0312C134.916 88.7312 136.606 87.6912 138.416 86.9912C139.406 86.6112 140.346 86.1811 141.026 87.2911C141.426 87.9311 141.616 88.8312 141.746 89.5812C142.026 91.1612 141.896 92.8112 141.426 94.3412C140.956 95.8712 140.126 97.3012 138.966 98.4212C138.666 98.7112 138.346 99.0012 137.996 99.2312C137.636 99.4712 136.676 99.9912 136.236 99.5812C135.176 98.6112 137.836 97.1711 138.466 96.7911C139.836 95.9611 141.736 94.9312 143.406 95.4212C145.316 95.9812 145.306 98.4712 143.606 99.2812L144.366 99.3811C143.836 98.8111 146.716 97.2912 147.096 97.0812C147.646 96.7812 148.236 96.4312 148.836 96.2412C149.216 96.0912 149.626 96.0411 150.036 96.1011C150.586 96.4211 150.646 96.7412 150.216 97.0612L150.926 97.9812C151.406 97.0812 152.076 95.9412 153.156 95.7112C153.816 95.5712 154.376 95.8612 154.726 96.4212C154.836 96.7612 154.936 97.1011 155.006 97.4411C155.276 97.3411 155.536 97.2411 155.816 97.1611C158.176 96.4111 160.656 96.3611 163.066 96.9111C163.846 97.0911 164.186 95.8912 163.396 95.7012C160.646 95.0612 157.756 95.1412 155.076 96.0812C154.296 96.3512 153.166 96.6211 153.376 97.6611C153.526 98.4211 154.296 98.7411 154.986 98.5111C156.936 97.8411 156.006 95.3812 154.626 94.6812C152.546 93.6312 150.726 95.6912 149.846 97.3412C149.576 97.8512 150.016 98.3511 150.556 98.2611C151.586 98.0811 151.976 96.9412 151.636 96.0312C151.186 94.8112 149.806 94.6511 148.696 94.9711C147.206 95.3911 141.396 98.0011 143.476 100.261C143.676 100.481 143.986 100.471 144.236 100.361C145.736 99.6512 146.486 97.8212 145.966 96.2412C145.376 94.4612 143.436 93.8912 141.746 94.1412C139.606 94.4512 137.406 95.7312 135.806 97.1412C134.486 98.3012 134.196 100.571 136.386 100.941C138.296 101.261 140.076 99.2611 141.066 97.8811C142.266 96.2111 142.946 94.1912 143.106 92.1412C143.266 90.0912 142.946 87.9212 141.886 86.2412C140.736 84.4112 138.526 85.5312 136.986 86.2412C134.706 87.2812 132.106 88.9812 130.826 91.2112C129.796 93.0212 130.116 95.4212 132.206 96.2412C132.956 96.5312 133.286 95.3212 132.536 95.0312L132.546 95.0411Z" fill="#C47A2C"/>
<path d="M166.999 88.0505V108.21H123.649L122.969 46.7305L166.999 46.8905V70.0005" stroke="#3B4A58" stroke-width="1.2" stroke-miterlimit="10"/>
<path d="M155.731 58.3613H129.281V69.4413H144.711" stroke="#3B4A58" stroke-width="1.2" stroke-miterlimit="10"/>
<path d="M129.281 79.3906H151.811" stroke="#3B4A58" stroke-width="1.2" stroke-miterlimit="10"/>
<path d="M174.978 82.4905L158.008 66.3105L154.148 70.4505L171.288 86.7805L174.978 82.4905Z" stroke="#3B4A58" stroke-width="1.2" stroke-miterlimit="10"/>
<path d="M168.628 84.2609L172.388 80.0209L172.738 76.7709L168.508 72.6309" stroke="#3B4A58" stroke-width="1.2" stroke-miterlimit="10"/>
<path d="M173.141 87.1606L175.301 89.3206C175.561 89.5806 175.981 89.5706 176.221 89.2906L177.861 87.4606C178.081 87.2206 178.061 86.8406 177.811 86.6306L175.601 84.6406" stroke="#3B4A58" stroke-width="1.2" stroke-miterlimit="10"/>
<path d="M157.649 66.6898L150.539 63.0098L154.489 70.0798" stroke="#3B4A58" stroke-width="1.2" stroke-miterlimit="10"/>
<path d="M148.859 61.3301L151.099 63.6101" stroke="#3B4A58" stroke-width="1.2" stroke-miterlimit="10"/>
<path d="M162.484 21.0505L164.584 24.1105L167.364 20.2305" stroke="#C47A2C" stroke-width="1.2" stroke-miterlimit="10"/>
<path d="M162.484 33.6403L164.584 36.7003L167.364 32.8203" stroke="#C47A2C" stroke-width="1.2" stroke-miterlimit="10"/>
<path d="M156.977 42.11V11.25H181.217L189.297 19.66V58.27H174.057" stroke="#3B4A58" stroke-width="1.2" stroke-miterlimit="10"/>
<path d="M181.219 11.25L181.039 19.7L189.299 19.66" stroke="#3B4A58" stroke-width="1.2" stroke-miterlimit="10"/>
<path d="M172.406 19.6992H176.446" stroke="#3B4A58" stroke-width="1.2" stroke-miterlimit="10"/>
<path d="M172.406 25.3301H182.686" stroke="#3B4A58" stroke-width="1.2" stroke-miterlimit="10"/>
<path d="M172.406 36.7793H182.686" stroke="#3B4A58" stroke-width="1.2" stroke-miterlimit="10"/>
<path d="M172.406 47.5H182.686" stroke="#3B4A58" stroke-width="1.2" stroke-miterlimit="10"/>
<path d="M172.406 32.4199H182.686" stroke="#3B4A58" stroke-width="1.2" stroke-miterlimit="10"/>
<path d="M172.406 43.2109H182.686" stroke="#3B4A58" stroke-width="1.2" stroke-miterlimit="10"/>
<path d="M188.812 160.021H163.992" stroke="#3B4A58" stroke-width="1.2" stroke-miterlimit="10"/>
<path d="M205.492 159.15H230.003C232.573 159.15 234.653 161.23 234.653 163.8V179.13L203.062 189.88" stroke="#3B4A58" stroke-width="1.2" stroke-miterlimit="10"/>
<path d="M191.141 190.16L158.711 179.13V166.73" stroke="#3B4A58" stroke-width="1.2" stroke-miterlimit="10"/>
<path d="M233.143 183.391V209.351H160.883V186.651" stroke="#3B4A58" stroke-width="1.2" stroke-miterlimit="10"/>
<path d="M227.519 198.531V204.381H218.859" stroke="#3B4A58" stroke-width="1.2" stroke-miterlimit="10"/>
<path d="M172.117 154.901H179.907V149.171C179.907 146.761 181.857 144.811 184.267 144.811H209.947C212.357 144.811 214.307 146.761 214.307 149.171V154.901H221.547" stroke="#3B4A58" stroke-width="1.2" stroke-miterlimit="10"/>
<path d="M184.672 154.9V149.85H209.122V154.9" stroke="#3B4A58" stroke-width="1.2" stroke-miterlimit="10"/>
<path d="M156.141 170.51L188.811 182.41" stroke="#3B4A58" stroke-width="1.2" stroke-linecap="round" stroke-linejoin="round"/>
<path d="M237.36 170.51L204.68 182.41" stroke="#3B4A58" stroke-width="1.2" stroke-linecap="round" stroke-linejoin="round"/>
<path d="M202.821 157.42H191.141V202.64H202.821V157.42Z" stroke="#C47A2C" stroke-width="1.2" stroke-miterlimit="10"/>
<path d="M187.773 185.619H197.593H206.193" stroke="#C47A2C" stroke-width="1.2" stroke-miterlimit="10"/>
<path d="M196.984 191.249V185.619" stroke="#C47A2C" stroke-width="1.2" stroke-miterlimit="10"/>
<path d="M191.141 194.641H202.821" stroke="#C47A2C" stroke-width="1.2" stroke-miterlimit="10"/>
<path d="M280.088 37.2405C279.118 39.6905 276.198 45.5905 276.198 45.5905H276.808L275.918 48.2305L271.068 53.2805C271.338 50.7605 271.548 48.9005 271.548 48.9005C271.548 48.9005 274.488 46.6005 274.488 42.4705C274.488 41.0005 273.938 39.4605 272.408 40.0805C272.408 40.0805 270.138 38.6705 268.548 37.1405C267.308 35.9405 266.538 34.9005 266.088 33.7805L266.218 34.5705C266.218 34.5705 257.408 35.9805 254.648 29.6105C254.358 28.9305 254.108 28.2405 253.908 27.5705C253.498 27.7705 244.148 32.2505 242.588 35.3105C240.998 38.4305 242.588 40.3905 242.588 40.3905L244.728 43.7605C244.728 43.7605 238.858 45.7605 239.768 33.4705C240.078 29.3705 242.838 20.3105 252.448 15.4705C260.398 11.4705 269.038 13.7605 271.178 14.7405C273.328 15.7205 279.508 20.8005 280.668 25.4505C281.838 30.1005 280.908 35.1605 280.088 37.2405Z" fill="#F9B974"/>
<path d="M278.444 45.5909L275.914 48.2309L276.804 45.5909L278.194 41.4609L278.444 45.5909Z" fill="#F9B974"/>
<path d="M273.008 15.8709C273.008 15.8709 274.878 13.3709 277.668 12.7809C286.698 10.8809 290.038 20.1609 290.898 23.8609C291.938 28.3309 291.388 37.6909 291.448 39.8909C291.508 42.0809 294.758 50.5009 294.198 53.2809C292.608 61.2109 284.898 64.0809 284.898 64.0809C284.898 64.0809 284.958 60.0409 283.368 56.0609C281.768 52.0809 278.708 49.7609 278.708 49.7609L278.448 45.5909" fill="#F9B974"/>
<path d="M241.628 78.9707L239.778 80.3707L210.938 106.221L213.328 111.031" stroke="#3B4A58" stroke-width="1.2" stroke-miterlimit="10"/>
<path d="M234.173 110.432L221.773 117.842L207.383 122.792" stroke="#3B4A58" stroke-width="1.2" stroke-miterlimit="10"/>
<path d="M209.095 107.07L171.875 117.84L177.045 131.72L189.935 127.74" stroke="#3B4A58" stroke-width="1.2" stroke-miterlimit="10"/>
<path d="M178.055 118.852L181.875 130.232" stroke="#3B4A58" stroke-width="1.2" stroke-miterlimit="10"/>
<path d="M176.213 129.5C176.213 129.5 174.383 130.73 172.543 131.14C170.703 131.55 171.533 128.98 169.283 128.61C167.033 128.24 166.393 130.08 164.323 128.61C162.253 127.14 161.963 124.2 159.623 124.2C157.283 124.2 157.843 128.42 156.193 129.34C154.543 130.26 153.133 130.03 153.133 130.03L155.093 122.73C155.093 122.73 155.603 120.71 158.193 119.79C160.783 118.87 172.253 118.84 172.253 118.84" stroke="#3B4A58" stroke-width="1.2" stroke-miterlimit="10"/>
<path d="M159.544 137.151L158.944 141.571C158.844 142.321 157.964 142.821 156.974 142.691C155.984 142.561 155.264 141.831 155.364 141.081C155.264 141.831 154.374 142.331 153.384 142.201C152.394 142.071 151.484 141.251 151.554 140.511C151.414 141.241 150.504 141.461 149.534 141.361C148.684 141.271 147.714 140.261 147.954 139.541C147.734 140.221 146.094 139.991 145.634 139.541C144.574 138.491 145.234 135.211 145.234 135.211C145.334 134.461 146.224 133.961 147.214 134.091C148.204 134.221 148.924 134.951 148.824 135.701C148.924 134.951 149.804 134.451 150.804 134.581C151.804 134.711 152.474 135.401 152.404 136.141C152.524 135.411 153.404 134.941 154.364 135.071C155.324 135.201 156.074 135.931 155.974 136.681C156.074 135.931 156.954 135.431 157.954 135.561C158.954 135.691 159.654 136.411 159.554 137.161L159.544 137.151Z" stroke="#3B4A58" stroke-width="1.2" stroke-miterlimit="10"/>
<path d="M285.876 72.3908L270.336 62.3008" stroke="#3B4A58" stroke-width="1.2" stroke-miterlimit="10"/>
<path d="M289.185 75.2305L302.775 113.6V161.13H285.875V121.59L292.485 118.85" stroke="#3B4A58" stroke-width="1.2" stroke-miterlimit="10"/>
<path d="M272.656 89.4316L285.876 117.842" stroke="#3B4A58" stroke-width="1.2" stroke-miterlimit="10"/>
<path d="M272.656 132.472H279.266C279.266 132.472 277.066 129.442 279.266 122.782C281.466 116.122 284.296 114.432 284.296 114.432" stroke="#3B4A58" stroke-width="1.2" stroke-miterlimit="10"/>
<path d="M279.263 136.9L282.202 154.7L253.543 158.98L246.562 153.94" stroke="#3B4A58" stroke-width="1.2" stroke-miterlimit="10"/>
<path d="M234.812 132.64L231.742 153.44L241.422 156.84L243.262 152.25L246.562 79.3005L254.462 69.2305" stroke="#3B4A58" stroke-width="1.2" stroke-miterlimit="10"/>
<path d="M270.443 74.9111L263.492 84.1311L248.773 103.641L246.562 110.501L266.072 94.6411L264.563 85.4511L274.482 83.9811L273.003 68.6211" stroke="#3B4A58" stroke-width="1.2" stroke-miterlimit="10"/>
<path d="M254.656 114.44C254.656 114.44 259.066 116.1 266.046 114.46C273.026 112.82 274.496 106.58 274.496 106.58" stroke="#3B4A58" stroke-width="1.2" stroke-miterlimit="10"/>
<path d="M239.038 129.841H235.188L236.747 112.221" stroke="#3B4A58" stroke-width="1.2" stroke-miterlimit="10"/>
<path d="M240.072 113.68C240.072 113.68 236.132 112.92 234.162 109.52C228.472 99.7201 240.092 88.5301 242.202 80.0801" stroke="#3B4A58" stroke-width="1.2" stroke-miterlimit="10"/>
<path d="M245.191 109.52L239.031 90.6005L244.181 83.8005L240.811 77.4305L254.461 69.2305" stroke="#3B4A58" stroke-width="1.2" stroke-miterlimit="10"/>
<path d="M249.348 130.041C250.502 130.041 251.438 129.106 251.438 127.951C251.438 126.797 250.502 125.861 249.348 125.861C248.194 125.861 247.258 126.797 247.258 127.951C247.258 129.106 248.194 130.041 249.348 130.041Z" stroke="#3B4A58" stroke-width="1.2" stroke-miterlimit="10"/>
<path d="M249.348 142.571C250.502 142.571 251.438 141.635 251.438 140.481C251.438 139.326 250.502 138.391 249.348 138.391C248.194 138.391 247.258 139.326 247.258 140.481C247.258 141.635 248.194 142.571 249.348 142.571Z" stroke="#3B4A58" stroke-width="1.2" stroke-miterlimit="10"/>
<path d="M283.305 156.84C283.305 156.84 284.775 163.15 285.875 171.04C286.975 178.94 287.345 207.22 287.345 207.22" stroke="#3B4A58" stroke-width="1.2" stroke-miterlimit="10"/>
<path d="M280.914 163.33C280.914 163.33 281.834 167.55 282.204 172.88C282.574 178.21 283.304 189.53 283.304 189.53" stroke="#3B4A58" stroke-width="1.2" stroke-miterlimit="10"/>
<path d="M283.305 194.131V196.041" stroke="#3B4A58" stroke-width="1.2" stroke-miterlimit="10"/>
<path d="M299.097 161.131V169.031C299.097 169.031 294.507 172.501 291.747 173.521C288.987 174.541 285.867 173.521 285.867 173.521" stroke="#3B4A58" stroke-width="1.2" stroke-miterlimit="10"/>
<path d="M290.461 155.621H302.771" stroke="#3B4A58" stroke-width="1.2" stroke-miterlimit="10"/>
<path d="M269.711 66.6304C269.711 65.4104 271.551 48.9004 271.551 48.9004C271.551 48.9004 274.491 46.6004 274.491 42.4704C274.491 41.0004 273.941 39.4604 272.411 40.0804C270.521 40.8404 269.721 42.1004 269.721 42.1004" stroke="#3B4A58" stroke-width="1.2" stroke-miterlimit="10"/>
<path d="M252.992 23C252.992 23 253.292 26.48 254.642 29.61C257.402 35.98 266.212 34.57 266.212 34.57" stroke="#3B4A58" stroke-width="1.2" stroke-miterlimit="10"/>
<path d="M265.547 30.541C265.547 33.171 266.207 34.901 268.547 37.151C270.137 38.681 272.407 40.091 272.407 40.091" stroke="#3B4A58" stroke-width="1.2" stroke-miterlimit="10"/>
<path d="M256.281 18.1711L259.111 17.3711" stroke="#3B4A58" stroke-width="1.2" stroke-miterlimit="10"/>
<path d="M260.344 17.0016C260.344 17.0016 263.224 16.3916 266.224 17.0016C269.224 17.6116 273.204 19.8816 275.464 23.0016C277.734 26.1216 278.704 32.2416 278.704 32.2416" stroke="#3B4A58" stroke-width="1.2" stroke-miterlimit="10"/>
<path d="M244.737 43.7605C244.737 43.7605 238.857 45.7605 239.777 33.4705C240.087 29.3705 242.837 20.3105 252.447 15.4705C260.397 11.4705 269.037 13.7605 271.177 14.7405C273.317 15.7205 279.507 20.8005 280.667 25.4505C281.827 30.1005 280.907 35.1605 280.087 37.2405C279.117 39.6905 276.197 45.6005 276.197 45.6005" stroke="#3B4A58" stroke-width="1.2" stroke-miterlimit="10"/>
<path d="M271.062 53.2916L278.452 45.6016" stroke="#3B4A58" stroke-width="1.2" stroke-miterlimit="10"/>
<path d="M278.196 41.4607L278.716 49.7607C278.716 49.7607 281.776 52.0907 283.366 56.0707C284.956 60.0507 284.896 64.0907 284.896 64.0907C284.896 64.0907 292.606 61.2107 294.206 53.2907C294.766 50.5107 291.516 42.0907 291.446 39.9007C291.386 37.7107 291.936 28.3407 290.896 23.8707C290.036 20.1707 286.706 10.8907 277.676 12.7907C274.876 13.3807 273.016 15.8807 273.016 15.8807" stroke="#3B4A58" stroke-width="1.2" stroke-miterlimit="10"/>
<path d="M253.916 27.5801C253.916 27.5801 244.186 32.1901 242.586 35.3101C240.986 38.4301 242.586 40.3901 242.586 40.3901L244.726 43.7601C244.726 43.7601 243.806 47.4301 244.726 50.8301C245.646 54.2301 250.966 61.9401 253.906 62.4901C256.846 63.0401 257.396 62.4901 257.396 62.4901L268.236 55.4701" stroke="#3B4A58" stroke-width="1.2" stroke-miterlimit="10"/>
<path d="M254.461 62.7402V69.8402" stroke="#3B4A58" stroke-width="1.2" stroke-miterlimit="10"/>
<path d="M244.734 39.8906C244.734 39.8906 248.084 39.1406 249.514 39.6406C250.824 40.1006 251.164 42.3806 251.074 43.7606C250.934 45.9706 249.344 49.6406 249.344 49.6406H253.004" stroke="#3B4A58" stroke-width="1.2" stroke-miterlimit="10"/>
<path d="M251.438 55.0104C251.438 55.0104 255.747 55.6704 257.107 53.6504" stroke="#3B4A58" stroke-width="1.2" stroke-miterlimit="10"/>
<path d="M256.281 39.6408C256.281 39.6408 259.311 38.7308 262.071 39.3608C264.831 39.9908 265.551 41.0108 265.551 41.0108" stroke="#3B4A58" stroke-width="1.2" stroke-miterlimit="10"/>
<path d="M256.172 42.3404C256.172 42.3404 257.962 41.7404 259.612 41.9204C261.262 42.1004 262.072 42.5204 262.072 42.5204" stroke="#3B4A58" stroke-width="1.2" stroke-miterlimit="10"/>
<path d="M259.117 43.9406V42.3906" stroke="#3B4A58" stroke-width="1.2" stroke-miterlimit="10"/>
<path d="M245.406 42.2313C245.406 42.2313 246.416 41.7713 247.706 41.9113C248.656 42.0213 249.266 42.5513 249.266 42.5513" stroke="#3B4A58" stroke-width="1.2" stroke-miterlimit="10"/>
<path d="M247.336 43.7807V42.2207" stroke="#3B4A58" stroke-width="1.2" stroke-miterlimit="10"/>
<path d="M283.211 16.7305C283.211 16.7305 287.251 18.1705 288.171 24.4905C288.831 29.0305 287.441 36.6705 288.171 39.1405C288.901 41.6105 289.731 43.9505 289.731 43.9505" stroke="#3B4A58" stroke-width="1.2" stroke-miterlimit="10"/>
<path d="M290.461 45.6016L291.101 47.6216" stroke="#3B4A58" stroke-width="1.2" stroke-miterlimit="10"/>
<path d="M249.344 81.6304C249.344 81.6304 250.584 82.9204 255.064 82.9204C259.544 82.9204 265.554 81.4004 265.554 81.4004" stroke="#3B4A58" stroke-width="1.2" stroke-miterlimit="10"/>
<path d="M135.453 135.681L135.823 132.641" stroke="#3B4A58" stroke-width="1.2" stroke-miterlimit="10"/>
<path d="M75.9922 72.3909V79.3009L72.0722 80.3709L66.2422 74.9809L71.1122 69.1309L75.9922 72.3909Z" fill="#F9B974"/>
<path d="M72.0703 80.371L76.2203 96.011L87.3803 105.511L86.8903 97.271C86.8903 97.271 86.2903 92.021 82.0003 86.681C77.7003 81.341 75.9903 79.291 75.9903 79.291" fill="#F9B974"/>
<path d="M66.2422 74.9806L72.0722 80.3706L75.9922 79.3006V72.3906" stroke="#C47A2C" stroke-width="1.2" stroke-miterlimit="10"/>
<path d="M76.2303 96.0211L72.0703 80.3711" stroke="#C47A2C" stroke-width="1.2" stroke-miterlimit="10"/>
<path d="M86.9 97.2808C86.9 97.2808 86.3 92.0308 82.01 86.6908C77.71 81.3508 76 79.3008 76 79.3008" stroke="#C47A2C" stroke-width="1.2" stroke-miterlimit="10"/>
<path d="M85.0526 19.97C85.0526 19.97 83.7726 22.63 80.1526 23.06C72.0826 24.02 60.7926 20.3 60.7926 20.3C60.7926 20.3 61.4226 22.06 59.4626 26.37C57.5026 30.68 56.6426 32.86 55.4226 33.59C54.2026 34.32 51.9226 31.51 51.3826 34.69C51.0126 36.86 52.2426 40.69 53.7126 40.93L52.0026 44.36C52.0026 44.36 39.6626 28.59 49.3126 14.48C52.4126 9.95 60.2726 6.78999 69.8526 5.46999C71.8226 5.19999 76.0026 4.93001 76.0026 4.93001L78.4526 8.84999C78.4526 8.84999 79.0926 8.00001 79.6626 5.93001C80.1726 4.08001 79.1926 1.75 79.1926 1.75C79.1926 1.75 84.3026 2.64999 86.7826 7.28999C89.5426 12.44 87.4026 16.45 87.4026 16.45L85.0726 19.97H85.0526Z" fill="#F9B974"/>
<path d="M76.2344 96.0198L87.3944 105.52C87.3944 105.52 86.5344 87.4798 85.0644 81.3598C83.5944 75.2398 78.4544 64.0898 78.4544 64.0898" stroke="#3B4A58" stroke-width="1.2" stroke-miterlimit="10"/>
<path d="M41.4634 202.581L38.5234 171.471" stroke="#3B4A58" stroke-width="1.2" stroke-miterlimit="10"/>
<path d="M88.4847 179.561L85.0547 188.131V199.521" stroke="#3B4A58" stroke-width="1.2" stroke-miterlimit="10"/>
<path d="M105.915 201.54L107.015 174.44L105.875 166.09" stroke="#3B4A58" stroke-width="1.2" stroke-miterlimit="10"/>
<path d="M75.5016 58.0107L78.4416 62.4907V74.2507L71.3416 68.8607L63.9916 77.6807L46.6016 57.1107L51.2616 51.4707L71.1116 67.4507L75.5016 58.0107Z" stroke="#3B4A58" stroke-width="1.2" stroke-miterlimit="10"/>
<path d="M47.7903 58.5098L36.3203 68.6198" stroke="#3B4A58" stroke-width="1.2" stroke-miterlimit="10"/>
<path d="M33.6317 72.2891L32.9317 76.0191C30.4817 89.1191 31.5118 102.639 35.9018 115.229L43.9118 138.179H51.9917" stroke="#3B4A58" stroke-width="1.2" stroke-miterlimit="10"/>
<path d="M41.3438 72.2893C41.3438 72.2893 45.6238 67.6093 50.0338 68.6193C55.3538 69.8393 74.6538 95.0393 76.2238 96.0193L90.9237 108.539L88.4738 117.849" stroke="#3B4A58" stroke-width="1.2" stroke-miterlimit="10"/>
<path d="M94.3654 109.27L144.075 119.8L141.625 138.17L81.1354 129.35C81.1354 129.35 42.6254 103.43 36.3154 89.6405C34.8954 86.5405 36.0754 79.3905 38.5154 74.9805" stroke="#3B4A58" stroke-width="1.2" stroke-miterlimit="10"/>
<path d="M43.1834 141.84L38.5234 168.69L83.3434 171.47L84.8834 160.45" stroke="#3B4A58" stroke-width="1.2" stroke-miterlimit="10"/>
<path d="M85.8753 130.039L82.8753 135.599L78.4453 143.799L88.4853 169.759L105.875 162.169V159.229" stroke="#3B4A58" stroke-width="1.2" stroke-miterlimit="10"/>
<path d="M81.1406 129.35L82.8706 135.6" stroke="#3B4A58" stroke-width="1.2" stroke-miterlimit="10"/>
<path d="M78.4453 62.4902L83.7753 66.4102C83.7753 66.4102 87.3853 68.2802 89.7153 68.6102C94.8153 69.3502 114.805 113.59 114.805 113.59" stroke="#3B4A58" stroke-width="1.2" stroke-miterlimit="10"/>
<path d="M90.9297 74.9805L100.97 95.8005L102.68 111.03" stroke="#3B4A58" stroke-width="1.2" stroke-miterlimit="10"/>
<path d="M92.1647 105.229V90.6591L88.4847 85.7591L90.3247 77.6791L85.0547 72.2891" stroke="#3B4A58" stroke-width="1.2" stroke-miterlimit="10"/>
<path d="M86.3434 145.999C87.7628 145.999 88.9135 144.849 88.9135 143.429C88.9135 142.01 87.7628 140.859 86.3434 140.859C84.9241 140.859 83.7734 142.01 83.7734 143.429C83.7734 144.849 84.9241 145.999 86.3434 145.999Z" stroke="#3B4A58" stroke-width="1.2" stroke-miterlimit="10"/>
<path d="M136.159 132.53C137.644 132.53 138.849 131.326 138.849 129.84C138.849 128.355 137.644 127.15 136.159 127.15C134.673 127.15 133.469 128.355 133.469 129.84C133.469 131.326 134.673 132.53 136.159 132.53Z" stroke="#3B4A58" stroke-width="1.2" stroke-miterlimit="10"/>
<path d="M137.032 122.789L136.492 127.159" stroke="#3B4A58" stroke-width="1.2" stroke-miterlimit="10"/>
<path d="M100.969 132.539V139.539C100.969 139.539 102.849 139.359 105.869 140.869C111.009 143.439 111.009 149.909 111.009 149.909C111.009 149.909 110.029 142.869 111.009 139.539C111.989 136.209 113.479 134.069 113.479 134.069" stroke="#3B4A58" stroke-width="1.2" stroke-miterlimit="10"/>
<path d="M100.969 141.84V146C100.969 146 102.909 147.22 102.669 150.9C102.439 154.57 101.829 156.66 101.829 156.66L104.149 158.99L108.799 156.66L110.999 152.37V149.9" stroke="#3B4A58" stroke-width="1.2" stroke-miterlimit="10"/>
<path d="M51.9948 44.3698C51.9948 44.3698 39.6548 28.5998 49.3048 14.4898C52.4048 9.95978 60.2648 6.79977 69.8448 5.47977C71.8148 5.20977 75.9948 4.93976 75.9948 4.93976L78.4448 8.85977C78.4448 8.85977 79.0848 8.00976 79.6548 5.93976C80.1648 4.08976 79.1848 1.75977 79.1848 1.75977C79.1848 1.75977 84.2948 2.65977 86.7748 7.29977C89.5348 12.4498 87.3948 16.4598 87.3948 16.4598" stroke="#3B4A58" stroke-width="1.2" stroke-miterlimit="10"/>
<path d="M49.3008 29.9191C49.3008 29.9191 47.3408 26.9791 49.3008 21.0991C51.2608 15.2191 55.4208 12.0391 55.4208 12.0391" stroke="#3B4A58" stroke-width="1.2" stroke-miterlimit="10"/>
<path d="M85.0489 19.9707C85.0489 19.9707 83.769 22.6307 80.149 23.0607C72.079 24.0207 60.7889 20.3007 60.7889 20.3007C60.7889 20.3007 61.419 22.0607 59.459 26.3707C57.499 30.6807 56.6389 32.8607 55.4189 33.5907C54.1989 34.3207 51.9189 31.5107 51.3789 34.6907C51.0089 36.8607 52.239 40.6907 53.709 40.9307" stroke="#3B4A58" stroke-width="1.2" stroke-miterlimit="10"/>
<path d="M55.4222 45.3496L53.9922 53.3496" stroke="#3B4A58" stroke-width="1.2" stroke-miterlimit="10"/>
<path d="M86.1622 25.0293C86.1622 25.0293 86.4022 34.8293 85.9222 38.2493C85.3322 42.4193 81.4522 55.0293 81.4522 55.0293C81.4522 55.0293 80.7822 55.6593 80.1622 55.8893C78.3422 56.5593 68.9822 55.5193 66.2422 54.0493" stroke="#3B4A58" stroke-width="1.2" stroke-miterlimit="10"/>
<path d="M82.85 29.0703C82.85 29.0703 81.87 28.9503 79.42 29.8003C76.97 30.6503 78.44 38.2503 78.44 38.2503L79.42 42.5403H75.5" stroke="#3B4A58" stroke-width="1.2" stroke-miterlimit="10"/>
<path d="M63.875 33.1104C63.875 33.1104 64.045 31.7604 67.025 31.4004C70.005 31.0404 71.125 32.2604 71.125 32.2604" stroke="#3B4A58" stroke-width="1.2" stroke-miterlimit="10"/>
<path d="M65.5797 35.7998C65.5797 35.7998 65.4397 34.8198 67.7797 34.5798C70.1197 34.3398 71.1097 35.1898 71.1097 35.1898" stroke="#3B4A58" stroke-width="1.2" stroke-miterlimit="10"/>
<path d="M79.1797 33.47C79.1797 33.47 79.9097 32.42 82.2397 32.21C84.5697 32 85.0597 33.47 85.0597 33.47" stroke="#3B4A58" stroke-width="1.2" stroke-miterlimit="10"/>
<path d="M72.0703 47.4297C72.0703 47.4297 72.7303 48.1597 74.9103 48.5297C77.0903 48.8997 78.4403 48.5297 78.4403 48.5297" stroke="#3B4A58" stroke-width="1.2" stroke-miterlimit="10"/>
<path d="M68.3516 36.6591V34.5391" stroke="#3B4A58" stroke-width="1.2" stroke-miterlimit="10"/>
<path d="M82.8516 34.5407V32.2207" stroke="#3B4A58" stroke-width="1.2" stroke-miterlimit="10"/>
<path d="M143.883 121.27C143.883 121.27 146.103 122 149.223 121.27C152.343 120.54 153.633 117.9 157.033 117.84L169.293 118.88" stroke="#3B4A58" stroke-width="1.2" stroke-miterlimit="10"/>
<path d="M141.531 135.289L145.181 135.599" stroke="#3B4A58" stroke-width="1.2" stroke-miterlimit="10"/>
<path d="M157.672 142.679C159.312 142.679 160.462 141.079 162.222 139.919C162.592 139.679 163.542 139.549 163.902 139.279C164.282 138.989 164.212 138.629 164.392 138.179C164.662 137.489 165.112 138.399 166.062 137.449C166.362 137.149 165.782 136.349 166.432 135.689C166.792 135.319 167.622 135.929 168.282 135.299C169.162 134.449 168.092 134.349 168.822 133.259C169.122 132.819 171.052 132.999 171.372 132.639C172.892 130.919 172.542 131.149 172.542 131.149" stroke="#3B4A58" stroke-width="1.2" stroke-miterlimit="10"/>
<path d="M104.164 158.98L105.994 153.77L106.444 149.9" stroke="#3B4A58" stroke-width="1.2" stroke-miterlimit="10"/>
<path d="M107.234 157.589L108.734 152.779L108.934 150.289" stroke="#3B4A58" stroke-width="1.2" stroke-miterlimit="10"/>
<path d="M42.0625 175.641L43.0625 186.811" stroke="#3B4A58" stroke-width="1.2" stroke-miterlimit="10"/>
<path d="M43.3387 191.889L42.9688 188.539" stroke="#3B4A58" stroke-width="1.2" stroke-miterlimit="10"/>
</svg>
