<svg width="283" height="202" viewBox="0 0 283 202" fill="none" xmlns="http://www.w3.org/2000/svg">
<path d="M186.294 51.8507C184.919 59.71 188.456 68.4534 195.431 72.1866C199.262 74.2496 203.683 74.7408 207.711 76.4109C211.641 78.1792 215.374 81.9124 214.784 86.235C214.391 89.084 211.739 95.2731 219.696 100.382C226.278 104.606 221.956 121.209 199.066 124.942C192.091 126.121 197.199 121.307 190.421 119.146C183.74 116.984 178.14 112.171 174.211 106.374C170.281 100.578 167.923 93.7995 166.352 87.0209C164.485 79.1616 163.699 70.7129 166.745 63.2467C169.79 55.7804 177.748 49.7877 186.294 51.8507Z" fill="#282828"/>
<path d="M197.296 125.629C195.134 125.629 194.643 124.646 194.152 123.271C193.759 121.994 193.268 120.618 190.321 119.636C184.033 117.671 178.139 113.054 173.816 106.668C170.28 101.462 167.725 95.1741 165.859 87.1184C163.501 77.0978 163.599 69.4351 166.252 63.0494C169.199 55.7796 177.353 49.1975 186.391 51.3588C186.686 51.457 186.784 51.6535 186.784 51.9482C185.31 59.9057 189.142 68.2562 195.724 71.7928C197.787 72.8735 200.145 73.5612 202.404 74.2488C204.271 74.7401 206.137 75.3295 207.906 76.1154C211.934 77.8837 215.962 81.8134 215.274 86.4307C215.176 86.8236 215.176 87.2166 215.077 87.7078C214.39 90.9498 213.309 95.8618 219.989 100.086C222.445 101.658 223.526 104.9 222.74 108.535C221.463 114.822 214.488 122.976 199.162 125.53C198.376 125.629 197.787 125.629 197.296 125.629ZM182.854 51.9482C175.683 51.9482 169.592 57.4497 167.136 63.4424C164.582 69.6315 164.483 77.0978 166.743 86.9219C168.609 94.7811 171.164 101.069 174.602 106.079C178.728 112.268 184.426 116.689 190.517 118.654C193.956 119.734 194.545 121.601 195.036 122.878C195.429 124.253 195.724 124.941 198.966 124.45C213.8 122.092 220.481 114.233 221.758 108.24C222.445 104.998 221.561 102.149 219.4 100.774C212.13 96.1565 213.407 90.3603 214.095 87.3148C214.193 86.8236 214.291 86.4307 214.291 86.136C214.881 82.1081 211.246 78.4732 207.513 76.9013C205.744 76.1154 203.878 75.6242 202.11 75.133C199.752 74.4453 197.394 73.7576 195.233 72.677C188.356 69.0421 184.426 60.4951 185.703 52.2429C184.819 52.0465 183.837 51.9482 182.854 51.9482Z" fill="#282828"/>
<path d="M158.785 32.8906C161.142 44.1883 148.371 60.2015 143.754 70.8115C142.28 74.2499 140.021 77.3936 138.842 80.9303C137.368 85.1546 137.368 89.6737 137.761 94.1928C138.547 102.543 141.003 111.188 146.898 117.181C152.792 123.174 162.714 125.826 169.984 121.602C176.37 117.869 179.317 109.911 178.924 102.445C178.531 95.077 175.387 88.1019 172.047 81.5197C164.09 65.703 169.689 46.6443 158.785 32.8906Z" fill="#282828"/>
<path d="M162.027 124.155C156.624 124.155 150.828 121.797 146.702 117.573C141.397 112.17 138.253 104.31 137.369 94.2897C136.878 88.7883 137.27 84.4657 138.548 80.8308C139.235 78.7677 140.316 76.8029 141.397 74.8381C142.084 73.4627 142.87 72.0873 143.558 70.6137C144.933 67.5683 146.898 64.0316 148.961 60.3967C154.168 51.2603 160.062 40.9451 158.49 32.9876C158.49 32.7911 158.589 32.4964 158.785 32.3981C158.982 32.2999 159.276 32.3981 159.375 32.4964C165.466 40.1591 166.448 49.1973 167.43 58.8248C168.216 66.3894 169.1 74.1504 172.637 81.2237C175.879 87.7076 179.121 94.7809 179.612 102.345C180.103 110.696 176.469 118.457 170.476 121.895C167.823 123.467 164.974 124.155 162.027 124.155ZM159.571 34.7559C160.062 42.7134 154.561 52.341 149.649 60.8879C147.586 64.5228 145.523 68.0595 144.246 71.0067C143.558 72.4803 142.87 73.8557 142.084 75.231C141.102 77.0976 140.021 79.0624 139.334 81.0272C138.056 84.5639 137.762 88.69 138.253 94.0933C139.137 103.917 142.183 111.58 147.291 116.787C153.48 123.074 163.108 124.941 169.788 121.109C175.486 117.769 178.925 110.499 178.433 102.444C178.04 95.0757 174.798 88.1006 171.655 81.7149C168.02 74.4451 167.136 66.5859 166.35 58.9231C165.367 50.1797 164.483 41.8292 159.571 34.7559Z" fill="#282828"/>
<path d="M174.311 91.2457C174.114 85.2531 174.213 79.2604 174.409 74.7413C171.953 73.5624 169.399 72.6783 166.648 72.2853C165.469 72.0888 164.094 71.9906 163.111 72.7765C162.522 73.2677 159.771 70.8117 159.477 71.4994C157.512 76.1167 155.547 87.2179 153.582 91.8352C153.386 92.2281 144.249 93.407 144.053 93.8C143.365 95.2736 148.081 101.365 148.572 101.659C173.721 118.36 187.279 93.3088 187.279 93.3088C187.279 93.3088 181.482 92.5229 174.311 91.2457Z" fill="white"/>
<path d="M165.362 107.749C159.959 107.749 154.261 105.785 148.367 101.953C148.072 101.757 142.865 95.371 143.651 93.5045C143.847 93.1115 143.847 93.1115 148.76 92.2273C150.43 91.9326 152.591 91.5396 153.18 91.3432C154.163 89.0836 155.145 85.154 156.029 81.4209C157.012 77.5895 157.994 73.5616 158.977 71.2038C159.075 71.0074 159.173 70.9091 159.369 70.8109C159.861 70.6144 160.45 71.0073 161.433 71.5968C161.826 71.8915 162.611 72.2845 162.808 72.2845C163.889 71.4986 165.46 71.5968 166.639 71.7933C169.39 72.2845 172.043 73.0704 174.499 74.3475C174.695 74.4458 174.793 74.6423 174.793 74.8387C174.499 79.7508 174.499 85.547 174.597 90.852C181.375 92.1291 187.172 92.7185 187.27 92.7185C187.466 92.7185 187.565 92.8168 187.663 93.0133C187.761 93.1115 187.761 93.308 187.663 93.5045C187.565 93.6027 181.67 104.409 170.471 107.16C168.997 107.553 167.229 107.749 165.362 107.749ZM144.633 93.9957C144.535 95.371 148.367 100.578 149.054 101.069C156.619 106.079 163.79 107.749 170.569 106.079C179.705 103.82 185.305 95.8622 186.68 93.5045C184.814 93.308 179.902 92.7185 174.302 91.6379C174.106 91.6379 173.909 91.4414 173.909 91.1467C173.713 85.8417 173.811 79.9473 174.007 74.937C171.65 73.8563 169.194 73.0704 166.738 72.5792C165.755 72.3827 164.478 72.2845 163.594 72.9722C163.004 73.3651 162.218 72.8739 161.138 72.2845C160.745 72.088 160.254 71.7933 160.057 71.695C159.075 73.9546 158.191 77.786 157.208 81.5191C156.226 85.3505 155.243 89.3783 154.261 91.7361C154.065 92.1291 154.065 92.1291 149.152 93.0133C147.384 93.4062 145.223 93.7992 144.633 93.9957Z" fill="#282828"/>
<path d="M151.13 32.6925C149.754 38.194 148.674 43.9902 145.235 48.6075C143.369 51.1617 137.769 65.5049 147.691 74.15C152.898 78.6691 159.971 81.0269 167.732 79.6515C172.939 78.7674 181.29 72.8729 183.353 64.5225C186.496 66.8802 190.819 65.8978 192.194 62.7541C192.98 60.9858 191.801 57.8421 189.64 57.1544C187.97 56.565 187.773 56.565 186.103 56.9579C186.693 52.9301 187.675 48.9022 189.444 44.6779C187.184 38.6852 181.683 33.9696 175.69 30.433C173.725 29.2541 171.662 28.2717 169.402 27.6822C163.115 26.1104 152.603 27.0928 151.13 32.6925Z" fill="white"/>
<path d="M163.405 80.5351C157.511 80.5351 151.911 78.472 147.392 74.5424C137.47 65.8972 142.578 51.4559 144.936 48.4104C147.883 44.3825 149.062 39.4705 150.241 34.6567C150.438 33.969 150.536 33.2813 150.732 32.6919C151.125 31.12 152.206 29.7447 153.876 28.7623C158.002 26.3062 165.075 26.208 169.693 27.3869C172.149 28.0746 174.408 29.2535 176.177 30.2359C181.187 33.0849 187.572 37.9969 190.127 44.6772C190.127 44.7755 190.127 44.972 190.127 45.0702C188.653 48.7051 187.572 52.34 186.885 56.4661C187.965 56.1714 188.457 56.3679 189.93 56.8591C191.011 57.252 191.895 58.1362 192.485 59.4133C193.074 60.6905 193.172 62.1641 192.681 63.1465C192.092 64.7183 190.716 65.799 188.948 66.2902C187.18 66.7814 185.313 66.4867 183.643 65.5043C181.187 73.8547 172.935 79.4544 167.826 80.3386C166.352 80.4368 164.879 80.5351 163.405 80.5351ZM151.616 32.7901C151.42 33.4778 151.322 34.1655 151.125 34.7549C149.946 39.667 148.669 44.7755 145.624 48.9016C144.347 50.6699 137.961 65.0131 147.981 73.7565C153.385 78.472 160.36 80.4368 167.63 79.1597C172.542 78.3738 180.794 72.5776 182.857 64.4236C182.857 64.2271 183.053 64.1289 183.152 64.0307C183.348 63.9324 183.446 64.0307 183.643 64.1289C185.116 65.2095 186.983 65.6025 188.653 65.1113C190.028 64.7183 191.207 63.8342 191.699 62.557C191.993 61.7711 191.895 60.5922 191.502 59.6098C191.011 58.6274 190.323 57.9397 189.537 57.645C187.965 57.0556 187.867 57.0556 186.295 57.4485C186.099 57.4485 186.001 57.4485 185.804 57.3503C185.706 57.252 185.608 57.0556 185.608 56.8591C186.295 52.34 187.376 48.5086 188.948 44.6772C186.492 38.2916 180.303 33.6743 175.489 30.9236C173.819 29.9411 171.657 28.7623 169.3 28.1728C164.977 27.0922 158.199 27.0922 154.269 29.4499C152.894 30.3341 152.009 31.513 151.616 32.7901Z" fill="#282828"/>
<path d="M170.666 64.1291C170.077 64.1291 169.487 64.0308 168.898 63.9326C164.575 62.852 162.021 58.1364 163.298 53.3226C164.477 48.6071 168.996 45.5616 173.319 46.7405C175.382 47.2317 177.15 48.7053 178.231 50.6701C179.312 52.6349 179.508 54.9927 178.919 57.3505C177.838 61.3783 174.301 64.1291 170.666 64.1291ZM171.354 47.5264C168.112 47.5264 165.067 49.9824 164.182 53.6173C163.102 57.8417 165.361 62.066 169.095 62.9502C172.828 63.9326 176.856 61.2801 177.838 57.0558C178.329 54.9927 178.133 52.9297 177.15 51.1613C176.266 49.393 174.694 48.2141 172.926 47.7229C172.435 47.5264 171.943 47.5264 171.354 47.5264Z" fill="#282828"/>
<path d="M149.445 56.8595C148.855 56.8595 148.266 56.7612 147.676 56.663C145.613 56.1718 143.845 54.6982 142.764 52.7334C141.684 50.7685 141.487 48.4108 142.077 46.053C142.666 43.7935 144.041 41.8287 145.908 40.5515C147.775 39.2744 150.034 38.8814 152.097 39.3726C154.16 39.8638 155.928 41.3375 157.009 43.3023C158.09 45.2671 158.286 47.6248 157.697 49.9826C156.616 54.1087 153.178 56.8595 149.445 56.8595ZM150.231 40.2568C148.953 40.2568 147.578 40.6498 146.399 41.4357C144.729 42.5163 143.55 44.2847 142.961 46.3477C142.47 48.4108 142.666 50.4738 143.648 52.2422C144.533 54.0105 146.104 55.1894 147.873 55.6806C151.606 56.663 155.634 54.0105 156.616 49.7861C157.107 47.7231 156.911 45.66 155.928 43.8917C155.044 42.1234 153.472 40.9445 151.704 40.4533C151.311 40.2568 150.722 40.2568 150.231 40.2568Z" fill="#282828"/>
<path d="M195.928 30.8848C203.612 29.1957 208.472 21.5974 206.783 13.9134C205.094 6.22949 197.495 1.36971 189.811 3.05881C182.127 4.7479 177.268 12.3462 178.957 20.0302C180.646 27.7141 188.244 32.5739 195.928 30.8848Z" fill="#282828"/>
<path d="M192.956 31.7107C192.563 31.7107 192.171 31.7107 191.778 31.6125C183.722 30.9248 177.631 23.8515 178.319 15.6975C179.006 7.64175 186.08 1.55083 194.234 2.23852C202.289 2.9262 208.38 9.99953 207.693 18.1535C206.907 25.8163 200.521 31.7107 192.956 31.7107ZM192.858 3.22092C185.785 3.22092 179.792 8.62416 179.203 15.7957C178.613 23.3603 184.213 29.9424 191.778 30.6301C199.342 31.2195 205.924 25.6198 206.612 18.0553C207.201 10.4907 201.602 3.90861 194.037 3.22092C193.644 3.22092 193.251 3.22092 192.858 3.22092Z" fill="#282828"/>
<path d="M185.502 57.3519C184.225 50.7698 183.635 46.2507 185.011 39.4721C169.685 41.9281 157.503 38.3915 145.812 33.2829C146.402 31.1216 148.563 26.8973 150.135 25.3255C154.065 21.4941 158.191 18.4486 166.64 18.0556C172.534 17.7609 179.902 18.9398 185.011 21.887C190.119 24.8343 193.557 29.5498 196.013 34.5601C197.88 38.4897 198.666 44.0894 197.782 49.0014C196.996 53.1276 194.933 55.6818 191.593 58.9238C190.807 58.0396 190.119 57.1554 188.94 56.8607C187.761 56.566 186.779 56.8607 185.502 57.3519Z" fill="#282828"/>
<path d="M191.689 59.3165C191.492 59.3165 191.394 59.2182 191.296 59.12L191.198 59.0218C190.51 58.1376 189.92 57.4499 188.938 57.2534C187.956 57.0569 187.071 57.2534 185.794 57.7446C185.696 57.8429 185.5 57.7446 185.401 57.7446C185.303 57.7446 185.205 57.5481 185.205 57.4499C184.026 51.5555 183.338 46.8399 184.615 40.0613C168.602 42.4191 156.027 38.1947 145.81 33.6757C145.614 33.5774 145.516 33.3809 145.516 33.0862C146.105 30.8267 148.365 26.5041 149.936 24.834C154.259 20.5114 158.68 17.7607 166.736 17.3677C172.041 17.1712 179.703 18.0554 185.401 21.2973C190.019 23.9498 193.752 28.2724 196.601 34.1669C198.566 38.3912 199.253 43.9909 198.369 48.903C197.583 53.422 195.127 56.0745 192.082 59.12C191.885 59.3165 191.787 59.3165 191.689 59.3165ZM188.152 56.271C188.447 56.271 188.742 56.271 189.036 56.3692C190.215 56.5657 191.001 57.3517 191.689 58.1376C194.931 54.8956 196.601 52.6361 197.288 48.903C198.173 44.2856 197.485 38.6859 195.618 34.7563C192.868 29.0583 189.233 24.834 184.812 22.2797C179.31 19.136 171.844 18.2519 166.736 18.4484C158.09 18.8413 153.964 22.1815 150.526 25.6199C149.151 26.9953 147.087 30.8267 146.4 32.988C156.519 37.4088 168.995 41.5349 184.91 38.9806C185.107 38.9806 185.205 38.9806 185.303 39.1771C185.401 39.2754 185.5 39.4718 185.401 39.6683C184.026 46.4469 184.615 51.0643 185.794 56.7622C186.678 56.4675 187.366 56.271 188.152 56.271Z" fill="#282828"/>
<path d="M161.621 70.5151C159.853 70.5151 158.281 69.7292 157.593 68.3538C157.495 68.1573 157.593 67.7643 157.79 67.6661C157.986 67.5679 158.379 67.6661 158.477 67.8626C159.067 68.9432 160.246 69.5327 161.719 69.4344C163.389 69.4344 164.961 68.7468 166.238 67.4696C166.435 67.2731 166.73 67.2731 166.926 67.4696C167.123 67.6661 167.123 67.9608 166.926 68.1573C165.452 69.5327 163.586 70.3186 161.719 70.3186C161.719 70.5151 161.719 70.5151 161.621 70.5151Z" fill="#282828"/>
<path d="M170.559 55.5834C170.755 54.8957 170.264 54.208 169.576 54.0115C168.889 53.815 168.103 54.208 168.005 54.8957C167.808 55.5834 168.299 56.2711 168.987 56.4675C169.675 56.664 170.362 56.2711 170.559 55.5834Z" fill="#282828"/>
<path d="M151.614 49.1967C151.81 48.509 151.319 47.8213 150.631 47.6248C149.943 47.4283 149.158 47.8213 149.059 48.509C148.863 49.1966 149.354 49.8843 150.042 50.0808C150.729 50.2773 151.515 49.8843 151.614 49.1967Z" fill="#282828"/>
<path d="M155.728 59.6106C155.63 59.6106 155.532 59.6106 155.434 59.5123L153.96 58.2352C153.763 58.0387 153.469 57.744 153.469 57.351C153.469 56.7616 153.96 56.4669 154.255 56.3686C156.22 55.1897 157.497 53.1267 157.693 50.9654C157.693 50.6707 157.988 50.4742 158.283 50.5724C158.577 50.5724 158.774 50.8672 158.676 51.1619C158.381 53.7161 156.907 55.9757 154.746 57.351C154.648 57.351 154.549 57.4493 154.451 57.5475C154.451 57.5475 154.549 57.6458 154.648 57.744L156.121 59.0211C156.318 59.2176 156.318 59.5123 156.121 59.7088C156.023 59.5123 155.925 59.6106 155.728 59.6106Z" fill="#282828"/>
<path d="M164.678 50.6712C164.482 50.6712 164.285 50.573 164.285 50.3765C163.499 48.9029 161.928 47.8222 160.257 47.6258C159.373 47.5275 158.391 47.724 158.194 48.4117C158.096 48.7064 157.801 48.8047 157.605 48.7064C157.31 48.6082 157.212 48.3135 157.31 48.117C157.801 46.9381 159.177 46.5451 160.454 46.7416C162.517 47.0363 164.384 48.3135 165.268 50.0818C165.366 50.2783 165.268 50.6712 165.071 50.7695C164.777 50.573 164.678 50.6712 164.678 50.6712Z" fill="#282828"/>
<path d="M185.088 57.252C184.989 57.252 184.989 57.252 184.891 57.252L178.8 54.8942C178.506 54.796 178.407 54.5013 178.506 54.2066C178.604 53.9118 178.899 53.8136 179.193 53.9118L185.284 56.2696C185.579 56.3679 185.677 56.6626 185.579 56.9573C185.481 57.1538 185.284 57.252 185.088 57.252Z" fill="#282828"/>
<path d="M184.512 61.9687C184.414 61.9687 184.414 61.9687 184.316 61.9687C184.021 61.8704 183.923 61.5757 184.021 61.281C184.611 59.8074 184.905 58.1373 184.905 56.5654C184.905 56.2707 185.102 56.0742 185.397 56.0742C185.691 56.0742 185.888 56.2707 185.888 56.5654C185.888 58.3338 185.593 60.1021 184.905 61.6739C184.905 61.7722 184.709 61.9687 184.512 61.9687Z" fill="#282828"/>
<path d="M197.276 143.998C203.269 140.56 213.093 128.28 210.44 118.259C208.967 112.954 206.413 93.8953 178.61 92.127C178.021 100.969 169.376 104.996 163.874 105.684C160.829 106.077 149.531 105.684 149.531 92.5199C142.065 92.9129 132.536 94.0918 117.898 99.888C106.797 104.309 87.9343 107.158 87.9343 107.158C87.9343 107.158 68.8756 82.7941 61.9988 72.7736C58.2656 67.2721 51.487 90.0639 47.2627 80.4363C46.6732 78.9627 66.8126 119.34 68.3844 122.385C76.9314 138.3 116.522 128.28 124.185 128.28C123.399 139.381 128.213 145.963 132.044 149.303C133.223 174.944 126.936 192.725 126.936 192.725C126.936 192.725 162.106 205.791 198.357 194.985C201.206 194.199 191.48 171.8 197.276 143.998Z" fill="#F9B974"/>
<path d="M167.718 199.701C160.645 199.701 154.259 199.111 149.052 198.325C135.888 196.459 126.948 193.119 126.85 193.119C126.555 193.02 126.457 192.726 126.555 192.529C126.653 192.333 132.744 174.649 131.664 149.5C128.323 146.553 123.215 140.069 123.804 128.771C122.233 128.869 119.58 129.262 116.338 129.655C101.897 131.718 75.077 135.648 68.1019 122.582C67.2177 121.01 61.7163 109.909 56.313 99.2005C52.6781 92.029 48.945 84.5627 47.5696 81.812C47.3731 81.5172 47.1766 81.1243 46.9802 80.6331C46.7837 80.2401 47.0784 80.0436 47.1766 79.9454C47.5696 79.7489 47.7661 80.1419 48.0608 80.5348C48.159 80.7313 48.2573 80.9278 48.4538 81.2225C48.8467 81.9102 49.3379 82.2049 49.8291 82.3032C51.401 82.4996 53.464 79.4542 55.3306 76.8017C57.3937 73.8545 59.0638 71.3984 60.8321 71.3984C61.5198 71.3984 62.1092 71.7914 62.6004 72.4791C68.9861 81.812 86.3747 104.113 88.3395 106.569C90.7955 106.176 107.693 103.327 117.91 99.2988C132.45 93.5026 142.175 92.3237 149.642 91.8325C149.74 91.8325 149.936 91.8325 150.035 91.9307C150.133 92.029 150.231 92.1272 150.231 92.3237C150.231 96.6463 151.508 99.8882 153.964 102.05C157.206 104.898 161.824 105.193 164.083 104.899C168.799 104.309 177.837 100.871 178.426 91.8325C178.426 91.7343 178.524 91.5378 178.623 91.5378C178.721 91.4395 178.819 91.4395 179.016 91.4395C205.246 93.1096 209.372 110.203 210.944 116.687C211.042 117.179 211.14 117.572 211.239 117.965C213.989 128.182 204.067 140.462 198.074 144.097C194.341 162.173 197.288 178.284 198.86 186.929C199.843 192.431 200.334 194.887 198.958 195.28C187.759 198.718 177.149 199.701 167.718 199.701ZM127.636 192.431C129.601 193.119 137.755 195.771 149.15 197.441C161.234 199.21 179.605 200.094 198.173 194.592C198.664 194.298 197.976 190.564 197.387 187.322C195.815 178.579 192.769 162.271 196.601 143.9C196.601 143.802 196.699 143.605 196.797 143.605C202.79 140.069 212.221 127.887 209.667 118.456C209.568 118.063 209.47 117.67 209.372 117.08C207.702 110.302 203.87 94.485 178.819 92.6184C177.935 101.951 168.602 105.488 163.69 106.077C163.002 106.176 157.108 106.765 152.785 102.934C150.231 100.674 148.856 97.334 148.757 92.9131C141.389 93.3061 131.958 94.5832 117.812 100.281C106.809 104.702 87.9465 107.551 87.75 107.649C87.5535 107.649 87.3571 107.649 87.2588 107.453C87.0623 107.256 68.1019 82.8926 61.3233 73.0685C60.8321 72.3808 60.5374 72.3808 60.4391 72.3808C59.162 72.3808 57.3937 75.0333 55.7236 77.3911C53.5623 80.5348 51.4992 83.482 49.3379 83.2856C49.2397 83.2856 49.1415 83.2856 49.1415 83.2856C49.5344 84.0715 49.9274 84.8574 50.4186 85.8398C52.1869 89.2782 54.4465 93.8955 56.9025 98.7093C62.011 108.926 67.9054 120.519 68.6913 122.091C75.3717 134.469 101.7 130.638 115.847 128.673C119.482 128.182 122.429 127.69 124.001 127.69C124.099 127.69 124.296 127.789 124.394 127.887C124.492 127.985 124.492 128.083 124.492 128.28C123.706 139.774 129.011 146.16 132.155 148.91C132.253 149.009 132.351 149.107 132.351 149.303C133.628 172.488 128.618 189.385 127.636 192.431Z" fill="#282828"/>
<path d="M66.1289 18.1523L47.3649 38.0952L39.2109 129.459L114.856 137.024L124.877 24.2433L66.1289 18.1523Z" fill="white"/>
<path d="M114.855 137.516L39.21 129.951C38.9152 129.951 38.7188 129.656 38.7188 129.46L46.7745 38.0962C46.7745 37.9979 46.8727 37.8997 46.8727 37.8014L65.6367 17.8586C65.7349 17.7603 65.9314 17.6621 66.0297 17.6621L124.778 23.753C125.072 23.753 125.269 24.0477 125.269 24.2442L115.346 137.025C115.346 137.123 115.248 137.319 115.15 137.319C115.052 137.516 114.953 137.516 114.855 137.516ZM39.7994 128.969L114.462 136.435L124.385 24.6372L66.3244 18.6445L47.8551 38.2926L39.7994 128.969Z" fill="#282828"/>
<path d="M47.375 38.0952L64.3706 39.3723L66.139 18.1523L47.375 38.0952Z" fill="#C47A2C"/>
<path d="M64.4572 39.864C64.359 39.864 64.359 39.864 64.4572 39.864L47.3634 38.5869C47.1669 38.5869 46.9704 38.4886 46.9704 38.2921C46.8721 38.0957 46.9704 37.8992 47.0686 37.8009L65.8326 17.8581C65.9308 17.6616 66.2255 17.6616 66.422 17.7598C66.6185 17.8581 66.7168 18.0546 66.7168 18.251L65.0467 39.471C64.8502 39.6675 64.6537 39.864 64.4572 39.864ZM48.3458 37.7027L63.8678 38.8816L65.4396 19.5282L48.3458 37.7027Z" fill="#282828"/>
<path d="M109.069 39.4711L95.2171 37.9975C95.1188 37.9975 95.0206 37.8993 95.1188 37.801C95.1188 37.7028 95.2171 37.6046 95.3153 37.7028L109.069 39.1764C109.167 39.1764 109.265 39.2747 109.167 39.3729C109.265 39.3729 109.167 39.4711 109.069 39.4711Z" fill="#282828"/>
<path d="M108.665 44.7774L89.1155 42.7143C89.0173 42.7143 88.919 42.6161 89.0173 42.5178C89.0173 42.4196 89.1155 42.3214 89.2137 42.4196L108.665 44.4827C108.764 44.4827 108.862 44.5809 108.764 44.6791C108.764 44.6791 108.764 44.7774 108.665 44.7774Z" fill="#282828"/>
<path d="M106.518 68.2558L58.5764 63.2456C58.4782 63.2456 58.38 63.1473 58.4782 63.0491C58.4782 62.9508 58.5764 62.8526 58.6747 62.9509L106.616 67.9611C106.714 67.9611 106.813 68.0594 106.714 68.1576C106.714 68.1576 106.616 68.2558 106.518 68.2558Z" fill="#282828"/>
<path d="M105.041 85.5469L57.0999 80.5366C57.0016 80.5366 56.9034 80.4384 57.0016 80.3401C57.0016 80.2419 57.0999 80.1436 57.1981 80.2419L105.14 85.2521C105.238 85.2521 105.336 85.3504 105.238 85.4486C105.14 85.5469 105.14 85.5469 105.041 85.5469Z" fill="#282828"/>
<path d="M103.479 102.936L55.5374 97.9253C55.4391 97.9253 55.3409 97.827 55.4391 97.7288C55.4391 97.6305 55.5374 97.5323 55.6356 97.6305L103.577 102.641C103.675 102.641 103.774 102.739 103.675 102.837C103.675 102.837 103.577 102.936 103.479 102.936Z" fill="#282828"/>
<path d="M141.693 105.685C139.139 103.131 136.29 100.773 133.539 94.5842C131.869 90.6546 126.073 81.9112 124.01 80.8306C120.473 79.0622 118.312 77.3921 115.07 76.9992C112.319 76.6062 106.818 77.2939 106.72 78.2763C106.228 81.3217 113.498 79.3569 114.088 79.5534C116.249 80.3393 118.312 81.1253 120.277 83.5813C117.329 83.6795 112.123 84.3672 110.846 85.1531C109.47 86.0373 105.835 90.4581 105.442 91.2441C104.755 92.6194 105.442 93.9948 107.211 92.5212C107.309 92.4229 110.747 89.9669 112.025 88.3951C112.516 87.8056 117.722 87.3144 120.178 87.7074C117.722 86.9215 113.105 87.4127 112.025 88.3951C111.828 88.5916 107.898 92.8159 107.702 93.2089C106.72 94.9772 108.39 95.6649 109.765 94.5842C111.337 93.4054 112.909 91.5388 113.302 91.3423C115.463 90.2616 117.722 90.8511 119.589 91.0476C117.722 90.6546 115.659 90.3599 113.4 91.1458C113.007 91.3423 108.881 94.5842 109.863 96.2543C110.354 97.1385 112.319 96.6473 114.775 93.9948C116.151 94.1913 117.035 94.486 118.214 94.7807C119 94.9772 121.849 101.166 124.992 103.033C125.68 103.426 127.841 108.829 131.673 116.099C132.557 117.671 136.388 120.127 140.613 114.232C142.086 112.464 144.051 108.043 141.693 105.685Z" fill="white"/>
<path d="M134.911 118.85C134.812 118.85 134.714 118.85 134.616 118.85C132.946 118.752 131.571 117.671 131.079 116.688C129.213 113.152 127.739 110.106 126.659 107.847C125.676 105.882 124.792 104.015 124.595 103.819C122.532 102.64 120.666 99.6928 119.29 97.6298C118.799 96.7456 118.112 95.8614 117.915 95.6649C117.522 95.5667 117.129 95.4685 116.834 95.3702C116.245 95.1737 115.656 95.0755 114.87 94.879C113.2 96.6474 111.628 97.6298 110.449 97.5315C109.958 97.5315 109.565 97.2368 109.368 96.9421C109.172 96.6473 109.073 96.2544 109.172 95.8614C108.484 96.1562 107.698 96.0579 107.305 95.6649C107.109 95.4685 106.519 94.7808 107.207 93.5036C106.126 94.2896 105.439 93.8966 105.144 93.7001C104.554 93.2089 104.456 92.2265 104.947 91.3424C105.439 90.4582 109.073 85.9391 110.547 85.055C111.922 84.1708 116.441 83.5813 119.29 83.4831C117.719 81.813 115.95 81.0271 113.985 80.3394C113.789 80.3394 113.298 80.4376 112.807 80.4376C110.252 80.7324 107.796 81.0271 106.716 79.9464C106.421 79.6517 106.126 79.1605 106.323 78.4728C106.617 76.901 112.905 76.4098 115.263 76.8027C117.817 77.1957 119.782 78.1781 122.041 79.4552C122.827 79.8482 123.515 80.2412 124.399 80.7324C126.659 81.9113 132.455 90.6547 134.125 94.6825C136.483 100.086 138.939 102.444 141.296 104.801C141.591 105.096 141.886 105.391 142.181 105.685C144.833 108.338 142.672 112.955 141.1 115.215C138.546 118.064 136.384 118.85 134.911 118.85ZM114.575 93.7984C115.656 93.8966 116.343 94.0931 117.031 94.2896C117.424 94.3878 117.719 94.4861 118.112 94.5843C118.603 94.6825 118.996 95.3702 120.076 96.9421C121.354 98.9069 123.122 101.756 125.087 102.837C125.578 103.131 126.069 104.114 127.543 107.356C128.623 109.615 130.097 112.661 131.963 116.197C132.258 116.787 133.241 117.671 134.714 117.769C135.991 117.867 137.956 117.278 140.117 114.232C141.493 112.366 143.556 108.142 141.395 105.98C141.1 105.685 140.805 105.391 140.51 105.096C138.153 102.837 135.598 100.282 133.142 94.6825C131.374 90.6547 125.676 82.206 123.81 81.2236C122.925 80.7324 122.139 80.3394 121.354 79.9464C119.094 78.7675 117.326 77.7851 114.968 77.3922C112.217 76.9992 107.6 77.7851 107.109 78.3746C107.109 78.7676 107.207 78.8658 107.305 78.964C108.091 79.75 111.136 79.357 112.61 79.1605C113.592 79.0623 113.985 78.964 114.28 79.0623C116.54 79.8482 118.701 80.7324 120.666 83.2866C120.764 83.3849 120.764 83.6796 120.764 83.7778C120.666 83.9743 120.568 84.0726 120.371 84.0726C117.129 84.1708 112.217 84.8585 111.136 85.6444C109.859 86.4303 106.323 90.7529 105.93 91.5388C105.635 92.1283 105.733 92.6195 105.831 92.7177C105.93 92.816 106.323 92.7177 106.912 92.2265C106.912 92.2265 107.01 92.1283 107.109 92.1283C108.975 90.7529 110.154 89.8687 110.842 89.1811C111.333 88.6899 111.628 88.2969 111.726 88.1987C113.003 87.0198 117.915 86.6268 120.371 87.4127C120.666 87.511 120.764 87.7075 120.666 88.0022C120.568 88.2969 120.371 88.3951 120.076 88.3951C117.719 87.9039 112.905 88.4934 112.414 88.8863C112.217 89.0828 111.922 89.4758 111.529 89.8687C110.351 91.1459 108.386 93.4054 108.189 93.7001C107.895 94.1913 107.895 94.5843 108.091 94.6825C108.386 94.879 108.975 94.879 109.565 94.3878C109.761 94.1913 109.958 94.0931 110.252 93.8966C111.333 92.423 113.101 91.1459 113.396 90.9494C113.789 90.8512 114.084 90.7529 114.477 90.6547C115.066 90.4582 115.754 90.4582 116.343 90.4582C117.719 90.4582 118.897 90.6547 119.88 90.8512C120.175 90.9494 120.273 91.1459 120.273 91.4406C120.273 91.7353 119.978 91.9318 119.683 91.8336C119.389 91.8336 118.996 91.7353 118.701 91.7353C117.915 91.6371 117.031 91.4406 116.147 91.5388C115.656 91.5388 115.164 91.6371 114.673 91.7353C114.28 91.8336 113.985 91.9318 113.592 92.1283C113.494 92.2265 113.003 92.6195 112.708 93.0124C112.217 93.5036 111.529 94.1913 110.842 94.7808C110.547 95.1737 110.351 95.4685 110.252 95.7632C110.154 96.0579 110.154 96.2544 110.252 96.4509C110.252 96.4509 110.351 96.5491 110.547 96.6473C111.235 96.7456 112.61 96.0579 114.28 94.1913C114.28 93.8966 114.477 93.7984 114.575 93.7984Z" fill="#282828"/>
<path d="M34.7036 83.7787C33.9176 79.5544 35.9807 71.6951 37.6508 70.1233C40.598 67.4708 42.1698 65.3095 45.3136 64.0324C47.8678 62.9517 53.3693 62.1658 53.7623 63.0499C55.0394 65.8007 47.5731 65.8989 46.9836 66.2919C45.1171 67.569 43.3487 68.9444 42.0716 71.7934C44.9206 71.1057 50.1274 70.418 51.601 70.811C53.1728 71.3022 57.7901 74.6423 58.4778 75.33C59.5585 76.5089 59.1655 77.9825 57.1024 77.0001C57.0042 76.9019 52.9763 75.5265 51.3062 74.3476C50.6186 73.8564 45.51 74.8388 43.3487 75.9195C45.51 74.4459 50.1273 73.7582 51.4045 74.4459C51.6992 74.6424 56.513 77.5896 56.906 77.9825C58.3796 79.4561 56.906 80.5368 55.2359 79.9473C53.4675 79.2597 51.4045 77.8843 50.9133 77.786C48.4572 77.2948 46.4924 78.4737 44.7241 79.2597C46.3942 78.4737 48.359 77.4913 50.7168 77.786C51.1097 77.786 56.0218 79.9473 55.5306 81.7157C55.2359 82.6981 53.271 82.7963 50.2256 80.8315C48.9485 81.421 48.2608 81.9122 47.1801 82.5016C46.3942 82.8946 45.4118 89.6732 42.7593 92.2274C42.2681 92.7186 41.7769 97.5324 41.2857 101.953C40.8927 106.767 35.5877 88.2978 34.7036 83.7787Z" fill="white"/>
<path d="M40.9893 103.131C40.498 103.131 39.6139 102.738 37.1579 94.8792C35.7825 90.4584 34.6036 85.8411 34.2106 83.8763C33.3265 79.5537 35.3895 71.498 37.3544 69.8279C38.042 69.1402 38.7297 68.5507 39.3192 67.9613C41.1857 66.193 42.7576 64.6211 45.1154 63.6387C47.3749 62.6563 53.5641 61.4774 54.1535 62.951C54.4482 63.6387 54.35 64.2282 54.1535 64.5229C53.4658 65.8 50.9116 66.2912 48.3573 66.5859C47.8661 66.6842 47.2767 66.6842 47.1784 66.7824C45.5083 67.9613 44.0347 69.1402 42.9541 71.2032C45.7048 70.6138 50.2239 70.0244 51.7957 70.4173C53.4658 70.9085 58.1814 74.3469 58.8691 75.0346C59.5567 75.8205 59.7532 76.803 59.3603 77.3924C59.1638 77.6871 58.5743 78.1783 57.3954 77.6871C58.3778 78.7678 57.9849 79.5537 57.7884 79.7502C57.3954 80.2414 56.806 80.5361 56.0201 80.4379C56.2166 80.8308 56.2165 81.2238 56.1183 81.6168C56.0201 82.0097 55.7254 82.3044 55.2341 82.5009C54.1535 82.8939 52.2869 82.4027 50.2239 81.1256C49.5362 81.4203 48.9467 81.8132 48.4555 82.108C48.1608 82.3044 47.8661 82.5009 47.4731 82.6974C47.2766 82.8939 46.9819 83.9745 46.6872 84.9569C45.9013 87.413 44.9189 90.6549 43.1505 92.4232C42.7576 92.9144 42.3646 97.0405 42.0699 100.086C41.9716 100.675 41.9717 101.265 41.8734 101.854C41.8734 102.149 41.7752 103.131 40.9893 103.131C41.0875 103.131 41.0875 103.131 40.9893 103.131ZM52.2869 63.1475C50.6168 63.1475 47.4731 63.6387 45.5083 64.4246C43.2488 65.407 41.7752 66.7824 40.0068 68.5507C39.4174 69.1402 38.7297 69.7296 38.042 70.4173C36.4702 71.7927 34.4071 79.4555 35.193 83.5816C35.979 87.8059 39.5156 99.693 40.891 101.756C40.891 101.756 40.891 101.658 40.891 101.56C40.9892 100.97 40.9892 100.381 41.0875 99.7913C41.6769 94.388 41.9717 92.0303 42.4629 91.5391C44.0347 89.9672 45.0171 86.7253 45.7048 84.564C46.2943 82.6974 46.4907 82.0097 46.9819 81.715C47.3749 81.5185 47.6696 81.322 47.9643 81.1256C48.5538 80.7326 49.2415 80.3396 50.1256 79.9467C50.3221 79.8484 50.4204 79.8484 50.6168 79.9467C52.7781 81.322 54.35 81.6168 54.9394 81.322C55.1359 81.2238 55.1359 81.1256 55.1359 81.1256C55.1359 80.9291 55.1359 80.7326 54.9394 80.5361C54.7429 80.2414 54.4482 79.9467 54.1535 79.6519C53.3676 79.259 52.5816 78.866 51.9922 78.473C51.501 78.1783 51.0098 77.8836 50.9116 77.8836C50.5186 77.7854 50.1256 77.7854 49.7327 77.7854C49.2415 77.7854 48.8485 77.8836 48.3573 77.9818C47.5714 78.1783 46.7854 78.5713 45.9995 78.866C45.7048 78.9643 45.4101 79.1607 45.1154 79.259C44.8206 79.3572 44.6242 79.259 44.4277 78.9642C44.3294 78.7678 44.4277 78.473 44.6242 78.2766C45.5083 77.7854 46.6872 77.2942 47.9643 76.9012C48.5538 76.7047 49.1432 76.6065 49.8309 76.6065C50.2239 76.6065 50.5186 76.6065 50.9116 76.6065C51.3045 76.6065 53.2693 77.4906 54.7429 78.5713C55.0377 78.6695 55.2342 78.7678 55.5289 78.866C56.2166 79.1607 56.806 78.9643 57.0025 78.6695C57.1007 78.4731 57.0025 78.0801 56.6095 77.6871C56.3148 77.4906 53.8588 75.8206 52.3852 74.9364C51.7957 74.6417 51.501 74.4452 51.2063 74.2487H51.108C50.2239 74.0522 45.803 74.8381 43.74 75.8205C43.5435 75.9188 43.2488 75.8206 43.0523 75.6241C42.9541 75.4276 42.9541 75.1329 43.2488 74.9364C45.4101 73.4628 50.2239 72.5786 51.7957 73.3645C51.894 73.3645 52.2869 73.6593 52.8764 74.0522C53.7605 74.5434 55.1359 75.1329 57.2972 75.9188C57.3954 75.9188 57.4937 76.017 57.4937 76.017C58.1814 76.3117 58.5743 76.3118 58.6726 76.2135C58.7708 76.017 58.6726 75.6241 58.2796 75.1329C57.6902 74.4452 53.0728 71.2032 51.6975 70.8103C50.4203 70.4173 45.6066 71.0068 42.3646 71.7927C42.1681 71.7927 41.9717 71.7927 41.8734 71.5962C41.7752 71.498 41.6769 71.3015 41.7752 71.105C42.9541 68.1578 44.8206 66.6842 46.7854 65.407C46.9819 65.2106 47.3749 65.2106 48.3573 65.1123C49.8309 64.9158 52.8764 64.5229 53.3676 63.5405C53.4658 63.4422 53.4658 63.2458 53.3676 62.951C53.1711 63.2458 52.8764 63.1475 52.2869 63.1475Z" fill="#282828"/>
<path d="M168.905 129.853C167.529 129.657 147.095 111.679 141.397 106.079C141.201 105.883 141.201 105.588 141.397 105.392C141.594 105.195 141.889 105.195 142.085 105.392C148.962 112.072 167.333 128.085 169.003 128.969C170.968 128.773 188.258 115.609 194.84 110.598C195.037 110.402 195.331 110.5 195.528 110.696C195.724 110.893 195.626 111.188 195.43 111.384C177.746 124.745 170.477 129.853 168.905 129.853Z" fill="#282828"/>
<path d="M165.753 160.307C164.673 160.307 163.788 160.209 163.003 159.914C157.01 157.949 138.541 132.308 132.45 123.86L131.762 122.877C130.288 120.814 128.717 116.393 129.994 113.937C130.092 113.643 130.387 113.544 130.681 113.741C130.976 113.839 131.074 114.134 130.878 114.429C129.895 116.492 131.271 120.421 132.646 122.386L133.334 123.368C149.544 145.767 159.662 157.851 163.395 159.03C169.29 160.995 181.766 155.002 200.629 141.15C200.825 140.954 201.12 141.052 201.316 141.248C201.513 141.445 201.415 141.739 201.218 141.936C184.222 154.314 172.63 160.307 165.753 160.307Z" fill="#282828"/>
<path d="M135.001 122.19C134.903 122.19 134.805 122.092 134.805 122.092C134.805 121.993 134.903 121.895 134.903 121.895C138.341 121.404 140.896 118.751 143.45 115.804C143.548 115.706 143.646 115.706 143.646 115.804C143.745 115.902 143.745 116.001 143.646 116.001C141.19 119.046 138.538 121.699 135.001 122.19Z" fill="#282828"/>
<path d="M136.986 124.842C136.887 124.842 136.887 124.743 136.789 124.743C136.789 124.645 136.789 124.547 136.887 124.547C138.361 124.252 139.638 123.564 140.719 122.484C140.817 122.386 140.915 122.386 140.915 122.484C141.013 122.582 141.013 122.68 140.915 122.68C139.835 123.761 138.459 124.449 136.986 124.842Z" fill="#282828"/>
<path d="M168.5 194.003C151.308 194.003 136.179 190.86 130.481 189.484C130.383 189.484 130.383 189.386 130.383 189.288C130.383 189.189 130.481 189.189 130.579 189.189C139.126 191.253 169.09 197.442 195.025 190.663C195.123 190.663 195.222 190.663 195.222 190.761C195.222 190.86 195.222 190.958 195.123 190.958C186.38 193.217 177.145 194.003 168.5 194.003Z" fill="#282828"/>
<path d="M124.012 129.263C123.914 129.263 123.914 129.263 123.816 129.263C123.521 129.165 123.423 128.87 123.521 128.575L127.058 119.439C127.156 119.144 127.451 119.046 127.746 119.144C128.04 119.243 128.139 119.537 128.04 119.832L124.504 128.968C124.405 129.165 124.209 129.263 124.012 129.263Z" fill="#282828"/>
<path d="M245.641 165.059L266.241 126.459L274.441 130.859L253.941 169.459L246.541 172.959L245.641 165.059Z" fill="white"/>
<path d="M246.541 173.459C246.441 173.459 246.341 173.459 246.341 173.359C246.241 173.259 246.141 173.159 246.041 172.959L245.141 165.059C245.141 164.959 245.141 164.859 245.241 164.759L265.841 126.159C265.941 126.059 266.041 125.959 266.141 125.959C266.241 125.959 266.441 125.959 266.541 125.959L274.841 130.359C275.041 130.459 275.141 130.759 275.041 131.059L254.441 169.659C254.341 169.759 254.341 169.859 254.241 169.859L246.841 173.359C246.641 173.459 246.641 173.459 246.541 173.459ZM246.141 165.159L246.941 172.259L253.541 169.159L273.841 131.159L266.441 127.259L246.141 165.159Z" fill="#282828"/>
<path d="M253.736 169.66C253.636 169.66 253.536 169.66 253.536 169.56L245.536 165.26C245.336 165.16 245.236 164.86 245.336 164.56C245.436 164.36 245.736 164.26 246.036 164.36L254.036 168.66C254.236 168.76 254.336 169.06 254.236 169.36C254.036 169.56 253.936 169.66 253.736 169.66Z" fill="#282828"/>
<path d="M245.439 175.46C245.339 175.46 245.239 175.46 245.239 175.36C245.039 175.26 244.939 174.96 245.039 174.66L246.139 172.56C246.239 172.36 246.539 172.26 246.839 172.36C247.039 172.46 247.139 172.76 247.039 173.06L245.939 175.16C245.839 175.36 245.639 175.46 245.439 175.46Z" fill="#282828"/>
<path d="M271.217 120L267.359 127.236L273.272 130.388L277.129 123.152L271.217 120Z" fill="#282828"/>
<path d="M87.5 151.8C87.5 151.1 88.1 150.5 88.8 150.5C89.5 150.5 90.1 151.1 90.1 151.8C90.1 152.5 89.5 153.1 88.8 153.1C88.1 153.1 87.5 152.5 87.5 151.8Z" fill="#282828"/>
<path d="M88.8 153.6C87.8 153.6 87 152.8 87 151.8C87 150.8 87.8 150 88.8 150C89.8 150 90.6 150.8 90.6 151.8C90.7 152.8 89.9 153.6 88.8 153.6ZM88.8 151C88.3 151 88 151.4 88 151.8C88 152.3 88.4 152.6 88.8 152.6C89.3 152.6 89.6 152.2 89.6 151.8C89.7 151.3 89.3 151 88.8 151Z" fill="#282828"/>
<path d="M115.398 151.8C115.398 151.1 115.998 150.5 116.698 150.5C117.398 150.5 117.998 151.1 117.998 151.8C117.998 152.5 117.398 153.1 116.698 153.1C116.098 153.1 115.398 152.5 115.398 151.8Z" fill="#282828"/>
<path d="M116.8 153.6C115.8 153.6 115 152.8 115 151.8C115 150.8 115.8 150 116.8 150C117.8 150 118.6 150.8 118.6 151.8C118.6 152.8 117.8 153.6 116.8 153.6ZM116.8 151C116.3 151 116 151.4 116 151.8C116 152.3 116.4 152.6 116.8 152.6C117.2 152.6 117.6 152.2 117.6 151.8C117.6 151.3 117.3 151 116.8 151Z" fill="#282828"/>
<path d="M101.5 151.8C101.5 151.1 102.1 150.5 102.8 150.5C103.5 150.5 104.1 151.1 104.1 151.8C104.1 152.5 103.5 153.1 102.8 153.1C102.1 153.1 101.5 152.5 101.5 151.8Z" fill="#282828"/>
<path d="M102.8 153.6C101.8 153.6 101 152.8 101 151.8C101 150.8 101.8 150 102.8 150C103.8 150 104.6 150.8 104.6 151.8C104.7 152.8 103.8 153.6 102.8 153.6ZM102.8 151C102.3 151 102 151.4 102 151.8C102 152.3 102.4 152.6 102.8 152.6C103.3 152.6 103.6 152.2 103.6 151.8C103.7 151.3 103.3 151 102.8 151Z" fill="#282828"/>
<path d="M247.134 88.1666C246.934 88.198 246.78 88.0859 246.749 87.8863C246.718 87.6867 246.83 87.5327 247.029 87.5013L282.146 81.9127L275.317 38.4692C275.286 38.2696 275.398 38.1156 275.597 38.0843C275.797 38.0529 275.951 38.165 275.982 38.3646L282.864 82.1408C282.895 82.3404 282.783 82.4943 282.584 82.5257L247.134 88.1666Z" fill="#282828"/>
<path d="M243.378 39.124L236.922 48.7969L242.538 84.523L277.389 78.9762L270.455 34.8674L243.378 39.124Z" fill="white"/>
<path d="M242.593 84.8567C242.526 84.8672 242.383 84.8215 242.316 84.832C242.239 84.7759 242.229 84.7094 242.208 84.5763L236.591 48.8502C236.581 48.7837 236.571 48.7171 236.627 48.6402L243.082 38.9673C243.138 38.8903 243.194 38.8133 243.327 38.7924L270.471 34.5254C270.671 34.494 270.825 34.6061 270.856 34.8057L277.79 78.9145C277.822 79.1141 277.71 79.2681 277.51 79.2995L242.593 84.8567ZM237.278 48.8787L242.821 84.1391L277.073 78.6865L270.243 35.2429L243.632 39.4263L237.278 48.8787Z" fill="#282828"/>
<path d="M236.914 48.8008L244.744 47.4336L243.37 39.1279L236.914 48.8008Z" fill="#F9B974"/>
<path d="M236.983 49.1986C236.85 49.2195 236.707 49.1739 236.619 49.0513C236.532 48.9287 236.577 48.7852 236.633 48.7082L243.079 38.9688C243.124 38.8253 243.324 38.794 243.457 38.773C243.6 38.8186 243.688 38.9412 243.709 39.0743L245.083 47.38C245.114 47.5796 245.002 47.7335 244.802 47.7649L236.983 49.1986ZM243.179 40.0438L237.666 48.3413L244.365 47.1519L243.179 40.0438Z" fill="#282828"/>
<path d="M264.898 42.4912L258.511 43.4952C258.444 43.5057 258.367 43.4496 258.357 43.3831C258.346 43.3165 258.402 43.2395 258.469 43.2291L264.856 42.2251C264.922 42.2146 264.999 42.2707 265.01 42.3372C265.02 42.4037 264.964 42.4807 264.898 42.4912Z" fill="#282828"/>
<path d="M265.211 44.554L256.23 45.9659C256.163 45.9764 256.086 45.9203 256.076 45.8538C256.065 45.7872 256.121 45.7102 256.188 45.6998L265.169 44.2879C265.236 44.2774 265.313 44.3335 265.323 44.4C265.334 44.4666 265.278 44.5435 265.211 44.554Z" fill="#282828"/>
<path d="M266.669 53.7359L244.581 57.2081C244.515 57.2185 244.438 57.1625 244.427 57.0959C244.417 57.0294 244.473 56.9524 244.539 56.942L266.627 53.4698C266.694 53.4593 266.77 53.5154 266.781 53.5819C266.791 53.6484 266.735 53.7254 266.669 53.7359Z" fill="#282828"/>
<path d="M267.731 60.521L245.644 63.9932C245.577 64.0037 245.5 63.9476 245.49 63.8811C245.479 63.8146 245.535 63.7376 245.602 63.7271L267.689 60.2549C267.756 60.2445 267.833 60.3005 267.843 60.3671C267.854 60.4336 267.798 60.5106 267.731 60.521Z" fill="#282828"/>
<path d="M268.809 67.3081L246.722 70.7804C246.655 70.7908 246.578 70.7347 246.568 70.6682C246.557 70.6017 246.613 70.5247 246.68 70.5142L268.768 67.042C268.834 67.0316 268.911 67.0876 268.922 67.1542C268.932 67.2207 268.876 67.2977 268.809 67.3081Z" fill="#282828"/>
<g clip-path="url(#clip0_6783_74377)">
<path d="M65.6473 169.555L56.5391 201.438L17.3034 199.819L12.5391 169.414L65.6473 169.555Z" fill="#C47A2C"/>
<path d="M56.5378 201.79L17.3022 200.241C17.162 200.241 17.0219 200.101 16.9518 199.96L12.1875 169.485C12.1875 169.414 12.1875 169.274 12.2576 169.203C12.3276 169.133 12.3977 169.062 12.5378 169.062L65.6461 169.203C65.7862 169.203 65.8563 169.274 65.9263 169.344C65.9964 169.414 65.9964 169.555 65.9964 169.626L56.8181 201.508C56.8181 201.649 56.6779 201.79 56.5378 201.79ZM17.5824 199.467L56.2576 201.016L65.1557 169.907L12.8881 169.766L17.5824 199.467Z" fill="#282828"/>
<path d="M56.7542 154.352L56.1237 201.648L14.1555 201.507L13.9453 154.352H56.7542Z" fill="white"/>
<path d="M56.1227 202L14.1545 201.859C13.9443 201.859 13.8042 201.718 13.8042 201.507L13.6641 154.352C13.6641 154.282 13.7341 154.141 13.7341 154.07C13.8042 154.07 13.8743 154 13.9443 154H56.7532C56.8233 154 56.9634 154.07 57.0335 154.141C57.1036 154.211 57.1036 154.282 57.1036 154.422L56.473 201.718C56.473 201.859 56.3329 202 56.1227 202ZM14.5048 201.155L55.7723 201.226L56.4029 154.704H14.3647L14.5048 201.155Z" fill="#282828"/>
<path d="M49.1893 173.496H32.2339C32.1638 173.496 32.0938 173.426 32.0938 173.356C32.0938 173.285 32.1638 173.215 32.2339 173.215H49.2594C49.3294 173.215 49.3995 173.285 49.3995 173.356C49.3294 173.426 49.2594 173.496 49.1893 173.496Z" fill="#282828"/>
<path d="M49.1887 180.744H34.2651C34.1951 180.744 34.125 180.674 34.125 180.604C34.125 180.533 34.1951 180.463 34.2651 180.463H49.1887C49.2588 180.463 49.3288 180.533 49.3288 180.604C49.3288 180.674 49.2588 180.744 49.1887 180.744Z" fill="#282828"/>
<path d="M49.1887 188.065H34.2651C34.1951 188.065 34.125 187.994 34.125 187.924C34.125 187.854 34.1951 187.783 34.2651 187.783H49.1887C49.2588 187.783 49.3288 187.854 49.3288 187.924C49.3288 187.994 49.2588 188.065 49.1887 188.065Z" fill="#282828"/>
<path d="M18.428 162.797L24.9439 169.624L49.5363 169.272L56.1223 201.647L8.26876 201.507L0.351562 162.727L18.428 162.797Z" fill="white"/>
<path d="M56.121 202L8.26752 201.859C8.12739 201.859 7.98726 201.718 7.9172 201.577L0 162.797C0 162.727 0 162.586 0.0700637 162.516C0.140127 162.445 0.210191 162.375 0.350318 162.375L18.4968 162.445C18.5669 162.445 18.707 162.516 18.7771 162.586L25.1529 169.272L49.6051 168.92C49.7452 168.92 49.8854 169.061 49.9554 169.202L56.5414 201.577C56.5414 201.648 56.5414 201.788 56.4713 201.859C56.3312 201.929 56.2612 202 56.121 202ZM8.54777 201.155L55.7006 201.296L49.2548 169.624L24.9427 169.906C24.8726 169.906 24.7325 169.835 24.6624 169.765L18.2866 163.149L0.770701 163.079L8.54777 201.155Z" fill="#282828"/>
<path d="M48.274 162.235H24.3823C24.3123 162.235 24.2422 162.164 24.2422 162.094C24.2422 162.024 24.3123 161.953 24.3823 161.953H48.274C48.3441 161.953 48.4142 162.024 48.4142 162.094C48.4142 162.164 48.3441 162.235 48.274 162.235Z" fill="#282828"/>
<path d="M48.274 165.895H35.3823C35.3123 165.895 35.2422 165.824 35.2422 165.754C35.2422 165.684 35.3123 165.613 35.3823 165.613H48.274C48.3441 165.613 48.4142 165.684 48.4142 165.754C48.4142 165.824 48.3441 165.895 48.274 165.895Z" fill="#282828"/>
</g>
<defs>
<clipPath id="clip0_6783_74377">
<rect width="66" height="48" fill="white" transform="translate(0 154)"/>
</clipPath>
</defs>
</svg>
