<svg width="370" height="208" viewBox="0 0 370 208" fill="none" xmlns="http://www.w3.org/2000/svg">
<path d="M170.969 121.869H204.989" stroke="#3B4A58" stroke-width="1.2" stroke-miterlimit="10"/>
<path d="M216.414 100.42H248.754" stroke="#3B4A58" stroke-width="1.2" stroke-miterlimit="10"/>
<path d="M217.305 108.93H247.385" stroke="#3B4A58" stroke-width="1.2" stroke-miterlimit="10"/>
<path d="M217.789 128.34H247.879" stroke="#3B4A58" stroke-width="1.2" stroke-miterlimit="10"/>
<path d="M216.414 121.869H248.754" stroke="#3B4A58" stroke-width="1.2" stroke-miterlimit="10"/>
<path d="M216.414 134.811H248.754" stroke="#3B4A58" stroke-width="1.2" stroke-miterlimit="10"/>
<path d="M163.868 94.0293H157.508V155.109H200.838C200.838 155.109 205.078 158.559 209.268 158.559C214.398 158.559 218.438 154.959 218.438 154.959H256.298" stroke="#3B4A58" stroke-width="1.2" stroke-miterlimit="10"/>
<path d="M163.869 87.2399V145.97H194.429C194.429 145.97 197.969 145.63 202.109 147.16C206.249 148.69 209.419 152.48 209.419 152.48C209.419 152.48 211.209 150.25 214.799 148.01C218.389 145.77 222.819 145.77 222.819 145.77H255.259V87.2399H223.609C223.609 87.2399 218.899 87.0199 215.249 88.7399C212.599 89.9899 209.559 92.6599 209.559 92.6599C209.559 92.6599 207.129 89.9799 203.839 88.4499C200.549 86.9199 195.409 87.1199 195.409 87.1199L163.859 87.2399H163.869Z" stroke="#3B4A58" stroke-width="1.2" stroke-miterlimit="10"/>
<path d="M209.57 152.05V92.6602" stroke="#3B4A58" stroke-width="1.2" stroke-miterlimit="10"/>
<path d="M188.468 96.1309H203.998V114.181H172.938V96.1309H178.098" stroke="#3B4A58" stroke-width="1.2" stroke-miterlimit="10"/>
<path d="M204.01 128.67H172.43V135.62H204.01V128.67Z" stroke="#3B4A58" stroke-width="1.2" stroke-miterlimit="10"/>
<path d="M188.779 106.95L183.899 102.54L177.719 106.95V87.7695H188.779V106.95Z" fill="#F9B974"/>
<path d="M178.102 87.7695V106.44L183.612 102.91L188.392 106.44V87.7695" stroke="#C47A2C" stroke-width="1.2" stroke-miterlimit="10"/>
<path d="M258.28 45.3613H247.82V58.1513H258.28V45.3613Z" fill="#F9B974"/>
<path d="M258.28 63.1816H247.82V75.9716H258.28V63.1816Z" fill="#F9B974"/>
<path d="M249.773 51.141L252.593 55.251L256.333 50.041" stroke="#C47A2C" stroke-width="1.2" stroke-miterlimit="10"/>
<path d="M249.773 68.0707L252.593 72.1807L256.333 66.9707" stroke="#C47A2C" stroke-width="1.2" stroke-miterlimit="10"/>
<path d="M242.367 79.4507V37.9707H274.957L285.817 49.2707V101.181H265.327" stroke="#3B4A58" stroke-width="1.2" stroke-miterlimit="10"/>
<path d="M274.961 37.9707L274.711 49.3307L285.821 49.2707" stroke="#3B4A58" stroke-width="1.2" stroke-miterlimit="10"/>
<path d="M263.109 49.3301H268.539" stroke="#3B4A58" stroke-width="1.2" stroke-miterlimit="10"/>
<path d="M263.109 56.9004H276.939" stroke="#3B4A58" stroke-width="1.2" stroke-miterlimit="10"/>
<path d="M263.109 72.291H276.939" stroke="#3B4A58" stroke-width="1.2" stroke-miterlimit="10"/>
<path d="M263.109 86.6914H276.939" stroke="#3B4A58" stroke-width="1.2" stroke-miterlimit="10"/>
<path d="M263.109 66.4199H276.939" stroke="#3B4A58" stroke-width="1.2" stroke-miterlimit="10"/>
<path d="M263.109 80.9316H276.939" stroke="#3B4A58" stroke-width="1.2" stroke-miterlimit="10"/>
<path d="M257.776 182.78C263.266 182.78 267.716 178.33 267.716 172.84C267.716 167.351 263.266 162.9 257.776 162.9C252.286 162.9 247.836 167.351 247.836 172.84C247.836 178.33 252.286 182.78 257.776 182.78Z" fill="#F9B974"/>
<path d="M257.778 185.731C264.892 185.731 270.658 179.964 270.658 172.851C270.658 165.737 264.892 159.971 257.778 159.971C250.665 159.971 244.898 165.737 244.898 172.851C244.898 179.964 250.665 185.731 257.778 185.731Z" stroke="#C47A2C" stroke-width="1.2" stroke-miterlimit="10"/>
<path d="M257.776 182.79C263.266 182.79 267.716 178.34 267.716 172.85C267.716 167.36 263.266 162.91 257.776 162.91C252.286 162.91 247.836 167.36 247.836 172.85C247.836 178.34 252.286 182.79 257.776 182.79Z" stroke="#C47A2C" stroke-width="1.2" stroke-miterlimit="10"/>
<path d="M278.348 139.08C280.469 139.08 282.188 137.361 282.188 135.24C282.188 133.12 280.469 131.4 278.348 131.4C276.227 131.4 274.508 133.12 274.508 135.24C274.508 137.361 276.227 139.08 278.348 139.08Z" stroke="#3B4A58" stroke-width="1.2" stroke-miterlimit="10"/>
<path d="M282.906 131.94C283.486 131.6 284.156 131.4 284.876 131.4C286.996 131.4 288.716 133.12 288.716 135.24C288.716 137.36 286.996 139.08 284.876 139.08C284.296 139.08 283.746 138.95 283.256 138.72" stroke="#3B4A58" stroke-width="1.2" stroke-miterlimit="10"/>
<path d="M261.711 146.98V142.57H301.001V146.98" stroke="#3B4A58" stroke-width="1.2" stroke-miterlimit="10"/>
<path d="M270.664 174.35C270.664 174.35 272.224 175.62 274.514 176.21C290.244 180.31 295.434 169.23 295.434 169.23" stroke="#3B4A58" stroke-width="1.2" stroke-miterlimit="10"/>
<path d="M295.43 166.17V162.6" stroke="#3B4A58" stroke-width="1.2" stroke-miterlimit="10"/>
<path d="M269.211 178.77C272.951 181.1 277.121 181.93 281.811 181.93C290.811 181.93 298.411 176.02 300.771 167.96C301.531 165.36 301.551 162.61 300.981 159.96C300.981 159.94 300.981 159.93 300.971 159.91C299.871 154.79 297.501 146.99 297.501 146.99H265.341L263.141 155.29" stroke="#3B4A58" stroke-width="1.2" stroke-miterlimit="10"/>
<path d="M183.138 51.7503C192.698 51.7503 200.448 43.875 200.448 34.1603C200.448 24.4456 192.698 16.5703 183.138 16.5703C173.578 16.5703 165.828 24.4456 165.828 34.1603C165.828 43.875 173.578 51.7503 183.138 51.7503Z" fill="#F9B974"/>
<path d="M173.686 59.7293C173.686 59.7293 173.686 55.5993 173.136 51.8293C172.586 48.0593 169.506 44.6393 169.506 44.6393C167.206 41.7093 165.836 38.0193 165.836 34.0093C165.836 24.4893 173.556 16.7793 183.066 16.7793C192.576 16.7793 200.296 24.4993 200.296 34.0093C200.296 38.3193 198.716 42.2593 196.096 45.2893C196.096 45.2893 193.426 48.0693 192.776 51.8293C192.136 55.5993 192.316 59.7293 192.316 59.7293" stroke="#C47A2C" stroke-width="1.2" stroke-miterlimit="10"/>
<path d="M171.297 33.7202C171.297 33.7202 171.937 28.4203 176.027 25.0703C179.457 22.2703 184.017 21.9902 184.017 21.9902" stroke="#3B4A58" stroke-width="1.2" stroke-miterlimit="10"/>
<path d="M193.706 28.8702C194.363 28.8702 194.896 28.3375 194.896 27.6802C194.896 27.023 194.363 26.4902 193.706 26.4902C193.048 26.4902 192.516 27.023 192.516 27.6802C192.516 28.3375 193.048 28.8702 193.706 28.8702Z" stroke="#3B4A58" stroke-width="1.2" stroke-miterlimit="10"/>
<path d="M193.855 68.8602C193.425 69.2802 192.845 69.5403 192.205 69.5403C193.485 69.5403 194.535 70.5802 194.535 71.8702C194.535 72.5102 194.275 73.0902 193.855 73.5202C193.425 73.9402 192.845 74.2002 192.205 74.2002H186.895C186.735 76.2202 185.055 77.8002 182.995 77.8002C180.935 77.8002 179.245 76.2202 179.085 74.2002H173.775C172.495 74.2002 171.445 73.1502 171.445 71.8702C171.445 71.2202 171.705 70.6402 172.135 70.2202C172.555 69.8002 173.135 69.5403 173.775 69.5403C172.495 69.5403 171.445 68.5002 171.445 67.2202C171.445 66.5802 171.705 65.9903 172.135 65.5703C172.555 65.1503 173.135 64.8902 173.775 64.8902C172.495 64.8902 171.445 63.8502 171.445 62.5602C171.445 61.9202 171.705 61.3402 172.135 60.9202C172.555 60.5002 173.135 60.2402 173.775 60.2402H192.205C193.485 60.2402 194.535 61.2802 194.535 62.5602C194.535 63.2002 194.275 63.7902 193.855 64.2102C193.425 64.6302 192.845 64.8902 192.205 64.8902C193.485 64.8902 194.535 65.9302 194.535 67.2202C194.535 67.8602 194.275 68.4402 193.855 68.8602Z" stroke="#3B4A58" stroke-width="1.2" stroke-miterlimit="10"/>
<path d="M181.448 64.9199H173.188" stroke="#3B4A58" stroke-width="1.2" stroke-miterlimit="10"/>
<path d="M188.055 64.9199H189.895" stroke="#3B4A58" stroke-width="1.2" stroke-miterlimit="10"/>
<path d="M175.742 69.541H172.672" stroke="#3B4A58" stroke-width="1.2" stroke-miterlimit="10"/>
<path d="M180.578 69.541H192.808" stroke="#3B4A58" stroke-width="1.2" stroke-miterlimit="10"/>
<path d="M175.305 36.6191H191.225" stroke="#3B4A58" stroke-width="1.2" stroke-miterlimit="10"/>
<path d="M177.656 41.2305L180.576 60.6905" stroke="#3B4A58" stroke-width="1.2" stroke-miterlimit="10"/>
<path d="M187.522 41.2305L184.602 60.6905" stroke="#3B4A58" stroke-width="1.2" stroke-miterlimit="10"/>
<path d="M189.893 46.4805C187.843 47.5905 185.493 48.2205 182.993 48.2205C180.713 48.2205 178.553 47.6905 176.633 46.7605" stroke="#3B4A58" stroke-width="1.2" stroke-miterlimit="10"/>
<path d="M204.668 20.5508L200.188 23.1508" stroke="#3B4A58" stroke-width="1.2" stroke-miterlimit="10"/>
<path d="M165.765 43.1602L161.195 45.8102" stroke="#3B4A58" stroke-width="1.2" stroke-miterlimit="10"/>
<path d="M205.885 46.4809L200.445 43.2109" stroke="#3B4A58" stroke-width="1.2" stroke-miterlimit="10"/>
<path d="M166.346 22.7098L162.406 20.3398" stroke="#3B4A58" stroke-width="1.2" stroke-miterlimit="10"/>
<path d="M163.215 33.4102H158.375" stroke="#3B4A58" stroke-width="1.2" stroke-miterlimit="10"/>
<path d="M208.103 33.4102H203.023" stroke="#3B4A58" stroke-width="1.2" stroke-miterlimit="10"/>
<path d="M173.317 16.0895L170.617 11.5195" stroke="#3B4A58" stroke-width="1.2" stroke-miterlimit="10"/>
<path d="M194.895 11.5195L192.555 15.8895" stroke="#3B4A58" stroke-width="1.2" stroke-miterlimit="10"/>
<path d="M183.094 13.5101V8.58008" stroke="#3B4A58" stroke-width="1.2" stroke-miterlimit="10"/>
<path d="M75.9922 60.9609L81.5322 86.041L98.4122 114.161" stroke="#3B4A58" stroke-width="1.2" stroke-miterlimit="10"/>
<path d="M102.662 63.0703L106.362 90.5303L96.0618 121.69V142.02C96.0618 142.02 98.3418 143.64 96.0618 145.72C90.1218 151.13 65.1719 145.72 65.1719 145.72" stroke="#3B4A58" stroke-width="1.2" stroke-miterlimit="10"/>
<path d="M114.539 128.82C114.539 128.82 118.839 141.38 119.819 144.93C120.699 148.13 120.989 151.53 120.989 151.53" stroke="#3B4A58" stroke-width="1.2" stroke-miterlimit="10"/>
<path d="M121.141 153.041C122.721 163.411 122.721 189.011 122.721 189.011" stroke="#3B4A58" stroke-width="1.2" stroke-miterlimit="10"/>
<path d="M119.823 144.921C119.823 144.921 106.093 146.861 103.453 146.421C100.813 145.981 96.0625 142.021 96.0625 142.021" stroke="#3B4A58" stroke-width="1.2" stroke-miterlimit="10"/>
<path d="M63.5781 93.4414C63.5781 93.4414 69.9181 109.811 70.4381 113.771C70.9681 117.731 68.6382 121.731 68.6382 121.731" stroke="#3B4A58" stroke-width="1.2" stroke-miterlimit="10"/>
<path d="M60.2806 64.7207L39.8806 101.161L38.8906 110.271L53.9406 132.051L61.8706 122.141L62.6606 121.161L54.1406 104.751L67.0605 89.2807" stroke="#3B4A58" stroke-width="1.2" stroke-miterlimit="10"/>
<path d="M66.0182 140.172L63.5781 151.522" stroke="#3B4A58" stroke-width="1.2" stroke-miterlimit="10"/>
<path d="M63.5817 153.041C63.5817 153.041 61.6717 166.511 61.4717 173.631C61.2717 180.751 61.4717 189.011 61.4717 189.011" stroke="#3B4A58" stroke-width="1.2" stroke-miterlimit="10"/>
<path d="M100.078 125.521V128.822" stroke="#3B4A58" stroke-width="1.2" stroke-miterlimit="10"/>
<path d="M100.078 137.2V133.24" stroke="#3B4A58" stroke-width="1.2" stroke-miterlimit="10"/>
<path d="M54.9297 130.82C54.9297 130.82 55.5898 131.52 56.7798 132.65C57.9698 133.77 57.4398 134.76 59.4198 136.08C61.3998 137.4 65.6398 137.83 65.6398 137.83" stroke="#3B4A58" stroke-width="1.2" stroke-miterlimit="10"/>
<path d="M67.9375 137.981L71.2976 138.321C71.2976 138.321 75.8575 141.041 77.3075 140.171C77.7875 139.881 77.8575 139.541 77.8575 139.541C77.8575 139.541 77.9375 139.551 78.9275 139.361C79.9175 139.171 80.5476 138.791 80.5476 138.001C80.5476 137.621 80.3775 137.231 80.2075 136.921C80.0175 136.581 79.8175 136.351 79.8175 136.351L76.8475 134.041L71.3075 132.061" stroke="#3B4A58" stroke-width="1.2" stroke-miterlimit="10"/>
<path d="M69.8828 135.021L74.3127 135.751L77.3428 138.191" stroke="#3B4A58" stroke-width="1.2" stroke-miterlimit="10"/>
<path d="M71.6328 128.82L77.1128 130.82C77.1128 130.82 81.5029 134.44 81.8029 135.22C82.2629 136.44 80.1528 136.44 80.1528 136.44" stroke="#3B4A58" stroke-width="1.2" stroke-miterlimit="10"/>
<path d="M61.8672 122.141L63.5771 123.601L67.0472 121.551H73.5372C73.5372 121.551 74.4572 121.881 73.5372 123.131C72.6172 124.381 69.0472 124.911 69.0472 124.911L67.4772 125.431L77.5671 127.161L81.4572 132.041C82.0072 132.891 80.6472 133.921 80.6472 133.921" stroke="#3B4A58" stroke-width="1.2" stroke-miterlimit="10"/>
<path d="M77.6016 68.2407L94.2716 76.4107L103.322 67.9707" stroke="#3B4A58" stroke-width="1.2" stroke-miterlimit="10"/>
<path d="M112.031 76.4102C112.031 76.4102 113.021 79.9102 114.541 82.7502C116.061 85.5902 118.811 90.0702 119.491 93.9102C120.161 97.7002 119.421 101.7 116.321 104.14C113.221 106.58 114.011 105.92 114.011 105.92" stroke="#3B4A58" stroke-width="1.2" stroke-miterlimit="10"/>
<path d="M130.378 98.5813L129.978 92.3813L138.098 74.3613L149.258 78.9813C149.258 78.9813 142.588 112.311 139.618 114.291C136.648 116.271 133.878 115.941 129.978 114.751C126.088 113.561 117.828 104.321 117.828 104.321" stroke="#3B4A58" stroke-width="1.2" stroke-miterlimit="10"/>
<path d="M114.539 124.922C114.539 124.682 117.839 102.512 117.839 102.512" stroke="#3B4A58" stroke-width="1.2" stroke-miterlimit="10"/>
<path d="M140.414 75.3202C141.074 71.8602 139.884 69.0202 140.414 66.7702C140.944 64.5302 142.334 63.4002 144.174 61.8902C146.024 60.3702 148.204 55.8802 148.134 55.1602C148.064 54.4402 149.714 55.2302 149.914 56.6102C150.114 58.0002 150.044 61.1602 149.254 62.1502C148.464 63.1402 145.534 66.1002 145.534 66.1002" stroke="#3B4A58" stroke-width="1.2" stroke-miterlimit="10"/>
<path d="M148.369 78.6118L150.009 77.0018C150.009 77.0018 155.329 77.0719 155.989 76.4118C156.649 75.7518 156.249 73.8419 156.389 73.5719C156.529 73.3019 157.249 72.5818 157.379 71.5918C157.509 70.6018 156.369 69.0418 156.329 68.7118C156.279 68.2918 157.169 67.2118 156.979 66.7118C156.839 66.3318 155.259 65.8119 155.399 65.1019C155.539 64.3919 155.889 63.0918 155.489 62.4918C155.089 61.8918 154.279 61.2318 153.219 61.4918C152.159 61.7518 149.469 62.7418 148.369 64.2618C147.279 65.7818 147.599 66.3118 147.999 66.6418C148.399 66.9718 153.159 64.7318 153.159 64.7318" stroke="#3B4A58" stroke-width="1.2" stroke-miterlimit="10"/>
<path d="M150.253 68.291C150.253 68.291 148.443 68.461 148.113 69.391C147.783 70.321 147.833 71.281 149.553 72.011C150.343 72.351 154.213 72.911 154.213 72.911" stroke="#3B4A58" stroke-width="1.2" stroke-miterlimit="10"/>
<path d="M153.75 70.0312H150.25" stroke="#3B4A58" stroke-width="1.2" stroke-miterlimit="10"/>
<path d="M73.0234 30.7917C73.0234 30.7917 75.2234 41.2216 78.5034 45.3116C81.7734 49.4016 86.6934 52.9016 89.8534 52.6416C93.0134 52.3816 96.4534 50.2116 99.4934 45.5816C102.263 41.3616 104.123 33.8916 103.983 31.1216L103.883 29.1816" stroke="#3B4A58" stroke-width="1.2" stroke-miterlimit="10"/>
<path d="M72.4342 31.3906C72.4342 31.3906 71.3642 33.1906 71.5742 35.0906C71.9542 38.4606 75.5642 39.1106 75.5642 39.1106" stroke="#3B4A58" stroke-width="1.2" stroke-miterlimit="10"/>
<path d="M104.518 30.2812C104.518 30.2812 106.758 32.1112 106.658 33.8312C106.478 37.1712 102.648 38.3012 102.648 38.3012" stroke="#3B4A58" stroke-width="1.2" stroke-miterlimit="10"/>
<path d="M98.5 22.541C98.5 22.541 99.62 25.641 102.13 28.021C104.64 30.401 108.33 31.781 108.33 31.781" stroke="#3B4A58" stroke-width="1.2" stroke-miterlimit="10"/>
<path d="M84.8438 17.6211C84.8438 17.6211 88.4037 23.5311 94.6837 26.7011C100.954 29.8711 106.184 30.7911 106.184 30.7911" stroke="#3B4A58" stroke-width="1.2" stroke-miterlimit="10"/>
<path d="M91.6294 7.56055C91.6294 7.56055 91.1693 10.9905 89.4493 13.2405C87.7293 15.4805 86.7393 16.2106 83.1793 18.8506C79.6193 21.4906 79.0894 22.7406 76.9794 25.9106C74.8694 29.0806 70.6394 33.5705 67.6094 34.3905" stroke="#3B4A58" stroke-width="1.2" stroke-miterlimit="10"/>
<path d="M85.2334 4.06055C85.2334 4.06055 79.4234 4.55054 75.7234 6.96054C72.4434 9.10054 70.2034 11.3406 69.5234 17.1906" stroke="#3B4A58" stroke-width="1.2" stroke-miterlimit="10"/>
<path d="M101.141 10.6309C101.141 10.6309 105.301 12.3808 106.751 15.4208C108.201 18.4608 109.191 24.2008 109.191 24.2008" stroke="#3B4A58" stroke-width="1.2" stroke-miterlimit="10"/>
<path d="M77.3828 28.7805C77.3828 28.7805 79.0328 27.5505 81.5428 27.7505C84.0528 27.9505 86.1628 28.7805 86.1628 28.7805" stroke="#3B4A58" stroke-width="1.2" stroke-miterlimit="10"/>
<path d="M78.5625 31.3908C78.5625 31.3908 80.2126 30.8008 81.7626 30.8008C83.3126 30.8008 84.6326 31.3908 84.6326 31.3908" stroke="#3B4A58" stroke-width="1.2" stroke-miterlimit="10"/>
<path d="M81.7734 32.911V30.791" stroke="#3B4A58" stroke-width="1.2" stroke-miterlimit="10"/>
<path d="M93.8125 31.3918C93.8125 31.3918 94.8026 31.0618 96.7826 31.0918C98.7626 31.1218 100.083 31.3918 100.083 31.3918" stroke="#3B4A58" stroke-width="1.2" stroke-miterlimit="10"/>
<path d="M96.9512 32.9118L96.7812 31.0918" stroke="#3B4A58" stroke-width="1.2" stroke-miterlimit="10"/>
<path d="M88.0703 40.3019C88.0703 40.3019 89.9403 40.6719 90.9703 40.3019C92.1803 39.8719 91.8404 39.6219 91.6304 38.7219C91.4304 37.8719 90.4304 32.5719 91.1704 30.8019C91.8404 29.1919 93.5104 27.3019 95.6104 27.1719" stroke="#3B4A58" stroke-width="1.2" stroke-miterlimit="10"/>
<path d="M93.2841 44.3314C93.2841 44.3314 92.0341 44.7914 90.0541 44.7314C88.0741 44.6714 86.1641 43.9414 86.1641 43.9414C86.1641 43.9414 86.694 45.9214 88.074 46.5814C89.454 47.2414 90.464 47.1714 90.464 47.1714" stroke="#3B4A58" stroke-width="1.2" stroke-miterlimit="10"/>
<path d="M81.2434 48.2509C81.2434 48.2509 81.3434 55.0809 78.5734 58.7809C75.8034 62.4809 73.1634 63.5309 70.6534 64.0609C68.1434 64.5909 65.2434 64.7209 62.6034 63.0709C59.9634 61.4209 59.1734 60.1709 56.5934 60.1709H54.0234C54.0234 60.1709 55.5434 58.8509 56.1334 55.7509C56.7234 52.6509 55.5435 50.6709 56.7935 47.9609C58.0435 45.2509 61.0835 42.1509 61.6735 38.7209C62.2635 35.2909 60.8834 30.4309 62.0734 27.7409C63.2634 25.0509 65.0434 23.9309 65.7034 20.3009C66.3634 16.6709 68.1334 12.7609 69.5334 9.08091C73.0934 -0.259094 85.2434 -0.909073 92.2234 3.57093" stroke="#3B4A58" stroke-width="1.2" stroke-miterlimit="10"/>
<path d="M94.2734 3.60021C94.2734 3.60021 103.293 0.880204 109.193 9.3402C111.593 12.7802 112.753 17.4602 113.283 21.6202C113.813 25.7802 114.673 28.8802 115.063 31.7902C115.463 34.6902 114.273 39.2502 115.063 42.1502C115.853 45.0502 118.693 47.5002 119.023 50.2702C119.353 53.0402 119.483 56.4102 120.213 57.9302L120.943 59.4502C120.943 59.4502 119.163 61.3402 117.513 61.4502C115.863 61.5602 113.753 60.3702 112.033 61.8902C110.313 63.4102 109.193 64.2102 109.193 64.2102" stroke="#3B4A58" stroke-width="1.2" stroke-miterlimit="10"/>
<path d="M95.2891 50.6602C95.2891 50.6602 95.739 55.6602 96.989 57.5702C98.239 59.4802 108.299 63.1302 110.149 64.7202C111.999 66.3002 119.609 78.1802 120.989 80.0302C122.379 81.8802 127.749 90.0702 127.749 90.0702" stroke="#3B4A58" stroke-width="1.2" stroke-miterlimit="10"/>
<mask id="mask0_7085_75649" style="mask-type:luminance" maskUnits="userSpaceOnUse" x="0" y="133" width="370" height="75">
<path d="M369.93 133.24H0V207.47H369.93V133.24Z" fill="white"/>
</mask>
<g mask="url(#mask0_7085_75649)">
<path d="M-115.5 189.9C-83.55 185.18 -52.12 177.68 -20.25 172.55C14.16 167.02 49.02 165.89 83.73 169.08C123.54 172.74 162.35 182.57 201.02 192.28C217.64 196.46 234.37 201.47 251.49 203.08C265.7 204.42 280.14 203.56 294.06 200.39C322.89 193.81 348.45 177 365.72 152.97C368.03 149.75 370.18 146.42 372.19 143.01C372.76 142.04 371.25 141.16 370.68 142.13C355.05 168.61 330.25 188.32 300.66 196.88C286.78 200.9 272.26 202.47 257.84 201.78C241.14 200.98 225.05 196.48 208.91 192.45C171.04 182.99 133.18 173.03 94.34 168.44C59.42 164.32 24.03 164.49 -10.8 169.36C-41.62 173.67 -71.92 181.05 -102.62 186.11C-107.06 186.84 -111.51 187.54 -115.96 188.19C-117.07 188.35 -116.6 190.04 -115.49 189.88L-115.5 189.9Z" fill="#C47A2C"/>
</g>
</svg>
