<svg width="257" height="234" viewBox="0 0 257 234" fill="none" xmlns="http://www.w3.org/2000/svg">
<path d="M210.023 229.083L201.734 226.789L200.668 230.644L208.956 232.938L210.023 229.083Z" fill="#282828"/>
<path d="M208.939 233.438H208.839L200.539 231.138C200.439 231.138 200.339 231.038 200.239 230.938C200.139 230.838 200.139 230.738 200.239 230.538L201.339 226.738C201.439 226.438 201.639 226.338 201.939 226.438L210.239 228.738C210.339 228.738 210.439 228.838 210.539 228.938C210.639 229.038 210.639 229.138 210.539 229.338L209.439 233.138C209.339 233.238 209.139 233.438 208.939 233.438ZM201.239 230.338L208.539 232.338L209.339 229.438L202.039 227.438L201.239 230.338Z" fill="#282828"/>
<path d="M237.338 195.937C240.638 184.137 233.538 171.937 221.638 168.937C210.438 166.137 198.838 172.637 195.438 183.637C193.538 189.637 194.438 195.837 197.338 200.937C200.438 206.437 202.938 210.237 201.238 216.337L215.738 220.337C217.438 214.237 221.338 212.337 226.838 209.237C231.838 206.537 235.738 201.837 237.338 195.937Z" fill="white"/>
<path d="M215.736 220.838H215.636L201.136 216.838C200.836 216.738 200.736 216.538 200.836 216.238C202.336 210.738 200.336 207.138 197.536 202.238C197.336 201.938 197.136 201.538 196.936 201.238C193.836 195.838 193.136 189.538 195.036 183.638C196.736 178.238 200.436 173.638 205.436 170.838C210.436 168.038 216.236 167.238 221.836 168.638C227.736 170.138 232.636 173.838 235.736 179.038C238.836 184.238 239.536 190.438 237.936 196.238C236.336 202.038 232.536 206.938 227.236 209.838L226.636 210.138C221.336 213.038 217.936 214.938 216.336 220.638C216.336 220.738 216.236 220.838 216.136 220.938C215.936 220.838 215.836 220.838 215.736 220.838ZM201.836 215.938L215.436 219.738C217.136 214.038 220.936 211.938 226.036 209.138L226.636 208.838C231.736 206.038 235.336 201.438 236.936 195.838C238.436 190.238 237.736 184.438 234.836 179.438C231.936 174.438 227.236 170.838 221.536 169.438C210.536 166.638 199.336 173.038 195.936 183.838C194.136 189.538 194.836 195.538 197.736 200.738C197.936 201.138 198.136 201.438 198.336 201.738C201.036 206.538 203.236 210.338 201.836 215.938Z" fill="#282828"/>
<path d="M199.037 218.837L200.937 212.037L218.137 216.837L216.237 223.637C214.937 228.337 210.037 231.137 205.237 229.837C200.537 228.537 197.737 223.637 199.037 218.837Z" fill="#C47A2C"/>
<path d="M209.138 231.137C208.538 231.137 207.838 231.037 207.138 230.837L203.239 229.737C201.339 229.237 199.738 227.937 198.838 226.237C197.838 224.537 197.638 222.537 198.138 220.637L200.538 211.937C200.638 211.637 200.838 211.537 201.138 211.637L218.338 216.437C218.638 216.537 218.738 216.737 218.638 217.037L216.239 225.737C215.339 229.037 212.338 231.137 209.138 231.137ZM199.038 220.937C198.538 222.537 198.838 224.337 199.638 225.837C200.438 227.337 201.838 228.437 203.538 228.837L207.438 229.937C210.838 230.837 214.338 228.837 215.338 225.437L217.638 217.137L201.438 212.637L199.038 220.937Z" fill="#282828"/>
<path d="M215.338 219.537L202.038 215.837C201.938 215.837 201.938 215.737 201.938 215.637C201.938 215.537 202.038 215.537 202.138 215.537L215.438 219.237C215.538 219.237 215.538 219.337 215.538 219.437C215.438 219.537 215.438 219.537 215.338 219.537Z" fill="#282828"/>
<path d="M220.939 199.238L207.639 195.538C207.539 195.538 207.539 195.438 207.539 195.338C207.539 195.238 207.639 195.238 207.739 195.238L221.039 198.938C221.139 198.938 221.139 199.038 221.139 199.138C221.139 199.138 221.039 199.238 220.939 199.238Z" fill="#282828"/>
<path d="M224.437 161.037H224.337C224.037 160.937 223.938 160.737 224.038 160.437L226.337 152.338C226.437 152.038 226.637 151.937 226.937 152.037C227.237 152.137 227.338 152.337 227.238 152.637L224.937 160.737C224.837 160.937 224.637 161.037 224.437 161.037Z" fill="#282828"/>
<path d="M245.139 175.338C244.939 175.338 244.84 175.238 244.74 175.138C244.64 174.938 244.639 174.638 244.939 174.438L252.339 170.238C252.539 170.138 252.839 170.138 253.039 170.438C253.139 170.638 253.139 170.938 252.839 171.138L245.439 175.338C245.339 175.338 245.239 175.338 245.139 175.338Z" fill="#282828"/>
<path d="M256.241 200.138H256.141L248.041 197.838C247.741 197.738 247.641 197.538 247.741 197.238C247.841 196.938 248.041 196.838 248.341 196.938L256.441 199.238C256.741 199.338 256.841 199.538 256.741 199.838C256.641 199.938 256.441 200.138 256.241 200.138Z" fill="#282828"/>
<path d="M200.636 163.038C200.436 163.038 200.336 162.938 200.236 162.838L196.036 155.438C195.936 155.238 195.936 154.938 196.236 154.738C196.436 154.638 196.736 154.638 196.936 154.938L201.136 162.338C201.236 162.538 201.236 162.838 200.936 163.038C200.836 163.038 200.736 163.038 200.636 163.038Z" fill="#282828"/>
<path d="M186.538 180.837H186.437L178.337 178.537C178.037 178.437 177.938 178.237 178.038 177.937C178.138 177.637 178.337 177.537 178.637 177.637L186.738 179.937C187.038 180.037 187.138 180.237 187.038 180.537C186.938 180.637 186.838 180.837 186.538 180.837Z" fill="#282828"/>
<path d="M206.635 213.739H206.535C206.235 213.639 206.135 213.439 206.135 213.139C206.135 212.939 209.635 197.839 204.435 189.639C204.335 189.439 204.335 189.139 204.635 188.939C204.835 188.839 205.135 188.839 205.335 189.139C210.735 197.639 207.335 212.739 207.135 213.339C207.035 213.539 206.835 213.739 206.635 213.739Z" fill="#282828"/>
<path d="M212.733 215.439C212.733 215.439 212.633 215.439 212.533 215.439C212.233 215.339 212.133 215.039 212.233 214.839C212.433 214.239 217.233 199.539 226.233 195.039C226.433 194.939 226.733 195.039 226.933 195.239C227.033 195.439 226.933 195.739 226.733 195.939C218.133 200.339 213.233 215.039 213.233 215.239C213.133 215.339 212.933 215.439 212.733 215.439Z" fill="#282828"/>
<path d="M226.534 195.737H226.434C225.334 195.437 224.934 194.637 224.634 194.037C224.334 193.437 224.134 193.037 223.434 192.837C222.734 192.637 222.334 192.937 221.734 193.237C221.134 193.637 220.434 194.037 219.334 193.737C218.234 193.437 217.834 192.637 217.534 192.037C217.234 191.437 217.034 191.037 216.334 190.837C215.634 190.637 215.234 190.937 214.634 191.237C214.034 191.637 213.334 192.037 212.234 191.737C211.134 191.437 210.734 190.637 210.434 190.037C210.134 189.437 209.934 189.037 209.234 188.837C208.534 188.637 208.134 188.937 207.534 189.237C206.934 189.637 206.234 190.037 205.134 189.737C204.834 189.637 204.734 189.437 204.834 189.137C204.934 188.837 205.134 188.737 205.434 188.837C206.134 189.037 206.534 188.737 207.134 188.437C207.734 188.037 208.434 187.637 209.534 187.937C210.634 188.237 211.034 189.037 211.334 189.637C211.634 190.237 211.834 190.637 212.534 190.837C213.234 191.037 213.634 190.737 214.234 190.437C214.834 190.037 215.534 189.637 216.634 189.937C217.734 190.237 218.134 191.037 218.434 191.637C218.734 192.237 218.934 192.637 219.634 192.837C220.334 193.037 220.734 192.737 221.334 192.437C221.934 192.037 222.634 191.637 223.734 191.937C224.834 192.237 225.234 193.037 225.534 193.637C225.834 194.237 226.034 194.637 226.734 194.837C227.034 194.937 227.134 195.137 227.034 195.437C226.934 195.537 226.734 195.737 226.534 195.737Z" fill="#282828"/>
<path d="M217.537 112.083C217.337 112.083 217.137 111.983 217.037 111.783C216.937 111.583 217.038 111.283 217.338 111.183L229.638 106.083L231.938 92.4828C231.938 92.2828 232.138 92.0828 232.438 92.0828L246.138 91.4828L255.037 72.2828C255.137 72.0828 255.438 71.8828 255.638 72.0828C255.838 72.1828 256.038 72.4828 255.838 72.6828L246.838 92.1828C246.738 92.3828 246.638 92.4828 246.438 92.4828L232.838 93.0828L230.638 106.583C230.638 106.783 230.538 106.883 230.338 106.983L217.838 112.183C217.638 111.983 217.537 112.083 217.537 112.083Z" fill="#282828"/>
<path d="M30.4359 202.54L28.3359 201.14C25.6359 199.34 22.0359 200.54 20.9359 203.54L20.0359 205.94C16.5359 205.44 17.1359 205.54 13.7359 205.14L13.5359 202.64C13.2359 199.44 10.0359 197.34 7.03595 198.44L4.63593 199.24C2.83593 196.24 3.13594 196.74 1.33594 193.74L3.13593 192.04C5.43593 189.84 5.03594 186.04 2.43594 184.34L0.335938 182.94C1.53594 179.64 1.33595 180.24 2.53595 176.94L5.03595 177.24C8.23595 177.64 10.9359 175.04 10.6359 171.84L10.4359 169.34C13.7359 168.24 13.136 168.44 16.5359 167.34L17.8359 169.54C19.4359 172.24 23.236 172.74 25.5359 170.54L27.3359 168.74C30.2359 170.64 29.7359 170.34 32.6359 172.24L31.7359 174.64C30.6359 177.64 32.5359 180.84 35.7359 181.24L38.2359 181.54C38.5359 185.04 38.5359 184.44 38.8359 187.94L36.4359 188.74C33.4359 189.74 32.1359 193.24 33.7359 196.04L35.0359 198.14C32.5359 200.54 32.9359 200.14 30.4359 202.54Z" fill="white"/>
<path d="M20.1392 206.439L13.7392 205.639C13.5392 205.639 13.3392 205.439 13.3392 205.239L13.1392 202.739C13.0392 201.339 12.2392 200.139 11.1392 199.439C10.0392 198.739 8.63922 198.539 7.33922 198.939L4.93923 199.739C4.73923 199.839 4.43922 199.739 4.33922 199.539L1.03923 194.039C0.939234 193.839 0.939209 193.639 1.13921 193.439L2.93923 191.739C3.93923 190.839 4.43922 189.439 4.33922 188.139C4.23922 186.739 3.43922 185.539 2.33922 184.839L0.239215 183.439C0.0392154 183.339 -0.0607663 183.039 0.0392337 182.839L2.23922 176.839C2.33922 176.639 2.53922 176.539 2.73922 176.539L5.23922 176.839C6.63922 177.039 7.93923 176.539 8.93923 175.639C9.93923 174.639 10.4392 173.339 10.2392 172.039L10.0392 169.539C10.0392 169.339 10.1392 169.139 10.3392 169.039L16.4392 167.039C16.6392 166.939 16.9392 167.039 17.0392 167.239L18.3392 169.439C19.0392 170.639 20.2392 171.439 21.5392 171.539C22.9392 171.739 24.2392 171.239 25.2392 170.339L27.0392 168.539C27.2392 168.339 27.4392 168.339 27.6392 168.439L32.9392 171.939C33.1392 172.039 33.2392 172.339 33.1392 172.539L32.2392 174.939C31.7392 176.239 31.9392 177.639 32.6392 178.839C33.3392 180.039 34.5392 180.739 35.9392 180.939L38.4392 181.239C38.6392 181.239 38.8392 181.439 38.8392 181.639L39.4392 188.039C39.4392 188.239 39.3392 188.439 39.1392 188.539L36.7392 189.339C35.4392 189.739 34.4392 190.739 33.9392 192.039C33.4392 193.339 33.6392 194.739 34.3392 195.939L35.6392 198.039C35.7392 198.239 35.7392 198.439 35.5392 198.639L30.9392 203.039C30.7392 203.239 30.5392 203.239 30.3392 203.139L28.2392 201.739C27.1392 200.939 25.7392 200.839 24.4392 201.239C23.1392 201.639 22.1392 202.639 21.6392 203.939L20.7392 206.339C20.5392 206.339 20.3392 206.439 20.1392 206.439ZM14.2392 204.639L19.8392 205.339L20.5392 203.339C21.1392 201.739 22.3392 200.539 23.9392 200.039C25.5392 199.539 27.2392 199.739 28.6392 200.639L30.4392 201.839L34.4392 197.939L33.3392 196.139C32.4392 194.739 32.3392 193.039 32.8392 191.439C33.4392 189.839 34.6392 188.639 36.2392 188.139L38.2392 187.439L37.7392 181.839L35.6392 181.539C33.9392 181.339 32.5392 180.339 31.6392 178.939C30.7392 177.539 30.6392 175.839 31.2392 174.239L31.9392 172.239L27.2392 169.139L25.7392 170.639C24.5392 171.839 22.9392 172.339 21.2392 172.139C19.5392 171.939 18.1392 170.939 17.2392 169.539L16.1392 167.739L10.8392 169.539L11.0392 171.639C11.2392 173.339 10.6392 174.939 9.43923 176.039C8.23923 177.239 6.63923 177.739 4.93923 177.539L2.83922 177.239L0.939228 182.539L2.73922 183.739C4.13922 184.639 5.03922 186.139 5.23922 187.739C5.43922 189.439 4.83923 191.039 3.53923 192.139L2.03923 193.639L4.93923 198.439L6.93923 197.739C8.53923 197.239 10.2392 197.439 11.6392 198.339C13.0392 199.239 13.9392 200.739 14.0392 202.439L14.2392 204.639Z" fill="#282828"/>
<path d="M19.5359 193.839C23.5124 193.839 26.7359 190.616 26.7359 186.639C26.7359 182.663 23.5124 179.439 19.5359 179.439C15.5595 179.439 12.3359 182.663 12.3359 186.639C12.3359 190.616 15.5595 193.839 19.5359 193.839Z" fill="white"/>
<path d="M19.5359 194.339C15.3359 194.339 11.8359 190.939 11.8359 186.639C11.8359 182.439 15.2359 178.939 19.5359 178.939C23.7359 178.939 27.2359 182.339 27.2359 186.639C27.2359 190.839 23.8359 194.339 19.5359 194.339ZM19.5359 179.939C15.8359 179.939 12.8359 182.939 12.8359 186.639C12.8359 190.339 15.8359 193.339 19.5359 193.339C23.2359 193.339 26.2359 190.339 26.2359 186.639C26.2359 182.939 23.2359 179.939 19.5359 179.939Z" fill="#282828"/>
<path d="M49.7478 139.679L44.5859 134.518L39.4241 139.679L44.586 144.841L49.7478 139.679Z" fill="#282828"/>
<path d="M44.65 145.35C44.55 145.35 44.35 145.25 44.35 145.25L39.15 140.05C38.95 139.85 38.95 139.55 39.15 139.35L44.35 134.15C44.55 133.95 44.85 133.95 45.05 134.15L50.25 139.35C50.45 139.55 50.45 139.85 50.25 140.05L45.05 145.25C44.85 145.25 44.75 145.35 44.65 145.35ZM40.15 139.65L44.65 144.15L49.15 139.65L44.65 135.15L40.15 139.65Z" fill="#282828"/>
<path d="M59.5364 225.031C57.3338 225.031 55.792 224.449 54.7641 223.358C51.0197 219.065 57.4806 208.295 63.501 200.073C71.7974 188.721 84.9395 174.532 100.431 160.197C100.578 160.052 100.798 160.052 100.945 160.197C101.092 160.343 101.092 160.561 100.945 160.707C68.9341 190.322 49.7716 216.518 55.2781 222.921C58.3617 226.487 69.2278 223.431 85.0863 214.48C101.312 205.312 121.135 191.05 140.812 174.314C160.488 157.578 177.742 140.405 189.415 125.852C200.795 111.663 205.494 101.548 202.41 97.983C199.253 94.3447 188.241 97.5464 172.162 106.715C172.015 106.788 171.795 106.788 171.648 106.569C171.574 106.424 171.574 106.205 171.795 106.06C188.461 96.6004 199.474 93.5443 202.924 97.4736C206.302 101.403 201.676 111.59 189.929 126.289C178.256 140.842 161.002 158.087 141.252 174.823C121.502 191.559 101.679 205.894 85.38 215.063C73.7798 221.611 64.896 225.031 59.5364 225.031Z" fill="#282828"/>
<path d="M109.674 52.1413C110.996 57.7442 110.776 64.7297 110.776 64.7297L105.636 66.6944C105.636 66.6944 102.479 79.5739 122.376 75.6445C126.267 74.8441 137.427 66.4761 137.427 66.4761L128.617 64.0021C128.617 64.0021 127.736 51.2681 127.442 44.9375C122.743 46.9749 115.254 50.3949 109.674 52.1413Z" fill="white"/>
<path d="M115.544 76.7364C111.726 76.7364 108.863 75.7905 107.101 73.9714C104.238 70.988 105.192 66.7676 105.265 66.622C105.265 66.4765 105.339 66.4037 105.486 66.4037L110.405 64.5118C110.405 63.2748 110.478 57.2353 109.304 52.2872C109.23 52.1417 109.377 51.9234 109.524 51.8507C115.324 50.0315 123.327 46.3932 127.144 44.5741C127.218 44.5013 127.365 44.5013 127.512 44.5741C127.585 44.6469 127.658 44.7196 127.658 44.8652C127.952 50.6136 128.686 61.8923 128.833 63.7114L137.423 66.1854C137.57 66.2582 137.643 66.331 137.643 66.4765C137.643 66.622 137.643 66.7676 137.497 66.8403C137.056 67.2042 126.19 75.3539 122.299 76.0815C119.876 76.4454 117.6 76.7364 115.544 76.7364ZM105.926 66.9859C105.779 67.7863 105.339 71.1335 107.615 73.5348C110.185 76.1543 115.104 76.7364 122.225 75.3539C125.456 74.699 134.193 68.3684 136.542 66.6948L128.393 64.3663C128.246 64.2935 128.172 64.2208 128.099 64.0752C128.099 63.9297 127.291 51.9234 126.924 45.5201C122.96 47.3392 115.544 50.7592 109.964 52.5055C111.212 58.0357 110.992 64.8029 110.992 64.8757C110.992 65.0212 110.919 65.1667 110.772 65.1667L105.926 66.9859Z" fill="#282828"/>
<path d="M97.4835 16.6314C95.648 17.068 93.8859 15.2489 93.8125 13.2842C93.8125 11.3923 95.1341 9.64596 96.8227 8.77277C98.5113 7.89959 100.42 7.82682 102.329 7.53576C101.595 5.64386 102.549 3.38813 104.091 2.22388C105.633 1.05963 107.762 0.76857 109.671 0.986866C110.919 1.1324 112.241 1.49623 113.195 2.36941C114.223 3.16983 114.884 4.47961 114.81 5.93492C116.499 3.82472 119.216 2.44217 121.785 3.0243C124.355 3.60642 126.264 6.73534 126.484 8.84553C127.732 7.31746 129.347 6.08045 131.256 6.15321C135.074 6.37151 135.955 9.57319 134.193 13.7208C136.249 12.7021 139.259 13.5753 140.214 16.4859C140.948 18.6689 140.14 22.1616 138.598 23.8352C138.305 24.1263 137.938 24.4173 137.497 24.7084C136.91 27.9101 136.175 31.3301 135.074 35.6232C134.267 38.6794 132.872 42.0993 131.183 44.9372C130.375 46.247 129.788 46.9019 128.246 47.6295C128.173 46.3197 126.778 45.5921 126.558 44.2823C126.264 42.6815 127.365 41.2262 126.337 39.7709C124.428 37.0058 123.18 33.9496 122.519 30.8935C122.006 28.3467 122.006 25.6544 123.254 23.3259C123.694 22.4527 124.282 21.725 125.089 20.9974C124.722 20.3425 124.502 19.6876 124.282 18.9599C123.18 20.8518 122.373 22.1616 119.583 23.1076C117.527 23.7625 115.104 22.962 114.443 21.0701C114.003 23.0348 110.919 25.7999 109.01 25.9454C107.101 26.1637 106.367 25.2905 105.633 23.4714C103.944 24.9995 102.623 26.5275 100.934 27.1824C98.2911 28.2011 94.9872 26.5275 94.1062 23.7625C93.2251 20.9974 94.767 17.5046 97.4835 16.6314Z" fill="#F9B974"/>
<path d="M128.244 47.9928C128.17 47.9928 128.097 47.9928 128.097 47.92C128.023 47.8473 127.95 47.7745 127.95 47.629C127.877 47.0468 127.583 46.6102 127.142 46.1009C126.775 45.5915 126.335 45.0822 126.188 44.3545C126.041 43.6269 126.188 42.972 126.261 42.3898C126.408 41.5167 126.555 40.7162 126.041 39.9886C124.132 37.1507 122.811 34.1673 122.223 30.9657C121.636 27.8368 121.856 25.29 122.958 23.107C123.398 22.3066 123.912 21.5789 124.646 20.8513C124.499 20.4874 124.353 20.1236 124.206 19.7598C123.251 21.2879 122.297 22.5249 119.654 23.3981C117.598 24.053 115.469 23.3981 114.441 21.87C113.486 23.8347 110.843 26.0176 109.008 26.2359C107.099 26.4542 106.218 25.581 105.41 23.9802C105.117 24.2712 104.823 24.4895 104.603 24.7806C103.428 25.8721 102.327 26.8908 100.932 27.4002C99.6102 27.9095 98.0684 27.8368 96.6734 27.1091C95.205 26.3814 94.1037 25.1444 93.6632 23.7619C92.8556 21.2879 94.0303 18.3772 96.0861 16.9219C95.719 16.7764 95.3519 16.6309 95.0582 16.3398C94.1037 15.6122 93.5164 14.4479 93.5164 13.2837C93.443 11.1007 95.0582 9.28156 96.7468 8.40838C98.1418 7.68072 99.757 7.46243 101.299 7.3169C101.519 7.3169 101.739 7.24413 101.886 7.24413C101.446 5.42499 102.253 3.24203 103.869 1.93225C105.337 0.768005 107.393 0.331413 109.669 0.622475C111.21 0.840771 112.459 1.27736 113.413 2.07778C114.294 2.80544 114.955 3.89692 115.102 4.9884C117.011 3.02373 119.58 2.07778 121.856 2.58714C124.206 3.16927 126.188 5.71606 126.702 7.97178C128.17 6.44371 129.712 5.64329 131.327 5.78882C132.943 5.86159 134.117 6.51648 134.851 7.53519C135.659 8.84497 135.733 10.8096 134.925 13.0654C135.879 12.8471 136.981 12.9198 137.935 13.2837C139.257 13.8658 140.211 14.9573 140.725 16.3398C141.459 18.5955 140.652 22.161 139.036 24.0529C138.743 24.344 138.449 24.6351 137.935 24.8534C137.274 28.2733 136.54 31.6933 135.512 35.6227C134.705 38.7516 133.236 42.2443 131.621 45.0094C130.813 46.3192 130.226 47.0468 128.537 47.8473C128.317 47.9928 128.317 47.9928 128.244 47.9928ZM124.206 18.5955C124.353 18.5955 124.499 18.7411 124.573 18.8138C124.793 19.5415 125.087 20.1964 125.38 20.7785C125.454 20.924 125.454 21.0696 125.307 21.2151C124.573 21.87 123.985 22.5976 123.618 23.3981C122.59 25.3627 122.37 27.764 122.958 30.7474C123.545 33.8035 124.793 36.7869 126.702 39.4792C127.363 40.4979 127.216 41.4439 127.069 42.3898C126.996 42.972 126.849 43.5541 126.996 44.1362C127.069 44.7183 127.436 45.1549 127.803 45.5915C128.17 46.0281 128.464 46.4647 128.611 46.9741C129.859 46.3192 130.299 45.7371 130.96 44.6456C132.575 41.8805 133.97 38.5333 134.778 35.4044C135.806 31.475 136.614 28.0551 137.201 24.5623C137.201 24.4895 137.274 24.344 137.348 24.344C137.788 24.1257 138.155 23.8347 138.376 23.5436C139.844 21.87 140.578 18.5955 139.917 16.5581C139.477 15.3211 138.669 14.3751 137.568 13.9386C136.54 13.502 135.365 13.502 134.411 14.0113C134.264 14.0841 134.117 14.0841 133.97 13.9386C133.897 13.8658 133.824 13.6475 133.897 13.5747C134.851 11.1735 134.998 9.2088 134.191 7.97178C133.603 7.0986 132.649 6.58924 131.254 6.51648C129.712 6.44371 128.17 7.3169 126.775 9.06327C126.702 9.2088 126.555 9.2088 126.408 9.2088C126.261 9.13603 126.188 9.06327 126.188 8.91774C126.041 7.02584 124.279 3.96969 121.783 3.38756C119.58 2.8782 116.937 3.96968 115.175 6.15265C115.102 6.29818 114.881 6.29818 114.735 6.29818C114.588 6.22541 114.514 6.07988 114.514 5.93435C114.588 4.69734 114 3.46033 113.046 2.65991C112.238 2.00502 111.064 1.56842 109.669 1.42289C107.539 1.2046 105.704 1.56843 104.382 2.58714C102.841 3.75139 102.106 5.86159 102.767 7.46243C102.841 7.53519 102.767 7.68072 102.767 7.75349C102.694 7.82625 102.62 7.89902 102.474 7.89902C102.106 7.97179 101.739 7.97179 101.446 8.04455C99.9039 8.26285 98.4355 8.40838 97.1139 9.06327C95.719 9.79092 94.2506 11.3918 94.324 13.2837C94.324 14.2296 94.8379 15.1756 95.6456 15.7577C96.2329 16.1943 96.9671 16.4126 97.5545 16.267C97.7747 16.1943 97.9215 16.3398 97.995 16.4853C98.0684 16.7036 97.9215 16.8492 97.7747 16.9219C95.2785 17.7224 93.6632 20.8513 94.4708 23.4708C94.8379 24.7078 95.8658 25.7993 97.1139 26.4542C98.3621 27.0363 99.6836 27.1091 100.858 26.6725C102.106 26.2359 103.061 25.29 104.236 24.1985C104.603 23.8347 105.043 23.4708 105.484 23.107C105.557 23.0342 105.704 23.0342 105.777 23.0342C105.924 23.0342 105.998 23.107 105.998 23.2525C106.732 24.9989 107.319 25.7266 109.008 25.581C110.77 25.4355 113.707 22.7432 114.074 20.9968C114.074 20.8513 114.221 20.7057 114.367 20.7057C114.514 20.7057 114.661 20.7785 114.735 20.924C115.395 22.7432 117.671 23.3253 119.433 22.7432C122.15 21.87 122.884 20.5602 123.985 18.8138C123.985 18.6683 124.132 18.5955 124.206 18.5955Z" fill="#282828"/>
<path d="M100.424 27.4735C100.424 27.4008 100.424 27.2552 100.424 27.1825C100.571 27.1825 100.645 27.1097 100.792 27.037C102.554 26.3821 103.802 24.854 105.49 23.3259C106.298 25.145 106.959 26.0182 108.868 25.7999C110.777 25.5816 113.86 22.8893 114.301 20.9247C114.961 22.8893 117.384 23.6897 119.44 22.9621C122.23 22.0889 123.038 20.7791 124.139 18.8145C124.726 20.7064 125.754 22.7438 127.81 24.1991C128.544 24.7085 129.425 25.145 130.233 25.3633C130.233 25.7272 130.306 26.091 130.306 26.4548C130.453 27.7646 130.82 30.5297 130.453 33.3675C132.656 31.5484 134.418 31.9122 135.813 33.222C137.134 34.6046 137.061 36.7148 135.739 38.0245C134.418 39.3343 132.068 39.8437 130.086 39.4071C129.572 42.8271 128.764 49.667 126.341 52.6504C123.772 55.8521 119.293 57.8895 114.668 57.9623C110.042 58.035 105.344 56.1431 102.48 53.0142C99.2497 49.4487 98.5155 44.7917 98.8092 40.353C99.3231 36.2054 100.424 31.9122 100.424 27.4735Z" fill="white"/>
<path d="M114.588 58.5441C109.889 58.5441 105.264 56.6522 102.401 53.4506C99.5373 50.3216 98.2892 46.0285 98.6563 40.5711C98.8032 38.6064 99.0968 36.7145 99.3171 34.8226C99.6842 32.4213 100.051 29.9473 100.051 27.4733C100.051 27.4005 100.051 27.255 100.051 27.1822C100.051 27.0367 100.125 26.8912 100.345 26.8184C100.418 26.8184 100.565 26.7456 100.639 26.7456C101.887 26.309 102.841 25.3631 104.016 24.2716C104.383 23.9078 104.824 23.544 105.264 23.1801C105.337 23.1074 105.484 23.1074 105.558 23.1074C105.705 23.1074 105.778 23.1801 105.778 23.3257C106.512 25.072 107.1 25.7997 108.788 25.6542C110.55 25.5086 113.487 22.8163 113.854 21.0699C113.854 20.9244 114.001 20.7789 114.148 20.7789C114.295 20.7789 114.441 20.8516 114.515 20.9972C115.176 22.8163 117.452 23.3984 119.214 22.8163C121.93 21.9431 122.664 20.6333 123.766 18.887C123.839 18.7414 123.986 18.6687 124.133 18.7414C124.28 18.7414 124.427 18.887 124.427 18.9597C124.94 20.4878 125.821 22.6708 128.024 24.1988C128.685 24.7082 129.492 25.072 130.373 25.2903C130.52 25.3631 130.594 25.4359 130.667 25.5814C130.667 26.018 130.741 26.309 130.741 26.6729V26.7456C130.887 27.9099 131.181 30.3111 130.961 32.7852C132.796 31.5482 134.632 31.6937 136.1 33.149C137.569 34.6043 137.495 36.9328 136.027 38.4609C134.705 39.7707 132.503 40.3528 130.373 40.0617C130.3 40.28 130.3 40.5711 130.227 40.8621C129.639 44.6459 128.832 50.3216 126.629 53.1595C123.986 56.4339 119.434 58.5441 114.662 58.6169C114.735 58.5441 114.662 58.5441 114.588 58.5441ZM100.785 27.4733C100.785 30.0201 100.418 32.4941 100.051 34.9681C99.7576 36.86 99.4639 38.7519 99.3905 40.6438C99.0968 45.883 100.272 50.0306 102.988 53.014C105.705 55.9973 110.11 57.8165 114.588 57.8165C114.662 57.8165 114.735 57.8165 114.882 57.8165C119.434 57.7437 123.839 55.7791 126.262 52.6501C128.318 50.0306 129.199 44.2093 129.713 40.7166C129.786 40.28 129.86 39.9162 129.86 39.5524C129.86 39.4796 129.933 39.3341 130.006 39.3341C130.08 39.2613 130.153 39.2613 130.3 39.2613C132.282 39.6979 134.485 39.1885 135.66 37.9515C136.908 36.7145 136.908 34.8226 135.733 33.5856C134.338 32.203 132.723 32.2758 130.887 33.7311C130.741 33.8039 130.594 33.8039 130.52 33.8039C130.373 33.7311 130.3 33.5856 130.3 33.4401C130.594 30.7477 130.3 28.0554 130.153 26.7456V26.6729C130.153 26.4546 130.08 26.1635 130.08 25.7997C129.199 25.5086 128.465 25.1448 127.73 24.6354C125.675 23.1801 124.72 21.2882 124.133 19.7602C123.178 21.2882 122.224 22.5252 119.581 23.3984C117.525 24.0533 115.396 23.3984 114.368 21.8703C113.414 23.835 110.771 26.018 108.935 26.2363C107.026 26.4546 106.145 25.5814 105.337 23.9805C105.044 24.2716 104.75 24.4899 104.53 24.781C103.355 25.8724 102.254 26.8912 100.859 27.4005C100.859 27.4005 100.859 27.4005 100.785 27.4733Z" fill="#282828"/>
<path d="M104.61 33.8766C104.536 33.367 104.977 32.8574 105.564 32.7846C106.151 32.7118 106.665 33.0758 106.739 33.6582C106.812 34.1679 106.372 34.6775 105.784 34.7503C105.124 34.8231 104.61 34.3863 104.61 33.8766Z" fill="#282828"/>
<path d="M119.219 34.6774C119.146 34.1678 119.586 33.6582 120.173 33.5854C120.761 33.5126 121.275 33.8766 121.348 34.459C121.422 34.9686 120.981 35.4782 120.394 35.551C119.806 35.551 119.292 35.187 119.219 34.6774Z" fill="#282828"/>
<path d="M114.882 51.7044C114.441 51.7044 114.001 51.6317 113.56 51.5589C113.34 51.4861 113.267 51.3406 113.34 51.1223C113.413 50.904 113.56 50.8312 113.781 50.904C115.469 51.3406 117.452 50.7585 118.626 49.4487C118.773 49.3032 118.993 49.3032 119.14 49.3759C119.287 49.5215 119.287 49.7397 119.214 49.8853C118.039 50.9768 116.424 51.7044 114.882 51.7044Z" fill="#282828"/>
<path d="M112.388 46.2473C111.728 46.2473 110.92 46.1017 110.186 45.8107C109.745 45.6651 109.305 45.4468 109.011 45.083C108.571 44.5737 108.424 43.846 108.571 43.1184C108.718 42.5362 108.938 42.0996 109.158 41.5903L109.231 41.372C110.48 38.8252 111.14 35.9146 111.14 33.0767C111.14 32.8584 111.287 32.7129 111.507 32.7129C111.728 32.7129 111.875 32.8584 111.875 33.0767C111.875 36.0601 111.214 39.0435 109.892 41.663L109.819 41.8813C109.599 42.3179 109.378 42.7545 109.305 43.1911C109.158 43.7005 109.305 44.2826 109.599 44.5737C109.819 44.8647 110.186 45.0103 110.48 45.083C111.434 45.4468 112.315 45.5196 113.049 45.3741C113.93 45.2286 114.738 44.792 115.178 44.1371C115.325 43.9915 115.546 43.9188 115.692 44.0643C115.839 44.2098 115.913 44.4281 115.766 44.5737C115.178 45.3741 114.297 45.9562 113.196 46.1017C112.902 46.1745 112.609 46.2473 112.388 46.2473Z" fill="#282828"/>
<path d="M130.461 36.1323C130.241 36.1323 130.094 35.914 130.094 35.6957C130.241 34.5315 130.314 33.8766 130.387 32.7123C130.387 32.494 130.608 32.3485 130.755 32.4213C130.975 32.4213 131.122 32.6396 131.048 32.7851C130.975 33.9493 130.901 34.6042 130.755 35.8413C130.755 35.9868 130.608 36.1323 130.461 36.1323Z" fill="#282828"/>
<path d="M96.6773 24.5626H96.6038C95.576 23.5439 95.2089 21.9431 95.7228 20.6333C95.7228 20.5605 95.7962 20.5605 95.8697 20.5605C95.9431 20.5605 95.9431 20.6333 95.9431 20.7061C95.5026 21.9431 95.8697 23.4712 96.8241 24.4171C96.8975 24.4899 96.8975 24.5626 96.8241 24.5626C96.7507 24.5626 96.7507 24.5626 96.6773 24.5626Z" fill="#282828"/>
<path d="M135.441 23.1807C135.441 23.1807 135.368 23.1807 135.368 23.1079C135.294 23.0352 135.294 22.9624 135.368 22.9624C137.056 21.5071 137.717 19.0331 136.983 16.9229C136.983 16.8501 136.983 16.7773 137.056 16.7773C137.13 16.7773 137.203 16.7773 137.203 16.8501C137.937 19.0331 137.276 21.5799 135.514 23.1079C135.514 23.1807 135.514 23.1807 135.441 23.1807Z" fill="#282828"/>
<path d="M40.8808 95.0728C36.4756 85.0311 31.3363 66.6215 26.1235 56.7981C22.7462 54.688 18.9284 50.9041 16.9461 47.1931C16.1385 45.665 15.9916 45.0101 16.8726 43.7004C17.46 42.7544 18.9284 42.6817 19.9563 43.0455C19.3689 42.0995 18.1942 41.3719 19.2221 40.1349C19.6626 39.5527 20.4702 39.1161 21.131 39.4072C20.3968 37.4425 22.3791 35.7689 24.1412 37.4425C22.5994 35.114 21.2044 33.0766 19.736 30.9664C18.7816 29.6566 17.8271 28.0558 18.6347 27.2554C19.6626 26.2367 21.2044 27.6192 22.9665 29.8022C26.0501 33.5132 27.078 34.6775 30.3818 37.9519C33.4654 41.008 36.6959 47.0476 35.4478 49.8127C36.4756 54.0331 51.9671 78.4095 57.0331 83.4303C58.8685 85.2494 57.4001 87.0686 56.9596 89.6154C56.4457 92.7443 54.1697 103.659 46.2404 100.094C43.891 99.1476 41.1745 95.6549 40.8808 95.0728Z" fill="white"/>
<path d="M49.1054 101.185C48.151 101.185 47.1231 100.966 46.0218 100.457C43.6724 99.3656 40.8825 95.8728 40.5888 95.2179C38.7533 91.0703 36.8444 85.4674 34.7887 79.5734C31.9253 71.2781 28.9151 62.7645 25.9049 57.0888C22.8213 55.1242 18.7832 51.4131 16.7275 47.411C15.8465 45.8102 15.6996 45.0098 16.6541 43.5545C17.168 42.754 18.1959 42.463 19.1503 42.5357C18.6364 41.8809 18.1225 41.0804 19.0035 39.9162C19.5174 39.3341 20.1048 38.9702 20.7656 38.9702C20.6187 38.0243 20.9858 37.1511 21.72 36.7145C22.0871 36.4962 22.601 36.3507 23.1884 36.4234C22.0871 34.7498 20.839 32.9307 19.5908 31.1116C18.4895 29.5835 17.5351 27.9099 18.4895 26.9639C18.7832 26.6729 19.1503 26.5273 19.5908 26.5273C20.5453 26.6001 21.6466 27.4005 23.4087 29.5107L23.4821 29.5835C26.5657 33.2218 27.5935 34.386 30.824 37.5877C33.8342 40.5711 37.2849 46.6834 36.0368 49.7395C37.2115 53.9599 52.3359 77.9725 57.5487 83.1389C59.017 84.5942 58.5765 86.1223 58.0626 87.6503C57.8423 88.2325 57.6955 88.8873 57.5487 89.615C57.0347 92.8167 55.5663 98.5652 51.9688 100.457C50.8675 100.966 50.0599 101.185 49.1054 101.185ZM18.7832 43.2634C18.1224 43.2634 17.5351 43.4817 17.2414 43.9183C16.5072 45.0825 16.5806 45.5919 17.3148 47.0472C19.3706 50.9038 23.3352 54.6148 26.3454 56.5067C26.4188 56.5067 26.4188 56.5795 26.4923 56.6522C29.5759 62.4007 32.5861 70.987 35.4494 79.3551C37.5052 85.2491 39.4141 90.7793 41.2495 94.9269C41.4698 95.4362 44.1863 98.8562 46.3155 99.8022C48.2244 100.675 49.913 100.675 51.308 99.9477C54.6119 98.2013 56.0068 92.7439 56.5208 89.615C56.6676 88.8873 56.8879 88.1597 57.0347 87.5776C57.5486 86.0495 57.8423 84.958 56.6676 83.721C51.6751 78.7729 36.0368 54.4693 34.9355 49.8851C34.9355 49.8123 34.9355 49.7395 34.9355 49.6668C36.1102 47.1927 33.1734 41.3715 29.943 38.1698C26.7125 34.9681 25.6846 33.7311 22.601 30.0929L22.5276 30.0201C21.5732 28.8558 20.1782 27.3278 19.2237 27.3278C19.0035 27.3278 18.8567 27.4005 18.6364 27.5461C17.9756 28.201 19.3706 30.1656 19.8111 30.7477C21.4263 33.0035 22.8947 35.1864 24.2162 37.2966C24.2897 37.4422 24.2897 37.6605 24.1428 37.7332C23.996 37.8788 23.7757 37.806 23.6289 37.7332C23.0415 37.1511 22.3073 37.0056 21.72 37.3694C21.2061 37.6605 20.839 38.4609 21.2061 39.3341C21.2795 39.4796 21.2061 39.6251 21.1326 39.6979C21.0592 39.7707 20.9124 39.8434 20.7656 39.7707C20.2516 39.5524 19.5908 39.9162 19.2237 40.4255C18.6364 41.1532 18.9301 41.5898 19.5174 42.3175C19.6643 42.5357 19.8111 42.6813 19.9579 42.8996C20.0314 43.0451 20.0314 43.1906 19.9579 43.3362C19.8845 43.4817 19.6643 43.4817 19.5908 43.4817C19.5174 43.3362 19.1503 43.2634 18.7832 43.2634Z" fill="#282828"/>
<path d="M22.6046 48.9394C22.3844 48.9394 22.1641 48.8666 21.9438 48.7939C21.5033 48.6483 21.1362 48.2845 20.7691 47.9934L19.2273 46.6837C19.0805 46.5381 19.0805 46.3198 19.2273 46.1743C19.3742 46.0288 19.5944 46.0288 19.7413 46.1743L21.2831 47.4841C21.5767 47.7751 21.8704 47.9934 22.2375 48.139C22.5312 48.2845 22.8983 48.2117 23.1185 48.0662C23.3388 47.8479 23.4122 47.4841 23.3388 47.193C23.2654 46.8292 22.9717 46.4654 22.7514 46.1743C21.797 45.0101 21.5767 44.7918 20.8426 44.2824C20.5489 44.0641 20.2552 43.8458 19.8147 43.4092C19.6678 43.2637 19.6678 43.0454 19.7413 42.8999C19.8881 42.7543 20.1083 42.7543 20.2552 42.8271C20.6957 43.1909 21.0628 43.482 21.2831 43.6275C22.0172 44.2096 22.3109 44.4279 23.3388 45.6649C23.6325 46.0288 23.9262 46.4654 24.073 46.9747C24.2198 47.6296 24.073 48.2117 23.6325 48.5756C23.3388 48.8666 22.9717 48.9394 22.6046 48.9394Z" fill="#282828"/>
<path d="M25.3934 47.629C25.0263 47.629 24.7326 47.4835 24.3655 47.4107C23.9984 47.2652 23.6313 47.1197 23.1908 46.9014C23.044 46.8286 22.8972 46.6103 23.044 46.392C23.1174 46.2465 23.3377 46.1737 23.5579 46.2465C23.925 46.392 24.2921 46.6103 24.6592 46.7558C25.0263 46.9014 25.3934 47.0469 25.6871 46.9014C25.9808 46.7558 26.0542 46.2465 25.9808 45.8099C25.8339 45.155 24.8795 43.5542 20.9882 39.9159L20.9148 39.8431C20.768 39.6976 20.768 39.4793 20.9148 39.3338C21.0617 39.1882 21.2819 39.1882 21.4288 39.3338L21.5022 39.4065C24.7326 42.4627 26.4213 44.5001 26.715 45.6644C26.8618 46.392 26.7149 47.2652 26.0542 47.5563C25.8339 47.5563 25.6137 47.629 25.3934 47.629Z" fill="#282828"/>
<path d="M28.1767 50.2484C28.0298 50.2484 27.9564 50.1757 27.883 50.0301C26.9285 48.2838 27.7361 46.5374 28.3235 45.2276C28.5438 44.7183 28.8374 43.9906 28.764 43.8451C28.3235 43.4085 26.488 43.2629 25.607 43.1902C25.0931 43.1174 24.8728 43.1174 24.726 43.1174C23.7715 42.8264 23.331 42.317 23.1841 41.8804C23.0373 41.5166 23.0373 41.1528 23.1107 40.9345C23.2576 40.5706 23.9183 39.7702 24.3589 39.6247C25.2399 39.3336 27.4425 39.4064 29.4248 39.4791C29.6451 39.4791 29.8653 39.4791 30.0856 39.4791C30.8198 39.4791 33.0224 40.2796 33.2426 41.1527C33.316 41.371 33.1692 41.5166 33.0223 41.5893C32.8021 41.6621 32.6553 41.5166 32.5818 41.371C32.5084 41.0072 30.8198 40.2068 30.0856 40.2068C29.9387 40.2068 29.7185 40.2068 29.4248 40.2068C28.0298 40.134 25.4601 40.0613 24.5791 40.3523C24.3589 40.4251 23.8449 41.0072 23.6981 41.2983C23.6981 41.371 23.6247 41.4438 23.7715 41.6621C23.8449 41.8804 24.1386 42.2442 24.8728 42.4625C24.9462 42.4625 25.2399 42.5353 25.5336 42.5353C27.0754 42.6808 28.5438 42.8264 29.1311 43.4085C29.5716 43.9178 29.278 44.6455 28.8374 45.5187C28.3235 46.7557 27.6627 48.2838 28.3969 49.6663C28.4703 49.8118 28.3969 50.0301 28.2501 50.1757C28.3235 50.1757 28.2501 50.2484 28.1767 50.2484Z" fill="#282828"/>
<path d="M26.1279 40.1335C25.981 40.1335 25.9076 40.0608 25.8342 39.988C25.6139 39.6242 24.9532 38.9693 24.4392 38.3872C24.1456 38.0961 23.9253 37.805 23.705 37.5867C23.5582 37.4412 23.6316 37.2229 23.7785 37.0774C23.9253 36.9318 24.1455 37.0046 24.2924 37.1501C24.4392 37.3684 24.7329 37.5867 24.9532 37.8778C25.5405 38.4599 26.2013 39.1876 26.4215 39.6242C26.495 39.7697 26.495 39.988 26.2747 40.1335C26.2747 40.0608 26.2013 40.1335 26.1279 40.1335Z" fill="#282828"/>
<path d="M26.8452 46.3927C26.7717 46.3927 26.6983 46.3927 26.5515 46.3927C26.3312 46.3199 26.2578 46.1744 26.2578 45.9561C26.3312 45.7378 26.4781 45.665 26.6983 45.665C26.9186 45.7378 27.2123 45.5923 27.4325 45.3012C27.7262 44.8646 27.6528 44.2097 27.2123 43.5548C27.1388 43.4093 27.1388 43.191 27.3591 43.0455C27.5059 42.9727 27.7262 42.9727 27.873 43.191C28.7541 44.5735 28.3136 45.4467 28.0199 45.7378C27.7262 46.1744 27.2857 46.3927 26.8452 46.3927Z" fill="#282828"/>
<path d="M172.653 111.01C169.863 96.6023 169.863 81.176 158.189 71.4982C152.536 66.8412 139.247 64.8765 131.465 64.3672C130.951 71.862 123.609 73.6084 118.837 73.3173C110.907 72.808 109.512 71.2799 107.53 65.3131C105.768 66.0408 95.1221 66.5501 88.1473 72.6624C75.2989 84.0139 58.4125 82.2675 57.5314 83.2134C56.2833 84.4504 59.3669 95.5108 48.0603 100.75C43.288 102.933 71.8482 107.444 91.598 102.278C90.8638 112.465 96.8842 140.771 99.0134 152.268C119.571 166.457 159.438 151.904 159.438 151.904C159.438 151.904 156.207 142.517 156.207 135.386C156.207 131.894 168.615 139.17 170.304 139.461C170.817 139.534 172.066 139.097 172.286 138.588C173.681 135.313 175.149 124.253 172.653 111.01Z" fill="#282828"/>
<path d="M123.47 158.816C114.807 158.816 105.703 157.288 98.8015 152.558C98.7281 152.485 98.6547 152.412 98.6547 152.34C98.2876 150.521 97.8471 148.265 97.4066 145.718C94.7635 132.111 90.7988 111.664 91.2393 102.786C80.8138 105.406 69.2135 105.188 63.1931 104.824C55.7044 104.387 47.8485 103.077 47.2611 101.549C47.1877 101.331 47.1143 100.822 47.9219 100.458C56.2183 96.6741 56.5854 89.5431 56.7322 85.7593C56.8057 84.304 56.8791 83.4308 57.2462 82.9942C57.5398 82.7032 58.2006 82.6304 60.1829 82.4849C65.4691 82.121 77.9504 81.2479 87.862 72.4432C93.3685 67.568 101.004 66.1854 105.116 65.4578C106.143 65.2395 107.024 65.0939 107.318 64.9484C107.392 64.8756 107.538 64.9484 107.612 64.9484C107.685 65.0212 107.759 65.0939 107.832 65.1667C109.814 70.9879 111.063 72.4432 118.845 72.8798C120.167 72.9526 123.544 72.9526 126.554 71.3518C129.344 69.8237 130.886 67.4224 131.106 64.2207C131.106 64.148 131.179 64.0025 131.253 64.0025C131.326 63.9297 131.4 63.9297 131.547 63.9297C140.651 64.5118 153.132 66.7675 158.491 71.1335C168.109 79.0649 169.945 91.0712 171.707 102.714C172.147 105.406 172.515 108.171 173.102 110.863C175.525 123.525 174.35 134.876 172.735 138.587C172.441 139.315 170.973 139.751 170.312 139.679C169.798 139.606 168.77 139.096 166.935 138.223C163.851 136.768 158.198 134.003 156.876 134.803C156.803 134.876 156.656 134.949 156.656 135.24C156.656 142.225 159.813 151.539 159.886 151.685C159.96 151.903 159.886 152.049 159.666 152.121C159.593 152.194 149.534 155.76 137.053 157.652C132.868 158.379 128.243 158.816 123.47 158.816ZM99.3155 152.049C109.814 159.252 125.526 158.743 136.833 157.069C147.919 155.396 157.17 152.34 158.932 151.685C158.345 149.938 155.775 141.716 155.775 135.385C155.775 134.803 156.069 134.439 156.289 134.294C157.757 133.348 162.016 135.24 167.008 137.641C168.477 138.369 169.798 139.024 170.239 139.024C170.679 139.096 171.707 138.66 171.854 138.369C173.029 135.604 174.791 124.834 172.147 111.082C171.634 108.389 171.193 105.552 170.753 102.859C168.917 90.8529 167.155 79.5015 157.757 71.7156C152.618 67.4952 140.504 65.3122 131.547 64.6573C131.253 67.9318 129.564 70.4786 126.701 72.0067C123.544 73.753 120.02 73.6803 118.625 73.6075C110.769 73.0981 109.154 71.5701 107.098 65.7488C106.657 65.8944 105.923 65.9671 105.116 66.1854C101.078 66.9131 93.5888 68.2228 88.2291 72.9526C78.0973 81.9028 65.5426 82.7759 60.1095 83.2125C58.9348 83.2853 57.7601 83.3581 57.6133 83.5036C57.393 83.7219 57.393 84.7406 57.3196 85.7593C57.0993 89.6887 56.8056 97.038 48.0687 101.04C47.7751 101.186 47.7751 101.258 47.7751 101.258C47.9953 101.913 53.2081 103.441 62.9729 104.023C73.3984 104.678 83.7505 103.878 91.3862 101.84C91.533 101.84 91.6064 101.84 91.6799 101.913C91.7533 101.986 91.8267 102.132 91.8267 102.204C91.2393 110.718 95.4242 132.475 97.9939 145.427C98.5078 148.047 98.9484 150.23 99.3155 152.049Z" fill="#282828"/>
<path d="M151.456 123.961C151.309 123.961 151.162 123.888 151.089 123.742C146.904 111.154 144.555 103.223 144.555 85.9771C144.555 85.7588 144.702 85.6133 144.922 85.6133C145.142 85.6133 145.289 85.7588 145.289 85.9771C145.289 103.15 147.638 111.008 151.823 123.524C151.897 123.742 151.75 123.888 151.603 123.961C151.53 123.961 151.456 123.961 151.456 123.961Z" fill="#282828"/>
<path d="M91.5436 102.639C91.4702 102.639 91.3968 102.639 91.3233 102.567C91.1031 102.348 91.1031 102.203 91.1031 99.6559C91.1031 97.764 91.0297 94.6351 90.8828 89.8326C90.8828 89.6143 91.0297 89.4688 91.2499 89.4688C91.4702 89.4688 91.617 89.6143 91.617 89.8326C91.7638 94.6351 91.8373 97.8368 91.8373 99.7287C91.8373 101.111 91.8373 101.984 91.9107 102.203C91.9841 102.348 91.9841 102.494 91.8373 102.639C91.7638 102.567 91.617 102.639 91.5436 102.639Z" fill="#282828"/>
<path d="M113.634 95.58C105.779 95.58 98.5834 94.9251 94.839 92.9605C94.7656 92.9605 94.7656 92.8877 94.7656 92.8149C94.7656 92.7422 94.8391 92.7422 94.9125 92.7422C102.695 96.6715 125.088 95.3617 138.23 93.5426C138.303 93.5426 138.377 93.5426 138.377 93.6154C138.377 93.6881 138.377 93.7609 138.303 93.7609C131.475 94.7796 122.151 95.58 113.634 95.58Z" fill="white"/>
<path d="M122.078 106.57C111.579 106.57 102.034 104.896 94.839 103.15C94.7656 103.15 94.7656 103.077 94.7656 103.004C94.7656 102.932 94.8391 102.932 94.9125 102.932C105.925 105.624 122.592 108.025 139.478 104.678C139.551 104.678 139.625 104.678 139.625 104.751C139.625 104.824 139.625 104.896 139.551 104.896C133.604 106.133 127.731 106.57 122.078 106.57Z" fill="white"/>
<path d="M173.554 127.452C173.554 127.452 173.481 127.452 173.481 127.379C168.415 121.485 160.192 118.502 152.483 119.812C152.409 119.812 152.336 119.812 152.336 119.739C152.336 119.666 152.336 119.594 152.409 119.594C160.192 118.284 168.488 121.267 173.628 127.234C173.701 127.307 173.628 127.379 173.628 127.379C173.628 127.452 173.628 127.452 173.554 127.452Z" fill="white"/>
<path d="M172.671 121.996C172.597 121.996 172.597 121.996 172.671 121.996C171.79 121.632 171.129 121.05 170.468 120.541C170.248 120.323 170.028 120.104 169.807 119.959C168.339 118.794 166.65 118.067 164.815 117.776C164.741 117.776 164.668 117.703 164.741 117.63C164.741 117.557 164.815 117.485 164.888 117.557C166.797 117.849 168.559 118.576 170.028 119.813C170.248 120.032 170.468 120.25 170.762 120.395C171.423 120.977 172.01 121.56 172.817 121.851C172.891 121.851 172.891 121.923 172.891 121.996C172.744 121.996 172.671 121.996 172.671 121.996Z" fill="white"/>
<path d="M59.3031 94.2716C59.2297 94.2716 59.1562 94.1989 59.1562 94.1261C60.4778 90.9972 61.0652 87.5045 60.9917 84.1572C60.9917 84.0845 61.0652 84.0117 61.1386 84.0117C61.212 84.0117 61.2854 84.0845 61.2854 84.1572C61.3588 87.5772 60.7715 91.07 59.4499 94.1989C59.3765 94.1989 59.3765 94.2716 59.3031 94.2716Z" fill="white"/>
<path d="M64.0062 87.941C63.9328 87.941 63.8594 87.8683 63.8594 87.7955C64.1531 86.5585 64.2265 85.3215 64.0796 84.1572C64.0796 84.0845 64.1531 84.0117 64.1531 84.0117C64.2265 84.0117 64.2999 84.0845 64.2999 84.0845C64.4467 85.3215 64.3733 86.6313 64.0796 87.8683C64.1531 87.8683 64.0796 87.941 64.0062 87.941Z" fill="white"/>
<path d="M152.484 124.688C152.338 124.688 152.191 124.615 152.117 124.397C149.254 114.064 147.345 103.441 146.391 92.817C146.391 92.5987 146.537 92.4531 146.684 92.4531C146.905 92.4531 147.051 92.5987 147.051 92.7442C148.006 103.295 149.988 113.919 152.778 124.179C152.852 124.397 152.705 124.543 152.558 124.615C152.558 124.688 152.558 124.688 152.484 124.688Z" fill="white"/>
<path d="M90.7265 104.531C90.5062 104.531 90.3594 104.385 90.3594 104.167L90.5062 92.4517C90.5062 92.2334 90.6531 92.0879 90.8733 92.0879C91.0936 92.0879 91.2404 92.2334 91.2404 92.4517L91.0936 104.167C91.0201 104.385 90.8733 104.531 90.7265 104.531Z" fill="white"/>
<path d="M115.52 82.7932L74.5938 90.7246L85.0197 143.569L125.946 135.638L115.52 82.7932Z" fill="white"/>
<path d="M85.0817 143.969C85.0083 143.969 84.9349 143.969 84.8614 143.896C84.788 143.824 84.7146 143.751 84.7146 143.678L74.2891 90.7776C74.2891 90.7048 74.2891 90.5593 74.3625 90.4865C74.4359 90.4138 74.5093 90.341 74.5827 90.341L115.477 82.4096C115.698 82.3368 115.844 82.4823 115.918 82.7006L126.343 135.601C126.417 135.819 126.27 135.965 126.05 136.038L85.0817 143.969ZM75.0233 90.9959L85.302 143.169L125.536 135.383L115.257 83.21L75.0233 90.9959Z" fill="#282828"/>
<path d="M104.247 203.13C104.101 203.13 103.954 202.984 103.88 202.839C101.604 188.795 101.017 174.387 100.356 160.416C100.283 157.942 100.136 155.541 100.062 153.067C100.062 152.849 100.209 152.703 100.43 152.703C100.65 152.703 100.797 152.849 100.797 153.067C100.944 155.541 101.017 157.942 101.09 160.416C101.678 174.387 102.339 188.795 104.541 202.766C104.688 202.911 104.541 203.13 104.247 203.13C104.321 203.13 104.321 203.13 104.247 203.13Z" fill="#282828"/>
<path d="M135.302 179.699C135.155 179.699 135.008 179.626 134.935 179.481C133.907 177.007 133.32 175.333 132.732 173.805C132.218 172.277 131.778 171.113 131.117 169.657C129.575 169.876 126.345 169.803 124.729 169.73H124.289C124.069 169.73 123.922 169.585 123.922 169.366C123.922 169.148 124.069 169.002 124.289 169.002H124.729C126.418 169.075 129.942 169.148 131.264 168.93C131.411 168.93 131.557 169.002 131.631 169.148C132.439 170.749 132.879 171.986 133.393 173.587C133.907 175.115 134.494 176.788 135.522 179.19C135.596 179.335 135.522 179.553 135.302 179.626C135.375 179.699 135.302 179.699 135.302 179.699Z" fill="#282828"/>
<path d="M159.67 157.941C159.523 157.941 159.376 157.868 159.303 157.723C159.229 157.359 159.009 156.922 158.862 156.413C158.348 155.103 157.761 153.429 157.688 152.411C157.688 152.192 157.834 152.047 158.055 152.047C158.275 152.047 158.422 152.192 158.422 152.411C158.495 153.357 159.082 154.957 159.523 156.194C159.743 156.704 159.89 157.14 159.964 157.504C160.037 157.723 159.89 157.868 159.743 157.941H159.67Z" fill="#282828"/>
<path d="M165.999 125.489C163.135 124.398 135.823 115.084 132.005 110.791C129.583 108.098 122.608 102.641 120.625 102.35C117.322 101.841 115.119 101.113 112.329 101.622C109.98 102.059 105.795 104.096 105.868 104.897C106.309 107.444 111.595 104.024 112.182 104.024C114.091 104.096 116.073 104.169 118.276 105.624C115.927 106.498 111.889 108.39 111.081 109.408C110.2 110.5 108.438 115.011 108.364 115.739C108.144 117.049 109.099 117.922 110.126 116.321C110.2 116.248 112.329 113.338 112.916 111.737C113.137 111.082 117.248 109.335 119.304 109.044C117.101 109.044 113.504 110.718 112.916 111.737C112.77 111.955 110.787 116.394 110.714 116.758C110.347 118.431 111.962 118.504 112.77 117.34C113.724 116.03 114.532 114.065 114.825 113.774C116.294 112.319 118.276 112.173 119.891 111.882C118.276 112.101 116.514 112.392 114.899 113.629C114.605 113.847 112.182 117.558 113.357 118.649C114.018 119.232 115.486 118.286 116.661 115.521C117.836 115.302 118.57 115.375 119.671 115.302C120.405 115.229 124.296 119.523 127.38 120.105C127.967 120.25 138.907 132.62 154.178 140.188C155.573 140.843 167.467 145.573 172.46 137.932C173.561 136.113 174.589 128.764 165.999 125.489Z" fill="white"/>
<path d="M163.28 142.661C159.242 142.661 155.424 141.278 153.956 140.551C141.768 134.511 132.224 125.343 128.626 121.85C127.966 121.195 127.305 120.613 127.158 120.467C125.176 120.031 122.9 118.212 121.211 116.902C120.55 116.32 119.743 115.737 119.522 115.665C119.155 115.665 118.862 115.737 118.568 115.737C117.981 115.737 117.467 115.81 116.806 115.883C115.998 117.702 114.897 118.939 113.942 119.157C113.575 119.23 113.208 119.157 112.988 118.939C112.768 118.721 112.548 118.43 112.548 117.993C112.034 118.43 111.446 118.575 110.932 118.357C110.712 118.284 110.051 117.848 110.272 116.611C110.272 116.538 110.345 116.465 110.345 116.32C110.345 116.32 110.345 116.32 110.345 116.392C109.611 117.557 108.95 117.484 108.656 117.338C108.069 117.12 107.775 116.392 107.922 115.519C108.069 114.719 109.831 110.135 110.712 108.97C111.593 107.952 115.117 106.205 117.393 105.332C115.558 104.313 113.942 104.168 112.18 104.168C112.034 104.168 111.593 104.386 111.226 104.604C109.684 105.332 107.408 106.424 106.233 105.841C105.94 105.696 105.646 105.405 105.499 104.823C105.279 103.513 110.272 101.475 112.254 101.112C114.456 100.675 116.218 101.039 118.421 101.403C119.155 101.548 119.889 101.694 120.697 101.767C122.826 102.058 129.801 107.588 132.297 110.353C135.528 113.991 156.819 121.559 163.794 124.106C164.969 124.542 165.777 124.833 166.144 124.979C170.696 126.725 172.384 129.49 173.045 131.528C174 134.365 173.265 137.058 172.605 138.004C170.402 141.569 166.804 142.661 163.28 142.661ZM119.522 115.01C119.889 115.01 120.477 115.446 121.652 116.392C123.193 117.629 125.469 119.449 127.305 119.812C127.525 119.885 127.745 120.031 129.067 121.34C132.591 124.76 142.062 133.929 154.176 139.896C154.323 139.968 166.951 145.571 171.944 137.785C172.531 136.839 173.045 134.365 172.237 131.891C171.356 129.199 169.08 127.089 165.703 125.779C165.336 125.634 164.528 125.343 163.354 124.906C155.571 122.141 134.94 114.719 131.563 111.008C129.067 108.243 122.165 102.931 120.403 102.64C119.596 102.494 118.862 102.349 118.127 102.276C115.998 101.912 114.31 101.548 112.254 101.985C109.831 102.421 106.307 104.313 106.087 104.895C106.16 105.259 106.307 105.332 106.454 105.405C107.335 105.841 109.611 104.75 110.785 104.168C111.52 103.804 111.813 103.658 112.034 103.658C114.089 103.731 116.072 103.877 118.274 105.332C118.421 105.405 118.421 105.55 118.421 105.696C118.421 105.841 118.348 105.914 118.201 105.987C115.558 106.933 111.813 108.825 111.153 109.698C110.345 110.644 108.656 115.155 108.509 115.883C108.436 116.392 108.583 116.829 108.803 116.902C108.95 116.975 109.317 116.756 109.611 116.247C109.611 116.247 109.684 116.174 109.684 116.101C110.785 114.5 111.52 113.482 111.887 112.681C112.107 112.172 112.327 111.735 112.327 111.663C112.988 110.498 116.659 108.825 119.008 108.825C119.229 108.825 119.376 108.97 119.376 109.189C119.376 109.407 119.229 109.552 119.082 109.552C116.953 109.843 113.282 111.517 112.988 112.026C112.915 112.245 112.768 112.609 112.474 113.045C111.887 114.428 110.785 116.756 110.785 116.974C110.712 117.484 110.785 117.775 111.006 117.92C111.299 118.066 111.813 117.848 112.18 117.338C112.327 117.12 112.474 116.975 112.548 116.756C112.988 115.301 114.089 113.773 114.31 113.627C114.53 113.409 114.824 113.263 115.117 113.118C115.558 112.827 116.072 112.609 116.512 112.463C117.613 112.099 118.641 111.954 119.522 111.808C119.743 111.808 119.889 111.881 119.889 112.099C119.889 112.318 119.816 112.463 119.596 112.536C119.302 112.609 119.008 112.609 118.788 112.681C118.054 112.827 117.246 112.972 116.439 113.263C116.145 113.409 115.851 113.482 115.631 113.627C115.337 113.846 115.044 114.064 114.75 114.282C114.677 114.355 114.456 114.864 114.236 115.228C113.942 115.737 113.649 116.465 113.208 117.12C113.061 117.484 112.988 117.848 113.061 118.139C113.061 118.43 113.135 118.575 113.282 118.721C113.282 118.721 113.429 118.794 113.649 118.794C114.236 118.648 115.191 117.775 116.072 115.737C116.145 115.592 116.218 115.519 116.365 115.519C117.173 115.374 117.834 115.374 118.421 115.301C118.862 115.083 119.155 115.083 119.522 115.01Z" fill="#282828"/>
<path d="M100.809 117.091C103.011 116.743 104.569 115.046 104.289 113.299C104.008 111.553 101.995 110.419 99.7927 110.767C97.5902 111.115 96.0322 112.812 96.3128 114.558C96.5935 116.305 98.6065 117.439 100.809 117.091Z" fill="#282828"/>
<path d="M100.067 117.483C98.0112 117.483 96.3226 116.319 96.0289 114.572C95.8821 113.626 96.1757 112.68 96.9099 111.88C97.6441 111.079 98.5986 110.57 99.7733 110.425C100.875 110.279 102.049 110.425 102.93 110.934C103.885 111.443 104.472 112.316 104.619 113.262C104.766 114.208 104.472 115.154 103.738 115.955C103.004 116.755 102.049 117.265 100.875 117.41C100.581 117.483 100.361 117.483 100.067 117.483ZM100.581 111.007C100.361 111.007 100.067 111.007 99.8467 111.079C98.8922 111.225 98.0112 111.662 97.4239 112.316C96.8365 112.971 96.6162 113.699 96.6897 114.427C96.9099 115.955 98.7454 116.973 100.728 116.682C101.682 116.537 102.563 116.1 103.151 115.445C103.738 114.791 103.958 114.063 103.885 113.335C103.738 112.608 103.297 111.953 102.563 111.516C101.976 111.225 101.315 111.007 100.581 111.007Z" fill="#282828"/>
<path d="M128.395 185.083C128.175 185.083 128.028 184.937 128.028 184.719C127.955 180.789 127.955 178.898 127.881 177.078C127.881 175.259 127.808 173.367 127.734 169.438C127.734 169.22 127.881 169.074 128.101 169.074C128.322 169.074 128.469 169.22 128.469 169.438C128.542 173.367 128.542 175.259 128.615 177.078C128.615 178.898 128.689 180.789 128.762 184.719C128.762 184.937 128.615 185.083 128.395 185.083Z" fill="#282828"/>
<path d="M57.771 224.522C57.771 224.522 52.338 222.194 79.2829 191.56C100.061 167.984 101.015 168.056 101.015 168.056L100.648 160.416C100.648 160.416 74.8043 185.229 63.8648 200.073C47.4923 222.485 57.771 224.522 57.771 224.522Z" fill="#282828"/>
<path d="M57.777 224.885H57.7036C57.6302 224.885 55.6479 224.449 54.6934 222.12C53.5187 219.137 54.1061 212.879 63.6506 199.927C74.4432 185.228 100.213 160.488 100.434 160.197C100.507 160.124 100.654 160.051 100.801 160.124C100.948 160.197 101.021 160.269 101.021 160.415L101.388 168.055C101.388 168.128 101.388 168.274 101.315 168.346C101.241 168.346 101.241 168.419 101.168 168.419C100.874 168.565 98.378 170.457 79.5826 191.85C59.0252 215.207 57.4834 221.902 57.7036 223.721C57.777 224.085 57.9239 224.23 57.9239 224.23C58.0707 224.303 58.2176 224.449 58.1441 224.667C58.0707 224.812 57.9239 224.885 57.777 224.885ZM100.36 161.288C96.4691 164.999 74.0761 186.902 64.2379 200.363C54.9871 213.024 54.3263 219.064 55.4276 221.829C55.8681 222.92 56.5289 223.503 57.0429 223.866C56.6758 221.465 59.172 214.043 79.0687 191.413C89.7879 179.188 95.1475 173.44 97.7172 170.82C99.5527 169.001 100.287 168.274 100.727 167.983L100.36 161.288Z" fill="#282828"/>
<path d="M171.125 106.858C171.125 106.858 200.566 88.4484 203.356 98.7811C200.346 94.3424 172.226 114.135 172.226 114.135L171.125 106.858Z" fill="#282828"/>
<path d="M172.226 114.5C172.153 114.5 172.153 114.5 172.079 114.5C171.933 114.427 171.859 114.354 171.859 114.209L170.758 106.932C170.758 106.787 170.831 106.641 170.905 106.568C171.786 105.986 193.151 92.7428 201.007 95.7262C202.402 96.2356 203.283 97.2543 203.65 98.7096C203.723 98.8551 203.576 99.0734 203.429 99.1462C203.283 99.2189 203.062 99.1462 202.989 99.0007C202.842 98.7824 202.548 98.6368 202.181 98.5641C196.455 97.5453 172.593 114.281 172.373 114.427C172.373 114.5 172.3 114.5 172.226 114.5ZM171.492 107.005L172.446 113.481C175.971 111.007 196.748 96.8177 202.328 97.7636C202.402 97.7636 202.475 97.7636 202.548 97.8364C202.108 97.1088 201.521 96.6722 200.713 96.3083C193.665 93.616 173.695 105.695 171.492 107.005Z" fill="#282828"/>
</svg>
