<svg width="258" height="210" viewBox="0 0 258 210" fill="none" xmlns="http://www.w3.org/2000/svg">
<path d="M122.814 91.9573C122.814 65.6014 122.908 34.556 122.908 6.51189C79.4815 6.51189 38.1188 6.13672 0.414062 6.13672C0.695441 34.1808 1.07061 62.4125 1.07061 91.6759C26.3009 91.6759 57.2526 91.7697 86.6098 91.8635C89.0484 91.8635 105.368 115.499 105.368 115.499C105.368 115.499 99.5532 91.8635 102.273 91.8635C109.401 91.8635 116.248 91.9573 122.814 91.9573Z" fill="white"/>
<path d="M105.462 115.968C105.275 115.968 105.181 115.875 105.087 115.781C97.2086 104.338 88.2044 92.5202 86.7038 92.3327C77.981 92.3327 69.0707 92.3327 60.2541 92.2389C38.9631 92.1451 18.8914 92.1451 1.16458 92.1451C0.883198 92.1451 0.695612 91.9575 0.695612 91.6761C0.695612 62.6941 0.320441 34.2748 0.0390625 6.88727V6.13693C0.0390625 6.04314 0.132854 5.85555 0.132854 5.76176C0.226647 5.66797 0.320441 5.66797 0.508027 5.66797C18.7039 5.66797 37.4625 5.76176 57.4404 5.85555C78.6376 5.94934 100.585 6.04314 123.002 6.04314C123.283 6.04314 123.471 6.23073 123.471 6.51211C123.471 20.7686 123.471 35.9631 123.377 50.5948C123.377 65.2265 123.283 79.0141 123.283 91.9575C123.283 92.2389 123.095 92.4264 122.814 92.4264C116.249 92.4264 109.308 92.4264 102.273 92.4264C102.18 92.5202 101.242 93.4582 103.399 104.244C104.524 109.872 105.838 115.406 105.838 115.406C105.931 115.593 105.744 115.875 105.556 115.968H105.462ZM1.53975 91.2072C19.1728 91.2072 39.0569 91.3009 60.1604 91.3009C68.9769 91.3009 77.8872 91.3947 86.61 91.3947C87.1727 91.3947 88.392 91.3947 97.3024 103.4C100.116 107.152 102.742 110.997 104.337 113.155C102.93 107.058 100.022 93.7395 101.523 91.7699C101.804 91.4885 102.086 91.3947 102.273 91.3947C109.12 91.3947 115.873 91.3947 122.345 91.3947C122.345 78.5451 122.345 64.9451 122.439 50.501C122.439 35.9631 122.533 21.05 122.533 6.88727C100.21 6.88727 78.45 6.79348 57.3466 6.69969C37.5562 6.6059 18.8914 6.51211 0.883199 6.51211V6.79348C1.25837 34.181 1.53975 62.3189 1.53975 91.2072Z" fill="#282828"/>
<path d="M100.78 0.887093C83.1472 0.7933 65.4204 0.699505 47.7873 0.511919C32.8742 0.418126 15.5225 0.699505 0.609439 0.511919C0.421854 4.54502 0.421854 7.73398 0.609439 10.3602C39.0645 10.3602 84.179 9.79742 122.822 10.3602C123.009 7.82777 122.915 4.16984 122.915 1.07468C116.35 1.07468 107.252 0.980886 100.78 0.887093Z" fill="#C47A2C"/>
<path d="M0.609654 10.8279C0.328275 10.8279 0.140689 10.6403 0.140689 10.3589C-0.0468965 7.8265 -0.0468965 4.73133 0.140689 0.510651C0.140689 0.229272 0.328275 0.0416858 0.609654 0.0416858C8.48826 0.135479 17.211 0.135479 25.6524 0.0416858C33.062 0.0416858 40.753 -0.0521072 47.7875 0.0416858C64.1075 0.229272 82.6785 0.323066 100.781 0.416859C103.407 0.416859 106.502 0.416858 109.691 0.510651C114.287 0.510651 119.07 0.604442 122.916 0.604442C123.197 0.604442 123.385 0.792028 123.385 1.07341C123.385 2.01134 123.385 2.94926 123.385 3.98099C123.385 6.32581 123.478 8.67064 123.291 10.4527C123.291 10.7341 123.103 10.9217 122.822 10.9217C96.8412 10.5465 67.8592 10.6403 39.9089 10.8279C26.1213 10.7341 13.1779 10.8279 0.609654 10.8279ZM0.984827 0.979615C0.797242 4.73133 0.797242 7.54512 0.984827 9.88995C13.3655 9.88995 26.3089 9.79615 39.9089 9.79615C67.6716 9.70236 96.4661 9.51477 122.353 9.88995C122.447 8.20167 122.447 6.04443 122.447 3.8872C122.447 3.04306 122.447 2.29272 122.447 1.44858C118.695 1.44858 114.099 1.44858 109.691 1.35479C106.502 1.35479 103.407 1.35478 100.781 1.26099C82.6785 1.1672 64.1075 1.07341 47.7875 0.885824C40.753 0.792031 33.062 0.885824 25.6524 0.885824C17.3986 1.07341 8.86344 1.07341 0.984827 0.979615Z" fill="#282828"/>
<path d="M113.445 4.45004C112.976 4.35625 112.601 4.63762 112.319 4.919C112.132 5.20038 112.132 5.57555 112.226 5.85693C112.413 6.13831 112.695 6.41969 113.07 6.41969C113.633 6.41969 114.102 5.95072 114.102 5.48176C114.195 5.01279 113.82 4.54383 113.445 4.45004Z" fill="#282828"/>
<path d="M103.781 4.45004C103.312 4.35625 102.937 4.63762 102.655 4.919C102.468 5.20038 102.468 5.57555 102.562 5.85693C102.749 6.13831 103.031 6.41969 103.406 6.41969C103.968 6.41969 104.437 5.95072 104.437 5.48176C104.625 5.01279 104.156 4.54383 103.781 4.45004Z" fill="#282828"/>
<path d="M93.5622 4.45004C93.0932 4.35625 92.718 4.63762 92.4367 4.919C92.2491 5.20038 92.2491 5.57555 92.3429 5.85693C92.5304 6.13831 92.8118 6.41969 93.187 6.41969C93.7498 6.41969 94.2187 5.95072 94.2187 5.48176C94.3125 5.01279 93.9373 4.54383 93.5622 4.45004Z" fill="#282828"/>
<path d="M60.2619 38.7774H17.5862C17.3048 38.7774 17.1172 38.5898 17.1172 38.3085V21.9885C17.1172 21.7071 17.3048 21.5195 17.5862 21.5195H60.1682C60.4495 21.5195 60.6371 21.7071 60.6371 21.9885V38.3085C60.7309 38.5898 60.5433 38.7774 60.2619 38.7774ZM18.0551 37.8395H59.793V22.3637H18.0551V37.8395Z" fill="#282828"/>
<path d="M39.7213 62.3206H17.5862C17.3048 62.3206 17.1172 62.133 17.1172 61.8516V49.3772C17.1172 49.0958 17.3048 48.9082 17.5862 48.9082H39.7213C40.0027 48.9082 40.1903 49.0958 40.1903 49.3772V61.9454C40.1903 62.133 40.0027 62.3206 39.7213 62.3206ZM18.0551 61.3827H39.1585V49.7523H18.0551V61.3827Z" fill="#282828"/>
<path d="M74.8932 62.3206H52.758C52.4766 62.3206 52.2891 62.133 52.2891 61.8516V49.3772C52.2891 49.0958 52.4766 48.9082 52.758 48.9082H74.7994C75.0807 48.9082 75.2683 49.0958 75.2683 49.3772V61.9454C75.3621 62.133 75.0807 62.3206 74.8932 62.3206ZM53.227 61.3827H74.4242V49.7523H53.227V61.3827Z" fill="#282828"/>
<path d="M110.073 62.3206H88.0315C87.7501 62.3206 87.5625 62.133 87.5625 61.8516V49.3772C87.5625 49.0958 87.7501 48.9082 88.0315 48.9082H110.073C110.354 48.9082 110.542 49.0958 110.542 49.3772V61.9454C110.542 62.133 110.26 62.3206 110.073 62.3206ZM88.4066 61.3827H109.51V49.7523H88.4066V61.3827Z" fill="#282828"/>
<path d="M98.9961 25.2717L73.4845 25.0842C73.3907 25.0842 73.2969 24.9904 73.2969 24.8966C73.2969 24.8028 73.3907 24.709 73.4845 24.709L98.9961 24.8966C99.0899 24.8966 99.1837 24.9904 99.1837 25.0842C99.1837 25.178 99.0899 25.2717 98.9961 25.2717Z" fill="#282828"/>
<path d="M94.0251 30.3362L73.4845 30.2424C73.3907 30.2424 73.2969 30.1486 73.2969 30.0548C73.2969 29.961 73.3907 29.8672 73.4845 29.8672L94.0251 30.0548C94.1189 30.0548 94.2127 30.1486 94.2127 30.2424C94.2127 30.3362 94.1189 30.3362 94.0251 30.3362Z" fill="#282828"/>
<path d="M98.9961 35.4026L73.4845 35.3088C73.3907 35.3088 73.2969 35.215 73.2969 35.1212C73.2969 35.0274 73.3907 34.9336 73.4845 34.9336L98.9961 35.1212C99.0899 35.1212 99.1837 35.215 99.1837 35.3088C99.1837 35.4026 99.0899 35.4026 98.9961 35.4026Z" fill="#282828"/>
<path d="M37.563 70.387L19.6485 70.1994C19.5547 70.1994 19.4609 70.1056 19.4609 70.0118C19.4609 69.918 19.5547 69.8242 19.6485 69.8242L37.563 70.0118C37.6568 70.0118 37.7506 70.1056 37.7506 70.1994C37.7506 70.2932 37.6568 70.387 37.563 70.387Z" fill="#282828"/>
<path d="M35.8738 75.4514L21.5235 75.2639C21.4297 75.2639 21.3359 75.17 21.3359 75.0763C21.3359 74.9825 21.4297 74.8887 21.5235 74.8887L35.8738 75.0763C35.9676 75.0763 36.0614 75.1701 36.0614 75.2639C35.9676 75.3576 35.9676 75.4514 35.8738 75.4514Z" fill="#282828"/>
<path d="M72.7427 70.387L54.8282 70.1994C54.7344 70.1994 54.6406 70.1056 54.6406 70.0118C54.6406 69.918 54.7344 69.8242 54.8282 69.8242L72.7427 70.0118C72.8365 70.0118 72.9303 70.1056 72.9303 70.1994C72.9303 70.2932 72.8365 70.387 72.7427 70.387Z" fill="#282828"/>
<path d="M71.0536 75.4514L56.6095 75.2639C56.5157 75.2639 56.4219 75.17 56.4219 75.0763C56.4219 74.9825 56.5157 74.8887 56.6095 74.8887L70.9598 75.0763C71.0536 75.0763 71.1474 75.1701 71.1474 75.2639C71.1474 75.3576 71.1474 75.4514 71.0536 75.4514Z" fill="#282828"/>
<path d="M107.915 70.387L90.0001 70.1994C89.9063 70.1994 89.8125 70.1056 89.8125 70.0118C89.8125 69.918 89.9063 69.8242 90.0001 69.8242L107.915 70.0118C108.008 70.0118 108.102 70.1056 108.102 70.1994C108.102 70.2932 108.008 70.387 107.915 70.387Z" fill="#282828"/>
<path d="M106.225 75.4514L91.8751 75.2639C91.7813 75.2639 91.6875 75.17 91.6875 75.0763C91.6875 74.9825 91.7813 74.8887 91.8751 74.8887L106.225 75.0763C106.319 75.0763 106.413 75.1701 106.413 75.2639C106.319 75.3576 106.319 75.4514 106.225 75.4514Z" fill="#282828"/>
<path d="M171.451 47.8815C165.527 46.6393 150.619 43.2947 147.371 50.366C138.484 70.1465 218.083 98.6228 228.595 88.9714C238.342 79.989 205.756 60.8774 202.699 59.3485C192.665 54.475 182.154 50.0793 171.451 47.8815Z" fill="white"/>
<path d="M220.565 91.4556C215.023 91.4556 207.283 90.1178 198.109 87.4422C182.82 82.9509 167.34 75.9752 157.688 68.9995C148.228 62.2149 144.501 55.7169 146.89 50.2701C150.139 43.1033 163.995 45.97 170.684 47.3078L171.449 47.4989C180.909 49.4101 190.847 53.0413 202.792 59.0614C203.078 59.157 229.166 73.5862 230.695 84.1932C230.981 86.1999 230.312 88.0155 228.783 89.4489C227.446 90.7867 224.579 91.4556 220.565 91.4556ZM157.688 46.5434C153.293 46.5434 149.279 47.4989 147.846 50.6523C144.979 56.9592 151.955 63.6482 158.262 68.235C167.817 75.1152 183.202 82.0909 198.396 86.5821C213.494 90.9778 224.961 91.8378 228.306 88.78C229.643 87.5377 230.121 86.1043 229.93 84.3843C228.592 75.1152 205.754 61.5459 202.505 59.9215C190.656 53.9969 180.718 50.3657 171.353 48.4545L170.589 48.2634C167.531 47.5945 162.371 46.5434 157.688 46.5434Z" fill="#282828"/>
<path d="M211.096 85.9136C210.905 93.7494 215.683 101.776 223.137 104.356C227.15 105.79 231.641 105.599 235.75 106.65C239.859 107.701 244.064 110.854 244.159 115.154C244.159 118.021 242.535 124.423 251.04 128.246C258.015 131.399 256.391 148.217 234.699 155.289C228.01 157.487 232.31 152.04 225.43 150.893C218.645 149.842 212.434 146.02 207.656 140.955C202.974 135.89 199.629 129.679 197.049 123.277C194.087 115.919 191.985 107.796 193.8 100.056C195.52 92.2204 202.401 85.2447 211.096 85.9136Z" fill="#F9B974"/>
<path d="M232.12 156.149C230.686 156.149 230.113 155.384 229.539 154.238C228.966 153.091 228.297 151.753 225.239 151.275C218.741 150.32 212.339 146.689 207.274 141.146C203.07 136.655 199.534 130.826 196.572 123.372C192.75 114.008 191.699 106.459 193.323 99.8652C195.139 92.3161 202.019 84.767 211.192 85.4359C211.479 85.4359 211.67 85.6271 211.67 85.9137C211.479 93.9406 216.448 101.49 223.424 103.879C225.622 104.643 228.011 104.93 230.304 105.216C232.215 105.408 234.126 105.694 235.942 106.172C240.146 107.223 244.638 110.568 244.638 115.059C244.638 115.441 244.638 115.823 244.638 116.301C244.446 119.55 244.16 124.519 251.327 127.673C254.002 128.819 255.436 131.877 255.245 135.508C254.958 141.815 249.416 150.893 234.891 155.575C233.648 156.053 232.788 156.149 232.12 156.149ZM209.855 86.3915C201.732 86.3915 195.808 93.2717 194.087 100.152C192.559 106.65 193.61 113.912 197.336 123.086C200.299 130.444 203.739 136.177 207.848 140.573C212.817 145.924 219.028 149.46 225.335 150.415C228.871 150.989 229.731 152.613 230.304 153.855C230.877 155.098 231.26 155.767 234.317 154.715C248.364 150.129 253.716 141.528 254.002 135.508C254.193 132.259 252.856 129.584 250.562 128.628C242.822 125.188 243.109 119.646 243.3 116.301C243.3 115.823 243.395 115.441 243.3 115.154C243.3 111.045 239.095 108.179 235.273 107.128C233.457 106.65 231.546 106.459 229.731 106.172C227.342 105.885 224.953 105.599 222.659 104.834C215.397 102.35 210.332 94.6095 210.332 86.3915C210.332 86.3915 210.141 86.3915 209.855 86.3915Z" fill="#282828"/>
<path d="M168.583 67.9473C170.877 79.1275 173.075 91.0723 168.488 101.488C166.959 104.833 164.857 107.986 163.614 111.426C162.181 115.535 162.085 120.122 162.563 124.518C163.328 132.831 165.812 141.336 171.641 147.26C177.47 153.185 187.217 155.765 194.384 151.56C200.691 147.929 203.557 139.998 203.175 132.736C202.793 125.473 199.64 118.593 196.391 112.095C188.555 96.5191 179.381 81.5165 168.583 67.9473Z" fill="#F9B974"/>
<path d="M186.449 154.14C181.098 154.14 175.46 151.847 171.255 147.642C166.095 142.387 162.942 134.646 162.082 124.613C161.604 119.166 161.986 114.962 163.229 111.33C163.993 109.228 165.044 107.317 166 105.406C166.764 104.068 167.433 102.73 168.102 101.297C172.402 91.4543 170.682 80.3696 168.102 68.0426C168.102 67.8515 168.198 67.5648 168.389 67.4693C168.58 67.3737 168.867 67.4693 168.962 67.5648C179.091 80.274 188.456 95.1811 196.769 111.808C200.018 118.211 203.172 125.091 203.65 132.64C204.127 140.858 200.592 148.502 194.667 151.942C192.183 153.471 189.411 154.14 186.449 154.14ZM169.44 69.8582C171.829 81.6118 173.167 92.1232 168.962 101.775C168.293 103.208 167.529 104.641 166.86 105.979C165.904 107.795 164.853 109.706 164.089 111.713C162.846 115.153 162.56 119.262 163.037 124.517C163.897 134.264 166.955 141.813 171.924 146.973C178.04 153.185 187.596 155 194.094 151.274C199.732 148.025 203.076 140.762 202.598 132.831C202.216 125.473 199.063 118.688 195.909 112.381C187.978 96.5189 179.091 82.1852 169.44 69.8582Z" fill="#282828"/>
<path d="M184.724 122.417C184.915 116.493 184.15 113.148 183.959 108.657C186.348 107.415 188.928 106.65 191.604 106.173C192.75 105.981 194.184 105.886 195.044 106.65C195.617 107.128 198.293 104.739 198.58 105.408C200.491 109.899 200.682 116.397 202.593 120.984C202.784 121.366 209.569 120.697 209.664 121.08C210.333 122.513 209.76 134.84 209.282 135.127C184.437 151.658 172.492 128.055 172.492 128.055C172.492 128.055 177.079 125.189 184.724 122.417Z" fill="white"/>
<path d="M192.659 141.433C190.843 141.433 189.123 141.242 187.403 140.764C177.274 138.089 172.4 128.628 172.209 128.246C172.114 128.055 172.209 127.768 172.4 127.673C172.4 127.673 176.892 124.902 184.345 122.13C184.441 118.404 184.154 115.633 183.963 113.052C183.867 111.715 183.676 110.281 183.581 108.752C183.581 108.561 183.676 108.37 183.867 108.275C186.352 107.032 188.932 106.172 191.608 105.79C192.754 105.599 194.283 105.503 195.334 106.268C195.621 106.268 196.29 105.79 196.768 105.599C197.723 105.026 198.297 104.739 198.774 104.835C198.966 104.93 199.061 105.026 199.157 105.217C200.112 107.51 200.686 110.377 201.163 113.052C201.641 115.633 202.215 118.308 203.075 120.506C203.552 120.602 205.081 120.506 206.228 120.41C209.668 120.315 210.05 120.315 210.241 120.697C210.719 121.748 210.528 126.431 210.528 128.342C210.337 134.935 209.955 135.222 209.764 135.317C203.743 139.426 198.01 141.433 192.659 141.433ZM173.261 128.151C174.312 129.966 179.09 137.515 187.69 139.809C194.188 141.529 201.355 139.809 209.095 134.744C209.477 133.406 209.859 123.277 209.477 121.366C208.904 121.366 207.47 121.366 206.324 121.462C202.883 121.557 202.501 121.557 202.31 121.175C201.355 118.882 200.781 116.015 200.303 113.339C199.826 110.759 199.252 108.083 198.392 105.886C198.106 105.981 197.628 106.268 197.246 106.459C196.194 107.032 195.334 107.51 194.857 107.128C194.092 106.459 192.754 106.65 191.799 106.746C189.314 107.128 186.83 107.892 184.536 109.039C184.632 110.377 184.727 111.619 184.823 112.957C185.11 115.728 185.396 118.499 185.205 122.513C185.205 122.704 185.11 122.895 184.919 122.895C178.707 125.188 174.503 127.482 173.261 128.151Z" fill="#282828"/>
<path d="M166.091 70.7188C166.856 76.2612 167.907 81.9947 166.474 87.4415C165.709 90.4038 165.805 105.597 177.94 109.993C184.343 112.287 191.701 111.809 198.294 107.795C202.786 105.12 208.232 96.615 207.181 88.2059C210.908 89.2571 214.539 86.7726 214.635 83.428C214.635 81.5169 212.532 79.1279 210.335 79.2235C208.615 79.3191 208.423 79.3191 207.086 80.3702C206.226 76.4523 205.652 72.4389 205.748 67.9477C201.543 63.2653 194.759 60.9719 187.974 59.9208C185.776 59.5386 183.483 59.3474 181.189 59.6341C174.596 60.3986 165.327 65.0809 166.091 70.7188Z" fill="white"/>
<path d="M185.87 111.904C183.194 111.904 180.423 111.426 177.843 110.47C165.611 106.17 165.133 91.0722 166.089 87.3454C167.331 82.6631 166.662 77.5985 165.898 72.8206C165.802 72.1517 165.707 71.4828 165.611 70.8139C165.42 69.1894 165.898 67.6605 167.045 66.1316C169.911 62.4048 176.409 59.7292 180.996 59.1559C183.481 58.8692 186.061 59.1559 187.972 59.4425C193.61 60.3026 201.254 62.4048 206.032 67.6605C206.128 67.7561 206.128 67.8516 206.128 67.9472C206.032 71.7695 206.414 75.4963 207.37 79.6052C208.326 78.9363 208.708 78.9364 210.332 78.8408C211.479 78.7452 212.626 79.3186 213.581 80.1786C214.537 81.1342 215.206 82.3764 215.206 83.5231C215.206 85.1476 214.346 86.6765 213.008 87.7277C211.575 88.7788 209.663 89.2566 207.848 88.9699C208.612 97.4746 203.166 105.693 198.674 108.368C194.565 110.662 190.265 111.904 185.87 111.904ZM183.289 59.9203C182.525 59.9203 181.856 59.9203 181.092 60.0159C176.696 60.5892 170.485 63.0737 167.714 66.6094C166.662 67.9472 166.28 69.285 166.471 70.6228C166.567 71.2917 166.662 71.9606 166.758 72.6295C167.427 77.5985 168.191 82.6631 166.854 87.5366C166.28 89.5433 165.611 105.119 178.034 109.515C184.723 111.904 191.794 111.139 198.005 107.317C202.21 104.737 207.657 96.519 206.606 88.2055C206.606 88.0143 206.606 87.9188 206.797 87.8232C206.892 87.7277 207.083 87.7277 207.275 87.7277C208.995 88.2055 210.81 87.9188 212.244 86.8677C213.39 86.0076 214.059 84.7654 214.059 83.4276C214.059 82.5675 213.581 81.5164 212.721 80.752C211.957 79.9875 211.001 79.6052 210.141 79.6052C208.421 79.7008 208.326 79.7008 207.179 80.6564C207.083 80.7519 206.892 80.752 206.701 80.752C206.51 80.6564 206.414 80.5608 206.414 80.3697C205.459 75.974 204.981 72.0562 204.981 67.9472C200.394 62.9782 193.036 60.9715 187.685 60.207C186.538 60.1114 185.01 59.9203 183.289 59.9203Z" fill="#282828"/>
<path d="M192.654 92.9833C190.838 92.9833 189.118 92.3144 187.685 91.0721C185.965 89.6388 184.914 87.5365 184.627 85.2431C184.34 82.9497 184.818 80.6563 186.156 78.8407C187.398 77.0251 189.309 75.8784 191.412 75.5917C195.712 75.0184 199.821 78.4585 200.394 83.2364C200.967 88.0143 198.005 92.3144 193.609 92.8877C193.323 92.9833 192.94 92.9833 192.654 92.9833ZM192.272 76.5473C191.985 76.5473 191.698 76.5473 191.507 76.6429C189.691 76.834 188.067 77.8851 186.92 79.5096C185.774 81.1341 185.296 83.1408 185.582 85.2431C185.869 87.3454 186.825 89.161 188.354 90.4988C189.883 91.741 191.698 92.3144 193.514 92.1233C197.336 91.6455 200.012 87.7276 199.438 83.5231C198.865 79.4141 195.807 76.5473 192.272 76.5473Z" fill="#282828"/>
<path d="M170.677 94.0348C166.664 94.0348 163.224 90.7859 162.65 86.2946C162.364 84.0012 162.841 81.7079 164.179 79.8923C165.422 78.0767 167.333 76.93 169.435 76.6433C171.537 76.3566 173.639 77.0255 175.36 78.4589C177.08 79.8923 178.131 81.9945 178.417 84.2879C178.991 89.0658 176.028 93.3659 171.633 93.9393C171.251 94.0348 170.964 94.0348 170.677 94.0348ZM170.295 77.5033C170.008 77.5033 169.722 77.5033 169.435 77.5989C167.619 77.79 165.995 78.8411 164.848 80.4656C163.701 82.0901 163.224 84.0968 163.51 86.1991C164.084 90.4992 167.619 93.557 171.442 92.9837C175.264 92.5059 177.94 88.588 177.366 84.3835C177.08 82.2812 176.124 80.4656 174.595 79.1278C173.353 78.0766 171.824 77.5033 170.295 77.5033Z" fill="#282828"/>
<path d="M206.507 80.8461C202.971 75.3037 200.774 71.3859 199.627 64.6012C186.44 72.3414 174.017 71.0036 161.404 70.5258C161.117 68.4236 161.595 66.2257 162.455 64.1234C164.653 59.1544 167.328 54.8543 174.973 51.4142C180.324 49.0253 187.491 47.4964 193.224 48.2608C198.958 49.1209 203.927 52.1787 207.94 55.9055C211.094 58.8678 213.865 63.7412 214.821 68.5191C215.681 72.6281 214.629 75.686 212.814 79.795C211.763 79.2216 210.807 78.6483 209.565 78.9349C208.323 79.4127 207.463 79.9861 206.507 80.8461Z" fill="#F9B974"/>
<path d="M206.511 81.3252C206.32 81.3252 206.224 81.2297 206.129 81.1341C202.88 76.1651 200.491 72.0561 199.249 65.3671C187.304 72.1517 175.741 71.6739 164.561 71.1961C163.51 71.1961 162.459 71.1005 161.312 71.1005C161.121 71.1005 160.93 70.9094 160.834 70.7183C160.548 68.616 160.93 66.3226 161.981 64.1248C163.988 59.538 166.568 54.8557 174.69 51.2245C179.468 49.1222 186.826 47.1155 193.228 48.0711C198.389 48.8355 203.358 51.4156 208.136 55.8113C211.48 58.9647 214.156 63.8381 215.111 68.7116C215.971 73.1072 214.729 76.4518 213.009 80.2741C212.913 80.3697 212.818 80.4652 212.722 80.5608C212.627 80.5608 212.436 80.5608 212.34 80.5608L212.244 80.4652C211.289 79.9874 210.429 79.5096 209.473 79.7007C208.327 79.8919 207.658 80.4652 206.702 81.3252C206.702 81.3252 206.607 81.3252 206.511 81.3252ZM199.631 64.2204C199.726 64.2204 199.726 64.2204 199.822 64.2204C199.918 64.3159 200.109 64.4115 200.109 64.6026C201.255 71.2916 203.549 75.4006 206.702 80.1785C207.562 79.5096 208.327 78.9363 209.473 78.6496C210.62 78.4585 211.576 78.8407 212.531 79.3185C214.347 75.114 215.016 72.4383 214.347 68.7116C213.391 64.1248 210.811 59.2513 207.658 56.3846C203.071 52.0845 198.197 49.6 193.228 48.8355C187.017 47.9755 179.85 49.8867 175.168 51.8934C167.332 55.3335 164.848 59.9203 162.937 64.3159C162.077 66.2271 161.694 68.2338 161.885 70.0494C162.841 70.0494 163.797 70.1449 164.657 70.1449C175.932 70.6227 187.495 71.1961 199.44 64.1248C199.44 64.2204 199.535 64.2204 199.631 64.2204Z" fill="#282828"/>
<path d="M187.502 101.966C186.547 101.966 185.687 101.679 185.018 101.106C184.827 100.915 184.827 100.628 184.922 100.437C185.113 100.246 185.4 100.246 185.591 100.342C186.451 101.106 187.789 101.202 189.222 100.628C190.751 99.9594 191.993 98.8127 192.758 97.1882C192.853 96.9971 193.14 96.806 193.427 96.9971C193.618 97.0927 193.809 97.3794 193.618 97.666C192.758 99.4816 191.325 100.819 189.604 101.584C188.84 101.871 188.171 101.966 187.502 101.966Z" fill="#282828"/>
<path d="M216.925 67.4697C221.13 55.6205 219.505 43.0069 205.65 37.9423C191.507 32.7822 182.907 35.6489 172.969 48.167C187.876 51.8938 205.458 59.1562 216.925 67.4697Z" fill="white"/>
<path d="M216.927 67.9479C216.832 67.9479 216.736 67.9479 216.64 67.8524C205.938 60.1122 188.738 52.5631 172.875 48.6452C172.684 48.6452 172.588 48.4541 172.493 48.3586C172.397 48.1674 172.493 48.0719 172.588 47.8808C177.748 41.3828 182.526 37.5605 187.591 35.936C192.655 34.3115 198.484 34.7893 205.842 37.465C212.531 39.8539 216.736 44.0585 218.552 49.983C220.081 55.0476 219.698 61.1633 217.405 67.5657C217.309 67.6613 217.214 67.8524 217.118 67.8524C217.023 67.9479 216.927 67.9479 216.927 67.9479ZM173.831 47.9763C189.406 51.8942 206.034 59.1566 216.736 66.8012C221.323 53.232 217.118 42.7206 205.46 38.4205C191.795 33.4515 183.482 35.936 173.831 47.9763Z" fill="#282828"/>
<path d="M192.077 84.6707C191.981 84.0018 191.312 83.524 190.643 83.6196C189.879 83.7152 189.401 84.3841 189.496 85.053C189.592 85.7219 190.261 86.1997 190.93 86.1041C191.694 86.0085 192.172 85.3396 192.077 84.6707Z" fill="#282828"/>
<path d="M172.498 85.7215C172.403 85.0526 171.734 84.5748 171.065 84.6704C170.301 84.7659 169.823 85.4348 169.918 86.1037C170.014 86.7727 170.683 87.2504 171.352 87.1549C172.116 87.0593 172.594 86.3904 172.498 85.7215Z" fill="#282828"/>
<path d="M179.858 93.7495C179.762 93.7495 179.762 93.7495 179.667 93.7495L177.851 93.0806C177.66 92.985 177.182 92.7939 177.086 92.4117C176.895 91.9339 177.182 91.4561 177.373 91.265C178.711 89.4494 179.189 87.156 178.615 84.9581C178.52 84.6715 178.711 84.4803 178.902 84.3848C179.189 84.2892 179.38 84.4804 179.475 84.6715C180.144 87.0604 179.667 89.736 178.138 91.7428C178.138 91.8383 177.946 91.9339 177.946 92.0294C177.946 92.0294 178.042 92.0294 178.138 92.125L179.953 92.7939C180.24 92.8895 180.335 93.1761 180.24 93.3672C180.24 93.6539 180.049 93.7495 179.858 93.7495Z" fill="#282828"/>
<path d="M177.564 83.0474C177.277 83.0474 177.086 82.8563 177.086 82.5696C177.086 81.3274 178.233 80.4674 179.475 80.1807C181.386 79.7029 183.584 80.1807 185.113 81.5185C185.304 81.7096 185.304 81.9963 185.113 82.1874C184.922 82.3785 184.635 82.3785 184.444 82.1874C183.202 81.1363 181.29 80.6585 179.666 81.1363C178.806 81.3274 178.042 81.9007 178.042 82.5696C178.042 82.8563 177.85 83.0474 177.564 83.0474Z" fill="#282828"/>
<path d="M199.439 80.9439C199.152 80.9439 198.961 80.7527 198.961 80.4661C198.961 80.1794 199.152 79.9883 199.439 79.9883H205.937C206.223 79.9883 206.414 80.1794 206.414 80.4661C206.414 80.7527 206.223 80.9439 205.937 80.9439H199.439Z" fill="#282828"/>
<path d="M207.079 85.4352C206.792 85.4352 206.601 85.2441 206.601 84.9574C206.601 83.3329 206.314 81.804 205.645 80.2751C205.55 79.9884 205.645 79.7973 205.932 79.6061C206.219 79.5106 206.41 79.6061 206.601 79.8928C207.27 81.4218 207.652 83.2374 207.556 84.9574C207.556 85.2441 207.365 85.4352 207.079 85.4352Z" fill="#282828"/>
<path d="M254.662 173.157C248.929 157.485 245.775 142.005 232.206 130.633C225.708 125.187 217.873 121.364 208.795 120.791C208.221 129.582 198.092 135.316 192.645 135.985C189.683 136.367 178.694 137.8 178.694 124.804C175.063 126.238 163.118 127.671 158.34 142.483C156.333 148.503 152.893 171.532 141.331 184.91C138.559 188.064 136.075 167.041 132.157 168.474C128.335 169.812 123.844 172.106 123.557 176.215C123.366 179.368 125.946 182.139 128.908 183.477C135.215 186.153 137.604 199.34 144.388 200.295C151.46 201.251 162.736 203.926 171.24 177.17C175.636 181.566 178.407 186.248 183.281 188.828C197.423 196.473 244.342 204.978 251.987 206.315C252.656 206.411 254.089 205.933 254.28 205.36C255.905 201.537 260.109 187.968 254.662 173.157Z" fill="white"/>
<path d="M252.083 206.793C251.987 206.793 251.891 206.793 251.796 206.793C242.718 205.168 197.041 196.855 182.994 189.21C179.554 187.395 177.165 184.623 174.681 181.661C173.63 180.419 172.578 179.177 171.432 178.03C167.8 189.115 163.405 195.995 157.958 199.244C153.18 202.015 148.689 201.346 144.962 200.868C144.675 200.868 144.484 200.773 144.293 200.773C140.471 200.199 137.986 196.09 135.597 191.981C133.591 188.637 131.488 185.101 128.717 183.955C125.755 182.712 122.888 179.846 123.079 176.31C123.366 172.87 126.233 170.194 131.966 168.092C132.348 167.901 132.826 167.996 133.208 168.187C135.024 169.143 136.457 173.539 137.795 177.839C138.655 180.706 139.898 184.623 140.758 184.815C140.853 184.815 140.949 184.719 140.949 184.623C150.122 174.016 154.327 156.912 156.525 147.738C157.098 145.445 157.576 143.534 157.958 142.387C162.163 129.486 172.005 126.524 176.687 125.091C177.452 124.9 178.121 124.709 178.599 124.517C178.79 124.422 178.885 124.517 179.076 124.613C179.172 124.709 179.267 124.804 179.267 124.995C179.267 128.913 180.319 131.78 182.325 133.595C185.574 136.462 190.639 135.889 192.55 135.698H192.646C197.901 135.029 207.839 129.486 208.413 120.982C208.413 120.886 208.508 120.695 208.604 120.695C208.699 120.6 208.795 120.6 208.986 120.6C217.395 121.173 225.326 124.517 232.684 130.538C243.96 139.998 248.069 152.134 252.465 165.034C253.325 167.71 254.28 170.481 255.332 173.252C260.205 186.63 257.338 200.008 254.949 205.742C254.376 206.22 252.943 206.793 252.083 206.793ZM171.145 176.597C171.241 176.597 171.432 176.692 171.527 176.692C172.961 178.125 174.203 179.559 175.445 180.992C177.93 183.859 180.319 186.63 183.568 188.35C197.519 195.899 243.1 204.213 252.083 205.837C252.56 205.933 253.707 205.455 253.898 205.073C254.185 204.499 260.301 189.688 254.28 173.252C253.229 170.481 252.369 167.71 251.414 165.034C247.114 152.229 243.005 140.189 231.92 130.92C224.944 125.091 217.299 121.842 209.273 121.173C208.795 126.046 205.546 129.582 202.87 131.684C199.812 134.169 195.799 135.984 192.741 136.367H192.646C190.639 136.653 185.192 137.227 181.656 134.073C179.554 132.162 178.407 129.295 178.312 125.378C177.93 125.473 177.452 125.664 176.974 125.76C172.101 127.289 162.927 129.964 158.914 142.482C158.531 143.629 158.054 145.445 157.576 147.834C155.378 157.103 151.173 174.303 141.809 185.101C141.426 185.579 140.949 185.675 140.662 185.579C139.42 185.292 138.464 182.617 137.031 177.934C135.884 174.208 134.451 169.525 132.922 168.856C132.731 168.761 132.54 168.761 132.348 168.856C126.997 170.768 124.322 173.156 124.035 176.214C123.844 179.272 126.519 181.852 129.1 182.999C132.157 184.337 134.355 187.968 136.362 191.408C138.751 195.421 140.949 199.244 144.389 199.722C144.58 199.722 144.867 199.817 145.153 199.817C152.129 200.868 162.64 202.397 170.763 176.979C170.858 176.788 170.954 176.692 171.145 176.692C171.145 176.597 171.145 176.597 171.145 176.597Z" fill="#282828"/>
<path d="M152.514 204.884C163.216 205.075 173.919 205.362 184.621 205.553V200.106L148.883 199.246L152.514 204.884Z" fill="white"/>
<path d="M184.622 206.126L152.515 205.457C152.324 205.457 152.228 205.361 152.133 205.266L148.501 199.628C148.406 199.437 148.406 199.246 148.501 199.15C148.597 198.959 148.692 198.863 148.884 198.863L184.622 199.723C184.909 199.723 185.1 199.914 185.1 200.201V205.648C185.1 205.743 185.004 205.935 184.909 206.03C184.909 206.03 184.718 206.126 184.622 206.126ZM152.801 204.406L184.144 205.075V200.583L149.839 199.723L152.801 204.406Z" fill="#282828"/>
<path d="M237.862 188.256C224.962 187.492 212.061 186.632 199.065 185.772C197.919 185.581 192.185 184.72 190.752 184.529C189.51 184.338 188.363 183.86 187.312 183.383C183.489 181.567 175.176 178.127 173.36 179.178C169.06 180.42 165.238 183.478 162.276 187.396C160.555 189.594 159.218 193.225 159.887 193.798C160.364 194.181 161.033 194.372 161.511 193.99C163.518 189.69 167.053 186.154 171.449 184.147C169.442 185.294 167.531 186.632 165.907 188.256C164.187 189.881 162.658 191.792 162.276 194.085C162.276 194.276 162.18 194.467 162.276 194.658C162.467 195.041 163.136 194.85 163.422 194.563C164.091 193.99 172.978 186.823 174.602 187.014C172.405 187.874 164.569 194.181 164.473 194.85C164.473 195.136 164.473 195.519 164.76 195.805C165.047 196.187 165.524 196.283 166.002 196.187C166.48 196.092 166.862 195.901 167.245 195.614C169.825 194.085 172.118 192.174 174.794 191.027C176.131 190.454 177.851 190.167 179.094 190.932C176.609 191.887 174.411 193.225 172.405 194.945C172.118 195.232 171.831 195.519 171.64 195.901C171.354 196.474 170.971 197.239 171.449 197.621C172.118 198.385 172.691 198.003 173.265 197.621C175.654 196.092 178.043 194.754 180.527 193.798C181.292 193.512 182.247 193.225 182.916 193.703C183.489 194.085 186.452 195.901 192.567 196.283C194.67 196.379 196.676 196.952 199.256 197.621C233.371 207.081 243.595 210.808 251.909 207.272C253.533 206.603 254.107 205.743 253.533 202.972C251.909 195.519 250.571 191.314 237.862 188.256Z" fill="white"/>
<path d="M244.833 209.087C238.336 209.087 228.971 206.507 211.388 201.538C207.661 200.487 203.552 199.34 198.966 198.098C196.577 197.429 194.474 196.856 192.372 196.76C186.639 196.474 183.581 194.849 182.53 194.18C181.956 193.798 181.192 194.085 180.523 194.371C178.038 195.327 175.745 196.569 173.356 198.194H173.261C172.687 198.576 171.827 199.054 170.872 198.098C170.107 197.334 170.776 196.187 171.063 195.805C171.254 195.423 171.541 195.04 171.923 194.754C173.547 193.225 175.458 191.983 177.656 191.027C176.701 190.836 175.65 191.218 174.885 191.505C173.069 192.269 171.445 193.32 169.821 194.467C169.056 195.04 168.196 195.614 167.336 196.092C166.954 196.378 166.476 196.569 165.998 196.665C165.329 196.76 164.66 196.569 164.374 196.092C164.087 195.805 163.991 195.327 163.991 194.849C163.991 194.754 164.087 194.658 164.183 194.467C164.087 194.563 164.087 194.563 163.991 194.658C163.8 194.754 163.705 194.849 163.705 194.945C163.418 195.232 162.845 195.423 162.463 195.327C162.176 195.327 161.985 195.136 161.889 194.945C161.794 194.754 161.794 194.658 161.794 194.467C161.22 194.849 160.36 194.849 159.691 194.18C158.545 193.129 160.551 189.02 161.985 187.109C165.234 182.905 169.152 179.942 173.261 178.796C175.458 177.649 184.059 181.376 187.594 183C188.454 183.382 189.697 183.956 190.939 184.051C191.321 184.147 191.99 184.242 192.85 184.338C195.048 184.625 198.392 185.102 199.348 185.293C212.057 186.153 225.149 187.109 238.144 187.778H238.24C251.236 190.836 252.669 195.327 254.103 202.781C254.676 205.552 254.198 206.794 252.191 207.654C249.802 208.61 247.509 209.087 244.833 209.087ZM181.956 193.034C182.339 193.034 182.721 193.129 183.103 193.32C184.154 193.989 187.021 195.518 192.563 195.805C194.761 195.9 196.863 196.474 199.348 197.143C203.935 198.385 208.044 199.532 211.77 200.583C236.329 207.463 244.642 209.756 251.618 206.794C252.956 206.221 253.529 205.647 252.956 202.972C251.523 195.614 250.185 191.6 237.858 188.638C224.862 187.874 211.77 187.014 199.061 186.153C198.201 186.058 194.857 185.485 192.563 185.198C191.703 185.102 191.034 185.007 190.652 184.911C189.314 184.72 187.977 184.147 187.021 183.765C180.045 180.611 174.694 178.891 173.452 179.464H173.356C169.438 180.611 165.616 183.478 162.463 187.491C160.742 189.689 159.787 192.843 160.074 193.32C160.265 193.511 160.647 193.703 160.934 193.511C162.94 189.211 166.667 185.58 170.967 183.573C171.158 183.478 171.445 183.573 171.541 183.765C171.636 183.956 171.541 184.242 171.349 184.433C169.343 185.58 167.527 186.918 165.903 188.447C163.8 190.454 162.749 192.174 162.367 193.989C162.367 194.085 162.367 194.18 162.367 194.18C162.463 194.18 162.654 194.085 162.845 193.989C162.94 193.989 163.036 193.894 163.131 193.798C172.687 186.153 173.929 186.345 174.407 186.345C174.598 186.345 174.79 186.536 174.79 186.727C174.79 186.918 174.694 187.109 174.503 187.205C172.496 187.969 165.329 193.703 164.756 194.754C164.756 194.945 164.851 195.136 164.947 195.327C165.138 195.518 165.425 195.614 165.712 195.518C166.094 195.423 166.38 195.232 166.763 195.04C167.623 194.563 168.387 193.989 169.247 193.416C170.872 192.269 172.592 191.122 174.407 190.358C175.745 189.785 177.656 189.307 179.09 190.358C179.281 190.454 179.281 190.645 179.281 190.836C179.281 191.027 179.185 191.123 178.994 191.218C176.51 192.174 174.312 193.511 172.496 195.136C172.209 195.423 172.018 195.709 171.827 195.996C171.349 196.856 171.445 197.143 171.541 197.238C171.923 197.62 172.114 197.525 172.783 197.238C175.172 195.614 177.561 194.371 180.141 193.416C180.714 193.225 181.287 193.034 181.956 193.034Z" fill="#282828"/>
<path d="M61.3594 155.193L131.117 155.576L155.197 204.883L86.1089 204.692L61.3594 155.193Z" fill="#F9B974"/>
<path d="M155.196 205.36L86.1078 205.169C85.9167 205.169 85.7256 205.074 85.7256 204.883L61.0717 155.288C60.9761 155.097 60.9761 155.001 61.0717 154.81C61.1672 154.715 61.3583 154.619 61.4539 154.619L131.211 155.001C131.402 155.001 131.593 155.097 131.593 155.288L155.674 204.691C155.77 204.883 155.77 204.978 155.674 205.169C155.483 205.265 155.292 205.36 155.196 205.36ZM86.3945 204.309L154.432 204.5L130.829 156.053L62.1228 155.67L86.3945 204.309Z" fill="#282828"/>
<path d="M105.496 175.26C103.49 175.068 101.387 175.642 100.527 177.457C99.7628 179.273 100.336 181.566 101.769 182.904C103.203 184.242 105.401 184.72 107.312 184.242C108.363 184.051 109.414 183.478 109.987 182.618C110.37 182.044 110.561 181.28 110.561 180.515C110.752 178.031 109.605 175.642 105.496 175.26Z" fill="white"/>
<path d="M105.971 184.816C104.347 184.816 102.722 184.243 101.576 183.192C99.9512 181.663 99.2823 179.178 100.142 177.172C100.907 175.356 103.009 174.496 105.589 174.783C110.271 175.26 111.227 178.127 111.227 180.421C111.227 181.376 110.94 182.141 110.558 182.81C109.794 183.956 108.551 184.434 107.596 184.625C107.022 184.816 106.449 184.816 105.971 184.816ZM104.729 175.738C103.582 175.738 101.671 176.025 101.002 177.649C100.333 179.274 100.811 181.281 102.149 182.523C103.487 183.67 105.398 184.147 107.309 183.765C108.36 183.478 109.22 183.001 109.698 182.332C110.08 181.663 110.176 180.994 110.176 180.516C110.176 177.649 108.647 176.12 105.398 175.834C105.302 175.738 105.016 175.738 104.729 175.738Z" fill="#282828"/>
<path d="M230.115 188.352C229.923 188.352 229.732 188.256 229.637 188.065C224.763 173.349 221.992 164.08 221.992 143.917C221.992 143.631 222.183 143.439 222.47 143.439C222.757 143.439 222.948 143.631 222.948 143.917C222.948 163.889 225.719 173.158 230.497 187.778C230.592 188.065 230.401 188.256 230.21 188.352C230.21 188.256 230.21 188.352 230.115 188.352Z" fill="#282828"/>
<path d="M171.161 177.554C170.97 177.554 170.874 177.458 170.779 177.363C164.472 168.38 166.192 161.787 167.817 155.384C168.677 152.231 169.441 148.886 169.345 145.255C169.345 144.968 169.537 144.777 169.823 144.777C170.11 144.777 170.301 144.968 170.301 145.255C170.397 148.982 169.537 152.326 168.772 155.575C167.148 162.073 165.523 168.093 171.543 176.789C171.734 176.98 171.639 177.267 171.448 177.458C171.352 177.554 171.257 177.554 171.161 177.554Z" fill="#282828"/>
<path d="M207.276 77.5989C207.18 77.5989 207.18 77.5989 207.18 77.5034C205.843 75.4011 204.696 73.2033 203.836 70.9099C203.836 70.8143 203.836 70.7188 203.931 70.7188C204.027 70.7188 204.123 70.7187 204.123 70.8143C204.983 73.1077 206.129 75.3055 207.467 77.4078C207.467 77.4078 207.372 77.5034 207.276 77.5989Z" fill="#282828"/>
<path d="M209.761 77.1228C209.666 77.1228 209.666 77.1227 209.666 77.0272L208.328 74.5427C208.328 74.4471 208.328 74.3516 208.424 74.3516C208.519 74.3516 208.615 74.3516 208.615 74.4471L209.953 76.9316C209.953 76.9316 209.857 77.0272 209.761 77.1228Z" fill="#282828"/>
<path d="M191.608 155.384C185.301 155.384 178.899 154.811 172.783 153.282C172.688 153.282 172.688 153.186 172.688 153.091C172.688 152.995 172.783 152.995 172.879 152.995C188.455 156.913 205.368 154.524 220.18 152.422C220.275 152.422 220.371 152.517 220.371 152.517C220.371 152.613 220.275 152.709 220.275 152.709C211.102 154.046 201.355 155.384 191.608 155.384Z" fill="#282828"/>
<path d="M197.235 167.616C187.966 167.616 178.601 166.469 169.619 164.271C169.523 164.271 169.523 164.175 169.523 164.08C169.523 163.984 169.619 163.984 169.715 163.984C186.246 167.998 203.829 168.38 220.456 164.94C220.551 164.94 220.647 164.94 220.647 165.036C220.647 165.131 220.647 165.227 220.551 165.227C212.907 166.851 205.071 167.616 197.235 167.616Z" fill="#282828"/>
<path d="M255.73 192.268C255.73 192.268 255.635 192.268 255.635 192.173C249.806 185.292 240.25 181.852 231.363 183.381C231.267 183.381 231.172 183.381 231.172 183.286C231.172 183.19 231.172 183.095 231.267 183.095C240.25 181.566 249.901 185.101 255.826 191.981C255.921 192.077 255.921 192.173 255.826 192.173C255.826 192.268 255.826 192.268 255.73 192.268Z" fill="#282828"/>
<path d="M254.68 185.963C253.629 185.581 252.865 184.912 252.196 184.243C251.909 184.052 251.622 183.765 251.431 183.574C249.807 182.236 247.8 181.376 245.698 180.994C245.602 180.994 245.507 180.899 245.602 180.803C245.602 180.708 245.698 180.612 245.793 180.708C247.991 180.994 249.998 181.95 251.718 183.288C252.004 183.479 252.291 183.765 252.482 183.957C253.247 184.625 253.916 185.294 254.871 185.677C254.967 185.677 254.967 185.772 254.967 185.868C254.776 185.963 254.776 185.963 254.68 185.963Z" fill="#282828"/>
<path d="M147.648 49.9821C150.993 43.4841 168.671 43.7708 177.176 43.8664C190.076 44.7264 211.672 55.1422 218.266 62.6913C225.815 71.1959 233.173 81.6117 230.115 86.7719C229.828 79.1272 213.01 64.9847 196.479 57.8178C177.08 49.5998 152.617 44.0575 147.648 49.9821Z" fill="white"/>
<path d="M230.116 87.2493H230.021C229.83 87.1538 229.639 87.0582 229.639 86.7715C229.352 79.5091 212.82 65.3665 196.289 58.2953C176.795 49.9817 152.714 44.726 147.937 50.364C147.745 50.5551 147.554 50.5551 147.268 50.4595C147.077 50.364 146.981 50.0773 147.077 49.8862C150.421 43.2927 167.526 43.3882 176.7 43.4838H177.082C190.364 44.3438 212.056 55.1419 218.554 62.4998C229.065 74.4446 233.079 82.7581 230.499 87.1538C230.499 87.1538 230.308 87.2493 230.116 87.2493ZM156.346 47.0194C159.69 47.0194 163.417 47.4972 166.761 48.0706C175.839 49.695 186.733 53.1351 196.671 57.3397C212.629 64.1243 227.919 76.9291 230.308 84.8604C231.072 80.5603 226.867 73.0112 217.885 62.882C211.483 55.6196 190.173 45.1083 177.082 44.2482H176.795C169.819 44.1527 156.441 44.0571 150.517 47.6883C152.141 47.2105 154.148 47.0194 156.346 47.0194Z" fill="#282828"/>
<path d="M216.734 58.1058C216.734 58.1058 216.639 58.1058 216.639 58.0103C213.199 54.3791 208.803 51.8946 204.598 49.6967C197.527 45.97 189.883 42.4343 181.76 41.5743C181.665 41.5743 181.569 41.4787 181.665 41.3832C181.665 41.2876 181.76 41.1921 181.856 41.2876C190.074 42.1476 197.718 45.6833 204.79 49.4101C209.09 51.6079 213.485 54.0924 216.925 57.8191C217.021 57.9147 217.021 58.0103 216.925 58.0103C216.83 58.1058 216.734 58.1058 216.734 58.1058Z" fill="#282828"/>
<path d="M216.744 54.6654C216.649 54.6654 216.649 54.6654 216.649 54.5698C216.075 53.7098 215.406 52.9454 214.642 52.2765C214.546 52.1809 214.546 52.0853 214.642 52.0853C214.738 51.9898 214.833 51.9898 214.833 52.0853C215.693 52.7542 216.362 53.6143 216.935 54.4743C216.935 54.4743 216.935 54.5699 216.744 54.6654C216.84 54.6654 216.84 54.5699 216.744 54.6654Z" fill="#282828"/>
<path d="M164.472 67.2792C164.377 67.2792 164.281 67.1837 164.281 67.0881C165.619 63.3614 167.912 59.9213 170.97 57.3412C171.066 57.2456 171.161 57.2456 171.161 57.3412C171.257 57.4368 171.257 57.5323 171.161 57.5323C168.104 60.1124 165.906 63.3614 164.568 67.0881C164.663 67.2792 164.568 67.2792 164.472 67.2792Z" fill="#282828"/>
<path d="M167.722 67.3738C167.627 67.3738 167.531 67.2783 167.531 67.1827C167.913 66.1316 168.487 65.176 169.347 64.4115C169.442 64.316 169.538 64.316 169.538 64.4115C169.634 64.5071 169.634 64.6026 169.538 64.6026C168.773 65.3671 168.2 66.3227 167.818 67.2783C167.913 67.3738 167.818 67.3738 167.722 67.3738Z" fill="#282828"/>
<path d="M248.659 141.909H248.564C248.468 141.814 248.468 141.718 248.564 141.718C250.666 139.234 251.335 135.698 250.284 132.545C250.284 132.449 250.284 132.354 250.379 132.354C250.475 132.354 250.571 132.354 250.571 132.449C251.622 135.602 250.953 139.329 248.755 141.909C248.755 141.814 248.755 141.909 248.659 141.909Z" fill="#282828"/>
<path d="M247.701 134.265C247.605 134.265 247.509 134.169 247.509 134.074C247.509 132.832 247.127 131.494 246.363 130.538C246.267 130.443 246.363 130.347 246.363 130.347C246.458 130.252 246.554 130.347 246.554 130.347C247.318 131.398 247.796 132.736 247.796 134.074C247.892 134.169 247.796 134.265 247.701 134.265Z" fill="#282828"/>
<path d="M35.552 172.968C38.2796 171.519 42.0301 169.559 45.0987 169.729C48.1672 169.9 50.2129 171.434 51.2358 174.332C53.9634 182.685 37.683 187.032 34.4439 185.839C33.5916 185.583 32.7392 185.072 32.5687 184.22C32.3982 183.197 33.2506 182.259 34.2735 182.003C35.2963 181.748 36.3192 181.918 37.342 182.003C40.4106 182.174 43.4791 181.066 45.6953 178.935C46.6329 178.082 47.4001 176.889 47.1444 175.696C46.8034 173.821 44.502 173.139 42.6268 173.48C40.7515 173.821 39.132 174.843 37.2568 175.014C36.2339 175.099 34.9554 174.758 34.7849 173.735C34.6144 172.627 35.2963 173.053 35.552 172.968Z" fill="white"/>
<path d="M35.8891 186.522C35.2072 186.522 34.6105 186.437 34.2696 186.352C33.0763 185.926 32.3091 185.244 32.1387 184.391C31.8829 183.113 32.991 182.005 34.1844 181.664C35.0367 181.408 35.8891 181.493 36.6563 181.579C36.912 181.579 37.0824 181.664 37.3382 181.664C40.2362 181.834 43.2196 180.726 45.3505 178.766C45.9472 178.169 46.8848 177.061 46.7143 175.868C46.6291 175.356 46.2881 174.93 45.8619 174.504C45.0948 173.992 43.8162 173.737 42.7934 173.907C42.0262 174.078 41.2591 174.333 40.4067 174.589C39.4691 174.93 38.4463 175.356 37.3382 175.441C36.0596 175.612 34.6106 175.015 34.3548 173.737C34.2696 173.396 34.2696 172.969 34.5253 172.714C34.781 172.458 35.122 172.458 35.3777 172.543C35.3777 172.543 35.3777 172.543 35.4629 172.543C38.5315 170.924 42.1115 169.134 45.18 169.304C48.5043 169.475 50.6353 171.094 51.6581 174.248C52.4252 176.72 51.7433 179.107 49.6976 181.152C46.0324 184.647 39.3839 186.522 35.8891 186.522ZM35.2925 182.346C34.9515 182.346 34.6105 182.346 34.2696 182.431C33.5025 182.601 32.7353 183.368 32.9058 184.136C33.0763 184.818 33.8434 185.244 34.5253 185.499C36.7415 186.267 45.0948 184.391 49.0157 180.556C50.891 178.68 51.4876 176.635 50.8057 174.504C49.8681 171.776 47.9929 170.327 45.0948 170.157C42.1967 169.986 38.7872 171.691 35.8039 173.31C35.6334 173.396 35.4629 173.396 35.2925 173.396H35.2072C35.2072 173.481 35.2072 173.566 35.2072 173.651C35.2925 174.419 36.4858 174.674 37.2529 174.589C38.1905 174.504 39.1282 174.163 40.0658 173.822C40.8329 173.566 41.6853 173.225 42.5377 173.055C43.9015 172.799 45.2653 173.055 46.2881 173.737C46.97 174.248 47.3962 174.845 47.5667 175.612C47.8224 177.146 46.7996 178.425 45.9472 179.277C43.6458 181.493 40.4067 182.601 37.2529 182.431C36.9972 182.431 36.7415 182.431 36.4858 182.346C36.0596 182.346 35.7186 182.346 35.2925 182.346Z" fill="#282828"/>
<path d="M0.439896 166.831C0.26942 182.43 9.21939 192.658 20.3855 192.658C39.3083 192.658 40.9278 171.349 41.0131 166.746L0.439896 166.831Z" fill="white"/>
<path d="M20.2944 192.999C15.3506 192.999 10.833 191.039 7.25298 187.459C2.47966 182.6 -0.162708 175.27 0.00776797 166.746C0.00776797 166.49 0.178244 166.32 0.433957 166.32L41.0071 166.234C41.0924 166.234 41.2629 166.32 41.3481 166.32C41.4333 166.405 41.4333 166.49 41.4333 166.661C41.2629 171.093 39.7286 192.999 20.2944 192.999ZM0.860146 167.172C0.860146 175.27 3.33204 182.259 7.93488 186.862C11.3444 190.357 15.6915 192.147 20.3796 192.147C38.45 192.147 40.4105 172.201 40.581 167.087L0.860146 167.172Z" fill="#282828"/>
<path d="M22.9347 162.484C24.0427 160.268 24.2132 157.2 23.2756 154.642C22.5085 152.597 21.1447 150.892 20.207 148.932C19.0989 146.374 18.8432 143.306 19.099 140.578C19.3547 137.851 20.2923 135.208 21.1447 132.736C21.0594 136.487 21.997 140.408 23.7018 143.647C24.8099 145.692 26.1737 147.482 26.9408 149.784C28.3046 154.131 26.5146 158.819 22.9347 162.484Z" fill="#F9B974"/>
<path d="M22.9346 162.91C22.8494 162.91 22.7641 162.91 22.6789 162.825C22.5084 162.74 22.4232 162.484 22.5084 162.313C23.6165 160.183 23.7018 157.284 22.7641 154.813C22.338 153.704 21.7413 152.767 21.1446 151.744C20.6332 150.892 20.1218 150.039 19.6956 149.102C18.5875 146.715 18.2465 143.646 18.5875 140.493C18.9284 137.595 19.7808 134.952 20.7184 132.565C20.8037 132.395 20.9742 132.225 21.2299 132.31C21.4003 132.31 21.5708 132.565 21.5708 132.736C21.4856 136.401 22.338 140.237 24.0427 143.391C24.3837 143.987 24.7246 144.669 25.1508 145.266C26.0032 146.63 26.7703 147.994 27.2817 149.613C28.5603 153.875 27.026 158.819 23.1903 162.825C23.1903 162.825 23.0199 162.91 22.9346 162.91ZM20.8037 134.952C20.207 136.742 19.6956 138.617 19.5251 140.578C19.1842 143.561 19.5251 146.459 20.548 148.761C20.9742 149.613 21.4856 150.465 21.9118 151.318C22.5084 152.341 23.1903 153.364 23.6165 154.557C24.2984 156.432 24.4689 158.648 24.0427 160.523C26.5998 157.114 27.5375 153.278 26.5146 149.869C26.0884 148.334 25.236 147.056 24.4689 145.692C24.128 145.095 23.7018 144.414 23.3608 143.817C21.9118 141.089 21.0594 138.021 20.8037 134.952Z" fill="#282828"/>
<path d="M17.0446 162.485C18.2379 161.718 19.1756 160.524 19.6017 159.16C20.0279 157.797 19.9427 156.262 19.2608 154.984C18.8346 154.217 18.1527 153.62 17.6413 152.938C17.1298 152.256 16.6184 151.489 16.6184 150.637C15.6808 152.341 14.9137 154.387 15.6808 156.262C16.0218 157.03 16.5332 157.711 16.8741 158.479C17.556 159.757 17.3003 161.462 17.0446 162.485Z" fill="#F9B974"/>
<path d="M17.0496 162.91C16.9644 162.91 16.8792 162.91 16.7939 162.825C16.6234 162.74 16.5382 162.569 16.6234 162.399C16.9644 160.865 16.8792 159.586 16.5382 158.648C16.3677 158.308 16.1973 157.967 16.0268 157.626C15.7711 157.285 15.6006 156.858 15.4301 156.432C14.7482 154.813 15.0892 152.767 16.3677 150.466C16.453 150.295 16.6234 150.21 16.8792 150.295C17.0496 150.38 17.2201 150.551 17.2201 150.721C17.2201 151.318 17.4758 152 18.1577 152.767C18.3282 152.938 18.4987 153.193 18.6692 153.364C19.0953 153.79 19.5215 154.301 19.7772 154.813C20.5444 156.091 20.7149 157.796 20.2034 159.33C19.7772 160.694 18.7544 161.973 17.4758 162.825C17.2201 162.825 17.1349 162.91 17.0496 162.91ZM16.5382 151.915C15.8563 153.534 15.6858 154.898 16.1973 156.091C16.3677 156.432 16.5382 156.773 16.7939 157.114C17.0496 157.455 17.2201 157.796 17.3906 158.222C17.7315 159.075 17.902 160.183 17.7315 161.376C18.4987 160.694 19.0101 159.842 19.3511 158.989C19.7772 157.711 19.692 156.262 19.0101 155.239C18.7544 154.728 18.3282 154.387 17.9872 153.96C17.8168 153.79 17.6463 153.534 17.3906 153.278C16.9644 152.767 16.7087 152.341 16.5382 151.915Z" fill="#282828"/>
<path d="M2.48298 170.498C2.39774 170.498 2.3125 170.413 2.3125 170.327C2.3125 170.242 2.39774 170.157 2.48298 170.157C14.5015 169.816 26.6053 169.731 38.6238 169.816C38.709 169.816 38.7943 169.901 38.7943 169.986C38.7943 170.072 38.709 170.157 38.6238 170.157C26.6053 169.986 14.5015 170.157 2.48298 170.498Z" fill="#282828"/>
<path d="M93.2712 131.959C93.1007 131.959 92.9302 131.874 92.845 131.704C90.4583 126.504 87.134 121.816 83.1279 117.725C82.9574 117.554 82.9574 117.298 83.1279 117.128C83.2983 116.957 83.554 116.957 83.7245 117.128C87.8159 121.305 91.1402 126.078 93.6121 131.363C93.6973 131.533 93.6121 131.789 93.4416 131.959C93.4416 131.959 93.3564 131.959 93.2712 131.959Z" fill="#282828"/>
<path d="M88.2418 132.982C88.0714 132.982 87.9009 132.897 87.9009 132.726C86.9633 130.851 85.7699 129.061 84.4914 127.442C84.3209 127.271 84.4061 127.015 84.5766 126.845C84.7471 126.674 85.0028 126.76 85.1733 126.93C86.5371 128.635 87.7304 130.425 88.668 132.3C88.7533 132.471 88.668 132.726 88.4975 132.897C88.4123 132.982 88.3271 132.982 88.2418 132.982Z" fill="#282828"/>
<path d="M2.73345 131.63C2.22203 131.63 1.62536 131.459 1.28441 131.118C0.602506 130.522 0.261556 129.584 0.602507 128.732C0.943458 127.879 1.88107 127.283 2.81869 127.453C3.67107 127.623 4.35297 128.05 4.60868 128.646C4.8644 129.243 4.69392 129.84 4.52344 130.266C4.43821 130.607 4.26773 130.948 3.92678 131.203C3.58583 131.544 3.15964 131.63 2.73345 131.63ZM2.30726 128.305C1.88107 128.305 1.36965 128.646 1.28441 129.072C1.11393 129.584 1.28441 130.095 1.7106 130.522C2.13679 130.862 2.81869 131.033 3.24488 130.607C3.41535 130.436 3.50059 130.181 3.58583 130.01C3.75631 129.584 3.7563 129.328 3.67107 129.072C3.50059 128.732 3.0744 128.476 2.47774 128.305C2.47774 128.305 2.3925 128.305 2.30726 128.305Z" fill="#282828"/>
</svg>
