<svg width="348" height="202" viewBox="0 0 348 202" fill="none" xmlns="http://www.w3.org/2000/svg">
<mask id="mask0_7085_75647" style="mask-type:luminance" maskUnits="userSpaceOnUse" x="0" y="151" width="348" height="51">
<path d="M347.53 151.715H0V202H347.53V151.715Z" fill="white"/>
</mask>
<g mask="url(#mask0_7085_75647)">
<path d="M131.692 162.122C156.746 158.999 182.09 158.317 207.312 159.037C230.356 159.691 253.4 161.505 276.192 164.973C297.488 168.208 318.55 172.826 339.612 177.276C350.55 179.585 361.469 182.025 372.5 183.848C382.727 185.54 393.02 186.839 403.322 187.933C427.254 190.494 451.317 192.009 475.38 192.663C478.334 192.747 481.288 192.804 484.252 192.86C485.308 192.878 485.308 191.242 484.252 191.224C460.077 190.812 435.902 189.466 411.829 187.157C400.882 186.11 389.954 184.857 379.072 183.231C368.191 181.604 358.206 179.51 347.82 177.332C326.3 172.826 304.836 167.993 283.138 164.422C260.842 160.757 238.34 158.644 215.782 157.7C190.943 156.653 165.964 156.961 141.218 159.42C138.04 159.738 134.861 160.093 131.692 160.486C130.664 160.617 130.645 162.253 131.692 162.122Z" fill="#C47A2C"/>
<path d="M0.0146013 194.448C6.61464 193.672 13.1399 192.102 19.5529 190.4C28.649 187.998 37.6329 185.128 46.4298 181.799C51.693 179.808 56.9002 177.639 62.0044 175.256C62.958 174.807 62.126 173.405 61.1818 173.844C44.7939 181.482 27.3029 187.296 9.63421 191.111C6.45572 191.793 3.24919 192.429 0.023959 192.803C-1.01372 192.924 -1.02307 194.56 0.023959 194.439L0.0146013 194.448Z" fill="#C47A2C"/>
</g>
<path d="M141.797 194.679L144.947 174.01" stroke="#3B4A58" stroke-width="1.2" stroke-linecap="round" stroke-linejoin="round"/>
<path d="M87.6978 175.993L85.8281 188.268L137.684 196.176L141.985 167.991L101.636 161.83" stroke="#3B4A58" stroke-width="1.2" stroke-miterlimit="10"/>
<path d="M135.48 170.768L132.367 191.222" stroke="#3B4A58" stroke-width="1.2" stroke-miterlimit="10"/>
<path d="M126 189.817L129.057 169.793" stroke="#3B4A58" stroke-width="1.2" stroke-miterlimit="10"/>
<path d="M121.3 178.855L119.711 189.298" stroke="#3B4A58" stroke-width="1.2" stroke-miterlimit="10"/>
<path d="M116.557 167.889L113.5 187.913" stroke="#3B4A58" stroke-width="1.2" stroke-miterlimit="10"/>
<path d="M109.339 177.031L107.75 187.474" stroke="#3B4A58" stroke-width="1.2" stroke-miterlimit="10"/>
<path d="M101.547 182.053L100.883 186.428" stroke="#3B4A58" stroke-width="1.2" stroke-miterlimit="10"/>
<path d="M93.9075 180.885L93.2344 185.26" stroke="#3B4A58" stroke-width="1.2" stroke-miterlimit="10"/>
<path d="M111.097 23.3849L107.208 31.7798C107.208 31.7798 105.834 34.8835 102.394 35.5473C98.9628 36.2017 92.4937 35.5473 86.7444 28.405L82.9769 23.6654C83.2574 24.3852 83.4817 25.1985 83.622 26.096C84.3138 30.4804 85.0523 32.1351 82.1917 33.9393C79.331 35.7436 75.4981 38.6977 76.0123 42.6615L74.9279 43.989C74.9279 43.989 72.1794 41.0161 71.4876 43.989C70.8052 46.9618 73.3013 50.5703 73.3013 50.5703L73.0956 53.8329L73.2919 57.9556C73.2919 57.9556 66.1123 47.1301 64.3921 43.0728C62.5411 38.6977 62.8777 31.0787 66.9162 24.7591C69.431 20.8047 77.6763 19.4398 77.6763 19.4398H79.6208C79.6208 19.4398 85.2299 14.2608 89.3526 14.9712C95.2982 15.9996 97.3923 21.0758 101.852 23.9832C105.544 26.3858 111.097 23.3849 111.097 23.3849Z" fill="#F9B974"/>
<path d="M66.6873 69.1719L64.4062 76.7816L88.8993 90.6921V79.932" stroke="#3B4A58" stroke-width="1.2" stroke-miterlimit="10"/>
<path d="M50.2003 135.743H58.212L83.6212 157.244L75.3758 170.715L36 145.185C36 145.185 36.458 128.245 38.7484 120.458C41.0388 112.671 45.1615 95.058 47.91 91.8514C50.6584 88.6356 64.3914 76.791 64.3914 76.791" stroke="#3B4A58" stroke-width="1.2" stroke-miterlimit="10"/>
<path d="M59.8231 90.6934L68.2928 103.519L56.3828 132.36" stroke="#3B4A58" stroke-width="1.2" stroke-miterlimit="10"/>
<path d="M64.4062 86.8066L69.4357 94.248" stroke="#3B4A58" stroke-width="1.2" stroke-miterlimit="10"/>
<path d="M71.0312 95.957L71.9474 97.1069" stroke="#3B4A58" stroke-width="1.2" stroke-miterlimit="10"/>
<path d="M62.5543 178.393L61.3203 161.594" stroke="#3B4A58" stroke-width="1.2" stroke-miterlimit="10"/>
<path d="M60.3907 137.577L59.8672 123.928" stroke="#3B4A58" stroke-width="1.2" stroke-miterlimit="10"/>
<path d="M69.4297 70.0879L91.8661 76.7814L103.776 100.349L111.788 159.254" stroke="#3B4A58" stroke-width="1.2" stroke-miterlimit="10"/>
<path d="M100.117 103.287L102.408 126.312" stroke="#3B4A58" stroke-width="1.2" stroke-miterlimit="10"/>
<path d="M94.2188 70.0879C94.9012 70.7703 97.3692 72.6026 97.3692 72.6026V87.6537" stroke="#3B4A58" stroke-width="1.2" stroke-miterlimit="10"/>
<path d="M101.25 75.3457L111.786 85.6477" stroke="#3B4A58" stroke-width="1.2" stroke-miterlimit="10"/>
<path d="M113.914 90.5254L127.357 116.449" stroke="#3B4A58" stroke-width="1.2" stroke-miterlimit="10"/>
<path d="M127.353 135.744L121.211 159.256" stroke="#3B4A58" stroke-width="1.2" stroke-miterlimit="10"/>
<path d="M117.869 159.256L113.157 99.108L104.688 83.1875" stroke="#3B4A58" stroke-width="1.2" stroke-miterlimit="10"/>
<path d="M117.513 117.617L115.391 127.499" stroke="#3B4A58" stroke-width="1.2" stroke-miterlimit="10"/>
<path d="M90.6094 74.1479V64.5938" stroke="#3B4A58" stroke-width="1.2" stroke-miterlimit="10"/>
<path d="M71.4922 68.0348C71.4922 68.0348 72.6327 65.7444 73.0908 61.8554C73.5489 57.9664 73.0908 53.8438 73.0908 53.8438" stroke="#3B4A58" stroke-width="1.2" stroke-miterlimit="10"/>
<path d="M77.6753 19.4492C77.6753 19.4492 69.4299 20.8141 66.9152 24.7592C62.886 31.0787 62.5494 38.6978 64.4004 43.0729C66.1112 47.1301 73.3002 57.9556 73.3002 57.9556" stroke="#3B4A58" stroke-width="1.2" stroke-miterlimit="10"/>
<path d="M80.1865 19.4492C80.1865 19.4492 82.9349 21.7115 83.6174 26.1053C84.2998 30.4991 85.0477 32.1445 82.1871 33.9487C79.3264 35.753 75.4935 38.7071 76.0077 42.6709" stroke="#3B4A58" stroke-width="1.2" stroke-miterlimit="10"/>
<path d="M74.9323 43.9873C74.9323 43.9873 72.1838 41.0144 71.5014 43.9873C70.8189 46.9601 73.3056 50.5686 73.3056 50.5686" stroke="#3B4A58" stroke-width="1.2" stroke-miterlimit="10"/>
<path d="M79.6172 19.4491C79.6172 19.4491 85.2263 14.2606 89.349 14.9711C95.2946 15.9995 97.3887 21.0757 101.857 23.9831C105.55 26.3857 111.103 23.3848 111.103 23.3848L107.214 31.7891C107.214 31.7891 105.84 34.8928 102.409 35.5472C98.9779 36.2109 92.5088 35.5472 86.7594 28.4143" stroke="#3B4A58" stroke-width="1.2" stroke-miterlimit="10"/>
<path d="M91.4141 28.4121C91.4141 28.4121 91.8721 31.0297 96.4529 31.7869C101.034 32.5442 102.408 31.7869 102.408 31.7869" stroke="#3B4A58" stroke-width="1.2" stroke-miterlimit="10"/>
<path d="M82.7109 42.6695C82.7109 42.6695 84.0571 40.5194 86.7495 41.071L89.3484 41.6132" stroke="#3B4A58" stroke-width="1.2" stroke-miterlimit="10"/>
<path d="M84.1406 46.6154C84.1406 46.6154 85.6831 44.2129 87.5154 44.2129H89.3477" stroke="#3B4A58" stroke-width="1.2" stroke-miterlimit="10"/>
<path d="M87.9737 46.6813L87.5156 44.2227" stroke="#3B4A58" stroke-width="1.2" stroke-miterlimit="10"/>
<path d="M102.4 35.5469V39.8565C102.4 39.8565 99.6513 38.0149 97.3609 39.8565C95.0706 41.6982 95.0986 43.8764 95.781 45.877C96.4635 47.8776 98.3332 52.1404 98.3332 52.1404L93.5 52.8977" stroke="#3B4A58" stroke-width="1.2" stroke-miterlimit="10"/>
<path d="M97.369 56.3574L91.4141 56.9838C91.4141 56.9838 93.2931 58.8722 95.7891 58.8722C96.911 58.8722 97.5934 58.4141 97.5934 58.4141" stroke="#3B4A58" stroke-width="1.2" stroke-miterlimit="10"/>
<path d="M97.5916 42.6712C97.5916 42.6712 99.6483 41.5213 101.256 41.6148C102.864 41.7083 102.855 42.4562 102.855 42.4562V46.6256C102.855 46.6256 102.397 48.8038 101.256 53.8426C100.116 58.8815 100.116 60.9942 100.116 60.9942C100.116 60.9942 101.537 62.0786 98.3114 63.4529C95.0862 64.8271 87.4111 64.369 84.1484 61.8543" stroke="#3B4A58" stroke-width="1.2" stroke-miterlimit="10"/>
<path d="M99.875 44.2227L100.137 41.7734" stroke="#3B4A58" stroke-width="1.2" stroke-miterlimit="10"/>
<path d="M76.3359 169.164C76.3359 169.164 79.2807 172.427 81.515 172.773C83.7493 173.118 85.4601 173.287 85.4601 173.287" stroke="#3B4A58" stroke-width="1.2" stroke-miterlimit="10"/>
<path d="M88.0312 173.288C88.0312 173.288 89.3214 173.12 90.948 173.634C92.5746 174.148 95.1548 177.327 96.1831 177.411C97.2115 177.495 99.0157 177.495 98.5857 176.467" stroke="#3B4A58" stroke-width="1.2" stroke-miterlimit="10"/>
<path d="M89.4062 169.941C89.4062 169.941 92.5006 170.801 94.7255 172.092C96.9505 173.382 98.3341 176.785 99.5307 177.018C100.727 177.252 101.933 177.158 101.765 175.962C101.597 174.756 101.251 173.541 101.251 173.541" stroke="#3B4A58" stroke-width="1.2" stroke-miterlimit="10"/>
<path d="M92.9297 167.707C92.9297 167.707 96.7065 169.595 98.3424 170.708C99.9784 171.82 100.979 174.4 102.409 174.569C103.839 174.737 104.615 173.886 104.699 173.279C104.784 172.671 104.017 171.212 104.017 171.212C104.017 171.212 101.1 168.296 98.8286 167.174C96.5569 166.052 93.3597 164.594 93.3597 164.594" stroke="#3B4A58" stroke-width="1.2" stroke-miterlimit="10"/>
<path d="M88.0312 160.584L95.5942 161.594C95.5942 161.594 101.652 165.819 102.4 166.595C103.148 167.371 103.484 167.969 103.746 168.745C104.008 169.521 103.746 170.372 103.746 170.372" stroke="#3B4A58" stroke-width="1.2" stroke-miterlimit="10"/>
<path d="M84.9453 158.61C84.9453 158.61 93.3589 156.993 95.0791 157.245C96.7992 157.498 97.1358 157.75 97.0516 158.61C96.9675 159.47 93.3496 161.293 93.3496 161.293" stroke="#3B4A58" stroke-width="1.2" stroke-miterlimit="10"/>
<path d="M175.93 74.1504L177.668 77.9926H183.502L185.4 74.1504" stroke="#C47A2C" stroke-width="1.2" stroke-miterlimit="10"/>
<path d="M185.125 124.314C185.125 124.314 185.92 112.329 185.396 99.1104C184.873 85.8917 183.508 77.9922 183.508 77.9922" stroke="#C47A2C" stroke-width="1.2" stroke-miterlimit="10"/>
<path d="M175.438 121.78V116.451" stroke="#C47A2C" stroke-width="1.2" stroke-miterlimit="10"/>
<path d="M175.434 111.189C175.434 111.189 175.266 103.289 175.434 95.96C175.602 88.6308 177.668 77.9922 177.668 77.9922" stroke="#C47A2C" stroke-width="1.2" stroke-miterlimit="10"/>
<path d="M200.156 61.8594L220.555 70.0954L227.426 81.3977L235.531 139.788L230.221 155.008" stroke="#3B4A58" stroke-width="1.2" stroke-miterlimit="10"/>
<path d="M221.789 79.6779L220.555 70.0957" stroke="#3B4A58" stroke-width="1.2" stroke-miterlimit="10"/>
<path d="M157.92 61.8594C157.92 61.8594 142.897 67.2815 137.4 72.6756C131.903 78.0696 127.359 86.5861 127.359 91.3913V154.578C127.359 154.578 149.571 155.597 154.722 154.512C159.873 153.428 195.37 143.247 195.37 143.247" stroke="#3B4A58" stroke-width="1.2" stroke-miterlimit="10"/>
<path d="M143.828 135.749L150.017 132.365H175.426" stroke="#3B4A58" stroke-width="1.2" stroke-miterlimit="10"/>
<path d="M150.704 128.131L147.273 94.252" stroke="#3B4A58" stroke-width="1.2" stroke-miterlimit="10"/>
<path d="M159.292 66.207L154.141 82.9689L163.723 94.5143L167.528 99.1137" stroke="#3B4A58" stroke-width="1.2" stroke-miterlimit="10"/>
<path d="M168.134 123.969L157.57 102.075L163.722 94.5117" stroke="#3B4A58" stroke-width="1.2" stroke-miterlimit="10"/>
<path d="M200.156 67.2832L204.279 85.6343L192.453 97.8434" stroke="#3B4A58" stroke-width="1.2" stroke-miterlimit="10"/>
<path d="M190.555 125.502L200.156 103.748L195.35 95.3809" stroke="#3B4A58" stroke-width="1.2" stroke-miterlimit="10"/>
<path d="M162.852 63.5879C162.852 63.5879 166.843 81.4248 168.554 91.381C170.274 101.337 171.817 124.306 171.817 124.306" stroke="#3B4A58" stroke-width="1.2" stroke-miterlimit="10"/>
<path d="M167.812 49.7539L168.775 57.3355L180.068 66.2073L193.119 56.8214V53.6148" stroke="#3B4A58" stroke-width="1.2" stroke-miterlimit="10"/>
<path d="M164.348 34.3395L167.816 49.7551L176.931 55.7755C177.52 56.1682 178.231 56.3178 178.932 56.1962L182.942 55.5231L185.326 56.1402C186.065 56.3271 186.859 56.1495 187.448 55.654L191.749 52.0175C193.974 50.1384 197.133 37.1721 197.133 37.1721C197.133 37.1721 196.675 24.0468 195.74 22.3267C194.806 20.6065 192.805 20.3728 191.823 19.1949C190.842 18.017 190.795 14.8479 190.795 14.8479C190.795 14.8479 179.839 18.4938 175.09 18.5592C170.341 18.6247 166.508 15.8201 166.508 15.8201C166.508 15.8201 166.76 22.1116 165.676 25.0097C164.591 27.9077 160.478 30.6468 160.478 30.6468C160.478 30.6468 160.478 26.7672 159.749 22.7006C158.973 18.3255 157.879 15.6425 159.954 11.9779C161.235 9.71553 165.489 7.76172 165.489 7.76172" stroke="#3B4A58" stroke-width="1.2" stroke-miterlimit="10"/>
<path d="M163.262 31.2441C163.262 31.2441 160.626 32.0387 160.271 33.5345C159.915 35.0303 161.018 37.6011 162.308 38.4331C163.87 39.4334 165.58 39.8635 165.58 39.8635" stroke="#3B4A58" stroke-width="1.2" stroke-miterlimit="10"/>
<path d="M168.039 6.90913C168.039 6.90913 174.19 3.42213 177.397 2.85188C185.016 1.49635 185.997 4.17002 190.335 3.85217C194.673 3.53432 199.357 1.7207 199.357 1.7207C199.357 1.7207 198.029 4.32895 198.702 7.17089C199.375 10.0128 201.423 18.6976 201.376 22.2406C201.329 25.7837 199.543 28.6724 199.543 28.6724C199.543 28.6724 201.151 28.6911 201.282 30.5795C201.638 35.6744 197.141 37.1795 197.141 37.1795" stroke="#3B4A58" stroke-width="1.2" stroke-miterlimit="10"/>
<path d="M170.078 26.1016L178.211 28.42" stroke="#3B4A58" stroke-width="1.2" stroke-miterlimit="10"/>
<path d="M169.602 31.1584L173.107 30.6816C176.239 31.2706 177.165 32.542 177.165 32.542" stroke="#3B4A58" stroke-width="1.2" stroke-miterlimit="10"/>
<path d="M173.735 33.3568L173.539 30.2344" stroke="#3B4A58" stroke-width="1.2" stroke-miterlimit="10"/>
<path d="M178.305 40.3953L184.344 40.5542C184.138 38.5723 182.727 31.8508 183.484 30.1961C184.241 28.5414 187.532 28.2703 189.299 28.0927C193.403 27.672 193.702 28.6349 193.702 28.6349" stroke="#3B4A58" stroke-width="1.2" stroke-miterlimit="10"/>
<path d="M185.547 32.5993C185.547 32.5993 187.304 31.8328 189.305 31.7113C191.306 31.5897 192.399 32.8705 192.399 32.8705" stroke="#3B4A58" stroke-width="1.2" stroke-miterlimit="10"/>
<path d="M188.883 34.364L189.313 31.709" stroke="#3B4A58" stroke-width="1.2" stroke-miterlimit="10"/>
<path d="M177.422 46.6855C177.422 46.6855 177.936 47.798 181.124 47.8354C184.312 47.8728 185.471 46.8071 185.471 46.8071" stroke="#3B4A58" stroke-width="1.2" stroke-miterlimit="10"/>
<path d="M188.227 124.315C188.227 124.315 189.311 108.32 189.947 99.1115C190.564 90.1089 193.116 68.0371 193.116 68.0371" stroke="#3B4A58" stroke-width="1.2" stroke-miterlimit="10"/>
<path d="M214.24 135.749C210.229 134.777 209.089 130.542 193.701 126.326C178.313 122.11 175.359 123.979 175.359 123.979L175.434 134.067C175.434 134.067 198.095 147.033 207.032 150.464C215.96 153.895 224.888 157.793 227.636 156.185L230.385 154.586" stroke="#3B4A58" stroke-width="1.2" stroke-miterlimit="10"/>
<path d="M152.305 130.99C152.305 130.99 154.137 127.372 160.831 125.035C167.524 122.707 175.423 125.035 175.423 125.035" stroke="#3B4A58" stroke-width="1.2" stroke-miterlimit="10"/>
<path d="M158.767 129.684L156.664 132.367" stroke="#3B4A58" stroke-width="1.2" stroke-miterlimit="10"/>
<path d="M224.199 124.007C224.199 124.007 226.256 124.83 226.256 123.558C226.256 122.287 221.909 118.211 219.385 117.613C216.861 117.014 205.942 118.099 204.278 119.108C202.614 120.118 193.695 126.307 193.695 126.307" stroke="#3B4A58" stroke-width="1.2" stroke-miterlimit="10"/>
<path d="M206.078 130.991C206.078 130.991 208.967 128.701 217.839 128.131" stroke="#3B4A58" stroke-width="1.2" stroke-miterlimit="10"/>
<path d="M199.914 128.27C199.914 128.27 212.675 128.439 217.227 128.13C221.78 127.822 224.407 129.037 225.323 127.494C226.239 125.952 220.743 120.455 218.91 120.455C217.078 120.455 215.246 119.885 215.246 119.885" stroke="#3B4A58" stroke-width="1.2" stroke-miterlimit="10"/>
<path d="M165.588 56.8203L159.633 59.7931L174.058 76.7887L180.237 68.0385L187.622 76.7887L197.756 60.3073L194.662 57.2223" stroke="#3B4A58" stroke-width="1.2" stroke-miterlimit="10"/>
<path d="M215.609 122.643C220.414 123.568 223.341 128.308 223.341 128.308" stroke="#3B4A58" stroke-width="1.2" stroke-miterlimit="10"/>
<path d="M215.609 125.475C217.329 125.989 219.47 128.008 219.47 128.008" stroke="#3B4A58" stroke-width="1.2" stroke-miterlimit="10"/>
<path d="M250.931 160.281L250.352 144.659L251.651 129.562C251.651 129.562 253.035 115.436 253.792 113.267C254.549 111.098 263.196 92.7285 263.196 92.7285C263.196 92.7285 262.364 93.7755 264.122 94.9815C265.879 96.1875 270.18 97.8515 271.937 97.8421C273.695 97.8328 282.249 97.1316 282.249 97.1316C282.249 97.1316 276.705 105.816 275.377 109.733C274.05 113.641 270.516 137.059 270.516 137.059L271.937 138.807L271.189 152.017L270.554 162.599L250.922 160.29L250.931 160.281Z" fill="#F9B974"/>
<path d="M271.951 138.808C271.951 138.808 266.566 131.927 264.332 131.039C262.097 130.151 259.442 131.348 256.264 129.693C252.954 127.973 252.739 129.132 252.739 129.132L252.824 129.693C253.338 131.581 254.03 132.61 255.918 133.301C257.46 133.862 259.583 133.816 261.05 134.872C261.05 134.872 261.053 134.875 261.06 134.881C261.387 135.115 261.677 135.396 261.929 135.76L261.06 134.881C261.06 134.881 261.06 134.872 261.05 134.872C256.254 134.517 250.683 134.676 247.28 133.9C242.942 132.909 243.578 132.479 241.241 131.927C238.829 131.357 239.829 134.059 239.829 134.059C239.829 134.059 239.68 134.077 238.904 134.517C238.408 134.797 238.315 134.891 238.184 135.47C238.053 136.05 239.035 137.134 239.035 137.134L239.007 137.237C239.007 137.237 238.978 137.209 238.922 137.144C238.39 137.2 238.492 137.265 239.68 138.817C241.073 140.649 251.29 147.736 257.647 148.418C263.995 149.11 271.212 148.418 271.212 148.418" fill="#FAF9FA"/>
<path d="M309.847 144.294L303.153 138.461L272.079 136.918L271.219 152.025L308.136 155.035L318.784 147.902C318.784 147.902 312.203 101.095 309.192 94.6161C304.537 84.6039 287.747 79.4902 287.747 79.4902" stroke="#3B4A58" stroke-width="1.2" stroke-miterlimit="10"/>
<path d="M293.531 109.266L299.711 134.077L296.616 138.124" stroke="#3B4A58" stroke-width="1.2" stroke-miterlimit="10"/>
<path d="M294.992 153.961V167.666" stroke="#3B4A58" stroke-width="1.2" stroke-miterlimit="10"/>
<path d="M271.202 148.408C271.202 148.408 263.994 149.091 257.637 148.408C251.28 147.726 241.062 140.64 239.669 138.807C238.183 136.863 238.407 137.246 239.436 137.078C240.464 136.909 241.492 137.76 243.904 139.134C246.316 140.509 249.915 141.537 249.915 141.537" stroke="#3B4A58" stroke-width="1.2" stroke-miterlimit="10"/>
<path d="M261.932 135.76C260.558 133.76 257.809 133.984 255.921 133.301C254.032 132.619 253.341 131.581 252.826 129.693L252.742 129.132C252.742 129.132 252.957 127.973 256.267 129.693C259.445 131.348 262.1 130.151 264.334 131.039C266.569 131.927 271.953 138.808 271.953 138.808" stroke="#3B4A58" stroke-width="1.2" stroke-miterlimit="10"/>
<path d="M238.999 137.226C238.999 137.226 237.793 136.001 238.307 134.889C238.307 134.889 239.401 133.776 241.289 134.627C243.178 135.478 243.225 136.17 247.17 137.048L251.115 137.927" stroke="#3B4A58" stroke-width="1.2" stroke-miterlimit="10"/>
<path d="M239.912 134.31C239.912 134.31 238.837 131.366 241.239 131.927C243.586 132.478 242.941 132.917 247.288 133.899C250.69 134.675 256.262 134.516 261.058 134.871" stroke="#3B4A58" stroke-width="1.2" stroke-miterlimit="10"/>
<path d="M290.21 85.6504C290.21 85.6504 277.617 102.394 274.869 111.209C272.121 120.025 270.531 137.058 270.531 137.058" stroke="#3B4A58" stroke-width="1.2" stroke-miterlimit="10"/>
<path d="M268.688 127.578C268.688 127.578 273.034 129.756 276.933 129.7C280.831 129.644 287.011 126.344 287.011 126.344" stroke="#3B4A58" stroke-width="1.2" stroke-miterlimit="10"/>
<path d="M292.261 89.1191C292.261 89.1191 292.578 97.5328 290.204 102.095C286.997 108.237 276.125 112.789 276.125 112.789" stroke="#3B4A58" stroke-width="1.2" stroke-miterlimit="10"/>
<path d="M271.953 79.959C271.953 79.959 262.735 80.5853 258.154 82.67C253.574 84.7641 250.367 90.5415 250.367 90.5415" stroke="#3B4A58" stroke-width="1.2" stroke-miterlimit="10"/>
<path d="M248.762 94.6074L242.583 108.228L242.031 132.142" stroke="#3B4A58" stroke-width="1.2" stroke-miterlimit="10"/>
<path d="M243.779 158.804L242.031 140.883" stroke="#3B4A58" stroke-width="1.2" stroke-miterlimit="10"/>
<path d="M246.926 155.912L245.664 143.348" stroke="#3B4A58" stroke-width="1.2" stroke-miterlimit="10"/>
<path d="M251.143 160.28L250.367 146.332" stroke="#3B4A58" stroke-width="1.2" stroke-miterlimit="10"/>
<path d="M269.068 79.959C269.068 79.959 268.993 80.1927 267.544 83.6142C265.506 88.4381 254.494 109.949 253.802 113.268C253.119 116.586 251.109 134.311 251.109 134.311" stroke="#3B4A58" stroke-width="1.2" stroke-miterlimit="10"/>
<path d="M263.197 92.7285C263.197 92.7285 262.496 95.5237 268.451 97.1316C274.406 98.7302 282.259 97.1316 282.259 97.1316" stroke="#3B4A58" stroke-width="1.2" stroke-miterlimit="10"/>
<path d="M262.35 85.25C262.35 85.25 260.387 85.2033 257.236 90.7189C253.17 97.8424 255.142 109.724 255.142 109.724" stroke="#3B4A58" stroke-width="1.2" stroke-miterlimit="10"/>
<path d="M251.114 102.096C251.114 102.096 252.413 103.433 250.366 106.237C248.309 109.042 245.907 112.014 245.682 116.483C245.458 120.952 248.889 122.662 248.889 122.662" stroke="#3B4A58" stroke-width="1.2" stroke-miterlimit="10"/>
<path d="M246.234 119.902V133.364" stroke="#3B4A58" stroke-width="1.2" stroke-miterlimit="10"/>
<path d="M278.478 27.4854C278.478 27.4854 276.038 25.4194 270.531 26.5973C265.025 27.7753 259.388 33.2254 258.107 38.7317C255.873 48.3326 261.061 64.2437 261.061 64.2437C261.061 64.2437 258.593 66.0012 256.097 69.2077C251.554 75.0412 256.097 83.6231 256.097 83.6231" stroke="#3B4A58" stroke-width="1.2" stroke-miterlimit="10"/>
<path d="M275.328 30.1582C275.328 30.1582 278.077 26.2786 283.573 25.9888C289.07 25.699 295.016 25.727 298.681 30.289C302.345 34.8511 302.803 39.6749 302.803 44.2464C302.803 48.8178 303.028 55.6889 305.094 60.9521C307.15 66.2153 307.608 67.2997 307.608 67.2997" stroke="#3B4A58" stroke-width="1.2" stroke-miterlimit="10"/>
<path d="M309.043 71.0879C309.043 71.0879 310.529 74.0046 308.987 78.0151C306.921 83.3625 302.031 86.5877 302.031 86.5877" stroke="#3B4A58" stroke-width="1.2" stroke-miterlimit="10"/>
<path d="M305.86 89.8956C305.86 89.8956 308.3 90.2508 311.965 83.6134C315.629 76.976 316.312 71.8063 313.563 67.291C310.815 62.7756 304.523 59.2793 304.523 59.2793" stroke="#3B4A58" stroke-width="1.2" stroke-miterlimit="10"/>
<path d="M287.008 29.3544C287.008 29.3544 291.757 28.9057 294.991 33.3649C298.226 37.8241 297.992 44.2466 297.992 44.2466" stroke="#3B4A58" stroke-width="1.2" stroke-miterlimit="10"/>
<path d="M273.721 34.375C273.721 34.375 273.038 38.5912 275.319 43.013C277.61 47.4442 286.996 48.323 286.996 48.323" stroke="#3B4A58" stroke-width="1.2" stroke-miterlimit="10"/>
<path d="M293.001 55.0526C293.001 55.0526 291.122 53.6223 288.373 50.584C285.625 47.5457 285.578 43.0117 285.578 43.0117" stroke="#3B4A58" stroke-width="1.2" stroke-miterlimit="10"/>
<path d="M287.008 82.659L291.71 62.2793" stroke="#3B4A58" stroke-width="1.2" stroke-miterlimit="10"/>
<path d="M289.547 64.2333C289.547 64.2333 293.529 60.9427 294.436 58.8393C295.296 56.8387 294.904 53.52 291.463 55.8291C290.603 56.3993 289.921 57.5305 289.921 57.5305" stroke="#3B4A58" stroke-width="1.2" stroke-miterlimit="10"/>
<path d="M259.422 58.1941C259.422 58.1941 260.684 50.5471 264.573 46.5927C268.462 42.6383 274.099 39.7402 274.099 39.7402" stroke="#3B4A58" stroke-width="1.2" stroke-miterlimit="10"/>
<path d="M286.994 70.0297C286.994 70.0297 281.272 74.2739 277.832 75.1713C274.392 76.0688 270.961 76.7232 269.587 75.3677C268.212 74.0121 264.324 69.4314 263.174 63.4764C262.033 57.5214 262.332 49.7715 262.332 49.7715" stroke="#3B4A58" stroke-width="1.2" stroke-miterlimit="10"/>
<path d="M276.469 52.9295C276.469 52.9295 278.535 51.9573 281.106 52.6584C283.676 53.3595 284.256 54.3224 284.256 54.3224" stroke="#3B4A58" stroke-width="1.2" stroke-miterlimit="10"/>
<path d="M276.125 55.689C276.125 55.689 278.443 53.9596 280.313 55.3431C281.622 56.3154 282.192 55.689 282.192 55.689" stroke="#3B4A58" stroke-width="1.2" stroke-miterlimit="10"/>
<path d="M278.469 56.8392L278.749 54.8105" stroke="#3B4A58" stroke-width="1.2" stroke-miterlimit="10"/>
<path d="M263.703 50.8828C263.703 50.8828 265.077 50.3686 266.91 50.8828C268.91 51.4437 270.284 52.846 270.397 53.4724C270.509 54.0987 268.321 59.6984 267.33 60.7268C266.339 61.7551 267.162 62.316 267.648 62.4843C268.134 62.6526 271.369 62.718 272.799 62.3254" stroke="#3B4A58" stroke-width="1.2" stroke-miterlimit="10"/>
<path d="M263.703 53.4631C264.657 53.3509 265.535 53.0144 266.854 53.4631C268.172 53.9118 268.256 54.3138 268.256 54.3138" stroke="#3B4A58" stroke-width="1.2" stroke-miterlimit="10"/>
<path d="M265.977 55.4371V53.2402" stroke="#3B4A58" stroke-width="1.2" stroke-miterlimit="10"/>
<path d="M269.141 67.3004C269.141 67.3004 269.954 68.0109 272.805 67.6556C274.394 67.4593 276.124 67.0293 276.124 67.0293C276.124 67.0293 275.526 69.1701 274.133 69.9741C272.74 70.778 270.917 70.6939 270.917 70.6939" stroke="#3B4A58" stroke-width="1.2" stroke-miterlimit="10"/>
<path d="M229.24 181.363H163.875V187.776H229.24V181.363Z" stroke="#3B4A58" stroke-width="1.2" stroke-miterlimit="10"/>
<path d="M229.242 163.508H243.209V169.687L229.242 187.777" stroke="#3B4A58" stroke-width="1.2" stroke-linecap="round" stroke-linejoin="round"/>
<path d="M233.589 166.256L229.242 171.753" stroke="#3B4A58" stroke-width="1.2" stroke-linecap="round" stroke-linejoin="round"/>
<path d="M229.242 179.466L243.209 163.508" stroke="#3B4A58" stroke-width="1.2" stroke-linecap="round" stroke-linejoin="round"/>
<path d="M167.54 132.367H225.5C227.566 132.367 229.24 134.041 229.24 136.107V181.363H163.875V136.032C163.875 134.013 165.52 132.367 167.54 132.367Z" fill="#FAF9FA" stroke="#C47A2C" stroke-width="1.2" stroke-miterlimit="10"/>
<path d="M168.039 177.014H224.439" stroke="#C47A2C" stroke-width="1.2" stroke-linecap="round" stroke-linejoin="round"/>
<path d="M197.057 155.907C200.268 155.907 202.872 153.304 202.872 150.092C202.872 146.881 200.268 144.277 197.057 144.277C193.846 144.277 191.242 146.881 191.242 150.092C191.242 153.304 193.846 155.907 197.057 155.907Z" fill="#FAF9FA" stroke="#C47A2C" stroke-width="1.2" stroke-miterlimit="10"/>
<path d="M277.787 177.049H257.211V180.956H277.787V177.049Z" stroke="#3B4A58" stroke-width="1.2" stroke-miterlimit="10"/>
<path d="M283.029 188.604H262.453V192.642H283.029V188.604Z" stroke="#3B4A58" stroke-width="1.2" stroke-miterlimit="10"/>
<path d="M279.662 192.633H259.086V196.41H279.662V192.633Z" stroke="#3B4A58" stroke-width="1.2" stroke-miterlimit="10"/>
<path d="M279.662 184.883H259.086V188.604H279.662V184.883Z" stroke="#3B4A58" stroke-width="1.2" stroke-miterlimit="10"/>
<path d="M283.834 180.957H263.258V184.874H283.834V180.957Z" stroke="#3B4A58" stroke-width="1.2" stroke-miterlimit="10"/>
<path d="M271.193 175.936C276.542 175.936 280.878 171.6 280.878 166.251C280.878 160.903 276.542 156.566 271.193 156.566C265.844 156.566 261.508 160.903 261.508 166.251C261.508 171.6 265.844 175.936 271.193 175.936Z" fill="#FAF9FA" stroke="#3B4A58" stroke-width="1.2" stroke-miterlimit="10"/>
<path d="M271.192 173.32C275.096 173.32 278.26 170.156 278.26 166.253C278.26 162.35 275.096 159.186 271.192 159.186C267.289 159.186 264.125 162.35 264.125 166.253C264.125 170.156 267.289 173.32 271.192 173.32Z" fill="#FAF9FA" stroke="#3B4A58" stroke-width="1.2" stroke-miterlimit="10"/>
</svg>
