<svg width="120" height="121" viewBox="0 0 120 121" fill="none" xmlns="http://www.w3.org/2000/svg">
<rect width="120" height="120" transform="translate(0 0.25)" fill="white"/>
<g clip-path="url(#clip0_9649_26672)">
<path d="M83 79.8333V36.6667C83 28.1659 76.0841 21.25 67.5833 21.25H24.4167C15.9159 21.25 9 28.1659 9 36.6667V79.8333C9 88.3341 15.9159 95.25 24.4167 95.25H67.5833C76.0841 95.25 83 88.3341 83 79.8333ZM67.5833 27.4167C72.6832 27.4167 76.8333 31.5668 76.8333 36.6667V79.8333C76.8333 84.9332 72.6832 89.0833 67.5833 89.0833H24.4167C19.3168 89.0833 15.1667 84.9332 15.1667 79.8333V36.6667C15.1667 31.5668 19.3168 27.4167 24.4167 27.4167H67.5833Z" fill="#282828" stroke="white" stroke-width="4.81"/>
<mask id="path-2-outside-1_9649_26672" maskUnits="userSpaceOnUse" x="34.2031" y="39.1875" width="20" height="35" fill="black">
<rect fill="white" x="34.2031" y="39.1875" width="20" height="35"/>
<path d="M43.9482 73.6474C42.2072 73.6474 40.6688 73.2696 39.333 72.5141C37.9972 71.7586 36.9515 70.7129 36.196 69.3771C35.4405 68.0413 35.0682 66.5084 35.0792 64.7784H36.1303C36.1194 67.0778 36.8311 68.9556 38.2654 70.4118C39.7108 71.8681 41.605 72.5962 43.9482 72.5962C45.711 72.5962 47.2658 72.1637 48.6126 71.2987C49.9593 70.4337 51.0105 69.2567 51.766 67.7676C52.5215 66.2785 52.8938 64.6032 52.8828 62.7418C52.8719 60.7491 52.4503 59.0245 51.6182 57.5683C50.797 56.112 49.702 54.9897 48.3334 54.2013C46.9756 53.413 45.492 53.0188 43.8825 53.0188C42.5576 53.0188 41.3586 53.2707 40.2856 53.7743C39.2126 54.278 38.2873 54.924 37.5099 55.7124L35.9332 55.4496L37.9041 39.5511H52.8171V40.6023H38.8239L37.1158 54.5298H37.2472C38.0903 53.7524 39.0702 53.1338 40.1871 52.6739C41.3039 52.2031 42.5357 51.9677 43.8825 51.9677C45.6891 51.9677 47.3534 52.4166 48.8754 53.3145C50.4083 54.2013 51.6346 55.455 52.5543 57.0755C53.485 58.6851 53.9449 60.5739 53.9339 62.7418C53.923 64.8222 53.4905 66.6836 52.6365 68.326C51.7824 69.9684 50.6054 71.2659 49.1053 72.2185C47.6052 73.1711 45.8862 73.6474 43.9482 73.6474Z"/>
</mask>
<path d="M43.9482 73.6474C42.2072 73.6474 40.6688 73.2696 39.333 72.5141C37.9972 71.7586 36.9515 70.7129 36.196 69.3771C35.4405 68.0413 35.0682 66.5084 35.0792 64.7784H36.1303C36.1194 67.0778 36.8311 68.9556 38.2654 70.4118C39.7108 71.8681 41.605 72.5962 43.9482 72.5962C45.711 72.5962 47.2658 72.1637 48.6126 71.2987C49.9593 70.4337 51.0105 69.2567 51.766 67.7676C52.5215 66.2785 52.8938 64.6032 52.8828 62.7418C52.8719 60.7491 52.4503 59.0245 51.6182 57.5683C50.797 56.112 49.702 54.9897 48.3334 54.2013C46.9756 53.413 45.492 53.0188 43.8825 53.0188C42.5576 53.0188 41.3586 53.2707 40.2856 53.7743C39.2126 54.278 38.2873 54.924 37.5099 55.7124L35.9332 55.4496L37.9041 39.5511H52.8171V40.6023H38.8239L37.1158 54.5298H37.2472C38.0903 53.7524 39.0702 53.1338 40.1871 52.6739C41.3039 52.2031 42.5357 51.9677 43.8825 51.9677C45.6891 51.9677 47.3534 52.4166 48.8754 53.3145C50.4083 54.2013 51.6346 55.455 52.5543 57.0755C53.485 58.6851 53.9449 60.5739 53.9339 62.7418C53.923 64.8222 53.4905 66.6836 52.6365 68.326C51.7824 69.9684 50.6054 71.2659 49.1053 72.2185C47.6052 73.1711 45.8862 73.6474 43.9482 73.6474Z" fill="black"/>
<path d="M39.333 72.5141L39.2875 72.5946L39.333 72.5141ZM36.196 69.3771L36.1155 69.4227L36.196 69.3771ZM35.0792 64.7784V64.6859H34.9873L34.9867 64.7778L35.0792 64.7784ZM36.1303 64.7784L36.2228 64.7789L36.2233 64.6859H36.1303V64.7784ZM38.2654 70.4118L38.1995 70.4768L38.1998 70.477L38.2654 70.4118ZM48.6126 71.2987L48.5626 71.2209L48.6126 71.2987ZM52.8828 62.7418L52.7903 62.7423V62.7424L52.8828 62.7418ZM51.6182 57.5683L51.5376 57.6137L51.5379 57.6142L51.6182 57.5683ZM48.3334 54.2013L48.2869 54.2813L48.2872 54.2815L48.3334 54.2013ZM40.2856 53.7743L40.2463 53.6906L40.2856 53.7743ZM37.5099 55.7124L37.4947 55.8036L37.5421 55.8115L37.5758 55.7773L37.5099 55.7124ZM35.9332 55.4496L35.8414 55.4382L35.8305 55.5262L35.918 55.5408L35.9332 55.4496ZM37.9041 39.5511V39.4586H37.8224L37.8123 39.5398L37.9041 39.5511ZM52.8171 39.5511H52.9096V39.4586H52.8171V39.5511ZM52.8171 40.6023V40.6948H52.9096V40.6023H52.8171ZM38.8239 40.6023V40.5098H38.742L38.7321 40.591L38.8239 40.6023ZM37.1158 54.5298L37.024 54.5186L37.0112 54.6223H37.1158V54.5298ZM37.2472 54.5298V54.6223H37.2833L37.3099 54.5978L37.2472 54.5298ZM40.1871 52.6739L40.2223 52.7595L40.223 52.7592L40.1871 52.6739ZM48.8754 53.3145L48.8284 53.3941L48.829 53.3945L48.8754 53.3145ZM52.5543 57.0756L52.4739 57.1212L52.4743 57.1219L52.5543 57.0756ZM53.9339 62.7418L54.0264 62.7423V62.7423L53.9339 62.7418ZM49.1053 72.2185L49.1549 72.2966L49.1053 72.2185ZM43.9482 73.5549C42.221 73.5549 40.6987 73.1802 39.3785 72.4336L39.2875 72.5946C40.639 73.359 42.1934 73.7399 43.9482 73.7399V73.5549ZM39.3785 72.4336C38.0573 71.6864 37.0238 70.6528 36.2765 69.3316L36.1155 69.4227C36.8793 70.7731 37.937 71.8309 39.2875 72.5946L39.3785 72.4336ZM36.2765 69.3316C35.53 68.0116 35.1608 66.4949 35.1717 64.779L34.9867 64.7778C34.9757 66.5219 35.3511 68.0711 36.1155 69.4227L36.2765 69.3316ZM35.0792 64.8709H36.1303V64.6859H35.0792V64.8709ZM36.0378 64.778C36.0268 67.0984 36.7458 69.0008 38.1995 70.4768L38.3313 70.3469C36.9163 68.9103 36.212 67.0571 36.2228 64.7789L36.0378 64.778ZM38.1998 70.477C39.665 71.9533 41.5842 72.6887 43.9482 72.6887V72.5037C41.6258 72.5037 39.7565 71.7829 38.3311 70.3467L38.1998 70.477ZM43.9482 72.6887C45.7269 72.6887 47.2994 72.2521 48.6626 71.3766L48.5626 71.2209C47.2322 72.0754 45.6951 72.5037 43.9482 72.5037V72.6887ZM48.6626 71.3766C50.0238 70.5023 51.0859 69.3125 51.8485 67.8094L51.6835 67.7257C50.9351 69.2008 49.8949 70.3652 48.5626 71.2209L48.6626 71.3766ZM51.8485 67.8094C52.6114 66.3057 52.9863 64.6157 52.9753 62.7413L52.7903 62.7424C52.8012 64.5908 52.4316 66.2512 51.6835 67.7257L51.8485 67.8094ZM52.9753 62.7413C52.9643 60.7356 52.5399 58.9949 51.6985 57.5224L51.5379 57.6142C52.3607 59.0542 52.7794 60.7625 52.7903 62.7423L52.9753 62.7413ZM51.6987 57.5228C50.8699 56.053 49.7634 54.9183 48.3795 54.1212L48.2872 54.2815C49.6406 55.0611 50.724 56.171 51.5376 57.6137L51.6987 57.5228ZM48.3798 54.1214C47.0076 53.3246 45.5079 52.9263 43.8825 52.9263V53.1113C45.4761 53.1113 46.9437 53.5014 48.2869 54.2813L48.3798 54.1214ZM43.8825 52.9263C42.5456 52.9263 41.333 53.1805 40.2463 53.6906L40.3249 53.8581C41.3843 53.3608 42.5696 53.1113 43.8825 53.1113V52.9263ZM40.2463 53.6906C39.1641 54.1986 38.2297 54.8507 37.4441 55.6474L37.5758 55.7773C38.345 54.9973 39.2611 54.3574 40.3249 53.8581L40.2463 53.6906ZM37.5252 55.6211L35.9484 55.3583L35.918 55.5408L37.4947 55.8036L37.5252 55.6211ZM36.025 55.461L37.9959 39.5625L37.8123 39.5398L35.8414 55.4382L36.025 55.461ZM37.9041 39.6436H52.8171V39.4586H37.9041V39.6436ZM52.7246 39.5511V40.6023H52.9096V39.5511H52.7246ZM52.8171 40.5098H38.8239V40.6948H52.8171V40.5098ZM38.7321 40.591L37.024 54.5186L37.2076 54.5411L38.9157 40.6135L38.7321 40.591ZM37.1158 54.6223H37.2472V54.4373H37.1158V54.6223ZM37.3099 54.5978C38.1445 53.8282 39.115 53.2154 40.2223 52.7594L40.1518 52.5884C39.0254 53.0522 38.036 53.6766 37.1845 54.4618L37.3099 54.5978ZM40.223 52.7592C41.3272 52.2936 42.5467 52.0602 43.8825 52.0602V51.8752C42.5247 51.8752 41.2805 52.1126 40.1511 52.5887L40.223 52.7592ZM43.8825 52.0602C45.673 52.0602 47.321 52.5049 48.8284 53.3941L48.9224 53.2348C47.3858 52.3283 45.7052 51.8752 43.8825 51.8752V52.0602ZM48.829 53.3945C50.347 54.2727 51.5618 55.5142 52.4739 57.1212L52.6348 57.0299C51.7074 55.3959 50.4696 54.13 48.9217 53.2344L48.829 53.3945ZM52.4743 57.1219C53.3955 58.715 53.8523 60.5871 53.8414 62.7414L54.0264 62.7423C54.0375 60.5607 53.5746 58.6552 52.6344 57.0292L52.4743 57.1219ZM53.8414 62.7413C53.8306 64.8089 53.4009 66.6555 52.5544 68.2833L52.7185 68.3687C53.5801 66.7117 54.0154 64.8355 54.0264 62.7423L53.8414 62.7413ZM52.5544 68.2833C51.7075 69.9119 50.5414 71.1969 49.0557 72.1404L49.1549 72.2966C50.6693 71.3349 51.8573 70.0249 52.7185 68.3687L52.5544 68.2833ZM49.0557 72.1404C47.5718 73.0827 45.8703 73.5549 43.9482 73.5549V73.7399C45.9021 73.7399 47.6387 73.2594 49.1549 72.2966L49.0557 72.1404Z" fill="black" mask="url(#path-2-outside-1_9649_26672)"/>
</g>
<rect width="55" height="55" transform="translate(61 61.75)" fill="white"/>
<path d="M88.4964 114.102C81.8572 114.102 75.6154 111.517 70.9207 106.822C66.226 102.127 63.6406 95.8856 63.6406 89.2464C63.6406 82.6072 66.226 76.3654 70.9207 71.6707C75.6154 66.976 81.8572 64.3906 88.4964 64.3906C95.1356 64.3906 101.377 66.976 106.072 71.6707C110.767 76.3654 113.352 82.6072 113.352 89.2464C113.352 95.8856 110.767 102.127 106.072 106.822C101.377 111.517 95.1356 114.102 88.4964 114.102ZM88.4964 65.4483C75.3741 65.4483 64.6983 76.1241 64.6983 89.2464C64.6983 102.369 75.3741 113.044 88.4964 113.044C101.619 113.044 112.294 102.369 112.294 89.2464C112.294 76.1241 101.619 65.4483 88.4964 65.4483Z" fill="#282828"/>
<path d="M88.494 107.754C78.2878 107.754 69.9844 99.4502 69.9844 89.244C69.9844 79.0378 78.2878 70.7344 88.494 70.7344C98.7002 70.7344 107.004 79.0378 107.004 89.244C107.004 99.4502 98.7002 107.754 88.494 107.754ZM88.494 71.7921C78.871 71.7921 71.0421 79.621 71.0421 89.244C71.0421 98.867 78.871 106.696 88.494 106.696C98.117 106.696 105.946 98.867 105.946 89.244C105.946 79.621 98.117 71.7921 88.494 71.7921Z" fill="#282828"/>
<path d="M88.5036 91.8978C87.0456 91.8978 85.8594 90.7116 85.8594 89.2536C85.8594 87.7956 87.0456 86.6094 88.5036 86.6094C89.9616 86.6094 91.1478 87.7956 91.1478 89.2536C91.1478 90.7116 89.9616 91.8978 88.5036 91.8978ZM88.5036 87.6671C87.6288 87.6671 86.9171 88.3788 86.9171 89.2536C86.9171 90.1284 87.6288 90.8401 88.5036 90.8401C89.3784 90.8401 90.0901 90.1284 90.0901 89.2536C90.0901 88.3788 89.3784 87.6671 88.5036 87.6671Z" fill="#282828"/>
<path d="M88.494 87.6575C88.3537 87.6575 88.2192 87.6017 88.12 87.5026C88.0209 87.4034 87.9651 87.2689 87.9651 87.1286V79.7248C87.9651 79.5845 88.0209 79.45 88.12 79.3508C88.2192 79.2516 88.3537 79.1959 88.494 79.1959C88.6342 79.1959 88.7688 79.2516 88.8679 79.3508C88.9671 79.45 89.0228 79.5845 89.0228 79.7248V87.1286C89.0228 87.2689 88.9671 87.4034 88.8679 87.5026C88.7688 87.6017 88.6342 87.6575 88.494 87.6575ZM86.3786 89.7728H82.1478C82.0076 89.7728 81.8731 89.7171 81.7739 89.6179C81.6747 89.5188 81.619 89.3842 81.619 89.244C81.619 89.1037 81.6747 88.9692 81.7739 88.87C81.8731 88.7709 82.0076 88.7151 82.1478 88.7151H86.3786C86.5189 88.7151 86.6534 88.7709 86.7526 88.87C86.8517 88.9692 86.9075 89.1037 86.9075 89.244C86.9075 89.3842 86.8517 89.5188 86.7526 89.6179C86.6534 89.7171 86.5189 89.7728 86.3786 89.7728ZM88.494 76.0228C88.3537 76.0228 88.2192 75.9671 88.12 75.8679C88.0209 75.7688 87.9651 75.6342 87.9651 75.494V71.2632C87.9651 71.123 88.0209 70.9884 88.12 70.8893C88.2192 70.7901 88.3537 70.7344 88.494 70.7344C88.6342 70.7344 88.7688 70.7901 88.8679 70.8893C88.9671 70.9884 89.0228 71.123 89.0228 71.2632V75.494C89.0228 75.6342 88.9671 75.7688 88.8679 75.8679C88.7688 75.9671 88.6342 76.0228 88.494 76.0228ZM88.494 107.754C88.3537 107.754 88.2192 107.698 88.12 107.599C88.0209 107.5 87.9651 107.365 87.9651 107.225V102.994C87.9651 102.702 88.2019 102.465 88.494 102.465C88.7861 102.465 89.0228 102.702 89.0228 102.994V107.225C89.0228 107.365 88.9671 107.5 88.8679 107.599C88.7688 107.698 88.6342 107.754 88.494 107.754ZM98.2167 80.0501C98.1121 80.0501 98.0099 80.0191 97.923 79.9609C97.836 79.9028 97.7683 79.8202 97.7282 79.7236C97.6882 79.627 97.6777 79.5207 97.6981 79.4181C97.7185 79.3155 97.7689 79.2213 97.8428 79.1474L100.834 76.1558C100.934 76.0587 101.068 76.0047 101.207 76.0056C101.346 76.0065 101.479 76.0622 101.578 76.1605C101.676 76.2589 101.732 76.3921 101.732 76.5312C101.733 76.6703 101.679 76.8041 101.582 76.9037L98.5906 79.8953C98.5416 79.9444 98.4833 79.9834 98.4191 80.01C98.355 80.0366 98.2862 80.0502 98.2167 80.0501ZM75.7797 102.487C75.675 102.487 75.5727 102.456 75.4857 102.398C75.3987 102.34 75.3308 102.258 75.2908 102.161C75.2507 102.064 75.2403 101.958 75.2607 101.855C75.2812 101.753 75.3316 101.658 75.4057 101.584L78.3973 98.5928C78.4461 98.5427 78.5045 98.5028 78.5689 98.4754C78.6333 98.4479 78.7025 98.4336 78.7726 98.4331C78.8426 98.4327 78.912 98.4462 78.9767 98.4727C79.0415 98.4993 79.1004 98.5385 79.1499 98.588C79.1994 98.6375 79.2386 98.6964 79.2652 98.7611C79.2918 98.8259 79.3052 98.8953 79.3048 98.9653C79.3043 99.0353 79.29 99.1045 79.2626 99.169C79.2352 99.2334 79.1953 99.2917 79.1452 99.3406L76.1536 102.332C76.1045 102.381 76.0463 102.42 75.9821 102.447C75.9179 102.474 75.8491 102.487 75.7797 102.487ZM106.475 89.7728H102.244C101.952 89.7728 101.715 89.5361 101.715 89.244C101.715 88.9519 101.952 88.7151 102.244 88.7151H106.475C106.767 88.7151 107.004 88.9519 107.004 89.244C107.004 89.5361 106.767 89.7728 106.475 89.7728ZM74.744 89.7728H70.5132C70.373 89.7728 70.2384 89.7171 70.1393 89.6179C70.0401 89.5188 69.9844 89.3842 69.9844 89.244C69.9844 89.1037 70.0401 88.9692 70.1393 88.87C70.2384 88.7709 70.373 88.7151 70.5132 88.7151H74.744C74.8842 88.7151 75.0188 88.7709 75.1179 88.87C75.2171 88.9692 75.2728 89.1037 75.2728 89.244C75.2728 89.3842 75.2171 89.5188 75.1179 89.6179C75.0188 89.7171 74.8842 89.7728 74.744 89.7728ZM101.208 102.487C101.139 102.487 101.07 102.474 101.006 102.447C100.942 102.42 100.883 102.381 100.834 102.332L97.8428 99.3406C97.7937 99.2915 97.7547 99.2332 97.7282 99.1691C97.7016 99.1049 97.6879 99.0362 97.6879 98.9667C97.6879 98.8973 97.7016 98.8285 97.7282 98.7644C97.7547 98.7002 97.7937 98.6419 97.8428 98.5928C97.8919 98.5437 97.9502 98.5047 98.0144 98.4782C98.0785 98.4516 98.1473 98.4379 98.2167 98.4379C98.2862 98.4379 98.3549 98.4516 98.4191 98.4782C98.4832 98.5047 98.5415 98.5437 98.5906 98.5928L101.582 101.584C101.631 101.633 101.67 101.692 101.697 101.756C101.723 101.82 101.737 101.889 101.737 101.958C101.737 102.028 101.723 102.097 101.697 102.161C101.67 102.225 101.631 102.283 101.582 102.332C101.533 102.381 101.475 102.42 101.411 102.447C101.347 102.474 101.278 102.487 101.208 102.487ZM78.7713 80.0501C78.7018 80.0502 78.633 80.0366 78.5688 80.01C78.5046 79.9834 78.4463 79.9444 78.3973 79.8953L75.4057 76.9037C75.3562 76.8547 75.3169 76.7963 75.2901 76.7321C75.2632 76.6678 75.2493 76.5989 75.2491 76.5293C75.249 76.4596 75.2626 76.3906 75.2892 76.3263C75.3158 76.2619 75.3548 76.2034 75.404 76.1541C75.4533 76.1049 75.5118 76.0659 75.5761 76.0393C75.6405 76.0127 75.7095 75.9991 75.7792 75.9993C75.8488 75.9994 75.9177 76.0133 75.982 76.0402C76.0462 76.067 76.1045 76.1063 76.1536 76.1558L79.1452 79.1474C79.2191 79.2213 79.2694 79.3155 79.2898 79.4181C79.3102 79.5207 79.2998 79.627 79.2597 79.7236C79.2197 79.8202 79.152 79.9028 79.065 79.9609C78.9781 80.0191 78.8758 80.0501 78.7713 80.0501Z" fill="#282828"/>
<defs>
<clipPath id="clip0_9649_26672">
<rect width="74" height="74" fill="white" transform="translate(9 21.25)"/>
</clipPath>
</defs>
</svg>
