<svg width="120" height="121" viewBox="0 0 120 121" fill="none" xmlns="http://www.w3.org/2000/svg">
<rect width="120" height="120" transform="translate(0 0.75)" fill="white"/>
<g clip-path="url(#clip0_9649_26686)">
<path d="M67.5833 22.25H24.4167C15.9159 22.25 9 29.1659 9 37.6667V80.8333C9 89.3341 15.9159 96.25 24.4167 96.25H67.5833C76.0841 96.25 83 89.3341 83 80.8333V37.6667C83 29.1659 76.0841 22.25 67.5833 22.25ZM76.8333 80.8333C76.8333 85.9332 72.6832 90.0833 67.5833 90.0833H24.4167C19.3168 90.0833 15.1667 85.9332 15.1667 80.8333V37.6667C15.1667 32.5668 19.3168 28.4167 24.4167 28.4167H67.5833C72.6832 28.4167 76.8333 32.5668 76.8333 37.6667V80.8333Z" fill="#282828" stroke="white" stroke-width="4.81"/>
<mask id="path-2-outside-1_9649_26686" maskUnits="userSpaceOnUse" x="36.0469" y="39.6484" width="21" height="36" fill="black">
<rect fill="white" x="36.0469" y="39.6484" width="21" height="36"/>
<path d="M46.7773 75.1083C45.3539 75.1083 44.0345 74.7853 42.8192 74.1393C41.6038 73.4933 40.5417 72.5243 39.6329 71.2322C38.7351 69.9293 38.0343 68.2923 37.5306 66.3215C37.0379 64.3506 36.7915 62.0457 36.7915 59.407C36.7915 57.1404 36.9503 54.8958 37.2678 52.6731C37.5963 50.4395 38.1438 48.4083 38.9102 46.5798C39.6767 44.7513 40.7278 43.2895 42.0637 42.1946C43.3995 41.0997 45.0802 40.5522 47.1058 40.5522C48.7701 40.5522 50.2209 40.93 51.4582 41.6855C52.6955 42.43 53.6754 43.4702 54.3981 44.806C55.1207 46.1309 55.5368 47.6693 55.6463 49.4212H54.5952C54.4309 47.1109 53.6919 45.233 52.3779 43.7877C51.075 42.3315 49.3176 41.6033 47.1058 41.6033C44.04 41.6033 41.7297 43.1746 40.1749 46.317C38.6201 49.4485 37.8427 53.9651 37.8427 59.8668H37.9741C38.3354 58.75 38.9431 57.7591 39.7971 56.8941C40.6621 56.0181 41.6859 55.3338 42.8684 54.8411C44.051 54.3374 45.2882 54.0856 46.5803 54.0856C48.3431 54.0856 49.9527 54.5455 51.4089 55.4652C52.8761 56.3849 54.0477 57.6386 54.9237 59.2263C55.7996 60.8139 56.2376 62.6042 56.2376 64.5969C56.2376 66.4583 55.8379 68.1883 55.0386 69.7869C54.2503 71.3855 53.1444 72.6721 51.721 73.6466C50.3085 74.6211 48.6606 75.1083 46.7773 75.1083ZM46.7773 74.0572C48.3978 74.0572 49.8377 73.6301 51.0969 72.7761C52.367 71.9221 53.3634 70.7778 54.086 69.3435C54.8196 67.9091 55.1864 66.3269 55.1864 64.5969C55.1864 62.8232 54.7977 61.2245 54.0203 59.8011C53.2539 58.3668 52.2137 57.2335 50.8998 56.4014C49.5968 55.5583 48.1351 55.1367 46.5146 55.1367C45.2335 55.1367 44.0455 55.405 42.9506 55.9415C41.8556 56.4671 40.9194 57.1952 40.142 58.1259C39.3756 59.0456 38.8281 60.1022 38.4996 61.2957C38.1712 62.4892 38.1274 63.7429 38.3683 65.0568C38.7405 67.0277 39.3208 68.681 40.1092 70.0169C40.9085 71.3527 41.872 72.36 42.9998 73.0389C44.1386 73.7177 45.3977 74.0572 46.7773 74.0572Z"/>
</mask>
<path d="M46.7773 75.1083C45.3539 75.1083 44.0345 74.7853 42.8192 74.1393C41.6038 73.4933 40.5417 72.5243 39.6329 71.2322C38.7351 69.9293 38.0343 68.2923 37.5306 66.3215C37.0379 64.3506 36.7915 62.0457 36.7915 59.407C36.7915 57.1404 36.9503 54.8958 37.2678 52.6731C37.5963 50.4395 38.1438 48.4083 38.9102 46.5798C39.6767 44.7513 40.7278 43.2895 42.0637 42.1946C43.3995 41.0997 45.0802 40.5522 47.1058 40.5522C48.7701 40.5522 50.2209 40.93 51.4582 41.6855C52.6955 42.43 53.6754 43.4702 54.3981 44.806C55.1207 46.1309 55.5368 47.6693 55.6463 49.4212H54.5952C54.4309 47.1109 53.6919 45.233 52.3779 43.7877C51.075 42.3315 49.3176 41.6033 47.1058 41.6033C44.04 41.6033 41.7297 43.1746 40.1749 46.317C38.6201 49.4485 37.8427 53.9651 37.8427 59.8668H37.9741C38.3354 58.75 38.9431 57.7591 39.7971 56.8941C40.6621 56.0181 41.6859 55.3338 42.8684 54.8411C44.051 54.3374 45.2882 54.0856 46.5803 54.0856C48.3431 54.0856 49.9527 54.5455 51.4089 55.4652C52.8761 56.3849 54.0477 57.6386 54.9237 59.2263C55.7996 60.8139 56.2376 62.6042 56.2376 64.5969C56.2376 66.4583 55.8379 68.1883 55.0386 69.7869C54.2503 71.3855 53.1444 72.6721 51.721 73.6466C50.3085 74.6211 48.6606 75.1083 46.7773 75.1083ZM46.7773 74.0572C48.3978 74.0572 49.8377 73.6301 51.0969 72.7761C52.367 71.9221 53.3634 70.7778 54.086 69.3435C54.8196 67.9091 55.1864 66.3269 55.1864 64.5969C55.1864 62.8232 54.7977 61.2245 54.0203 59.8011C53.2539 58.3668 52.2137 57.2335 50.8998 56.4014C49.5968 55.5583 48.1351 55.1367 46.5146 55.1367C45.2335 55.1367 44.0455 55.405 42.9506 55.9415C41.8556 56.4671 40.9194 57.1952 40.142 58.1259C39.3756 59.0456 38.8281 60.1022 38.4996 61.2957C38.1712 62.4892 38.1274 63.7429 38.3683 65.0568C38.7405 67.0277 39.3208 68.681 40.1092 70.0169C40.9085 71.3527 41.872 72.36 42.9998 73.0389C44.1386 73.7177 45.3977 74.0572 46.7773 74.0572Z" fill="black"/>
<path d="M42.8192 74.1393L42.8626 74.0576L42.8192 74.1393ZM39.6329 71.2322L39.5567 71.2847L39.5572 71.2855L39.6329 71.2322ZM37.5306 66.3215L37.4409 66.3439L37.441 66.3444L37.5306 66.3215ZM37.2678 52.6731L37.1763 52.6597L37.1763 52.66L37.2678 52.6731ZM38.9102 46.5798L38.8249 46.5441L38.9102 46.5798ZM51.4582 41.6855L51.41 41.7644L51.4105 41.7647L51.4582 41.6855ZM54.3981 44.806L54.3167 44.85L54.3169 44.8503L54.3981 44.806ZM55.6463 49.4212V49.5137H55.7448L55.7386 49.4154L55.6463 49.4212ZM54.5952 49.4212L54.5029 49.4277L54.509 49.5137H54.5952V49.4212ZM52.3779 43.7877L52.309 43.8494L52.3095 43.85L52.3779 43.7877ZM40.1749 46.317L40.2577 46.3582L40.2578 46.358L40.1749 46.317ZM37.8427 59.8668H37.7502V59.9593H37.8427V59.8668ZM37.9741 59.8668V59.9593H38.0414L38.0621 59.8953L37.9741 59.8668ZM39.7971 56.8941L39.7313 56.8291L39.7313 56.8291L39.7971 56.8941ZM42.8684 54.8411L42.904 54.9265L42.9047 54.9262L42.8684 54.8411ZM51.4089 55.4652L51.3595 55.5434L51.3598 55.5436L51.4089 55.4652ZM54.9237 59.2263L54.8427 59.271L54.9237 59.2263ZM55.0386 69.7869L54.9559 69.7456L54.9557 69.746L55.0386 69.7869ZM51.721 73.6466L51.6687 73.5702L51.6684 73.5704L51.721 73.6466ZM51.0969 72.7761L51.0452 72.6993L51.0449 72.6995L51.0969 72.7761ZM54.086 69.3435L54.0037 69.3014L54.0034 69.3019L54.086 69.3435ZM54.0203 59.8011L53.9387 59.8447L53.9391 59.8455L54.0203 59.8011ZM50.8998 56.4014L50.8495 56.479L50.8503 56.4795L50.8998 56.4014ZM42.9506 55.9415L42.9906 56.0249L42.9913 56.0246L42.9506 55.9415ZM40.142 58.1259L40.0711 58.0666L40.071 58.0667L40.142 58.1259ZM38.4996 61.2957L38.4105 61.2712L38.4996 61.2957ZM38.3683 65.0568L38.2773 65.0735L38.2774 65.074L38.3683 65.0568ZM40.1092 70.0169L40.0295 70.0639L40.0298 70.0644L40.1092 70.0169ZM42.9998 73.0389L42.9521 73.1181L42.9525 73.1183L42.9998 73.0389ZM46.7773 75.0158C45.3685 75.0158 44.0641 74.6963 42.8626 74.0576L42.7757 74.221C44.005 74.8743 45.3393 75.2008 46.7773 75.2008V75.0158ZM42.8626 74.0576C41.6618 73.4194 40.6102 72.4609 39.7086 71.179L39.5572 71.2855C40.4732 72.5876 41.5458 73.5672 42.7757 74.221L42.8626 74.0576ZM39.7091 71.1798C38.8189 69.8879 38.1219 68.2617 37.6202 66.2986L37.441 66.3444C37.9466 68.323 38.6512 69.9706 39.5567 71.2847L39.7091 71.1798ZM37.6204 66.299C37.1299 64.3373 36.884 62.0403 36.884 59.407H36.699C36.699 62.0512 36.9459 64.3639 37.4409 66.3439L37.6204 66.299ZM36.884 59.407C36.884 57.1448 37.0425 54.9045 37.3594 52.6862L37.1763 52.66C36.8581 54.8871 36.699 57.1361 36.699 59.407H36.884ZM37.3594 52.6866C37.6869 50.4595 38.2325 48.4361 38.9956 46.6156L38.8249 46.5441C38.0551 48.3806 37.5058 50.4194 37.1763 52.6597L37.3594 52.6866ZM38.9956 46.6156C39.757 44.7989 40.7998 43.3502 42.1223 42.2661L42.005 42.1231C40.6559 43.2289 39.5964 44.7037 38.8249 46.5441L38.9956 46.6156ZM42.1223 42.2661C43.4388 41.187 45.0977 40.6447 47.1058 40.6447V40.4597C45.0627 40.4597 43.3601 41.0123 42.005 42.1231L42.1223 42.2661ZM47.1058 40.6447C48.7557 40.6447 50.1893 41.019 51.41 41.7644L51.5064 41.6065C50.2526 40.8409 48.7846 40.4597 47.1058 40.4597V40.6447ZM51.4105 41.7647C52.6329 42.5003 53.6015 43.528 54.3167 44.85L54.4794 44.762C53.7493 43.4124 52.7581 42.3597 51.5059 41.6062L51.4105 41.7647ZM54.3169 44.8503C55.0321 46.1615 55.4452 47.6863 55.554 49.4269L55.7386 49.4154C55.6284 47.6522 55.2094 46.1003 54.4793 44.7617L54.3169 44.8503ZM55.6463 49.3287H54.5952V49.5137H55.6463V49.3287ZM54.6874 49.4146C54.522 47.0876 53.7767 45.1889 52.4464 43.7255L52.3095 43.85C53.607 45.2772 54.3399 47.1341 54.5029 49.4277L54.6874 49.4146ZM52.4469 43.7261C51.1239 42.2475 49.3401 41.5108 47.1058 41.5108V41.6958C49.2951 41.6958 51.026 42.4155 52.309 43.8494L52.4469 43.7261ZM47.1058 41.5108C45.5562 41.5108 44.1937 41.9082 43.0217 42.7053C41.8504 43.5019 40.8747 44.6941 40.092 46.276L40.2578 46.358C41.0299 44.7975 41.9867 43.6329 43.1257 42.8582C44.2641 42.0841 45.5896 41.6958 47.1058 41.6958V41.5108ZM40.092 46.2759C38.5279 49.4261 37.7502 53.9594 37.7502 59.8668H37.9352C37.9352 53.9708 38.7122 49.471 40.2577 46.3582L40.092 46.2759ZM37.8427 59.9593H37.9741V59.7743H37.8427V59.9593ZM38.0621 59.8953C38.4188 58.7927 39.0187 57.8142 39.863 56.9591L39.7313 56.8291C38.8675 57.704 38.252 58.7073 37.8861 59.8384L38.0621 59.8953ZM39.863 56.9591C40.719 56.0922 41.7323 55.4147 42.904 54.9265L42.8329 54.7557C41.6395 55.2529 40.6053 55.9441 39.7313 56.8291L39.863 56.9591ZM42.9047 54.9262C44.0757 54.4274 45.3006 54.1781 46.5803 54.1781V53.9931C45.2758 53.9931 44.0262 54.2474 42.8322 54.756L42.9047 54.9262ZM46.5803 54.1781C48.326 54.1781 49.9184 54.6332 51.3595 55.5434L51.4583 55.387C49.9869 54.4577 48.3602 53.9931 46.5803 53.9931V54.1781ZM51.3598 55.5436C52.8131 56.4546 53.9739 57.6964 54.8427 59.271L55.0046 59.1816C54.1215 57.5809 52.9392 56.3153 51.458 55.3868L51.3598 55.5436ZM54.8427 59.271C55.7103 60.8436 56.1451 62.6182 56.1451 64.5969H56.3301C56.3301 62.5901 55.8889 60.7843 55.0046 59.1816L54.8427 59.271ZM56.1451 64.5969C56.1451 66.4446 55.7485 68.1603 54.9559 69.7456L55.1214 69.8283C55.9273 68.2163 56.3301 66.4721 56.3301 64.5969H56.1451ZM54.9557 69.746C54.1741 71.3309 53.0786 72.605 51.6687 73.5702L51.7732 73.7229C53.2102 72.7391 54.3264 71.4402 55.1216 69.8278L54.9557 69.746ZM51.6684 73.5704C50.2729 74.5332 48.6438 75.0158 46.7773 75.0158V75.2008C48.6775 75.2008 50.3441 74.7089 51.7735 73.7227L51.6684 73.5704ZM46.7773 74.1497C48.4151 74.1497 49.8733 73.7178 51.1488 72.8527L51.0449 72.6995C49.8021 73.5425 48.3806 73.9647 46.7773 73.9647V74.1497ZM51.1485 72.8529C52.4324 71.9895 53.4392 70.8329 54.1686 69.3851L54.0034 69.3019C53.2875 70.7228 52.3015 71.8546 51.0452 72.6993L51.1485 72.8529ZM54.1684 69.3856C54.9091 67.9373 55.2789 66.3405 55.2789 64.5969H55.0939C55.0939 66.3134 54.7301 67.881 54.0037 69.3014L54.1684 69.3856ZM55.2789 64.5969C55.2789 62.8091 54.887 61.1951 54.1015 59.7568L53.9391 59.8455C54.7084 61.254 55.0939 62.8372 55.0939 64.5969H55.2789ZM54.1019 59.7575C53.3283 58.3098 52.2773 57.1643 50.9493 56.3232L50.8503 56.4795C52.1501 57.3027 53.1795 58.4238 53.9387 59.8447L54.1019 59.7575ZM50.95 56.3237C49.6314 55.4705 48.1521 55.0442 46.5146 55.0442V55.2292C48.1181 55.2292 49.5622 55.6461 50.8495 56.479L50.95 56.3237ZM46.5146 55.0442C45.2201 55.0442 44.0181 55.3154 42.9098 55.8584L42.9913 56.0246C44.0729 55.4946 45.2469 55.2292 46.5146 55.2292V55.0442ZM42.9105 55.8581C41.8037 56.3894 40.857 57.1257 40.0711 58.0666L40.213 58.1852C40.9819 57.2647 41.9076 56.5447 42.9906 56.0249L42.9105 55.8581ZM40.071 58.0667C39.2958 58.9969 38.7423 60.0654 38.4105 61.2712L38.5888 61.3203C38.9139 60.1391 39.4554 59.0944 40.2131 58.1851L40.071 58.0667ZM38.4105 61.2712C38.078 62.4791 38.0341 63.747 38.2773 65.0735L38.4592 65.0401C38.2207 63.7388 38.2643 62.4993 38.5888 61.3203L38.4105 61.2712ZM38.2774 65.074C38.6511 67.0525 39.2344 68.7166 40.0295 70.0639L40.1889 69.9699C39.4073 68.6455 38.83 67.0029 38.4591 65.0396L38.2774 65.074ZM40.0298 70.0644C40.8355 71.4108 41.8092 72.4301 42.9521 73.1181L43.0475 72.9596C41.9349 72.2899 40.9815 71.2945 40.1886 69.9694L40.0298 70.0644ZM42.9525 73.1183C44.1061 73.8061 45.3818 74.1497 46.7773 74.1497V73.9647C45.4137 73.9647 44.171 73.6294 43.0472 72.9594L42.9525 73.1183Z" fill="black" mask="url(#path-2-outside-1_9649_26686)"/>
</g>
<rect width="55" height="55" transform="translate(61 62.25)" fill="white"/>
<path d="M88.4964 114.602C81.8572 114.602 75.6154 112.017 70.9207 107.322C66.226 102.627 63.6406 96.3856 63.6406 89.7464C63.6406 83.1072 66.226 76.8654 70.9207 72.1707C75.6154 67.476 81.8572 64.8906 88.4964 64.8906C95.1356 64.8906 101.377 67.476 106.072 72.1707C110.767 76.8654 113.352 83.1072 113.352 89.7464C113.352 96.3856 110.767 102.627 106.072 107.322C101.377 112.017 95.1356 114.602 88.4964 114.602ZM88.4964 65.9483C75.3741 65.9483 64.6983 76.6241 64.6983 89.7464C64.6983 102.869 75.3741 113.544 88.4964 113.544C101.619 113.544 112.294 102.869 112.294 89.7464C112.294 76.6241 101.619 65.9483 88.4964 65.9483Z" fill="#282828"/>
<path d="M88.494 108.254C78.2878 108.254 69.9844 99.9502 69.9844 89.744C69.9844 79.5378 78.2878 71.2344 88.494 71.2344C98.7002 71.2344 107.004 79.5378 107.004 89.744C107.004 99.9502 98.7002 108.254 88.494 108.254ZM88.494 72.2921C78.871 72.2921 71.0421 80.121 71.0421 89.744C71.0421 99.367 78.871 107.196 88.494 107.196C98.117 107.196 105.946 99.367 105.946 89.744C105.946 80.121 98.117 72.2921 88.494 72.2921Z" fill="#282828"/>
<path d="M88.5036 92.3978C87.0456 92.3978 85.8594 91.2116 85.8594 89.7536C85.8594 88.2956 87.0456 87.1094 88.5036 87.1094C89.9616 87.1094 91.1478 88.2956 91.1478 89.7536C91.1478 91.2116 89.9616 92.3978 88.5036 92.3978ZM88.5036 88.1671C87.6288 88.1671 86.9171 88.8788 86.9171 89.7536C86.9171 90.6284 87.6288 91.3401 88.5036 91.3401C89.3784 91.3401 90.0901 90.6284 90.0901 89.7536C90.0901 88.8788 89.3784 88.1671 88.5036 88.1671Z" fill="#282828"/>
<path d="M88.494 88.1575C88.3537 88.1575 88.2192 88.1017 88.12 88.0026C88.0209 87.9034 87.9651 87.7689 87.9651 87.6286V80.2248C87.9651 80.0845 88.0209 79.95 88.12 79.8508C88.2192 79.7516 88.3537 79.6959 88.494 79.6959C88.6342 79.6959 88.7688 79.7516 88.8679 79.8508C88.9671 79.95 89.0228 80.0845 89.0228 80.2248V87.6286C89.0228 87.7689 88.9671 87.9034 88.8679 88.0026C88.7688 88.1017 88.6342 88.1575 88.494 88.1575ZM86.3786 90.2728H82.1478C82.0076 90.2728 81.8731 90.2171 81.7739 90.1179C81.6747 90.0188 81.619 89.8842 81.619 89.744C81.619 89.6037 81.6747 89.4692 81.7739 89.37C81.8731 89.2709 82.0076 89.2151 82.1478 89.2151H86.3786C86.5189 89.2151 86.6534 89.2709 86.7526 89.37C86.8517 89.4692 86.9075 89.6037 86.9075 89.744C86.9075 89.8842 86.8517 90.0188 86.7526 90.1179C86.6534 90.2171 86.5189 90.2728 86.3786 90.2728ZM88.494 76.5228C88.3537 76.5228 88.2192 76.4671 88.12 76.3679C88.0209 76.2688 87.9651 76.1342 87.9651 75.994V71.7632C87.9651 71.623 88.0209 71.4884 88.12 71.3893C88.2192 71.2901 88.3537 71.2344 88.494 71.2344C88.6342 71.2344 88.7688 71.2901 88.8679 71.3893C88.9671 71.4884 89.0228 71.623 89.0228 71.7632V75.994C89.0228 76.1342 88.9671 76.2688 88.8679 76.3679C88.7688 76.4671 88.6342 76.5228 88.494 76.5228ZM88.494 108.254C88.3537 108.254 88.2192 108.198 88.12 108.099C88.0209 108 87.9651 107.865 87.9651 107.725V103.494C87.9651 103.202 88.2019 102.965 88.494 102.965C88.7861 102.965 89.0228 103.202 89.0228 103.494V107.725C89.0228 107.865 88.9671 108 88.8679 108.099C88.7688 108.198 88.6342 108.254 88.494 108.254ZM98.2167 80.5501C98.1121 80.5501 98.0099 80.5191 97.923 80.4609C97.836 80.4028 97.7683 80.3202 97.7282 80.2236C97.6882 80.127 97.6777 80.0207 97.6981 79.9181C97.7185 79.8155 97.7689 79.7213 97.8428 79.6474L100.834 76.6558C100.934 76.5587 101.068 76.5047 101.207 76.5056C101.346 76.5065 101.479 76.5622 101.578 76.6605C101.676 76.7589 101.732 76.8921 101.732 77.0312C101.733 77.1703 101.679 77.3041 101.582 77.4037L98.5906 80.3953C98.5416 80.4444 98.4833 80.4834 98.4191 80.51C98.355 80.5366 98.2862 80.5502 98.2167 80.5501ZM75.7797 102.987C75.675 102.987 75.5727 102.956 75.4857 102.898C75.3987 102.84 75.3308 102.758 75.2908 102.661C75.2507 102.564 75.2403 102.458 75.2607 102.355C75.2812 102.253 75.3316 102.158 75.4057 102.084L78.3973 99.0928C78.4461 99.0427 78.5045 99.0028 78.5689 98.9754C78.6333 98.9479 78.7025 98.9336 78.7726 98.9331C78.8426 98.9327 78.912 98.9462 78.9767 98.9727C79.0415 98.9993 79.1004 99.0385 79.1499 99.088C79.1994 99.1375 79.2386 99.1964 79.2652 99.2611C79.2918 99.3259 79.3052 99.3953 79.3048 99.4653C79.3043 99.5353 79.29 99.6045 79.2626 99.669C79.2352 99.7334 79.1953 99.7917 79.1452 99.8406L76.1536 102.832C76.1045 102.881 76.0463 102.92 75.9821 102.947C75.9179 102.974 75.8491 102.987 75.7797 102.987ZM106.475 90.2728H102.244C101.952 90.2728 101.715 90.0361 101.715 89.744C101.715 89.4519 101.952 89.2151 102.244 89.2151H106.475C106.767 89.2151 107.004 89.4519 107.004 89.744C107.004 90.0361 106.767 90.2728 106.475 90.2728ZM74.744 90.2728H70.5132C70.373 90.2728 70.2384 90.2171 70.1393 90.1179C70.0401 90.0188 69.9844 89.8842 69.9844 89.744C69.9844 89.6037 70.0401 89.4692 70.1393 89.37C70.2384 89.2709 70.373 89.2151 70.5132 89.2151H74.744C74.8842 89.2151 75.0188 89.2709 75.1179 89.37C75.2171 89.4692 75.2728 89.6037 75.2728 89.744C75.2728 89.8842 75.2171 90.0188 75.1179 90.1179C75.0188 90.2171 74.8842 90.2728 74.744 90.2728ZM101.208 102.987C101.139 102.987 101.07 102.974 101.006 102.947C100.942 102.92 100.883 102.881 100.834 102.832L97.8428 99.8406C97.7937 99.7915 97.7547 99.7332 97.7282 99.6691C97.7016 99.6049 97.6879 99.5362 97.6879 99.4667C97.6879 99.3973 97.7016 99.3285 97.7282 99.2644C97.7547 99.2002 97.7937 99.1419 97.8428 99.0928C97.8919 99.0437 97.9502 99.0047 98.0144 98.9782C98.0785 98.9516 98.1473 98.9379 98.2167 98.9379C98.2862 98.9379 98.3549 98.9516 98.4191 98.9782C98.4832 99.0047 98.5415 99.0437 98.5906 99.0928L101.582 102.084C101.631 102.133 101.67 102.192 101.697 102.256C101.723 102.32 101.737 102.389 101.737 102.458C101.737 102.528 101.723 102.597 101.697 102.661C101.67 102.725 101.631 102.783 101.582 102.832C101.533 102.881 101.475 102.92 101.411 102.947C101.347 102.974 101.278 102.987 101.208 102.987ZM78.7713 80.5501C78.7018 80.5502 78.633 80.5366 78.5688 80.51C78.5046 80.4834 78.4463 80.4444 78.3973 80.3953L75.4057 77.4037C75.3562 77.3547 75.3169 77.2963 75.2901 77.2321C75.2632 77.1678 75.2493 77.0989 75.2491 77.0293C75.249 76.9596 75.2626 76.8906 75.2892 76.8263C75.3158 76.7619 75.3548 76.7034 75.404 76.6541C75.4533 76.6049 75.5118 76.5659 75.5761 76.5393C75.6405 76.5127 75.7095 76.4991 75.7792 76.4993C75.8488 76.4994 75.9177 76.5133 75.982 76.5402C76.0462 76.567 76.1045 76.6063 76.1536 76.6558L79.1452 79.6474C79.2191 79.7213 79.2694 79.8155 79.2898 79.9181C79.3102 80.0207 79.2998 80.127 79.2597 80.2236C79.2197 80.3202 79.152 80.4028 79.065 80.4609C78.9781 80.5191 78.8758 80.5501 78.7713 80.5501Z" fill="#282828"/>
<defs>
<clipPath id="clip0_9649_26686">
<rect width="74" height="74" fill="white" transform="translate(9 22.25)"/>
</clipPath>
</defs>
</svg>
