<svg width="563" height="150" fill="none" xmlns="http://www.w3.org/2000/svg"><path d="M88.917 111.069c-24.432 3.141-49.1-13.125-51.46-36.458-2.006-21.09-.826-66.073-.826-66.634 0-4.263 3.659-7.852 8.262-7.852 4.603 0 8.262 3.477 8.262 7.852 0 .898-.236 48.461.118 57.884.59 17.276 13.573 29.952 30.097 29.615 15.58-.336 28.798-13.237 28.798-28.156 0-15.93-13.1-27.596-31.513-27.708-.118 0-1.888.224-2.597.224-4.72 0-8.616-3.702-8.616-8.19 0-4.486 3.895-8.076 8.616-8.3.59 0 2.833-.225 3.541-.225 24.314-.897 45.086 16.827 47.211 40.048 2.006 24.118-14.989 44.647-39.893 47.9zM11.608 41.175c4.954 0 8.97-3.817 8.97-8.526 0-4.708-4.016-8.525-8.97-8.525-4.954 0-8.97 3.817-8.97 8.525 0 4.709 4.016 8.526 8.97 8.526z" fill="#C47A2C"/><path d="M52.679 38.94C28.247 35.8 3.46 52.065 1.219 75.398c-2.125 21.09-.826 66.073-.826 66.746 0 4.263 3.659 7.853 8.262 7.853 4.485 0 8.261-3.478 8.261-7.853 0-.897-.236-48.46.119-57.884.708-17.387 13.69-29.951 30.096-29.615 15.58.337 28.917 13.237 28.799 28.157 0 15.93-13.101 27.596-31.513 27.708-.118 0-1.889-.224-2.597-.224-4.72 0-8.616 3.702-8.616 8.189s3.895 8.077 8.616 8.301c.59 0 2.833.112 3.541.224 24.313.898 45.086-16.826 47.21-40.047 2.007-24.231-15.107-44.76-39.892-48.013z" fill="#034A66"/><path d="M53.152 65.745c.708 17.387 13.69 29.951 30.215 29.727 15.579-.337 28.798-13.237 28.798-28.157 0-6.955 15.344-17.275 16.524-4.15 2.124 24.23-14.99 44.759-39.775 48.012-24.432 3.141-49.1-13.125-51.46-36.458-1.062-10.657 15.58-13.574 15.698-8.974z" fill="#C47A2C"/><path d="M145.327 106.029h2.388v16.155h-2.388v-16.155zm1.509 14.001h11.249v2.154h-11.249v-2.154zm8.107-14.001h2.388v16.155h-2.388v-16.155zm2.325 14.001h2.389v5.505h-2.389v-5.505zm15.209 2.154V109.5l.252.299-8.485 12.385h-1.948v-16.155h2.325v12.865l-.251-.3 8.547-12.565h1.949v16.155h-2.389zm8.992-2.454c-1.257-.479-2.2-1.197-2.891-2.154-.629-.957-1.006-2.094-1.006-3.47v-.419c0-1.376.315-2.513 1.006-3.471.628-.957 1.634-1.675 2.891-2.154 1.257-.478 2.765-.718 4.525-.718 1.76 0 3.268.24 4.525.718 1.257.479 2.2 1.197 2.891 2.154.628.958 1.006 2.095 1.006 3.471v.419c0 1.376-.315 2.513-1.006 3.47-.629.957-1.634 1.675-2.891 2.154-1.257.479-2.765.718-4.525.718-1.76 0-3.268-.239-4.525-.718zm9.113-2.393c1.068-.778 1.634-1.855 1.634-3.291v-.419c0-1.436-.566-2.513-1.634-3.291-1.069-.778-2.577-1.137-4.525-1.137-1.949 0-3.457.359-4.525 1.137-1.069.778-1.634 1.855-1.634 3.291v.419c0 1.436.565 2.513 1.634 3.291 1.068.778 2.576 1.136 4.525 1.136 1.948 0 3.456-.418 4.525-1.136zm-5.719-11.847h2.388v16.693h-2.388V105.49zm12.134.539h2.388v16.155h-2.388v-16.155zm1.257 7.719h5.405a2.8 2.8 0 001.383-.359c.377-.239.691-.539.879-.957.189-.419.315-.898.315-1.436 0-.539-.126-1.018-.315-1.436-.188-.419-.502-.778-.879-.958-.377-.239-.817-.359-1.383-.359h-5.405v-2.154h5.342c1.006 0 1.886.18 2.64.599.754.418 1.382 1.017 1.759 1.735.44.778.629 1.615.629 2.573 0 .957-.189 1.854-.629 2.572-.439.718-1.005 1.317-1.759 1.736-.754.418-1.634.598-2.64.598h-5.342v-2.154zm15.516 7.893c-.88-.478-1.572-1.196-2.074-2.094-.503-.897-.755-1.914-.755-3.111v-4.547c0-1.197.252-2.214.755-3.112.502-.897 1.194-1.615 2.074-2.094.879-.479 1.948-.718 3.142-.718s2.2.239 3.142.718c.88.479 1.572 1.197 2.074 2.094.503.898.755 1.915.755 3.112v4.547c0 1.197-.252 2.214-.755 3.111-.502.898-1.194 1.616-2.074 2.094-.879.479-1.948.718-3.142.718s-2.263-.239-3.142-.718zm4.965-1.974a3.544 3.544 0 001.257-1.257c.314-.538.439-1.196.439-1.914v-4.727c0-.718-.125-1.376-.439-1.915-.315-.538-.692-.957-1.257-1.256a3.572 3.572 0 00-1.823-.479c-.691 0-1.32.18-1.823.479a3.55 3.55 0 00-1.257 1.256c-.314.539-.44 1.197-.44 1.915v4.727c0 .718.126 1.376.44 1.914.315.539.692.958 1.257 1.257a3.572 3.572 0 001.823.479c.691 0 1.257-.18 1.823-.479zm7.359-13.638h2.388v16.155h-2.388v-16.155zm1.382 14.061h4.588c1.194 0 2.074-.239 2.64-.658.566-.419.817-1.077.817-1.855v-.06c0-.538-.126-1.017-.314-1.436a1.696 1.696 0 00-.943-.897c-.44-.239-1.006-.299-1.634-.299h-5.154v-2.035h5.154c.88 0 1.571-.179 2.011-.598.44-.419.691-.957.691-1.735 0-.778-.251-1.436-.754-1.795-.503-.419-1.257-.598-2.262-.598h-4.84v-2.095h5.28c1.068 0 2.011.18 2.765.539.754.359 1.32.838 1.634 1.496.377.658.566 1.436.566 2.333 0 .539-.126 1.077-.315 1.556a3.917 3.917 0 01-1.005 1.256c-.44.359-1.006.599-1.697.718.691.12 1.257.3 1.76.718.502.359.88.838 1.131 1.377.251.538.377 1.136.377 1.795v.059c0 .898-.189 1.616-.628 2.334-.378.658-1.006 1.197-1.76 1.556s-1.634.538-2.64.538h-5.468v-2.214zm17.974-14.061h2.011l6.222 16.155h-2.576l-4.714-13.043-4.714 13.043h-2.576l6.347-16.155zm-3.394 10.471h8.925v2.154h-8.925V116.5zm17.402-1.795l2.388.539-4.085 7h-2.828l4.525-7.539zm-2.074.419a4.625 4.625 0 01-1.76-1.675c-.44-.718-.629-1.556-.629-2.513 0-.958.189-1.795.629-2.513a4.072 4.072 0 011.697-1.676c.754-.418 1.634-.598 2.577-.598h5.593v2.154h-5.656c-.44 0-.88.12-1.194.359a2.079 2.079 0 00-.817.957 3.402 3.402 0 00-.315 1.377c0 .478.126 1.017.315 1.376.188.419.44.718.817.957.377.239.754.359 1.194.359h5.656v2.154h-5.593c-.88-.12-1.76-.359-2.514-.718zm6.787-9.095h2.389v16.155h-2.389v-16.155zm12.321 0h2.388v16.155h-2.388v-16.155zm1.446 0h9.427v2.154h-9.427v-2.154zm8.17 0h2.388v16.155h-2.388v-16.155zm5.28 14.001c.691 0 1.257-.179 1.634-.478.44-.299.754-.778.942-1.376.189-.659.315-1.436.315-2.454v-9.693h2.388v9.514c0 1.556-.189 2.812-.503 3.769-.377.958-.88 1.676-1.634 2.154-.754.479-1.697.718-2.891.718h-.251v-2.154zm4.399-14.001h8.107v2.154h-8.107v-2.154zm6.851 0h2.388v16.155h-2.388v-16.155zm10.624 0h2.011l6.222 16.155h-2.577l-4.714-13.043-4.713 13.043h-2.577l6.348-16.155zm-3.394 10.471h8.924v2.154h-8.924V116.5zm11.061-10.471h11.941v2.154h-11.941v-2.154zm4.776 1.317h2.388v14.838h-2.388v-14.838zm11.505 12.384c-1.257-.479-2.2-1.197-2.891-2.154-.628-.957-1.006-2.094-1.006-3.47v-.419c0-1.376.315-2.513 1.006-3.471.629-.957 1.634-1.675 2.891-2.154 1.257-.478 2.765-.718 4.525-.718 1.76 0 3.268.24 4.525.718 1.257.479 2.2 1.197 2.891 2.154.629.958 1.006 2.095 1.006 3.471v.419c0 1.376-.314 2.513-1.006 3.47-.628.957-1.634 1.675-2.891 2.154-1.257.479-2.765.718-4.525.718-1.76 0-3.268-.239-4.525-.718zm9.113-2.393c1.068-.778 1.634-1.855 1.634-3.291v-.419c0-1.436-.566-2.513-1.634-3.291s-2.577-1.137-4.525-1.137c-1.948 0-3.457.359-4.525 1.137-1.069.778-1.634 1.855-1.634 3.291v.419c0 1.436.565 2.513 1.634 3.291 1.068.778 2.577 1.136 4.525 1.136 1.948 0 3.457-.418 4.525-1.136zm-5.719-11.847h2.388v16.693h-2.388V105.49zm14.384 16.151c-.88-.478-1.571-1.196-2.074-2.094-.502-.897-.754-1.914-.754-3.111v-4.547c0-1.197.252-2.214.754-3.112.503-.897 1.194-1.615 2.074-2.094.88-.479 1.949-.718 3.143-.718 1.194 0 2.199.239 3.142.718.88.479 1.571 1.197 2.074 2.094.503.898.754 1.915.754 3.112v4.547c0 1.197-.251 2.214-.754 3.111-.503.898-1.194 1.616-2.074 2.094-.88.479-1.948.718-3.142.718s-2.263-.239-3.143-.718zm4.965-1.974a3.529 3.529 0 001.257-1.257c.315-.538.44-1.196.44-1.914v-4.727c0-.718-.125-1.376-.44-1.915-.314-.538-.691-.957-1.257-1.256a3.565 3.565 0 00-1.822-.479c-.692 0-1.32.18-1.823.479a3.534 3.534 0 00-1.257 1.256c-.314.539-.44 1.197-.44 1.915v4.727c0 .718.126 1.376.44 1.914.314.539.691.958 1.257 1.257a3.569 3.569 0 001.823.479c.691 0 1.32-.18 1.822-.479zm7.353-13.638h2.388v16.155h-2.388v-16.155zm1.257 7.719h5.405c.502 0 .942-.12 1.382-.359.377-.239.692-.539.88-.957.189-.419.314-.898.314-1.436 0-.539-.125-1.018-.314-1.436-.188-.419-.503-.778-.88-.958-.377-.239-.817-.359-1.382-.359h-5.405v-2.154h5.342c1.005 0 1.885.18 2.639.599.754.418 1.383 1.017 1.76 1.735.44.778.629 1.615.629 2.573 0 .957-.189 1.854-.629 2.572s-1.006 1.317-1.76 1.736c-.754.418-1.634.598-2.639.598h-5.342v-2.154zm25.581-7.719h2.199v16.155h-2.325v-12.086l.126.718-4.148 9.155h-1.634l-4.148-8.916.125-.957v12.086h-2.388v-16.155h2.2l4.965 10.651 5.028-10.651zm10.437 0h2.011l6.222 16.155h-2.577l-4.713-13.043-4.714 13.043h-2.577l6.348-16.155zm-3.394 10.471h8.925v2.154h-8.925V116.5zm-253.343 32.418c-.88-.479-1.571-1.197-2.074-2.094-.503-.898-.754-1.915-.754-3.111v-4.548c0-1.196.251-2.214.754-3.111.503-.898 1.194-1.616 2.074-2.094.88-.479 1.948-.718 3.142-.718s2.2.239 3.143.718c.879.478 1.571 1.196 2.074 2.094.502.897.754 1.915.754 3.111v4.548c0 1.196-.252 2.213-.754 3.111-.503.897-1.195 1.615-2.074 2.094-.88.479-1.949.718-3.143.718-1.194 0-2.262-.239-3.142-.718zm4.965-1.974c.503-.3.943-.718 1.257-1.257.314-.538.44-1.197.44-1.915v-4.726c0-.718-.126-1.377-.44-1.915-.314-.539-.692-.957-1.257-1.257a3.569 3.569 0 00-1.823-.478c-.691 0-1.32.179-1.822.478-.503.3-.943.718-1.257 1.257-.315.538-.44 1.197-.44 1.915v4.726c0 .718.125 1.377.44 1.915.314.539.691.957 1.257 1.257a3.565 3.565 0 001.822.478c.692 0 1.257-.179 1.823-.478zm13.759-13.63h2.325v16.155h-2.388v-16.155h.063zm1.445 7.12h9.427v2.154h-9.427v-2.154zm8.17-7.12h2.389v16.155h-2.389v-16.155zm10.629 0h2.012l6.222 16.155h-2.577l-4.714-13.044-4.713 13.044h-2.577l6.347-16.155zm-3.33 10.471h8.924v2.154h-8.924v-2.154zm13.382 3.53c.692 0 1.257-.18 1.634-.479.44-.299.754-.778.943-1.376.189-.658.314-1.436.314-2.453v-9.693h2.451v9.513c0 1.556-.188 2.813-.502 3.77-.378.957-.88 1.675-1.634 2.154-.755.479-1.697.718-2.892.718h-.251v-2.154h-.063zm4.4-14.001h8.107v2.154h-8.107v-2.154zm6.913 0h2.388v16.155h-2.388v-16.155zm8.733 15.604c-.88-.479-1.571-1.197-2.074-2.094-.503-.898-.754-1.915-.754-3.111v-4.548c0-1.196.251-2.214.754-3.111.503-.898 1.194-1.616 2.074-2.094.88-.479 1.948-.718 3.143-.718 1.194 0 2.199.239 3.142.718.88.478 1.571 1.196 2.074 2.094.503.897.754 1.915.754 3.111v4.548c0 1.196-.251 2.213-.754 3.111-.503.897-1.194 1.615-2.074 2.094-.88.479-1.948.718-3.142.718-1.195 0-2.263-.239-3.143-.718zm4.965-1.974c.503-.3.943-.718 1.257-1.257.314-.538.44-1.197.44-1.915v-4.726c0-.718-.126-1.377-.44-1.915-.314-.539-.691-.957-1.257-1.257a3.568 3.568 0 00-1.822-.478c-.692 0-1.32.179-1.823.478-.503.3-.943.718-1.257 1.257-.314.538-.44 1.197-.44 1.915v4.726c0 .718.126 1.377.44 1.915.314.539.691.957 1.257 1.257a3.569 3.569 0 001.823.478c.691 0 1.257-.179 1.822-.478zm7.422-13.63h2.388v16.155h-2.388v-16.155zm1.131 0h8.359v2.154h-8.359v-2.154zm14.39 0h2.011l6.222 16.155h-2.577l-4.714-13.044-4.588 13.044h-2.576l6.222-16.155zm-3.331 10.471h8.924v2.154h-8.924v-2.154zm17.911-3.53l4.273-6.941h2.64l-5.594 8.736-4.525 7.419h-2.639l5.845-9.214zm.125 2.154l-.377-.539-5.53-8.496h2.639l4.085 6.581.377.599 5.782 8.975h-2.639l-4.337-7.12zm25.389 7.06v-12.685l.251.299-8.484 12.386h-1.949v-16.155h2.326v12.864l-.252-.299 8.548-12.565h1.948v16.155h-2.388zm12.321-16.155h2.389v16.155h-2.389v-16.155zm1.132 0h9.301v2.154h-9.301v-2.154zm.125 14.001h5.405c.566 0 1.006-.12 1.383-.299.377-.18.691-.539.88-.898.188-.419.314-.897.314-1.436 0-.598-.126-1.077-.314-1.436a1.797 1.797 0 00-.88-.897c-.377-.24-.88-.299-1.383-.299h-5.405v-2.154h5.342c1.069 0 2.012.179 2.766.538.754.359 1.32.957 1.76 1.675.377.718.628 1.616.628 2.633s-.189 1.855-.628 2.633c-.378.718-1.006 1.256-1.76 1.675-.754.359-1.697.539-2.766.539h-5.342v-2.274zm11.308-14.001h2.702l4.965 11.548-1.508 1.795-6.159-13.343zm8.61 12.804c-.314.778-.628 1.436-1.006 1.975-.377.538-.817.897-1.382 1.137a4.277 4.277 0 01-1.823.418h-2.011v-2.213h1.948c.377 0 .692-.06.943-.24a4.16 4.16 0 00.754-.718c.189-.299.44-.718.566-1.196l4.336-11.907h2.577l-4.902 12.744zm11.132-5.863l4.274-6.941h2.639l-5.593 8.736-4.525 7.419h-2.64l5.845-9.214zm.063 2.154l-.377-.539-5.531-8.496h2.64l4.085 6.581.377.599 5.782 8.975h-2.639l-4.337-7.12zm9.362-9.095h2.388v16.155h-2.388v-16.155zm1.131 0h8.359v2.154h-8.359v-2.154zm14.39 0h2.011l6.222 16.155h-2.576l-4.714-13.044-4.714 13.044h-2.576l6.347-16.155zm-3.331 10.471h8.925v2.154h-8.925v-2.154zm13.453 3.53c.692 0 1.257-.18 1.634-.479.44-.299.755-.778.943-1.376.189-.658.314-1.436.314-2.453v-9.693h2.389v9.513c0 1.556-.189 2.813-.503 3.77-.377.957-.88 1.675-1.634 2.154-.754.479-1.697.718-2.891.718h-.252v-2.154zm4.337-14.001h8.107v2.154h-8.107v-2.154zm6.913 0h2.388v16.155h-2.388v-16.155zm4.838 0h11.941v2.154h-11.941v-2.154zm4.777 1.316h2.388v14.839h-2.388V134.63zm9.238-1.316h2.388v16.155h-2.388v-16.155zm1.131 0h9.742v2.154h-9.742v-2.154zm0 7.06h8.485v2.154h-8.485v-2.154zm0 6.941h9.742v2.154h-9.742v-2.154zm12.82-14.001h2.388v16.155h-2.388v-16.155zm1.194 7.718h5.405a2.79 2.79 0 001.383-.359c.377-.239.691-.538.88-.957.188-.419.314-.897.314-1.436 0-.538-.126-1.017-.314-1.436-.189-.419-.503-.778-.88-.957-.377-.24-.817-.359-1.383-.359h-5.405v-2.154h5.342c1.006 0 1.886.179 2.64.598.754.419 1.383 1.017 1.76 1.735.44.778.628 1.616.628 2.573 0 .957-.188 1.855-.628 2.573s-1.006 1.316-1.76 1.735c-.754.419-1.634.598-2.64.598h-5.342v-2.154zm15.586 7.841c-.879-.479-1.571-1.197-2.074-2.094-.502-.898-.754-1.975-.754-3.172v-4.427c0-1.197.252-2.274.754-3.171.503-.898 1.195-1.616 2.074-2.095a6.501 6.501 0 013.08-.778c.943 0 1.885.18 2.702.599s1.509.957 2.074 1.675c.566.718.943 1.556 1.132 2.513h-2.451a3.33 3.33 0 00-.755-1.376c-.377-.419-.754-.718-1.194-.897-.44-.24-.942-.3-1.445-.3-.692 0-1.32.18-1.823.479a3.096 3.096 0 00-1.194 1.316c-.314.599-.44 1.257-.44 1.975v4.428c0 .777.126 1.436.44 1.974.314.598.691 1.017 1.194 1.316a3.56 3.56 0 001.823.479c.503 0 1.005-.12 1.445-.299.44-.18.88-.479 1.194-.898.315-.418.566-.837.755-1.376h2.451c-.189.958-.566 1.795-1.132 2.513-.565.718-1.257 1.257-2.074 1.676-.817.418-1.696.598-2.639.598-1.257.12-2.263-.12-3.143-.658zm11.756-15.559h2.388v16.155h-2.388v-16.155zm1.194 7.06h5.28v2.154h-5.28v-2.154zm3.206 1.975l2.074-1.137 6.536 8.257h-3.331l-5.279-7.12zm0-1.735l4.902-7.3h3.016l-6.724 9.274-1.194-1.974zm12.381 8.304c-.88-.479-1.572-1.197-2.074-2.094-.503-.898-.755-1.915-.755-3.111v-4.548c0-1.196.252-2.214.755-3.111.502-.898 1.194-1.616 2.074-2.094.879-.479 1.948-.718 3.142-.718s2.2.239 3.142.718c.88.478 1.572 1.196 2.074 2.094.503.897.755 1.915.755 3.111v4.548c0 1.196-.252 2.213-.755 3.111-.502.897-1.194 1.615-2.074 2.094-.88.479-1.948.718-3.142.718s-2.2-.239-3.142-.718zm5.027-1.974c.503-.3.943-.718 1.257-1.257.315-.538.44-1.197.44-1.915v-4.726c0-.718-.125-1.377-.44-1.915-.314-.539-.691-.957-1.257-1.257a3.565 3.565 0 00-1.822-.478c-.692 0-1.32.179-1.823.478-.503.3-.943.718-1.257 1.257-.314.538-.44 1.197-.44 1.915v4.726c0 .718.126 1.377.44 1.915.314.539.692.957 1.257 1.257a3.569 3.569 0 001.823.478c.691 0 1.257-.179 1.822-.478zm19.543-13.63h2.199v16.155h-2.325v-12.086l.126.718-4.148 9.154h-1.634l-4.148-8.915.125-.957v12.086h-2.325v-16.155h2.2l4.965 10.65 4.965-10.65zm10.872 0h2.702l4.965 11.548-1.508 1.795-6.159-13.343zm8.547 12.804c-.314.778-.628 1.436-1.005 1.975-.377.538-.817.897-1.383 1.137a4.277 4.277 0 01-1.823.418h-1.948v-2.213h1.948c.378 0 .692-.06.943-.24.252-.179.503-.419.754-.718.189-.299.44-.718.566-1.196l4.336-11.907h2.577l-4.965 12.744zm8.993-2.273c-.754-.419-1.382-.958-1.759-1.736a6.179 6.179 0 01-.629-2.752v-5.983h2.388v6.043c0 .897.252 1.615.755 2.094.502.479 1.257.718 2.199.718 1.132 0 1.949-.239 2.577-.778.629-.538.88-1.256.88-2.214v-1.256h.754v1.197c0 1.136-.188 2.094-.503 2.872a4.135 4.135 0 01-1.508 1.854c-.691.419-1.445.599-2.388.599-1.069-.06-2.011-.299-2.766-.658zm6.474-10.531h2.388v16.155h-2.388v-16.155zm6.283 0h2.388v16.155h-2.388v-16.155zm1.131 0h9.741v2.154h-9.741v-2.154zm0 7.06h8.485v2.154h-8.485v-2.154zm0 6.941h9.741v2.154h-9.741v-2.154zm11.433-14.001h11.941v2.154h-11.941v-2.154zm4.777 1.316h2.388v14.839h-2.388V134.63zm9.175-1.316h2.389v16.155h-2.389v-16.155zm1.194 0h9.742v2.154h-9.742v-2.154zm0 7.06h8.485v2.154h-8.485v-2.154zm0 6.941h9.742v2.154h-9.742v-2.154z" fill="#034A66"/><path d="M447.163 70.268c-.726.622-1.67.968-2.686.968-1.09 0-2.179-.415-2.977-1.314l-16.191-15.206v12.856c0 2.005-1.742 3.664-3.848 3.664-2.105 0-3.848-1.66-3.848-3.664v-44.79c0-2.004 1.743-3.663 3.848-3.663 2.106 0 3.848 1.659 3.848 3.663v24.676l12.851-12.165c1.452-1.52 3.993-1.659 5.663-.276 1.597 1.382 1.743 3.801.291 5.39l-11.472 10.507 14.884 14.032c1.452 1.52 1.307 3.87-.363 5.322zm-39.938-41.33c-2.106 0-3.848 1.66-3.848 3.664v2.28a20.203 20.203 0 00-4.211-2.902c-3.413-1.867-7.188-2.834-11.254-2.834-3.848 0-7.551.967-10.89 2.903-3.34 1.935-6.026 4.493-7.987 7.741-1.96 3.249-2.976 6.774-2.976 10.438 0 3.732 1.016 7.188 2.976 10.368 2.033 3.18 4.72 5.737 8.132 7.534 3.412 1.866 7.115 2.834 11.036 2.834 3.92 0 7.623-.968 11.035-2.834 1.452-.83 2.759-1.728 3.994-2.834v2.212c0 2.004 1.742 3.663 3.848 3.663 2.105 0 3.847-1.659 3.847-3.663V32.533c.146-1.936-1.597-3.595-3.702-3.595zm-5.809 28.34c-1.306 2.28-3.122 4.078-5.372 5.391-2.324 1.314-4.865 1.936-7.624 1.936-2.758 0-5.3-.622-7.696-1.936-2.395-1.313-4.211-3.041-5.59-5.253-1.307-2.143-2.033-4.562-2.033-7.188 0-2.627.654-5.115 1.96-7.327 1.307-2.212 3.122-3.94 5.446-5.253 2.323-1.314 4.937-2.005 7.768-2.143h.291c2.541 0 5.009.622 7.26 1.935 2.251 1.314 4.066 3.042 5.445 5.253 1.307 2.143 2.033 4.562 2.033 6.982.073 2.834-.581 5.322-1.888 7.603zM233.045 29.076c-2.105 0-3.848 1.659-3.848 3.663v2.282a20.176 20.176 0 00-4.211-2.904c-3.412-1.866-7.188-2.834-11.253-2.834-3.848 0-7.551.968-10.891 2.904-3.34 1.935-6.026 4.492-7.986 7.741-1.961 3.249-2.977 6.774-2.977 10.437 0 3.733 1.016 7.189 2.977 10.368 2.033 3.18 4.719 5.738 8.131 7.535 3.413 1.866 7.115 2.834 11.036 2.834 3.921 0 7.623-.968 11.036-2.834 1.452-.83 2.759-1.728 3.993-2.834v2.212c0 2.004 1.742 3.663 3.848 3.663 2.105 0 3.848-1.659 3.848-3.663V32.67c.145-1.935-1.597-3.594-3.703-3.594zm-5.808 28.34c-1.307 2.28-3.122 4.078-5.373 5.391-2.251 1.313-4.864 1.936-7.623 1.936-2.759 0-5.373-.623-7.696-1.936-2.324-1.313-4.211-3.041-5.591-5.253-1.307-2.143-2.033-4.562-2.033-7.189 0-2.626.654-5.115 1.961-7.327 1.307-2.211 3.122-3.94 5.445-5.253 2.251-1.313 4.937-2.004 7.769-2.142h.29c2.541 0 5.01.622 7.26 1.935 2.251 1.313 4.066 3.041 5.446 5.253 1.306 2.143 2.032 4.562 2.032 6.981.073 2.765-.58 5.323-1.887 7.604zm102.162-28.34c-2.106 0-3.848 1.659-3.848 3.663v2.282a20.203 20.203 0 00-4.211-2.904c-3.413-1.866-7.188-2.834-11.254-2.834-3.848 0-7.551.968-10.89 2.904-3.34 1.935-6.027 4.492-7.987 7.741-1.96 3.249-2.977 6.774-2.977 10.437 0 3.733 1.017 7.189 2.977 10.368 2.033 3.18 4.719 5.738 8.132 7.535 3.412 1.866 7.115 2.834 11.035 2.834 3.921 0 7.624-.968 11.036-2.834 1.452-.83 2.759-1.728 3.993-2.834v2.212c0 2.004 1.743 3.663 3.848 3.663 2.106 0 3.848-1.659 3.848-3.663V32.67c.146-1.935-1.597-3.594-3.702-3.594zm-5.809 28.34c-1.307 2.28-3.122 4.078-5.372 5.391-2.251 1.313-4.865 1.936-7.624 1.936-2.759 0-5.372-.623-7.696-1.936-2.323-1.313-4.211-3.041-5.59-5.253-1.307-2.143-2.033-4.562-2.033-7.189 0-2.626.653-5.115 1.96-7.327 1.307-2.211 3.122-3.94 5.446-5.253 2.25-1.313 4.937-2.004 7.768-2.142h.29c2.542 0 5.01.622 7.261 1.935 2.251 1.313 4.066 3.041 5.445 5.253 1.307 2.143 2.033 4.562 2.033 6.981.073 2.765-.581 5.323-1.888 7.604zm138.229 13.829c2.806 0 5.082-2.166 5.082-4.838s-2.276-4.839-5.082-4.839c-2.807 0-5.083 2.167-5.083 4.839 0 2.672 2.276 4.838 5.083 4.838zM169.312 29.771c-11.471-1.451-23.015 6.152-24.104 17.073-.944 9.885-.363 31.036-.363 31.312 0 2.005 1.742 3.663 3.848 3.663 2.105 0 3.848-1.658 3.848-3.663 0-.415-.145-22.74.072-27.164.291-8.157 6.389-14.101 14.085-13.894 7.333.139 13.505 6.221 13.505 13.202 0 7.465-6.172 12.926-14.811 13.064-.073 0-.872-.069-1.162-.069-2.251 0-4.066 1.728-4.066 3.87 0 2.144 1.815 3.802 4.066 3.872.29 0 1.379.069 1.597.069 11.399.415 21.128-7.88 22.144-18.801.944-11.405-7.042-21.082-18.659-22.534z" fill="#C47A2C"/><path d="M495.738 70.959c-11.471 1.451-23.015-6.152-24.104-17.073-.944-9.885-.363-30.828-.363-31.105 0-2.004 1.742-3.663 3.848-3.663 2.105 0 3.847 1.659 3.847 3.663 0 .415-.145 22.534.073 26.958.363 8.156 6.389 14.1 14.085 13.893 7.333-.138 13.504-6.221 13.504-13.202 0-7.465-6.171-12.926-14.811-13.064-.072 0-.871.069-1.234.069-2.251 0-4.066-1.728-4.066-3.87 0-2.144 1.815-3.802 3.993-3.872.291 0 1.38-.069 1.598-.069 11.398-.414 21.127 7.88 22.144 18.801 1.089 11.405-6.898 21.082-18.514 22.534zm66.068 3.859c-1.089 10.92-12.633 18.593-24.104 17.073a24.925 24.925 0 01-4.501-1.037 23.731 23.731 0 01-4.066-1.867c-1.234-.76-2.396-1.59-3.485-2.557l-1.162-1.106c-.145-.207-.363-.346-.508-.553-.871-1.175-1.162-2.696-.581-4.009.508-1.106 1.598-1.935 2.904-2.212.218-.069.509-.069.726-.069 1.017 0 1.961.346 2.614.968l.073.069c.145.069.218.207.363.276 2.541 2.834 6.171 4.7 10.237 4.77 5.953.138 10.89-3.387 12.996-8.71.653-1.59.944-3.248.944-4.976l.145-4.562c-3.049 2.419-6.825 4.078-11.108 4.63-11.472 1.452-23.016-6.15-24.105-17.072-.508-5.046-.581-12.995-.581-19.63v-1.106c0-.208 0-.415.073-.622v-.07a3.91 3.91 0 013.775-2.902c2.033 0 3.631 1.451 3.848 3.317 0 .139.073.277.073.415v.899c0 6.29 0 13.34.073 15.552.363 8.156 6.389 14.1 14.085 13.893 7.333-.138 13.722-6.29 13.722-13.271V33.275c0-.968.363-1.866 1.016-2.558.799-.829 1.96-1.244 3.049-1.105.436.069.944.138 1.307.345.436.208.872.484 1.235.83.653.69 1.016 1.59 1.016 2.488V43.85c.436 2.696.871 21.704-.073 30.967z" fill="#034A66"/><path d="M520.48 31.774c-.073.207-.073.415-.073.622v-.138c0-.138 0-.346.073-.484z" fill="#034A66"/><path d="M259.676 71.097c11.471 1.451 23.015-6.152 24.104-17.073.944-9.884.363-30.966.363-31.243 0-2.004-1.742-3.663-3.848-3.663-2.105 0-3.848 1.659-3.848 3.663 0 .415.146 22.672-.072 27.096-.363 8.156-6.389 14.1-14.085 13.893-7.333-.138-13.505-6.22-13.505-13.202 0-7.465 6.172-12.926 14.811-13.064.073 0 .872.07 1.162.07 2.251 0 4.066-1.729 4.066-3.872 0-2.142-1.815-3.801-3.993-3.87-.291 0-1.38-.07-1.598-.07-11.398-.414-21.127 7.88-22.144 18.801-1.089 11.405 6.898 21.082 18.587 22.534zm93.608-11.398c0 1.244.29 2.28 1.307 3.11.581.484 1.307.76 2.105.899.726.138 1.38.069 2.033.345 1.235.484 2.106 1.59 2.251 2.834 0 .208.073.415.073.553 0 1.728-1.235 3.18-2.832 3.595-.436.069-.871.138-1.307.138h-.508c-7.26 0-10.963-4.493-10.963-10.921 0-4.77 0-20.53.072-23.225h-3.484c-2.106 0-3.921-1.452-4.139-3.456-.218-2.281 1.67-4.147 3.993-4.147h3.63v-6.36c0-1.935 1.453-3.663 3.485-3.801 2.251-.207 4.211 1.52 4.211 3.663v6.498h6.68c2.105 0 3.921 1.451 4.138 3.387.218 2.28-1.597 4.216-3.993 4.216h-6.752V59.7z" fill="#C47A2C"/></svg>