<svg width="563" height="150" viewBox="0 0 563 150" fill="none" xmlns="http://www.w3.org/2000/svg">
<path d="M88.9169 111.069C64.4853 114.21 39.8177 97.9444 37.4572 74.6113C35.4507 53.5217 36.631 8.53814 36.631 7.97725C36.631 3.71447 40.2898 0.124756 44.8929 0.124756C49.4959 0.124756 53.1547 3.60229 53.1547 7.97725C53.1547 8.87468 52.9187 56.4383 53.2728 65.8613C53.8629 83.1368 66.8459 95.813 83.3696 95.4764C98.9492 95.1399 112.168 82.2394 112.168 67.3197C112.168 51.3903 99.0672 39.7238 80.655 39.6116C80.537 39.6116 78.7666 39.8359 78.0584 39.8359C73.3373 39.8359 69.4425 36.134 69.4425 31.6469C69.4425 27.1598 73.3373 23.5701 78.0584 23.3457C78.6485 23.3457 80.8911 23.1213 81.5992 23.1213C105.913 22.2239 126.685 39.9481 128.81 63.169C130.816 87.2874 113.821 107.816 88.9169 111.069Z" fill="#C47A2C"/>
<path d="M11.6077 41.1749C16.5618 41.1749 20.5778 37.3579 20.5778 32.6493C20.5778 27.9408 16.5618 24.1238 11.6077 24.1238C6.65372 24.1238 2.6377 27.9408 2.6377 32.6493C2.6377 37.3579 6.65372 41.1749 11.6077 41.1749Z" fill="#C47A2C"/>
<path d="M52.6786 38.9402C28.2471 35.7992 3.46143 52.0651 1.21892 75.3982C-0.905561 96.4878 0.392734 141.471 0.392734 142.144C0.392734 146.407 4.05157 149.997 8.65462 149.997C13.1396 149.997 16.9165 146.519 16.9165 142.144C16.9165 141.247 16.6804 93.6833 17.0345 84.2603C17.7427 66.8726 30.7256 54.3087 47.1314 54.6452C62.7109 54.9817 76.048 67.8822 75.9299 82.802C75.9299 98.7313 62.8289 110.398 44.4168 110.51C44.2987 110.51 42.5283 110.286 41.8202 110.286C37.0991 110.286 33.2042 113.988 33.2042 118.475C33.2042 122.962 37.0991 126.552 41.8202 126.776C42.4103 126.776 44.6528 126.888 45.361 127C69.6745 127.898 90.4472 110.174 92.5717 86.9526C94.5782 62.722 77.4643 42.1934 52.6786 38.9402Z" fill="#034A66"/>
<path d="M53.1516 65.7447C53.8598 83.1323 66.8427 95.6963 83.3665 95.472C98.946 95.1354 112.165 82.2349 112.165 67.3152C112.165 60.3601 127.509 50.0397 128.689 63.1646C130.813 87.3951 113.699 107.924 88.9138 111.177C64.4822 114.318 39.8146 98.0521 37.454 74.719C36.3918 64.062 53.0336 61.1454 53.1516 65.7447Z" fill="#C47A2C"/>
<path d="M145.327 106.029H147.715V122.184H145.327V106.029ZM146.836 120.03H158.085V122.184H146.836V120.03ZM154.943 106.029H157.331V122.184H154.943V106.029ZM157.268 120.03H159.657V125.535H157.268V120.03Z" fill="#034A66"/>
<path d="M172.477 122.184V109.5L172.729 109.799L164.244 122.184H162.296V106.029H164.621V118.894L164.37 118.594L172.917 106.029H174.866V122.184H172.477Z" fill="#034A66"/>
<path d="M181.469 119.73C180.212 119.251 179.269 118.533 178.578 117.576C177.949 116.619 177.572 115.482 177.572 114.106V113.687C177.572 112.311 177.887 111.174 178.578 110.216C179.206 109.259 180.212 108.541 181.469 108.062C182.726 107.584 184.234 107.344 185.994 107.344C187.754 107.344 189.262 107.584 190.519 108.062C191.776 108.541 192.719 109.259 193.41 110.216C194.038 111.174 194.416 112.311 194.416 113.687V114.106C194.416 115.482 194.101 116.619 193.41 117.576C192.781 118.533 191.776 119.251 190.519 119.73C189.262 120.209 187.754 120.448 185.994 120.448C184.234 120.448 182.726 120.209 181.469 119.73ZM190.582 117.337C191.65 116.559 192.216 115.482 192.216 114.046V113.627C192.216 112.191 191.65 111.114 190.582 110.336C189.513 109.558 188.005 109.199 186.057 109.199C184.108 109.199 182.6 109.558 181.532 110.336C180.463 111.114 179.898 112.191 179.898 113.627V114.046C179.898 115.482 180.463 116.559 181.532 117.337C182.6 118.115 184.108 118.473 186.057 118.473C188.005 118.473 189.513 118.055 190.582 117.337ZM184.863 105.49H187.251V122.183H184.863V105.49Z" fill="#034A66"/>
<path d="M196.997 106.029H199.385V122.184H196.997V106.029ZM198.254 113.748H203.659C204.162 113.748 204.602 113.628 205.042 113.389C205.419 113.15 205.733 112.85 205.921 112.432C206.11 112.013 206.236 111.534 206.236 110.996C206.236 110.457 206.11 109.978 205.921 109.56C205.733 109.141 205.419 108.782 205.042 108.602C204.665 108.363 204.225 108.243 203.659 108.243H198.254V106.089H203.596C204.602 106.089 205.482 106.269 206.236 106.688C206.99 107.106 207.618 107.705 207.995 108.423C208.435 109.201 208.624 110.038 208.624 110.996C208.624 111.953 208.435 112.85 207.995 113.568C207.556 114.286 206.99 114.885 206.236 115.304C205.482 115.722 204.602 115.902 203.596 115.902H198.254V113.748Z" fill="#034A66"/>
<path d="M213.77 121.641C212.89 121.163 212.198 120.445 211.696 119.547C211.193 118.65 210.941 117.633 210.941 116.436V111.889C210.941 110.692 211.193 109.675 211.696 108.777C212.198 107.88 212.89 107.162 213.77 106.683C214.649 106.204 215.718 105.965 216.912 105.965C218.106 105.965 219.112 106.204 220.054 106.683C220.934 107.162 221.626 107.88 222.128 108.777C222.631 109.675 222.883 110.692 222.883 111.889V116.436C222.883 117.633 222.631 118.65 222.128 119.547C221.626 120.445 220.934 121.163 220.054 121.641C219.175 122.12 218.106 122.359 216.912 122.359C215.718 122.359 214.649 122.12 213.77 121.641ZM218.735 119.667C219.237 119.368 219.677 118.949 219.992 118.41C220.306 117.872 220.431 117.214 220.431 116.496V111.769C220.431 111.051 220.306 110.393 219.992 109.854C219.677 109.316 219.3 108.897 218.735 108.598C218.232 108.299 217.603 108.119 216.912 108.119C216.221 108.119 215.592 108.299 215.089 108.598C214.587 108.897 214.147 109.316 213.832 109.854C213.518 110.393 213.392 111.051 213.392 111.769V116.496C213.392 117.214 213.518 117.872 213.832 118.41C214.147 118.949 214.524 119.368 215.089 119.667C215.592 119.966 216.221 120.146 216.912 120.146C217.603 120.146 218.169 119.966 218.735 119.667Z" fill="#034A66"/>
<path d="M226.094 106.029H228.482V122.184H226.094V106.029ZM227.476 120.09H232.064C233.258 120.09 234.138 119.851 234.704 119.432C235.27 119.013 235.521 118.355 235.521 117.577V117.517C235.521 116.979 235.395 116.5 235.207 116.081C235.018 115.663 234.704 115.363 234.264 115.184C233.824 114.945 233.258 114.885 232.63 114.885H227.476V112.85H232.63C233.51 112.85 234.201 112.671 234.641 112.252C235.081 111.833 235.332 111.295 235.332 110.517C235.332 109.739 235.081 109.081 234.578 108.722C234.075 108.303 233.321 108.124 232.316 108.124H227.476V106.029H232.756C233.824 106.029 234.767 106.209 235.521 106.568C236.275 106.927 236.841 107.406 237.155 108.064C237.532 108.722 237.721 109.5 237.721 110.397C237.721 110.936 237.595 111.474 237.406 111.953C237.155 112.432 236.841 112.85 236.401 113.209C235.961 113.568 235.395 113.808 234.704 113.927C235.395 114.047 235.961 114.227 236.464 114.645C236.966 115.004 237.344 115.483 237.595 116.022C237.846 116.56 237.972 117.158 237.972 117.817V117.876C237.972 118.774 237.783 119.492 237.344 120.21C236.966 120.868 236.338 121.407 235.584 121.766C234.83 122.125 233.95 122.304 232.944 122.304H227.476V120.09Z" fill="#034A66"/>
<path d="M245.45 106.029H247.461L253.683 122.184H251.107L246.393 109.141L241.679 122.184H239.103L245.45 106.029ZM242.056 116.5H250.981V118.654H242.056V116.5Z" fill="#034A66"/>
<path d="M259.458 114.705L261.846 115.244L257.761 122.244H254.933L259.458 114.705ZM257.384 115.124C256.63 114.705 256.064 114.167 255.624 113.449C255.184 112.731 254.995 111.893 254.995 110.936C254.995 109.978 255.184 109.141 255.624 108.423C256.001 107.705 256.63 107.106 257.321 106.747C258.075 106.329 258.955 106.149 259.898 106.149H265.491V108.303H259.835C259.395 108.303 258.955 108.423 258.641 108.662C258.264 108.901 258.012 109.201 257.824 109.619C257.635 110.038 257.509 110.517 257.509 110.996C257.509 111.474 257.635 112.013 257.824 112.372C258.012 112.791 258.264 113.09 258.641 113.329C259.018 113.568 259.395 113.688 259.835 113.688H265.491V115.842H259.898C259.018 115.722 258.138 115.483 257.384 115.124ZM264.171 106.029H266.56V122.184H264.171V106.029Z" fill="#034A66"/>
<path d="M276.492 106.029H278.88V122.184H276.492V106.029ZM277.938 106.029H287.365V108.183H277.938V106.029ZM286.108 106.029H288.496V122.184H286.108V106.029Z" fill="#034A66"/>
<path d="M291.388 120.03C292.079 120.03 292.645 119.851 293.022 119.552C293.462 119.253 293.776 118.774 293.964 118.176C294.153 117.517 294.279 116.74 294.279 115.722V106.029H296.667V115.543C296.667 117.099 296.478 118.355 296.164 119.312C295.787 120.27 295.284 120.988 294.53 121.466C293.776 121.945 292.833 122.184 291.639 122.184H291.388V120.03ZM295.787 106.029H303.894V108.183H295.787V106.029ZM302.638 106.029H305.026V122.184H302.638V106.029Z" fill="#034A66"/>
<path d="M313.262 106.029H315.273L321.495 122.184H318.918L314.204 109.141L309.491 122.184H306.914L313.262 106.029ZM309.868 116.5H318.792V118.654H309.868V116.5Z" fill="#034A66"/>
<path d="M320.929 106.029H332.87V108.183H320.929V106.029ZM325.705 107.346H328.093V122.184H325.705V107.346Z" fill="#034A66"/>
<path d="M337.21 119.73C335.953 119.251 335.01 118.533 334.319 117.576C333.691 116.619 333.313 115.482 333.313 114.106V113.687C333.313 112.311 333.628 111.174 334.319 110.216C334.948 109.259 335.953 108.541 337.21 108.062C338.467 107.584 339.975 107.344 341.735 107.344C343.495 107.344 345.003 107.584 346.26 108.062C347.517 108.541 348.46 109.259 349.151 110.216C349.78 111.174 350.157 112.311 350.157 113.687V114.106C350.157 115.482 349.843 116.619 349.151 117.576C348.523 118.533 347.517 119.251 346.26 119.73C345.003 120.209 343.495 120.448 341.735 120.448C339.975 120.448 338.467 120.209 337.21 119.73ZM346.323 117.337C347.391 116.559 347.957 115.482 347.957 114.046V113.627C347.957 112.191 347.391 111.114 346.323 110.336C345.255 109.558 343.746 109.199 341.798 109.199C339.85 109.199 338.341 109.558 337.273 110.336C336.204 111.114 335.639 112.191 335.639 113.627V114.046C335.639 115.482 336.204 116.559 337.273 117.337C338.341 118.115 339.85 118.473 341.798 118.473C343.746 118.473 345.255 118.055 346.323 117.337ZM340.604 105.49H342.992V122.183H340.604V105.49Z" fill="#034A66"/>
<path d="M354.988 121.641C354.108 121.163 353.417 120.445 352.914 119.547C352.412 118.65 352.16 117.633 352.16 116.436V111.889C352.16 110.692 352.412 109.675 352.914 108.777C353.417 107.88 354.108 107.162 354.988 106.683C355.868 106.204 356.937 105.965 358.131 105.965C359.325 105.965 360.33 106.204 361.273 106.683C362.153 107.162 362.844 107.88 363.347 108.777C363.85 109.675 364.101 110.692 364.101 111.889V116.436C364.101 117.633 363.85 118.65 363.347 119.547C362.844 120.445 362.153 121.163 361.273 121.641C360.393 122.12 359.325 122.359 358.131 122.359C356.937 122.359 355.868 122.12 354.988 121.641ZM359.953 119.667C360.456 119.368 360.896 118.949 361.21 118.41C361.525 117.872 361.65 117.214 361.65 116.496V111.769C361.65 111.051 361.525 110.393 361.21 109.854C360.896 109.316 360.519 108.897 359.953 108.598C359.451 108.299 358.822 108.119 358.131 108.119C357.439 108.119 356.811 108.299 356.308 108.598C355.805 108.897 355.365 109.316 355.051 109.854C354.737 110.393 354.611 111.051 354.611 111.769V116.496C354.611 117.214 354.737 117.872 355.051 118.41C355.365 118.949 355.742 119.368 356.308 119.667C356.811 119.966 357.439 120.146 358.131 120.146C358.822 120.146 359.451 119.966 359.953 119.667Z" fill="#034A66"/>
<path d="M367.306 106.029H369.694V122.184H367.306V106.029ZM368.563 113.748H373.968C374.47 113.748 374.91 113.628 375.35 113.389C375.727 113.15 376.042 112.85 376.23 112.432C376.419 112.013 376.544 111.534 376.544 110.996C376.544 110.457 376.419 109.978 376.23 109.56C376.042 109.141 375.727 108.782 375.35 108.602C374.973 108.363 374.533 108.243 373.968 108.243H368.563V106.089H373.905C374.91 106.089 375.79 106.269 376.544 106.688C377.298 107.106 377.927 107.705 378.304 108.423C378.744 109.201 378.933 110.038 378.933 110.996C378.933 111.953 378.744 112.85 378.304 113.568C377.864 114.286 377.298 114.885 376.544 115.304C375.79 115.722 374.91 115.902 373.905 115.902H368.563V113.748Z" fill="#034A66"/>
<path d="M394.144 106.029H396.343V122.184H394.018V110.098L394.144 110.816L389.996 119.971H388.362L384.214 111.055L384.339 110.098V122.184H381.951V106.029H384.151L389.116 116.68L394.144 106.029Z" fill="#034A66"/>
<path d="M404.581 106.029H406.592L412.814 122.184H410.237L405.524 109.141L400.81 122.184H398.233L404.581 106.029ZM401.187 116.5H410.112V118.654H401.187V116.5Z" fill="#034A66"/>
<path d="M147.844 148.918C146.964 148.439 146.273 147.721 145.77 146.824C145.267 145.926 145.016 144.909 145.016 143.713V139.165C145.016 137.969 145.267 136.951 145.77 136.054C146.273 135.156 146.964 134.438 147.844 133.96C148.724 133.481 149.792 133.242 150.986 133.242C152.18 133.242 153.186 133.481 154.129 133.96C155.008 134.438 155.7 135.156 156.203 136.054C156.705 136.951 156.957 137.969 156.957 139.165V143.713C156.957 144.909 156.705 145.926 156.203 146.824C155.7 147.721 155.008 148.439 154.129 148.918C153.249 149.397 152.18 149.636 150.986 149.636C149.792 149.636 148.724 149.397 147.844 148.918ZM152.809 146.944C153.312 146.644 153.752 146.226 154.066 145.687C154.38 145.149 154.506 144.49 154.506 143.772V139.046C154.506 138.328 154.38 137.669 154.066 137.131C153.752 136.592 153.374 136.174 152.809 135.874C152.306 135.575 151.678 135.396 150.986 135.396C150.295 135.396 149.666 135.575 149.164 135.874C148.661 136.174 148.221 136.592 147.907 137.131C147.592 137.669 147.467 138.328 147.467 139.046V143.772C147.467 144.49 147.592 145.149 147.907 145.687C148.221 146.226 148.598 146.644 149.164 146.944C149.666 147.243 150.295 147.422 150.986 147.422C151.678 147.422 152.243 147.243 152.809 146.944Z" fill="#034A66"/>
<path d="M166.568 133.314H168.893V149.469H166.505V133.314H166.568ZM168.013 140.434H177.44V142.588H168.013V140.434ZM176.183 133.314H178.572V149.469H176.183V133.314Z" fill="#034A66"/>
<path d="M186.812 133.314H188.824L195.046 149.469H192.469L187.755 136.425L183.042 149.469H180.465L186.812 133.314ZM183.482 143.785H192.406V145.939H183.482V143.785Z" fill="#034A66"/>
<path d="M196.864 147.315C197.556 147.315 198.121 147.135 198.498 146.836C198.938 146.537 199.252 146.058 199.441 145.46C199.63 144.802 199.755 144.024 199.755 143.007V133.314H202.206V142.827C202.206 144.383 202.018 145.64 201.704 146.597C201.326 147.554 200.824 148.272 200.07 148.751C199.315 149.23 198.373 149.469 197.178 149.469H196.927V147.315H196.864ZM201.264 133.314H209.371V135.468H201.264V133.314ZM208.177 133.314H210.565V149.469H208.177V133.314Z" fill="#034A66"/>
<path d="M216.91 148.918C216.03 148.439 215.339 147.721 214.836 146.824C214.333 145.926 214.082 144.909 214.082 143.713V139.165C214.082 137.969 214.333 136.951 214.836 136.054C215.339 135.156 216.03 134.438 216.91 133.96C217.79 133.481 218.858 133.242 220.053 133.242C221.247 133.242 222.252 133.481 223.195 133.96C224.075 134.438 224.766 135.156 225.269 136.054C225.772 136.951 226.023 137.969 226.023 139.165V143.713C226.023 144.909 225.772 145.926 225.269 146.824C224.766 147.721 224.075 148.439 223.195 148.918C222.315 149.397 221.247 149.636 220.053 149.636C218.858 149.636 217.79 149.397 216.91 148.918ZM221.875 146.944C222.378 146.644 222.818 146.226 223.132 145.687C223.446 145.149 223.572 144.49 223.572 143.772V139.046C223.572 138.328 223.446 137.669 223.132 137.131C222.818 136.592 222.441 136.174 221.875 135.874C221.372 135.575 220.744 135.396 220.053 135.396C219.361 135.396 218.733 135.575 218.23 135.874C217.727 136.174 217.287 136.592 216.973 137.131C216.659 137.669 216.533 138.328 216.533 139.046V143.772C216.533 144.49 216.659 145.149 216.973 145.687C217.287 146.226 217.664 146.644 218.23 146.944C218.733 147.243 219.361 147.422 220.053 147.422C220.744 147.422 221.31 147.243 221.875 146.944Z" fill="#034A66"/>
<path d="M229.297 133.314H231.685V149.469H229.297V133.314ZM230.428 133.314H238.787V135.468H230.428V133.314Z" fill="#034A66"/>
<path d="M244.818 133.314H246.829L253.051 149.469H250.474L245.76 136.425L241.172 149.469H238.596L244.818 133.314ZM241.487 143.785H250.411V145.939H241.487V143.785Z" fill="#034A66"/>
<path d="M259.398 140.255L263.671 133.314H266.311L260.717 142.05L256.192 149.469H253.553L259.398 140.255ZM259.523 142.409L259.146 141.87L253.616 133.374H256.255L260.34 139.955L260.717 140.554L266.499 149.529H263.86L259.523 142.409Z" fill="#034A66"/>
<path d="M284.912 149.469V136.784L285.163 137.083L276.679 149.469H274.73V133.314H277.056V146.178L276.804 145.879L285.352 133.314H287.3V149.469H284.912Z" fill="#034A66"/>
<path d="M297.233 133.314H299.622V149.469H297.233V133.314ZM298.365 133.314H307.666V135.468H298.365V133.314ZM298.49 147.315H303.895C304.461 147.315 304.901 147.195 305.278 147.016C305.655 146.836 305.969 146.477 306.158 146.118C306.346 145.699 306.472 145.221 306.472 144.682C306.472 144.084 306.346 143.605 306.158 143.246C305.969 142.827 305.655 142.528 305.278 142.349C304.901 142.109 304.398 142.05 303.895 142.05H298.49V139.896H303.832C304.901 139.896 305.844 140.075 306.598 140.434C307.352 140.793 307.918 141.391 308.358 142.109C308.735 142.827 308.986 143.725 308.986 144.742C308.986 145.759 308.797 146.597 308.358 147.375C307.98 148.093 307.352 148.631 306.598 149.05C305.844 149.409 304.901 149.589 303.832 149.589H298.49V147.315Z" fill="#034A66"/>
<path d="M309.798 133.314H312.5L317.465 144.862L315.957 146.657L309.798 133.314ZM318.408 146.118C318.094 146.896 317.78 147.554 317.402 148.093C317.025 148.631 316.585 148.99 316.02 149.23C315.517 149.469 314.889 149.648 314.197 149.648H312.186V147.435H314.134C314.511 147.435 314.826 147.375 315.077 147.195C315.328 147.016 315.58 146.776 315.831 146.477C316.02 146.178 316.271 145.759 316.397 145.281L320.733 133.374H323.31L318.408 146.118Z" fill="#034A66"/>
<path d="M329.54 140.255L333.814 133.314H336.453L330.86 142.05L326.335 149.469H323.695L329.54 140.255ZM329.603 142.409L329.226 141.87L323.695 133.374H326.335L330.42 139.955L330.797 140.554L336.579 149.529H333.94L329.603 142.409Z" fill="#034A66"/>
<path d="M338.965 133.314H341.353V149.469H338.965V133.314ZM340.096 133.314H348.455V135.468H340.096V133.314Z" fill="#034A66"/>
<path d="M354.486 133.314H356.497L362.719 149.469H360.143L355.429 136.425L350.715 149.469H348.139L354.486 133.314ZM351.155 143.785H360.08V145.939H351.155V143.785Z" fill="#034A66"/>
<path d="M364.608 147.315C365.3 147.315 365.865 147.135 366.242 146.836C366.682 146.537 366.997 146.058 367.185 145.46C367.374 144.802 367.499 144.024 367.499 143.007V133.314H369.888V142.827C369.888 144.383 369.699 145.64 369.385 146.597C369.008 147.554 368.505 148.272 367.751 148.751C366.997 149.23 366.054 149.469 364.86 149.469H364.608V147.315ZM368.945 133.314H377.052V135.468H368.945V133.314ZM375.858 133.314H378.246V149.469H375.858V133.314Z" fill="#034A66"/>
<path d="M380.696 133.314H392.637V135.468H380.696V133.314ZM385.473 134.63H387.861V149.469H385.473V134.63Z" fill="#034A66"/>
<path d="M394.711 133.314H397.099V149.469H394.711V133.314ZM395.842 133.314H405.584V135.468H395.842V133.314ZM395.842 140.374H404.327V142.528H395.842V140.374ZM395.842 147.315H405.584V149.469H395.842V147.315Z" fill="#034A66"/>
<path d="M408.662 133.314H411.05V149.469H408.662V133.314ZM409.856 141.032H415.261C415.764 141.032 416.204 140.913 416.644 140.673C417.021 140.434 417.335 140.135 417.524 139.716C417.712 139.297 417.838 138.819 417.838 138.28C417.838 137.742 417.712 137.263 417.524 136.844C417.335 136.425 417.021 136.066 416.644 135.887C416.267 135.647 415.827 135.528 415.261 135.528H409.856V133.374H415.198C416.204 133.374 417.084 133.553 417.838 133.972C418.592 134.391 419.221 134.989 419.598 135.707C420.038 136.485 420.226 137.323 420.226 138.28C420.226 139.237 420.038 140.135 419.598 140.853C419.158 141.571 418.592 142.169 417.838 142.588C417.084 143.007 416.204 143.186 415.198 143.186H409.856V141.032Z" fill="#034A66"/>
<path d="M425.442 148.873C424.563 148.394 423.871 147.676 423.368 146.779C422.866 145.881 422.614 144.804 422.614 143.607V139.18C422.614 137.983 422.866 136.906 423.368 136.009C423.871 135.111 424.563 134.393 425.442 133.914C426.322 133.436 427.391 133.136 428.522 133.136C429.465 133.136 430.407 133.316 431.224 133.735C432.041 134.154 432.733 134.692 433.298 135.41C433.864 136.128 434.241 136.966 434.43 137.923H431.979C431.853 137.444 431.602 136.966 431.224 136.547C430.847 136.128 430.47 135.829 430.03 135.65C429.59 135.41 429.088 135.35 428.585 135.35C427.893 135.35 427.265 135.53 426.762 135.829C426.259 136.128 425.819 136.607 425.568 137.145C425.254 137.744 425.128 138.402 425.128 139.12V143.548C425.128 144.325 425.254 144.984 425.568 145.522C425.882 146.12 426.259 146.539 426.762 146.838C427.265 147.138 427.893 147.317 428.585 147.317C429.088 147.317 429.59 147.197 430.03 147.018C430.47 146.838 430.91 146.539 431.224 146.12C431.539 145.702 431.79 145.283 431.979 144.744H434.43C434.241 145.702 433.864 146.539 433.298 147.257C432.733 147.975 432.041 148.514 431.224 148.933C430.407 149.351 429.528 149.531 428.585 149.531C427.328 149.651 426.322 149.411 425.442 148.873Z" fill="#034A66"/>
<path d="M437.198 133.314H439.586V149.469H437.198V133.314ZM438.392 140.374H443.672V142.528H438.392V140.374ZM441.598 142.349L443.672 141.212L450.208 149.469H446.877L441.598 142.349ZM441.598 140.614L446.5 133.314H449.516L442.792 142.588L441.598 140.614Z" fill="#034A66"/>
<path d="M453.979 148.918C453.099 148.439 452.407 147.721 451.905 146.824C451.402 145.926 451.15 144.909 451.15 143.713V139.165C451.15 137.969 451.402 136.951 451.905 136.054C452.407 135.156 453.099 134.438 453.979 133.96C454.858 133.481 455.927 133.242 457.121 133.242C458.315 133.242 459.321 133.481 460.263 133.96C461.143 134.438 461.835 135.156 462.337 136.054C462.84 136.951 463.092 137.969 463.092 139.165V143.713C463.092 144.909 462.84 145.926 462.337 146.824C461.835 147.721 461.143 148.439 460.263 148.918C459.383 149.397 458.315 149.636 457.121 149.636C455.927 149.636 454.921 149.397 453.979 148.918ZM459.006 146.944C459.509 146.644 459.949 146.226 460.263 145.687C460.578 145.149 460.703 144.49 460.703 143.772V139.046C460.703 138.328 460.578 137.669 460.263 137.131C459.949 136.592 459.572 136.174 459.006 135.874C458.504 135.575 457.875 135.396 457.184 135.396C456.492 135.396 455.864 135.575 455.361 135.874C454.858 136.174 454.418 136.592 454.104 137.131C453.79 137.669 453.664 138.328 453.664 139.046V143.772C453.664 144.49 453.79 145.149 454.104 145.687C454.418 146.226 454.796 146.644 455.361 146.944C455.864 147.243 456.492 147.422 457.184 147.422C457.875 147.422 458.441 147.243 459.006 146.944Z" fill="#034A66"/>
<path d="M478.549 133.314H480.748V149.469H478.423V137.383L478.549 138.101L474.401 147.255H472.767L468.619 138.34L468.744 137.383V149.469H466.419V133.314H468.619L473.584 143.964L478.549 133.314Z" fill="#034A66"/>
<path d="M489.421 133.314H492.123L497.088 144.862L495.58 146.657L489.421 133.314ZM497.968 146.118C497.654 146.896 497.34 147.554 496.963 148.093C496.586 148.631 496.146 148.99 495.58 149.23C495.077 149.469 494.449 149.648 493.757 149.648H491.809V147.435H493.757C494.135 147.435 494.449 147.375 494.7 147.195C494.952 147.016 495.203 146.776 495.454 146.477C495.643 146.178 495.894 145.759 496.02 145.281L500.356 133.374H502.933L497.968 146.118Z" fill="#034A66"/>
<path d="M506.961 143.845C506.207 143.426 505.579 142.887 505.202 142.109C504.825 141.332 504.573 140.434 504.573 139.357V133.374H506.961V139.417C506.961 140.314 507.213 141.032 507.716 141.511C508.218 141.99 508.973 142.229 509.915 142.229C511.047 142.229 511.864 141.99 512.492 141.451C513.121 140.913 513.372 140.195 513.372 139.237V137.981H514.126V139.178C514.126 140.314 513.938 141.272 513.623 142.05C513.309 142.827 512.743 143.486 512.115 143.904C511.424 144.323 510.67 144.503 509.727 144.503C508.658 144.443 507.716 144.204 506.961 143.845ZM513.435 133.314H515.823V149.469H513.435V133.314Z" fill="#034A66"/>
<path d="M519.718 133.314H522.106V149.469H519.718V133.314ZM520.849 133.314H530.59V135.468H520.849V133.314ZM520.849 140.374H529.334V142.528H520.849V140.374ZM520.849 147.315H530.59V149.469H520.849V147.315Z" fill="#034A66"/>
<path d="M532.282 133.314H544.223V135.468H532.282V133.314ZM537.059 134.63H539.447V149.469H537.059V134.63Z" fill="#034A66"/>
<path d="M546.234 133.314H548.623V149.469H546.234V133.314ZM547.428 133.314H557.17V135.468H547.428V133.314ZM547.428 140.374H555.913V142.528H547.428V140.374ZM547.428 147.315H557.17V149.469H547.428V147.315Z" fill="#034A66"/>
<path d="M447.163 70.2681C446.437 70.8902 445.493 71.2358 444.477 71.2358C443.387 71.2358 442.298 70.8211 441.5 69.9225L425.309 54.7159V67.5724C425.309 69.5769 423.567 71.2358 421.461 71.2358C419.356 71.2358 417.613 69.5769 417.613 67.5724V22.7821C417.613 20.7776 419.356 19.1187 421.461 19.1187C423.567 19.1187 425.309 20.7776 425.309 22.7821V47.4582L438.16 35.293C439.612 33.7723 442.153 33.634 443.823 35.0165C445.42 36.3989 445.566 38.8181 444.114 40.4079L432.642 50.9143L447.526 64.9458C448.978 66.4665 448.833 68.8166 447.163 70.2681Z" fill="#C47A2C"/>
<path d="M407.225 28.9384C405.119 28.9384 403.377 30.5973 403.377 32.6018V34.8828C402.142 33.7768 400.763 32.8091 399.166 31.9797C395.753 30.1134 391.978 29.1457 387.912 29.1457C384.064 29.1457 380.361 30.1134 377.022 32.0488C373.682 33.9842 370.996 36.5417 369.035 39.7903C367.075 43.039 366.059 46.5642 366.059 50.2276C366.059 53.9601 367.075 57.4162 369.035 60.5957C371.068 63.7753 373.755 66.3328 377.167 68.1299C380.579 69.9962 384.282 70.9639 388.203 70.9639C392.123 70.9639 395.826 69.9962 399.238 68.1299C400.69 67.3005 401.997 66.4019 403.232 65.296V67.5078C403.232 69.5123 404.974 71.1713 407.08 71.1713C409.185 71.1713 410.927 69.5123 410.927 67.5078V32.5326C411.073 30.5973 409.33 28.9384 407.225 28.9384ZM401.416 57.2779C400.11 59.5589 398.294 61.3561 396.044 62.6694C393.72 63.9827 391.179 64.6048 388.42 64.6048C385.662 64.6048 383.12 63.9827 380.724 62.6694C378.329 61.3561 376.513 59.628 375.134 57.4162C373.827 55.2734 373.101 52.8542 373.101 50.2276C373.101 47.601 373.755 45.1127 375.061 42.9008C376.368 40.6889 378.183 38.9609 380.507 37.6476C382.83 36.3343 385.444 35.6431 388.275 35.5048H388.566C391.107 35.5048 393.575 36.1269 395.826 37.4402C398.077 38.7535 399.892 40.4816 401.271 42.6934C402.578 44.8362 403.304 47.2554 403.304 49.6746C403.377 52.5086 402.723 54.9969 401.416 57.2779Z" fill="#C47A2C"/>
<path d="M233.045 29.076C230.94 29.076 229.197 30.7349 229.197 32.7395V35.0205C227.963 33.9145 226.583 32.9468 224.986 32.1174C221.574 30.2511 217.798 29.2834 213.733 29.2834C209.885 29.2834 206.182 30.2511 202.842 32.1865C199.502 34.1219 196.816 36.6794 194.856 39.928C192.895 43.1767 191.879 46.7019 191.879 50.3653C191.879 54.0978 192.895 57.5539 194.856 60.7334C196.889 63.913 199.575 66.4705 202.987 68.2676C206.4 70.1339 210.102 71.1016 214.023 71.1016C217.944 71.1016 221.646 70.1339 225.059 68.2676C226.511 67.4382 227.818 66.5396 229.052 65.4337V67.6455C229.052 69.65 230.794 71.3089 232.9 71.3089C235.005 71.3089 236.748 69.65 236.748 67.6455V32.6703C236.893 30.735 235.151 29.076 233.045 29.076ZM227.237 57.4156C225.93 59.6966 224.115 61.4938 221.864 62.8071C219.613 64.1204 217 64.7425 214.241 64.7425C211.482 64.7425 208.868 64.1204 206.545 62.8071C204.221 61.4938 202.334 59.7658 200.954 57.5539C199.647 55.4111 198.921 52.9919 198.921 50.3653C198.921 47.7387 199.575 45.2504 200.882 43.0385C202.189 40.8266 204.004 39.0986 206.327 37.7853C208.578 36.472 211.264 35.7808 214.096 35.6425H214.386C216.927 35.6425 219.396 36.2646 221.646 37.5779C223.897 38.8912 225.712 40.6192 227.092 42.8311C228.398 44.9739 229.124 47.3931 229.124 49.8123C229.197 52.5772 228.544 55.1346 227.237 57.4156Z" fill="#C47A2C"/>
<path d="M329.399 29.076C327.293 29.076 325.551 30.7349 325.551 32.7395V35.0205C324.316 33.9145 322.937 32.9468 321.34 32.1174C317.927 30.2511 314.152 29.2834 310.086 29.2834C306.238 29.2834 302.535 30.2511 299.196 32.1865C295.856 34.1219 293.169 36.6794 291.209 39.928C289.249 43.1767 288.232 46.7019 288.232 50.3653C288.232 54.0978 289.249 57.5539 291.209 60.7334C293.242 63.913 295.928 66.4705 299.341 68.2676C302.753 70.1339 306.456 71.1016 310.376 71.1016C314.297 71.1016 318 70.1339 321.412 68.2676C322.864 67.4382 324.171 66.5396 325.405 65.4337V67.6455C325.405 69.65 327.148 71.3089 329.253 71.3089C331.359 71.3089 333.101 69.65 333.101 67.6455V32.6703C333.247 30.735 331.504 29.076 329.399 29.076ZM323.59 57.4156C322.283 59.6966 320.468 61.4938 318.218 62.8071C315.967 64.1204 313.353 64.7425 310.594 64.7425C307.835 64.7425 305.222 64.1204 302.898 62.8071C300.575 61.4938 298.687 59.7658 297.308 57.5539C296.001 55.4111 295.275 52.9919 295.275 50.3653C295.275 47.7387 295.928 45.2504 297.235 43.0385C298.542 40.8266 300.357 39.0986 302.681 37.7853C304.931 36.472 307.618 35.7808 310.449 35.6425H310.739C313.281 35.6425 315.749 36.2646 318 37.5779C320.251 38.8912 322.066 40.6192 323.445 42.8311C324.752 44.9739 325.478 47.3931 325.478 49.8123C325.551 52.5772 324.897 55.1346 323.59 57.4156Z" fill="#C47A2C"/>
<path d="M461.819 71.2453C464.625 71.2453 466.901 69.079 466.901 66.4068C466.901 63.7346 464.625 61.5684 461.819 61.5684C459.012 61.5684 456.736 63.7346 456.736 66.4068C456.736 69.079 459.012 71.2453 461.819 71.2453Z" fill="#C47A2C"/>
<path d="M169.312 29.7715C157.841 28.3199 146.297 35.9232 145.208 46.8443C144.264 56.7286 144.845 77.8796 144.845 78.1561C144.845 80.1606 146.587 81.8195 148.693 81.8195C150.798 81.8195 152.541 80.1606 152.541 78.1561C152.541 77.7414 152.396 55.4153 152.613 50.9916C152.904 42.8353 159.002 36.8909 166.698 37.0983C174.031 37.2365 180.203 43.3192 180.203 50.3004C180.203 57.7654 174.031 63.226 165.392 63.3642C165.319 63.3642 164.52 63.2951 164.23 63.2951C161.979 63.2951 160.164 65.0231 160.164 67.1659C160.164 69.3086 161.979 70.9675 164.23 71.0367C164.52 71.0367 165.609 71.1058 165.827 71.1058C177.226 71.5205 186.955 63.226 187.971 52.3049C188.915 40.8999 180.929 31.223 169.312 29.7715Z" fill="#C47A2C"/>
<path d="M495.738 70.9586C484.267 72.4102 472.723 64.8069 471.634 53.8858C470.69 44.0015 471.271 23.0578 471.271 22.7813C471.271 20.7768 473.013 19.1179 475.119 19.1179C477.224 19.1179 478.966 20.7768 478.966 22.7813C478.966 23.1961 478.821 45.3148 479.039 49.7385C479.402 57.8948 485.428 63.8392 493.124 63.6318C500.457 63.4936 506.628 57.4109 506.628 50.4297C506.628 42.9646 500.457 37.5041 491.817 37.3658C491.745 37.3658 490.946 37.435 490.583 37.435C488.332 37.435 486.517 35.7069 486.517 33.5642C486.517 31.4214 488.332 29.7625 490.51 29.6934C490.801 29.6934 491.89 29.6243 492.108 29.6243C503.506 29.2096 513.235 37.5041 514.252 48.4252C515.341 59.8301 507.354 69.5071 495.738 70.9586Z" fill="#034A66"/>
<path d="M561.806 74.8177C560.717 85.7388 549.173 93.4112 537.702 91.8905C536.177 91.6832 534.653 91.3376 533.201 90.8537C531.821 90.3699 530.442 89.7478 529.135 88.9875C527.901 88.2271 526.739 87.3977 525.65 86.43C525.287 86.0844 524.851 85.6697 524.488 85.3241C524.343 85.1167 524.125 84.9784 523.98 84.7711C523.109 83.596 522.818 82.0754 523.399 80.7621C523.907 79.6561 524.997 78.8267 526.303 78.5502C526.521 78.4811 526.812 78.4811 527.029 78.4811C528.046 78.4811 528.99 78.8267 529.643 79.4488C529.643 79.4488 529.643 79.4488 529.716 79.5179C529.861 79.587 529.934 79.7253 530.079 79.7944C532.62 82.6283 536.25 84.4946 540.316 84.5637C546.269 84.702 551.206 81.1768 553.312 75.8545C553.965 74.2647 554.256 72.6058 554.256 70.8778L554.401 66.3158C551.352 68.735 547.576 70.3939 543.293 70.9469C531.821 72.3984 520.277 64.7951 519.188 53.874C518.68 48.8282 518.607 40.8793 518.607 34.2437C518.607 33.9672 518.607 33.7598 518.607 33.4834V33.1377C518.607 32.9304 518.607 32.723 518.68 32.5157C518.68 32.5157 518.68 32.5157 518.68 32.4465C519.116 30.7876 520.64 29.5435 522.455 29.5435C524.488 29.5435 526.086 30.995 526.303 32.8613C526.303 32.9995 526.376 33.1377 526.376 33.276C526.376 33.5525 526.376 33.8981 526.376 34.1746C526.376 40.4646 526.376 47.5149 526.449 49.7268C526.812 57.883 532.838 63.8274 540.534 63.6201C547.867 63.4818 554.256 57.3301 554.256 50.3489C554.256 49.5885 554.256 33.6907 554.256 33.6907C554.256 33.6216 554.256 33.5525 554.256 33.4834C554.256 33.4142 554.256 33.3451 554.256 33.276C554.256 32.3083 554.619 31.4097 555.272 30.7185C556.071 29.8891 557.232 29.4743 558.321 29.6126C558.757 29.6817 559.265 29.7508 559.628 29.9582C560.064 30.1655 560.5 30.442 560.863 30.7876C561.516 31.4788 561.879 32.3774 561.879 33.276C561.879 33.3451 561.879 33.4142 561.879 33.4834C561.879 33.5525 561.879 33.6216 561.879 33.6907V43.8515C562.315 46.5472 562.75 65.5555 561.806 74.8177Z" fill="#034A66"/>
<path d="M520.48 31.774C520.407 31.9814 520.407 32.1888 520.407 32.3961V32.2579C520.407 32.1197 520.407 31.9123 520.48 31.774Z" fill="#034A66"/>
<path d="M259.676 71.0969C271.147 72.5484 282.691 64.9451 283.78 54.024C284.724 44.1397 284.143 23.0578 284.143 22.7813C284.143 20.7768 282.401 19.1179 280.295 19.1179C278.19 19.1179 276.447 20.7768 276.447 22.7813C276.447 23.1961 276.593 45.453 276.375 49.8767C276.012 58.033 269.986 63.9774 262.29 63.7701C254.957 63.6318 248.785 57.5492 248.785 50.5679C248.785 43.1029 254.957 37.6423 263.596 37.5041C263.669 37.5041 264.468 37.5732 264.758 37.5732C267.009 37.5732 268.824 35.8452 268.824 33.7024C268.824 31.5597 267.009 29.9008 264.831 29.8317C264.54 29.8317 263.451 29.7625 263.233 29.7625C251.835 29.3478 242.106 37.6423 241.089 48.5634C240 59.9684 247.987 69.6453 259.676 71.0969Z" fill="#C47A2C"/>
<path d="M353.284 59.6987C353.284 60.9429 353.574 61.9797 354.591 62.8092C355.172 63.293 355.898 63.5695 356.696 63.7078C357.422 63.846 358.076 63.7769 358.729 64.0534C359.964 64.5372 360.835 65.6432 360.98 66.8873C360.98 67.0947 361.053 67.3021 361.053 67.4403C361.053 69.1683 359.818 70.6199 358.221 71.0346C357.785 71.1037 357.35 71.1728 356.914 71.1728C356.769 71.1728 356.624 71.1728 356.406 71.1728C349.146 71.1728 345.443 66.68 345.443 60.2517C345.443 55.4824 345.443 39.7228 345.515 37.0271H342.031C339.925 37.0271 338.11 35.5755 337.892 33.571C337.674 31.29 339.562 29.4238 341.885 29.4238H345.515C345.515 24.8618 345.515 23.0647 345.515 23.0647C345.515 21.1293 346.968 19.4012 349 19.263C351.251 19.0556 353.211 20.7837 353.211 22.9264V29.4238H359.891C361.996 29.4238 363.812 30.8753 364.029 32.8107C364.247 35.0917 362.432 37.0271 360.036 37.0271H353.284C353.284 36.958 353.284 59.6296 353.284 59.6987Z" fill="#C47A2C"/>
</svg>
