<svg width="77" height="77" fill="none" xmlns="http://www.w3.org/2000/svg"><path d="M12.852 67.047c0 .875.709 1.586 1.581 1.586H34.56c.872 0 1.581-.711 1.581-1.586v-3.44c0-.875-.71-1.587-1.581-1.587H14.433c-.872 0-1.581.712-1.581 1.587v3.44zm2.248-2.771h18.793v2.102H15.1v-2.102zM12.852 45.42c0 .623.503 1.128 1.124 1.128H56.41c.621 0 1.124-.505 1.124-1.128V27.302c0-.623-.503-1.128-1.124-1.128H13.976c-.621 0-1.124.505-1.124 1.128V45.42zm29.635-16.99h12.8v3.784h-12.8V28.43zm0 6.04h12.8v3.783h-12.8V34.47zm0 6.039h12.8v3.783h-12.8V40.51zM21.27 28.43h18.97v3.784H21.27V28.43zm0 6.04h18.97v3.783H21.27V34.47zm0 6.039h18.97v3.783H21.27V40.51zM15.1 28.43h3.922v3.784H15.1V28.43zm0 6.04h3.922v3.783H15.1V34.47zm0 6.039h3.922v3.783H15.1V40.51zM46.916 10.07c.62 0 1.124-.505 1.124-1.128 0-.623-.503-1.128-1.124-1.128H33.699c-.872 0-1.582.712-1.582 1.587v3.463c0 .875.71 1.586 1.582 1.586h22.257c.872 0 1.581-.711 1.581-1.586V9.4c0-.875-.71-1.586-1.581-1.586h-3.794c-.621 0-1.124.505-1.124 1.128 0 .622.503 1.127 1.124 1.127h3.127v2.125H34.365V10.07h12.55zm-32.94 43.643h9.78c.622 0 1.125-.505 1.125-1.128 0-.623-.503-1.127-1.124-1.127h-9.781c-.621 0-1.124.505-1.124 1.127 0 .623.503 1.128 1.124 1.128zm0 5.134h9.78c.622 0 1.125-.505 1.125-1.128 0-.623-.503-1.128-1.124-1.128h-9.781c-.621 0-1.124.505-1.124 1.128 0 .623.503 1.128 1.124 1.128z" fill="#C47A2C"/><path d="M63.253 51.864V1.88c0-1.037-.84-1.88-1.874-1.88H9.006a1.879 1.879 0 00-1.873 1.88v71.587c0 1.037.84 1.88 1.873 1.88h7.63c.62 0 1.123-.505 1.123-1.128 0-.623-.503-1.128-1.124-1.128H9.381V2.256h51.624v48.463a13.46 13.46 0 00-4.966-.944c-2.365 0-4.59.611-6.527 1.683h-21.69c-.621 0-1.124.505-1.124 1.127 0 .623.503 1.128 1.124 1.128h18.683a13.73 13.73 0 00-2.218 2.878H27.823c-.621 0-1.124.505-1.124 1.128 0 .623.503 1.128 1.124 1.128H43.25a13.587 13.587 0 00-.777 4.54c0 3.796 1.557 7.233 4.063 9.704H21.88c-.62 0-1.124.505-1.124 1.128 0 .623.503 1.128 1.124 1.128h27.683A13.448 13.448 0 0056.04 77c7.48 0 13.567-6.106 13.567-13.612 0-4.848-2.54-9.111-6.353-11.523zm-7.214 22.88c-6.241 0-11.319-5.094-11.319-11.356S49.798 52.03 56.04 52.03c6.241 0 11.319 5.095 11.319 11.357s-5.078 11.356-11.32 11.356z" fill="#C47A2C"/><path d="M64.216 64.952a1.123 1.123 0 00-1.424.71 7.125 7.125 0 01-6.754 4.875c-3.929 0-7.126-3.207-7.126-7.15 0-3.942 3.197-7.15 7.126-7.15a7.125 7.125 0 016.755 4.88 1.124 1.124 0 102.131-.719 9.372 9.372 0 00-8.886-6.416c-5.169 0-9.374 4.22-9.374 9.405 0 5.186 4.205 9.406 9.374 9.406a9.372 9.372 0 008.884-6.412 1.128 1.128 0 00-.706-1.429z" fill="#034A66"/><path d="M59.26 60.602l-3.79 3.803-2.66-2.669a1.123 1.123 0 00-1.59 0 1.13 1.13 0 000 1.595l3.455 3.467a1.119 1.119 0 001.59 0l4.586-4.6a1.13 1.13 0 000-1.596 1.123 1.123 0 00-1.59 0z" fill="#034A66"/><path d="M45.577 16.31a1.127 1.127 0 000 2.256h10.835c.62 0 1.124-.505 1.124-1.127 0-.623-.503-1.128-1.124-1.128H45.577z" fill="#C47A2C"/></svg>