<svg width="72" height="77" fill="none" xmlns="http://www.w3.org/2000/svg"><path d="M3.242 42.06a2.914 2.914 0 010-4.107l27.548-27.64a1.13 1.13 0 000-1.595 1.12 1.12 0 00-1.59 0L1.652 36.358a5.179 5.179 0 000 7.297l6.939 6.962a1.119 1.119 0 001.59 0 1.13 1.13 0 000-1.595L3.242 42.06z" fill="#D1D2D4"/><path d="M25.34 22.463L8.33 39.53a1.13 1.13 0 000 1.596 1.12 1.12 0 001.589 0L26.93 24.058a1.13 1.13 0 000-1.595 1.122 1.122 0 00-1.59 0zm10.288-1.803c1.165 0 2.33-.445 3.218-1.335l3.402-3.415a4.581 4.581 0 000-6.456 4.544 4.544 0 00-6.434 0l-3.403 3.414a4.542 4.542 0 00-1.333 3.229c0 1.219.473 2.365 1.333 3.228a4.528 4.528 0 003.217 1.334zM34 14.462l3.403-3.414a2.3 2.3 0 013.255 0c.898.9.898 2.366 0 3.266l-3.403 3.414a2.3 2.3 0 01-3.255 0 2.298 2.298 0 01-.673-1.632c0-.617.239-1.198.673-1.634z" fill="#D1D2D4"/><path d="M66.579 37.68H55.757l8.338-8.365a5.179 5.179 0 000-7.298L43.657 1.512A5.1 5.1 0 0040.021 0a5.103 5.103 0 00-3.638 1.512L32.38 5.53a1.131 1.131 0 000 1.595c.439.44 1.15.44 1.59 0l4.005-4.018a2.87 2.87 0 012.047-.851c.773 0 1.5.302 2.047.85l20.437 20.506a2.914 2.914 0 010 4.108l-9.928 9.96h-28.41l8.171-8.199a1.13 1.13 0 000-1.595 1.121 1.121 0 00-1.59 0l-9.76 9.795h-3.526c-2.836 0-5.143 2.314-5.143 5.16V71.84c0 2.845 2.307 5.16 5.143 5.16H66.58c2.836 0 5.143-2.315 5.143-5.16v-4.17c0-.623-.503-1.128-1.124-1.128-.621 0-1.125.505-1.125 1.128v4.169a2.903 2.903 0 01-2.894 2.904H17.463a2.903 2.903 0 01-2.894-2.904V56.013h54.904v7.146c0 .623.503 1.128 1.125 1.128.62 0 1.124-.505 1.124-1.128V42.841c0-2.846-2.307-5.16-5.143-5.16zm-49.116 2.256H66.58a2.903 2.903 0 012.894 2.905v3.95H14.57v-3.95a2.903 2.903 0 012.894-2.905zM14.57 53.757v-4.71h54.904v4.71H14.57z" fill="#D1D2D4"/><path d="M57.146 64.288a1.73 1.73 0 00-1.724 1.73v4.296c0 .954.773 1.73 1.724 1.73h6.811a1.73 1.73 0 001.724-1.73v-4.297a1.73 1.73 0 00-1.724-1.73h-6.811zm6.287 5.5H57.67v-3.245h5.763v3.244zm-26.819-5.5c-.95 0-1.723.776-1.723 1.73v4.296c0 .954.773 1.73 1.723 1.73h14.408a1.73 1.73 0 001.724-1.73v-4.297a1.73 1.73 0 00-1.724-1.73H36.614zm13.883 5.5H37.14v-3.245h13.358v3.244zm-27.537-.001c-.62 0-1.124.505-1.124 1.128 0 .623.504 1.128 1.124 1.128h7.178c.621 0 1.125-.505 1.125-1.128 0-.623-.504-1.128-1.125-1.128H22.96z" fill="#D1D2D4"/></svg>