<svg width="28" height="28" viewBox="0 0 28 28" fill="none" xmlns="http://www.w3.org/2000/svg">
<g clip-path="url(#clip0_13793_7339)">
<path d="M14 13.9995C15.3845 13.9995 16.7378 13.589 17.889 12.8198C19.0401 12.0506 19.9373 10.9574 20.4672 9.6783C20.997 8.39922 21.1356 6.99175 20.8655 5.63388C20.5954 4.27602 19.9287 3.02874 18.9497 2.04977C17.9708 1.0708 16.7235 0.404114 15.3656 0.134018C14.0078 -0.136079 12.6003 0.00254472 11.3212 0.532358C10.0421 1.06217 8.94888 1.95938 8.17971 3.11052C7.41054 4.26167 7 5.61505 7 6.99952C7.00185 8.85546 7.73995 10.6349 9.0523 11.9472C10.3647 13.2596 12.1441 13.9977 14 13.9995ZM14 2.33285C14.923 2.33285 15.8252 2.60654 16.5927 3.11932C17.3601 3.6321 17.9582 4.36094 18.3114 5.21366C18.6646 6.06638 18.7571 7.00469 18.577 7.90994C18.3969 8.81518 17.9525 9.6467 17.2998 10.2993C16.6472 10.952 15.8157 11.3965 14.9104 11.5765C14.0052 11.7566 13.0669 11.6642 12.2141 11.311C11.3614 10.9577 10.6326 10.3596 10.1198 9.59218C9.60703 8.82475 9.33333 7.92249 9.33333 6.99952C9.33333 5.76184 9.825 4.57485 10.7002 3.69968C11.5753 2.82451 12.7623 2.33285 14 2.33285ZM14 16.3328C11.2162 16.3359 8.54725 17.4432 6.57879 19.4116C4.61033 21.3801 3.50309 24.049 3.5 26.8328C3.5 27.1423 3.62292 27.439 3.84171 27.6578C4.0605 27.8766 4.35725 27.9995 4.66667 27.9995C4.97609 27.9995 5.27283 27.8766 5.49162 27.6578C5.71042 27.439 5.83333 27.1423 5.83333 26.8328C5.83333 24.6669 6.69375 22.5897 8.22529 21.0581C9.75684 19.5266 11.8341 18.6662 14 18.6662C16.1659 18.6662 18.2432 19.5266 19.7747 21.0581C21.3063 22.5897 22.1667 24.6669 22.1667 26.8328C22.1667 27.1423 22.2896 27.439 22.5084 27.6578C22.7272 27.8766 23.0239 27.9995 23.3333 27.9995C23.6428 27.9995 23.9395 27.8766 24.1583 27.6578C24.3771 27.439 24.5 27.1423 24.5 26.8328C24.4969 24.049 23.3897 21.3801 21.4212 19.4116C19.4527 17.4432 16.7838 16.3359 14 16.3328Z" fill="#C47A2C"/>
</g>
<defs>
<clipPath id="clip0_13793_7339">
<rect width="28" height="28" fill="white"/>
</clipPath>
</defs>
</svg>
