<svg width="53" height="74" fill="none" xmlns="http://www.w3.org/2000/svg"><path d="M52.397 73.754H1.15a.63.63 0 01-.426-.164.537.537 0 01-.177-.394V6.439c0-.148.063-.29.177-.395a.63.63 0 01.426-.163h51.247a.63.63 0 01.426.163.537.537 0 01.177.395v66.757c0 .148-.063.29-.177.394a.63.63 0 01-.426.164zM1.754 72.638h50.03V6.996H1.754v65.642z" fill="#C47A2D"/><path d="M47.264 30.395H5.986a.63.63 0 01-.426-.164.537.537 0 01-.177-.394c0-.148.063-.29.177-.394a.63.63 0 01.426-.164h41.278a.63.63 0 01.426.164.537.537 0 01.177.394c0 .148-.063.29-.177.394a.63.63 0 01-.426.164zm0 5.882H5.986a.63.63 0 01-.426-.163.537.537 0 01-.177-.394c0-.148.063-.29.177-.395a.63.63 0 01.426-.163h41.278a.63.63 0 01.426.163.537.537 0 01.177.395c0 .148-.063.29-.177.394a.63.63 0 01-.426.163zm0 5.852H5.986a.63.63 0 01-.426-.163.537.537 0 01-.177-.395c0-.148.063-.29.177-.394a.63.63 0 01.426-.163h41.278a.63.63 0 01.426.163.537.537 0 01.177.394c0 .148-.063.29-.177.395a.63.63 0 01-.426.163zm0 5.921H5.986a.638.638 0 01-.424-.165.546.546 0 01-.18-.392.546.546 0 01.18-.392.639.639 0 01.424-.166h41.278a.63.63 0 01.426.164.537.537 0 01.177.394c0 .148-.063.29-.177.395a.63.63 0 01-.426.163zm0 5.868H5.986a.63.63 0 01-.426-.163.537.537 0 01-.177-.395c0-.148.063-.29.177-.394a.63.63 0 01.426-.163h41.278a.63.63 0 01.426.163.537.537 0 01.177.394c0 .148-.063.29-.177.395a.63.63 0 01-.426.163zm0 5.882H5.986a.63.63 0 01-.426-.162.537.537 0 01-.177-.395c0-.148.063-.29.177-.394a.63.63 0 01.426-.163h41.278a.63.63 0 01.426.163.537.537 0 01.177.394c0 .148-.063.29-.177.395a.63.63 0 01-.426.163zm0 5.892H5.986a.63.63 0 01-.426-.164.537.537 0 01-.177-.394c0-.148.063-.29.177-.394a.63.63 0 01.426-.164h41.278a.63.63 0 01.426.164.537.537 0 01.177.394c0 .148-.063.29-.177.394a.63.63 0 01-.426.163zm.196-45.952a.447.447 0 01-.303-.117l-4.838-4.471-4.838 4.471a.454.454 0 01-.467.086.397.397 0 01-.264-.366V1.128c0-.218.192-.396.428-.396H47.46c.237 0 .428.178.428.396v18.215c0 .16-.104.305-.264.366a.455.455 0 01-.164.03zm-5.14-5.544a.44.44 0 01.302.116l4.41 4.075V1.524h-9.425v16.863l4.41-4.075a.445.445 0 01.302-.116z" fill="#C47A2D"/><path d="M42.32 14.196a.44.44 0 01.302.116l4.41 4.075V1.524h-9.425v16.863l4.41-4.075a.445.445 0 01.302-.116z" fill="#fff"/></svg>