<svg width="640" height="480" viewBox="0 0 640 480" fill="none" xmlns="http://www.w3.org/2000/svg">
<path d="M152.91 240.25C152.91 332.857 228.063 408.444 321.252 408.444C413.941 408.444 489.594 332.857 489.594 240.25C489.594 147.643 413.941 72.0557 321.252 72.0557C228.063 72.0557 152.91 147.643 152.91 240.25ZM157.419 240.25C157.419 150.146 230.568 76.5609 321.252 76.5609C411.436 76.5609 484.584 150.146 484.584 240.25C484.584 330.354 411.436 403.939 321.252 403.939C230.568 403.939 157.419 330.354 157.419 240.25Z" fill="#3A76BC"/>
<path fill-rule="evenodd" clip-rule="evenodd" d="M177.961 103.092C177.961 113.103 177.961 122.614 177.961 132.125C177.961 152.649 177.961 173.173 177.961 193.696C177.961 211.717 177.961 230.239 177.961 248.76C177.961 253.265 177.961 257.27 177.961 261.775C177.961 273.288 179.464 284.301 182.47 295.314C187.981 315.838 200.006 334.86 215.537 349.877C229.566 363.893 246.099 374.906 263.635 383.916C277.163 390.924 290.69 396.431 305.22 400.936C308.727 402.438 312.735 403.439 316.242 404.44C317.244 404.44 318.246 404.94 319.248 404.94C327.264 403.439 335.281 401.436 343.297 398.934C358.328 394.428 373.358 388.421 387.387 380.412C404.922 371.402 420.454 358.887 433.48 343.87C448.01 326.85 457.529 305.826 461.537 283.801C464.543 268.783 464.042 253.766 464.543 238.248C464.543 218.225 464.543 197.701 465.044 177.177C465.044 158.155 465.044 139.133 465.545 119.611C465.545 114.105 465.545 108.598 465.545 103.092C460.034 103.092 454.523 103.092 449.012 103.092C434.983 103.092 420.454 103.092 406.425 103.092C386.886 103.092 367.847 103.092 348.808 103.092C327.765 103.092 307.224 103.092 286.181 103.092C267.142 103.092 248.605 103.092 230.067 103.092C216.539 103.092 203.513 103.092 190.486 103.092C185.977 103.092 181.969 103.092 177.961 103.092ZM370.853 365.895C370.352 365.895 369.851 366.396 368.849 366.396C368.348 366.396 367.346 366.396 366.344 366.396C363.839 367.397 361.835 368.398 359.831 369.399C357.827 369.9 356.323 371.402 354.82 371.902C352.816 372.403 350.812 372.904 348.808 373.404C345.301 374.405 342.295 375.406 338.788 375.406C335.281 375.406 330.772 374.906 327.765 373.404C326.262 372.904 324.759 371.902 322.755 371.402C319.248 369.399 315.24 367.397 311.733 365.395C310.23 364.394 308.727 362.892 307.725 360.89C306.723 360.389 306.222 359.388 305.22 358.387C304.218 357.886 303.216 356.384 302.213 356.384C300.71 356.384 299.207 356.384 297.704 356.384C297.203 356.384 296.702 355.383 296.702 354.883C296.201 354.382 295.7 354.382 295.199 353.882C294.698 353.381 294.197 352.88 293.696 352.88C292.694 352.38 292.694 351.879 292.193 352.38C293.195 353.881 294.197 354.883 295.199 356.384C295.7 357.386 295.199 358.387 296.201 358.387C297.203 358.387 298.706 357.886 299.708 357.886C303.717 358.387 305.721 362.391 307.224 365.895C307.725 367.397 308.226 369.9 308.226 371.402C308.226 372.403 308.226 373.404 308.226 373.905C307.725 374.906 307.224 375.907 307.224 376.408C307.224 376.908 306.723 378.41 306.222 378.41C305.22 378.91 304.218 379.411 303.216 379.411C301.712 379.912 299.708 379.411 298.205 378.91C296.201 378.41 294.698 377.409 293.195 375.907C292.694 375.907 291.191 374.906 290.69 374.405C290.189 373.404 289.688 372.403 289.187 370.901C289.187 370.401 289.187 369.399 289.187 368.899C289.187 367.898 288.686 366.396 288.686 365.895C289.688 363.393 290.189 361.891 291.692 360.389C292.193 361.39 292.694 362.391 293.195 363.392C293.696 364.394 294.197 364.894 295.199 363.893C296.201 362.892 294.698 361.891 294.197 361.39C293.696 360.89 293.696 360.389 293.696 359.888C293.696 359.388 293.696 358.887 293.195 358.387C292.193 357.386 291.692 356.885 290.69 355.884C290.189 355.383 288.686 354.382 288.686 353.882C288.686 353.381 288.185 350.878 287.183 352.38C286.181 353.381 287.183 353.882 287.684 355.383C285.68 355.383 284.177 354.382 282.173 353.882C280.67 353.381 279.167 352.88 277.163 352.38C274.156 351.379 271.15 349.877 268.144 348.876C264.637 347.374 261.13 346.373 257.623 345.372C257.122 344.871 256.621 344.871 255.619 344.871C255.118 344.871 253.615 344.371 252.613 344.871C252.112 344.871 251.11 345.372 250.609 345.372C249.607 345.372 248.605 345.372 248.104 344.371C245.097 342.368 245.097 338.864 243.093 335.861C241.089 333.358 238.584 330.354 235.578 328.853C234.576 328.352 232.572 326.85 232.071 325.849C232.071 324.848 231.57 323.847 232.572 323.847C234.075 323.847 234.075 323.847 235.077 325.349C236.079 325.849 238.083 325.849 239.085 326.35C240.588 327.351 242.592 328.352 244.095 329.353C247.101 330.855 249.607 333.358 252.613 335.36C255.118 337.362 258.124 338.864 261.631 340.366C264.637 341.367 267.142 343.87 270.649 344.371C272.152 344.371 274.156 344.871 275.659 345.872C276.662 346.373 277.163 346.373 277.664 345.872C278.165 344.871 278.666 344.371 278.666 343.369C279.167 343.369 279.167 342.869 279.668 342.368L279.167 341.868C278.666 341.367 278.165 339.865 278.165 339.365C278.666 338.364 279.167 337.863 279.668 336.862C280.169 336.361 280.67 335.861 281.171 334.86C282.173 333.858 283.676 332.857 285.179 332.357C286.682 331.856 288.185 331.355 289.688 331.355C291.191 331.355 293.696 330.855 294.698 331.355C295.7 331.856 296.201 332.357 297.203 332.357C297.704 332.357 299.207 332.357 299.708 332.357C300.71 333.858 301.211 335.36 300.71 336.862C300.209 338.864 299.708 340.366 298.205 341.868C297.704 342.869 297.704 343.87 297.203 344.371C296.201 344.871 295.199 345.372 294.197 345.872C292.193 346.873 290.189 347.374 288.185 347.374C287.183 347.374 286.181 347.374 285.179 347.374C284.678 346.873 282.674 346.873 282.674 346.373C282.173 345.372 283.676 344.871 284.177 343.87C284.678 343.369 283.676 341.868 283.175 341.367L282.674 341.868C282.674 342.368 282.674 342.869 282.674 342.869C282.173 343.87 281.171 344.371 280.67 344.871L280.169 345.372C280.169 345.872 280.67 346.373 280.169 346.873C280.169 347.374 279.167 347.875 279.167 348.375C280.67 349.376 282.173 348.375 283.676 348.876C284.177 348.876 285.179 349.376 285.68 349.376C287.183 349.376 288.185 349.877 289.187 349.877C290.189 349.877 291.191 349.877 292.193 349.877C292.694 349.877 293.195 348.876 294.197 348.876C295.7 348.876 297.203 347.875 298.706 347.374C299.207 346.873 300.209 346.873 300.71 346.373C301.211 345.372 301.712 344.871 302.213 344.371C303.717 342.869 304.719 341.367 305.721 340.366C308.226 338.364 311.232 336.361 313.737 334.359C317.244 332.357 320.25 330.855 323.757 329.353C325.26 328.853 327.264 328.853 328.767 328.853C330.271 328.853 332.275 328.853 333.778 328.352C337.285 328.352 340.291 327.851 343.798 328.352C345.802 328.853 347.806 328.853 349.81 329.353C351.313 329.854 352.816 329.854 354.82 329.854C356.824 329.854 358.328 329.854 359.831 329.854C361.835 329.854 363.338 329.353 364.841 329.353C366.344 329.353 368.348 329.353 369.851 329.854C370.352 330.354 374.36 331.355 372.356 332.357C370.853 333.358 369.35 333.858 367.346 334.359C365.843 334.359 364.34 335.36 362.837 336.361C361.334 337.362 360.332 338.364 358.829 338.864C357.326 339.865 355.822 340.366 353.818 340.866C350.812 341.868 347.806 343.369 344.299 343.87C342.796 344.371 340.792 344.871 339.289 345.372C338.287 345.872 337.285 345.372 336.784 345.372C335.782 345.372 335.281 345.872 334.279 346.373C333.277 346.373 332.275 346.373 331.774 346.373C330.772 346.873 329.77 346.873 329.269 347.374C327.264 347.374 325.761 347.875 323.757 347.875C320.751 348.876 317.244 348.876 313.737 349.376C312.234 349.376 310.731 349.376 308.727 349.376C308.226 349.376 307.224 349.376 306.723 349.376C305.721 349.376 305.22 349.376 304.218 349.376C302.214 348.876 301.211 349.877 299.708 350.377C298.706 350.878 298.205 351.379 297.704 351.379C296.702 351.879 299.207 352.88 299.207 352.88C300.71 353.381 302.715 353.381 304.719 353.381C305.22 353.381 305.721 353.381 306.723 352.88C307.224 352.38 307.725 352.38 309.228 351.879C312.234 351.379 315.741 351.879 318.747 351.879C320.751 352.38 322.254 352.38 324.258 352.88C325.761 353.881 327.264 354.382 329.269 354.883C332.275 355.884 334.78 357.386 337.786 358.887C339.79 359.388 341.293 359.888 343.297 359.888C344.8 360.389 345.802 360.89 347.305 361.39C350.311 362.391 353.818 363.392 357.326 363.392C358.328 363.392 359.831 363.392 360.833 363.392C362.336 363.392 363.338 362.391 364.34 362.892C365.342 362.892 366.344 362.892 367.346 362.892C368.348 362.892 368.849 363.392 369.35 363.893C370.853 364.394 371.354 364.394 370.853 365.895ZM396.906 339.365C396.405 339.865 396.405 340.366 395.904 340.366C395.403 340.366 394.401 340.366 393.9 340.366C393.9 340.366 392.898 341.367 392.397 341.367C390.894 342.869 389.391 344.371 387.888 345.872C385.382 347.374 383.378 349.877 380.873 351.379C379.37 352.38 377.867 353.381 376.865 354.382C375.362 354.883 373.358 356.384 371.855 356.885C368.348 357.886 364.841 358.887 361.334 359.388C358.328 359.388 354.82 359.388 351.313 358.887C348.808 358.887 346.303 357.886 343.798 357.386C341.293 356.384 338.788 355.884 336.283 354.883C333.277 353.882 330.772 352.38 328.266 351.379C331.774 351.879 334.78 352.38 338.287 352.38C341.794 352.38 345.802 352.38 349.309 352.38C350.812 352.38 352.816 351.879 354.319 351.879C355.822 351.879 357.325 351.379 359.33 350.878C362.336 349.877 366.344 349.877 368.849 347.875C367.346 347.875 366.344 347.875 364.841 348.375C364.34 348.876 363.839 348.375 362.837 348.375C362.336 348.375 361.835 348.876 360.833 348.876C359.831 348.876 359.33 348.375 358.328 348.375C357.827 348.375 357.326 348.876 356.323 348.876C354.82 349.376 352.816 349.376 351.313 349.877C348.307 350.378 345.802 350.377 343.297 350.377C341.794 350.377 340.291 350.377 338.788 350.377C337.786 350.377 335.782 350.878 334.78 349.877C336.283 349.376 337.285 348.876 338.788 348.876C340.792 348.375 342.295 348.375 343.798 347.875C347.305 346.873 350.812 345.872 353.818 344.371C356.824 343.369 360.332 341.868 363.839 340.866C365.342 340.866 366.845 340.866 368.348 340.866C370.352 340.866 372.857 340.866 375.362 340.866C378.869 340.866 381.875 338.864 385.383 337.863C387.888 337.362 389.391 336.862 391.896 336.862C392.898 336.862 393.9 336.862 394.902 336.862C395.403 336.862 395.403 336.862 395.904 337.362C396.405 337.362 397.407 338.864 396.906 339.365ZM377.366 308.329C360.332 308.329 343.297 302.822 329.269 293.311C327.765 292.31 326.262 290.809 324.759 289.808C323.757 289.307 323.256 288.306 322.254 287.805C321.753 287.305 321.753 286.804 321.252 287.305C320.751 287.805 320.25 288.306 319.749 288.806C316.743 291.309 313.236 293.812 309.729 295.814C302.714 300.32 294.698 303.323 286.682 305.826C257.623 312.834 226.56 303.824 205.517 282.799C185.476 261.775 177.46 232.241 183.973 204.209C190.486 177.177 211.028 154.151 237.582 144.64C251.611 139.634 267.643 138.132 282.674 141.136C290.69 143.138 298.706 146.142 306.222 150.146C309.729 151.648 313.236 154.151 316.743 156.654C318.246 157.655 319.749 159.157 321.252 160.158C321.753 160.658 321.753 160.658 322.254 160.158C322.755 159.657 323.256 159.157 323.757 159.157C324.258 158.155 325.26 157.655 326.262 157.154C351.814 137.632 386.886 134.128 415.444 148.644C440.495 161.159 458.03 186.188 461.036 214.22C464.042 242.753 452.519 271.286 430.474 289.307C415.444 301.321 396.405 308.329 377.366 308.329Z" fill="#3A76BC"/>
<path fill-rule="evenodd" clip-rule="evenodd" d="M347.307 367.397C344.802 367.397 342.798 366.897 340.793 366.396C338.288 365.895 336.284 364.894 333.779 364.394C329.771 363.392 325.763 361.39 321.755 359.888C318.749 358.387 315.242 358.387 311.734 358.387C312.235 359.388 315.742 359.888 316.745 359.888C317.747 360.389 319.25 361.39 320.753 361.891C323.759 363.393 326.765 365.395 329.771 366.897C331.274 367.397 333.278 368.398 334.781 368.899C336.785 368.899 338.288 369.399 339.791 369.399C341.795 369.399 344.802 369.9 346.806 369.399C348.309 368.398 350.313 368.398 351.816 368.398C352.317 368.398 352.317 367.397 352.317 367.397C350.313 367.397 348.81 367.397 347.307 367.397Z" fill="#3A76BC"/>
<path fill-rule="evenodd" clip-rule="evenodd" d="M246.099 333.357C245.097 332.857 244.095 331.355 243.093 330.854C242.592 331.856 245.097 333.357 245.598 333.858C246.099 334.359 248.604 336.861 248.103 338.363C247.602 337.863 247.101 337.863 247.101 338.363C247.101 338.864 247.602 339.865 247.602 340.365C247.602 340.866 248.103 341.367 248.103 341.867C249.105 342.868 250.107 342.368 250.609 341.367C250.609 339.865 250.107 337.863 249.105 336.361C248.604 335.36 247.101 334.359 246.099 333.357Z" fill="#3A76BC"/>
<path fill-rule="evenodd" clip-rule="evenodd" d="M306.725 345.872C310.232 344.871 313.238 343.87 316.244 342.869C319.751 341.868 323.258 341.367 326.264 340.866C329.772 339.865 333.279 339.365 336.786 339.365C338.289 339.365 340.293 338.864 341.796 338.864C343.299 338.364 344.802 337.362 345.804 336.862C347.808 335.861 349.311 335.861 351.315 335.36C352.818 334.86 354.822 335.36 355.824 334.86C356.325 334.86 356.827 334.86 356.827 334.359C356.827 333.858 356.827 333.858 356.325 333.858C355.323 333.858 354.321 333.858 353.319 333.858C351.816 333.858 350.313 334.359 348.81 334.359C345.303 334.86 341.796 334.86 338.289 335.36C335.283 335.861 331.776 335.861 328.769 336.862C325.262 337.863 320.753 338.864 317.246 340.366C313.238 341.868 309.731 343.87 305.723 345.372C306.224 345.872 306.725 345.872 306.725 345.872Z" fill="#3A76BC"/>
<path d="M179.965 223.731C179.965 271.286 218.543 309.83 266.14 309.83C287.183 309.83 307.223 302.321 322.755 288.305C341.293 272.287 352.315 248.76 352.315 223.731C352.315 199.202 341.293 175.675 322.755 159.156C307.223 145.64 287.183 138.132 266.14 138.132C218.543 138.132 179.965 176.676 179.965 223.731ZM183.472 223.731C183.472 178.679 220.547 141.636 266.14 141.636C286.181 141.636 305.72 148.644 320.751 162.16C338.287 177.677 348.808 200.204 348.808 223.731C348.808 247.758 338.287 270.285 320.751 285.802C305.72 299.318 286.181 306.326 266.14 306.326C220.547 306.326 183.472 269.283 183.472 223.731Z" fill="#3A76BC"/>
<path d="M226.562 166.164C227.564 165.163 228.065 164.663 229.568 164.162C230.069 164.162 230.57 164.663 230.57 164.663C230.069 165.664 229.568 165.664 229.568 166.164C229.067 167.666 228.566 168.667 227.564 170.169C227.063 170.67 228.065 170.67 227.063 171.17C226.562 171.17 226.061 171.671 225.56 171.671C225.059 172.171 224.558 172.171 224.057 172.171C223.556 172.171 223.055 171.671 222.554 171.671C222.053 171.671 221.051 172.171 221.051 171.17C221.051 170.67 221.552 170.169 222.053 169.668C223.055 168.667 224.057 169.668 225.56 169.168C226.562 168.667 226.061 167.166 226.562 166.164Z" fill="#3A76BC"/>
<path d="M219.547 171.671C220.048 171.171 220.549 171.671 220.048 172.172C219.547 172.172 219.046 171.671 219.547 171.671Z" fill="#3A76BC"/>
<path d="M321.753 163.661C320.25 162.66 319.248 161.659 317.745 161.158C316.242 160.157 315.24 158.655 313.737 157.654C313.236 157.154 312.735 156.653 311.733 156.152C311.232 155.652 310.731 155.652 309.729 155.151C308.225 153.65 307.223 153.149 305.219 152.648C304.718 152.648 304.217 152.648 303.215 152.648C302.213 152.648 301.712 152.648 300.71 153.65H299.708C299.207 153.65 299.207 154.651 299.207 154.651C298.706 155.151 298.706 156.152 298.205 156.653C297.704 157.654 297.203 158.155 296.702 158.155C295.7 158.155 294.698 158.155 293.696 158.155C293.195 158.655 292.193 158.655 291.191 158.655C290.69 158.655 289.688 159.156 289.187 159.156C288.185 159.657 287.183 159.657 286.181 159.657C285.68 159.657 284.678 159.657 283.676 159.156C282.674 159.156 282.173 159.156 281.672 160.157C281.171 160.658 280.669 161.158 279.667 161.659C278.164 162.66 276.661 163.661 274.657 164.162C274.156 164.662 273.154 165.163 272.653 165.663C271.15 166.164 272.653 166.164 272.152 167.666C271.651 167.165 271.15 167.165 270.649 166.164C270.649 166.164 270.148 164.662 269.647 165.163C269.146 165.163 268.645 165.163 268.144 165.663C267.643 166.665 267.643 166.665 266.641 166.164C265.138 166.164 264.136 166.665 262.633 166.665C261.631 166.665 260.128 165.663 259.627 166.164C258.625 166.665 258.625 166.665 257.623 166.665C257.623 166.164 257.623 165.163 257.122 164.662C256.621 164.162 256.12 163.661 256.12 162.66C255.118 161.158 254.116 160.658 252.111 160.658C251.109 160.658 250.608 160.658 250.107 160.157C249.606 159.657 248.103 159.156 247.602 159.657C247.101 160.157 246.6 160.658 246.099 161.158C245.598 161.158 245.598 161.659 245.097 161.659C245.097 162.159 244.596 162.159 244.095 162.159C243.093 162.159 243.093 163.161 242.091 163.161C241.089 163.161 240.588 163.161 239.586 163.661C238.584 163.661 238.083 163.661 237.081 163.661C236.079 163.661 236.079 164.662 235.077 165.163C234.576 165.663 234.576 166.164 234.576 167.165C234.576 168.166 236.079 167.666 236.58 167.666C237.081 167.666 237.081 167.666 237.081 168.166C237.081 168.667 237.081 169.168 237.081 169.168C237.081 170.169 236.079 170.669 236.079 171.17C236.079 172.672 240.087 171.67 240.588 171.17C240.588 171.17 240.588 170.669 241.089 170.169C241.089 169.668 241.59 169.668 242.091 169.668C242.592 169.167 243.093 168.166 243.594 167.666C244.095 166.665 246.099 165.163 247.101 164.662C247.602 164.662 249.105 164.662 249.105 165.163C249.105 165.663 249.105 166.665 248.103 167.165C247.602 167.666 246.6 166.665 246.099 167.165C245.598 167.666 244.596 167.666 244.095 168.667C244.095 169.168 243.594 169.167 244.095 169.668L244.596 170.169C245.097 170.169 246.099 170.669 246.6 170.169C247.602 170.169 248.604 169.668 249.105 169.668C250.107 169.668 251.109 169.668 250.107 170.669C249.606 172.171 247.101 171.17 246.099 171.67C245.097 172.171 244.095 172.171 243.093 172.672C242.592 172.672 241.59 172.171 241.089 173.172C240.588 173.673 239.586 174.173 239.085 174.674C238.584 175.174 237.081 174.173 237.081 174.173C235.077 173.172 237.081 170.669 235.578 169.668C235.578 169.167 234.075 169.668 233.574 169.668C232.572 169.668 232.071 169.668 231.069 170.169C230.067 171.17 228.564 172.171 227.061 172.672C226.059 172.672 225.557 173.172 224.555 173.172C224.555 173.673 223.052 173.172 222.551 173.172C221.549 173.172 221.048 173.172 220.046 173.172C219.044 173.172 219.044 173.673 218.543 174.674C218.042 175.174 217.541 176.176 217.04 176.676C216.539 177.177 216.539 178.178 215.537 178.679C215.036 179.179 214.535 177.677 214.034 177.677C213.533 177.177 212.03 178.178 211.529 177.177C211.028 176.676 210.527 176.176 210.026 177.177C209.024 177.677 208.523 178.178 208.523 179.179C208.523 180.18 208.022 180.18 207.521 180.681C207.02 181.181 206.018 181.682 206.519 182.683C207.02 183.684 207.02 184.185 207.02 185.186C207.02 186.187 208.523 185.687 209.024 185.687C210.026 185.687 211.529 186.187 212.531 186.187C214.034 186.187 213.533 186.187 214.535 185.186C214.535 184.685 215.036 184.685 215.036 184.185C215.537 183.684 215.036 183.684 215.537 183.184C216.038 183.184 217.541 183.184 218.042 183.684C218.042 184.185 219.545 184.185 220.046 184.185C220.547 183.684 221.549 183.684 222.05 184.185C223.052 184.685 223.052 185.186 223.553 186.187C224.054 186.688 223.553 187.689 223.553 188.189C224.054 189.191 224.054 189.191 224.555 189.691C224.555 190.192 225.056 190.692 225.056 191.193C225.056 192.194 225.056 192.194 224.054 192.695C224.054 193.195 224.054 193.696 224.054 194.196C225.557 194.196 226.059 193.696 227.061 192.695C227.061 193.195 227.061 193.696 227.061 194.196C228.564 192.695 228.564 191.694 228.564 189.691C228.564 189.191 227.562 188.69 227.562 188.189C227.562 187.689 227.562 187.188 227.562 186.688C227.562 186.187 227.562 186.187 228.063 186.187C230.067 186.187 229.566 188.189 229.566 189.691C229.566 191.193 229.566 192.695 229.566 194.196C230.568 194.196 232.572 194.196 233.073 193.195C233.073 192.695 232.572 191.694 232.572 191.193C232.572 190.692 233.574 190.692 234.075 190.692C233.574 191.694 233.574 192.194 233.574 193.195C233.574 193.696 233.073 193.696 233.574 194.196V195.198C234.075 195.698 235.077 195.698 235.578 196.199C236.079 196.699 236.079 196.699 236.079 197.2C236.079 198.201 236.58 197.7 237.081 197.7C237.582 197.7 238.584 199.202 238.083 199.202C238.083 200.203 237.582 201.205 237.081 201.205C236.58 201.205 235.077 201.205 234.576 200.704C234.075 200.704 233.073 200.203 232.071 199.703C231.57 199.202 231.57 198.702 230.568 198.201C229.566 198.201 229.065 198.201 228.063 198.201H226.059C225.557 197.2 225.557 196.699 224.555 196.199C224.054 195.198 221.048 195.198 221.048 193.696C221.048 193.195 221.048 192.695 221.048 192.194H222.05C222.551 193.195 222.551 193.696 223.052 194.196C224.054 193.696 223.553 193.195 223.553 192.695C223.052 192.194 223.052 192.194 222.551 191.694C222.05 191.193 222.551 191.193 221.549 191.193C221.048 191.193 221.549 191.694 221.048 191.193C220.547 191.193 220.547 190.692 220.046 190.692C220.046 189.691 220.046 190.192 219.545 189.691C219.044 189.691 219.044 189.191 218.543 189.191C218.042 188.69 217.04 188.69 216.539 188.69C215.537 188.69 214.535 188.69 213.032 188.69C212.531 188.69 211.529 188.69 211.028 188.69C210.026 188.189 209.525 187.689 208.523 187.188C208.022 187.188 207.02 186.187 207.02 186.187C206.519 186.688 206.018 187.188 205.517 187.188C204.014 188.69 202.01 190.192 200.006 191.193C197.5 193.195 194.494 194.697 192.49 197.2C190.987 198.702 189.484 200.704 188.482 202.206C187.48 203.207 187.48 205.209 187.48 206.21C186.979 208.213 186.979 209.714 186.478 211.717C186.478 212.718 185.977 213.218 185.977 214.22C185.476 214.72 185.977 215.721 186.478 216.222C186.979 217.724 187.48 219.726 187.981 221.228C188.482 222.229 188.983 223.23 189.484 224.231C189.484 224.732 189.484 225.733 189.484 226.233C189.484 227.735 189.484 227.735 190.486 228.236C190.987 229.237 191.488 228.736 192.49 228.736C193.993 228.236 193.993 228.236 194.995 229.237C195.496 229.737 195.997 229.737 196.999 229.737C198.001 229.737 201.509 229.237 202.01 229.737C202.511 230.238 203.012 231.239 203.513 231.74C204.515 231.74 206.018 232.24 206.018 232.741C206.519 233.242 206.018 235.244 206.018 235.744C206.018 236.746 206.018 236.746 206.519 237.747C207.521 239.248 208.022 241.251 208.523 242.753C209.024 244.254 210.527 245.756 210.527 247.258C210.527 248.259 210.527 248.759 210.527 249.761C210.527 250.762 210.026 251.763 209.525 252.264C209.525 253.265 209.525 253.265 210.026 254.266C210.527 255.267 211.028 256.268 212.03 257.269C212.531 258.27 213.032 259.772 213.533 260.773C215.036 264.277 216.038 267.781 218.042 271.285C218.543 272.787 219.545 274.289 220.046 275.791C220.547 276.291 221.549 276.792 222.05 276.792C222.551 276.792 223.553 275.791 224.054 275.29C225.557 274.289 227.562 273.788 229.065 272.787C230.568 272.287 230.568 269.784 231.069 268.282C231.069 267.781 231.57 267.781 232.071 267.281C233.574 266.78 234.576 265.279 233.574 263.777C233.574 263.777 233.073 263.276 233.073 262.776C233.073 262.275 233.073 261.274 233.073 260.773C233.073 258.771 234.075 258.771 235.077 257.77C236.58 256.268 236.58 255.267 236.58 253.765C236.58 251.262 236.58 249.26 236.58 247.258C236.58 246.757 234.075 244.254 234.576 243.754C236.079 242.252 237.081 241.251 238.083 240.25C240.588 237.747 243.093 235.244 245.598 232.24C246.6 231.239 247.101 229.237 247.602 227.735C247.602 226.734 248.103 226.233 248.604 225.232C248.604 225.232 250.107 223.731 249.105 223.23C247.602 222.729 245.097 224.231 243.594 225.232C243.093 225.232 241.59 224.732 241.089 224.732C239.586 223.731 239.586 221.728 238.584 220.727C238.083 220.227 237.582 219.225 237.081 218.725C236.58 218.725 236.079 219.225 236.079 218.725C235.578 218.725 236.079 217.724 236.079 217.223C236.079 215.721 235.077 214.22 234.576 212.718C234.075 211.717 234.075 211.216 233.574 210.716C233.073 209.714 233.073 208.713 233.073 208.213C233.073 207.211 233.073 206.711 233.073 205.71C233.073 205.209 234.576 204.208 234.576 204.709C235.578 205.71 235.578 208.213 236.079 209.214C236.58 211.216 237.081 212.718 238.083 214.22C238.083 215.221 239.085 215.221 239.586 215.721C240.588 216.222 240.087 217.223 240.588 217.724C240.588 219.225 240.588 220.226 241.089 221.228C241.59 222.729 242.091 222.729 243.093 222.729C244.095 222.729 245.097 222.229 245.598 222.229C246.6 221.728 247.101 221.728 248.103 221.228C249.606 220.727 251.109 219.726 252.111 218.725C253.113 218.224 253.615 218.224 254.617 218.224C255.118 218.224 256.12 216.722 256.12 216.222C256.621 215.721 257.122 215.221 257.623 214.72C257.623 214.22 258.124 212.718 257.623 212.718H256.621C256.621 211.717 256.12 211.216 255.619 210.716C255.118 210.215 253.113 210.215 252.111 210.215C250.608 210.215 250.608 210.215 250.107 209.214C249.606 208.713 249.105 207.712 249.105 206.711C248.604 206.21 248.604 206.21 248.604 205.209C249.105 205.71 250.107 205.71 250.107 206.21C250.608 207.211 250.608 207.712 250.608 208.713C251.109 208.713 252.111 208.213 252.612 208.213C253.615 208.213 253.615 208.713 254.617 209.214C255.118 209.714 255.619 210.716 256.12 210.716C257.122 210.716 258.124 210.715 258.625 211.216C260.128 211.216 261.631 210.716 262.633 210.716C263.635 210.716 264.136 210.716 264.637 211.717C265.138 212.217 265.639 212.718 266.14 213.719C266.641 214.72 266.641 214.72 267.643 214.72C268.645 214.72 268.645 214.72 268.645 215.721C268.645 217.223 268.645 219.225 269.647 220.727C270.649 222.229 271.15 223.23 272.653 224.732C273.154 225.733 273.655 227.235 275.158 228.236C275.659 227.235 276.661 225.733 276.661 224.732C276.661 223.731 277.162 223.731 277.663 223.23C278.164 222.729 278.164 222.229 278.164 221.228C278.164 219.225 278.665 218.725 279.667 217.724C280.669 216.722 282.173 215.721 283.175 214.72C284.177 213.719 285.179 213.218 286.682 213.218C287.183 213.218 287.684 213.719 288.185 214.22C288.686 214.72 288.185 215.721 288.686 216.222C288.686 216.222 288.686 216.722 289.187 216.722C289.187 217.223 289.688 217.223 290.189 217.223C290.189 217.724 290.69 218.725 290.69 219.225C291.692 221.228 292.694 221.228 293.696 219.726C294.197 220.727 294.197 222.729 295.199 223.731C295.7 224.732 295.7 226.233 296.201 227.735C296.702 229.237 297.203 230.739 297.704 231.74C298.706 233.242 299.708 234.743 301.211 235.244C301.712 235.244 302.213 235.244 301.712 234.243C301.712 234.243 301.211 234.243 301.211 233.742C301.211 233.242 301.211 232.741 301.211 232.24C300.71 230.739 300.209 229.237 299.708 228.236C299.207 227.735 298.205 227.235 297.704 226.734C297.203 226.734 297.203 225.733 296.702 225.232C296.201 223.731 296.702 222.729 298.205 221.728C299.207 222.729 300.209 224.732 301.712 225.232C302.714 225.232 303.215 224.231 303.716 223.731C304.217 223.23 304.217 223.23 304.718 223.23C305.219 222.729 305.219 222.729 305.72 221.728C306.221 220.226 305.219 218.224 304.718 216.222C304.217 215.221 304.217 214.72 304.217 213.218C304.217 212.718 305.72 211.717 305.72 211.216C306.221 211.717 306.722 212.217 306.221 212.718C305.72 213.218 306.221 213.218 306.221 213.719C306.722 214.22 307.725 213.719 307.725 213.218C308.226 213.218 307.725 212.217 307.725 211.717C307.725 210.716 308.727 209.714 309.729 209.714C310.731 209.214 311.733 207.712 312.234 207.211C312.735 206.711 313.236 205.209 313.236 204.208C313.236 203.207 313.737 201.705 313.236 200.704C312.735 198.201 312.735 195.698 310.731 194.196C311.232 193.696 312.234 193.195 311.733 192.695C310.731 191.694 310.23 192.695 309.729 193.195C309.729 193.195 308.727 191.694 309.228 191.193C309.729 191.193 309.729 190.692 310.23 190.692C310.731 190.192 310.731 190.192 311.232 190.692C311.733 191.193 312.234 191.694 312.735 192.194C313.737 192.695 313.236 193.696 313.737 194.697C313.737 195.198 313.737 195.198 314.238 195.698C314.739 195.698 314.739 195.698 315.24 195.198C315.24 194.697 316.242 194.196 316.242 193.696C316.242 192.695 316.743 191.694 316.242 191.193C315.24 190.192 314.739 190.192 314.739 188.69C314.739 187.188 314.739 185.186 315.741 184.185C316.743 183.684 316.743 183.684 316.242 182.183C315.741 182.183 315.24 182.183 315.741 181.682C315.741 181.181 315.741 181.181 315.741 180.681C315.741 178.679 316.743 177.677 316.242 175.675C315.741 174.674 314.739 172.672 313.737 171.67C313.236 170.669 312.735 170.169 312.234 169.668C311.733 169.167 310.23 168.667 310.23 168.166C309.729 167.666 310.23 167.165 310.23 167.165C310.23 166.665 309.729 166.164 309.228 166.164C308.727 165.663 307.724 166.665 307.223 166.665C306.722 166.665 307.223 164.662 307.725 164.162C307.725 163.661 308.226 163.161 309.228 163.161C310.23 162.66 310.731 162.66 311.232 162.159C311.733 161.659 311.733 160.658 312.735 160.157C313.236 161.158 313.737 162.159 314.238 163.161C314.739 163.661 314.739 164.162 315.24 164.162C315.24 164.662 315.741 164.162 315.741 164.162C316.743 164.662 316.242 165.163 317.244 165.163C318.747 165.163 319.749 166.164 321.252 166.164C322.254 166.164 322.254 166.665 322.254 165.663C322.254 164.662 321.753 164.662 321.753 163.661ZM242.091 174.173C242.592 174.173 242.592 174.674 242.091 175.174C241.59 175.174 241.089 174.674 242.091 174.173ZM245.598 193.195C245.097 194.196 242.592 192.194 241.59 192.695C241.089 192.695 239.586 192.194 240.087 191.694C240.087 191.193 240.588 189.691 241.089 189.691C241.59 189.191 242.592 188.69 243.093 189.191C243.093 189.191 243.093 189.191 243.594 189.691C243.594 190.192 244.095 190.192 244.596 190.192C245.598 190.192 245.598 190.192 246.099 191.193C246.099 192.194 246.099 192.194 245.598 193.195ZM254.116 192.695C253.615 193.195 253.113 193.696 253.615 194.697C253.615 195.698 254.116 195.698 253.113 197.2C253.113 197.7 253.113 198.702 251.61 198.702C251.109 198.702 250.608 199.202 250.107 198.201C249.606 197.7 250.107 197.2 250.608 197.2C251.61 197.2 251.109 195.698 251.109 195.198C251.109 194.196 251.109 193.696 251.109 193.195C251.109 192.194 251.61 191.694 252.612 191.694C253.113 191.193 254.617 191.193 254.116 192.695Z" fill="#3A76BC"/>
<path d="M221.549 165.164C222.05 165.164 222.551 164.663 222.551 164.663C223.052 165.164 223.553 165.164 224.054 165.164C224.555 165.164 225.056 165.664 225.056 166.665C225.056 167.166 225.557 167.667 224.555 168.167C224.054 168.167 223.553 168.668 223.052 168.668C222.551 168.668 221.549 168.668 221.048 168.668C220.045 169.168 219.544 169.669 219.043 168.668C218.542 167.166 219.544 167.166 220.546 166.665C221.047 166.665 221.549 165.664 221.549 165.164Z" fill="#3A76BC"/>
<path d="M244.096 250.762C244.096 249.761 244.096 249.761 245.098 249.261C245.599 249.261 246.601 250.262 246.601 250.762C247.603 252.264 247.102 253.766 247.102 255.768C247.102 256.269 246.1 257.27 246.1 257.771C245.599 258.271 245.098 258.772 245.098 259.773C245.098 260.273 244.597 261.275 244.597 262.276C244.597 262.776 245.599 263.778 245.098 264.278C245.098 264.278 244.096 265.279 243.595 265.279C243.094 264.779 242.092 264.278 241.591 263.277C240.589 262.276 241.09 260.273 241.09 259.272C241.09 258.271 241.09 257.27 241.09 256.769C240.589 255.768 241.09 255.268 241.09 254.267C241.591 253.766 241.591 252.765 242.092 252.264C243.094 252.264 243.094 251.263 244.096 250.762Z" fill="#3A76BC"/>
<path d="M276.16 228.237C276.16 227.736 277.663 226.234 277.663 226.234C278.666 226.735 278.164 228.237 278.164 228.737C278.164 229.238 277.663 230.74 276.661 230.74C275.659 230.239 276.16 228.737 276.16 228.237Z" fill="#3A76BC"/>
<path d="M290.691 230.739C292.195 230.739 293.197 230.739 294.7 231.74C295.702 232.241 296.704 233.242 297.706 234.243C298.708 235.244 299.71 236.246 300.211 237.247C301.213 237.747 300.211 240.25 300.211 241.251C299.71 242.253 298.207 238.749 297.706 238.749C297.205 237.247 296.203 236.246 295.702 235.244C295.201 234.744 293.197 232.742 292.696 232.742C292.195 232.742 291.192 232.742 290.691 232.241C290.691 232.241 290.19 231.24 290.691 230.739Z" fill="#3A76BC"/>
<path d="M301.712 239.249C302.213 239.75 302.213 240.751 302.714 241.752C302.714 242.252 304.718 242.253 305.219 242.253C305.72 242.253 307.223 242.253 307.223 242.753C308.225 243.754 307.724 244.755 306.722 244.755C306.221 244.255 305.72 243.754 304.718 243.754C303.716 243.754 303.215 243.254 302.213 243.254C301.712 242.753 300.71 242.252 301.211 241.251C301.712 240.751 301.211 239.75 301.712 239.249Z" fill="#3A76BC"/>
<path d="M308.726 244.755C309.728 244.755 309.728 244.755 310.73 245.255C311.231 245.255 312.233 245.255 312.233 245.255C313.235 245.255 313.736 245.255 314.237 245.756C315.239 245.756 315.74 246.257 314.738 246.757C314.237 247.258 311.732 246.257 311.231 246.257C310.229 246.257 310.229 245.756 309.227 245.756C308.726 245.756 307.724 245.255 308.726 244.755Z" fill="#3A76BC"/>
<path d="M317.246 246.758C317.747 246.758 318.749 246.758 318.749 246.758C319.25 247.759 319.25 248.26 318.248 248.26C317.747 248.26 317.747 248.26 316.745 248.26C316.244 247.759 316.244 248.26 315.743 248.26C315.242 248.76 314.24 248.76 314.24 248.26C313.739 248.26 313.238 247.258 313.739 247.258C314.741 247.258 316.745 247.258 317.246 246.758Z" fill="#3A76BC"/>
<path d="M303.717 231.741C305.22 231.741 306.222 231.24 307.224 230.239C307.726 229.738 308.728 229.238 309.229 228.737C309.73 228.237 310.231 227.235 310.732 227.736C311.233 227.736 312.736 228.237 312.736 228.737C312.235 229.738 312.235 229.238 311.233 230.239C310.732 230.239 310.732 231.24 311.233 231.741C312.235 232.742 311.734 232.742 311.233 233.743C310.732 234.244 309.73 235.245 309.73 235.745C309.73 236.746 309.229 236.746 309.229 237.748C308.728 238.248 308.227 238.248 307.726 237.748C307.225 237.247 306.723 237.247 305.721 237.247C305.22 237.247 304.218 237.748 303.717 237.247C303.717 237.247 303.216 235.745 303.216 235.245C302.715 234.744 302.214 234.244 302.715 233.242C302.715 232.241 302.715 232.241 303.717 231.741Z" fill="#3A76BC"/>
<path d="M317.747 234.243C316.244 234.243 314.74 234.243 313.237 235.244C312.235 235.745 311.734 237.247 311.734 238.748C311.734 239.249 311.734 240.25 311.734 240.751C312.235 241.251 313.237 242.252 313.738 242.252C315.241 241.752 312.736 239.75 313.237 238.748C313.738 238.748 313.738 239.249 314.239 239.75C314.239 240.25 314.74 240.751 315.241 240.751C315.742 240.751 316.745 240.25 316.244 240.25C316.244 239.75 315.742 239.249 315.241 239.249C313.738 238.248 316.244 238.248 316.745 238.248C318.248 236.746 315.241 237.247 314.74 237.247C314.74 236.245 315.742 235.745 316.745 235.745C317.246 235.745 318.749 235.244 317.747 234.243Z" fill="#3A76BC"/>
<path d="M318.747 230.739C319.248 230.739 320.751 230.739 320.751 231.24C320.751 231.74 320.25 232.241 320.25 232.742C320.25 233.242 320.751 232.742 321.252 233.242C321.753 233.743 320.751 234.744 320.751 234.744C320.25 235.244 318.246 234.243 318.246 233.743C317.745 232.241 318.747 231.74 318.747 230.739Z" fill="#3A76BC"/>
<path d="M315.743 224.231C315.743 223.731 316.745 222.729 317.246 222.729C317.747 222.729 318.248 224.231 317.747 224.732C317.246 225.733 318.248 225.733 318.248 226.734C318.248 227.735 319.25 228.736 318.248 229.237C316.745 229.237 316.745 228.736 316.244 228.236C315.743 227.735 315.242 227.735 314.741 227.735C314.741 227.735 314.741 228.236 314.24 228.236C313.238 228.236 313.238 227.235 313.739 226.734C314.741 226.734 315.242 226.234 316.244 226.734C316.244 226.234 316.745 225.733 316.745 225.232C316.745 224.732 316.244 224.732 315.743 224.231Z" fill="#3A76BC"/>
<path d="M314.239 221.229C314.74 221.229 316.243 222.73 315.241 222.73C314.239 222.73 313.237 221.729 314.239 221.229Z" fill="#3A76BC"/>
<path d="M316.243 219.727C316.243 219.727 316.744 220.728 316.744 221.228C316.744 221.729 316.243 221.228 315.742 221.228C314.739 221.228 315.24 218.725 316.243 219.727Z" fill="#3A76BC"/>
<path d="M313.237 213.72C313.738 213.72 314.239 213.72 314.74 214.721C315.241 215.221 314.741 215.722 314.239 216.223C313.738 216.223 314.74 217.724 314.74 218.225C315.241 218.225 315.241 219.727 314.74 219.727C314.239 219.727 313.237 219.226 312.736 218.726C312.235 218.225 312.235 217.724 312.736 217.224C312.736 216.223 311.233 213.72 313.237 213.72Z" fill="#3A76BC"/>
<path d="M314.239 206.211C314.239 205.711 314.239 205.21 314.74 204.709C315.241 204.209 315.742 205.21 315.742 205.21C315.742 206.211 316.243 207.713 316.243 208.214C315.742 209.715 314.74 209.715 313.738 209.215C313.738 208.714 313.738 206.712 314.239 206.211Z" fill="#3A76BC"/>
<path d="M322.756 233.743C321.253 231.74 323.257 231.74 325.261 232.241C325.762 232.241 325.762 232.742 326.263 233.242C326.263 233.743 326.263 233.743 325.762 234.243C325.762 234.744 326.263 235.244 326.765 235.244C327.767 236.246 329.27 233.743 330.773 234.744C332.276 235.745 332.777 237.747 334.28 238.749C334.781 238.749 335.783 239.249 336.284 239.75C336.785 240.25 336.785 240.25 336.785 240.751C337.286 240.751 337.787 240.751 337.787 241.251C338.789 242.753 339.791 244.255 340.292 245.757C340.793 246.758 342.797 249.761 341.294 250.262C340.292 250.762 339.791 248.76 339.791 248.26C339.29 247.258 338.288 248.259 337.787 247.759C336.785 247.258 336.284 245.757 335.282 245.757C334.28 245.256 333.779 247.258 332.777 246.257C331.274 245.757 331.274 244.755 329.771 244.255C328.769 243.754 327.266 243.254 327.767 242.253C328.268 241.752 328.268 241.251 328.268 240.751C328.268 239.75 328.268 239.75 327.767 239.249C326.765 238.248 325.762 237.747 324.76 237.747C324.259 237.747 323.257 237.747 322.756 237.247C322.756 237.247 322.255 236.246 321.754 235.745C321.253 235.745 320.752 235.244 321.754 234.744C322.255 234.744 322.756 234.243 323.257 234.243C323.257 234.243 323.257 234.243 322.756 233.743Z" fill="#3A76BC"/>
<path d="M341.293 236.246C341.293 235.745 341.293 235.745 341.293 235.745C342.796 235.745 344.8 237.247 344.299 238.248C344.299 238.749 343.798 239.249 343.297 239.249C342.796 238.749 342.796 238.749 342.796 238.248C342.295 237.747 342.295 237.247 342.295 236.746C341.794 236.746 341.293 236.746 341.293 236.246Z" fill="#3A76BC"/>
<path d="M340.791 239.249L341.292 238.748C341.793 238.748 341.793 239.249 341.793 239.749C341.793 240.25 341.793 240.75 341.793 240.75C341.292 241.251 341.292 241.251 340.791 241.251C340.29 242.252 339.288 241.752 339.789 240.75C340.29 240.25 341.292 240.25 340.791 239.249Z" fill="#3A76BC"/>
<path d="M344.3 239.249C345.803 238.748 345.803 242.252 344.801 242.753C343.799 243.254 343.298 239.75 344.3 239.249Z" fill="#3A76BC"/>
<path d="M344.802 243.754C345.303 243.253 345.804 243.253 346.305 242.753C346.305 243.754 346.305 244.255 346.305 244.755C345.804 245.256 345.804 246.758 345.303 246.758C344.301 247.258 344.802 245.756 344.301 245.256C344.301 244.755 343.8 245.256 344.301 244.255L344.802 243.754Z" fill="#3A76BC"/>
<path d="M320.25 248.76C321.253 248.76 321.754 248.76 322.756 248.76C323.257 248.76 324.259 248.76 325.261 248.76C326.263 248.76 325.762 249.26 325.762 250.262C325.762 251.263 325.261 251.263 324.76 252.264C323.257 253.265 325.261 254.767 326.263 255.768C326.764 256.769 327.265 256.769 327.766 255.768C328.267 254.767 328.768 254.767 328.768 253.766C329.269 252.764 329.77 252.264 329.77 251.763C330.271 250.762 330.271 249.761 330.772 249.26C332.776 247.759 332.275 252.264 332.275 253.265C332.275 254.266 332.275 254.767 332.776 255.768C333.277 256.769 333.277 257.27 333.277 258.271C332.776 259.772 333.277 261.775 333.778 263.277C333.778 264.778 333.778 266.28 333.778 267.782C333.778 268.783 333.778 269.784 333.277 270.285C333.277 271.286 332.275 271.786 332.275 272.287C331.774 273.288 331.273 273.789 330.772 274.79C330.772 275.29 329.77 275.791 329.269 276.292C329.269 277.293 328.768 277.793 328.267 278.294C327.766 279.295 327.265 279.796 326.764 280.296C325.261 281.297 324.259 282.298 322.756 283.3C321.754 283.3 321.253 283.3 320.751 283.3C319.749 283.3 318.747 283.8 318.246 283.8C317.244 283.8 316.743 283.8 316.242 283.3C315.741 282.799 315.741 281.798 315.24 280.797C315.24 279.295 315.24 277.793 315.741 275.791C314.739 276.292 314.238 277.293 313.737 276.792C312.735 276.292 313.236 275.791 312.735 274.79C311.733 273.288 311.232 271.786 309.228 271.286C305.721 270.785 302.715 271.786 299.709 272.287C299.208 272.287 298.206 271.286 297.705 271.286C297.204 270.785 296.703 269.784 297.204 269.283C297.705 268.783 298.206 267.782 298.206 267.281C298.707 266.28 298.707 265.279 298.707 264.778C298.707 263.777 299.208 263.277 299.709 262.776C300.21 261.775 300.21 261.274 300.711 260.273C301.212 259.272 302.214 257.77 303.717 257.27C305.22 256.769 306.723 256.268 308.226 255.267C308.226 255.267 308.727 255.267 309.228 255.267C309.729 255.267 309.729 254.767 310.23 254.767C310.731 253.766 311.232 253.766 311.733 253.265C313.236 251.763 314.739 251.263 316.242 251.263C317.745 250.762 318.747 249.26 320.25 248.76Z" fill="#3A76BC"/>
<path d="M314.738 285.803C315.239 285.803 315.74 285.803 316.242 286.303V286.804H317.244C317.745 286.303 318.246 285.803 318.747 285.803C319.749 286.303 319.749 286.804 319.248 287.304C318.747 287.805 318.246 288.306 317.745 288.806C317.244 288.806 317.244 289.807 316.743 290.308C315.74 290.809 314.738 290.808 314.738 289.307C313.736 289.807 312.734 288.806 312.734 287.805C312.734 287.304 313.736 286.303 314.237 285.803H314.738Z" fill="#3A76BC"/>
<path d="M232.073 152.148C232.574 152.148 233.075 152.148 234.077 152.649C235.079 152.649 235.079 152.649 235.58 152.148C236.583 152.649 236.082 153.65 235.58 154.151C234.578 154.651 234.077 155.152 232.574 155.152C231.572 155.152 230.57 155.152 230.57 154.151C230.57 153.15 231.572 152.649 232.073 152.148Z" fill="#3A76BC"/>
<path d="M311.232 166.665C313.236 167.666 315.24 169.669 316.743 170.67C317.244 171.671 317.244 171.671 317.745 172.171C317.745 173.173 317.745 173.173 318.246 173.673C318.747 174.174 321.252 175.675 320.25 176.176C319.749 176.677 317.244 175.675 316.743 175.175C316.242 174.674 316.242 172.672 315.741 172.171C314.238 170.169 311.733 169.168 310.73 167.166C311.232 167.166 311.232 166.665 311.232 166.665Z" fill="#3A76BC"/>
<path d="M322.757 167.166C322.757 167.166 325.262 168.167 323.759 168.668C323.258 168.668 322.256 169.168 321.254 168.167C321.755 168.167 322.256 167.667 322.757 167.166Z" fill="#3A76BC"/>
<path d="M323.758 169.669C324.259 170.17 324.259 170.17 323.758 170.67C323.257 171.171 322.756 170.67 322.255 170.67C321.754 170.67 321.754 169.669 322.255 169.669C322.756 169.669 323.257 169.669 323.758 169.669Z" fill="#3A76BC"/>
<path d="M319.75 176.677C320.251 177.177 321.253 177.678 321.253 177.678C321.754 177.678 323.758 177.177 323.758 177.678C324.259 178.679 325.261 178.679 324.259 179.18C323.758 179.68 322.255 180.181 322.255 180.681C322.255 180.681 321.754 182.183 321.253 182.183C320.251 181.683 320.752 180.181 320.251 179.68C320.251 179.18 317.746 177.177 319.75 176.677Z" fill="#3A76BC"/>
<path d="M323.758 180.682C324.259 181.182 323.758 182.183 323.758 182.684C324.259 183.185 324.76 183.185 325.261 183.685C325.261 184.686 324.76 185.687 324.76 186.188C325.261 186.689 325.261 188.19 325.261 188.691L324.76 189.191C324.76 189.692 325.261 190.193 324.76 190.193C324.76 190.693 324.259 190.693 324.259 190.693C324.259 191.194 324.259 191.694 323.758 192.195C323.758 192.696 323.257 192.696 322.756 192.696C321.754 193.196 320.752 194.197 319.75 194.197C319.75 194.698 319.249 196.2 318.247 195.699C317.746 195.198 318.247 193.697 318.748 193.697C319.249 192.695 319.75 192.195 320.251 191.194C320.752 190.693 321.253 190.693 322.255 190.693C321.754 189.692 320.752 189.191 320.752 188.691C320.752 188.19 322.255 187.189 322.255 186.188C322.756 185.687 321.754 184.186 322.255 183.185C322.756 182.684 322.756 180.682 323.758 180.682Z" fill="#3A76BC"/>
<path d="M322.253 194.697C321.251 194.197 318.746 195.699 319.748 196.199C320.75 196.199 322.253 195.699 322.253 194.697Z" fill="#3A76BC"/>
<path d="M319.25 196.699C319.25 196.199 318.749 196.199 318.749 195.698C318.248 196.199 316.745 198.201 317.747 198.702C318.248 199.202 318.248 198.201 318.749 197.701C318.749 197.701 319.751 197.2 319.25 196.699Z" fill="#3A76BC"/>
<path d="M332.275 155.151C334.279 155.151 335.281 154.651 336.283 153.149C336.784 152.649 337.285 152.148 337.786 152.148C338.788 152.148 339.289 151.647 340.291 151.147C340.792 151.147 341.794 150.646 342.295 150.646C343.297 150.146 343.297 149.645 344.299 149.145C345.802 149.145 347.305 149.645 348.808 150.146C349.81 150.646 352.316 150.646 352.316 152.148C352.817 152.649 352.316 153.149 352.817 154.15C353.318 154.651 353.819 155.652 353.819 156.153C353.819 156.653 353.318 156.653 353.318 157.154C353.318 157.654 353.318 157.654 353.318 158.155C352.817 159.156 352.316 159.657 351.815 160.157C351.313 160.658 350.812 161.158 349.81 161.158C349.309 161.158 349.309 158.656 349.309 158.155C348.808 158.155 348.307 158.155 348.307 158.656C347.806 158.656 347.305 158.155 347.305 157.654C346.804 158.155 346.303 158.656 345.301 159.156C344.299 159.156 343.798 159.156 342.796 158.656C341.293 158.656 339.79 158.656 337.786 158.656C337.285 158.656 336.283 158.656 335.782 158.155C335.281 158.155 334.78 157.654 334.78 158.155C334.78 158.656 334.279 158.656 333.778 159.156C333.277 159.156 331.273 159.156 330.772 159.156C329.77 159.156 328.768 159.156 327.766 159.156C328.768 157.154 331.273 157.154 332.275 155.151Z" fill="#3A76BC"/>
<path d="M342.297 171.671C342.798 171.671 343.8 172.171 343.8 172.672C343.8 173.673 342.297 173.173 341.796 173.173C341.295 173.173 340.293 172.672 340.293 172.171C340.794 171.671 341.796 171.671 342.297 171.671Z" fill="#3A76BC"/>
<path d="M338.789 173.173C339.29 173.673 339.791 173.673 340.292 174.174C340.793 174.675 339.791 175.175 339.29 175.175C338.789 174.675 337.787 175.175 337.286 174.174C336.785 173.173 337.787 173.673 338.789 173.173Z" fill="#3A76BC"/>
<path d="M362.836 184.186C363.838 184.686 363.838 184.686 364.339 185.187C364.841 185.687 365.342 186.688 364.841 187.189C363.838 187.69 363.337 186.188 363.337 185.687C362.836 185.187 362.335 184.686 362.836 184.186Z" fill="#3A76BC"/>
<path d="M371.356 158.656C371.857 158.156 371.857 157.655 372.358 158.156C372.859 158.156 372.859 158.156 373.36 158.656C373.861 159.157 374.362 160.158 373.861 161.159C373.36 162.16 372.859 162.16 371.857 161.159C370.855 160.658 371.356 159.157 371.356 158.656Z" fill="#3A76BC"/>
<path d="M378.871 149.145C379.372 148.144 379.873 147.143 380.875 146.642C381.376 146.142 383.881 145.641 383.38 147.143C383.38 147.143 382.378 147.143 381.877 147.143C381.376 147.643 380.875 148.144 380.875 148.645C380.374 148.645 379.873 149.145 379.873 149.646C379.372 149.646 378.37 150.146 378.871 149.145Z" fill="#3A76BC"/>
<path d="M382.378 148.644C383.38 148.143 383.881 148.143 384.883 148.143C385.384 148.143 385.384 146.642 385.384 146.642C385.885 145.641 386.386 145.14 386.887 144.639C387.889 144.139 388.39 144.139 389.392 144.139C391.397 144.139 392.9 143.638 394.403 144.639C394.904 145.14 394.904 145.14 395.906 144.639C396.908 144.639 397.409 144.639 398.411 145.14C399.413 145.641 399.914 146.141 400.916 146.642C401.417 147.142 401.918 147.643 402.92 148.143C403.421 148.644 403.922 148.143 404.924 148.644C405.926 148.644 406.427 149.145 407.429 149.645C407.93 150.146 407.93 150.146 407.93 151.647C407.93 152.649 408.431 153.149 408.932 154.15C409.433 154.651 408.932 155.152 409.433 156.153C409.934 156.653 410.435 157.654 410.435 158.656C410.936 159.156 410.936 159.657 411.437 160.157C412.439 160.658 412.94 161.659 412.94 162.16C412.94 164.162 411.437 164.663 409.934 164.663C408.431 164.663 406.928 164.162 405.425 163.661C403.421 162.66 402.419 162.16 400.916 160.658C400.415 160.157 399.914 159.156 399.413 159.156C398.411 158.656 397.91 158.155 397.91 157.654C397.91 157.154 398.411 155.652 397.409 155.652C396.407 155.652 395.906 155.152 394.904 155.152C393.401 155.152 391.898 154.651 390.395 154.651C389.893 154.651 388.891 154.651 387.889 155.152C387.889 155.152 388.39 155.652 387.889 156.153H386.887C386.887 158.656 389.392 157.154 390.896 158.155C392.9 158.656 394.403 158.656 395.906 159.156C396.908 159.657 396.908 159.657 397.409 160.658C397.91 161.158 398.411 161.659 399.413 162.16C400.415 162.66 400.916 162.66 401.918 163.161C402.92 163.161 402.92 164.162 401.918 164.663C401.417 164.663 400.415 164.663 400.415 165.163C399.914 166.164 400.415 166.665 400.415 167.666C400.415 168.167 400.415 169.168 399.413 169.168C398.912 168.667 397.91 168.667 396.908 168.167C395.906 167.666 392.399 169.168 392.399 167.165C392.399 166.164 393.401 165.664 393.401 165.163C393.902 164.162 392.9 164.162 392.399 163.661C391.397 163.161 390.896 163.161 389.893 162.66C388.891 162.66 387.889 162.16 387.388 161.158C386.887 161.158 386.386 161.158 386.386 160.658C385.885 160.157 385.885 159.657 385.384 159.156C384.883 158.155 384.382 157.654 383.38 157.654C381.877 157.654 381.877 156.653 381.376 155.652C381.376 155.152 381.376 154.651 381.376 154.15C380.875 153.149 380.875 153.65 380.374 153.65C379.873 153.149 379.873 153.149 379.873 152.649C379.873 152.148 378.871 151.648 378.871 151.147C379.372 150.146 380.875 151.147 380.875 151.647C381.376 151.647 381.877 150.646 381.877 150.146C381.877 149.645 381.877 149.145 382.378 148.644Z" fill="#3A76BC"/>
<path d="M414.944 153.15C415.946 152.149 416.447 152.149 417.449 152.649C418.451 153.65 419.453 153.65 419.954 154.151C420.956 155.152 421.457 155.653 422.459 156.153C422.459 156.654 422.961 157.154 422.459 157.655C421.958 157.655 421.457 157.655 420.956 157.655C419.954 157.655 419.453 157.154 418.451 156.654C417.95 156.153 417.95 155.653 417.449 155.653C416.948 155.152 416.447 155.653 415.946 155.653C414.944 156.153 414.443 156.153 413.942 155.152C413.441 154.651 413.441 153.65 413.942 153.65C414.443 153.65 414.944 153.65 414.944 153.15Z" fill="#3A76BC"/>
<path d="M377.367 153.65C377.367 153.15 377.868 152.149 378.87 152.649C379.371 153.15 378.87 154.151 378.87 155.152C377.868 154.651 377.367 154.651 377.367 153.65Z" fill="#3A76BC"/>
<path d="M374.863 156.654C374.863 156.153 375.364 155.653 375.865 155.152C376.366 154.651 377.869 154.651 377.368 155.653C377.368 156.153 376.867 157.154 376.366 157.655C375.865 158.656 374.863 157.655 374.863 156.654Z" fill="#3A76BC"/>
<path d="M378.869 156.153C379.871 155.652 380.372 156.653 380.372 157.654C380.873 158.656 380.372 159.156 379.871 160.157C379.37 160.157 378.368 159.156 377.867 158.656C377.366 158.155 378.368 157.654 378.368 157.654C378.869 157.654 378.368 156.653 378.368 156.153H378.869Z" fill="#3A76BC"/>
<path d="M375.864 159.157C376.365 158.656 376.866 158.656 377.868 159.157C378.369 159.657 378.369 159.657 378.369 160.658C377.868 160.658 378.369 161.66 378.369 161.66C378.369 162.16 378.87 162.16 379.371 162.16C379.872 162.16 379.872 162.661 380.373 163.161C380.373 163.662 380.874 163.662 381.375 164.162C381.375 164.663 380.874 164.663 380.874 165.164C379.872 165.664 378.87 165.164 377.868 164.663C377.367 164.663 376.365 164.663 375.363 163.662C375.363 163.662 375.864 162.16 375.864 161.66C375.864 160.658 374.862 159.657 375.864 159.157Z" fill="#3A76BC"/>
<path d="M451.015 245.256C450.013 244.255 449.512 242.753 449.011 241.752C449.011 241.251 447.508 240.751 447.508 240.25C446.506 239.75 446.005 239.75 445.504 239.75C444.001 239.249 442.998 238.748 441.495 238.248C440.994 238.248 440.493 237.747 439.992 237.747C438.99 237.747 438.489 237.747 437.487 237.747C437.988 236.246 437.988 235.244 437.487 234.243C436.485 233.242 435.984 232.241 434.982 231.74C433.479 231.74 432.477 231.24 431.475 230.739C430.974 230.239 430.473 229.738 430.473 229.237C429.972 228.737 429.471 228.236 428.97 227.736C427.968 227.235 426.966 226.234 425.964 225.733C424.962 225.233 423.96 223.731 422.958 223.231C422.457 223.231 421.956 223.231 421.455 222.73C420.453 222.73 419.952 221.729 419.451 222.73C418.95 223.231 417.948 224.232 416.444 224.232C416.946 223.731 417.447 223.231 417.948 222.73C418.449 222.229 418.449 222.229 418.449 221.729C417.948 221.729 417.948 221.228 417.447 221.228C415.943 222.229 413.939 222.229 412.436 222.73C411.935 222.73 411.434 223.731 410.933 224.232C410.933 224.232 410.933 223.731 410.432 224.232C410.432 224.232 410.432 224.232 409.931 224.232C409.931 224.732 409.43 225.233 408.929 225.233C408.428 224.732 407.426 224.732 406.925 224.732C406.424 224.732 405.422 225.733 404.921 225.733C403.919 225.233 403.418 225.233 402.917 224.732C402.416 224.232 402.416 222.73 402.917 222.229C402.917 220.728 403.418 218.725 401.414 218.725C399.911 218.725 397.907 220.227 396.905 218.725C396.404 217.224 399.41 215.722 397.406 214.721C395.903 213.72 394.4 215.221 392.897 215.722C392.396 216.222 391.394 216.222 390.893 215.722C390.392 215.221 389.891 214.22 389.39 213.72C388.888 212.718 388.888 212.718 388.387 211.217C388.387 210.216 388.888 210.216 389.39 209.214C389.39 208.714 389.39 207.713 390.392 206.711C390.893 206.211 391.394 206.711 392.396 206.711C392.897 206.711 393.899 206.211 394.4 206.211C395.402 205.71 395.903 205.71 396.905 205.21C397.907 205.21 398.408 204.709 399.41 204.709C400.412 205.21 400.913 205.71 401.414 206.711C401.915 207.212 401.414 207.713 401.414 208.714C401.414 209.214 402.416 210.716 402.917 209.715C404.42 208.213 404.42 206.711 403.418 205.21C403.418 204.709 402.917 204.209 402.917 203.708C402.917 202.707 402.917 202.206 403.418 201.706C404.42 200.204 405.422 199.203 406.424 198.202C406.925 197.2 406.925 195.198 406.925 194.197C407.426 193.196 407.426 191.194 408.929 190.693C410.432 189.692 409.43 188.19 410.432 187.189C410.933 186.188 411.935 185.187 412.937 183.685C413.438 183.184 413.438 183.184 413.438 182.183C413.438 181.683 411.935 181.683 412.436 180.681C412.937 180.681 413.438 180.681 413.438 180.681C413.939 180.181 413.438 180.181 412.937 179.68C412.436 179.68 411.434 180.181 410.933 180.181C411.434 180.681 411.935 180.681 411.935 181.683C411.434 182.183 410.933 182.684 410.432 182.183C409.931 181.182 410.432 181.182 409.43 181.182C408.929 180.681 407.927 181.182 407.426 181.182C407.927 180.681 408.428 179.68 408.929 179.68C409.931 179.68 410.432 179.18 411.434 179.18C412.937 179.18 414.941 178.679 414.941 177.177C415.442 176.176 414.44 175.676 413.939 175.175C413.939 174.674 413.438 174.174 413.438 174.174C412.937 174.174 412.436 174.674 411.935 174.674C410.933 174.674 408.929 173.673 407.426 173.173C405.422 172.672 404.921 172.172 403.418 170.67C403.418 170.169 402.917 169.168 401.915 169.669C401.414 170.169 400.913 170.169 399.911 169.669C398.408 169.168 396.905 168.668 395.402 169.168C394.4 169.168 393.899 169.168 393.899 170.169C393.398 171.671 393.899 171.671 394.901 172.172C395.402 172.672 394.901 173.173 395.402 173.673C395.903 174.174 396.905 174.674 396.905 175.175C396.905 176.677 397.406 178.179 397.406 179.68C396.404 179.18 395.903 178.178 394.901 178.178C393.398 177.678 392.897 178.178 391.895 177.177C390.893 176.677 389.891 176.176 388.889 176.176C388.889 175.676 387.886 176.176 387.886 175.676C387.385 175.175 386.884 174.674 386.884 174.674C385.882 173.673 385.882 173.173 386.884 172.672C387.385 171.671 388.387 171.17 388.889 170.169C388.889 169.669 387.886 167.666 388.387 167.666C388.888 167.166 389.891 166.665 390.893 166.165C390.392 165.163 388.387 164.162 387.385 163.662C386.383 163.161 385.882 162.661 385.381 162.16C384.379 161.659 384.379 160.658 383.377 160.658C382.876 160.158 382.375 160.158 381.874 161.159C381.874 161.659 382.375 162.661 382.375 163.161C382.876 164.162 383.878 164.663 383.377 165.664C382.375 166.665 381.874 166.165 380.872 166.665C378.868 166.665 377.866 166.665 376.363 166.165C375.361 165.664 374.86 165.163 373.858 164.663C373.357 164.162 372.856 163.662 371.854 163.662C370.351 163.161 368.848 163.662 367.345 162.661C365.842 162.16 364.339 161.159 362.836 160.658C362.335 160.158 361.834 159.657 361.332 159.657C361.332 159.157 360.831 158.656 360.33 158.656C359.328 158.155 357.825 159.157 356.322 159.657C355.32 160.158 353.817 160.158 353.316 160.658C352.815 161.159 352.314 162.16 352.314 162.661C352.314 163.161 351.813 163.161 351.312 163.161C349.809 163.662 350.31 163.161 350.31 164.162C349.809 164.663 349.308 165.163 349.308 165.163C348.306 166.165 348.306 167.666 348.807 168.668C349.308 169.669 349.308 169.669 348.807 170.169C348.306 171.17 348.306 171.17 347.304 170.67C346.302 170.67 344.799 170.169 343.797 171.17C344.298 171.671 344.799 172.172 344.799 172.172C344.799 172.172 345.3 172.172 345.801 172.172C346.302 172.672 347.304 172.672 348.306 172.672C349.308 172.172 349.308 171.671 350.31 172.172C350.811 172.672 351.813 172.172 352.314 172.172C354.318 171.671 355.821 171.671 357.825 172.172C359.328 172.172 360.33 174.174 360.831 175.175C362.335 178.179 363.337 181.182 364.84 184.185C364.84 184.686 365.341 184.686 365.341 184.686C365.341 185.187 365.842 185.687 365.842 186.188C365.842 186.688 365.842 187.69 365.842 188.691C365.341 190.693 365.341 192.195 365.341 194.197C365.341 194.698 365.341 195.699 365.842 196.199C365.842 196.7 366.844 197.701 366.844 198.202C367.345 199.203 367.846 200.204 368.347 200.705C368.848 201.706 369.349 202.206 369.85 202.707C370.351 204.709 370.852 205.71 371.854 207.212C372.856 208.714 373.357 210.216 374.86 211.217C375.862 211.717 374.86 209.715 374.86 209.214C374.359 208.714 373.858 208.213 373.858 207.212C374.359 206.211 373.858 206.211 373.357 205.21C372.856 204.709 371.854 204.209 371.353 203.207C370.852 202.206 371.353 201.706 372.355 202.206C372.856 202.206 373.357 203.207 373.357 203.708C373.858 204.709 374.359 205.21 374.359 205.71C374.86 206.711 375.361 207.212 375.862 208.213C376.363 208.714 376.864 208.714 377.365 209.715C377.365 210.216 377.866 211.217 378.367 211.717C378.868 212.218 379.87 211.717 380.371 212.718C380.872 213.219 380.872 214.22 381.373 214.721C382.876 217.724 385.381 220.728 388.387 220.728C389.39 220.728 390.392 220.227 390.893 220.728C391.895 220.728 392.396 221.228 393.398 221.729C394.4 222.73 395.903 223.731 397.406 224.232C397.907 224.232 398.909 223.731 399.41 224.232C400.412 224.732 400.412 225.733 400.913 226.234C401.414 226.735 402.416 227.235 402.917 227.235C403.418 227.235 403.919 227.235 403.919 227.235C404.42 227.736 404.42 228.236 404.921 228.737C405.422 229.237 405.422 227.736 405.923 227.235C406.424 226.234 406.925 226.234 407.927 226.735C408.929 227.736 409.931 229.738 409.43 231.24C408.929 231.74 408.428 232.241 407.927 233.242C407.426 233.743 407.426 234.744 406.925 235.745C406.424 236.746 406.925 239.249 406.925 240.25C407.426 240.751 407.426 241.752 407.426 242.753C407.426 243.754 407.927 244.255 407.927 245.256C408.929 246.758 408.428 248.259 408.929 249.761C408.929 250.762 408.428 251.764 408.428 252.264C408.929 252.765 409.43 253.766 409.931 254.266C410.432 255.268 410.933 255.768 411.935 256.269C411.935 256.769 411.935 258.271 411.935 258.772C411.935 259.272 411.935 259.773 411.434 260.273C411.434 260.774 410.933 261.275 410.933 261.775C410.933 263.277 410.432 264.278 409.931 265.279C409.931 265.78 409.43 266.28 409.43 266.781L408.428 267.281C408.428 268.283 407.927 268.783 407.927 269.284C407.426 269.784 406.925 270.285 406.925 270.785C406.925 271.286 406.925 271.787 406.925 272.287C406.925 273.288 406.925 272.788 406.424 273.288C405.923 274.289 405.422 275.291 404.921 276.292C403.919 277.293 403.418 278.294 402.917 279.295C402.917 280.296 401.915 281.298 401.414 282.299C401.915 282.299 402.416 282.799 401.915 283.3C401.915 283.801 400.913 283.801 400.412 284.301C399.911 284.802 398.408 285.302 398.408 286.303C397.907 287.305 398.909 289.307 397.907 289.807C397.406 290.308 396.404 291.81 397.907 292.31C396.905 293.311 395.903 294.313 397.406 295.814C397.406 295.814 398.408 296.315 398.408 296.816C398.909 297.316 398.408 298.317 398.408 298.818C399.41 298.818 399.41 298.317 399.911 298.317C400.412 298.818 400.412 298.818 400.913 298.818C400.913 299.318 401.915 299.318 401.915 299.318C402.416 298.818 402.416 298.818 401.915 298.317C401.915 297.817 401.915 297.817 401.915 297.316C401.915 296.816 401.915 296.315 401.915 296.315C401.414 294.813 400.913 296.816 400.412 295.814C400.412 295.314 400.412 295.314 400.913 294.813C401.414 294.313 401.414 294.813 401.915 294.313C402.917 294.313 402.917 293.812 403.418 292.811C404.42 291.309 404.921 289.807 405.923 288.806C406.925 286.804 407.927 285.803 409.43 284.301C410.933 283.3 411.935 282.299 412.937 281.798C414.44 281.298 416.444 280.797 417.948 279.796C418.95 278.795 419.952 277.794 421.455 276.292C422.457 275.291 424.461 274.79 425.463 273.789C426.465 273.288 426.966 273.288 427.968 272.788C428.97 272.788 429.471 272.287 429.972 271.787C431.475 270.785 432.477 270.285 433.98 269.284C434.982 268.283 435.984 266.781 436.986 266.28C438.489 265.78 439.491 265.279 440.493 264.278C441.495 263.277 442.998 262.276 443.499 260.774C444.001 259.773 444.001 259.272 445.003 258.772C445.003 258.271 445.003 257.27 445.504 256.769C446.005 255.268 447.007 254.266 448.009 252.765C449.011 251.763 449.512 250.762 450.514 249.261C450.514 248.76 451.015 247.759 451.516 247.258C452.017 246.758 451.516 246.257 451.015 245.256ZM403.418 186.688C403.919 186.188 404.42 186.688 404.921 186.188C405.422 185.687 405.923 186.188 405.923 186.688C406.424 187.189 403.418 187.189 402.917 187.189L403.418 186.688ZM398.408 186.188C399.41 186.188 399.41 186.188 400.412 186.688C400.913 187.189 402.416 187.689 401.414 188.19C400.913 188.19 399.911 187.69 399.41 187.69C398.909 187.189 396.905 186.188 398.408 186.188ZM397.406 186.688C396.905 187.189 395.402 190.192 394.4 189.692C394.4 189.191 394.901 189.191 394.901 188.691C394.901 188.19 395.402 187.69 395.402 187.189C395.402 186.188 396.905 185.687 397.406 186.688ZM392.396 184.185C392.897 184.185 393.899 184.185 394.901 183.685C395.402 183.184 393.398 182.684 393.899 181.683C394.4 181.182 395.903 182.684 396.404 182.684C396.905 183.184 396.905 184.185 397.406 185.187C396.404 185.187 395.402 185.187 394.4 185.187C393.899 185.187 391.895 185.187 392.396 184.185Z" fill="#3A76BC"/>
<path d="M414.945 183.684C414.945 184.185 414.444 184.685 413.943 185.186C412.941 185.186 413.442 184.185 413.442 183.684C413.943 183.184 414.444 182.183 414.945 182.183C415.947 182.183 415.947 183.184 414.945 183.684Z" fill="#3A76BC"/>
<path d="M415.443 177.177C415.944 177.177 416.445 176.176 416.946 176.676C417.447 177.177 416.445 177.677 416.445 178.178C416.946 178.679 418.95 178.178 418.95 179.179C419.451 179.68 418.95 180.681 418.449 180.681C417.948 180.681 417.447 180.18 417.447 179.68C416.946 179.179 414.942 181.181 414.441 180.18C413.94 179.179 414.942 177.677 415.443 177.177Z" fill="#3A76BC"/>
<path d="M403.921 212.718C405.424 213.218 406.927 214.22 408.43 214.22C408.931 214.22 409.432 214.72 409.432 215.221C409.432 215.721 407.929 215.721 407.428 215.721C405.925 215.221 404.923 214.72 403.42 213.719C402.919 213.719 402.418 213.218 402.418 212.217C402.418 211.717 403.921 212.718 403.921 212.718Z" fill="#3A76BC"/>
<path d="M414.443 215.221C415.445 215.221 416.948 214.72 417.449 216.222C417.449 217.223 416.447 216.222 416.447 216.222C415.946 216.222 414.944 216.222 414.443 216.222C413.942 216.222 413.441 216.222 412.94 215.721C412.439 215.721 412.439 215.221 411.938 214.72C411.437 214.22 412.94 214.22 412.94 214.22C413.942 214.22 413.942 214.22 414.443 215.221Z" fill="#3A76BC"/>
<path d="M418.953 216.723C419.454 216.223 419.454 216.223 420.456 216.723C420.456 216.723 420.957 217.224 420.957 217.724C420.957 218.225 419.454 217.224 418.953 217.224C418.953 216.723 418.953 216.723 418.953 216.723Z" fill="#3A76BC"/>
<path d="M390.393 167.666C391.395 168.167 391.896 168.167 392.397 168.667C392.397 169.668 392.397 170.169 391.395 169.668C390.393 169.668 389.892 169.168 389.391 168.667C389.391 168.167 389.391 167.666 389.391 167.666H390.393Z" fill="#3A76BC"/>
<path d="M451.018 103.092L451.519 103.592L448.012 104.093L448.513 103.092H451.018Z" fill="#3A76BC"/>
<path d="M109.321 174.174L111.826 174.674L110.824 178.679L140.885 186.188L142.388 182.183L144.893 183.184L139.382 206.211L136.376 205.71L137.378 201.205L107.317 193.196L106.315 197.701L103.309 197.2L109.321 174.174Z" fill="#3A76BC"/>
<path d="M118.842 148.644L111.828 165.664L114.333 167.166L116.337 162.661L145.396 174.174L143.893 178.178L146.398 179.18L150.908 167.666L148.402 166.165L146.398 170.169L126.859 162.661L154.415 159.157L160.928 147.143L130.867 130.624L133.372 126.619L130.867 125.117L124.354 136.63L126.859 138.132L129.364 134.128L147.901 144.64L118.842 148.644Z" fill="#3A76BC"/>
<path d="M133.371 121.112C134.373 118.109 157.42 88.5746 160.426 86.5723L166.939 92.5792L164.434 95.0821L161.929 93.0798C161.929 93.0798 156.919 95.5827 153.412 99.5873L175.958 117.608V124.616L168.442 135.128L165.937 133.627L168.442 130.123L144.393 111.101C144.393 111.101 140.886 117.108 139.884 121.112L142.389 123.615L140.886 125.617L133.371 121.112Z" fill="#3A76BC"/>
<path d="M163.434 83.5687C163.935 82.067 190.99 58.0392 193.996 57.0381L199.006 64.0462L197.002 66.0485L194.497 63.045C194.497 63.045 187.482 65.0474 179.967 72.0555L188.986 82.067C188.986 82.067 193.996 79.5641 193.495 78.0624L191.491 76.06L193.495 74.0578L200.008 82.067L198.004 83.5687L195.499 81.0658L191.491 84.5699C191.491 84.5699 191.491 85.0704 191.491 85.571C191.992 85.571 200.509 95.082 200.509 95.082C200.509 95.082 200.509 95.082 201.01 94.5815C202.012 94.0809 209.026 87.0728 209.527 84.5699C209.527 84.5699 209.026 83.5687 208.024 82.5676C207.022 81.5664 207.523 81.5664 207.523 81.5664L210.028 79.5641L215.539 87.5734L198.004 101.59H185.979L168.444 82.067L165.438 85.571L163.434 83.5687Z" fill="#3A76BC"/>
<path d="M256.623 30.007L255.621 27.0036L272.155 22.4984L293.197 42.0209L291.193 21.9978L286.684 22.4984L286.183 19.9955L299.21 17.9932L299.711 20.9966L295.202 21.9978L299.21 55.5365L287.686 57.0383L267.145 37.5157L272.656 57.5388L276.163 56.5377L276.664 59.5412L265.641 62.5446L264.639 60.0417L268.648 59.0406L260.13 29.0059L256.623 30.007Z" fill="#3A76BC"/>
<path d="M348.81 53.0338L334.782 17.4928L322.757 16.9922L307.226 51.5321L303.719 52.0326L304.22 55.0361C305.723 54.5356 315.743 54.5356 315.743 54.5356L315.242 51.0315H312.236L315.242 43.5228L329.271 43.0223L332.778 51.0315L328.77 51.5321L329.271 54.5356C332.277 54.035 352.318 56.5379 352.318 56.5379V53.5344L348.81 53.0338ZM316.745 40.5194L323.258 27.0038L328.269 40.5194H316.745Z" fill="#3A76BC"/>
<path d="M354.82 28.5058C354.82 28.5058 356.323 20.9971 356.824 19.9959C356.824 19.4954 382.376 24.0006 397.407 30.5081L394.902 39.0179L391.395 38.0167L392.397 34.5127C392.397 34.5127 384.881 30.0075 383.879 30.0075C383.879 30.0075 376.364 58.5405 376.364 59.0411L380.372 60.5428L379.871 63.5462C379.871 63.5462 358.828 57.0387 356.323 57.0387L356.824 54.5359L361.334 55.0364L368.849 26.5035L358.828 26.0029L357.826 29.0064L354.82 28.5058Z" fill="#3A76BC"/>
<path d="M402.918 32.5098C402.918 32.5098 424.462 42.0208 424.462 42.5213C424.963 43.0219 423.46 45.5248 423.46 45.5248L419.452 43.5225L406.425 71.0543L410.434 73.5572L408.931 76.06C408.931 76.06 389.391 66.0485 387.387 66.0485L387.888 63.5456L392.397 65.0473L405.423 37.015L401.415 34.5121L402.918 32.5098Z" fill="#3A76BC"/>
<path d="M458.029 64.5472L442.498 53.5345C425.463 47.5276 418.449 57.5391 416.445 65.5484C413.94 76.5611 421.455 82.0675 421.455 82.0675C421.455 82.0675 431.976 91.5785 434.481 92.5796C443.5 97.5854 455.023 95.0825 460.033 87.0732C467.549 74.5588 458.029 64.5472 458.029 64.5472ZM451.516 67.0501C450.514 70.5542 449.512 73.5576 440.494 84.5704C440.494 84.5704 436.987 89.5761 432.477 87.5738C432.477 87.5738 429.471 85.5715 428.97 85.0709C427.968 84.0698 426.966 83.0686 426.966 81.0663C427.467 79.064 426.966 77.5623 428.97 75.0594C430.473 72.5565 436.987 63.0455 436.987 63.0455C436.987 63.0455 439.993 59.0409 441.997 59.0409C443.5 59.0409 445.003 59.0409 446.005 59.5414C447.007 59.5414 448.51 61.0432 448.51 61.0432C448.51 61.0432 452.518 63.0455 451.516 67.0501Z" fill="#3A76BC"/>
<path d="M454.023 103.593L454.524 103.092H460.036L459.034 103.593H454.023ZM456.028 101.59L474.565 83.0689L471.559 79.5648L473.563 77.5625L486.089 90.5775L483.083 116.107L495.608 106.596L493.103 103.092L495.608 101.09L503.624 112.102L501.119 114.105L498.614 110.601L471.058 130.123L467.05 125.117V121.613L470.056 93.0804L461.539 101.59H456.028Z" fill="#3A76BC"/>
<path d="M521.159 143.138L514.646 131.124L478.072 135.629L475.567 132.125L473.562 133.627L480.076 143.638L482.08 142.137L480.577 138.633L488.593 137.632L495.607 150.647L490.096 156.654L486.589 150.146L484.084 151.147L495.106 176.677L497.611 175.675L497.11 172.171L521.159 143.138ZM492.1 137.131V137.632L508.133 135.629L497.611 147.643L492.1 137.131Z" fill="#3A76BC"/>
<path d="M531.179 176.676L530.177 171.671L532.682 171.17L539.195 195.198L536.189 196.199L534.686 191.193L505.126 198.702C505.126 198.702 506.629 209.214 509.134 210.215H513.643V213.719L504.625 215.221C504.625 215.221 499.113 182.683 497.109 180.681L499.113 179.68L501.118 184.185L531.179 176.676Z" fill="#3A76BC"/>
<path d="M162.932 338.364L154.415 322.846C141.389 311.833 130.867 318.841 126.358 324.848C119.845 333.858 123.853 341.367 123.853 341.367C123.853 341.367 129.865 353.381 131.368 355.383C137.38 363.392 149.405 363.393 156.419 358.387C165.938 350.878 162.932 338.364 162.932 338.364ZM156.92 339.365C156.419 339.865 149.906 344.871 139.384 350.377C139.384 350.377 134.875 352.88 131.869 349.877C131.869 349.877 129.364 347.374 129.364 346.373C128.863 345.372 128.362 344.371 129.364 342.368C130.366 340.866 130.366 339.365 132.871 337.863C135.376 336.361 145.397 330.354 145.397 330.354C145.397 330.354 149.906 327.851 151.409 328.853C153.413 329.353 154.415 329.854 154.916 330.354C155.918 331.356 156.419 332.857 156.419 332.857C156.419 332.857 159.425 336.361 156.92 339.365Z" fill="#3A76BC"/>
<path d="M134.874 268.283L134.373 263.277L137.379 262.776C137.379 262.776 139.884 280.797 140.385 281.798C141.387 282.299 124.353 293.312 124.353 293.312L143.892 295.815L150.406 312.334L147.9 313.835L145.395 308.83L116.336 319.342L117.839 323.847L115.334 324.848L107.318 301.821L109.823 300.82L111.827 305.326L131.367 297.817L105.815 295.314L103.811 287.805L125.856 273.789L104.813 277.293L105.815 281.298L103.31 282.299L100.805 269.284L103.31 268.783L104.312 273.288L134.874 268.283Z" fill="#3A76BC"/>
<path d="M146.398 373.404L143.392 369.399L140.887 370.901L149.404 381.914L151.408 380.412L148.402 376.407L165.437 363.392L158.923 392.926L168.443 402.437L191.991 377.909L194.496 380.412L195.999 377.909L188.483 370.4L186.479 372.403L188.984 375.406L173.954 390.423L180.467 360.889L170.948 349.376L168.443 351.378L170.948 353.881L146.398 373.404Z" fill="#3A76BC"/>
<path d="M201.509 407.944L191.99 418.456C191.99 418.456 198.503 423.962 204.515 425.464L207.02 421.459L210.026 423.461L205.016 430.97C205.016 430.97 178.963 412.449 175.957 408.945L177.46 406.942L180.466 409.445L200.006 384.917L197.501 382.414L199.004 379.911C199.004 379.911 213.533 392.926 225.558 399.934L220.548 407.944L218.043 406.442L220.047 402.437C220.047 402.437 215.537 395.429 211.529 393.927L203.012 404.94L207.02 407.944L209.024 405.941L211.529 407.443L206.519 415.452L204.014 414.451L206.018 410.947L201.509 407.944Z" fill="#3A76BC"/>
<path d="M224.556 409.446L228.564 401.437C228.564 401.437 251.611 413.951 264.137 417.455L261.631 425.965L258.124 424.964L259.126 421.46C259.126 421.46 252.112 416.454 251.611 415.953L239.086 444.486L243.094 445.988L242.092 448.491L220.047 438.98L221.049 436.477L225.558 438.479L237.583 409.946C237.583 409.946 231.069 407.944 229.065 408.945L227.061 410.948L224.556 409.446Z" fill="#3A76BC"/>
<path d="M270.148 457C272.152 457.501 295.198 461.506 295.198 461.506V458.502H292.693L285.679 422.961L272.152 419.457L250.107 447.99L246.6 447.489L245.598 449.492L256.119 453.496L257.622 451.494L254.115 449.992L259.125 443.485L275.158 447.489L276.16 455.499L270.148 454.998V457ZM261.129 440.481L271.15 428.968L274.657 444.486L261.129 440.481Z" fill="#3A76BC"/>
<path d="M260.129 61.0429L259.628 61.5435C259.628 61.5435 258.125 62.0441 257.123 62.0441C256.622 62.0441 255.119 61.0429 254.618 60.5423C254.618 60.0418 252.614 56.0372 252.113 55.5366C251.612 55.5366 249.107 52.5331 246.601 53.0337C244.096 53.5343 242.593 53.0337 242.593 53.0337C252.113 45.0244 243.595 33.5111 235.579 34.5123C228.565 35.5135 200.508 53.0337 200.508 53.0337L202.512 55.036L206.019 53.0337L221.05 80.0649L217.542 82.5678L219.546 84.5701L239.086 73.5574L237.583 70.5539C237.583 70.5539 236.08 72.0557 235.078 72.0557C234.076 72.5563 234.076 72.0557 234.076 72.0557L227.563 60.0418L233.074 57.5389C233.074 57.5389 235.078 57.0383 236.08 56.5378C236.581 56.5378 237.583 57.5389 237.583 57.5389C237.583 57.5389 242.092 66.0487 243.094 67.5505C243.595 68.5516 245.599 68.5516 246.1 68.5516C246.601 69.0522 251.612 67.5505 251.612 67.5505L261.131 64.0464L260.129 61.0429ZM233.074 53.5343C232.573 54.5354 226.06 57.5389 226.06 57.5389L219.045 45.0244L226.561 41.5204C226.561 41.5204 228.565 41.0198 229.567 42.021C230.569 43.0222 234.577 51.0314 234.577 51.0314C234.577 51.0314 234.076 53.0337 233.074 53.5343Z" fill="#3A76BC"/>
<path d="M346.804 458.503L346.303 459.003C346.303 459.003 343.297 459.003 342.295 458.002C342.295 457.502 342.295 457.502 341.794 457.502C342.295 457.502 342.295 457.001 341.794 454.999C341.794 449.993 336.282 445.988 336.282 445.988C336.282 445.988 343.798 441.984 343.798 435.977C343.798 429.97 338.287 426.466 336.783 426.466C335.28 425.965 332.274 425.965 332.274 425.965C323.256 426.966 300.209 424.964 300.209 424.964L300.71 427.967L304.217 428.468L302.714 459.003H299.207C299.207 459.003 298.706 462.007 299.207 462.007C299.708 462.007 321.252 463.008 321.252 463.008L320.751 460.004H317.745L318.246 445.988C318.246 445.988 324.759 445.988 325.26 445.988C325.761 445.488 327.264 448.491 327.264 448.491C327.264 448.491 327.765 459.003 327.765 459.504C327.765 460.004 330.27 462.007 331.272 462.507C332.274 462.507 347.806 461.506 347.806 461.506L346.804 458.503ZM327.765 440.982C327.765 440.982 327.765 442.484 326.763 442.985C325.761 442.985 318.747 442.985 318.747 442.985L319.749 428.968H326.763C326.763 428.968 327.765 429.97 328.266 430.47C328.266 431.471 327.765 440.982 327.765 440.982Z" fill="#3A76BC"/>
<path d="M344.301 424.463L368.35 420.458C368.35 420.458 369.352 422.461 369.352 422.961C369.352 423.462 365.845 422.961 366.346 423.963C366.346 424.463 377.869 432.973 377.869 432.973C377.869 432.973 384.883 419.958 384.382 417.956L381.376 418.957L380.374 416.454L391.396 412.449L392.9 414.452L389.392 416.454L380.875 436.978L384.382 450.493L388.39 449.993L389.392 452.495L366.346 458.002L365.344 456L369.853 454.498L366.346 440.982L347.808 426.966L344.802 427.467L344.301 424.463Z" fill="#3A76BC"/>
<path d="M410.934 402.938C410.934 402.938 435.483 388.922 439.993 382.414L446.005 389.923L443.5 392.426L440.494 389.422C440.494 389.422 432.477 391.424 428.97 394.929L436.486 406.942L440.995 403.438L439.492 400.435L442.498 398.433L448.51 405.941L445.504 408.444L443.5 405.941L438.49 409.445L445.504 420.959L449.011 418.456L451.015 420.959L430.974 434.474L428.97 431.971L432.477 429.468L416.445 402.938L411.936 404.94L410.934 402.938Z" fill="#3A76BC"/>
<path d="M443.5 380.412L458.531 364.393L461.036 366.896L458.531 369.399L475.064 386.419C475.064 386.419 479.072 388.921 482.579 386.419C486.087 384.416 488.592 382.414 487.59 377.909C486.588 373.904 485.586 373.904 484.584 372.903C483.08 371.902 468.05 358.386 468.05 358.386L465.545 361.89L463.04 359.387L470.054 350.377L472.559 352.379L470.555 355.383L487.59 369.9C487.59 369.9 491.598 375.906 491.598 379.41C491.097 382.915 490.596 384.917 490.095 385.417C489.093 386.419 479.072 396.931 479.072 396.931C479.072 396.931 474.062 399.934 471.557 399.934C469.553 399.934 465.545 398.432 464.543 396.931C463.04 395.93 447.508 379.911 447.508 379.911L445.003 382.414L443.5 380.412Z" fill="#3A76BC"/>
<path d="M474.563 348.875L472.559 347.374L479.573 335.36L509.634 329.353L491.597 320.342L489.593 323.846L487.088 322.345L492.098 312.333L494.603 313.334L493.1 316.838L523.662 331.355L518.151 343.369L488.591 348.375L504.624 360.389L507.129 355.883L509.634 357.385L502.119 368.398L500.115 366.896L502.62 362.891L477.068 345.872L474.563 348.875Z" fill="#3A76BC"/>
<path d="M521.659 271.286C508.131 268.282 502.119 280.797 502.119 280.797L493.602 308.829L496.107 309.83L497.61 305.826L526.669 315.837L525.166 320.843L528.172 321.844C528.172 321.844 537.19 295.814 537.19 289.807C537.691 283.8 533.182 273.789 521.659 271.286ZM533.683 294.312L531.679 301.821C531.679 301.821 502.119 292.31 502.119 291.809C502.119 291.809 502.62 288.305 503.121 285.803C504.123 283.3 506.628 284.301 506.628 284.301C506.628 284.301 528.673 290.308 531.679 291.309C534.685 291.809 533.683 294.312 533.683 294.312Z" fill="#3A76BC"/>
<path d="M114.332 233.742L118.34 222.729L121.346 233.742H132.87L123.35 240.75L126.857 251.763L117.839 244.755L107.819 252.264L111.827 240.75L102.809 233.742H114.332Z" fill="#3A76BC"/>
<path d="M520.656 236.746L524.664 225.733L527.671 236.746H539.194L529.675 243.754L533.683 254.767L524.163 247.759L514.143 255.268L518.151 243.754L509.133 236.746H520.656Z" fill="#3A76BC"/>
</svg>
