<svg width="100" height="100" viewBox="0 0 100 100" fill="none" xmlns="http://www.w3.org/2000/svg">
<path d="M55.9819 83H42.6987V83.3614H55.9819V83Z" stroke="#3B4A58"/>
<path d="M51.6446 78.0359H36.4639L38.7229 74.1504H60.0482L62.3072 78.0359H53.1807" stroke="#3B4A58"/>
<path d="M84.4457 39.006V66.747H14.3252V22.0181H48.5722" stroke="#3B4A58"/>
<path d="M80.6507 39.0062V62.8616H18.1206V25.9038H48.5724" stroke="#C47A2C"/>
<path d="M8 81.1144H90.7711M8 84.9999V80.8433L14.2349 70.1807H84.7169L90.7711 81.024V84.9999H8Z" stroke="#3B4A58"/>
<path d="M40.9819 53.6445V34.3071L57.6988 43.9758L40.9819 53.6445Z" fill="#F9B974" stroke="#C47A2C"/>
<path d="M88.0599 25.0905L85.4394 34.1266L85.3491 34.3977C84.9876 35.6628 76.4936 36.3856 67.0057 33.7652C57.4274 31.1447 50.5599 26.0844 50.831 24.729L50.9214 24.3676L53.1804 15.6929" stroke="#3B4A58"/>
<path d="M45.3198 10.7229L73.2415 10L96.9162 25H95.9222L87.6993 25.2711L68.9945 25.8133L53.1813 15.6928L45.3198 10.7229Z" stroke="#3B4A58"/>
</svg>
