<svg width="28" height="28" fill="none" xmlns="http://www.w3.org/2000/svg"><g clip-path="url(#clip0_13793_7331)"><path d="M19.833 11.713c-4.502 0-8.166 3.663-8.166 8.166 0 4.478 3.664 8.121 8.166 8.121C24.336 28 28 24.337 28 19.834c0-4.478-3.665-8.121-8.167-8.121zm0 13.954C16.617 25.667 14 23.07 14 19.88a5.84 5.84 0 015.833-5.833c3.217 0 5.834 2.597 5.834 5.788a5.84 5.84 0 01-5.834 5.833zm1.992-5.491a1.166 1.166 0 11-1.65 1.65l-1.166-1.167a1.167 1.167 0 01-.342-.825V17.5a1.167 1.167 0 112.333 0v1.85l.825.826zM28 8.167v2.334a1.166 1.166 0 11-2.333 0V8.167c0-1.93-1.57-3.5-3.5-3.5H5.833c-1.93 0-3.5 1.57-3.5 3.5v1.167h10.5a1.167 1.167 0 110 2.333h-10.5v10.5c0 1.93 1.57 3.5 3.5 3.5H10.5a1.167 1.167 0 110 2.333H5.833A5.84 5.84 0 010 22.167v-14a5.84 5.84 0 015.833-5.833H7V1.167a1.167 1.167 0 012.333 0v1.167h9.334V1.167a1.167 1.167 0 112.333 0v1.167h1.167A5.84 5.84 0 0128 8.167z" fill="#C47A2C"/></g><defs><clipPath id="clip0_13793_7331"><path fill="#fff" d="M0 0h28v28H0z"/></clipPath></defs></svg>