<svg width="28" height="28" viewBox="0 0 28 28" fill="none" xmlns="http://www.w3.org/2000/svg">
<path d="M22.1667 1.16699H5.83333C4.28681 1.16884 2.80415 1.78402 1.71059 2.87758C0.617029 3.97114 0.0018525 5.4538 0 7.00033L0 21.0003C0.0018525 22.5469 0.617029 24.0295 1.71059 25.1231C2.80415 26.2166 4.28681 26.8318 5.83333 26.8337H22.1667C23.7132 26.8318 25.1959 26.2166 26.2894 25.1231C27.383 24.0295 27.9981 22.5469 28 21.0003V7.00033C27.9981 5.4538 27.383 3.97114 26.2894 2.87758C25.1959 1.78402 23.7132 1.16884 22.1667 1.16699ZM5.83333 3.50033H22.1667C22.8652 3.5017 23.5474 3.71209 24.1254 4.10443C24.7035 4.49677 25.1508 5.0531 25.41 5.70183L16.4757 14.6373C15.8182 15.2922 14.928 15.6599 14 15.6599C13.072 15.6599 12.1818 15.2922 11.5243 14.6373L2.59 5.70183C2.84917 5.0531 3.29655 4.49677 3.87456 4.10443C4.45256 3.71209 5.13475 3.5017 5.83333 3.50033ZM22.1667 24.5003H5.83333C4.90508 24.5003 4.01484 24.1316 3.35846 23.4752C2.70208 22.8188 2.33333 21.9286 2.33333 21.0003V8.75033L9.87467 16.287C10.9697 17.3793 12.4533 17.9927 14 17.9927C15.5467 17.9927 17.0303 17.3793 18.1253 16.287L25.6667 8.75033V21.0003C25.6667 21.9286 25.2979 22.8188 24.6415 23.4752C23.9852 24.1316 23.0949 24.5003 22.1667 24.5003Z" fill="#C47A2C"/>
</svg>
