<svg width="28" height="28" fill="none" xmlns="http://www.w3.org/2000/svg"><g clip-path="url(#clip0_13793_7274)"><path d="M22.176 2.791H21V1.69c0-.315-.114-.582-.342-.8a1.16 1.16 0 00-.834-.33c-.31 0-.579.11-.806.33a1.067 1.067 0 00-.342.8v1.1H9.324v-1.1c0-.315-.114-.582-.342-.8a1.126 1.126 0 00-.806-.33c-.328 0-.606.11-.834.33a1.068 1.068 0 00-.342.8v1.1H5.824a5.82 5.82 0 00-2.27.446 6.09 6.09 0 00-1.831 1.208A5.737 5.737 0 00.465 6.23 5.208 5.208 0 000 8.409v13.44c0 .77.155 1.496.465 2.178a5.84 5.84 0 001.258 1.76 6.09 6.09 0 001.832 1.207 5.82 5.82 0 002.27.446h16.35c.803 0 1.56-.149 2.27-.446a6.09 6.09 0 001.832-1.208 5.832 5.832 0 001.258-1.759c.31-.682.465-1.408.465-2.178V8.409c0-.77-.155-1.497-.465-2.18a5.736 5.736 0 00-1.258-1.784 6.09 6.09 0 00-1.832-1.208 5.819 5.819 0 00-2.27-.446zM5.824 5.05h16.352c.966 0 1.79.328 2.474.984.684.656 1.026 1.448 1.026 2.376v1.1H2.324v-1.1c0-.928.342-1.72 1.026-2.376.683-.656 1.508-.984 2.474-.984zm16.352 20.16H5.824c-.966 0-1.79-.328-2.474-.985-.684-.656-1.026-1.448-1.026-2.375V11.77h23.352v10.08c0 .927-.342 1.72-1.026 2.375-.683.657-1.508.985-2.474.985zm0-8.978c0 .315-.114.582-.342.8a1.16 1.16 0 01-.834.329H7c-.328 0-.606-.11-.834-.328a1.067 1.067 0 01-.342-.8c0-.298.114-.556.342-.775A1.16 1.16 0 017 15.129h14c.328 0 .606.11.834.328.228.219.342.477.342.774zM14 20.72c0 .315-.114.582-.342.8a1.16 1.16 0 01-.834.329H7a1.16 1.16 0 01-.834-.328 1.068 1.068 0 01-.342-.801c0-.315.114-.582.342-.8A1.16 1.16 0 017 19.59h5.824c.328 0 .606.11.834.328.228.22.342.486.342.8z" fill="#C47A2C"/></g><defs><clipPath id="clip0_13793_7274"><path fill="#fff" transform="matrix(1 0 0 -1 0 28)" d="M0 0h28v28H0z"/></clipPath></defs></svg>