<svg width="28" height="28" fill="none" xmlns="http://www.w3.org/2000/svg"><g clip-path="url(#clip0_13793_7319)"><path d="M22.167 4.667h-1.285A5.846 5.846 0 0015.167 0H5.833A5.84 5.84 0 000 5.833V20.83a2.502 2.502 0 002.507 2.507c.486 0 .97-.141 1.389-.42l3.441-2.295a5.844 5.844 0 005.496 3.878h6.647l4.625 3.085A2.505 2.505 0 0028 25.496V10.5a5.84 5.84 0 00-5.833-5.833zM2.602 20.976c-.022.014-.087.056-.178.008-.092-.05-.092-.128-.092-.153V5.833c0-1.93 1.57-3.5 3.5-3.5h9.334c1.93 0 3.5 1.57 3.5 3.5V14c0 1.93-1.57 3.5-3.5 3.5h-7c-.357 0-.632.186-.66.204l-4.904 3.271zm23.065 4.521c0 .025 0 .104-.091.153-.094.05-.157.007-.178-.008l-4.917-3.28a1.17 1.17 0 00-.648-.195h-7a3.505 3.505 0 01-3.299-2.334h5.633A5.84 5.84 0 0021 14V7h1.167c1.93 0 3.5 1.57 3.5 3.5v14.997zM7 8.168a3.495 3.495 0 014.124-3.444 3.527 3.527 0 012.82 2.82 3.518 3.518 0 01-1.757 3.69c-.521.288-.521.372-.521.434a1.167 1.167 0 11-2.334 0c0-1.526 1.211-2.192 1.728-2.477a1.17 1.17 0 00.264-1.848 1.17 1.17 0 00-1.117-.306 1.157 1.157 0 00-.457.237 1.16 1.16 0 00-.418.895 1.167 1.167 0 11-2.333 0L7 8.167zm4.667 7a1.167 1.167 0 11-2.333 0 1.167 1.167 0 012.333 0z" fill="#C47A2C"/></g><defs><clipPath id="clip0_13793_7319"><path fill="#fff" d="M0 0h28v28H0z"/></clipPath></defs></svg>