<svg width="28" height="28" fill="none" xmlns="http://www.w3.org/2000/svg"><path d="M19.096 27.588H8.106a5.287 5.287 0 01-2.135-.438 5.475 5.475 0 01-1.738-1.183 5.84 5.84 0 01-1.17-1.725 5.287 5.287 0 01-.438-2.136V6.716c0-.754.146-1.466.438-2.135a5.84 5.84 0 011.17-1.725 5.474 5.474 0 011.738-1.184 5.287 5.287 0 012.136-.437h10.989a5.3 5.3 0 012.136.437 5.63 5.63 0 011.75 1.184 5.352 5.352 0 011.158 1.725c.291.669.437 1.38.437 2.136v15.39c0 .754-.146 1.466-.437 2.135a5.352 5.352 0 01-1.158 1.725 5.63 5.63 0 01-1.75 1.183 5.287 5.287 0 01-2.136.438zM8.106 3.422a3.17 3.17 0 00-2.328.966 3.174 3.174 0 00-.965 2.329v15.39c0 .909.321 1.685.965 2.328.643.644 1.42.965 2.329.965h10.989c.909 0 1.685-.321 2.329-.965.643-.643.965-1.42.965-2.329V6.716c0-.909-.322-1.685-.965-2.328a3.174 3.174 0 00-2.33-.966H8.108zm12.096 4.401c0-.309-.107-.57-.322-.785a1.068 1.068 0 00-.784-.321h-4.401c-.292 0-.545.107-.76.321a1.068 1.068 0 00-.321.785c0 .309.107.57.322.785.214.215.467.322.759.322h4.4c.31 0 .571-.107.786-.322.214-.214.321-.476.321-.785zm0 6.588c0-.308-.107-.57-.322-.784a1.068 1.068 0 00-.784-.322h-4.401c-.292 0-.545.107-.76.322a1.068 1.068 0 00-.321.784c0 .31.107.57.322.785.214.215.467.322.759.322h4.4c.31 0 .571-.107.786-.322.214-.214.321-.476.321-.785zm0 6.589c0-.31-.107-.57-.322-.785a1.068 1.068 0 00-.784-.322h-4.401c-.292 0-.545.107-.76.322a1.068 1.068 0 00-.321.785c0 .308.107.57.322.785.214.214.467.321.759.321h4.4c.31 0 .571-.107.786-.321.214-.215.321-.477.321-.785zM11.401 8.93V6.717c0-.292-.107-.545-.322-.76a1.038 1.038 0 00-.76-.321H8.108c-.292 0-.545.107-.76.321a1.038 1.038 0 00-.321.76V8.93c0 .291.107.545.321.759.215.214.468.322.76.322h2.213c.291 0 .545-.108.759-.322a1.04 1.04 0 00.322-.76zm0 6.588v-2.213c0-.292-.107-.545-.322-.76a1.038 1.038 0 00-.76-.321H8.108c-.292 0-.545.107-.76.322a1.038 1.038 0 00-.321.759v2.213c0 .292.107.545.321.76.215.214.468.32.76.32h2.213c.291 0 .545-.106.759-.32.214-.215.322-.468.322-.76zm0 6.588v-2.213c0-.292-.107-.545-.322-.76a1.038 1.038 0 00-.76-.32H8.108a1.04 1.04 0 00-.76.32 1.038 1.038 0 00-.321.76v2.213c0 .292.107.545.321.76.215.214.468.321.76.321h2.213c.291 0 .545-.107.759-.322.214-.214.322-.467.322-.759z" fill="#C47A2C"/></svg>