<svg width="96" height="92" fill="none" xmlns="http://www.w3.org/2000/svg"><path d="M29 46v16m62-16v41H40.18m35.808-41H25V34h70v12H81.173M32.657 73.067H29m7.848 0h5.447V67.2H8.772v5.867H22" stroke="#3B4A58"/><mask id="a" fill="#fff"><path d="M40.2 73.486v18.438H10.867V73.486"/></mask><path d="M40.2 91.924v1h1v-1h-1zm-29.333 0h-1v1h1v-1zM39.2 73.486v18.438h2V73.486h-2zm1 17.438H10.867v2H40.2v-2zm-28.333 1V73.486h-2v18.438h2z" fill="#3B4A58" mask="url(#a)"/><path d="M22.263 67.281h6.542v24.143h-6.542V67.28z" stroke="#3B4A58"/><path d="M52.5 33.5h13V87h-13V33.5z" fill="#F9B974" stroke="#C47A2C"/><path d="M20.667 60.035h0a4.756 4.756 0 00-2.458-.229h0c-2.101.348-3.502 1.888-3.49 3.69l5.948-3.46zm0 0c.575.211 1.078.643 1.523 1.203.444.56.808 1.217 1.117 1.835h0a86.861 86.861 0 011.894 4.046m-4.534-7.084l5.08 7.083m0 0H25.2m.546 0a87.386 87.386 0 00-1.993-4.269c-.627-1.255-1.528-2.775-2.915-3.283a5.255 5.255 0 00-2.712-.253l7.62 7.805zm-.546 0h-5.175c-1.026 0-1.676-.034-1.991-.09-1.91-.344-3.304-1.884-3.315-3.531L25.2 67.119zm.696.5h.036c.003 0 .006 0 .01-.002a.02.02 0 00.006-.005.017.017 0 00.003-.017l-.018-.041-.001-.003a87.393 87.393 0 00-.172-.4.48.48 0 00-.206.153l.378.295-.378-.294a.483.483 0 00-.098.235l.476.061-.476-.061a.484.484 0 00-.004.08h.444zm.04-.018h0zm24.729-48.51h0a8.354 8.354 0 00-4.584-.455h0c-3.894.688-6.605 3.768-6.58 7.498l11.164-7.042zm0 0c1.12.438 2.075 1.325 2.9 2.433.823 1.105 1.49 2.393 2.047 3.583h0a171.618 171.618 0 013.664 8.393m-8.61-14.408l8.61 14.408m0 0c-3.29.002-6.585.001-9.883 0-1.834-.002-3.03-.066-3.629-.18-3.55-.68-6.241-3.76-6.264-7.186L59.276 33.5zm9.059-14.409h0a8.354 8.354 0 014.584-.455h0c3.894.688 6.605 3.768 6.58 7.498l-11.164-7.042zm0 0c-1.12.438-2.075 1.325-2.9 2.433-.823 1.105-1.49 2.393-2.047 3.583h0a171.618 171.618 0 00-3.664 8.393m8.61-14.408l-8.61 14.408m0 0c3.29.002 6.585.001 9.883 0 1.834-.002 3.03-.066 3.629-.18 3.55-.68 6.241-3.76 6.264-7.186L59.724 33.5zM30.885 60.03h0a4.053 4.053 0 012.247-.225h0c1.912.341 3.228 1.861 3.216 3.692l-5.463-3.466zm0 0c-.522.207-.984.632-1.399 1.194-.413.56-.75 1.217-1.038 1.836h0a90.127 90.127 0 00-1.764 4.059m4.201-7.088l-4.201 7.088m0 0h4.772c.954-.001 1.552-.035 1.837-.09 1.736-.336 3.044-1.857 3.055-3.532l-9.664 3.622z" stroke="#3B4A58"/><path d="M18.68 29.907c6.562-1.43 11.463-7.276 11.463-14.291C30.143 7.539 23.623 1 15.57 1S1 7.54 1 15.616c0 6.777 4.598 12.494 10.858 14.14.346.086.691.172 1.058.238l.26.043 2.417 4.482 3.087-4.612z" fill="#F9B974" stroke="#C47A2C" stroke-miterlimit="10"/><path d="M11.442 21.851l7.944-12.407m.303 13.446a2.66 2.66 0 002.655-2.663 2.66 2.66 0 00-2.655-2.663 2.66 2.66 0 00-2.655 2.663 2.66 2.66 0 002.655 2.663zm-8.635-8.66a2.66 2.66 0 002.655-2.664 2.66 2.66 0 00-2.655-2.663A2.66 2.66 0 008.4 11.566a2.66 2.66 0 002.655 2.663z" stroke="#C47A2C" stroke-miterlimit="10"/></svg>