<svg width="100" height="100" fill="none" xmlns="http://www.w3.org/2000/svg"><path d="M55.982 83H42.699v.361h13.283V83zm-4.337-4.964H36.464l2.259-3.886h21.325l2.26 3.886H53.18m31.266-39.03v27.741h-70.12V22.018h34.246" stroke="#3B4A58"/><path d="M80.65 39.006v23.856H18.12V25.904h30.452" stroke="#C47A2C"/><path d="M8 81.114h82.771M8 85v-4.157l6.235-10.662h70.482l6.054 10.843V85H8z" stroke="#3B4A58"/><path d="M40.982 53.645V34.306l16.717 9.669-16.717 9.669z" fill="#F9B974" stroke="#C47A2C"/><path d="M88.06 25.09l-2.62 9.037-.09.27c-.362 1.266-8.856 1.989-18.344-.632-9.579-2.62-16.446-7.68-16.175-9.036l.09-.361 2.26-8.675" stroke="#3B4A58"/><path d="M45.32 10.723L73.242 10l23.674 15h-.994l-8.223.271-18.704.542-15.814-10.12-7.861-4.97z" stroke="#3B4A58"/></svg>