<svg version="1.1" id="Слой_1" xmlns="http://www.w3.org/2000/svg" x="0" y="0" viewBox="0 0 96 92" xml:space="preserve" enable-background="new 0 0 96 92"><style>.st0{fill:none;stroke:#3b4a58}</style><path class="st0" d="M29 46v15.1M91 46v41H40.2M76 46H25V34h70v12H81.2M32.7 73.1H29m7.8 0h5.4v-5.9H8.8v5.9H22"/><defs><filter id="Adobe_OpacityMaskFilter" filterUnits="userSpaceOnUse" x="9.9" y="73.5" width="31.3" height="19.4"><feColorMatrix values="1 0 0 0 0 0 1 0 0 0 0 0 1 0 0 0 0 0 1 0"/></filter></defs><mask maskUnits="userSpaceOnUse" x="9.9" y="73.5" width="31.3" height="19.4" id="path-4-inside-1_64_18_00000051372762862291370550000002715712738460103836_"><path d="M40.2 73.5v18.4H10.9V73.5" fill="#fff" filter="url(#Adobe_OpacityMaskFilter)"/></mask><path d="M40.2 91.9v1h1v-1h-1zm-29.3 0h-1v1h1v-1zm28.3-18.4v18.4h2V73.5h-2zm1 17.4H10.9v2h29.3v-2zm-28.3 1V73.5h-2v18.4h2z" mask="url(#path-4-inside-1_64_18_00000051372762862291370550000002715712738460103836_)" fill="#3b4a58"/><path class="st0" d="M22.3 67.3h6.5v24.1h-6.5V67.3z"/><path d="M52.5 34h13v53h-13V34z" fill="#f9b974" stroke="#c47a2c"/><path d="M18.7 29.9c6.6-1.4 11.5-7.3 11.5-14.3C30.1 7.5 23.6 1 15.6 1 7.5 1 1 7.5 1 15.6c0 6.8 4.6 12.5 10.9 14.1.3.1.7.2 1.1.2h.3l2.4 4.5 3-4.5z" fill="#f9b974" stroke="#c47a2c" stroke-miterlimit="10"/><path d="M11.4 21.9l7.9-12.4m.4 13.4c1.5 0 2.7-1.2 2.7-2.7s-1.2-2.7-2.7-2.7c-1.5 0-2.7 1.2-2.7 2.7s1.2 2.7 2.7 2.7zm-8.6-8.7c1.5 0 2.7-1.2 2.7-2.7s-1.2-2.7-2.7-2.7c-1.5 0-2.7 1.2-2.7 2.7s1.2 2.7 2.7 2.7z" stroke="#c47a2c" stroke-miterlimit="10" fill="none"/><path class="st0" d="M50.7 19.6c-4.5-2.4-12.9-.6-12.7 7 .1 3.3 2.8 6.3 6.1 7.2 1 .3 2.1.2 4.4.2H59s-3.9-12-8.3-14.4zm16.6 0c4.4-2.4 12.9-.6 12.7 7-.1 3.3-2.8 6.3-6.1 7.2-1 .3-2.1.2-4.4.2H59s3.9-12 8.3-14.4zM21.8 60.7c-2-1.1-5.9-.3-5.8 3.2 0 1.5 1.3 2.9 2.8 3.3.5.1.9.1 2 .1h4.8s-1.9-5.6-3.8-6.6z"/><path class="st0" d="M29.3 60.7c2-1.1 5.9-.3 5.8 3.2 0 1.5-1.3 2.9-2.8 3.3-.5.1-.9.1-2 .1h-4.8s1.8-5.6 3.8-6.6z"/></svg>