<svg width="100" height="100" viewBox="0 0 100 100" fill="none" xmlns="http://www.w3.org/2000/svg">
<path d="M82.2807 78.7631H86.1135V31.5879H81.3531M26.6245 78.7631H14.4434V31.5879H21.9865" stroke="#3B4A58"/>
<path d="M21.9864 25.2373H9V84.2064H91.5567V25.2373H81.3531" stroke="#3B4A58"/>
<path d="M43.9694 84.2065H56.588L57.9901 96.0004H42.5674L43.9694 84.2065Z" stroke="#3B4A58"/>
<path d="M31.6807 96.0005H69.7838" stroke="#3B4A58" stroke-linecap="round"/>
<path d="M31.5992 73.396V78.7628H77.0498V13.2866H71.6135" stroke="#3B4A58" stroke-miterlimit="10"/>
<path d="M71.7148 73.4762V8H37.6243L26.2643 19.7049V73.4762H71.7148Z" stroke="#3B4A58" stroke-miterlimit="10"/>
<path d="M37.6912 8L37.6914 19.7387H26.237" stroke="#3B4A58" stroke-miterlimit="10"/>
<path d="M32.3745 56.7432H67.0135" stroke="#3B4A58"/>
<path d="M32.3745 63.062H67.0135" stroke="#3B4A58"/>
<rect x="39.6108" y="28.4072" width="18.5521" height="16.6969" fill="#F9B974"/>
<path d="M40.5386 27.7402L49.5951 39.1114L61.6062 24.6968" stroke="#C47A2C" stroke-miterlimit="10"/>
</svg>
