<svg width="104" height="93" fill="none" xmlns="http://www.w3.org/2000/svg"><path stroke="#3B4A58" stroke-width=".427" d="M39.834 89.801h14.747v.427H39.834z"/><path d="M49.736 85.323h-16.86l2.529-4.266h23.603l2.53 4.266H51.421m34.563-44.361v30.711H8.43v-49.48h37.934" stroke="#3B4A58"/><path d="M81.77 40.962v26.445H12.646V26.46h33.719" stroke="#C47A2C"/><path d="M.5 92.5v-4.469l8.2-12.446h77.015l8.199 12.446V92.5H.5z" stroke="#3B4A58"/><path d="M37.934 57.17V35.843L56.48 46.507 37.934 57.17z" fill="#F9B974" stroke="#C47A2C"/><path d="M89.961 25.601l-2.859 9.98-.08.295c-.39 1.447-9.79 2.184-20.34-.732-10.55-2.916-18.242-8.515-17.851-9.962l.12-.442 2.53-9.588" stroke="#3B4A58"/><path d="M42.711 9.668l30.927-.808 26.225 16.606-1.132.031h0l-9.084.256h0l-20.726.582-17.556-11.164h0L42.71 9.668z" stroke="#3B4A58"/></svg>