<svg version="1.1" id="Слой_1" xmlns="http://www.w3.org/2000/svg" x="0" y="0" viewBox="0 0 104 93" xml:space="preserve"><style>.st1{fill:none;stroke:#3b4a58}</style><path fill="none" stroke="#3b4a58" stroke-width=".426" d="M39.8 89.8h14.7v.4H39.8z"/><path class="st1" d="M49.7 85.3H32.9l2.5-4.3H59l2.5 4.3H51.4M86 41v30.7H8.4V22.2h37.9"/><path d="M81.8 41v26.4H12.6V26.5h33.7" fill="none" stroke="#c47a2c"/><path class="st1" d="M1.4 91.9v-4.6l6.9-11.8h78l6.7 12v4.4H1.4zm0-4.3H93"/><path d="M37.9 57.2V35.8l18.5 10.7-18.5 10.7z" fill="#f9b974" stroke="#c47a2c"/><path class="st1" d="M90 25.6l-2.9 10-.1.3c-.4 1.4-9.8 2.2-20.3-.7-10.6-2.9-18.2-8.5-17.9-10l.1-.4 2.5-9.6"/><path class="st1" d="M42.7 9.7l30.9-.8 26.2 16.6h-1.1l-9.1.3-20.7.6-17.5-11.2-8.7-5.5z"/></svg>