<svg width="91" height="97" fill="none" xmlns="http://www.w3.org/2000/svg"><path d="M80 77.286h4.132V26.429H79M20 77.286H6.868V26.429H15" stroke="#3B4A58"/><path d="M15 19.582H1v63.572h89V19.582H79M38.699 83.154h13.603l1.511 12.714H37.187l1.512-12.714z" stroke="#3B4A58"/><path d="M25.45 95.868h41.078" stroke="#3B4A58" stroke-linecap="round"/><path d="M25.363 71.5v5.786h48.998V6.699H68.5" stroke="#3B4A58" stroke-width=".94" stroke-miterlimit="10"/><path d="M68.61 71.586V1H31.857L19.611 13.618v57.968H68.61z" stroke="#3B4A58" stroke-width=".94" stroke-miterlimit="10"/><path d="M31.93 1v12.655H19.583" stroke="#3B4A58" stroke-width=".94" stroke-miterlimit="10"/><path d="M26.2 53.548h37.342M26.2 60.36h37.342" stroke="#3B4A58"/><path fill="#F9B974" d="M34 23h20v18H34z"/><path d="M35 22.28l9.763 12.26L57.712 19" stroke="#C47A2C" stroke-width=".94" stroke-miterlimit="10"/></svg>