<svg width="100" height="100" fill="none" xmlns="http://www.w3.org/2000/svg"><path d="M20.479 33.146c6.875-1.458 11.98-7.604 11.98-14.896-.105-8.437-6.876-15.208-15.21-15.208A15.16 15.16 0 002.043 18.25c0 7.084 4.791 13.021 11.354 14.688.312.104.729.208 1.145.208h.313l2.5 4.688 3.125-4.688z" fill="#F9B974" stroke="#C47A2C" stroke-width=".98" stroke-miterlimit="10"/><path d="M12.875 24.813l8.23-12.917m.416 13.959a2.8 2.8 0 002.813-2.813 2.8 2.8 0 00-2.813-2.813 2.8 2.8 0 00-2.813 2.813 2.8 2.8 0 002.813 2.813zm-8.958-9.063a2.8 2.8 0 002.812-2.813 2.8 2.8 0 00-2.813-2.812A2.8 2.8 0 009.75 13.98a2.8 2.8 0 002.813 2.812z" stroke="#C47A2C" stroke-width=".98" stroke-miterlimit="10"/><path d="M26.209 49.916v15.73m64.583-15.73v42.709H37.875m37.291-42.709H22.042v-12.5h72.916v12.5H80.583" stroke="#3B4A58" stroke-width=".98"/><path d="M50.688 37.416h13.541v55.209H50.688V37.416z" fill="#F9B974" stroke="#C47A2C" stroke-width=".98"/><path d="M48.812 22.416c-4.687-2.5-13.437-.625-13.229 7.292.104 3.437 2.917 6.562 6.354 7.5 1.042.312 2.188.208 4.584.208h10.937s-4.062-12.5-8.646-15zm17.292 0c4.584-2.5 13.438-.625 13.23 7.292-.105 3.437-2.917 6.562-6.355 7.5-1.041.312-2.187.208-4.583.208H57.458s4.063-12.5 8.646-15zM29.973 78.563h-3.808m8.027 0h5.558v-6.25H5.375v6.25H18.96" stroke="#3B4A58" stroke-width=".98"/><path d="M18.916 72.313h7.292v25h-7.291v-25zm-.208-7.07c-2.083-1.179-6.146-.322-6.041 3.427 0 1.607 1.354 3.107 2.916 3.535.521.107.938.107 2.083.107h5s-1.979-5.998-3.958-7.07z" stroke="#3B4A58" stroke-width=".98"/><path d="M26.52 65.243c2.084-1.179 6.147-.322 6.043 3.427 0 1.607-1.355 3.107-2.917 3.535-.521.107-.938.107-2.084.107h-5s1.875-5.998 3.959-7.07zM8.5 78.563v18.75h28.125v-18.75" stroke="#3B4A58" stroke-width=".98"/></svg>