<svg id="Слой_1" data-name="Слой 1" xmlns="http://www.w3.org/2000/svg" viewBox="0 0 50 50"><defs><style>.cls-1{fill:none;stroke:#c47a2b;stroke-miterlimit:10;stroke-width:3px;}.cls-2{fill:#c47a2b;}</style></defs><circle class="cls-1" cx="25" cy="24.98" r="23"/><path class="cls-2" d="M35.24,16.56a2.2,2.2,0,0,0-1.6.77L24.15,28.07l-5.58-7.33A1.92,1.92,0,0,0,17,19.89a2.09,2.09,0,0,0-1.27.43,2,2,0,0,0-.41,2.89l7,9.4a1.82,1.82,0,0,0,1.55.83h.1a2.31,2.31,0,0,0,1.65-.63L36.84,20.12a2.21,2.21,0,0,0-.2-3A2.12,2.12,0,0,0,35.24,16.56Z"/></svg>